<svg xmlns="http://www.w3.org/2000/svg" viewBox="0 0 100 100"><path d="M98.566 81.778a3.194 3.194 0 0 0 .28-.74c.034-.121.065-.241.086-.367a3.977 3.977 0 0 0 .043-.428c.005-.082.025-.16.025-.243V20c0-.083-.02-.161-.024-.243a3.98 3.98 0 0 0-.044-.429 3.932 3.932 0 0 0-.085-.365 3.193 3.193 0 0 0-.281-.741 3.911 3.911 0 0 0-.182-.334 3.958 3.958 0 0 0-.248-.344c-.052-.065-.09-.138-.146-.201-.026-.03-.058-.05-.085-.079a3.994 3.994 0 0 0-.315-.29c-.093-.078-.182-.16-.28-.23a3.986 3.986 0 0 0-.344-.208c-.109-.061-.215-.127-.328-.178-.12-.053-.245-.091-.37-.133-.121-.041-.241-.085-.366-.114-.12-.028-.244-.04-.367-.057a3.994 3.994 0 0 0-.42-.042C95.075 16.01 95.039 16 95 16H5c-.038 0-.073.01-.111.011a3.99 3.99 0 0 0-.436.044c-.118.016-.236.028-.35.055a3.999 3.999 0 0 0-.386.12c-.119.04-.238.075-.351.126-.118.053-.229.121-.342.186-.113.065-.227.126-.332.2-.1.07-.19.154-.283.234a3.982 3.982 0 0 0-.315.29c-.026.028-.058.047-.083.076-.055.062-.092.133-.143.198a3.953 3.953 0 0 0-.253.35 3.923 3.923 0 0 0-.18.33 3.186 3.186 0 0 0-.281.74 3.931 3.931 0 0 0-.086.37 3.977 3.977 0 0 0-.043.425C1.02 19.838 1 19.916 1 20v60c0 .084.02.163.025.245a3.967 3.967 0 0 0 .043.426c.021.126.053.247.086.369.034.127.07.253.117.377a3.948 3.948 0 0 0 .166.365c.055.11.11.22.177.327a3.976 3.976 0 0 0 .257.355c.05.063.086.132.14.193.024.027.053.045.078.071a3.993 3.993 0 0 0 .394.357c.077.063.149.133.23.19a3.989 3.989 0 0 0 .474.272c.078.04.15.09.23.124a3.977 3.977 0 0 0 .665.213c.035.008.067.025.102.032A4.012 4.012 0 0 0 5 84h90a4.01 4.01 0 0 0 .815-.084c.038-.008.074-.026.111-.035a3.975 3.975 0 0 0 .658-.21c.08-.035.154-.086.233-.126a3.993 3.993 0 0 0 .47-.27c.083-.058.157-.13.237-.195a4.004 4.004 0 0 0 .385-.349c.025-.027.056-.046.081-.074.057-.063.094-.135.146-.201a3.966 3.966 0 0 0 .249-.344c.068-.11.124-.22.18-.334zM9 28.908L32.725 50 9 71.092zm41.658 25.15a1 1 0 0 1-1.328 0L15.52 24h68.958zm-11.913 1.294l5.27 4.684a9.001 9.001 0 0 0 11.958.001l5.272-4.686L84.478 76H15.519zM67.266 50L91 28.906v42.187z"/></svg>