<svg xmlns="http://www.w3.org/2000/svg" viewBox="0 0 100 100"><title>envelope</title><path d="M97.673 81.337a2.397 2.397 0 0 0 .212-.556c.024-.092.048-.183.064-.278a2.985 2.985 0 0 0 .033-.32c.003-.061.018-.12.018-.183V20c0-.063-.015-.122-.018-.184a2.978 2.978 0 0 0-.033-.319 2.95 2.95 0 0 0-.064-.277 2.95 2.95 0 0 0-.088-.282 2.965 2.965 0 0 0-.124-.274 2.934 2.934 0 0 0-.134-.246 2.991 2.991 0 0 0-.19-.264c-.038-.048-.066-.1-.107-.147-.019-.022-.042-.037-.062-.057a3.01 3.01 0 0 0-.24-.22c-.068-.06-.135-.12-.208-.172-.08-.058-.167-.105-.254-.154-.083-.047-.165-.098-.252-.136-.085-.039-.176-.066-.265-.096a2.991 2.991 0 0 0-.288-.09c-.085-.02-.173-.028-.26-.04a2.997 2.997 0 0 0-.332-.034c-.028 0-.053-.008-.081-.008H5c-.027 0-.053.007-.08.008a3.006 3.006 0 0 0-.338.034c-.085.012-.17.02-.253.04a2.98 2.98 0 0 0-.298.092c-.086.03-.173.055-.255.092a2.967 2.967 0 0 0-.263.143c-.082.047-.166.092-.243.147-.075.053-.144.116-.215.177a3 3 0 0 0-.234.216c-.02.02-.044.036-.063.058-.042.047-.07.1-.108.149a2.987 2.987 0 0 0-.189.26 3.18 3.18 0 0 0-.135.25 2.389 2.389 0 0 0-.211.555c-.024.091-.048.181-.064.275a2.99 2.99 0 0 0-.033.32C2.015 19.88 2 19.938 2 20v60c0 .063.015.121.018.183a2.966 2.966 0 0 0 .033.32c.016.095.04.186.064.277a2.396 2.396 0 0 0 .212.556c.042.084.084.166.134.247a2.975 2.975 0 0 0 .19.263c.038.048.066.1.107.147.018.02.04.034.06.054a3.003 3.003 0 0 0 .292.265c.059.048.113.101.174.144a2.996 2.996 0 0 0 .357.204c.058.03.112.068.171.093a2.989 2.989 0 0 0 .503.161c.025.006.048.018.073.023A3.012 3.012 0 0 0 5 83h90a3.011 3.011 0 0 0 .612-.063c.023-.005.044-.016.067-.02a2.984 2.984 0 0 0 .51-.164c.057-.025.11-.062.166-.09a2.995 2.995 0 0 0 .361-.207c.06-.042.114-.095.172-.142a2.981 2.981 0 0 0 .295-.267c.019-.02.041-.034.06-.054.04-.046.067-.098.105-.146a2.966 2.966 0 0 0 .192-.265c.05-.08.091-.162.133-.245zM8 26.68L34.23 50 8 73.318zm43.322 28.124a2 2 0 0 1-2.657 0L12.89 23h74.218zm-12.577-.79l5.933 5.274a8.002 8.002 0 0 0 10.63.001l5.937-5.276L87.11 77H12.89zM65.761 50L92 26.68v46.64z"/></svg>
