<svg xmlns="http://www.w3.org/2000/svg" viewBox="0 0 160 160"><path fill="#231F20" d="M144.733 101.175c-1.068-3.631-2.475-7.078-4.656-10.201-2.258-3.233-4.689-6.284-8.071-8.428-.584-.37-.898-.804-1.056-1.528-.262-1.199-.689-2.377-1.173-3.51-1.107-2.591-3.378-4.225-5.296-6.125-.986-.976-2.25-1.672-3.385-2.498-.217-.158-.466-.299-.624-.506-1.935-2.54-4.327-4.413-7.474-5.22-.357-.092-.683-.306-1.366-.622.764-1.1 1.34-2.072 2.054-2.93 1.895-2.276 3.4-4.788 4.586-7.484 1.262-2.869 2.401-5.792 3.659-8.663.432-.986 1.172-1.84 1.586-2.831 1.694-4.056 2.36-8.257 1.418-12.611-.423-1.953-.851-3.918-1.485-5.807-.46-1.371-1.255-2.631-1.914-3.933-.145-.286-.456-.523-.508-.814-.35-1.979-1.607-3.394-2.841-4.858-1.435-1.702-3.045-3.067-5.231-3.742-2.066-.638-4.228-1.068-6.012-2.451-.355-.275-.92-.333-1.4-.384-1.733-.185-3.503-.167-5.198-.52-2.157-.449-4.263-.724-6.455-.295-1.814.354-3.704.383-5.478.862-2.972.801-4.825 3.158-6.343 5.583-1.665 2.66-2.741 5.692-4.883 8.062-.594.657-1.38 1.168-2.145 1.636-1.456.89-3.158 1.46-3.969 3.143-.353.733-.633 1.501-.93 2.259-.477 1.213-.942 2.431-1.409 3.647-.295.767-.745 1.015-1.641.893-1.942-.263-3.86-.292-5.748.632-.919.449-2.155.57-3.184.417-4.722-.705-9.352-.574-13.824 1.218-2.36.946-4.824 1.749-6.336 4.102-.489.761-1.425 1.221-2.06 1.908-.505.547-1.036 1.176-1.251 1.863-.737 2.36-1.957 4.56-1.997 7.156-.055 3.522-.36 7.039-.529 10.56-.014.301.177.616.286.92.455 1.275-.039 2.078-1.405 2.272-.755.107-1.534.127-2.264.328-4.65 1.283-8.509 3.973-11.825 7.318-3.573 3.603-3.568 10.664-.341 14.356.198.226.324.555.382.856.18.941.335 1.889.455 2.839.355 2.803.644 5.611.293 8.437-.599 4.815.97 9.259 2.541 13.641.53 1.48.295 2.285-.664 3.282-1.678 1.745-2.726 3.796-2.659 6.301.007.266-.084.535-.135.802-1.178 6.202-1.039 12.355.781 18.422.272.907.808 1.742 1.281 2.578.364.643.97.938 1.652.536.234-.138.453-.204.658-.221 1.708 2.959 4.387 5.293 7.721 6.257 4.566 1.32 9.069-.919 13.457 1.327 4.202 2.15 7.602 4.387 12.389 5.115 5.043.766 10.254.483 15.315.039 10.345-.906 20.523-3.179 30.473-6.094 8.114-2.377 16.249-5.059 22.791-10.507.33-.106.66-.209.989-.316a92.75 92.75 0 0 0 2.71-1.509c.657-.382 1.301-.562 1.912-.588.2-.265.458-.487.8-.67 2.374-1.275 4.405-3.014 6.289-4.905 1.757-1.764 3.663-3.459 4.182-6.098.058-.295.366-.534.525-.818.813-1.453 1.651-2.893 2.406-4.376.462-.907.841-1.865 1.164-2.831.495-1.482 1.162-2.967 1.309-4.494.326-3.423.085-6.833-.899-10.179zM117.695 75.15c.297.279.658.46.66.644.011 1.282-.052 2.565-.091 3.848l-.569-.053V75.15zm-.514 15.076c.021-.316.447-.791.768-.87 1.638-.402 2.235-1.617 2.421-3.067.123-.959-.054-1.953-.041-2.931.031-2.224.081-4.448.166-6.67.013-.34.259-.672.511-1.284 1.78 1.461 2.112 3.155 2.069 5-.029 1.237-.055 2.475-.096 3.712-.011.324.033.706-.118.961-1.567 2.639-2.509 5.685-5.001 7.722-.117.096-.28.136-.569.271-.052-1.005-.171-1.93-.11-2.844zm-.454 6.34c2.806-1.117 4.278-3.485 5.599-5.983.646-1.222 1.235-2.474 1.85-3.712l.343.141c.605 4.067-4.184 10.029-7.904 9.838.036-.098.047-.258.112-.284zm-1.717-23.645c.014 1.031.157 2.059.189 3.09.014.458-.103.921-.194 1.647-2.123-.776-3.882-1.36-4.356-3.637-.18-.865-.816-1.632-1.224-2.454-.263-.531-.581-1.06-.711-1.627-.235-1.027.489-1.822 1.535-1.806 2.484.038 4.728 2.318 4.761 4.787zm-7.17-14.979l-.356-.205 1.854-6.155 2.195 1.56c-1.522 1.564-2.229 3.479-3.693 4.8zm.175 16.817c-1.104-.429-2.584-.17-2.891-1.707-.076-.383-.044-1.109.101-1.154.415-.129 1.009-.144 1.363.073.976.599 1.334 1.613 1.427 2.788zm-5.374-61.633l-3.217 3.485-.381-.311c.545-.969 1.029-1.98 1.657-2.892.386-.563.986-.999 1.941-.282zM91.35 10.304c1.578-.679 2.988-1.829 4.755-1.957 1.549-.112 3.118-.017 4.673.077.316.019.608.438.91.673l-.208.418c-1.924-.441-3.526.195-4.996 1.329-.243.188-.603.346-.897.328-1.762-.109-3.28.56-4.711 1.446-1.222-1.502-1.131-1.624.474-2.314zm5.071 5.991c-1.006.415-1.745 1.947-3.222 1.144.863-2.126 2.66-3.721 4.125-3.62.261 1.033-.103 2.146-.903 2.476zM73.15 35.202c.849-2.12 1.761-4.216 2.601-6.34.729-1.844 3.16-2.941 4.81-2.022.507.282.922.865 1.193 1.404.357.708.754 1.187 1.606 1.095.162-.018.374-.094.482-.022 2.075 1.396 3.137-.43 4.101-1.538 2.87-3.298 6.522-4.334 10.7-4.659 3.092-.24 5.903.62 8.824 1.207 2.945.591 5.495 1.955 7.974 3.536.276.176.527.463.824.522 2.256.451 2.371 2.297 2.286 3.932a36.665 36.665 0 0 1-2.222 10.828c-.635 1.72-1.094 3.509-1.781 5.206-.326.806-.997 1.472-1.633 2.373-.603-.368-1.349-.647-1.829-1.169-.437-.476-.847-1.234-.808-1.838.09-1.396.222-2.88.777-4.133.653-1.474.337-2.47-.761-3.481-.867-.058-1.225.554-1.346 1.287-.415 2.514-.61 5.079-1.219 7.543-.393 1.59-.625 3.231-1.395 4.78-.807 1.624-1.094 3.516-1.542 5.307-.484 1.936-1.134 3.762-2.737 5.084-1.137.939-2.123.897-3.168-.153-.307-.308-.55-.679-.849-.996-.951-1.009-1.811-1.203-3.084-.719-1.385.526-2.336.237-3.066-.932-.571-.913-.344-2.298.566-3.12.401-.362.918-.593 1.326-.949.366-.321.654-.731 1.034-1.169-1.848-.694-3.54-.048-4.305 1.492-.338.682-.847 1.399-.849 2.102-.003 1.059.334 2.129.604 3.175.105.405.419.756.587 1.042-.506.839-1.047 1.567-1.402 2.376-.366.834.038 1.655.8 1.802.785.152 1.187-.352 1.436-1.019.487-1.305.487-1.305 1.447-1.843.038.337.111.622.094.9-.04.643-.306 1.339-.13 1.906.135.435.774.938 1.239.994.661.08 1.251-.33 1.242-1.183-.011-1.047-.003-2.094-.003-3.133 1.656.349 2.242 1.537 1.431 3.035-.552 1.019-.556 2.062-.22 3.118 1.679.193 1.72.146 2.045-1.301.418-1.863.294-2.118 2.356-2.171.921-.023 1.828-.585 3.038-1.006-.322 1.368-.12 2.657-.732 3.901-.397.807-.593 1.714-.876 2.577-.016.05.013.122-.012.161-.842 1.258-1.595 2.59-2.56 3.746-.859 1.028-1.931 1.884-2.949 2.769-1.001.871-2.053 1.683-3.391 2.773-.037-1.818-.715-2.841-1.864-3.437l2.942-4.732c-.832-1.049-1.446-1.18-2.302-.241-.819.898-1.671 1.832-1.714 3.193-.011.353-.251.699-.475 1.281l-3.425-1.369c.97-.787 1.54-1.349 2.202-1.765 1.428-.898 1.488-1.008.753-2.442l2.409-2.019c-.213-1.374-1.086-1.392-1.982-1.253-1.145.177-2.252.276-3.366-.21-1.309-.571-1.357-.737-.575-1.926.379-.576.689-1.238.841-1.904.07-.308-.29-1.01-.499-1.028-.587-.05-1.309-.001-1.768.314-.49.336-.74 1.021-1.086 1.541l-1.834-1.371c-1.171 1.048-1.305 1.655-.41 2.845 1.564 2.079 3.417 3.826 6.041 4.512.308.08.613.17 1.074.299-1.319.939-2.728 1.63-2.893 3.545l-2.63-.398-.111-.393 2.3-1.818c-.69-1.676-2.247-1.51-4.303.572-.601-.467-.684-.845.022-1.339.296-.207.439-.63.652-.955-.4-.231-.778-.577-1.207-.658-.389-.073-.829.167-1.252.226-.893.123-1.816.403-2.679.281-1.367-.194-2.695-.667-4.313-1.093.057-.613.136-1.395.2-2.179.154-1.892.37-3.782.427-5.677.05-1.651-.311-2.394 2.056-2.373.151.001.302-.104.447-.157-.037-1.603-.793-2.181-2.784-1.874l-.833-4.594c2.553.838 2.553.838 3.429.574-.099-.352-.228-.7-.291-1.06-.245-1.394-.79-1.707-2.04-1.105-.418.202-.796.489-1.421.881l-.394-2.779c2.098-.14 3.071-1.48 3.956-2.971.392-.66.459-1.331-.102-1.768-.647-.503-1.21.02-1.665.528-.18.202-.324.446-.531.612-.674.541-1.227.454-1.543-.362-.228-.589-.277-1.269-.302-1.912-.124-3.255 1.113-6.184 2.289-9.119zm3.5 42.733c-.196.708-.389 1.484-.826 2.044-.647.83-1.502 1.497-2.268 2.234l-.291-.249c0-.153-.066-.379.01-.449 1.171-1.076 2.055-2.297 2.28-3.933.024-.176.475-.294.727-.439.133.267.428.579.368.792zm-7.93-14.513c.435 1.224 2.312 1.525 1.538 3.233-2.093-.274-2.376-.819-1.538-3.233zm-3.497-28.631c.042-.033.406.342.825.707-.569.489-.995.9-1.484 1.214-.061.039-.456-.443-.697-.683.445-.423.876-.862 1.356-1.238zm-4.761 18.184c-.529-1.751-.584-3.315-.667-4.95 1.821.697 2.065 2.368.667 4.95zm-5.21-13.141c.872 1.479.571 2.327-1.04 3.095-.663-1.4.48-2.09 1.04-3.095zm-5.728 7.26c-.824-.94-.954-1.93-.396-3.004.845.743.95 1.544.396 3.004zm-.407-8.672l-1.488 3.235c-1.417-1.465-.732-2.974 1.488-3.235zm-13.64 30.729a806.997 806.997 0 0 0 1.765-5.1c.141-.412.279-.828.382-1.251.406-1.667.03-2.143-1.765-2.167.071-.15.095-.322.191-.384 1.23-.795 1.892-1.489.969-3.201-.583-1.082-.109-2.733-.109-4.463.584.335 1.009.45 1.232.727 1.507 1.869 3.351 2.991 5.835 2.882.289-.013.621.16.876.331 1.863 1.247 2.35 1.104 3.214-.98.033-.079.148-.123.309-.248.169.271.36.519.49.796.346.739.81 1.105 1.686.803.572-.198 1.086-.152 1.573.446 1.223 1.501 1.269 1.464 3.49.696.083.775.212 1.387.201 1.997-.019 1.126.441 1.564 1.574 1.386 1.99-.313 2.69.159 3.448 2.002.925 2.248.256 4.265-.607 6.209-.853.233-1.67.336-2.371.678-.881.43-.937 1.115-.289 1.853.904 1.03 2.172.998 3.335.912 1.069-.079 1.42-1.039 1.632-2 .145-.659.376-1.299.595-2.033.96.794 1.026 1.569.369 2.368-.822 1-.728 1.617.357 2.33 1.953 1.284 2.52 1.213 4.548-.622.821.507 1.168 1.305 1.023 2.202-.268 1.657-.697 3.213-1.695 4.693-2.752 4.082-6.547 7.114-10.054 10.437-.513.486-1.316.754-2.03.904-.364.076-1.06-.224-1.21-.541-.715-1.51-1.293-3.085-1.88-4.537.734-.651 1.437-1.099 1.899-1.726.624-.846.188-1.687-.873-1.648-.715.027-1.408.461-2.125.658-1.184.326-2.468 1.029-3.55.804-1.416-.295-2.69-1.315-3.992-2.081-.213-.125-.254-.543-.366-.805.172-.127.267-.254.339-.242 2.076.342 3.422-.826 4.713-2.196.559-.593.624-1.169.149-1.735-.491-.585-1.38-.995-1.833-.302-1.375 2.099-3.352 1.642-5.484 1.502-.312-.673-.722-1.432-1.02-2.234-.37-.998-.477-1.972.35-2.889.262-.29.21-.864.302-1.308-.46-.074-.921-.212-1.381-.207-.81.009-1.625.197-2.427.146-1.937-.123-2.443-.988-1.785-2.862zm31.562 21.401c.011.198-.209.526-.403.598-1.028.381-2.047.354-3.019-.087l.008-.454c.96-.173 1.917-.371 2.884-.493.168-.02.52.273.53.436zM30.207 67.657c1-.215 1.513.108 1.874 1.065.719 1.903 1.475 3.792 2.297 5.893-.645.422-1.5 1.072-2.443 1.544-.298.149-1.02-.034-1.231-.309-1.361-1.772-2.025-3.848-2.11-6.055-.05-1.279.571-1.914 1.613-2.138zm-.892 15.771c.867-3.113 2.665-5.287 5.931-6.018.841-.188 1.848-.67 2.499-.383.626.276.885 1.376 1.312 2.11.629 1.083 1.242 2.176 1.899 3.242 1.725 2.799 4.508 3.845 7.537 4.308 1.126.172 1.797.576 2.189 1.608.443 1.169 1.036 2.288 1.404 3.478.406 1.315 1.321 1.775 2.546 1.902 5.238.542 10.455.36 15.653-.457 2.688-.422 5.375-.848 8.064-1.265 4.064-.631 7.792-2.165 11.251-4.331 4.753-2.977 9.309-6.205 12.827-10.688.297-.379.991-.537 1.527-.613.463-.066.988.061 1.443.223 2.532.901 5.134 1.665 7.549 2.817 2.211 1.055 2.882 3.252 3.109 5.885-.383 2.575-.957 5.416-1.185 8.284-.187 2.357-1.218 4.124-2.885 5.628-2.913 2.628-5.72 5.396-8.81 7.799-2.347 1.825-5.039 3.219-7.625 4.722-1.92 1.115-3.876 2.185-5.891 3.115-2.315 1.068-4.698 1.995-7.08 2.905-.856.327-1.802.413-2.7.636-1.053.262-2.122.488-3.144.845-2.679.938-5.371 1.676-8.253 1.752-1.888.05-3.79.38-5.642.785-1.474.323-2.81.014-4.167-.381-4.288-1.25-8.57-2.158-13.132-1.894-2.883.167-5.85-.402-8.714-.968-1.187-.234-2.282-1.228-3.283-2.043-2.139-1.743-3.86-3.82-4.714-6.525-.359-1.139-.931-2.211-1.278-3.353-.266-.876-.378-1.809-.477-2.725-.175-1.623-.154-3.277-.452-4.874-.801-4.288.126-8.307 1.628-12.273a38.852 38.852 0 0 0 1.064-3.253zM25.12 70.511c.429.171.886.217.947.398.457 1.344.836 2.715 1.239 4.077l-.629.169c-.691-1.412-1.977-2.605-1.557-4.644zm-2.68 2.07c.376.343.724.537.893.834 1.261 2.21 2.486 4.441 3.826 6.852-1.816-.552-3.088-1.585-4.264-2.858-1.331-1.44-1.373-2.944-.455-4.828zm-1.956 7.522c-1.072-.827-1.2-1.186-.598-2.981.83.943 1.565 1.632 2.124 2.443 1.117 1.618 2.765 2.565 4.355 3.566.594.374.917.748.831 1.403-.029.22-.292.596-.427.587-.985-.065-2.121.061-2.907-.395-1.139-.66-2.09-1.701-2.981-2.703-.323-.363-.242-1.083-.397-1.92zm-.238 53.031c-.042.821-.009 1.646-.009 2.676-.303-.279-.683-.483-.837-.797-.561-1.145-.602-3.082-.13-4.301.758.676 1.025 1.464.976 2.422zm.485-8.14c.437.305.843.466 1.065.765.933 1.256 1.703 2.648 2.736 3.811 1.446 1.627 3.573 2.595 5.316.57.622-.722.791-1.402.05-2.127-2.764 1.033-3.242.452-5.252-1.8-1.967-2.203-2.145-4.913-1.776-7.698.032-.245.226-.468.465-.94.533.747 1.001 1.311 1.367 1.934.778 1.327 2.051 2.264 2.531 3.875.5 1.68 3.08 2.459 4.683 1.716 1.015-.471 1.285-1.488.659-2.778-.326.132-.657.368-.995.378-.549.016-1.231.067-1.631-.215-2.03-1.435-3.02-3.671-4.163-5.769-.165-.303-.088-.749-.089-1.129-.002-.725.282-1.398 1.028-1.446.509-.032 1.157.252 1.55.607 1.566 1.418 3.05 2.926 4.576 4.389 1.928 1.848 4.416 2.293 6.907 2.582.962.112 1.395.54 1.549 1.335.254 1.309.536 2.633.584 3.959.145 4.029.106 8.049-.632 12.046-.355 1.924-1.201 3.078-2.398 3.646a15.865 15.865 0 0 0-2.514.002 49.25 49.25 0 0 1-1.938.121c-2.236-.509-4.481-1.327-6.428-2.699-.724-.51-2.717-1.655-4.216-2.941a5.724 5.724 0 0 1-.398-.354c-.374-.397-.673-.89-1.023-1.318l.29-.379c.315.078.665.094.936.249.373.214.673.548 1.025.804 1.904 1.384 3.762 1.224 5.355-.519.238-.26.361-.786.276-1.123-.055-.218-.579-.338-.909-.456-.14-.05-.337-.02-.483.037-2.572 1.005-4.391-.713-5.938-2.104-1.877-1.691-2.85-4.074-2.165-7.031zm118.626-12.755c-1.578 3.923-3.883 7.437-6.264 10.891-1.437 2.085-3.454 3.599-5.558 4.998-1.946 1.294-4.019 2.321-6.168 3.215-.101.042-.219.063-.3.129-2.778 2.283-6.251 3.317-9.316 5.108-4.099 2.395-8.505 4.324-13.227 5.477-2.604.636-5.411.736-7.794 2.276-.535.346-1.373.245-2.075.305-4.253.365-8.352 1.432-12.417 2.669-.518.158-1.062.282-1.6.308-3.908.189-7.719 1.311-11.669 1.14-2.557-.11-5.121-.029-7.681-.094a10.8 10.8 0 0 1-1.74-.207c-2.478-.71-4.784-1.805-7.23-3.226l-.046-.025a9.485 9.485 0 0 1-2.817-5.38c-.184-1.126.33-2.349.37-3.533.087-2.604.179-5.216.071-7.816-.086-2.07-.166-4.111.252-6.281 2.582-.021 5.045-.559 7.535-.004.636.142 1.301.159 1.935.307 1.673.393 3.345.795 5.001 1.25 2.767.761 5.507.279 8.262-.073 2.967-.38 5.967-.637 8.779-1.717 3.436-1.32 7.174-1.628 10.488-3.418 2.422-1.308 5.146-2.049 7.598-3.309 2.994-1.539 5.846-3.354 8.755-5.057.28-.164.652-.324.772-.583.619-1.331 1.922-1.81 3.022-2.543.134-.089.386-.098.432-.208.702-1.651 2.611-2.009 3.595-3.391.476-.669 1.305-1.087 1.968-1.625.379-.308.846-.566 1.102-.958.811-1.247 1.857-1.414 3.316-1.402 2.313.02 4.116-1.33 5.727-3.007 2.432-2.531 3.523-5.682 4.551-8.897.097-.302.255-.584.44-1.002 1.728.441 2.799 1.552 3.847 2.645 1.279 1.335 2.539 2.7 3.671 4.158.753.969 1.415 2.065 1.86 3.205 1.029 2.634 1.911 5.326 2.835 8.001.897 2.591.733 5.151-.282 7.674zm-12.765-2.153c-.278 1.684-.663 4.088-1.088 6.484-.053.297-.301.572-.495.83-1.714 2.291-3.438 4.559-5.693 6.385-1.087.88-1.917 2.073-2.973 2.998-1.231 1.077-1.68.908-2.396-.573-.702-1.451-1.856-2.83-2.053-4.34-.223-1.706-1.495-2.648-1.995-4.069-.163-.462-.306-.937-.528-1.37-1.165-2.276.087-4.579 2.735-5.543 1.059-.386 2.182-.599 3.277-.885 1.13-.295 2.063-.623 2.372-2.064.298-1.388 1.08-2.634 2.876-2.62.405.003.829-.248 1.214-.443 1.285-.65 1.817-.577 2.864.453 1.295 1.275 1.839 2.444 1.883 4.757zm-7.715 8.347c-1.178-.8-1.639-1.385-1.502-2.52.118-.987-.147-2.039-.353-3.039-.202-.98-1.004-1.389-1.864-1.105-1.119.369-2.259.855-3.196 1.551-1.308.971-1.424 1.657-.676 3.126.885 1.738 1.914 3.402 2.891 5.093.48.83.982 1.647 1.438 2.41l3.238-1.63c.39-.552.638-1.049 1.016-1.409 1.581-1.509 3.217-3.014 3.813-5.186.44-1.604.656-3.287.79-4.95a8.057 8.057 0 0 0-.336-3.008c-.607-1.92-1.873-1.884-3.282-.813-1.497 1.137-1.721 2.794-1.579 4.563.126 1.572.23 3.151.216 4.726-.007.645-.349 1.288-.614 2.191zm-27.563 4.841c.719-.675 1.151-1.551 2.168-.913 1.011.634 1.986 2.348 1.592 3.359-1.377 3.536-2.194 7.316-4.328 10.521-.609.914-1.603 1.571-2.42 2.347-.744.706-1.406 1.541-2.255 2.081-.841.534-1.872.771-2.749 1.11-1.545-1.067-1.872-2.697-2.501-4.106-.79-1.77-1.381-3.628-2.059-5.448-.019-.051-.059-.095-.072-.147-.348-1.391-.417-2.846-.581-4.244-.214-1.823 2.459-3.261 4.233-2.561.1.039.212.178.278.155 1.621-.567 2.647.788 3.977 1.327 1.581-1.531 2.305-3.783 4.522-4.926l.195 1.445zm-5.882 8.078c-.001-1.341-.631-3.217-1.257-3.872-.82-.857-2.265-1.065-3.302-.477-.859.488-1.132 1.45-.771 2.724.089.313.173.627.281.934.836 2.384 1.607 4.794 2.548 7.136.454 1.129 1.063 1.283 2.052.547 1.56-1.161 3.019-2.463 4.469-3.762.43-.385.807-.919 1.005-1.459.88-2.392 1.722-4.799 2.498-7.227.212-.663.209-1.506-.612-1.83-.724-.286-1.172.252-1.6.806-1.665 2.151-2.886 4.473-3.031 7.256-.035.679-.189 1.429-1.026 1.4-.828-.028-1.158-.693-1.179-1.495-.007-.269-.058-.538-.075-.681zm-29.618 12.022c-.664-.066-1.253-.31-1.597-1.176-.958-2.416-1.62-4.908-2.193-7.434-.382-1.685.201-3.231.727-4.737.56-1.602 1.868-2.135 3.531-1.659.985.282 1.962.62 2.899 1.032.739.325 1.225.189 1.912-.26 1.154-.754 2.205-1.889 3.894-1.43 1.441.391 2.715 1.796 2.522 3.289-.345 2.665-1.679 4.734-3.629 6.637-2.018 1.97-4.274 3.43-6.742 4.674-.426.215-.764.606-1.324 1.064zm-.072-3.332c1.891-.923 4.066-.822 5.313-2.657.086-.127.257-.199.394-.289 1.79-1.17 2.94-2.855 3.738-4.784.446-1.079.169-2.194-.476-2.524-.638-.326-1.673.095-2.265 1.172-.725 1.319-1.319 2.718-1.867 4.123-.256.657-.467 1.196-1.458 1.213-.16-.59-.392-1.185-.47-1.799-.088-.696-.047-1.41-.043-2.116.004-.743-.341-1.193-1.026-1.497-2.393-1.066-3.404-.451-3.493 2.167-.006.163-.05.324-.058.487-.119 2.274.536 4.342 1.711 6.504zm39.789-47.468c.55-2.091 1.548-3.649 3.248-4.725 2.254-1.426 5.221-.344 5.499 2.089.104.908.049 1.86-.096 2.765a64.605 64.605 0 0 1-.997 4.946c-.544 2.261-2.019 4.032-3.286 5.902-.327.482-.922.803-1.175 1.309-1.001 2.001-2.621 2.956-5.07 3.066-.288-.583-.657-1.281-.985-1.999-.834-1.827-1.597-3.688-2.487-5.486-.956-1.931-1.193-4.018-1.49-6.091-.124-.86.926-1.882 2.131-2.025 1.012-.12 2.052-.04 3.078-.003.476.017.949.143 1.63.252zm-.491 12.494c1.849-.864 3.125-2.266 4.289-3.75 1.957-2.496 2.168-5.62 2.884-8.551.164-.669.145-1.413.061-2.105-.141-1.174-.857-1.638-1.951-1.246-1.664.596-2.445 1.948-2.637 3.608-.111.962.072 1.955.036 2.931-.029.812-.184 1.619-.286 2.453-1.456-.301-1.757-1.295-2.078-2.197-.572-1.608-1.902-2.002-3.343-2.16-.951-.104-1.72.684-1.477 1.486.439 1.449.887 2.916 1.543 4.273.844 1.747 1.897 3.394 2.959 5.258zm-60.145 4.967c-.321-.951-.609-1.682-.816-2.436-1.005-3.66-2.407-7.28-1.287-11.185.44-1.535 1.024-3.006 2.32-4.033.334-.265.883-.514 1.256-.43 1.804.407 3.31 1.308 4.187 3.028.709 1.392.698 1.313 2.355 1.22.89-.05 1.84.123 2.69.41 1.042.351 1.58 1.464 1.187 2.526-.427 1.153-1.076 2.225-1.663 3.315-.203.376-.535.681-.764 1.046-1.422 2.269-3.132 4.123-5.9 4.794-.914.222-1.706.933-2.571 1.387-.337.178-.724.264-.994.358zm1.305-3.863c2.631-.532 5.101-1.174 6.442-3.844.384-.764 1.055-1.378 1.549-2.093.228-.33.563-.983.473-1.064a2.984 2.984 0 0 0-1.354-.68c-.322-.063-.731.146-1.058.316-.924.481-1.391 1.234-1.607 2.293-.113.555-.383 1.527-1.353 1.305-.945-.216-1.022-1.023-.894-1.833.143-.902.295-1.805.487-2.697.297-1.375-.485-2.985-1.806-3.445-.312-.109-.954.026-1.099.261-.732 1.186-1.607 2.334-1.394 3.893.133.968.12 1.955.167 2.934.079 1.655.558 3.179 1.447 4.654zm30.999-1.84c.202-.395.567-.787.575-1.185.022-1.185.666-2.029 1.317-2.904.543-.73 1.131-1.365 2.149-1.138 1.111.247 2.068.747 2.425 1.931.155.515.269 1.063.277 1.597.055 3.597-.931 6.854-3.254 9.656-.6.724-1.233 1.424-1.792 2.178-.759 1.023-1.918 1.192-3.015 1.43-.418.09-.979-.089-1.367-.324-1.463-.887-2.367-2.315-2.892-3.843-.786-2.287-1.317-4.665-1.881-7.023-.391-1.635.276-2.952 1.749-3.806.279-.162.526-.379.789-.568.784-.563 1.514-.561 2.106.267a51.58 51.58 0 0 1 1.442 2.168c.315.492.598 1.004.896 1.507l.476.057zm4.119-2.909c-1.294.301-1.647 1.36-1.874 2.416-.317 1.472-.507 2.972-.745 4.461-.144.901-.098 2.132-1.192 2.238-1.114.108-1.303-1.161-1.574-1.991-.553-1.692-.808-3.495-2-4.925-.356-.427-.728-.839-1.093-1.259-.455.49-.996.928-1.331 1.489-.193.322-.147.868-.045 1.271.52 2.05 1.038 4.103 1.662 6.122.713 2.309.755 2.257 3.063 1.854 1.382-.241 2.346-.927 3.105-2.106 1.331-2.069 2.347-4.217 2.854-6.662.258-1.243.083-2.08-.83-2.908zm28.75-55.537c-2.005 2.393-4.862 2.433-6.703.117-.7-.88-1.482-1.754-1.351-3.037.07-.682.343-1.162 1.044-1.244.72-.085 1.003.327 1.208 1.01.639 2.127 1.333 2.532 3.614 2.204.908-.133 1.75-.243 2.188.95zm-22.951-8.51c.49.291.998.556 1.464.882.318.222.837.558.809.789-.051.425-.356.913-.703 1.188-.628.498-1.928.18-2.857-.574-.941-.764-1.052-1.476-.856-2.501.228-1.191.594-2.183 1.775-2.676.393-.164.82-.322 1.237-.339.758-.031 1.536.251 1.605 1.043.03.347-.677.811-1.115 1.13-.375.273-.845.417-1.273.618l-.086.44zm1.253 31.236c-.998.879-2.267.857-3.442 1.031-.192.028-.601-.543-.678-.888-.058-.262.172-.729.416-.891.925-.615 2.682-.247 3.704.748zm-4.284-2.543c-.203-.778-.291-1.553.587-1.875.484-.177 1.122-.151 1.621.004.307.096.739.695.664.916-.129.381-.565.816-.952.914-.598.153-1.262.041-1.92.041zm-34.811-5.265c.539.367.996.63 1.397.961 1.2.99 2.061 1.048 3.319.173 1.183-.823 1.985-.925 2.457-.313.486.629.227 1.238-.965 2.261-1.998 1.717-4.355 1.66-6.074-.145-.893-.938-.935-1.37-.134-2.937z"/></svg>