<svg xmlns="http://www.w3.org/2000/svg" viewBox="0 0 160 160"><title>portraits</title><path d="M61.881 152.436c-.273.17-.53.444-.822.487-.542.079-1.103.023-1.635.023l-.725 1.413c-1.926-.768-1.589-2.573-2.15-4.022l-1.247-.424c.015 1.17.389 2.031 1.05 2.794.442.511.443.51.131 1.391l-1.386-.257c-.332-1.36-.624-2.661-.973-3.946-.22-.812-.955-1.212-2.49-1.381l.657 2.902c-1.275-.773-1.76-1.735-1.705-3.004.028-.659.127-1.367-.8-1.701l-.569 2.055-1.009-1.01.917-1.524c-.566-.885-1.221-.304-1.887-.17-1.717-.731-3.692-1.123-4.901-2.764-.933-1.266-1.678-2.67-2.558-4.095l.112-2.005c-.549.111-1.151.521-1.623-.418.02-.23.046-.681.098-1.129a4.04 4.04 0 0 0-.386-2.311c-.297-.615-.341-1.353-.6-1.973l-1.43-2.842.248-.27-1.557-.594c-2.959-2.43-3.909-5.85-4.441-9.466-.079-.539-.144-1.083-.273-1.611-.131-.537-.334-1.056-.506-1.583l-.292.038c0-1.467-.018-2.935.009-4.402.011-.624-.001-1.288.2-1.862.72-2.049.554-4.128.361-6.367-.971-1.101-1.917-2.412-3.098-3.457-1.721-1.522-2.145-3.479-2.376-5.582a4.92 4.92 0 0 0-.567-1.822l.707-1.123.171.013c-.037-2.043.109-4.111-.168-6.122-.236-1.716-.859-3.402-1.488-5.033-.685-1.774-1.265-3.557-1.208-5.461.035-1.149.309-2.291.45-3.26 1.423-2.345 1.694-2.97 5.541-1.718.08-.582.2-1.136.226-1.693.159-3.466.079-6.942.574-10.392.118-.82-.038-1.676-.002-2.512.039-.916.019-1.867.263-2.736.603-2.151.725-4.341.773-6.545.057-2.636-.381-5.235-.622-7.85-.1-1.082-.07-2.176-.128-3.263-.148-2.793-.59-5.539-1.218-8.266-.363-1.578-.589-3.195-.768-4.806-.307-2.77 1.201-4.817 2.796-6.853 1.551-1.98 3.708-2.973 5.938-3.82 1.037-.394 2.208-.435 3.319-.633.824-.147 1.644-.338 2.475-.421 1.577-.159 3.161-.24 4.74-.381 2.331-.208 4.672-.354 6.987-.679 4.308-.605 8.59-1.409 12.906-1.947 1.721-.215 3.504.038 5.257.109 1.081.044 2.172.287 3.238.199 2.83-.234 5.646-.633 8.474-.891.904-.082 1.867-.072 2.738.151a8.345 8.345 0 0 0 4.226-.014c2.519-.647 5.089-.725 7.619-.434 3.18.366 6.436.42 9.502 1.456 2.121.716 3.905 2.013 5.445 3.68a21.137 21.137 0 0 1 4.378 7.205c.707 1.944 1.316 3.923 1.978 5.883.451 1.337.913 2.67 1.384 4a.943.943 0 0 0 .299.393c2.331 1.846 2.8 4.564 3.317 7.226.502 2.587 1.006 5.183 2.116 7.572.638 1.373 1.019 2.797 1.468 4.215.075.237.204.502.159.724-.37 1.844.504 3.446.967 5.124.633 2.295 1.256 4.582 1.399 6.982.081 1.364.385 2.714.562 4.074.243 1.867.46 3.737.69 5.606.061.493.127.984.207 1.607.452.025.853.065 1.254.067 1.626.009 3.022.642 4.247 1.643 1.207.985 1.37 2.44 1.46 3.854.103 1.622-.13 3.198-.527 4.805-.29 1.17-.143 2.462-.642 3.648-.547 1.301-1.006 2.638-1.39 3.658-.519 5.891-1.601 11.387-2.551 16.898l-8.423 3.832c-1.597 2.901-2.606 6.113-4.715 8.703l-.249-.079-.104 2.323-.519 1.058-1.214.204c-.831.891-.569 1.959-.491 3.045l-.825 1.188-1.169.235c-.639 1.747-1.113 3.484-1.898 5.067-.806 1.624-2.246 2.774-3.838 3.939l-2.006-.673c-.474.373-.714.975-.537 1.754l-.82.889-1.027.101c-.037.054-.1.163-.18.259-.606.732-1.25 1.435-1.808 2.202-.257.353-.347.827-.578 1.409l-5.794 5.918c.241.35.409.625.609.875.197.247.426.469.714.78l-1.578.317-1.25-1.315-.924 1.014-1.116.052.271 1.705-1.32 1.409-1.047-1.476-.359 1.979h-4.326l-.243-.775c-.272.269-.505.692-.808.75-.353.068-.768-.184-1.24-.321-.715.501-1.543.43-2.447.285-1.027-.165-2.08-.085-3.013.56-.442.305-.972.483-1.518.746l-1.043-.441-.765.946-1.555-.896-.174 1.894c-1.001.311-1.044-.694-1.604-1.046l-1.155.641-1.534-.81.063-.091-3.206-1.058-1.19.503c-.547-.176-1.167-.436-1.813-.565-.509-.101-1.05-.041-1.576-.052l.285-1.422-.262-.107-.733.459.737 1.036zm50.19-112.63l-1.702.356-2.256-1.812c-.218-.313-.706-.815-.962-1.417-.675-1.584-1.476-3.052-2.661-4.337-.576-.624-1.095-.984-1.918-.7-.352-.33-.706-.577-.946-.907-.487-.67-1.17-.883-1.93-1.027-.897-.169-1.801-.342-2.666-.624-1.6-.522-3.16-1.054-4.872-.391-.429.166-.992-.009-1.493-.039-.374-.022-.765-.15-1.116-.077-1.55.32-3.113.617-4.626 1.074-1.64.496-3.122.526-4.445-.816l-1.278-.174-1.152.694-4.935-.726c-.633 1.456-1.558 2.16-3.059 1.727l-1.324-.852c-.875.082-1.574 1.096-2.515.35l-.628-1.091c-1.519-.147-3.157-.072-4.646-.508-1.96-.573-3.716.224-5.558.366-1.349.104-2.456.969-3.628 1.619-1.826 1.013-3.728 1.885-5.853 2.11-.944.1-1.883.236-2.798.352-.294 1.189-.481 2.254-.828 3.266-.333.97-.684 1.995-1.287 2.801-1.432 1.913-3.211 3.495-5.161 4.894-1.217.874-2.31 1.92-3.516 2.812-1.675 1.239-2.055 3.13-2.365 4.94-.314 1.83-.166 3.734-.311 5.599-.184 2.37-.007 4.74-.164 7.121-.208 3.151.187 6.342.33 9.515.005.12.091.235.112.357.317 1.837.65 3.672.938 5.515.33 2.109.643 4.221.917 6.338.262 2.028.485 4.062.689 6.097.191 1.907.322 3.82.506 5.728.123 1.273.292 2.541.468 4.046l1.015.717c-.33.62-.56 1.086-.824 1.533-.185.315-.465.579-.618.906-1.15 2.457-.732 4.985-.143 7.767l.577.365c0 1.046.012 1.877-.004 2.708-.015.779-.524 1.595.184 2.41l1.079-1.254c.092.479.215.73.168.944-.163.73-.381 1.448-.588 2.167-.502 1.746.53 3.142.983 4.677.178-.796.113-1.61.332-2.339.211-.701-.17-1.737 1.129-2.183-.101 1.981-.608 3.834-.027 5.728l1.248 1.039c.316-.67.533-1.259.856-1.783.345-.56.787-1.065 1.864-.679-1.202.926-1.755 2.071-1.808 3.376-.053 1.303-.172 2.639.328 3.986l.987-.321c1.1-3.457 1.107-3.466 2.348-3.142-.395.774-.949 1.503-1.134 2.317-.197.863-.044 1.805-.044 2.895-.531 1.079-.418 1.71.598 2.178.288-.95.604-1.923 1.992-2.034-1.485 2.809-1.486 5.584-.367 8.475l.733.348.753-4.154 1.338-.37c-.139.462-.157.774-.311.988-.659.92-.635 1.987-.633 3.02.002.991.608 1.603 1.491 1.751 1.133.189 2.265.382 3.399.574.227-1.473.6-1.917 1.562-1.738l-.461 1.497 1.161 1.111-.241 1.022 1.475 1.054.721-.557 1.014 1.41 1.324-.141c-.875-1.444-1.375-2.798-.768-4.388l1.1-.288-.311 1.976c.192.349.431.74.628 1.151.21.441.381.9.519 1.233.686.36 1.269.67 1.855.974.552.286 1.038.349 1.297-.42l-.746-.998c-.492-3.267-.433-3.676.699-4.147-.152 2.321.339 4.395 2.128 6.059 1.001-.666 1.678.014 2.46.583l1.087-.448c-.161-1.144-.366-2.172-.438-3.208-.09-1.313.487-2.276 1.511-2.583-.077.318-.116.591-.211.844-.101.271-.254.522-.354.723.372 3.594.403 3.678 1.712 4.751l1.127-.236c.626.166 1.223.619 1.816-.16v-2.964l.721-.21c.144 2.39.147 2.405.842 3.206l1.432-.11 1.491-1.073c.695.278.961 1.077 1.844.569-.149-.392-.265-.813-.462-1.191-.554-1.063-.425-2.09.101-3.105.046-.09.199-.125.357-.218l.45.37c-.404 1.525-.086 2.813.912 3.994l1.647-1.44h2.307l-.684-2.785c.286-.219.405-.344.551-.41.101-.045.239-.009.439-.009.604 2.597 2.088 4.099 4.902 3.651l1.891-.827.189-.77c-2.239-1.595-2.672-2.62-1.397-3.217l1.592 1.949 1.793-.605-.118-.164 2.188-2.306c-1.209-.942-1.232-2.243-1.333-3.468-.099-1.198-.633-2.469.313-3.617 1.016 1.727.314 3.842 1.232 5.565l1.294-.685.926.767.274-.116c-.09-.396-.084-.85-.285-1.177-.75-1.221-.718-2.556-.663-3.895.011-.27.222-.531.341-.797l.276.046.993 4.16 1.475.477 1.45-1.35c.389-.839.728-1.69 1.164-2.487.708-1.293 1.479-2.552 2.223-3.825.207-.447.565-.802.961-1.107 1.139-.877 2.05-1.897 2.516-3.308.482-1.459.812-1.6 2.304-1.326.061.011.139-.074.199-.108l-.832-3.955.904-1.39c.329 1.166.219 2.266.745 3.091l2.209-2.169.115.112 1.072-2.391a3.023 3.023 0 0 0 1.259-.939c.475-.59.894-1.226 1.336-1.842l.099.07 1.729-2.701c.303-.746.672-1.466 1.042-2.186.128-.25.264-.496.387-.748.734-1.506 1.459-3.016 2.207-4.515.087-.175.278-.333.459-.42 1.164-.557 2.292-1.297 3.523-1.575 1.114-.252 1.961-.676 2.516-1.608.695-1.165 1.638-2.321 1.872-3.592.404-2.194 1.1-4.338 1.119-6.626.018-2.161 1.148-4.079 1.937-6.046.476-1.185.84-2.404 1.438-3.566 1.503-2.921 1.66-5.993.314-9.123-1.676-.771-3.245-2.27-5.307-.481-.719-.01-1.324.364-1.898 1.017-.989 1.125-2.11 2.136-3.195 3.173-.203.195-.5.291-.754.433l-.223-.243c.315-.835.837-1.537 1.501-2.166.692-.656 1.33-1.371 2.039-2.006.673-.603 1.41-1.135 2.298-1.841-.349-2.191-.744-4.489-1.074-6.796-.312-2.185-.501-4.389-.845-6.568-.274-1.731-.558-3.485-1.108-5.139-.424-1.274-.866-2.493-.941-3.855-.063-1.148-.216-2.279-.713-3.39-.797-1.779-1.451-3.635-2.009-5.506-.363-1.215-.388-2.528-.674-3.771-.324-1.411-.756-2.798-1.168-4.187-.454-1.531-1.313-2.765-2.812-3.673-.98.705-2.059 1.287-2.586 2.435l.672.885-1.525 1.435c-.932 1.913-1.868 3.941-3.431 5.597-.191.203-.211.568-.31.858l.037-.041zM88.478 7.578l-2.097 6.384.255.032.572 1.152c-.354.83-.649 1.377-.824 1.96-.501 1.676-.946 3.358-1.001 5.135-.037 1.213.122 2.326.844 3.465l1.089-.102c-.105-.74-.289-1.32-.247-1.884.107-1.438.29-2.871.491-4.3.133-.95.289-1.906.544-2.829.292-1.058.708-1.28 1.747-1.06-2.054 3.092-1.921 6.442-1.364 10.008l2.482-.149c.075-.227.1-.267.099-.307-.005-.165-.006-.331-.029-.494-.424-2.984.065-5.865 1.38-8.52.564-1.14 1.03-2.232 1.234-3.475.201-1.226.853-2.257 1.618-3.214.365-.456.791-.571 1.461-.113-.194.295-.344.597-.56.841-.844.953-1.352 2.038-1.666 3.286-.263 1.043-.116 2.304-1.213 3.03-1.352 2.762-1.82 5.62-.828 8.594.147.441.596.781.925 1.191l1.166-.122c-.149-.586-.301-1.056-.386-1.537-.452-2.575-.007-5.07.698-7.54.321-1.125.59-2.268.979-3.368.444-1.253.923-2.505 1.527-3.686.394-.77 1.079-1.341 2.358-1.255-1.326 2.126-3.21 3.89-2.601 6.57l-1.459 1.835c-.071.458-.098 1.051-.26 1.604-.441 1.507-.484 3.047-.322 4.576.084.792.469 1.552.715 2.315l1.238.081c.206-1.494.334-2.893.605-4.265.281-1.424.701-2.822 1.06-4.231-.312-.66-.539-1.345-.47-1.999.212-2.013.936-3.898 1.91-5.644.343-.615.927-1.361 2.151-1.316-1.773 2.404-2.955 4.83-2.807 7.888l1.166-.269c.756-2.203.931-4.555 2.954-5.93l.348.141-2.124 5.141.493 1.258c-1.55 2.9-1.315 5.983-1.083 8.941l2.201 1.263c.074-.301.145-.455.144-.608-.011-1.5-.061-3-.038-4.499a4.56 4.56 0 0 1 .31-1.589c.203-.509.585-.922 1.434-.525-1.215 1.907-1.145 3.977-.809 6.03.337 2.056.804 4.101 2.493 5.625a3.562 3.562 0 0 0 .029-1.545 25.899 25.899 0 0 1-.438-6.847c.069-1.013.402-2.008.575-2.821l1.313-.747c1.112-2.338 2.06-4.716 3.763-6.626-.848-1.754-2.642-3.415-4.349-4.001l-.198 1.103c-.327.357-.669.616-.861.959-1.039 1.862-1.877 3.8-2.123 5.953-.036.315-.286.606-.437.908l-.381-.056c-.065-.504-.254-1.029-.174-1.509.481-2.887 1.609-5.482 3.69-7.604-1.618-1.061-11.222-2.349-12.862-1.738-.211.344-.423.694-.64 1.041-.415.664-.968 1.278-1.219 1.999-.465 1.335-.748 2.733-1.119 4.102-.082.301-.215.588-.329.892-.957-.118-.823-.801-.726-1.255.484-2.28.807-4.64 2.639-6.37.134-.126.189-.335.403-.735l-1.821.299c-1.439 2.446-3.001 4.599-3.193 7.352-.192.069-.342.148-.499.17-.115.016-.24-.044-.587-.119.074-2.585 1.504-4.648 2.761-7.004-1.59-.574-2.849.531-4.175.559-.961.834-1.761 1.683-2.018 2.945-.192.938-.507 1.851-.765 2.776-.044.159-.076.322-.104.444l.52.824c-.553 1.105-1.128 2.028-1.491 3.028-.924 2.545-1.341 5.167-.833 7.874.085.453.169.94.771.796l.935-1.609.447 1.684 1.361-.194c-.672-2.624-.368-5.125.244-7.62.353-1.44.835-2.849.584-4.398-.276-1.7.789-3.129 1.163-4.701.206-.874.764-1.326 1.641-1.725zm-12.652 5.8l.299.157c.203-.369.457-.719.599-1.11.295-.815.465-1.68.812-2.47.243-.552.672-1.044 1.63-1.059l-1.849 4.737.165.035.158 1.614-1.459-.1c-1.535 2.399-1.642 9.514.392 10.741l1.12-.188c.198-5.563.373-6.545 1.698-9.484l1.18-.226c-1.738 3.122-2.264 6.24-1.564 9.657l1.1-.081c0-1.099-.059-2.101.011-3.095.249-3.516 1.977-6.722 2.183-10.253.009-.159.128-.308.178-.467.39-1.23.79-2.457 1.149-3.695.051-.177-.101-.412-.222-.85-.355.619-.529.981-.756 1.306-.423.605-1.034 1.129-1.286 1.793-.529 1.398-.863 2.87-1.307 4.302-.092.297-.316.554-.479.829-.92-1.488-.251-2.778.185-4.021.455-1.297 1.153-2.509 1.82-3.919-1.225 0-2.312.08-3.382-.021-1.179-.111-2.245.027-3.188.778-1.47 2.072-2.394 4.375-3.117 6.825l1.468.604c-1.632 1.353-2.068 3.086-2.066 4.896.002 1.795-.247 3.679.889 5.356l2.54-.163c-1.593-3.905-.293-7.609.388-11.364-.601-1.84-.103-3.566.733-5.219.254-.502.775-.702 1.639-.4-1.122 1.382-2.043 2.778-1.661 4.555zM53.011 25.594c-.313-1.719-1.087-3.386-.718-5.242.099-.498-.094-1.048-.109-1.576-.015-.498-.103-1.048.066-1.489.685-1.785 1.291-3.614 2.461-5.174.338-.451.715-.729 1.502-.605-1.486 1.94-2.349 4.036-2.942 6.218.172.73.335 1.458.34 2.187.006.819-.317 1.675-.164 2.449.26 1.317.78 2.584 1.208 3.927l1.691-.189c-.757-3.122-.672-4.845.364-5.945.097.324.217.559.233.801.065.996.025 2.005.168 2.989.089.614.436 1.191.697 1.861l1.231-.438c.1-1.16.165-2.24.296-3.312.08-.652.342-1.286.382-1.938.087-1.389.565-2.493 1.868-3.067l2.549-7.308c-.646.203-1.114.204-1.287.431-.625.819-1.3 1.654-1.682 2.594-.699 1.717-1.193 3.517-1.796 5.275-.097.283-.317.523-.48.784l-.281-.107c-.324-3.12 1.563-5.676 2.604-8.593l-1.982.318c-1.814 2.432-1.98 5.608-3.123 8.471-.785-.836-.813-.881-.538-1.767.532-1.713 1.103-3.414 1.622-5.131.146-.484.166-1.006.28-1.743l-3.567.55C51.07 14.509 50 18.418 50.373 22.806c.624.155 1.188.356 1.15 1.113-.662 1.219-.613 1.984.279 3.04l2.13-.38-.921-.985zm-21.539 65.54c0-.705.069-1.332-.017-1.937-.116-.818-.377-1.613-.526-2.428-.135-.737-.152-1.498-.313-2.229-.411-1.861-.259-3.812-.923-5.63-.041-.112 0-.252-.021-.375a319.978 319.978 0 0 0-.53-3.083c-.065-.366-.179-.724-.224-1.092-.116-.943-.206-1.89-.295-2.722-.469-.29-.873-.417-1.084-.693-.655-.854-1.561-1.07-2.541-1.167-1.105-.11-1.492.129-1.83 1.24-.501 1.646-.379 3.32-.021 4.962.237 1.088.657 2.136 1 3.201.843 2.616 1.925 5.191 1.381 8.046-.022.116.052.246.055.37.029 1.577.235 3.156-.2 4.721-.168.605.052 1.086.562 1.637.19-1.731 1.757-2.235 2.933-3.41l2.594.589zm21.331-80.346c-2.129-.556-4.143-.742-6.159-.233-2.073.523-4.153.933-6.301.952a2.604 2.604 0 0 0-.976.208 271.82 271.82 0 0 0-5.691 2.505c-.37.169-.667.495-1.099.827 1.633 1.055 2.268-.708 3.426-.833l.262.47-.991 1.297.93.102 2.258-2.223.955.34 2.251-1.671.36.78c-1.891 1.709-3.111 4.178-2.646 5.328l1.457-.446c.574-1.293 1.109-2.604 1.736-3.871.399-.808.969-1.502 2.282-1.657-.636 1.092-1.286 1.935-1.636 2.888-.347.944-1.175 1.836-.691 3.194.303-.296.558-.446.661-.667.192-.414.246-.894.447-1.303.65-1.328.987-2.809 1.968-3.978.417-.497.838-.885 1.583-.761 0 .201.023.326-.006.438-.041.161-.079.358-.191.459-1.304 1.189-1.579 2.91-2.304 4.398-.413.849-.321 1.676-.087 2.503.986.298 1.449-.273 1.859-.891.114-3.502 1.38-6.436 3.146-7.263l.36.387c-1.568 2.357-2.363 4.973-2.713 7.747l.849.743c-.458 1.435-.681 2.866-.785 4.345.272-.074.478-.175.539-.332.657-1.695 1.528-3.338 1.312-5.257a2.663 2.663 0 0 1 .091-.984c.266-.957.538-1.914.869-2.849.541-1.53 1.046-3.09 2.386-4.171.116-.091.158-.274.289-.521zm12.416-.964c-.469 1.438-.822 2.863-1.399 4.19-.574 1.32-1.065 2.609-1.058 4.153l1.559-.632c-.041 1.301-1.181 1.78-1.517 3.134v4.303l.842.679 2.45.169c.057-.208.112-.325.118-.443.146-2.814.932-5.553.657-8.439-.166-1.742.368-3.547 1.289-5.145.503-.872.953-1.775 1.522-2.845l-1.57.255c-.459 1.201-.833 2.442-1.397 3.59-.611 1.243-.586 2.562-.646 3.842-.201.095-.308.175-.423.19-.111.015-.232-.036-.418-.071-.249-1.574.034-3.08.515-4.56.239-.738.534-1.458.781-2.193.029-.086-.082-.218-.15-.381l-1.155.204zm2.479 16.747c1.178.037 2.054.164 2.741-.64.007-.155.02-.321.022-.487.012-1.712-.099-3.436.067-5.133.154-1.57.551-3.112.252-4.708a1.641 1.641 0 0 1 .093-.868 86.998 86.998 0 0 1 1.52-3.573c.329-.725.733-1.416 1.202-2.31-1.474-.023-2.564.274-3.214 1.301-.778 1.231-1.402 2.561-2.06 3.865-.097.191-.013.474-.013.738l1.253.266c-2.625 3.579-2.383 7.46-1.863 11.549zm41.482-6.265l-1.478.27c-.543 3.424-.442 6.763.977 10.039l1.585 1.011c.61-.657.565-1.281.426-1.902-.429-1.911-.782-3.813-.828-5.799-.053-2.316.678-4.311 1.793-6.248.724-1.259 1.41-2.539 2.12-3.823l-.74-.81c-1.988 2.05-2.427 4.823-3.855 7.262zm7.324 6.211c.321-.241.627-.348.676-.526.341-1.253.912-2.43.253-3.836-.914-1.951-1.263-4.14-2.358-6.033-.147-.255-.337-.484-.512-.732-1.092.854-.311 2.515-1.586 2.979-.397 1.669-.593 3.272-.11 4.871.461 1.527.098 3.362 1.614 4.542.761-.955.868-1.465.54-2.444-.435-1.296-.897-2.583-1.301-3.888-.211-.682-.087-1.349.411-2.252 1.059 2.494 1.511 4.915 2.373 7.319zm-16.136 1.081c0-.736.016-1.213-.004-1.688-.027-.622-.148-1.247-.113-1.864.108-1.911.288-3.819.399-5.73.024-.407-.123-.824-.21-1.348-1.95 1.812-2.71 6.383-1.706 9.584l1.634 1.046zM61.781 25.66l.402-6.68-1.112-.588c-1.016 2.33-1.18 4.589-.865 7.022l1.575.246zM31.722 94.931l-1.208 1.518-2.746 1.397c1.124 1.062 2.136 2.194 3.803 2.368 1.113-1.372-.395-2.836.289-4.165.104-.2-.056-.533-.138-1.118zm81.638-65.778c-1.273-2.511-1.646-5.148-1.606-7.993-.331.165-.485.217-.609.31-.128.096-.226.232-.327.34-.183 2.179-.085 4.283.641 6.286l.765.423c.547.753-.65 1.378.39 2.041l.746-1.407zM69.08 7.362c-4.1.014-8.08.215-12.138 1.484.493.175.777.383 1.027.348 3.589-.495 7.174-1.02 10.758-1.553.129-.019.236-.183.353-.279zM45.211 26.748c.553-1.177.445-2.312.508-3.409.008-.141-.261-.297-.426-.473-1.275 2.229-1.3 2.714-.082 3.882zm4.522 3.084c-1.291-.6-3.305.012-4.299 1.29 1.626.129 2.936-.547 4.299-1.29zm54.527.608c-.31-1.265-1.173-1.961-2.06-2.758-.214 1.339.186 1.863 2.06 2.758zm-67.672-3.78c.784-.696.719-1.325.32-2.154-.474.678-.779 1.235-.32 2.154zm-6.299-10.231c-.869.443-1.223 1.118-1.024 2.175.889-.55.877-1.401 1.024-2.175zm7.465 2.533v-1.773c-.813.786-.813.786 0 1.773zm-.729 18.041l.741-1.999c-.984.79-.984.79-.741 1.999zm-5.435 69.47l-.308-.208-.892 1.035.996.316.204-1.143zm12.607-85.717c-.758.628-.752.631-.262 1.565l.262-1.565zm-8.884 9.433c-.307.618-.793.983-.483 1.657.845-.778.845-.778.483-1.657zm-3.171.219c.174-1.135.174-1.135-.643-1.44l.643 1.44zm76.151 3.047l-.305.132.597 1.351.292-.127-.584-1.356zm-77.117 75.953l-.311-.045c-.452.677-.452.677.193 1.339l.118-1.294zM70.523 28.76l.051.37c.516.419.792.103.952-.616l-1.003.246zm-32.459-8.5c-.465.771-.465.771 0 1.408V20.26zm38.513 131.272l-.805.746.259.275c.476.054.775-.079.546-1.021zm-38.68-123.61l-.73.784.916.181-.186-.965zM60.91 96.3l-1.25-.168c-.574.626-1.275 1.197-1.73 1.923-1.51 2.408-2.939 4.867-4.375 7.321-.182.311-.217.708-.322 1.064-.071.239-.079.538-.231.705-1.283 1.408-2.593 2.792-3.994 4.289-.193-1.733.793-3.137 2.426-3.901.283-.664.453-1.206.729-1.688a454.993 454.993 0 0 1 4.459-7.682c.528-.884 1.189-1.688 1.794-2.536-.082-.188-.112-.373-.22-.482-1.641-1.658-1.767-3.585-1.001-5.659.287-.777.573-1.564.969-2.287.334-.61.825-1.135 1.338-1.654a74.85 74.85 0 0 0 2.583-11.161c-.805.325-1.288.517-1.769.715-1.308.54-2.597 1.133-3.929 1.605a8.211 8.211 0 0 1-2.32.455c-1.887.088-3.496 1.039-5.244 1.55-2.375.695-4.77.9-7.078-.313-1.243-.654-1.735-1.273-2.018-2.263l-2.862-3.47c-.447-3.066.731-5.342 2.247-7.392.937-1.266 2.37-2.197 3.998-2.39 1.324-.157 2.332-.889 3.449-1.42 1.278-.608 2.476-1.383 3.742-2.02.516-.259 1.108-.408 1.683-.499 1.979-.313 3.959-.638 5.951-.833.851-.083 1.745.08 2.597.245 1.833.355 2.689 2.425 2.749 3.789.02.448-.348.912-.596 1.507.507 1.816 1.306 3.783.733 5.992-.236.911-.104 1.912-.192 2.867-.06.655-.212 1.302-.378 2.274.179 1.446-.239 3.113-.811 4.79-.384 1.128-.527 2.341-.747 3.521-.033.177.103.385.209.739.496-.27.939-.461 1.326-.731.992-.693 2.096-.804 3.244-.678.824.09 1.386.513 1.574 1.549-.393.046-.774.204-1.073.107-1.412-.459-2.649.002-3.846.653-1.261.686-2.376 1.495-3.017 2.892-.546 1.19-1.317 2.276-1.751 3.006-.437 2.778 1.81 4.056 4.358 4.55l.813-.861c.396-.093.796-.109 1.118-.277 1.002-.523 1.841-.29 2.639.418a6.206 6.206 0 0 0 3.125 1.515c1.076.183 1.436.027 1.936-.904a8.41 8.41 0 0 0 .331-.674c.097-.228.17-.467.262-.724.995-.341 1.839-.133 2.756.338 1.481.76 3.066 1.269 4.785 1.06l1.031-1.176c-.359-3.017-1.312-5.93-2.12-8.887h-1.481l-.884-1.903-.874-.367c-.061-.107-.16-.21-.18-.325-.361-2.128-.88-4.246-1.022-6.39-.156-2.364-.301-4.78.546-7.087.2-.546.46-1.069.797-1.845-.007-2.597.767-5.074 3.558-6.541v-1.596l-.93-.742c-.191-1.159.393-1.992 1.102-2.744.126-.035.211-.086.287-.075 2.04.288 3.94-.332 5.887-.794 1.289-.306 2.679-.164 3.987-.414 1.806-.345 3.471-.009 5.145.603.738.27 1.525.403 2.379.622.868 1.166 1.674 1.365 3.113.734.326-.143.693-.193 1.15-.315l.063 1.318h1.937c1.099 1.333 2.171 2.472 3.049 3.744.873 1.264 1.551 2.663 2.389 4.133-1.546.945-3.022 2.044-3.718 3.806.494 1.711.549 3.376.219 5.041-.328 1.655-1.162 2.911-2.834 3.541-1.146.432-2.273.799-3.524.772-1.922-.042-3.845.008-5.768.004-1.76-.004-3.327-.755-4.946-1.307-2.284-.778-4.576-1.533-7.023-2.351l-.794 2.059c-.053.051-.236.219-.413.394-1.019 1.004-1.033 2.207-.694 3.483.085.32.215.647.211.969-.012 1.229.315 2.309 1.21 3.192.14.138.204.351.323.565l-.635 1.201c.729 3.108 2.316 6.095.987 9.425.24.304.466.598.7.884 1.092 1.339 1.836 2.868 2.511 4.446.392.918.901 1.788 1.394 2.659.36.636.461 1.237.037 1.846-.717.184-.945-.314-1.174-.75-.834-1.59-1.816-3.129-2.416-4.805-.497-1.388-1.467-2.299-2.283-3.359-1.303-.148-2.465-.115-3.5.747-.778.648-1.692 1.003-2.732 1.151-1.276.182-1.575.671-1.616 1.977-.033 1.046-.106 2.091-.166 3.227l.52.757-.629.771c-.367-.188-.51-.216-.575-.302-.678-.892-.443-1.901-.344-2.888.074-.737.165-1.472.255-2.268l-1.351-.22v-1.418c-.354.069-.754.08-1.1.224-2.044.854-3.428 3.253-3.181 5.456.112 1.004.112 1.004-.512 1.644-.552-.179-.803-.594-.727-1.144.135-.989.301-1.977.517-2.951.159-.715.418-1.407.706-2.349l-.981.531-1.652-.973-.311-1.06a660.3 660.3 0 0 0-1.284-.27c-.223-.305-.473-.638-.805-1.082zm-8.42-23.284c.443.449.851 1.089 1.796 1.244-.299-.857-.783-1.355-1.311-1.968-.568-.659-.589-.818-1.358-1.18l-2.16.924.077.372c.45-.03.905-.031 1.35-.097.725-.106 1.103.038 1.606.705zm-10.633-8.247c-.828.461-1.424.853-1.993 1.449-1.063 1.116-1.369 2.557-2.019 3.845-.147.292-.076.743.008 1.094.271 1.129.913 2.013 1.954 2.723.572-1.353 1.128-2.641 1.655-3.941.089-.219.049-.49.067-.737l.257-3.466c.021-.266.039-.534.071-.967zm47.017 3.128c1.625 1.029 3.077 2.064 3.132 4.374l1.32-.832c.225-1.798-.54-3.019-1.553-3.854-1.229-.195-2.205-.39-3.19-.489-.436-.044-.943-.003-1.327.186-1.082.531-2.156 1.111-2.857 2.303l.744 1.088c.53-1.253 1.185-2.189 2.443-2.703.338-.021.797-.046 1.288-.073zm5.203-.247l.9 4.271h2.6c.399-1.898-.968-3.521-3.5-4.271zm9.253-1.506l.901 1.34 3.131-2.755-1.079-1.643c-1.31.784-2.051 1.928-2.953 3.058zm-7.836-7.418l.678 1.824 3.192 1.631v-1.5c-.268.024-.508.041-.747.068-.282.032-.564.071-.798.101-.94-.929-.937-.976.131-2.899-.559-.378-1.036-.974-1.929-.442l-.527 1.217zm-11.233 9.106c-1.692.113-2.906.64-3.89 1.861.911.628 1.325 1.834 2.753 1.722-.5-1.402.444-2.375 1.137-3.583zm19.991-7.033l-2.567 3.019.532 1.268 3.363-3.119c-.243-.514-.458-1.106-1.328-1.168zm-23.618-3.755c-.429 1.028-.328 1.913.15 2.852l2.218-.606v-2.246h-2.368zM62.11 62.997c.318-1.327-.573-2.711-2.111-3.268-.978.381-1.045 1.247-1.157 2.039l3.268 1.229zm29.003-4.091l1.359-3.306c-1.252-.293-2.135.031-2.805.988l-.138 1.954 1.584.364zm-2.573-.731l.227-2.378-2.172.187c-.552.872-.576 1.645-.157 2.397.725.581 1.352.349 2.102-.206zm-35.159 2.117l-1.61.158-1.25 2.844.206.203 2.507-.894.147-2.311zm38.904-1.573l1.711.404 1.337-2.606-1.608-.699-1.44 2.901zm-36.08 15.315c.36-1.961-.101-2.864-2.001-4.049l-1.229.074 3.23 3.975zm47.336-14.518c-.622-.561-.963-.198-1.266.151-.806.927-1.591 1.873-2.427 2.86l.579.505c.958-1.016 1.873-1.977 2.774-2.95.133-.143.207-.341.34-.566zm-53.415 1.91c-2.03.669-2.633 1.473-2.27 2.668l1.448-.381.822-2.287zm-7.523 6.661c1.308-1.173 1.839-2.794 1.28-3.728-.937.628-1.456 2.073-1.28 3.728zm41.346-11.289l.318 2.118.912.171.163-2.611-1.393.322zm-27.101 3.264l-.425 1.548h1.27l.585-1.92-.263-.194-1.167.566zM46.16 65.23l.863-2.18-.261-.115c-.766.632-1.884 1-1.736 2.493l1.134-.198zm8.395-3.022l.869-.493-.191-1.833c-.964 1.181-1.002 1.328-.678 2.326zm45.124-3.847l.907 1.038.383-.773-1.29-.265zM65.928 98.537l.328.282.666-.839-.324-.254-.67.811zm-10.843 16.031h-2.586c0-.284-.097-.591.016-.742.594-.793 1.111-1.734 1.895-2.277 1.902-1.315 3.92-2.467 5.925-3.626.899-.52 1.864-.936 2.826-1.332.872-.359 1.69-.063 2.314.55.77.757 1.436 1.618 2.181 2.473.741.335 1.327-.084 1.866-.566a97.39 97.39 0 0 0 2.745-2.553c.67-.649 1.449-.785 2.312-.582.365.086.728.211 1.065.376 1.723.841 3.407 1.771 5.162 2.537 2.287.997 4.117 2.5 5.546 4.523.599.848 1.275 1.655 1.771 2.56.276.504.253 1.171.392 1.91l-2.059.481-.612.83c-1.233.329-2.409.789-3.786.561-.959-.159-2.002.073-2.991.232-2.31.371-4.477-.436-6.706-.73a69.368 69.368 0 0 0-3.345-.34c-.582-.048-1.222.121-1.744-.066-1.975-.709-3.992-.335-5.98-.297-1.868.036-3.504-.432-4.819-1.705-.598-.581-.92-1.448-1.388-2.217zm29.66 3.359l.034-.391c-.305-.335-.584-.698-.919-1-1.948-1.755-4.346-2.744-6.662-3.869-.217-.105-.492-.134-.738-.128-.626.016-1.256.145-1.874.097-1.859-.144-3.534.463-5.212 1.128-1.115.442-2.212.289-3.252-.273-.587-.317-1.16-.66-1.729-1.008-.668-.408-1.322-.386-2.035-.08-.956.41-1.933.78-2.92 1.105-.934.308-1.894.537-2.995.843.263.519.36.969.638 1.216 1.226 1.09 2.628 1.712 4.336 1.618 2.108-.116 4.228-.497 6.328.183.454.147.999.094 1.49.035 1.227-.148 2.388.023 3.593.316 1.927.467 3.836 1.135 5.913.726 1.301-.256 2.661-.207 3.993-.309.671-.053 1.34-.138 2.011-.209zm-11.537-10.283l1.926.974c.078-1.106-.218-1.256-1.926-.974zm-8.757 3.017l.348-.08.331-1.632-.329-.154-.983 1.106.633.76zm22.544 5.738l-1.244-1.301c.122 1.323.122 1.323 1.244 1.301zm15.795-16.533c.51-1.844.928-3.719 1.555-5.522.626-1.802 1.966-3.064 3.65-3.935.969-.501 1.717-1.198 2.078-2.235.314-.903.565-1.828.903-2.938l-1.171-1.873-3.158.947c-1.095.757-2.073 1.387-3.002 2.085-1.969 1.479-3.242 3.319-3.596 5.88-.3 2.171-.374 4.33-.361 6.498.005.88-.227 1.851.49 2.784l2.299-.555.313-1.136zm-63.213-8.425c.911.507 1.702 1.168 2.046 2.119.536 1.484.934 3.023 1.301 4.561.242 1.013.345 2.056 1.145 2.833 1.036-.142 1.205-.29 1.397-1.234.215-1.06.453-2.117.627-3.184.058-.353-.011-.743-.09-1.1-.316-1.421-.601-2.853-1.008-4.249-.471-1.615-1.253-2.995-3.061-3.506-.757-.214-1.45-.646-2.187-.941-.763-.306-1.545-.566-2.215-.808-1.051.804-1.051.804-1.399 2.351l.488 1.344c.899.556 1.903 1.228 2.956 1.814zm85.762.761l3.199-3.06c-.868-.248-1.393-.442-1.936-.546-1.961-.376-2.387-1.132-1.926-3.097.377-1.607 1.084-3.048 1.786-4.519.46-.965 1.132-1.359 2.104-1.493 1.109-.153 2.149-.015 3.269.633-.658 1.242-1.363 2.419-1.916 3.663-.538 1.211-1.649 2.157-1.753 3.522l1.565 1.157c-.172.479-.228.976-.493 1.306-.704.877-1.476 1.703-2.266 2.505-.402.407-.906.617-1.633-.071zm1.879-10.379l.321.315.707-.766-.266-.256-.762.707zm-15.147-42.017c-.009.535-.021 1.07-.028 1.605a41.74 41.74 0 0 0 .549 7.225c.433 2.67.851 5.343 1.265 8.017.044.287.048.586.023.876-.161 1.891-.192 3.765.744 5.485a88.014 88.014 0 0 1 2.776 4.172c.683 1.084 1.181 2.332 2.037 3.25 1.191 1.277 2.049 2.696 2.734 4.266.446 1.023.938 2.027 1.407 3.036.909-.357 1.117-.951.67-1.823-.304-.594-.572-1.212-.924-1.777-.698-1.123-1.442-2.217-2.167-3.323-.8-1.22-1.702-2.385-2.378-3.67-1.076-2.045-2.284-3.967-4.058-5.548-.062-1.933-.052-3.892-.207-5.838-.196-2.455-.272-4.964-.868-7.332-.664-2.638-.938-5.253-.893-7.939.004-.267-.103-.537-.174-.878l-.544.237.036-.041zm-36.94 4.831c-1.037.07-2.045.315-3.102-.031-.479-.157-1.125-.107-1.6.085-1.503.609-3.048.284-4.572.337-1.577.055-3.158.02-4.736.048-.561.01-1.038.224-1.423.942.381.106.659.249.939.251 1.83.015 3.661.036 5.489-.017 1.157-.034 2.308-.218 3.465-.287a33.356 33.356 0 0 1 2.846-.05c.659.017 1.316.203 1.973.194 1.081-.016 2.16-.122 3.239-.209.198-.016.389-.12.591-.186v-1.093c-1.138.001-2.127-.051-3.109.016zm51.566 58.553c.293-.254.606-.529.923-.798.345-.293.695-.581 1.09-.911.138-.419.313-.89.445-1.374.053-.194.009-.414.009-.574-1.061-1.283-2.331-1.521-3.975-.841-1.279 1.123-1.052 2.535-1.011 3.894.642 1.054 1.574.768 2.519.604zM64.739 55.761c.03.38-.075.85.111 1.124 1.015 1.497 2.349 2.447 4.281 2.351 1.839-.091 3.001-1.315 4.212-2.439.175-.162.024-.676.024-1.138-.486.179-.782.239-1.023.389-.352.219-.668.497-.991.76-1.577 1.286-3.025 1.326-4.635.111-.554-.418-1.095-.856-1.641-1.284l-.338.126zm5.77-15.606l.051.714 5.94-.392 1.545.431.1-1.171-1.176-.94c-2.108.672-4.406.359-6.46 1.358zm-2.858 83.121c.293 2.05.613 4.096.944 6.139.052.319.218.62.328.923.798.375 1.079-.034 1.151-.392l-1.744-7.829c-.722.542-.767.549-.679 1.159zm-1.077 6.423c-.128-.684-.273-1.372-.31-2.064-.079-1.5-.077-3.005-.148-4.506-.014-.303-.207-.597-.317-.895l-.355.053c-.069.429-.186.856-.198 1.287a62.343 62.343 0 0 0-.012 3.236c.025 1.119.055 2.241.173 3.352.039.365.359.7.609 1.154.746-.549.66-1.07.558-1.617zm5.349-4.935c-.262-.916.187-2.047-.782-2.804-.471.4-.693.843-.596 1.44.087.531.12 1.072.212 1.602.192 1.105.371 2.214.626 3.304.168.72.644 1.138 1.444 1.025.189-.741.189-.741-.462-1.503-.146-1.091-.17-2.113-.442-3.064zM59.455 98.097c-.288.326-.672.607-.846.985-.92 2.001-1.82 4.013-2.65 6.053-.243.597-.288 1.321.736 1.681.617-1.446.173-3.071 1.127-4.418.865-1.222 1.338-2.722 1.984-4.099a63.075 63.075 0 0 1-.351-.202zm54.399 15.879c.15.694.166 1.735 1.55 1.838l-.806-6.267c-1.389 1.468-1.055 2.992-.744 4.429zm-6.027 11.028c-.421-1.178-.688-2.378-.287-3.63.054-.17.007-.371.007-.588-.977.296-1.378 1.252-1.298 2.892.094 1.922.523 2.716 1.588 2.941.3-.77.269-.836-.01-1.615zm-19.135-1.408c-.17-.959-.579-1.875-.921-2.926l-.547-.172c-.54 1.624.254 2.971.67 4.35.189.627.286 1.433 1.313 1.59.759-1.181-.353-1.926-.515-2.842zm-36.696 4.179l2.084-6.269c-.693-.084-1.047.288-1.257.82-.686 1.737-1.741 3.412-1.131 5.388l.304.061zm-3.629-3.684c.918-.397.665-1.126.825-1.683.295-1.027.116-2.331 1.59-2.685.137-.033.193-.402.378-.823l-1.911-.181c-.596 1.878-1.401 3.476-.882 5.372zm52.977 5.547h-1.045c-.731 2.269-.003 4.739 1.639 5.048.028-1.781-1.556-3.21-.594-5.048zm-23.037-29.571c.2.924.423 1.844.626 2.768.135.617.461.858 1.213.55.147-1.559-.598-2.993-.894-4.498-.045-.23-.323-.414-.555-.692-.511.645-.525 1.248-.39 1.872zm-9.681-.143c-.611 1.088-1.153 2.23-1.073 3.506.053.838.656 1.191 1.629 1.099l.214-1.184c-1.368-1.115-.137-2.283-.061-3.624-.348.092-.642.084-.709.203zm14.885-21.317l-.17.822a5894.82 5894.82 0 0 1 2.191 4.016l.972-.567c-.996-1.511-.908-3.539-2.993-4.271zm10.34 31.077c-.562-1.005-1.117-2.014-1.704-3.073-.845-.015-.833.579-.702 1.174.294 1.337 1.157 2.334 2.055 3.454.697-.555.643-1.033.351-1.555zm-17.65-5.282c-.047-1.502-.809-2.799-1.051-4.196-.241-.031-.373-.084-.48-.053-.149.043-.281.148-.395.213-.186 2.772.408 4.09 1.926 4.036zm39.188-1.164c-.702.589-.94 2.442-.409 3.748.271.665.578 1.377 1.719 1.225l-1.31-4.973zM48.377 133.03c-.334 1.524.022 2.957.661 4.333.074.16.337.231.572.382.389-.892-.016-1.589-.211-2.276-.272-.959-.399-1.864.212-2.743.082-.118.057-.309.1-.577-1.009.051-1.174.151-1.334.881zm12.617-33.281c-1.404 2.17-2.238 5.127-1.46 5.734l.87-.379-.2-1.589.139.023.987-3.729-.336-.06zm1.073 4.945l1.16-.545-.298-1.808c.332-.802.749-1.635.114-2.605-.59 1.538-1.738 2.971-.976 4.958zm55.234-4.181c-1.141.708-1.097 2.081.062 4.183.599.229.956.044.872-.702l-.934-3.481zm-13.6 28.762c.062-.424.237-.788.129-1.025-.516-1.138-.472-2.258.045-3.559l-1.089-.272c-.656 1.759-.285 3.946.915 4.856zm-12.452-10.451c.22.94.646 1.812 1.439 2.872l.812-.712-1.182-3.032c-.986.009-1.234.169-1.069.872zm-30.172 20.721c-.502-1.132-.796-2.276-.579-3.532.031-.177-.307-.417-.543-.715-.792 1.855-.36 4.389 1.054 5.072.036-.363.151-.638.068-.825zm-6.121-56.819c1.096-.795 2.46-.913 3.257-2.251-1.75-.543-3.341.538-3.257 2.251zm19.448 41.344c.341.686.809.999 1.741.841.007-1.318-1.044-2.078-1.386-3.368-1.023 1.011-.744 1.744-.355 2.527zm5.064 10.208c.638.686 1.146 1.615 2.515 1.735-.143-.515-.13-.952-.341-1.143-.73-.665-1.282-1.594-2.671-1.944.215.615.248 1.084.497 1.352zm-5.818 3.632c-.249-1.411-1.283-2.349-1.685-3.586-.823 1.187.148 3.22 1.685 3.586zm-7.723 1.073c.024-.536-.119-1.023-.212-1.519-.106-.569-.146-1.152-.258-1.72-.09-.454.261-1.086-.556-1.42l-.42 1.616c.904.762-.1 2.438 1.446 3.043zm-11.818-2.389l.369-.004.312-4.643-.882.429c.039 1.484-.394 2.894.201 4.218zm39.845-18.834c.213.779.394 1.486 1.371 2.056l-.23-2.206.646-1.612c-1.626-.006-1.3 1.225-1.787 1.762zm13.64-5.521l-.145 1.202c.774.285.753 1.457 1.879 1.379.155-1.274-.608-1.97-1.37-2.665a23.87 23.87 0 0 0-.364.084zm9.688-34.501l1.455.874.497-1.02-1.475-1.61-.477 1.756zm-70.786 39.925c-.255.486-.52 1.166.216 1.584l1.84-1.902c-1.014-.399-1.695-.367-2.056.318zm71.161-31.229l-.297 1.104 1.731.139c.179-.266.319-.422.394-.604.058-.141.035-.315.061-.639h-1.889zm-12.214 31.123l-1.072-2.495c-.876 1.267-.418 2.341 1.072 2.495zm-60.908-3.839c.319-.905-.316-1.432-.82-2.156-.667 1.081-.408 1.703.82 2.156zm-4.933-6.07c-.089.293-.342.691-.234.86.285.448.435 1.234 1.536.886l-.843-1.734-.459-.012zm87.911-45.108l-.406-1.011c-1.217.562-1.225.579-.804 1.677l1.21-.666zm-10.777-24.855c.405.084.788.291 1.009.179.281-.144.431-.546.709-.937-1.112-.552-1.4-.074-1.718.758zm8.344 25.232c-1.233-.179-1.414-.009-1.294 1.278.966.003 1.166-.583 1.294-1.278zm-67.985 64.649c.19-.448.547-.814-.229-1.322-.172.999-1.019 1.768-.019 2.754.074-.48.063-.997.248-1.432zm64.681-59.992l.488-1.472-.184-.163-1.14.655c-.095.809.065 1.195.836.98zm-2.264-26.536c1.093-.166 1.281-.394 1.163-1.417-1.112.188-1.276.387-1.163 1.417zm-3.643 8.896c-.301.335-.66.637-.869 1.022-.072.133.229.47.36.713l.351-.017.585-1.421c-.142-.1-.285-.199-.427-.297zm6.608-4.778c.001-.142-.117-.284-.212-.495l-1.07.182.182 1.114c.823.039 1.098-.255 1.1-.801zm2.313 3.237c.023-.187-.042-.385-.071-.613h-.849l-.223 1.3c.786.125 1.077-.15 1.143-.687zm-9.768-3.415c.577.304.995.38 1.331-.064.127-.168.106-.447.161-.719l-.896-.281-.596 1.064zm5.847 15.903l.828.78.966-.781c-.9-1.086-1.289-.509-1.794.001zm-1.989 1.961l-.728 1.028 1.368.356c.003-.69.224-1.231-.64-1.384zm-3.559-23.809l.083 1.462.309.127 1.043-1.071-1.435-.518zm11.097 17.959c-.996.27-1.017.315-.555 1.266.817-.243.967-.633.555-1.266zm-5.322-1.136l1.443.418v-1.539l-1.443 1.121zm-3.518 3.813c-.973.071-1.102.575-.926 1.389.977-.092.967-.683.926-1.389zm1.921-7.936h-.847v1.243c.968-.433 1.192-.795.847-1.243zm5.326 1.596l-1.091.902 1.074.434.349-1.048-.332-.288zm-7.473-5.305c-.001.521.343.7.918.553l.216-1.118c-.733-.193-1.133-.038-1.134.565zm1.204-6.57l-.309-.171-.954.986.919.759.344-1.574zm2.847 9.24c.052.198.39.322.788.623v-1.398c-.772-.057-.902.338-.788.775zm3.058 17.667c-1.089.18-1.123.243-.499 1.32l.756-1.112-.257-.208zm2.555 2.234c-.414.397-.908.729-.368 1.468.933-.46.938-.479.368-1.468zm-6.701-23.062l.332-1.025-.782-.189c-.542.936-.542.936.45 1.214zm-1.992 45.836l.177.268c.25-.067.594-.054.73-.216.309-.369.374-.806-.288-1.261l-.619 1.209zm1.446-36.427c-.214.291-.507.558-.606.883-.044.146.3.41.468.62l.328-.101.213-1.201-.403-.201zm-2.333-2.785c-.751.099-.94.467-.633 1.146.917-.115.925-.127.633-1.146zm6.189 6.172l.986-.97c-1.285-.276-1.358-.189-.986.97zm-3.382-25.285l.34-1.118-.329-.2c-.223.26-.501.495-.639.794-.053.115.21.377.33.573l.298-.049zm7.486 32.849l.42-1.002-.852-.096.153 1.062.279.036zm-21.401-53.887c-.518 1.439-1.435 2.908-.752 4.532l.381.111 1.143-3.605c.446 1.354-.889 2.601.192 4.186.279-.768.481-1.292.661-1.824.489-1.449.678-3.018 1.813-4.203.199-.208.173-.632.251-.957l-.285-.17-1.626 1.284c-.314-1.332 1.03-2.154 1.06-3.633-1.878 1.037-2.289 2.753-2.838 4.279zM27.337 82.805c.305-1.318.565-2.613.917-3.882.157-.566.198-1.037-.162-1.53-.653-.894-1.278-1.809-2.012-2.853l-1.421 1.051c.643.723 1.13 1.32 1.669 1.865.656.662.852 1.363.542 2.277-.375 1.11-.62 2.257-.337 3.448.344 1.452 1.361 2.153 2.759 1.811l.077-.558-2.032-1.629z"/></svg>
