<svg xmlns="http://www.w3.org/2000/svg" viewBox="0 0 320 320"><path d="M74.323 141.577c-.581-4.138-.728-7.959-.576-12.137.03-.829-.464-1.333-1.077-1.498-.483-.758-1.413-1.278-2.368-1.036-2.978.754-5.641 3.459-7.756 5.746-1.546.054-2.384 2.648-.764 3.466 3.212 1.62 5.622 4.343 8.203 6.786.758 2.755 4.726 1.439 4.338-1.327zm-6.415-8.391c.609-.415 1.256-.772 1.9-1.131a27.965 27.965 0 0 0-.443 4.729c-1.02-.848-2.049-1.67-3.158-2.397a52.124 52.124 0 0 1 1.701-1.201zm235.646 97.117c-2.518-11.557-10.177-22.018-17.822-30.737-6.629-7.56-16.281-17.02-26.249-20.417-.104-.183-.227-.361-.35-.539 4.536-2.22 2.79-6.56-.123-9.469 1.62-.538 3.055-1.659 3.443-3.403.055-.246.078-.488.087-.727.158-.087.315-.192.465-.338 4.199-4.087 8.839-5.45 14.323-6.837 3.098-.784 6.097-2.648 6.727-5.967 1.206-6.346-8.009-6.938-12.104-7.08-5.799-.201-11.759.746-17.399-1.015-1.6-.499-2.612-1.581-1.864-3.282.715-1.626 3.38-1.661 4.828-1.723 4.149-.176 8.359.948 12.36 1.908 8.229 1.976 30.992 6.228 28.736-8.428-.601-3.902-5.406-5.302-5.701-9.25-.303-4.063.198-7.384-1.66-11.188-1.876-3.841-6.351-6.339-9.765-8.583-5.8-3.812-9.898-7.195-10.392-14.562a2.945 2.945 0 0 0-.322-1.179c.229-.138.459-.285.687-.42 7.163-4.252 14.881-7.638 21.891-12.118 5.118-3.27 9.249-7.829 9.537-14.127.307-6.728-5.22-12.449-10.821-15.155-7.067-3.415-15.343-3.391-22.819-5.445-5.233-1.438-10.27-3.278-15.648-4.154-5.816-.948-11.617-1.885-17.409-2.982-21.976-4.163-44.577-6.049-66.225-11.654-.356-.092-1.425-.533-1.68-.8-3.464-3.623-7.831-6.511-12.264-8.326-12.809-5.243-30.042-4.386-40.432 5.413-.662.625-.772 2.407-1.347 4.463-1.449 5.18-.622 14.531 3.537 18.864-2.743.94-5.35 2.267-8.12 3.571-7.015 3.303-15.651 2.942-23.156 4.451-.808.163-1.554.948-1.738 1.738-1.975 8.464-2.142 17.084-.29 25.583.01.047.03.086.043.13a1.71 1.71 0 0 0-1.134.854C63.212 89.5 45.822 108.569 33.873 128.587a2.68 2.68 0 0 0-.298.75 1.23 1.23 0 0 0-.444 1.121c1.619 15.143 3.13 30.182 3.523 45.42.394 15.26.173 30.539.118 45.802-.001.315.047.598.133.85-.011.023-.025.043-.035.067-.64 1.575-.995 3.232-1.355 4.887-3.661 4.826-6.379 10.454-9.322 15.688-4.946 8.795-9.563 17.773-13.152 27.217-2.021 5.319-2.655 10.366 1.089 15.022 7.052 8.77 23.249 8.108 33.278 9.521 8.939 1.259 17.508 4.429 26.604 4.618 6.535.136 13.15-2.755 18.269-7.006 1.476 1.629 3.555 1.869 6.464-.326.181-.136.327-.288.457-.446 1.171-.31 2.366-1.089 3.519-2.474 3.135-3.765 3.777-10.314 2.421-15.844a23.769 23.769 0 0 0 2.546-.758c2.511 9.244 7.457 19.805 13.473 13.215.364-.399.545-.833.59-1.261.057-.044.113-.08.169-.127.866-.709 1.438-1.775 1.843-2.956 3.085 7.2 6.771 14.156 12.468 19.641 8.603 8.282 20.931 7.776 32.072 7.904 14.206.163 28.54-1.313 41.957-6.154 4.127-1.489 8.155-3.254 12.169-5.039 8.607-.756 16.469-.212 24.824-3.09 7.592-2.615 16.18-6.517 22.516-11.478 6.006-4.702 10.335-11.564 15.38-17.239 5.118-5.757 9.45-12.261 13.803-18.618 3.859-4.751 6.095-10.335 4.602-17.191zm-16.928-22.576c3.447 4.27 6.481 8.894 8.81 13.836-8.05 5.246-15.106 11.842-22.812 17.56-4.804 3.565-9.784 6.904-14.437 10.629-.411-.156-.892-.155-1.389.097-2.886 1.464-5.608 3.313-8.748 4.135-2.941-4.018-6.196-7.887-9.493-11.601 6.297-7.901 15.257-13.746 23.448-19.42 7.948-5.505 16.77-9.67 24.621-15.236zm-6.347-7.05a94.405 94.405 0 0 1 3.216 3.405c-3.981 2.627-8.275 4.738-12.432 7.071-4.902 2.752-9.428 6.223-14.016 9.459-7.777 5.486-15.446 11.328-20.698 19.308-1.852-2.047-3.695-4.05-5.478-6-2.844-3.11-5.757-6.229-8.761-9.277 9.266-4.111 17.288-10.622 25.323-16.701 7.344-5.556 16.704-9.412 23.275-15.931 3.381 2.666 6.534 5.622 9.571 8.666zm-20.93-15.898c2.367 1.341 4.762 2.626 7.055 4.126-6.102 5.528-14.075 9.173-20.577 14.201-8.577 6.633-16.483 14.074-26.174 19.083-4.961-4.875-10.192-9.492-15.79-13.515 11.738-8.064 23.353-16.299 35.162-24.263 6.212.765 15.785 7.957 20.324.368zm-101.19 37.176c-1.892.223-3.789-.125-5.141-1.19-2.786-2.195-4.328-8.011-3.346-12.107a33.39 33.39 0 0 0 2.016-3.424c.31-.239.642-.45 1.021-.602.417.803 1.182 1.399 2.239 1.35a9.63 9.63 0 0 1 2.348.192c-.01 5.107-.257 10.675.863 15.781zm-6.493 4.108c2.745 1.478 6.014 1.602 9.053.75a1.93 1.93 0 0 0 1.786-.633c4.022-1.703 7.318-5.137 7.87-9.412.384-2.968-.33-5.896-1.759-8.436 2.949 1.76 5.76 3.759 8.417 5.562 8.227 5.582 14.986 12.783 21.929 19.83 6.941 7.045 15.05 12.847 22.65 19.139a62.837 62.837 0 0 0 3.064 2.348c-2.623.306-5.039 1.51-6.68 3.925-.389.572-.434 1.221-.264 1.824-3.808 3.872-5.319 9.214-1.158 14.078 1.514 1.77 3.441 3.128 5.554 4.027-9.059 3.548-18.346 5.787-28.101 7.275-9.201 1.403-18.568 2.083-27.751 3.695 1.146-2.989.537-6.517-1.803-9.377-3.512-4.294-11.073-6.244-15.411-2.18-.326.306-.526.65-.64 1.006-1.192 1.079-2.123 2.338-2.711 3.693a41.203 41.203 0 0 1-2.479-5.221c.228-.452.283-.926.204-1.376 1.002-.853 1.827-2.039 2.312-3.578 1.134-3.6 1.512-9.358.33-13.916.323-.046.636-.207.893-.535 3.81-4.857 4.351-11.24 3.28-17.157-.239-1.321-1.252-1.856-2.298-1.808-2.656-4.88-4.876-9.658-9.515-13.022-.148-.107-.3-.203-.45-.305 1.544-4.337 4.18-7.822 6.906-11.256.665 4.582 2.955 9.004 6.772 11.06zm8.788-18.686c3.235 1.871 5.437 5.419 4.554 9.443-.333 1.515-1.377 2.761-2.745 3.658-.664-4.361-1.192-8.728-1.809-13.101zm66.441 52.867c.085.002.169.018.254.024.815 5.056.579 10.332 1.576 15.348-2.965.259-6.211-1.051-8.306-2.882-3.639-3.18-2.47-6.944.324-9.787a2.08 2.08 0 0 0 .713-.352c1.798-1.374 3.07-2.408 5.439-2.351zm-67.628 30.191c-.056-1.457-.348-2.933-.543-4.364-.172-1.263-.344-2.539-.591-3.796.707.35 1.386.811 2.014 1.383 2.556 2.324 1.868 5.047-.88 6.777zm-4.116.71a8.832 8.832 0 0 1-4.364-2.175c-2.184-2.039-1.898-4.285-.566-6.214.602.191 1.28.152 1.94-.26a5.912 5.912 0 0 1 2.497-.872c.067 1.654.209 3.306.275 4.961.061 1.522.023 3.052.218 4.56zm-12.531-51.337c-11.236 2.355-21.758 7.103-32.794 10.227-9.068 2.567-18.468 4.59-25.655 10.782a2.56 2.56 0 0 0-.923-.132c-2.324-4.182-4.559-8.413-7.265-12.355 9.198-3.082 18.25-6.541 27.717-8.766 10.219-2.401 19.217-7.007 29.048-10.471.308.124.617.245.924.378 4.52 1.966 6.777 6.177 8.948 10.337zm-82.621 34.203c-.817.64-.925 1.533-.622 2.321a8.928 8.928 0 0 0-.792 7.275c.049.154.11.294.166.44-7.358-1.653-14.579-4.256-22.023-5.12a10.064 10.064 0 0 0 2.084-2.01c2.484-3.266 2.296-7.979-.308-11.112-2.471-2.972-6.319-3.209-9.384-1.486 1.693-4.269 3.86-8.26 7.051-11.83 4.268-4.774 9.464-9.35 14.882-13.068-.163 2.293.544 4.6 2.192 6.269 1.811 1.835 4.387 2.232 6.871 2.006 1.284 5.436 4.075 10.917 7.393 15.929.21 2.997.502 6.018.929 9.009-2.691-1.112-5.964-.562-8.439 1.377zm5.49 9.388c-1.447.774-2.536-.245-2.97-1.591-.455-1.411-.152-2.877.543-4.138 1.661-.971 3.537-1.178 4.75.618 1.47 2.175-.444 4.106-2.323 5.111zm-30.83-9.822c-1.121 1.94-4.14 2.968-6.071 1.772-1.811-1.122-1.277-3.63-.474-5.378.675.326 1.484.34 2.265-.19.818-.555 1.742-1.187 2.676-1.215.545-.016.928.258 1.437.796.977 1.034.933 2.888.167 4.215zm20.708-33.889c.151-1 .254-1.203.642-1.872.246-.425.481-.671.956-.926-.3.162.35-.046.169-.035.048-.003.166.007.253.014.14.033.279.069.414.114-.424-.141.666.43.56.346.432.346.822.759 1.215 1.15-.271 1.841-.282 3.724-.08 5.629-1.24-.077-2.416-.411-3.21-1.162-.467-.441-.682-.936-.849-1.569-.13-.494-.083-.193-.104-.846-.006-.202.092-1.225.034-.843zm11.917 12.18a7.95 7.95 0 0 0-.154.992c-3.229-7.104-4.42-14.593-.979-21.298.085-.029.174-.045.255-.082.317.291.758.428 1.268.246 2.601-.931 5.087-2.108 7.54-3.354 1.976 4.131 1.832 9.768 2.128 14.203.013.188.054.354.108.509a268.64 268.64 0 0 1-5.656 1.917c-.79.256-1.49 1.038-1.654 1.884-1.473 1.266-2.413 3.101-2.856 4.983zM85 181.745c.179-5.288.584-10.583.585-15.874 0-1.675.058-3.35.037-5.025-.01-.768-.052-1.533-.078-2.3a6.16 6.16 0 0 1 .001-.498c.004-.024.016-.045.019-.069.02-.076.027-.153.035-.229.758-.11 1.526-.223 2.295-.348.006.112.001.22.019.336 1.708 10.965 3.723 22.215 4.012 33.326.189 7.261-2.428 18.452 1.666 25.136a29.512 29.512 0 0 0-4.975.948 32.501 32.501 0 0 0-3.48 1.215 3.14 3.14 0 0 0 .143-.757c.686-11.899-.684-23.93-.279-35.861zm-2.221-28.381c-.045.005-.092.009-.137.015 3.873-5.712 5.659-11.709 4.494-18.904-1.265-7.814-6.429-14.857-10.936-21.357 9.309-3.104 17.606 10.222 19.861 17.981.2.686.375 1.385.536 2.089.016.171.047.34.106.501.871 4.056 1.091 8.338.349 12.389-1.165 6.344-9.102 6.667-14.273 7.286zm-5.636-1.335c-.395.5-.582 1.04-.612 1.569-9.045-.414-18.078-4.261-19.089-14.476-.781-7.889 5.272-21.43 13.378-24.726 7.918 11.791 16.835 24.324 6.323 37.633zm-4.483 38.82c.414-10.924 1.325-21.844 1.278-32.782.871.097 1.746.162 2.618.204.293 10.045.691 19.949.499 30.029-.207 10.846-.322 21.663 1.551 32.386.054.311.181.563.35.77-2.018 1.169-3.997 2.43-5.961 3.689a1.66 1.66 0 0 0 .039-.407c-.372-11.322-.804-22.557-.374-33.889zm29.837 44.354c-7.438 1.623-14.611 4.198-21.786 6.737.136-2.876.084-5.75-.1-8.625-.138-2.155-.185-5.054-1.299-7.069 2.467-1.287 4.945-2.551 7.518-3.614 8.299-3.427 15.527-1.75 23.713.887 5.041 1.624 10.129 2.265 15.161 3.427-7.637 3.058-15.044 6.476-23.207 8.257zm23.031-14.046c-.045.18-.063.349-.067.512-3.984-.752-8.048-1.253-11.877-2.333-1.367-.386-2.692-.764-3.993-1.122-.177-10.612-1.767-21.092-3.814-31.496-2.168-11.016-4.618-22.25-7.849-33.042a10.623 10.623 0 0 0 2.871-3.745c1.998-4.295 1.963-9.988 1.087-15.065 10.631-.319 20.114-3.817 28.076-11.342 6.96-6.579 11.967-15.045 17.238-23.09.795 8.778.798 17.677.364 26.747-.551 11.495-1.214 22.983-1.83 34.475-.426 7.951-.92 16.069-2.711 23.865-9.67 9.288-14.302 22.983-17.495 35.636zm20.069-149.855c.746.057 1.492.124 2.23.207 1.336.149 2.591-.079 3.89-.045 3.597 1.011 7.287 1.733 10.942 2.365 7.49 1.295 14.976 2.71 22.467 3.968 4.937.829 11.173.131 15.666 2.697 3.541 4.202 5.719 9.191 5.981 14.84.015.322.098.598.225.834a96.09 96.09 0 0 0-2.742-.042c-4.036.002-8.345-.053-12.414.516-12.619-1.193-25.393-3.538-38.074-3.43-.761.283-1.538.516-2.324.721-5.394-7.374-6.007-14.268-5.847-22.631zm77.718 48.26a395.217 395.217 0 0 1-5.617-.554l-.577-.037c-2.566-5.456-1.267-12.755 2.941-17.009 1.801.253 3.035.456 3.035.456-2.936 4.925-2.726 12.169.218 17.144zm32.715 63.213c-.232.486-.778.92-1.766 1.257-4.059 1.381-8.452-1.662-12.746-2.418a111.36 111.36 0 0 0 3.655-6.92c1.971.909 4.06 1.621 6.008 2.562.967.467 2.891 1.683 4.047 3.003-.251.866-.042 1.867.802 2.516zm-13.145-14.549c-1.028 3.951-3.114 7.735-4.856 11.416-.307.032-.626.14-.95.341-.774-.346-1.94-1.007-3.165-1.741 1.907-7.639 2.103-13.979 8.884-19.203.014-.01.023-.023.036-.033.596.409 1.201.806 1.782 1.238-.669 2.638-1.044 5.34-1.731 7.982zm-2.352-47.434a696.296 696.296 0 0 1-3.83-.225c-1.593-5.858-1.025-12.335 3.072-17.08 1.052.035 2.11.075 3.172.123-4.095 3.803-4.234 11.737-2.414 17.182zm-2.196 35.386c-6.017 4.445-8.032 12.496-7.985 19.848-.903-.577-1.588-1.024-1.814-1.167a47.582 47.582 0 0 0-3.488-1.984c-3.707-6.535-1.373-17.417 6.665-19.792.104-.031.19-.077.284-.116a78.725 78.725 0 0 1 6.338 3.211zm-5.543-35.868c-.698-.048-1.395-.091-2.093-.143-.131-.395-.376-.783-.794-1.135-4.045-3.405-5.007-11.695-1.805-16.144 2.11.18 4.227.312 6.347.408-2.896 5.236-3.618 11.317-1.655 17.014zm-6.52 30.269c-5.447 4.383-9.513 13.138-7.356 19.485a126.935 126.935 0 0 0-4.062-1.547c-.322-7.24.862-16.413 7.98-19.204 1.152.409 2.299.828 3.438 1.266zm-9.292-3.234c-5.215 4.562-7.255 12.645-6.255 19.702l-1.742-.608c-.472-.165-.94-.34-1.409-.512a2.732 2.732 0 0 0-.168-1.046c-2.067-5.7-1.328-15.424 4.111-19.255 1.817.559 3.64 1.133 5.463 1.719zm-15.729 16.116c-1.656-.677-3.308-1.362-4.965-2.036.714-6.896 1.136-15.438 8.537-17.86.52.162 1.038.325 1.562.487-4.851 4.493-6.375 12.888-5.134 19.409zm-8.761-3.548c-.997-.384-1.997-.757-3.005-1.114-.034-.104-.058-.208-.104-.313-3.05-6.928-.564-13.362 4.67-18.032 1.447.333 2.852.715 4.215 1.105-4.405 3.961-5.957 12.333-5.776 18.354zm19.992-41.236l-5.726-.363-.296-.014c-1.759-6.011-1.116-12.348 2.956-17.352.911.038 1.833.086 2.724.145.779.052 1.587.122 2.394.201-3.415 4.812-4.105 11.902-2.052 17.383zm-10.005-.588c-2.388-.145-4.773-.335-7.151-.659a2.221 2.221 0 0 0-.226-1.011c-2.933-5.963.058-13.337 6.305-15.622 0 0 1.121-.006 2.794.014-3.225 4.925-3.671 11.712-1.722 17.278zm-12.546-1.677a96.818 96.818 0 0 1-3.43-.903c-1.701-.479-9.585-3.885-7.391-6.824.641-1.924 1.784-3.217 3.555-4.236 1.424-.819 3.597-2.195 5.279-1.967 1.626-.63 3.389-1.046 5.216-1.307-3.612 3.97-5.16 10.449-3.229 15.237zm-39.971 48.455c.913-11.887 1.414-23.812 2.05-35.715.58-10.862.912-21.556-.361-32.342.023-.038.046-.075.067-.114 10.143.705 20.315 2.564 30.48 3.292-1.879 1.262-5.471 2.696-7.064 6.964-1.593 4.268.137 6.843 3.322 9.198 2.396 1.771 5.217 2.981 8.188 3.849 2.949 1.741 5.936 3.4 9.143 4.701 5.269 2.138 11.065 2.333 16.679 3.097-.091 3.357.165 6.755.857 10.036-.007.013-.017.022-.023.035-.464.946-.574 1.956-.611 2.994-3.673-1.072-7.332-2.102-10.899-3.134-2.186-.632-4.733-1.305-7.432-1.842a1.667 1.667 0 0 0-.234-.045c-9.435-1.845-20.654-1.978-24.931 7.095-1.455 2.479-1.648 4.914-.93 7.212-.697.638-1.038 1.693-.5 2.96 2.102 4.951 5.667 7.435 10.571 9.303 1.949.742 3.84 1.42 5.686 2.211-5.893 2.471-12.014 4.671-17.972 7.157-1.496.385-3.001.762-4.518 1.146-4.581 1.16-9.435 2.712-13.065 5.816.726-4.605 1.144-9.271 1.497-13.874zm32.995-8.368c-6.382-2.483-13.663-6.635-9.006-13.509.11-.162.178-.327.228-.492 3.646-3.02 8.62-3.597 13.735-3.089-4.512 4.317-6.362 10.926-4.957 17.09zm-11.611 19.187c6.218-2.556 12.482-5.005 18.572-7.849 2.427 1.606 4.807 3.286 7.53 4.377 1.87.749 3.752 1.646 5.65 2.614-2.098 1.877-4.119 3.835-6.107 5.541-5.903 5.064-12.216 10.028-19.513 12.908a2.436 2.436 0 0 0-.493.267c-4.872-2.527-9.775-4.976-14.957-6.836a24.51 24.51 0 0 0-4.535-1.133c-.806-.807-1.617-1.606-2.423-2.411 5.125-3.057 10.974-5.298 16.276-7.478zm25.645 11.421c3.81-2.964 7.926-6.042 11.751-9.296 6.661 3.561 13.532 7.054 20.722 7.317-9.933 6.74-19.835 13.583-29.18 21.095-.289-.188-.573-.386-.864-.571-5.55-3.525-11.483-6.438-17.322-9.452 5.435-2.172 10.227-5.463 14.893-9.093zm60.045-11.224a2 2 0 0 0-.341.227c-2.916-2.302-7.01-4.039-9.847-5.123.48-1.156.829-2.348 1.129-3.553.097.036.197.072.286.11 1.793.778 3.523 1.703 5.195 2.714 1.581.957 3.102 1.986 4.344 3.367 1.036 1.15.413 1.636-.766 2.258zm-2.208-13.617c1.119.646 2.432 1.428 3.163 2.527.06.09.1.128.126.143a.207.207 0 0 0-.065.08c-.361.656-1.461 1.168-2.025 1.633-.016.013-.022.031-.037.045a43.833 43.833 0 0 0-4.167-2.561c-.696-.379-1.702-1.004-2.76-1.495a34.11 34.11 0 0 1 .553-2.088 2.64 2.64 0 0 0 .298-.628c.043.016.086.029.129.046 1.661.619 3.252 1.413 4.785 2.298zm-2.068-40.92c-2.189-.08-4.378-.162-6.565-.262-1.724-5.479-3.814-13.171 2.052-16.915.1-.064.163-.143.24-.217 1.503.121 3 .283 4.489.468-2.65 5.096-2.383 11.679-.216 16.926zm9.989.31c-1.984-.049-3.965-.112-5.947-.174a1.69 1.69 0 0 0-.098-.712c-1.699-4.744-2.074-11.45 1.343-15.569 1.057.204 2.104.433 3.136.691 3.706.925 2.329 10.511 1.566 15.764zm11.737 1.906c-2.318.192-4.571-.33-6.836-.453.025-1.518.168-3.103.33-4.715l.247.016c.196.125.431.198.706.184 2.944-.151 8.01.396 10.174 2.593 1.129 1.147-3.979 2.321-4.621 2.375zm4.241-10.349c.024.01.045.008.069.017.047.166.094.329.14.453a1.423 1.423 0 0 1-.358.228c-1.293.538-2.771.766-4.15.942-2.039.261-4.103.353-6.156.479.075-.896.136-1.793.16-2.681 2.541.304 6.251.713 9.122.151.396.124.79.255 1.173.411zm-1.531-5.428c.522.704-.154.624-.951.816a6.965 6.965 0 0 1-1.216.162c-2.243-.461-4.571-.56-6.865-.468a13.646 13.646 0 0 0-.763-2.733c.886.053 1.771.106 2.657.171 1.931.141 5.841.303 7.138 2.052zM195.1 30.823c10.061 1.405 20.019 3.504 30.046 5.124 9.682 1.564 19.307 3.476 28.988 5.056 8.517 1.391 16.593 4.724 25.163 6.133 6.632 1.09 13.907 2.677 17.434 9.006 4.13 7.412-3.401 12.952-8.976 16.26-6.151 3.65-12.562 6.846-18.714 10.522-8.714 5.208-17.222 11.195-26.729 14.843a2.647 2.647 0 0 0-.799.482c-6.234-.377-12.478-.381-18.709-.932-2.539-.225-5.06-.464-7.581-.669-.012-.02-.018-.04-.031-.06-3.393-5.315-4.002-12.143-7.984-17.113-3.735-4.662-9.169-5.392-14.806-5.96-4.059-.409-8.072-1.074-12.081-1.779 14.763-.561 29.477-1.92 44.039-4.41 7.95-1.359 16.037-1.624 24.022-2.698 6.875-.925 13.979-.683 20.614-2.921 1.891-.638 2.228-3.702 0-4.168-6.762-1.415-13.125-3.572-20.034-4.32-8.165-.883-16.304-2.013-24.512-2.425-8.434-.423-16.729-1.938-25.158-2.237-3.987-.142-7.963-.162-11.942-.472-4.074-.317-8.011-1.513-12.055-2.061-.136-.5-.289-.99-.46-1.468a7.964 7.964 0 0 0-.62-1.329c2.304-6.383 1.063-12.489-2.112-17.678 7.415 2.643 15.223 4.188 22.997 5.274zM171 50.18c.506 6.565-1.7 13.285-1.057 19.77-.268-.042-.536-.088-.804-.128-8.351-1.267-16.487-2.834-24.546-5.28 1.212-7.97 2.482-16.076 3.075-24.12 7.017 2.321 14.029 4.453 21.476 4.467 1.141 1.2 1.668 2.862 1.856 5.291zm-24.077-24.13c3.87.516 7.738 1.11 11.608 1.803-.641 3.656-2.328 7.514-6.103 8.603-4.965 1.432-5.48-7.202-5.463-9.958a2.443 2.443 0 0 0-.042-.448zm5.01-10.163c5.738 1.734 11.262 5.052 14.826 9.945 3.194 4.386 3.383 8.817 3.049 13.637-3.305-1.508-6.598-2.799-10.265-2.602 2.91-3.08 3.407-6.985 3.805-10.88.1-.977-.768-1.98-1.677-2.203-13.854-3.395-28.874-4.866-43.185-4.185 9.689-6.48 22.534-7.01 33.447-3.712zm-9.26 17.335c-2.029 3.546-7.925 5.323-10.599 1.732-.06-.081.94-7.701 1.176-10.458 2.964.283 5.922.598 8.877.947.212.025.42.677.419 1.054-.003 1.914.279 6.46.127 6.725zm-24.211-9.952c3.39.25 6.77.515 10.14.807-.263 4.431-.197 16.295-6.28 14.851-5.293-1.256-3.787-11.735-3.844-15.489-.001-.059-.011-.112-.016-.169zM89.206 53.625c5.891-1.024 11.864-1.427 17.704-2.773 6.135-1.415 9.647-5.197 17.461-6.038 7.814-.841 9.438-2.398 11.714-2.958 2.376-.585 4.622-.809 6.908-1.569-1.556 8.763-3.283 17.632-3.843 26.471-.009.138.011.263.025.391-16.834 3.862-34.028 5.453-50.981 8.647-.107-.057-.224-.094-.339-.134-.874-7.474-.412-14.757 1.351-22.037zm-1.04 26.594c16.501-1.694 33.091-3.698 49.308-7.246l.04-.018a8.512 8.512 0 0 0 1.628-.106c.393-.062.791-.124 1.185-.2.039.007.077.018.118.02a.964.964 0 0 0 .234-.001c.009-.001.018-.006.027-.006-1.563 7.538.298 15.91 4.462 22.311l-.072.008c-5.431 7.955-10.313 16.362-16.783 23.527-7.299 8.085-16.736 11.754-27.273 12.503a42.934 42.934 0 0 0-.338-1.192c-3.455-11.484-16.073-28.77-29.613-19.934-.301.196-.56.456-.77.752-8.85 1.805-15.032 12.287-16.959 21.779-3.433-1.258-8.592-2.404-13.094-3.86 12.089-19.025 28.538-36.766 47.9-48.337zm-51.37 52.854c3.844 1.522 11.979 4.529 16.004 3.245a23.792 23.792 0 0 0 .018 4.16c.672 6.787 4.418 11.333 9.492 14.139 2.834 11.531.653 23.588-.245 35.24-.516 6.689-.334 13.41-.026 20.132-7.153 2.8-14.265 6.504-20.286 11.079-.07-29.079.97-59.34-4.957-87.995zm25.782 88.423a121.514 121.514 0 0 0-9.764 3.636c.052-.358.11-.716.181-1.074.33-1.653 1.046-3.047 1.637-4.579 2.569-1.344 5.171-2.634 7.669-4.08.101 2.033.196 4.065.277 6.097zm-14.485 5.761c-3.595 1.71-7.114 3.604-10.42 5.696 2.711-3.328 5.731-6.379 9.2-8.865.434-.311.88-.603 1.325-.897a23.977 23.977 0 0 0-.105 4.066zm23.049 67.647c-7.887-.476-15.523-3.293-23.34-4.347-9.669-1.305-21.175-.896-29.568-6.557-5.653-3.813-2.591-10.548-.644-15.538 3.371-8.642 7.801-16.96 12.666-24.846.416-.674.845-1.348 1.274-2.021 10.151-5.92 20.53-10.585 31.196-15.28.021 1.003.037 2.006.041 3.009.001.33.069.613.165.875a18.778 18.778 0 0 0-1.99 3.506c-1.556-1.134-3.46-1.726-5.382-1.014a5.947 5.947 0 0 0-1.19.621 1.94 1.94 0 0 0-1.305.197c-7.426 3.826-13.896 10.26-19.698 16.175-5.07 5.169-7.957 12.182-9.255 19.235-1.853 3.269-1.904 7.35 1.071 10.199a6.948 6.948 0 0 0 3.154 1.723c.208.274.529.474.992.495 12.07.529 23.18 5.859 35.164 6.884.329.028.596-.034.815-.148a8.428 8.428 0 0 0 2.935-.856c4.257-2.107 6.101-6.957 3.88-11.158-.249-2.245-.373-4.501-.498-6.756a100.553 100.553 0 0 0 5.994 6.942c.163 6.029.365 12.003 1.382 17.966a26.526 26.526 0 0 1-7.859.694zm11.679-1.944c-.283-4.608-.414-9.23-.389-13.849.051-.002.097.005.15 0l.061-.008c.361.27.843.406 1.416.297 1.642-.312 3.304-.654 4.901-1.175.097 3.465.447 7.143 1.261 10.062a26.416 26.416 0 0 1-7.4 4.673zm16.193-6.434c-2.407 2.93-4.037-3.543-4.575-5.286-1.031-3.338-2.016-7.552-1.748-11.199 4.044-2.837 6.53-.444 7.893 3.858 1.311 4.135 1.28 9.157-1.57 12.627zm20.96-11.107c-.111 1.056-.44 3.777-.998 5-.409-.422-.751-.905-1.077-1.391-1.097-1.636-1.958-3.462-2.716-5.275-1.297-3.104-2.709-6.427-3.23-9.813 3.506-.685 6.805-.786 7.929 3.572.652 2.531.36 5.345.092 7.907zm3.672-11.976c-2.804-5.366-9.756-5.981-15.244-3.969-.838.307-1.357.865-1.607 1.5-.476.189-.851.621-.885 1.307-.06 1.204.227 3.552.805 6.354-.943.408-1.901.766-2.871 1.096-2.523-5.33-7.35-8.308-13.84-3.797-1.179.819-1.295 2.147-.84 3.184-.32 1.443-.434 2.963-.434 4.432-1.524.454-3.058.871-4.591 1.292.801-2.871.948-5.822 1.118-8.818 7.372-7.526 17.858-8.934 27.575-11.743 11.057-3.196 21.453-8.128 32.826-10.175.739 3.876.86 8.035-.914 11.602a8.828 8.828 0 0 0-.934-1.361c-3.437-4-9.812-2.004-14.441-1.269a1.918 1.918 0 0 0-1.203.191c-1.807.364-2.447 1.922-2.124 3.229-.257 1.783-.172 3.726.2 5.702-.895.365-1.769.775-2.596 1.243zm9.393-2.187c-.257-1.227-.537-2.446-.891-3.638 2.569-.695 5.395-1.447 7.63-.799 3.151.914 2.243 10.137 2.056 12.519-.102 1.306-.276 3.029-1.077 3.806a1.666 1.666 0 0 0-1.286.387 2.971 2.971 0 0 1-.806-.239c-2.028-.903-2.881-3.266-3.679-5.179a48.294 48.294 0 0 1-1.192-3.232c-.055-.248-.108-.497-.161-.746.402-.91.142-2.133-.594-2.879zm113.709 22.224a20.618 20.618 0 0 1-4.499 2.105c-3.789 1.253-7.777 1.819-11.603 2.951-5.869 1.736-11.481 5.019-17.127 7.382-12.222 5.116-24.853 7.218-38.045 7.729-10.95.424-25.524 1.951-34.595-5.347-7.666-6.168-11.514-16.473-15.013-25.331a2.735 2.735 0 0 0-.731-1.049c.043-1.585-.03-3.17-.302-4.726a63.35 63.35 0 0 1 2.602-.836 25.892 25.892 0 0 0 3.55 6.398c2.036 5.551 4.971 9.916 9.217 7.787 1.413 4.4 3.688 8.441 6.891 11.931.424.462.896.656 1.353.67 3.6 3.16 8.864 3.936 13.244 1.758a10.56 10.56 0 0 0 1.575-.977c10.638-.957 21.289-2.117 31.85-3.638 11.789-1.698 23.928-4.337 34.486-10.065a13.506 13.506 0 0 0 4.931-1.478c4.109-2.176 6.014-5.993 6.002-9.936.346-.352.54-.857.456-1.516-.879-6.944-7.578-11.309-12.794-15.134-9.021-6.616-18.008-13.835-26.04-21.626-7.761-7.527-15.079-15.007-24.209-20.902-6.961-4.494-15.125-9.714-23.762-9.053-.19.015-.357.063-.51.126-4.005-.054-6.628 2.342-7.956 5.709-4.495 5.376-9.496 11.385-10.897 18.036-1.805-.847-3.691-1.472-5.622-1.965.046-.09.094-.178.13-.28 2.844-7.997 5.985-16.227 10.507-23.493 7.478-5.101 15.585-6.25 24.405-6.146 7.086 3.193 13.906 7.722 20.262 11.038 11.803 6.157 21.654 13.488 31.223 22.723 9.631 9.295 18.63 19.323 26.669 30.027 2.976 3.963 6.188 8.065 8.197 12.651-.338 5.086-1.912 9.774-3.845 14.477zm-16.262-22.184a13.189 13.189 0 0 1 2.646 1.907c3.607 3.334 3.134 8.224-.573 10.937-.573-4.289-1.01-8.661-2.073-12.844zm66.287-19.192a2.272 2.272 0 0 0-.992.677 161.357 161.357 0 0 0-5.039 6.184c-2.557 2.242-5.4 4.3-8.078 6.309a297.853 297.853 0 0 0-5.065 3.9c-1.642.831-3.282 1.677-4.885 2.628-2.439 1.447-4.759 3.043-7.087 4.621-2.49 1.423-4.954 2.867-7.242 4.565-.363.201-.734.392-1.104.584a18.37 18.37 0 0 0-1.354-4.44c-1.098-2.444-2.4-4.837-3.842-7.185 7.325-6.002 15.275-11.161 22.974-16.658 7.641-5.456 14.556-11.836 22.277-17.178.358.976.697 1.959.995 2.957 1.541 5.144.642 9.375-1.558 13.036zM93.067 65.34c-.598-2.106-1.112-4.54-.904-6.737.265-2.797 3.922-2.707 4.28 0 .248 1.874.737 3.649 1.135 5.494.633 2.934-3.683 4.16-4.511 1.243zm13.653.422c-1.079.632-2.67.298-3.268-.857-1.17-2.26-1.924-4.772-2.076-7.321-.121-2.022 3.04-2.963 3.914-1.06.891 1.94 1.413 4.021 2.288 5.97.533 1.188.354 2.558-.858 3.268zm10.071-1.509c-1.131.311-2.35-.373-2.657-1.509-.642-2.374-1.263-4.802-1.76-7.211-.423-2.047 2.288-3.314 3.42-1.442 1.361 2.251 2.149 4.915 2.505 7.505.161 1.166-.262 2.314-1.508 2.657zm10.301.394c-1.242.342-2.93-.411-3.159-1.794-.435-2.628-.909-5.232-2.22-7.581-1.566-2.805 2.661-5.273 4.297-2.512 1.607 2.712 2.346 5.649 2.876 8.727.236 1.379-.347 2.761-1.794 3.16zm36.103 23.154c-3.785 1.506-7.993-2.153-7.583-6.004.19-1.786 1.06-3.493 2.775-4.249 1.923-.848 3.801-.371 5.617.525 1.527.754.431 3.028-1.12 2.656-.531-.127-1.11-.238-1.581-.111-.067.018-.552.188-.523.149-.172.116-.502.375-.235.118-.083.08-.128.118-.156.14a.662.662 0 0 1-.03.059c-.041.072-.156.335-.195.401a3.644 3.644 0 0 0-.068.248c-.006.119-.022.323-.017.393l.002.067.039.148c.022.09.13.355.152.432.041.076.086.151.132.224.038.036.099.099.161.163.007-.042.335.141.255.147.236.056.542.125.151.094.812.065.836-.061 1.619-.057 2.723.015 2.881 3.552.605 4.457zm33.371.698c-7.516.604-15.478-.79-22.933-1.727-3.207-.403-3.271-4.7 0-5.036 7.483-.77 15.463-.119 22.933.652 3.901.401 3.966 5.792 0 6.111zm-38.489-39.975c.079.72-.189 1.898-.633 2.494-.748 1.003-1.58 1.566-2.845 1.661-1.378.104-2.793-.863-3.503-1.991-.789-1.254-.871-3.069.235-4.172.868-.866 1.999-.965 3.012-.597.549-.191 1.148-.234 1.686-.086 1.296.357 1.91 1.437 2.048 2.691zm10.218 2.585c-.421 1.186-1.412 2.123-2.69 2.307-1.279.184-2.898.009-3.517-1.346-.513-1.122-.283-2.169.352-3.068.008-.032.007-.063.016-.096.373-1.357 1.843-2.216 3.208-1.821 1.598.462 3.275 2.212 2.631 4.024zM165.48 62.45c-2.307.067-4.777-.808-7.032-1.276a232.997 232.997 0 0 0-6.92-1.321c-2.057-.363-1.761-3.32 0-3.858 2.495-.763 5.107-.637 7.661-.299 2.511.332 5.35.671 7.632 1.802 2.482 1.229 1.152 4.879-1.341 4.952zm118.143-11.296c-10.247-1.244-10.646 17.208.148 17.916 5.435.357 10.223-3.381 9.967-9.042-.238-5.296-4.96-9.368-10.115-8.874zm.148 12.644c-2.209-.12-3.091-2.683-3.126-4.508-.025-1.349.393-2.521 1.159-3.403.416.35.939.586 1.567.608 2.326.08 4.64.837 4.97 3.534.347 2.84-2.091 3.903-4.57 3.769zm-39.64 5.782c-4.651-.031-9.16.931-13.706 1.821-5.049.989-10.146 1.393-15.234 2.116a1.751 1.751 0 0 0-.775.301c-.569.237-.965.798-.758 1.581-.014.462.097.932.314 1.334.967 5.031 1.351 16.311 6.774 16.777 3.003.258 6.025-3.451 8.06-5.217 5.663-4.913 11.868-9.638 16.693-15.413 1.045-1.252.427-3.288-1.368-3.3zm-21.702 19.871c-1.935 1.479-3.951-6.987-5.145-11.833 3.556-.282 7.097-.396 10.639-.965 3.835-.616 7.561-1.627 11.35-2.399-5.041 5.578-11.038 10.76-16.844 15.197zm39.494-16.792c-8.373 7.428-16.572 15.36-25.972 21.498-1.781 1.163-3.349-1.628-1.648-2.819 9.135-6.398 15.777-15.811 25.075-21.978 1.987-1.317 4.328 1.717 2.545 3.299zm21.018 24.15c-1.691-.15-3.3-1.288-3.841-2.937-1.182-3.603.864-7.238 4.871-7.149.279.006.515.085.716.206 3.102.695 6.013 4.106 3.677 7.195-1.214 1.605-3.356 2.868-5.423 2.685zm-21.247-69.063c.172-.564.017-1.22-.241-1.72-.71-1.38-2.535-1.528-3.636-.571l-.034.03c-.348.303-.571.747-.672 1.215-.178.327-.32.677-.381 1.049-.236 1.435.514 2.461 1.96 2.656 1.318.178 2.36-.678 2.842-1.825.111-.261.141-.549.162-.834zm10.692 5.788h-.003.003zm2.112-2.511c-.127-.919-.989-1.544-1.794-1.821a1.821 1.821 0 0 0-1.545.165c-.853-.023-1.652.46-1.909 1.341-.301 1.031.314 2.008 1.288 2.349.279.098.558.194.841.281.139.043.28.08.423.108l.581.088.122.013c.502.042 1.059-.215 1.42-.556.575-.544.676-1.224.573-1.968zm-2.116 2.511c-.327-.039-.822-.122 0 0zm31.461 50.54c.151-.481.232-.962.117-1.463-.024-.103-.057-.203-.082-.306-.037-.166-.096-.324-.155-.483l-.016-.088a1.98 1.98 0 0 0-.777-1.234 1.704 1.704 0 0 0-1.108-.558c-.861-.088-1.545.426-1.844 1.162l-.034.048c-.353.398-.651.812-.701 1.379-.124 1.409.955 2.184 2.108 2.678.933.402 2.186-.162 2.492-1.135zm-2.254 9.113c-.429-.568-1.05-.872-1.748-.94-.39-.159-.799-.249-1.213-.14-1.216.32-1.96 1.242-1.829 2.527.144 1.407 2.143 2.543 3.399 2.278 1.745-.369 2.466-2.303 1.391-3.725zm-24.833 76.575c-1.184-.252-2.599-.74-3.422-1.659-.597-.667-.996-1.613-.817-2.497-.086-.6.084-1.253.596-1.827 1.33-1.493 4.734-1.788 5.767.245.336.66.449 1.332.45 2.068 0 .232 0 .466.016.698.024.1.05.199.082.298.541 1.668-1.14 3-2.672 2.674zm22.448-19.637c-.365 1.38-1.488 2.737-2.774 3.356-1.445.696-3.457.571-4.278-1.029-.058-.113-.1-.232-.145-.35-.817-.876-.9-1.996-.555-3.151.161-.537.375-1.088.701-1.549.799-1.13 1.906-1.838 3.304-1.933.995-.067 2.208.362 2.867 1.137.844.993 1.221 2.227.88 3.519z"/></svg>