<svg xmlns="http://www.w3.org/2000/svg" viewBox="0 0 160 160"><title>_abstractions-icon</title><path d="M87.952 145.438a.391.391 0 0 0-.34-.315c-2.14-.37-4.892-1.185-5.814 1.321-.758 2.06-1.316 5.064.825 6.537 1.3.895 4.466 1.145 5.458-.314 1.332-1.962 1.861-5.112.7-7.224a.48.48 0 0 0-.83-.005zm-.175 5.447a3.053 3.053 0 0 1-3.98 1.573c-2.037-.708-1.833-3.064-1.37-4.72.7-2.508 2.908-2.006 4.92-1.658a.507.507 0 0 0 .54-.259.485.485 0 0 0 .037.123 5.557 5.557 0 0 1-.147 4.94zM24.724 48.376c.31.075.624.133.935.202a6.817 6.817 0 0 0-.25-1.194c-.192-.612.766-.872.956-.264a7.315 7.315 0 0 1 .314 1.678 46.151 46.151 0 0 0 17.327.185A49.37 49.37 0 0 0 58.388 43.7a38.687 38.687 0 0 1-.709-2.63c-.142-.622.815-.886.957-.263.187.815.407 1.618.645 2.416q1.174-.644 2.339-1.326a.496.496 0 0 1 .5.857c-.844.496-1.692.972-2.543 1.436.324.991.685 1.97 1.09 2.936.247.59-.714.844-.957.264a38.653 38.653 0 0 1-1.018-2.73 49.356 49.356 0 0 1-15.267 5.425 47.615 47.615 0 0 1-16.748-.273c-.016.25-.038.5-.077.753-.099.63-1.055.36-.957-.264a6.159 6.159 0 0 0 .066-.699c-.416-.09-.834-.17-1.248-.27-.622-.15-.357-1.107.263-.957zm117.6 2.839a.538.538 0 0 0-.75-.443c-2.846 1.298-.85 6.7 2.091 5.635 2.469-.894.93-4.945-1.341-5.192zm.669 4.318c-1.484.065-2.245-2.195-1.516-3.365a.457.457 0 0 0 .369.048c1.77-.475 2.937 3.239 1.147 3.317zm-16.776 81.97c-4.222 2.999-8.711 5.79-13.734 7.216-5.418 1.537-10.98.732-16.503.32-.634-.047-.637-1.04 0-.992 5.421.404 10.918 1.225 16.24-.285 4.94-1.402 9.344-4.167 13.496-7.115.522-.37 1.017.49.5.857zm12.014-37.073c1.212-2.883 1.674-6.083-1.045-8.388a5.738 5.738 0 0 0-7.312.008c-.514-1.349-.425-2.585-1.138-4.242-.672-1.565-1.86-2.532-3.63-2.026-.062.018-.114.046-.174.067a4.618 4.618 0 0 0-.062-1.547 1.739 1.739 0 0 0-.932-.92c-.849-.425-2.071-.535-2.556.438a2.117 2.117 0 0 0 .43 2.668 2.732 2.732 0 0 0 1.404.67c-1.241 1.875-.886 5.017-.992 6.96-.58 10.688-5.223 34.076-20.558 29.028a.832.832 0 0 0-.88.187c-2.343-1.556-4.744-1.514-7.722-1.467a14.888 14.888 0 0 1-9.374-2.79 17.097 17.097 0 0 0-4.55-2.073c-5.532-1.654-7.074-5.474-7.79-10.216a4.787 4.787 0 0 1 4.982.78 45.149 45.149 0 0 0-1.66 3.687.414.414 0 0 0 .33.579c-.087.193-.175.385-.258.58l-.017.032.002.001-.052.118c-.22.523.637.863.907.382.281-.501.53-1.014.79-1.522a.505.505 0 0 0 .333-.228q.817-1.206 1.685-2.37c-.462 1.146-1.08 2.287-1.513 3.307a.496.496 0 0 0 .857.501c.498-.731 1.007-1.453 1.52-2.174q-.294.658-.602 1.312a.493.493 0 0 0 .778.586c-.162.354-.31.712-.482 1.063a.496.496 0 0 0 .857.5l2.258-3.198c-.382.774-.794 1.53-1.125 2.236a.496.496 0 0 0 .857.5q.717-1.007 1.456-1.991c-.182.45-.36.9-.558 1.348-.206.467.387 1.073.78.601l1.691-2.036c-.417 1.164-1.053 2.331-1.494 3.359a.497.497 0 0 0 .857.5 121.8 121.8 0 0 1 2.726-3.806.518.518 0 0 0 .287-.176c-.463 1.158-1.134 2.44-1.282 2.778a.497.497 0 0 0 .857.5q.579-.85 1.182-1.67c-.231.504-.457 1.009-.72 1.502-.256.48.385 1.033.779.601l.474-.52a30.94 30.94 0 0 1-1.393 3.49c-.222.469.4 1.073.779.601.027-.033.049-.069.075-.102l.003.002.005-.013c.679-.859 1.277-1.775 1.886-2.68-.257.566-.51 1.134-.785 1.695a.496.496 0 0 0 .856.5q.388-.595.782-1.18c-.062.12-.115.242-.178.36a.496.496 0 0 0 .857.501l.806-1.048a33.667 33.667 0 0 1-.66 1.548c-.214.467.399 1.078.779.602q.72-.906 1.441-1.81l-.4 1.095c-.203.554.609.826.906.382q.824-1.23 1.701-2.417c-.423.858-.924 1.702-1.207 2.334a.496.496 0 0 0 .856.5c.419-.603.848-1.197 1.28-1.788l-.205.597c-.199.578.594.792.907.382l1.483-1.943a21.886 21.886 0 0 1-1.132 3.308c-.145.447.52.881.83.482l1.063-1.373c-.012.063-.018.126-.031.19a.499.499 0 0 0 .907.381c.195-.27.393-.538.588-.808-.024.063-.043.127-.07.19-.158.454.359.72.71.547-.046.143-.09.283-.144.433-.196.544.62.845.907.382l.28-.45a.535.535 0 0 0 .08-.04c-.19.726-.366 1.457-.514 2.198-.124.624.832.89.957.264 1.445-7.258 5.05-13.685 8.323-20.238 2.399-4.803 4.043-9.858 5.935-14.833a.459.459 0 0 0 .28-.31c.117-.406.219-.81.316-1.216a82.907 82.907 0 0 1 1.686-4.012c4.905-10.749 9.875-21.457 14.694-32.24l.007.005a1.658 1.658 0 0 1 .233-.517 1.65 1.65 0 0 1 .269-.621l.455-1.037a1.676 1.676 0 0 1 .318-.83 1.58 1.58 0 0 1 .29-.558 878.817 878.817 0 0 0 3.745-8.537c.25-.58-.605-1.086-.857-.5a774.068 774.068 0 0 1-4.256 9.664c.058-.398.11-.796.147-1.205a.5.5 0 0 0-.59-.484l.011-.088a.537.537 0 0 0 .759-.114 40.06 40.06 0 0 0 3.431-6.722c.236-.593-.723-.85-.957-.264-.075.19-.16.373-.239.56a.52.52 0 0 0-.764.11l-1.341 2.289c.094-.442.184-.884.307-1.325.147-.528-.655-.9-.907-.383a165.699 165.699 0 0 1-2.462 4.823.359.359 0 0 0-.129-.177c.498-1.682 1.27-3.362 1.837-4.807a.392.392 0 0 0-.071-.406c.1-.224.186-.453.29-.676.265-.573-.58-1.079-.857-.5l-1.794 3.738c.113-.49.215-.983.35-1.472a.496.496 0 0 0-.732-.547l.302-1.402a.498.498 0 0 0-.907-.382l-.514.915.014-.047c.163-.526-.668-.9-.907-.382l-.191.415q.255-.766.56-1.53c.208-.52-.66-.885-.907-.382l-1.672 3.406c.244-.77.528-1.525.745-2.216a.498.498 0 0 0-.907-.383l-1.379 2.56a3.391 3.391 0 0 0-.049-.825c.113-.42.227-.835.32-1.232a.498.498 0 0 0-.907-.383l-.344.627c.074-.312.136-.624.22-.937a.498.498 0 0 0-.907-.382l-.31.544c.17-.698.346-1.394.558-2.088.162-.527-.66-.896-.906-.382q-.686 1.435-1.41 2.847a19.932 19.932 0 0 1 .676-2.154c.2-.527-.647-.876-.907-.382-.068.129-.143.253-.212.382.04-.125.07-.25.111-.375a.498.498 0 0 0-.907-.383l-.75 1.426.009-.036a.5.5 0 0 0-.67-.583c.076-.307.16-.616.253-.933.155-.525-.668-.902-.907-.382l-.073.16a.484.484 0 0 0-.754-.205c.054-.182.09-.363.151-.548a.498.498 0 0 0-.907-.382l-.404.75c.038-.267.07-.533.114-.8a.499.499 0 0 0-.907-.382c-.17.29-.357.566-.532.852.041-.286.074-.571.132-.858a.498.498 0 0 0-.907-.383l-.723 1.273c-.048-.44-.667-.746-.904-.247l-.328.691a.484.484 0 0 0-.075-.12 6.882 6.882 0 0 1 .446-1.15c.255-.578-.6-1.084-.857-.5a10.55 10.55 0 0 0-.772 2.463.511.511 0 0 0 .105.404 8.59 8.59 0 0 0-.086.828l-1.9 3.13.872-2.74a.46.46 0 0 0-.26-.56c.641-1.167 1.28-2.335 1.95-3.487a.496.496 0 0 0-.857-.501 156.822 156.822 0 0 0-4.175 7.708.483.483 0 0 0-.304-.137c-2.868-.212-5.794-.364-8.47.878-2 .929-3.638 2.395-5.512 3.472-3.722-5.563-17.197-5.438-21.476-2.156-2.672 2.049-2.863 5.62-2.417 8.676 1.17 8.004 1.905 14.233-3.49 20.865a.798.798 0 0 0-.829.708c-.409 2.3-.785 4.608-1.228 6.901a23.431 23.431 0 0 1-.599 2.921 6.594 6.594 0 0 1-1.421.792c.024-6.308 2.241-11.785 5.87-17.082a8.37 8.37 0 0 0 1.696-5.187c.504-.145.48-.968-.091-.959-.034-.22-.065-.44-.116-.67-.912-4.058-2.501-7.453-2.476-11.742a.448.448 0 0 0 .078-.204c.96-7.117 7.197-11.433 13.656-13.29 7.072-2.036 14.712-2.436 21.987-3.38a.51.51 0 0 0 .325-.178q3.809.084 7.582.548c.207.072.418.13.624.204a.402.402 0 0 0 .426-.073 69.55 69.55 0 0 1 8.235 1.633c5.074 1.334 10.007 3.76 15.3 4.091 3.556.223 7.472-.754 9.979-3.427 2.702-2.88 2.761-6.907 1.492-10.464-3.039-8.51-8.872-12.315-15.913-13.712a.431.431 0 0 0-.371-.163c-.122.005-.242.018-.363.024a46.863 46.863 0 0 0-10.549-.436.47.47 0 0 0-.406-.084l-.626.144c-9.405.657-19.303 2.975-27.014 3.084-12.458.175-24.24-5.143-36.713-4.792a.464.464 0 0 0-.255.086 18.728 18.728 0 0 0-2.76.005c-.133-.013-.266-.035-.399-.045-6.253-.49-13.188 1.308-19.15 3.032-5.203 1.504-10.046 3.965-13.483 8.21-.219.12-.442.23-.66.35a.428.428 0 0 0-.237.389c-2.92 3.522-3.794 7.927-3.678 12.365a.471.471 0 0 0-.073.397c.03.126.073.246.105.371.062 1.22.19 2.438.368 3.636.98 6.595 3.427 13.402 9.501 16.812.01.012.017.028.026.041a.47.47 0 0 0-.15.23q-2.893 9.335-5.386 18.785a.456.456 0 0 0 .241.543c.004.982 1.041 2.185 1.412 2.905l3.983 7.74c-.764 4.851.579 10.316 2.946 15.06a21.695 21.695 0 0 0-3.136 1.971c-4.222 3.235-5.601 7.87-5.572 13.035.03 5.236.811 10.738 4.55 14.68-2.183 5.951.523 12.768 5.551 16.734 4.075 3.214 9.036 5.152 13.212 8.285 1.784 1.339 3.228 1.85 4.582.011a.963.963 0 0 0 .378-1.326c-1.976-3.597-6.542-4.518-9.906-6.45a25.234 25.234 0 0 1-7.73-6.17 10.802 10.802 0 0 1-2.605-6.693c.198-5.077 5.183-8.642 9.66-4.987 3.583 2.926 5.556 8.615 8.423 12.249a60.596 60.596 0 0 0 11.547 11.186c5.139 3.8 15.344 9.66 19.201 1.653a17.359 17.359 0 0 1 2.02-3.943c.869-1.047 2.44-1.519 3.186-2.493.4-.524.785-.7.944-1.36.785-3.263-7.64-6.454-9.434-7.527a.899.899 0 0 0-.628-.119c-3.043-2.3-6.986-3.038-9.778-5.787-3.402-3.349-5.324-7.27-9.304-10.195-4.719-3.467-9.74-6.051-13.127-11.032a108.514 108.514 0 0 1-2.162-3.347 41.106 41.106 0 0 0-1.106-2.315c1.37-1.481 3.242-2.681 3.264-4.825a3.055 3.055 0 0 0-2.219-2.906 9.427 9.427 0 0 0-5.271-.057 33.404 33.404 0 0 1-2.003-4.676c-1.508-4.581-1.568-10.82 3.14-13.741a7.275 7.275 0 0 1 5.091-.828 6.695 6.695 0 0 0-1.392 4.98 2.118 2.118 0 0 0-1.237.456c-1.887 1.564.367 4.28 1.149 5.877 2.519 5.15 4.798 10.534 7.752 15.453 2.806 4.674 6.749 7.33 10.853 10.748a56.557 56.557 0 0 1 9.405 10.588c2.715 5.544 8.109 7.745 13.438 10.396 3.085 1.534 4.571 4.196 7.271 5.94 1.986 1.283 4.656 1.04 6.874.948 3.017-.125 4.314.733 7.155.725 8.82-.025 18.48-1.118 26.125-6.5.973-.685 4.791-3.916 5.102-4.205a65.52 65.52 0 0 0 9.182-10.97c2.242-3.249 5.519-6.996 4.87-11.24-.492-3.23-3.065-5.922-5.412-8.178zm-1.33-7.301c1.875 1.926 1.475 4.36.572 6.577l-.283-.27c-1.802-1.723-3.893-3.162-5.643-4.924a8.018 8.018 0 0 1-1.223-1.54 4.758 4.758 0 0 1 6.577.157zm-14.635-7.583c-.241-.33-.3-1.166.092-1.436.295-.203 1.073.046 1.325.267.358.312.291.96.258 1.479a.47.47 0 0 0-.139.109c-.43.508-1.22.013-1.536-.419zM81.24 108.16c.101-.29.205-.578.296-.874.178-.579-.59-.802-.907-.383-.335.444-.659.896-.988 1.344a7.988 7.988 0 0 0 .356-1.672.5.5 0 0 0-.847-.351c-.237.296-.46.6-.691.899a.5.5 0 0 0-.623-.33q.483-.928.977-1.85a.545.545 0 0 0 .65.203l-.058.142c-.217.542.617.834.907.383l.942-1.468a.539.539 0 0 0 .738-.081c-.095.454.536.66.854.36l-1.323 3.203a.382.382 0 0 0 .045.396.403.403 0 0 0-.328.08zm.414 1.431c.111-.297.236-.587.343-.887a.43.43 0 0 0-.095-.43.503.503 0 0 0 .528-.207l.597-.934a.38.38 0 0 0 .106.363l-1.48 2.095zm3.355-7.399l-.426.666.885-2.14c.225-.546-.587-.803-.895-.395l.43-1.062c.217-.537-.621-.841-.907-.382l-.9 1.445a.536.536 0 0 0-.72.137l-.177.275.647-1.608a.433.433 0 0 0-.314-.579.545.545 0 0 0 .194-.173l1.012-1.462a.433.433 0 0 0 .562-.21c.311-.677.645-1.341.974-2.008l.005-.007-.751 1.733a.49.49 0 0 0 .76.596l-.427 1.097c-.193.496.51.8.834.464a.532.532 0 0 0 .92.112l.599-.86c-.254.526-.5 1.055-.76 1.579a.496.496 0 0 0 .857.5l.37-.546-.378.858a.526.526 0 0 0-.053.058l-1.42 2.221c.114-.49-.646-.74-.921-.309zm-1.986-6.54a814.645 814.645 0 0 1 1.677-4.586l-.234 1.54-1.443 3.045zm6.463-13.357q1.169-2.373 2.442-4.688c-.228.769-.504 1.527-.694 2.213l-1.103 3.982a.448.448 0 0 0-.358.219l-.345.59.72-1.736c.17-.41-.313-.701-.662-.58zm4.942-11.926c-.08.19-.148.369-.227.557a.402.402 0 0 0-.554.212l-.18.378a.547.547 0 0 0-.489.108l.995-2.219c-.02.117-.045.231-.063.35a.543.543 0 0 0 .518.614zm-1.286 6.419c.006-.006.014-.008.02-.014a.487.487 0 0 0 .668-.166c.167-.295.323-.596.487-.893a.507.507 0 0 0 .831-.033l.288-.518a.442.442 0 0 0 .565-.21l.113-.213a.534.534 0 0 0 .648.133l-.693 2.052c-.184.543.621.853.906.382l.484-.8a.513.513 0 0 0 .61.224c-.16.447-.334.888-.488 1.338a.498.498 0 0 0 .907.382l.575-1.028c-.027.104-.06.206-.087.312a.498.498 0 0 0 .907.382l.179-.293-.254.7c-.2.552.612.832.907.383l.68-1.036q-.166.636-.304 1.286a.498.498 0 0 0 .906.382l.806-1.325a2.087 2.087 0 0 0 .14.746.543.543 0 0 0 .622.329 8.764 8.764 0 0 0-.308 1.692.416.416 0 0 0 .205.403l-1.502 2.168.982-2.196a.496.496 0 0 0-.857-.5l-1.084 1.55.347-.789c.206-.467-.383-1.07-.78-.6-.305.362-.597.734-.884 1.108.166-.483.322-.97.454-1.47a.498.498 0 0 0-.906-.382l-1.174 1.74.615-1.534c.22-.547-.612-.823-.907-.382l-.903 1.351c.202-.538.394-1.081.57-1.632.18-.562-.602-.825-.907-.382-.182.266-.347.542-.526.81a34.7 34.7 0 0 0 .548-1.756.498.498 0 0 0-.907-.382l-.485.845c.057-.167.12-.332.176-.499a.436.436 0 0 0-.208-.528c.02-.058.043-.115.063-.173.188-.543-.621-.85-.907-.382-.105.173-.197.35-.298.523a.487.487 0 0 0-.879-.077l-.68 1.424.022-.076c.216-.781.51-1.574.697-2.376zm6.554-15.846a9.748 9.748 0 0 0-.176 2.119.476.476 0 0 0 .678.434q-.401.736-.784 1.479a4.095 4.095 0 0 0 .017-1.255c-.069-.454-.698-.439-.907-.118q-.703 1.076-1.353 2.18a16.602 16.602 0 0 0 .586-2.807c.047-.433-.4-.548-.714-.408l.306-.683a.545.545 0 0 0 .901-.152l.685-1.678c-.017.17-.048.335-.062.505a.509.509 0 0 0 .823.384zm.6-5.625l1.701-3.79a.508.508 0 0 0 .405-.315c.17-.416.352-.826.526-1.24-.075.383-.168.76-.23 1.148-.083.509.637.93.906.382l.548-1.114c-.077.392-.137.788-.186 1.186-.425.594-.856 1.183-1.266 1.786q.16-.653.282-1.328c.113-.624-.843-.892-.957-.263a21.803 21.803 0 0 1-1.457 4.867.534.534 0 0 0-.02.39l-.261.533c.103-.552.204-1.104.339-1.655a.455.455 0 0 0-.33-.587zm4.085 10.106a15.89 15.89 0 0 0-.144.872l-.008.03h.003c-.005.045-.015.086-.02.132-.05.408.432.576.74.424a.376.376 0 0 0 .168.246 47.594 47.594 0 0 0-.869 1.847l.24-1.373c.09-.519-.624-.914-.907-.383q-.41.769-.782 1.553c.04-.352.07-.705.076-1.058a.498.498 0 0 0-.783-.397l.343-1.251a.537.537 0 0 0 .616-.33 44.09 44.09 0 0 1 1.117-2.73 12.327 12.327 0 0 0-.15 1.954.489.489 0 0 0 .36.464zm.336-19.526c.116-.254.227-.511.345-.765a.554.554 0 0 0 .428.295l-.84 1.708c.074-.248.13-.499.21-.747a.433.433 0 0 0-.143-.49zm.79 6.06a.391.391 0 0 0 .291-.01 5.733 5.733 0 0 0-.1 2.123.5.5 0 0 0 .908.119c.427-.944.883-1.871 1.346-2.795-.111.48-.234.957-.334 1.441-.108.522.637.91.907.383l.376-.737a52.04 52.04 0 0 0-.736 3.594c-.1.153-.199.307-.294.462a.502.502 0 0 0-.744-.545l.036-.118a5.24 5.24 0 0 1-1.623-.903c.182-.547-.614-.824-.908-.375-.11.169-.203.343-.308.513l-.036-.008 1.22-3.145zm7.834-3.454c-.048.247-.11.491-.156.739a.499.499 0 0 0 .906.382l.589-.84-.109.434-1.833 3.54c.163-.668.325-1.338.499-2.005.166-.637-.718-.835-.957-.264l-.683 1.636c.134-.666.282-1.33.454-1.994a.438.438 0 0 0 .476-.237l.814-1.39zm-.353-1.36l.24-1.538a.534.534 0 0 0 .622.066l-.862 1.472zm3.76 10.768q-.187.976-.3 1.972c-.185.259-.368.518-.54.781.041-.235.094-.466.131-.703a.519.519 0 0 0-.195-.513.42.42 0 0 0 .195-.18l.708-1.357zm-.3-1.57c.192-.618.416-1.23.604-1.775l.665-1.141c-.068.287-.13.576-.198.863zm-.486-2.148l-.493.93.308-1.552.257-.434a5.539 5.539 0 0 0-.072 1.056zm.075 8.169c-.134.524-.28 1.048-.437 1.577a.498.498 0 0 0 .831.473l-.697 1.423c.064-.25.115-.505.18-.755a.498.498 0 0 0-.906-.383l-1.222 2.152.598-2.544a.45.45 0 0 0 .716-.128 22.82 22.82 0 0 1 .937-1.815zm-.49 8.354a8.08 8.08 0 0 0-.494.908.448.448 0 0 0-.332.238c-.133.231-.249.469-.377.702.04-.254.095-.503.128-.76.067-.515-.691-.636-.924-.25-.144.238-.272.482-.41.722.002-.017.006-.033.009-.05a.553.553 0 0 0-.27-.554 15.76 15.76 0 0 0 .363-1.852l.9-1.583c-.132.567-.284 1.13-.407 1.7-.113.52.646.913.906.382l1.034-2.11a13.744 13.744 0 0 0-.266 2.18.437.437 0 0 0 .14.327zm-2.802 6.108a.384.384 0 0 0-.193.197c-.319.737-.655 1.463-.99 2.191a29.56 29.56 0 0 1 .534-1.611.498.498 0 0 0-.907-.383l-2.21 4.579a36.945 36.945 0 0 1 1.277-3.576c.185-.523-.687-.902-.907-.382-.406.96-.845 1.894-1.318 2.81a41.924 41.924 0 0 1 1.618-4.504c.216-.53-.63-.853-.907-.382-.417.705-.819 1.442-1.238 2.168q.226-.52.493-1.035a.517.517 0 0 0-.19-.656c.206-.547.411-1.094.628-1.633a.528.528 0 0 0 .959-.04c.236-.65.507-1.276.793-1.89-.211.71-.421 1.42-.645 2.128-.166.525.678.903.907.382.33-.754.67-1.493 1.028-2.22-.192.577-.398 1.15-.612 1.72-.33.785-.629 1.584-.891 2.408-.196.612.748.861.956.263.16-.456.328-.914.498-1.372a.486.486 0 0 0 .866.038c.19-.412.4-.811.603-1.214-.121.492-.235.984-.383 1.478a.47.47 0 0 0 .231.536zm-2.24 14.424q-.514.872-1.033 1.74a.512.512 0 0 0-.892-.078l-1.809 2.82q.51-1.117 1.067-2.224a.552.552 0 0 0 .06-.236c.173-.347.345-.695.523-1.04a.47.47 0 0 0 .865.09c.393-.72.815-1.418 1.232-2.12a15.75 15.75 0 0 0-.192.395.492.492 0 0 0 .178.653zm-4.616.739l-.65.876.477-1.212c.204-.519-.548-.807-.864-.427.1-.19.187-.384.288-.572a.485.485 0 0 0 .045-.39c.146-.225.298-.444.444-.668-.089.181-.169.366-.26.547a.496.496 0 0 0 .857.5c.221-.38.458-.748.685-1.123a.495.495 0 0 0 .912.265l.379-.518-1.72 4.42-.55.747c.246-.65.518-1.295.814-1.945a.496.496 0 0 0-.857-.5zm-2.398 7.448l.052-.118c.227-.549-.61-.815-.907-.382l-.6.872a13.766 13.766 0 0 0 .628-2.11.497.497 0 0 0-.358-.594l.609-.966c-.066.472.647.643.93.262l.687-.927c-.13.446-.246.899-.334 1.367a.491.491 0 0 0 .85.44q-.26.675-.484 1.366a.562.562 0 0 0-.08.075c-.606.812-1.19 1.64-1.762 2.473.254-.584.521-1.161.766-1.75l.005-.008zm-2.511-.937l-.892 1.357.004-.011c.15-.452-.516-.873-.83-.483-.255.318-.494.646-.742.967l.753-1.841c.228-.557-.605-.802-.907-.383l-.191.266c.204-.45.411-.898.612-1.35a.45.45 0 0 0 .078-.076l.803-1.184a.464.464 0 0 0 .524.475l-.076.151a.496.496 0 0 0 .857.501l.28-.42c-.205.482-.411.964-.608 1.45a.423.423 0 0 0 .335.581zm-4.05-2.484l-.125.185c.106-.25.222-.496.325-.747a.5.5 0 0 0 .44-.227l2.263-3.127-1.63 3.88a.56.56 0 0 0-.047.044c-.138.182-.261.372-.397.555l.029-.062a.497.497 0 0 0-.857-.5zm-2.14-9.678l1.184-1.772L95.397 86c-.22.548.611.82.907.382l1.51-2.239q-.496 1.122-1.042 2.232a.496.496 0 0 0 .857.5q.508-.803 1.028-1.592l-.56 1.273a.496.496 0 0 0 .857.5l.992-1.418-1.037 2.319a.505.505 0 0 0 .179.654l-.906 1.32.018-.042a.496.496 0 0 0-.856-.5l-.844 1.294 1.112-2.578a.497.497 0 0 0-.856-.5l-.994 1.475c.174-.41.341-.821.519-1.23a.497.497 0 0 0-.857-.5l-.626.979.552-1.262a.518.518 0 0 0-.56-.732zm5.564 1.273l2.293-3.31c-.674 1.307-1.494 2.688-1.678 3.072a.502.502 0 0 0 .54.727l-2.205 3.045 1.226-2.883a.517.517 0 0 0-.176-.65zm-4.928 7.73a.492.492 0 0 0 .405-.236l1.892-2.755-.9 2.116a.544.544 0 0 0-.425.203c-.503.666-.99 1.343-1.476 2.02zm5.38-3.017l1.62-3.856c.178-.425-.268-.665-.624-.57.007-.01.017-.013.024-.024.5-.75 1.02-1.482 1.547-2.208-.158.345-.302.694-.472 1.035a.496.496 0 0 0 .856.501l1.009-1.32a18.086 18.086 0 0 1-1.06 2.2c-.322.564.491 1.01.857.5l.34-.475-.402 1.12a.485.485 0 0 0-.799.054l-1.301 2.05a.557.557 0 0 0-.901-.029l-.694 1.022zm4.736-11.313a.488.488 0 0 0 .832.308c.266-.305.505-.63.74-.958a21.755 21.755 0 0 0-.584 2.73.523.523 0 0 0-.864-.012l-.369.484c.11-.304.234-.6.336-.91.149-.452-.514-.871-.829-.482-.214.264-.413.539-.623.806.027-.064.058-.127.084-.192.263-.636.462-.908.145-1.531a.415.415 0 0 0-.146-.153c.252-.4.493-.806.74-1.209a9.16 9.16 0 0 0-.105.673c-.045.384.338.535.643.446zm.4-14.116a34.328 34.328 0 0 1 1.578-2.25l-.74 2.99a.54.54 0 0 0-.099.108c-.287.44-.546.89-.794 1.345a17.162 17.162 0 0 0 .218-1.836.424.424 0 0 0-.164-.357zm3.295-5.426c.284-.586.598-1.148.911-1.711-.167.604-.333 1.207-.52 1.808a.493.493 0 0 0 .754.532c-.664 1.116-1.327 2.244-2.036 3.339l.67-2.71c.112-.454-.489-.875-.829-.483a35.541 35.541 0 0 0-1.922 2.435c.14-.682.308-1.357.507-2.04a.473.473 0 0 0 .012-.13.464.464 0 0 0 .465-.23l1.327-2.292c-.08.366-.152.732-.246 1.1-.133.525.653.904.907.382zm2.644-4.899l1.921-3.71-.79 3.237c-.129.53.635.894.907.382l.433-.813-.455 2.287c-.003-.007-.003-.016-.006-.023-.155-.362-.68-.283-.856 0-.21.334-.404.676-.606 1.013l.005-.025a.499.499 0 0 0-.907-.382l-.051.082c.147-.585.296-1.168.426-1.758a.507.507 0 0 0-.021-.29zm-.41 11.99l1.543-2.758-.971 4.134-.077.122c.089-.326.184-.65.27-.978a.491.491 0 0 0-.765-.52zm1.287-8.235c-.305.921-.722 1.885-.85 2.324a.434.434 0 0 0 .027.31 78.35 78.35 0 0 1-1.1 1.976l.584-2.177q.642-1.235 1.339-2.433zm-1.822 6.37l-.483 1.68a.502.502 0 0 0 .724.559c-.116.171-.225.345-.336.518a.488.488 0 0 0-.886-.116c-.138.215-.253.44-.383.659.072-.273.152-.542.222-.815a.498.498 0 0 0-.907-.382c-.045.074-.085.15-.129.226l.187-.668a.501.501 0 0 0-.728-.56 3.456 3.456 0 0 0-.703.654c.017-.08.037-.157.054-.236.007-.008.015-.01.022-.02a31.081 31.081 0 0 0 2.197-3.184l-.762 2.839a.499.499 0 0 0 .906.382c.352-.504.683-1.018 1.005-1.537zm-4.314 7.835a.521.521 0 0 0 .677-.3c.042-.105.094-.202.136-.305-.088.293-.18.586-.268.88a.446.446 0 0 0-.497.224q-.763 1.428-1.58 2.82c.47-1.144 1.046-2.27 1.532-3.32zm-.343 10.02c.074-.251.142-.507.207-.765a.53.53 0 0 0 .89.035c.148-.24.287-.484.43-.726a4.4 4.4 0 0 0 .11 1.185.442.442 0 0 0 .202.258.515.515 0 0 0-.334.199 97.54 97.54 0 0 0-1.253 1.768l.518-1.442c.177-.493-.414-.741-.77-.512zm-2.672-10.22a.398.398 0 0 0-.222-.327 45.624 45.624 0 0 1 1.12-3.1c-.28 1.154-.603 2.297-.898 3.427zm6.34 13.177l.562-1.446c.22-.563-.602-.799-.907-.382l-.073.1c.12-.312.25-.617.365-.931.204-.56-.605-.816-.907-.383-.093.135-.18.275-.273.41a.381.381 0 0 0-.188-.265.398.398 0 0 0 .297-.212l.98-2.03c-.046.265-.098.528-.137.797-.073.507.628.93.907.382.119-.232.228-.47.344-.703a.55.55 0 0 0 .389.451 16.079 16.079 0 0 0-.558 2.954c-.27.417-.541.835-.802 1.258zm1.681-38.047a.523.523 0 0 0-.514.33 98.299 98.299 0 0 1-1.211 2.76c.24-.99.501-1.974.773-2.958a.465.465 0 0 0 .221-.196l1.013-1.74-.282 1.804zm-.899-4.183c.03-.199.047-.399.08-.597a.499.499 0 0 0-.907-.382l-.097.136c.019-.298.05-.597.078-.895a.485.485 0 0 0 .837.023c.082-.134.178-.257.267-.385.024.294.05.587.098.895a.371.371 0 0 0 .224.285c-.202.303-.389.613-.58.92zm-.482 8.874c-.084.598-.158 1.2-.214 1.806-.05.54.6.59.884.27l-.029.127a.478.478 0 0 0 .022.259c-.355.52-.684 1.052-1.007 1.587.043-.29.098-.578.134-.872.063-.508-.696-.646-.924-.25l-.251.433.514-1.53c.003-.008 0-.014.003-.022.292-.602.584-1.203.868-1.808zm-7.34 16.792l-.361 2.073a.57.57 0 0 0-.445-.113c.265-.655.526-1.313.805-1.96zm-2.25-8.172l.316-.819c-.005.075-.013.147-.017.222a.439.439 0 0 0 .601.449.491.491 0 0 0 .848.385q-.116.608-.2 1.223a.44.44 0 0 0-.34.23 55.86 55.86 0 0 0-1.502 2.916l1.036-4.054a.506.506 0 0 0-.742-.552zm1.1-5.47c.163-.476.322-.938.468-1.384.555-.861 1.104-1.727 1.685-2.57l-1.507 3.887a.517.517 0 0 0-.647.067zm-1.262 12.106l-.672 2.457-.67 1.176a.547.547 0 0 0-.208-.116 153.52 153.52 0 0 1 1.55-3.517zm-2.253.428c.353-.825.713-1.647 1.097-2.458l-.824 3.223a.477.477 0 0 0-.2.06l.106-.316a.436.436 0 0 0-.179-.51zm-.022-3.86c-.279.927-.694 1.87-.93 2.625l-.528 1.69a.486.486 0 0 0-.778.088c-.122.25-.252.494-.376.743a.54.54 0 0 0-.164-.088c.884-1.71 1.787-3.408 2.776-5.059zM91.016 95.03c-.226.313-.443.632-.666.947l.512-1.163a.537.537 0 0 0 .025-.39l.607-1.001-.099.227a.496.496 0 0 0 .857.501l1.049-1.64c-.086.22-.177.437-.261.657-.213.552.61.823.906.383l.677-1.005-.706 1.635a.467.467 0 0 0-.682.002l-1.721 2.221c.135-.331.28-.656.41-.992.215-.563-.603-.802-.908-.382zm1.128-10.657a.519.519 0 0 0 .936.183l.641-1.115q-.38.91-.779 1.815a.574.574 0 0 0-.764.113c-.29.402-.561.814-.844 1.22l.47-1.128c.15-.361-.209-.628-.535-.605l.087-.201a.522.522 0 0 0-.13-.605l.327-.686a.456.456 0 0 0 .365.536.41.41 0 0 0 .226.473zm2.27 2.325L93.199 88.7l.46-1.085a.496.496 0 0 0-.858-.501l-.646.963.853-2.133a.444.444 0 0 0 .747-.085c.215-.396.451-.778.674-1.168q-.296.65-.6 1.297a.498.498 0 0 0 .585.709zm-2.87-11.141a.445.445 0 0 0 .13.465c-.072.128-.142.258-.215.387a.532.532 0 0 0-.57-.132l1.695-3.775a60.75 60.75 0 0 0-1.04 3.055zM90.44 89.708l-.956 2.39a.405.405 0 0 0 .247.554.556.556 0 0 0-.052.053l-1.523 2.186.37-.98c.189-.499-.516-.803-.838-.46a.544.544 0 0 0-.602-.224l.495-1.143a.435.435 0 0 0 .643-.176l.161-.29a.534.534 0 0 0 .859-.014c.386-.641.793-1.266 1.196-1.896zm-2.557-6.401a.515.515 0 0 0-.037.255.474.474 0 0 0-.057.068 60.13 60.13 0 0 0-.765 1.438c.45-1.096.905-2.19 1.393-3.28a.513.513 0 0 0 .072.07c-.203.482-.4.967-.606 1.449zm-1.059 27.06c-.17.227-.343.452-.512.68a6.755 6.755 0 0 0 .265-1.54.516.516 0 0 0-.655-.474l.389-.623a.487.487 0 0 0 .903.26l.507-.692a23.574 23.574 0 0 0-.897 2.389zm4.91 1.788a17.224 17.224 0 0 0-1.874 2.342c.199-.612.386-1.228.55-1.858a.512.512 0 0 0-.661-.596c.242-.6.47-1.206.677-1.83a.429.429 0 0 0-.024-.334l.439-.68c-.031.478.63.631.923.252.407-.529.8-1.066 1.19-1.606a69.127 69.127 0 0 0-1.535 3.56.496.496 0 0 0 .347.61 1.922 1.922 0 0 0 .228.016.442.442 0 0 0-.26.124zm.968.838c-.184.203-.36.412-.536.62.13-.325.272-.646.398-.975a.47.47 0 0 0-.468-.61c.515-.028.694-.352 1.096-.858l.006-.009a11.286 11.286 0 0 0-.496 1.832zm.404-9.135l-1.856 2.877q.429-.946.871-1.887a.496.496 0 0 0-.856-.501l-2.225 3.12c.626-1.331 1.318-2.639 1.946-3.943a.496.496 0 0 0-.857-.501l-1.24 1.691.57-1.345a.497.497 0 0 0-.856-.501l-.12.191.014-.027a.496.496 0 0 0-.857-.501l-.606.885 1.063-2.392a.536.536 0 0 0 .055-.058c.238-.37.487-.73.73-1.097-.107.447.47.93.808.495l2.127-2.745-.62 1.546c-.18.45.528.864.83.483l1.39-1.76-.828 2.217c-.206.55.612.829.907.382.267-.404.547-.799.82-1.2-.375.765-.744 1.531-1.148 2.285a.496.496 0 0 0 .856.5l.426-.628-.155.34c-.26.57.527 1.062.857.5.119-.203.252-.395.374-.596-.174.359-.342.72-.518 1.079a.513.513 0 0 0-.04.385q-.843 1.29-1.718 2.557c.224-.454.459-.905.713-1.35a.496.496 0 0 0-.857-.5zm2.136 10.019l-1.266 1.59c.134-.423.256-.853.355-1.297a.475.475 0 0 0-.12-.463c.233-.335.47-.666.703-1-.045.15-.102.296-.144.449a.52.52 0 0 0 .599.616.4.4 0 0 0-.127.105zm-1.448-1.296c.61-2.504 2.337-5.128 3.364-7.262a.496.496 0 0 0-.857-.501l-2.38 3.51c-.117.174-.242.347-.365.52.783-1.747 1.641-3.46 2.524-5.16l-.061.149c-.223.544.613.824.906.382.324-.487.663-.96 1-1.435-.136.327-.263.656-.408.982a.497.497 0 0 0 .857.5l1.893-2.88c-.606 1.258-1.286 2.49-1.865 3.702a.496.496 0 0 0 .857.5l1.186-1.723c-.56 1.19-1.132 2.376-1.735 3.549a.503.503 0 0 0-.054.257l-.003.004q-.869 1.406-1.821 2.737c.42-.932.892-1.842 1.382-2.754a.496.496 0 0 0-.856-.5 88.422 88.422 0 0 1-3.564 5.423zm5.184 1.3a.535.535 0 0 0-.353-.117 45.692 45.692 0 0 1 2.476-5.074.496.496 0 0 0-.856-.5c-1.21 1.95-2.431 3.886-3.75 5.76a33.533 33.533 0 0 1 3.015-5.775.479.479 0 0 0 .06-.265q1.117-1.805 2.263-3.588l-.858 1.815a.496.496 0 0 0 .856.501l1.78-2.619-.632 1.545c-.224.547.598.81.9.388-.278.673-.554 1.346-.854 2.012a.53.53 0 0 0-.022.091.45.45 0 0 0-.57.206c-1.11 1.755-2.185 3.819-3.455 5.62zm3.071 2.103c-.235.32-.466.641-.7.962l.02-.187a.514.514 0 0 0-.528-.495l1.238-2.217c-.133.446-.28.886-.403 1.336a.482.482 0 0 0 .373.6zm-.973-2.177c.617-1.768 1.574-3.543 2.214-5.046a.539.539 0 0 0 .021-.091.448.448 0 0 0 .571-.205l.093-.15a.5.5 0 0 0 .048.406.428.428 0 0 0-.208.183l-2.739 4.903zm2.568 4.61a.418.418 0 0 0-.147-.185 12.257 12.257 0 0 0 .226-1.5.444.444 0 0 0-.517-.474.38.38 0 0 0 .133-.067.46.46 0 0 0 .694-.142c.419-.745.804-1.503 1.193-2.26q-.9 2.272-1.582 4.627zm2.216-8.236a.451.451 0 0 0-.243.405v.005c-.015-.01-.027-.025-.042-.034l.02-.053c.207-.532-.632-.859-.907-.382l-.69 1.197c.237-.679.466-1.36.724-2.033a.4.4 0 0 0-.031-.367.494.494 0 0 0 .158-.174c.13-.237.272-.466.403-.702a.515.515 0 0 0 .502.187.552.552 0 0 0 .1.069l-.473 1.131c-.147.351.219.631.541.616l-.062.135zm-.292-8.345l.761-1.864a.4.4 0 0 0 .001-.329l.371-.528a2.441 2.441 0 0 0-.095 1.196.502.502 0 0 0 .906.119l1.367-2.226c-.077.297-.171.587-.24.889a.512.512 0 0 0 .722.566c-.01.062-.016.123-.026.184a.47.47 0 0 0-.45.229c-.23.353-.442.716-.668 1.07a.482.482 0 0 0-.889-.152l-1.241 2.013c.078-.217.167-.43.244-.648.17-.486-.41-.744-.763-.52zm1.633 7.424a.574.574 0 0 0-.452-.363c.074-.141.142-.286.215-.427a.423.423 0 0 0 .426-.238 20.666 20.666 0 0 0 1.131-2.507.423.423 0 0 0-.288-.57l.136-.327a.38.38 0 0 0-.066-.42l.828-1.672a3.874 3.874 0 0 0-.04.704.502.502 0 0 0 .79.393 210.629 210.629 0 0 0-2.68 5.427zm2.999-15.103l-.466.759q.427-.867.871-1.725a.5.5 0 0 0 .806-.066l.018-.035c.203.247.656.324.82-.006-.089.25-.18.498-.27.747a.477.477 0 0 0-.606.195l-.26.479c.166-.513-.636-.8-.913-.348zm.472 6.356c.475-1.3 1.145-2.629 1.705-3.79a37.083 37.083 0 0 1-1.705 3.79zm3.08-5.166a.536.536 0 0 0-.752-.085c.007-.471-.626-.797-.902-.292-.113.207-.211.421-.322.63q.208-.486.4-.946a.543.543 0 0 0 .667-.305l.002-.005a.5.5 0 0 0 .83-.036c.264-.558.542-1.109.815-1.661a.371.371 0 0 0 .37-.181q-.541 1.445-1.108 2.881zm.308-10.626l.691-1.368a31.253 31.253 0 0 0-.678 3.387.51.51 0 0 0 .263.55l-.053.077a.522.522 0 0 0-.862 0c-.03.049-.056.099-.085.147a.473.473 0 0 0-.211-.156c.263-.771.317-1.452-.114-1.815a.505.505 0 0 0-.566-.08q.405-.87.812-1.739c-.041.249-.088.495-.121.747-.065.492.713.668.924.25zm.437-5.99c-.74 1.605-1.494 3.205-2.243 4.806.486-1.761 1.19-3.505 1.712-5.17.12-.383-.292-.682-.616-.617.038-.115.07-.231.108-.346a.452.452 0 0 0-.227-.536.389.389 0 0 0 .188-.197l.052-.11a.506.506 0 0 0 .693.253.486.486 0 0 0 .697.375.52.52 0 0 0 .92-.111 36.127 36.127 0 0 1 1.796-4.309.39.39 0 0 0 .02.035c-.128.368-.27.744-.413 1.11a24.901 24.901 0 0 0-.851 2.11 6.624 6.624 0 0 0-.11.3.452.452 0 0 0 .448.6c-.172.482-.329.969-.514 1.448l-1.263 2.5q.243-.88.51-1.76c.16-.525-.668-.9-.907-.381zm2.933 6.885c-.363.93-.715 1.864-1.063 2.798a.454.454 0 0 0-.811.001c-.043.079-.082.16-.125.238a.563.563 0 0 0-.433-.06c.174-.437.338-.877.517-1.312a.48.48 0 0 0 .036-.18.543.543 0 0 0 .762-.28l.287-.909a.505.505 0 0 0 .307-.311c.254-.677.524-1.345.804-2.007a12.456 12.456 0 0 0-.28 2.022zm.784-6.798a2.23 2.23 0 0 0-.942.274l-.928 2.218q.478-1.571 1.013-3.135a.427.427 0 0 0 .017-.136.546.546 0 0 0 .423.02.465.465 0 0 0 .501.469zm.04-11.432c.093-.427.177-.854.285-1.282.134-.53-.64-.897-.906-.383-.257.496-.486 1.004-.735 1.502.139-.563.291-1.124.443-1.678a.4.4 0 0 0 .23-.206c.096-.2.2-.391.298-.588a.52.52 0 0 0 .856.035.542.542 0 0 0 .92.097l.241-.342c-.077.26-.165.518-.246.777a.433.433 0 0 0-.444.24zm.511-6.862l1.241-2.14a30.9 30.9 0 0 0-.324 2.102c-.162.27-.31.548-.457.825a.578.578 0 0 0-.539.003c.032-.18.069-.357.096-.54a.587.587 0 0 0-.017-.25zm.043-5.227l-.916 1.893c.143-.638.306-1.273.478-1.908l.653-.982a9.82 9.82 0 0 0-.215.997zm2.813 17.871c-.085.286-.183.566-.263.854a.51.51 0 0 0-.007.08c-.13.215-.253.429-.372.644a.512.512 0 0 0-.068-.028c.1-.312.206-.622.302-.936a.515.515 0 0 0-.556-.623.53.53 0 0 0-.534-.153c.008-.038.019-.075.026-.114.1-.516-.645-.92-.907-.382-.15.307-.28.62-.423.928.115-.41.247-.813.353-1.228a.474.474 0 0 0-.195-.516 70.53 70.53 0 0 0 1.193-2.606 29.165 29.165 0 0 0-.158 2.254.5.5 0 0 0 .925.25 45.92 45.92 0 0 1 .984-1.662 82.514 82.514 0 0 0-.384 2.944.392.392 0 0 0 .084.294zm2.226-17.988a.465.465 0 0 0-.699.142l-1.981 3.632a.56.56 0 0 0-.24-.011c.074-.417.144-.835.234-1.25a.44.44 0 0 0 .137-.137l2.792-4.61a7.893 7.893 0 0 0-.243 2.234zm-2.075 4.736a5.655 5.655 0 0 0-.078 1.426c-.075.13-.146.261-.22.391a.498.498 0 0 0-.611-.15l.91-1.667zm1.975 8.228a.53.53 0 0 0-.017.165l-.118.284a.517.517 0 0 0-.526.33l-.009.022c.061-.373.115-.747.181-1.12a.499.499 0 0 0-.907-.382q-.628.915-1.208 1.853c.097-.988.234-1.97.398-2.951a.592.592 0 0 0 .266.163c-.01.026-.016.051-.025.077-.212.608.735.854.957.264.043-.117.095-.226.14-.341-.12.372.297.659.623.59a.45.45 0 0 0 .372.547c-.044.166-.08.333-.127.499zm-.728-9.176c.302-1.092.715-2.189.955-2.993a.433.433 0 0 0 .217.251l-1.172 2.742zm2.751-3.078a.39.39 0 0 0-.351.24l-.197.44c.085-.273.157-.55.244-.823a.446.446 0 0 0-.148-.483l.881-1.558q-.252 1.082-.429 2.184zm1.408 3.035a.543.543 0 0 0-.37-.106c.184-.575.352-1.153.55-1.723a.43.43 0 0 0 .559-.212l.326-.695a.447.447 0 0 0 .004.075l-1.069 2.661zm7.247-16.959c-.023.2-.061.393-.079.596a.472.472 0 0 0 .622.462l-.101.252a.54.54 0 0 0-.863.016c-.032.05-.057.102-.088.152a.492.492 0 0 0-.069-.387c.19-.365.39-.725.577-1.09zm-1.597 5.49a.393.393 0 0 0 .231-.23c.15-.356.324-.693.49-1.037-.047.264-.087.527-.138.793a.558.558 0 0 0 .598.63.512.512 0 0 0 .376.379c-.332.739-.67 1.475-1.004 2.213a3.659 3.659 0 0 0 .159-1.055.433.433 0 0 0-.177-.377c.017-.07.028-.142.046-.212a.534.534 0 0 0-.714-.588c.04-.172.089-.344.133-.516zm-.644 4.773a.392.392 0 0 0-.13-.491c.004-.01.012-.015.016-.025l.19-.448a.569.569 0 0 0 .679-.174c.07-.106.122-.205.178-.305-1.185 2.622-2.388 5.235-3.584 7.85l-.026-.01a.49.49 0 0 0-.057-.522 54.156 54.156 0 0 0 2.734-5.875zm-1.068-1.497c.046-.103.095-.205.142-.308a27.49 27.49 0 0 0-.112 1.039.413.413 0 0 0 .172.362.514.514 0 0 0-.09.14 51.043 51.043 0 0 1-1.044 2.407c.028-.09.047-.182.075-.272a.477.477 0 0 0-.288-.574 63.4 63.4 0 0 1 .813-2.562.401.401 0 0 0 .332-.232zm-.68-6.582a.554.554 0 0 0 .376.164c-.12.373-.233.718-.315 1.007a.523.523 0 0 0 .575.622c.001.046.002.091 0 .137a.438.438 0 0 0-.115.16l-.065.146a.487.487 0 0 0-.776.09l-.042.08.025-.18a.586.586 0 0 0-.54-.637l.878-1.589zm-1.338-.66c-.134.57-.273 1.14-.425 1.707a.384.384 0 0 0-.345.06c.248-.596.498-1.188.77-1.766zm-.377 5.891l.01-.02a.525.525 0 0 0 .66.394c-.009.076-.026.149-.035.226a.47.47 0 0 0 .487.483l-.116.247a.504.504 0 0 0-.814.052l-1.707 2.984a63.45 63.45 0 0 1 1-3.617.498.498 0 0 0-.907-.382l-2.4 4.242a43.93 43.93 0 0 1 1.156-4.325.498.498 0 0 0-.806-.496l.2-.421a.495.495 0 0 0 .9.123l.231-.436c-.007.192-.028.38-.028.576-.002.466.708.71.924.25l.356-.756c-.009.21-.031.415-.035.626-.008.467.713.71.924.25zm-4.515-8.742a7.13 7.13 0 0 0-.037.776 10.9 10.9 0 0 0-.17.596.504.504 0 0 0 .823.488.39.39 0 0 0 .049-.009 17.55 17.55 0 0 1-.273.833c-.188.523.68.899.907.382l.003-.007c-.074.246-.13.492-.217.74-.179.514.45.753.795.475.052.415.73.647.926.192.172-.4.362-.786.547-1.176a17.52 17.52 0 0 1-.354 1.445.503.503 0 0 0-.01.095.438.438 0 0 0-.292.238l-.316.597c.04-.488-.654-.865-.906-.336l-.084.176c.02-.143.035-.283.058-.428.08-.502-.659-.941-.907-.382l-.034.075c.012-.051.02-.103.03-.155.119-.518-.672-.923-.906-.382l-.147.34c-.098-.39-.712-.595-.906-.152l-.026.06c.061-.256.103-.514.172-.77a.504.504 0 0 0-.362-.6q.798-1.567 1.637-3.111zm-2.379-1.376c.206-.388.412-.776.616-1.165-.062.34-.14.674-.193 1.017a.539.539 0 0 0 .06.338l-.584 1.218c.05-.427.09-.857.115-1.296a.447.447 0 0 0-.014-.112zm-4.721-2.478a.42.42 0 0 0 .103-.127l.246-.466-.003.035a.505.505 0 0 0 .568.488c-.017.121-.043.237-.058.36-.044.371.355.547.66.454-.027.24-.07.476-.087.722a.5.5 0 0 0 .925.25l.28-.53a.525.525 0 0 0 .149.457c-.036.03-.078.041-.108.082a34.006 34.006 0 0 0-1.119 1.682c.003-.24.024-.475.012-.722a.5.5 0 0 0-.925-.25l-.074.142a5.573 5.573 0 0 0 .026-1.22.55.55 0 0 0-.668-.476 7.1 7.1 0 0 0 .09-.77.427.427 0 0 0-.017-.111zm-.553 6.853l1.015-1.936a11.25 11.25 0 0 1-.112.593c-.115.528.63.9.907.383.387-.722.802-1.419 1.235-2.104a17.373 17.373 0 0 1-.527 2.276c-.184.625.73.845.957.263.152-.387.328-.749.498-1.118a20.525 20.525 0 0 1-.52 2.068.437.437 0 0 0-.557.212l-.603 1.137c.05-.287.086-.574.15-.861a.498.498 0 0 0-.907-.382l-.222.363c.022-.122.03-.244.058-.365a.499.499 0 0 0-.907-.383l-.466.713c.014-.213.022-.423.043-.64a.408.408 0 0 0-.042-.22zm-.11 2.837l.299-.458c-.007.18-.026.352-.026.537a.5.5 0 0 0 .924.25l.025-.04c-.037.39-.082.777-.099 1.18a.5.5 0 0 0 .925.25l.488-.92c-.014.225-.045.44-.05.672a.5.5 0 0 0 .924.25l.273-.52c-.01.145-.023.286-.028.435a.5.5 0 0 0 .925.25l.215-.45c-.041.34-.08.682-.108 1.03a.5.5 0 0 0 .921.255c.05.418.73.603.914.175l.17-.392c-.004.039-.011.077-.015.116a.5.5 0 0 0 .924.25l.278-.625c-.006.084-.017.166-.022.25a.51.51 0 0 0 .794.403l-3.16 5.217c.268-.887.598-1.758.945-2.642.211-.537-.623-.844-.907-.382l-2.048 3.339a.46.46 0 0 0-.024-.063c.32-1.322.937-2.73 1.238-3.763a.498.498 0 0 0-.907-.382l-1.331 2c.25-.94.532-1.873.855-2.802.187-.539-.629-.86-.907-.383l-1.57 2.694c.279-.956.663-1.91.894-2.714a.498.498 0 0 0-.907-.382l-.822 1.387c.24-.919.512-1.83.823-2.739.19-.554-.61-.832-.907-.382-.172.26-.335.527-.503.79l.378-1.512a.502.502 0 0 0 .208-.179zm-.959-2.91a.448.448 0 0 0 .027.314l-.39.669a12.354 12.354 0 0 1 .267-1.339.498.498 0 0 0-.907-.382l-.157.26c.035-.225.061-.45.104-.676.002-.01-.002-.02 0-.03a.503.503 0 0 0 .423-.327c.05-.127.107-.25.157-.376a.503.503 0 0 0 .87.024l.479-.902c-.275.965-.638 1.922-.873 2.766zM113 35.058a.47.47 0 0 0 .798-.029l.523-.921c-.01.207-.035.408-.038.62a.5.5 0 0 0 .924.25c.145-.219.275-.447.416-.667-.043.406-.088.81-.12 1.22a.499.499 0 0 0 .85.343c-.023.178-.05.353-.068.533a.403.403 0 0 0 .01.114.439.439 0 0 0-.096.125l-.04.083a.475.475 0 0 0-.787.062c-.113.199-.212.403-.323.603.057-.362.112-.725.148-1.095.05-.51-.69-.646-.924-.25l-.258.434c.029-.166.068-.327.094-.495.081-.519-.611-.912-.906-.382-.107.19-.205.385-.31.576l.192-.728a.455.455 0 0 0-.085-.396zm-2.644 3.822l-.288.967a.522.522 0 0 0 .694.591c-.015.467.68.763.913.277.21-.437.431-.868.648-1.3a.496.496 0 0 0 .912.322l.532-.895a41.343 41.343 0 0 1-.733 2.64.442.442 0 0 0-.019.173.394.394 0 0 0-.474.128c-.217.253-.416.509-.612.767a6.484 6.484 0 0 1 .025-.746.5.5 0 0 0-.847-.35c-.114.128-.217.26-.325.39.01-.221.017-.44.04-.67a.5.5 0 0 0-.847-.351l-.062.076.039-.47a.453.453 0 0 0-.274-.432zm-.77 7.522c-.02.163-.042.326-.066.489a.452.452 0 0 0-.417.232c-.514.9-.999 1.81-1.475 2.727l.852-2.905a.498.498 0 0 0-.907-.382l-.612 1.18a.505.505 0 0 0-.928-.216c-.093.181-.18.365-.271.547.271-.89.566-1.773.834-2.65a.505.505 0 0 0 .911.13l.314-.613a.5.5 0 0 0 .874.049l.098-.149a31 31 0 0 0-.045 1.222.49.49 0 0 0 .838.339zm-3.408-1.65l.428-.762a.503.503 0 0 0 .128-.06q-.072.585-.13 1.174a.54.54 0 0 0-.426-.352zm2.77-1.949l-.244.37-.003-.065a.517.517 0 0 0-.8-.4c.009-.06.017-.119.027-.177a.462.462 0 0 0 .346-.222l.274-.451a.486.486 0 0 0 .296-.025l-.05.621a.422.422 0 0 0 .153.35zm-.242-5.081l-1.162 3.648a.43.43 0 0 0-.442.247 1.29 1.29 0 0 0-.325 1.364.532.532 0 0 0-.678-.047 168.628 168.628 0 0 1 2.607-5.212zm-37.6 41.248c.864-3.486 2.724-5.772 4.473-8.8 1.043-1.804 1.148-3.623 1.687-5.55.711-2.543 1.088-3.548 3.554-4.66.871-.392 1.823-.362 2.747-.816 1.937-.95 3.289-2.74 4.593-4.389 2.012-2.544 6.219-6.143 5.527-9.794a5.54 5.54 0 0 0-.382-1.207c1.253-.718 2.415-1.595 3.656-2.407 3.042-1.993 6.206-2.083 9.711-1.832a166.75 166.75 0 0 0-4.136 8.924c-.23.413-.449.834-.672 1.252a.38.38 0 0 0-.22.208Q94.415 66.015 87.182 82.13c-2.13 4.751-3.85 9.552-5.564 14.462a80.287 80.287 0 0 1-4.827 10.084 5.802 5.802 0 0 0-5.578-.892 87.264 87.264 0 0 1-.263-2.381c-.46-4.653-5.06-6.519-5.664-10.795a47.48 47.48 0 0 0 5.822-13.638zm-10.74 2.833a2.202 2.202 0 0 1-2.051-1.325c.14-3.056 1.463-5.893 2.557-8.709a.428.428 0 0 0 .02-.254c.355.174.714.34 1.083.485a28.785 28.785 0 0 0-1.61 9.803zm-.041-20.65q-2.051 3.313-3.954 6.711a18.16 18.16 0 0 0-.712-.355c.006-.01.014-.013.02-.023q1.779-3.362 3.609-6.697c.346.12.69.244 1.037.365zm-.619-1.269l2.582-.151a5.522 5.522 0 0 0-.438.915c-.715-.254-1.427-.516-2.144-.764zm1.575 1.606c.406.143.808.299 1.213.443a42.83 42.83 0 0 1-4.275 6.98 47.892 47.892 0 0 0-.976-.574q1.94-3.471 4.038-6.849zm2.138.78c.396.143.79.29 1.185.433q-2.253 3.649-4.39 7.366-.575-.318-1.141-.653a44.889 44.889 0 0 0 4.346-7.146zm1.03-.695c-.555-.204-1.116-.396-1.673-.596a4.244 4.244 0 0 1 .779-1.32l1.581-.094-.726 1.51a.486.486 0 0 0 .04.5zm-.5-2.932a32.55 32.55 0 0 1-1.676-9.92c.387-.25.768-.512 1.148-.774-.073 3.504 1.262 7.231 2.05 10.605l-1.522.089zm-1.025.06l-1.166.069a.483.483 0 0 0-.023-.406c-1.28-2.543-.984-5.814-1.113-8.591l-.003-.015c.233-.135.456-.291.687-.43a33.089 33.089 0 0 0 1.618 9.373zm-2.064.121l-1.39.082a.415.415 0 0 0 .09-.306 61.407 61.407 0 0 0-1.1-7.457.48.48 0 0 0-.078-.178c.427-.21.846-.438 1.265-.664.092 2.84-.068 5.944 1.213 8.523zm-2.292-.224a.494.494 0 0 0 .178.348l-1.498.088-.06-.02c.025-2.223-.98-4.298-1.758-6.691-.005-.016-.015-.024-.022-.04a37.818 37.818 0 0 0 2.095-.905c.001.01-.002.017 0 .026A59.24 59.24 0 0 1 58.57 58.6zm-1.466 1.437h.009c.41.137.817.285 1.227.424q-1.78 3.25-3.516 6.524a.496.496 0 0 0-.045.151c-.227-.087-.451-.18-.686-.253a61.138 61.138 0 0 0 2.521-5.163 7.144 7.144 0 0 0 .49-1.683zm-2.85 7.96a25.291 25.291 0 0 1-2.582 6.047 17.333 17.333 0 0 0-1.314-1.068q1.757-2.55 3.272-5.24a.504.504 0 0 0 .17.093c.155.048.302.113.455.168zm.931.372c.253.113.506.226.753.352a62.919 62.919 0 0 1-2.294 7.234q-.596-.618-1.216-1.215a28.072 28.072 0 0 0 2.757-6.371zm1.653.836q.448.253.89.517a.414.414 0 0 0 .034.313c-.663 2.655-1.44 5.286-2.185 7.92a77.75 77.75 0 0 1-1.163-1.202 74.767 74.767 0 0 0 2.424-7.548zm1.879 1.102c.513.306 1.026.61 1.552.891a.495.495 0 0 0-.351.308c-1.029 2.645-2.226 5.284-2.54 8.112-.34-.28-.67-.575-.992-.878.788-2.806 1.625-5.606 2.33-8.433zm5.76-3.552a26.818 26.818 0 0 0-2.147 4.335c-.014-.007-.022-.018-.037-.024-.41-.159-.806-.343-1.197-.536q2.17-3.776 4.46-7.48c.398.144.797.283 1.193.434-.711 1.117-1.577 2.148-2.272 3.271zm2.787-4.143l-.004.007c-.738-.283-1.482-.552-2.223-.826a.418.418 0 0 0 .232-.218l1-2.076 1.65-.097a6.138 6.138 0 0 1-.655 3.21zm-.16-6.857a16.962 16.962 0 0 1 .711 2.661l-1.23.072a.543.543 0 0 0-.16-.214c-.804-3.439-2.225-7.298-2.006-10.832a.48.48 0 0 0-.028-.194c.295-.22.593-.432.88-.664a29.878 29.878 0 0 0 1.833 9.171zM86.05 25.93a40.762 40.762 0 0 0-10.477 2.436c-4.034 1.639-7.481 4.647-11.92 5.194-.01.002-.018.008-.028.01-.193-1.107-.383-2.15-.627-3.146a.52.52 0 0 0 .198-.052q6.024-2.934 12.207-5.543a28.2 28.2 0 0 0 20.203-2.489 179.12 179.12 0 0 0 3.477-1.917c.555.137 1.11.288 1.671.471a47.065 47.065 0 0 1 5.411 2.204l-1.408 3.845A53.983 53.983 0 0 0 86.05 25.93zm-26.183 5.694a7.614 7.614 0 0 1 .96 2.672 13.956 13.956 0 0 0-2.408 1.283c-.393.241-.772.504-1.16.754a.482.482 0 0 0-.091-.489 9.29 9.29 0 0 0-1.918-1.68c-.534-.355-1.031.504-.501.856a8.356 8.356 0 0 1 1.717 1.526.427.427 0 0 0 .245.144c-.46.3-.926.59-1.381.897a.49.49 0 0 0-.013-.643L53.6 34.997c-.423-.48-1.122.224-.701.702l1.716 1.946a.41.41 0 0 0 .42.141c-.411.278-.824.554-1.234.834q-1.11-1.387-2.218-2.775c-.399-.498-1.097.208-.702.702l2.1 2.627c-.145.1-.29.199-.437.297-.249.168-.507.318-.758.481l-1.358-2.102c-.345-.535-1.204-.038-.856.5l1.377 2.133c-.463.293-.92.6-1.388.882a.413.413 0 0 0-.001-.492 10.218 10.218 0 0 1-1.185-2.395c-.204-.602-1.162-.344-.957.264a11.235 11.235 0 0 0 1.285 2.632.477.477 0 0 0 .473.216c-.475.281-.946.571-1.429.835a.442.442 0 0 0-.06-.33 9.371 9.371 0 0 1-1.07-2.449.497.497 0 0 0-.956.264 10.355 10.355 0 0 0 1.17 2.685.464.464 0 0 0 .235.193c-.445.233-.89.466-1.342.68a.504.504 0 0 0-.027-.125 14.067 14.067 0 0 1-.931-3.028c-.12-.627-1.077-.362-.957.263a15.14 15.14 0 0 0 1.031 3.266l.005.007c-.427.188-.848.39-1.283.558a.46.46 0 0 0-.011-.1 9.532 9.532 0 0 1-.487-3.203.496.496 0 0 0-.992 0 10.377 10.377 0 0 0 .522 3.466.507.507 0 0 0 .094.165c-.452.157-.907.305-1.369.437v-2.9a.496.496 0 0 0-.992 0v2.916a.48.48 0 0 0 .058.23 22.12 22.12 0 0 1-1.434.31.416.416 0 0 0 .121-.238 13.596 13.596 0 0 0 .152-3.051c-.042-.634-1.034-.639-.992 0a12.453 12.453 0 0 1-.116 2.787.526.526 0 0 0 .363.584c-.143.021-.28.056-.424.075a21.291 21.291 0 0 1-2.183.161 14.257 14.257 0 0 1 1.197-3.323c.29-.567-.566-1.07-.857-.5a15.327 15.327 0 0 0-1.341 3.738.482.482 0 0 0-.001.085 24.146 24.146 0 0 1-1.265-.056 30.066 30.066 0 0 0 1.408-3.573c.196-.61-.762-.87-.957-.264a28.052 28.052 0 0 1-1.322 3.37.496.496 0 0 0-.02.391 22.48 22.48 0 0 1-1.387-.192c0-.01.006-.017.006-.028.026-1.228 1.003-2.223 1.354-3.371.188-.612-.77-.873-.956-.264-.373 1.216-1.272 2.173-1.373 3.467-.41-.091-.82-.19-1.223-.305.66-1.108 1.796-2.426 1.68-3.782-.055-.631-1.047-.637-.993 0a2.99 2.99 0 0 1-.65 1.768l-.908 1.537a.498.498 0 0 0-.063.183c-.668-.22-1.327-.46-1.968-.742a.416.416 0 0 0 .337-.164l2.862-3.392c.41-.486-.29-1.19-.702-.702l-2.861 3.393a.518.518 0 0 0 .053.723 21.804 21.804 0 0 1-3.282-1.848 3.503 3.503 0 0 1 .306-.577 7.436 7.436 0 0 1 1.185-1.252.541.541 0 0 0 .363-.331c.135-.122.27-.243.384-.354a96.701 96.701 0 0 1 8.808-7.582.465.465 0 0 0 .332-.133 86.36 86.36 0 0 1 4.306-3.8 5.697 5.697 0 0 0 .502.398.483.483 0 0 0-.263.115l-3.196 2.8c-.48.421.223 1.12.702.701l3.196-2.8a.41.41 0 0 0 .147-.399c.173.104.36.191.545.28a.497.497 0 0 0-.292.191 30.595 30.595 0 0 0-1.824 2.788.496.496 0 0 0 .857.5 30.597 30.597 0 0 1 1.823-2.787.388.388 0 0 0 .038-.441 7.77 7.77 0 0 0 .865.245c-.006.008-.014.011-.02.02a7.788 7.788 0 0 0-1.005 2.44c-.14.621.817.887.957.263a6.955 6.955 0 0 1 .905-2.202.441.441 0 0 0 .058-.375c.191.022.374.06.571.067h.07a.493.493 0 0 0-.05.218v1.917a.496.496 0 0 0 .993 0V30.19a.496.496 0 0 0-.047-.215c.35-.008.704-.051 1.057-.08v.013a8.222 8.222 0 0 1 .17 1.615.457.457 0 0 0 .142.338.478.478 0 0 0-.73.412l.11 3.583c.02.637 1.012.64.992 0l-.11-3.583a.467.467 0 0 0-.148-.336.487.487 0 0 0 .736-.414 9.549 9.549 0 0 0-.179-1.713c.348-.045.696-.114 1.045-.177a.51.51 0 0 0 .032.143l.627 1.397c.26.582 1.116.078.856-.5q-.274-.614-.55-1.227c.321-.07.64-.156.96-.24a.5.5 0 0 0 .105.42l.669.83c.4.498 1.098-.208.701-.7l-.628-.781c.33-.097.656-.22.984-.328a.448.448 0 0 0 .035.05l.978.94c.46.443 1.163-.258.701-.701l-.663-.638a40.513 40.513 0 0 0 1.59-.62.409.409 0 0 0 .243.338 1.149 1.149 0 0 1 .548.515c.308.56 1.166.06.856-.5a2.063 2.063 0 0 0-.727-.748c.337-.148.66-.31.993-.463a.449.449 0 0 0 .138.387l.667.667.008.005a.444.444 0 0 0-.007.48 8.36 8.36 0 0 0 2.259 2.519c.511.383 1.006-.478.5-.857a7.162 7.162 0 0 1-1.902-2.162.478.478 0 0 0-.092-.103.45.45 0 0 0-.065-.584l-.666-.666a.465.465 0 0 0-.069-.046c.336-.162.665-.327.995-.493l.866.913a.428.428 0 0 0 .448.126.402.402 0 0 0-.125.617 12.123 12.123 0 0 0 1.859 1.99c.484.41 1.19-.288.701-.701a11.047 11.047 0 0 1-1.703-1.79.518.518 0 0 0-.596-.176.492.492 0 0 0 .118-.768l-.651-.686c.257-.136.52-.27.77-.41a.47.47 0 0 0 .249-.003c.07-.02.138-.047.209-.067 2.528 2.669 2.888 5.62 3.52 8.975a4.382 4.382 0 0 0-.896.058 8.37 8.37 0 0 0-1.062-2.922.496.496 0 0 0-.857.5zM79.018 15.41a36.606 36.606 0 0 1-6.23-2.35 62.487 62.487 0 0 0 9.356 1.545 49.714 49.714 0 0 0-3.126.805zm7.255-.622c1.344.003 2.69-.04 4.039-.156a.473.473 0 0 0 .311-.155c.691.07 1.374.157 2.054.253-1.097.292-2.195.58-3.298.854a19.827 19.827 0 0 1-8.286.28c1.71-.425 3.442-.764 5.18-1.076zm-9.16 1.235c-.305.109-.614.21-.916.325-3.599-1.611-7.071-3.61-10.598-5.419.777.265 1.56.513 2.342.762a63.59 63.59 0 0 0 9.172 4.332zm-.907 1.383a.522.522 0 0 0 .446-.166q1.025-.387 2.075-.715a22.193 22.193 0 0 0 2.885.604c4.55.625 8.935-.749 13.271-2.035.888.164 1.77.342 2.644.545a23.505 23.505 0 0 1-3.13.768c-2.357.388-4.755.427-7.11.857-5.417.99-10.45 3.211-15.542 5.255a25.702 25.702 0 0 1-2.824-1.41 45.175 45.175 0 0 1 7.285-3.703zm46.337 4.189a19.922 19.922 0 0 1-3.718 1.392c-1.945-.792-3.831-1.73-5.716-2.672 3.369-1.214 7.746-3.169 9.434 1.28zm-7.008-9.283c.298-.028.6-.052.9-.077.092.645.183 1.29.267 1.935-.275.103-.546.222-.823.32a46.257 46.257 0 0 1-.344-2.178zm1.883-.15c.252-.017.506-.023.76-.036a.512.512 0 0 0 .039.161c.166.357.307.724.457 1.087-.343.143-.685.291-1.03.429q-.109-.821-.226-1.641zm1.778-.085a34.41 34.41 0 0 1 2.37-.005c-.654.328-1.316.633-1.983.925-.128-.307-.25-.617-.387-.92zm-22.22 6.847c-5.656-.949-11.014.675-16.253 2.69-1.796.692-3.58 1.418-5.355 2.16a27.219 27.219 0 0 1-2.302-.727c4.734-1.92 9.442-3.909 14.485-4.826 2.355-.429 4.752-.472 7.11-.857a27.997 27.997 0 0 0 4.676-1.278c1.179.313 2.349.65 3.505 1.032q-1.451.824-2.893 1.653l-.995.57a26.375 26.375 0 0 0-1.977-.417zm.622 1.182c-4.305 2.403-8.61 4.454-13.729 4.632a28.994 28.994 0 0 1-6.891-.575 177.614 177.614 0 0 1 5.275-2.072c5.141-1.918 10.135-2.91 15.345-1.985zm6.544-2.544c.299.106.595.223.892.332a.406.406 0 0 0 .467.47l.597-.074q3.63 1.4 7.19 3.182c1.48.74 3.083 1.54 4.753 2.264a.434.434 0 0 0 .587.358l.144-.047c4.055 1.673 8.464 2.763 12.521 1.257a6.796 6.796 0 0 0 2.328-1.4c-.019.254-.04.505-.065.748-.487 4.774-5.137 5.83-9.162 5.083-8.647-1.604-15.734-7.517-24.056-10.013 1.267-.718 2.534-1.442 3.804-2.16zm1.283-.72c2-1.116 4.015-2.197 6.06-3.196l.045 2.127a.465.465 0 0 0 .018.078 52.629 52.629 0 0 1-5.656 1.17c-.155-.06-.31-.121-.467-.18zm7.042-3.664c.178-.084.358-.164.536-.248a10.99 10.99 0 0 0 .243 2.428c-.243.073-.483.156-.728.226l-.05-2.406zm11.996 8.62a.461.461 0 0 0-.343-.137 5.408 5.408 0 0 0 .724-.731c2.275.645 4.072 2.395 6.187 3.414a9.484 9.484 0 0 1-3.416.634.45.45 0 0 0-.134-.261l-3.018-2.92zm7.526 2.078a.407.407 0 0 0-.248-.283c-2.204-.997-4.04-2.774-6.351-3.526.018-.038.041-.073.059-.112.011-.026.018-.052.029-.078a.463.463 0 0 0 .323.135c2.576.06 5.273.882 7.802 1.374a.48.48 0 0 0 .064 0c.01.29.022.58.02.87a4.74 4.74 0 0 1-1.698 1.62zm-6.188-4.856a.454.454 0 0 0-.066.012 4.19 4.19 0 0 0 .055-.686c2.56-.034 5.066.597 7.622.732.08.424.145.856.186 1.296a46.078 46.078 0 0 0-7.797-1.354zm1.335-1.623l4.525-1.893.109.097a5.563 5.563 0 0 1 1.247 1.975c.058.157.088.332.137.495-2.019-.133-4.006-.545-6.018-.674zm-1.513-.434a8.023 8.023 0 0 0-.419-1.211 6.674 6.674 0 0 0 1.392-.797l2.03-1.293a12.492 12.492 0 0 1 1.208.537c.318.188.63.394.938.61zm.713-3.018a5.858 5.858 0 0 1-1.57.9c-.083-.157-.178-.305-.266-.46.67-.474 1.34-.949 2.018-1.41.305.089.61.175.914.272l-1.096.698zm-2.332-.42c-.278-.454-.557-.895-.81-1.314a.46.46 0 0 0-.05-.053c.307.03.61.07.914.113l.563.16c.22.063.45.128.676.19q-.65.449-1.293.905zm-.362 8.507a.433.433 0 0 0 .12.468q1.26 1.22 2.522 2.439a18.524 18.524 0 0 1-1.88-.252.462.462 0 0 0-.056-.287 25.566 25.566 0 0 0-1.274-2.005c.197-.111.383-.236.568-.363zm-.45 2.397a26.59 26.59 0 0 1-1.403-.376 30.302 30.302 0 0 1-1.505-.504c.638-.209 1.28-.439 1.897-.71.36.515.689 1.05 1.01 1.59zm-9.233-11.942l.048-.022c.182-.02.368-.036.55-.055.11.804.235 1.604.383 2.4-.247.084-.493.174-.742.254a9.968 9.968 0 0 1-.212-2.417.479.479 0 0 0-.027-.16zm-.239-.983l-.395.042a.506.506 0 0 0-.424.326c-2.984 1.349-5.894 2.903-8.765 4.515a58.226 58.226 0 0 0-3.013-.934l.224-.08q6.203-2.233 12.404-4.468c.503-.03 1.004-.042 1.504-.046q-.77.313-1.535.645zm-12.637 2.912c-.556.2-1.11.401-1.667.598-.798-.2-1.605-.364-2.41-.533.225-.062.45-.125.674-.185 3.754-1 7.715-2.172 11.68-2.861l-8.277 2.98zM66.82 21.604a.466.466 0 0 0 .718.377c.144-.096.293-.182.439-.276a26.604 26.604 0 0 0 2.467 1.33 61.837 61.837 0 0 1-8.72 2.832.427.427 0 0 0-.347.463 11.625 11.625 0 0 0-1.197-1.65 31.387 31.387 0 0 0 6.64-3.076zm-7.181 2.21a.454.454 0 0 0-.573-.076 41.223 41.223 0 0 1-12.89 4.927 11.312 11.312 0 0 1-5.426-.016 12.058 12.058 0 0 1 8.106-8.155c2.326-.591 4.788.51 7.026 1.173l5.352 1.585q-.787.301-1.595.562zm8.338-3.282c-.137-.088-.28-.163-.415-.254a.426.426 0 0 0-.623.13L56.743 16.3c-2.59-1.04-5.133-2.018-7.97-1.598-4.274.632-10.293 3.31-11.685 7.799a5.504 5.504 0 0 0 .6 4.91q-1.812 1.5-3.54 3.098a.397.397 0 0 0-.163-.286c-3.486-2.708-3.143-7.643-.413-10.768 2.726-3.119 7.011-4.518 11.001-4.988 8.486-1 16.642 2.19 24.385 5.24.594.234.852-.725.264-.957-9.49-3.736-20.336-7.826-30.453-3.9-3.245 1.26-6.389 3.485-7.724 6.816a7.945 7.945 0 0 0 2.238 9.259.504.504 0 0 0 .295.103l-.074.068a.417.417 0 0 0-.242.088 85.764 85.764 0 0 0-9.275 7.851 15.455 15.455 0 0 1-2.218-16.65c2.753-5.7 8.927-8.809 14.79-10.397 12.248-3.318 23.199 1.435 33.806 7.125a54.64 54.64 0 0 0-2.388 1.42zm-6.33 6.244a.471.471 0 0 0 .342.047 66.107 66.107 0 0 0 9.708-3.223c.725.303 1.463.562 2.207.8q-5.64 2.406-11.157 5.09a13.52 13.52 0 0 0-1.1-2.714zm45.134.42a.499.499 0 0 0-.041.265c-.34-.09-.678-.189-1.02-.275l1.342-3.664c.257.124.511.255.767.382a.5.5 0 0 0-.232.373 9.484 9.484 0 0 1-.816 2.919zm2.84-1.924a4.363 4.363 0 0 1-.318 1.422l-.43 1.396c-.413-.129-.824-.268-1.24-.387l.004-.006a10.999 10.999 0 0 0 .952-3.414c.402.202.803.407 1.204.612a.427.427 0 0 0-.172.377zm1.424 3.334c-.332-.046-.662-.108-.995-.15-.075-.025-.152-.045-.227-.07a10.21 10.21 0 0 0 .787-3.077c.292.149.586.294.878.442a.461.461 0 0 0-.059.148 9.42 9.42 0 0 1-.594 2.045.536.536 0 0 0 .21.662zm2.285-1.455a4.006 4.006 0 0 1-.461 1.432.47.47 0 0 0-.049.304c-.45-.071-.9-.153-1.352-.218a.397.397 0 0 0 .224-.225 10.5 10.5 0 0 0 .685-2.245c.392.197.787.388 1.18.582a.504.504 0 0 0-.227.37zm1.65 2.105v.004c-.412-.076-.822-.154-1.234-.224a5.324 5.324 0 0 0 .575-1.878c.388.188.783.363 1.174.544zm15.035 4.332c-4.18-1.02-8.242-2.807-12.395-3.786a49.8 49.8 0 0 0-1.659-.355l.44-1.326c.061.028.122.059.184.086 4.106 1.796 9.664 4.042 14.089 2.062 3.243-1.45 4.054-4.605 4.017-7.817 1.13-2.307.307-5.273-2.043-7.434a15.153 15.153 0 0 0-8.469-3.716 39.228 39.228 0 0 0-4.63-.94 43.807 43.807 0 0 1 2.624-.743 21.03 21.03 0 0 1 14.272 6.08c2.963 2.99 5.186 7.267 3.951 11.556-1.29 4.484-5.835 6.138-10.09 6.223a.46.46 0 0 0-.291.11zm-.367-25.063a.501.501 0 0 0 .218-.057c4.143.799 7.914 2.475 10.609 5.643 3.17 3.728 6.64 9.52 4.792 14.54-1.65 4.484-6.883 6.008-11.25 5.627-.264-.023-.525-.073-.788-.106a10.225 10.225 0 0 0 7.344-4.73c2.163-3.826 1.051-8.534-1.34-11.955a21.193 21.193 0 0 0-13.84-8.518 34.13 34.13 0 0 1 4.255-.444zm-11.09-.523a53.838 53.838 0 0 1 6.924-.07 38.948 38.948 0 0 0-3.436.705 22.556 22.556 0 0 0-5.676.564.403.403 0 0 0-.474-.12l-2.89 1.041a34.93 34.93 0 0 0-4.715.635c-4.483.914-8.868 2.146-13.266 3.343-.858-.15-1.716-.303-2.581-.414 8.75-1.676 17.434-3.68 26.113-5.684zM82.38 10.699c9.205 1.282 18.11-.34 27.184-1.656-6.21 1.407-12.433 2.764-18.692 3.937-1.507.283-3.024.537-4.538.805A62.116 62.116 0 0 1 69.31 11.12c-.289-.083-.577-.178-.866-.268l-.819-.436a50.737 50.737 0 0 0-8.54-3.799c7.854.645 15.475 2.991 23.295 4.08zm-47.537-2.01c2.249-.526 4.547-1.076 6.864-1.496a78.5 78.5 0 0 0-9.204 2.91 112.603 112.603 0 0 0-12 5.301c3.905-3.654 9.123-5.496 14.34-6.715zM21.798 41.593a20.355 20.355 0 0 1-7.436-11.16c-.212-4.455.532-8.955 3.533-12.442a.226.226 0 0 0 .012-.022.506.506 0 0 0 .454-.2c.051-.069.107-.13.16-.197a112.013 112.013 0 0 1 13.825-6.355c5.072-1.91 10.4-3.716 15.85-4.03 10.05-.578 18.054 5.626 26.73 9.668a42.81 42.81 0 0 0-3.53 1.683c-6.145-3.325-12.438-6.692-19.354-8.065a34.681 34.681 0 0 0-19.85 1.955c-5.629 2.32-10.553 6.058-12.315 12.115a16.496 16.496 0 0 0 3.418 15.21c-.359.384-.713.77-1.051 1.166a3.64 3.64 0 0 0-.446.674zm.912 4.298a9.526 9.526 0 0 1-.329-2.63 22.582 22.582 0 0 0 10.664 3.736 25.886 25.886 0 0 0 14.387-3.2 77.842 77.842 0 0 0 6.985-4.4c2.104-1.428 5.777-4.797 8.425-4.424.012.002.022-.003.034-.002.737 3.52 2.437 6.712 2.321 10.388-11.282 9.56-27.374 10.985-40.795 5.297a.454.454 0 0 0-.18-.166c-.066-.034-.125-.074-.19-.108a30.572 30.572 0 0 1-1.322-4.491zm10.577 49.523c1.1-.09 2.771-.1 3.557.83 1.192 1.412-.195 3.165-1.134 4.17-.376.4-.745.758-1.094 1.113-1.042-1.958-2.173-3.872-3.217-5.83a16.434 16.434 0 0 1 1.888-.283zm-3.098 6.998a.911.911 0 0 0 .1.718c2.476 4.28 4.662 9.181 8.013 12.867 2.747 3.02 6.479 4.648 10.333 5.752 3.536 4.752 7.462 10.175 12.291 13.613 2.324 1.654 4.918 1.96 7.535 2.934 3.595 1.337 5.473 7.03 2.327 9.635-3.184 2.636-6.734.39-9.73-.925a1.01 1.01 0 0 0-.531-.073c-7.832-7.125-15.082-14.506-20.642-23.687-1.993-3.291-4.093-5.538-8.25-5.089a11.515 11.515 0 0 0-7.945 4.99 12.642 12.642 0 0 0-1.087 1.9c-2.93-3.304-3.763-7.672-3.95-11.982-.201-4.673.303-9.339 3.811-12.772a17.025 17.025 0 0 1 4.331-3.008 32.437 32.437 0 0 0 3.394 5.127zm.005-32.65a.51.51 0 0 0 .046.146 89.254 89.254 0 0 0-6.71-.4c-.993-.02-3.29-.422-4.586.017q2.394-9.006 5.145-17.91c.003-.01 0-.018.002-.028a43.841 43.841 0 0 0 8.78 2.625.445.445 0 0 0-.227.399c-.01 1.43-.78 2.658-.64 4.086.143 1.463 1.61 2.65.877 3.966-.623 1.118-1.592 1.85-2.124 3.1a7.628 7.628 0 0 0-.563 4zm2.378.418a.501.501 0 0 0-.104-.034c-.44-.052-.882-.095-1.323-.141a.43.43 0 0 0 .042-.242 7.774 7.774 0 0 1 2.117-6.115c.386-.438 1.052-.852 1.134-1.491.089-.693-.5-1.234-.796-1.782-1.074-1.985-.021-3.737-.006-5.764a.452.452 0 0 0-.091-.278 41.284 41.284 0 0 0 20.945-1.7c.518 1.586 1.164 3.188 1.562 4.807.575 2.34-.394 4.112-1.389 6.197a64.505 64.505 0 0 1-5.118 8.774l-.008-.005c-5.005-3.096-11.374-4.428-16.965-2.226zm7.093 11.873a6.173 6.173 0 0 0-2.923-1.572 4.455 4.455 0 0 1-.112-.907 5.866 5.866 0 0 1 1.556-3.948 37.506 37.506 0 0 1 6.342 2.457c6.271 2.81 8.245 13.306 10.963 19.296.289.636.59 1.274.913 1.9a11.396 11.396 0 0 0-2.212-1.55c-1.425-.492-1.725.216-2.994-1.36a9.9 9.9 0 0 1-.874-1.587 9.386 9.386 0 0 0-1.802-2.512 18.033 18.033 0 0 1-3.333-4.235 9.271 9.271 0 0 0-4.237-3.478 5.28 5.28 0 0 0-1.287-2.504zm92.614 41.043c-5.858 6.323-13.826 10.331-22.151 12.27-7.954 1.85-20.562 3.97-26.501-2.78-4.752-5.399-13.057-4.378-16.706-11.093l-.006-.009a.982.982 0 0 0-.226-.46c-7.584-8.573-17.342-15.218-22.412-25.632a37.054 37.054 0 0 1-3.011-9.361l-.058-.29a7.958 7.958 0 0 1 2.511 1.919c1.316 1.625 1.918 3.363 3.519 4.794 1.544 1.38 2.059 3.069 3.274 4.643.937 1.213 1.856 1.152 3.24 1.628 1.352.466 2.067 1.712 3.444 1.953a11.346 11.346 0 0 0 2.123 2.569c1.246 1.09 2.69 1.616 3.922 2.746 1.917 1.757 2.498 3.583 3.11 6.056a.951.951 0 0 0 .13.272v.004c1.345 7.42 8.814 10.554 14.997 13.355 7.86 3.56 16.104 3.886 24.576 4.637a.878.878 0 0 0 .651.24c14.633-.438 16.788-16.665 21.274-27.773 4.841-3.414 10.457 2.062 10.53 7.528.064 4.882-3.053 9.355-6.23 12.784zM56.383 31.25c.273.574-.583 1.077-.856.5a8.869 8.869 0 0 0-1.395-2.12c-.424-.476.276-1.18.701-.702a9.78 9.78 0 0 1 1.55 2.322zm-1.586 1.656c.132.624-.825.888-.957.264a8.737 8.737 0 0 0-1.246-2.716c-.334-.546.525-1.044.857-.5a9.556 9.556 0 0 1 1.346 2.952zm-3.68-2.356c.52 1.054 1.385 2.264 1.384 3.476a.496.496 0 0 1-.993 0 3.508 3.508 0 0 0-.532-1.526l-.716-1.449c-.282-.57.574-1.073.857-.5zm-1.728.987a8.385 8.385 0 0 1 .794 2.984c.049.638-.944.633-.993 0a7.03 7.03 0 0 0-.658-2.483c-.272-.575.584-1.078.857-.501zm-2.379 3.986a8.055 8.055 0 0 0-.705-3.33c-.26-.578.595-1.082.857-.501a9.25 9.25 0 0 1 .84 3.831.496.496 0 0 1-.992 0zm-3.546-2.035a17.065 17.065 0 0 0-.319 3.535.496.496 0 0 1-.992 0 18.366 18.366 0 0 1 .354-3.8c.124-.626 1.08-.359.957.265zm-2.42.416a8.711 8.711 0 0 0-.218 2.619c.04.638-.952.634-.993 0a9.634 9.634 0 0 1 .255-2.883c.149-.622 1.105-.357.956.264zm-1.547-.32a18.418 18.418 0 0 1-1.584 3.02c-.349.533-1.207.035-.857-.5a17.079 17.079 0 0 0 1.484-2.784c.242-.582 1.202-.325.957.264zm-2.066.38q-.973 1.116-1.836 2.318c-.369.515-1.23.019-.857-.501q.936-1.306 1.992-2.518c.42-.482 1.12.223.701.702zm-4.686.48q.895-.94 1.848-1.82c.469-.434 1.171.267.702.701q-.953.882-1.849 1.821c-.441.464-1.141-.239-.701-.701zm-.819 1.934l-2.275 1.801c-.496.392-1.202-.305-.702-.702l2.276-1.8c.495-.393 1.202.305.701.701zm1.824.27c-.23 1.22-1.2 2.09-1.508 3.272a.497.497 0 0 1-.957-.263c.309-1.185 1.28-2.069 1.508-3.272.119-.628 1.075-.36.957.263zm1.58 1.345a6.52 6.52 0 0 1-1.024 2.595c-.354.528-1.213.031-.857-.501a5.827 5.827 0 0 0 .924-2.358c.102-.63 1.058-.36.957.264zm2.015.282a6.867 6.867 0 0 1-.697 2.572c-.282.574-1.137.07-.856-.5a5.576 5.576 0 0 0 .561-2.072c.046-.634 1.039-.637.992 0zm1.813.248a7.807 7.807 0 0 1-.374 2.626c-.195.607-1.153.346-.957-.263a6.959 6.959 0 0 0 .339-2.363.496.496 0 0 1 .992 0zm1.744.333v1.584a.496.496 0 0 1-.992 0v-1.583a.496.496 0 0 1 .992 0zm1.916-.416v.5a.496.496 0 0 1-.992 0v-.5a.496.496 0 0 1 .992 0zm2-.334v.667a.496.496 0 0 1-.992 0v-.667a.496.496 0 0 1 .992 0zm1.758-.518c.522.363.025 1.222-.5.857a1.635 1.635 0 0 1-.661-.87c-.207-.607.752-.865.957-.264a.43.43 0 0 0 .204.277zm-18.24 1.866l-3.303 2.867c-.48.417-1.185-.282-.702-.702l3.304-2.867c.48-.416 1.185.283.702.702zm19.32-1.851a.496.496 0 0 1 0-.993.496.496 0 0 1 0 .993zm1.416-.667a.496.496 0 0 1 0-.992.496.496 0 0 1 0 .992zm9.636-2.274c.362.528-.498 1.023-.857.5a21.205 21.205 0 0 1-1.326-2.204c-.295-.566.562-1.067.857-.5a21.188 21.188 0 0 0 1.326 2.204zm.649-2.35a3.047 3.047 0 0 0 .5 1.194c.364.528-.497 1.023-.857.5a3.744 3.744 0 0 1-.6-1.43c-.12-.625.836-.89.957-.263zm58.944 62.02a.496.496 0 0 1 0-.992.496.496 0 0 1 0 .992zm15.938-32.517a.496.496 0 0 1 0 .992.496.496 0 0 1 0-.992zm.312 23.65a.496.496 0 0 1 0 .992.496.496 0 0 1 0-.992zm.25-1.57a.496.496 0 0 1 0-.993.496.496 0 0 1 0 .992zm-5.125-6.305a.496.496 0 0 1 0 .992.496.496 0 0 1 0-.992zm-3.625-3.25a.496.496 0 0 1 0 .992.496.496 0 0 1 0-.992zm14.313 12.437a.496.496 0 0 1 0 .992.496.496 0 0 1 0-.992zm-6.875-12.837a.496.496 0 0 1 0 .992.496.496 0 0 1 0-.992zm4.875 1.055a.496.496 0 0 1 0-.993.496.496 0 0 1 0 .993zm.25 5.445a.496.496 0 0 1 0 .992.496.496 0 0 1 0-.992zm2.062-1.188a.496.496 0 0 1 0 .993.496.496 0 0 1 0-.993zm.5-1.007a.496.496 0 0 1 0-.993.496.496 0 0 1 0 .993zm2.563.187a.496.496 0 0 1 0-.992.496.496 0 0 1 0 .992zm-10-2.43a.496.496 0 0 1 0 .993.496.496 0 0 1 0-.993zm5.5 10.08a.496.496 0 0 1 0-.992.496.496 0 0 1 0 .992zm-.625 5.758a.496.496 0 0 1 0 .992.496.496 0 0 1 0-.992zm-18.875 4.375a.496.496 0 0 1 0 .992.496.496 0 0 1 0-.992zM72.62 84.563c-.1-.626.857-.893.956-.264.038.237.224.804.503.46a1.734 1.734 0 0 0 .12-1.11.436.436 0 0 1 .007-.064.431.431 0 0 1 .01-.087.383.383 0 0 1 .041-.112.423.423 0 0 1 .03-.045.373.373 0 0 1 .071-.071.502.502 0 0 1 .82.214 6.019 6.019 0 0 0 .641.648c.223-.075.098-.936.085-1.077a.396.396 0 0 1 .244-.43.416.416 0 0 1 .666.15c.105.236.545.55.807.397.264-.155.147-.56.084-.8v-.016a.527.527 0 0 1 .733-.593 1.479 1.479 0 0 0 1.019.243c.476-.163.08-.405-.162-.544a.463.463 0 0 1-.175-.145.404.404 0 0 1-.031-.057.47.47 0 0 1 .4-.739l.07.004.013.001a1.285 1.285 0 0 0 .864-.137c.375-.3-.084-.5-.363-.603a.49.49 0 0 1-.08-.049.46.46 0 0 1-.059-.036.49.49 0 0 1-.062-.053c-.279-.27-.204-.816.228-.84a.373.373 0 0 1 .053-.006c.008 0 .014-.004.023-.003.285.026.908.092.83-.388-.058-.352-.483-.401-.769-.415a.51.51 0 0 1-.24-.939.436.436 0 0 1 .397-.217c.203.002.94.043 1.085-.157.182-.253-.245-.558-.49-.577a.492.492 0 0 1-.358-.186c-.271-.29-.167-.873.326-.833a1.485 1.485 0 0 0 1.193-.331c.39-.44-.322-.86-.73-.664a.518.518 0 0 1-.7-.664.402.402 0 0 1 .162-.356 1.899 1.899 0 0 0 .555-.68.814.814 0 0 0 .111-.363c-.023-.133.009-.055-.145-.125-.632-.287-1.03.452-1.275.911a.495.495 0 0 1-.954-.167c.01-.375.183-1.41-.15-1.673-.554-.438-.94.67-.98 1.017-.072.628-1.064.633-.991 0 .117-1.021.754-2.272 1.99-2.05a1.336 1.336 0 0 1 1.095 1.31 1.711 1.711 0 0 1 1.88-.186c.852.392.572 1.377.101 2.087a1.462 1.462 0 0 1 1.219 1.274 1.513 1.513 0 0 1-1.064 1.404 1.35 1.35 0 0 1 .239.895 1.07 1.07 0 0 1-.792.93 1.285 1.285 0 0 1 .28.763 1.184 1.184 0 0 1-.603 1.13 1.047 1.047 0 0 1 .12.995 1.357 1.357 0 0 1-.938.85 1.01 1.01 0 0 1-.167 1.137 1.498 1.498 0 0 1-1.662.394 1.291 1.291 0 0 1-.711 1.166 1.485 1.485 0 0 1-1.172-.014 1.152 1.152 0 0 1-.808 1.042 1.05 1.05 0 0 1-.94-.323 1.272 1.272 0 0 1-.894 1.04 1.39 1.39 0 0 1-1.606-1.273zm20.075-28.554a3.42 3.42 0 0 1 .343-.242 1.888 1.888 0 0 1-.496-1.669 1.177 1.177 0 0 1 1.1-.977 1.448 1.448 0 0 1 .106-1.21 1.66 1.66 0 0 1 1.134-.773 1.726 1.726 0 0 1 .017-1.208 1.944 1.944 0 0 1 1.825-1.272 2.66 2.66 0 0 1-.012-.97 1.478 1.478 0 0 1 .738-.962 1.37 1.37 0 0 1 2.084.638.497.497 0 0 1-.957.264c-.062-.237-.392-.154-.556-.082a.533.533 0 0 0-.349.425 4.337 4.337 0 0 0 .082 1.127.432.432 0 0 1-.012.273.484.484 0 0 1-.504.378c-.013 0-.025-.006-.038-.007a.526.526 0 0 1-.156-.038c-.008-.003-.016-.002-.024-.005-.96-.447-1.595 1.098-.974 1.374.146.013.289.03.421.053.513.091.424.735.037.913a.457.457 0 0 1-.265.083 1.476 1.476 0 0 1-.46-.08 1.55 1.55 0 0 0-1.087.243c-.349.364-.023.834.292 1.09l.03.013a.411.411 0 0 1 .229.507c-.035.338-.362.637-.704.384-.02-.015-.038-.033-.058-.048-.391-.185-1.06-.335-.968.328a1.177 1.177 0 0 0 .698.89.43.43 0 0 1 .332.35c.1.336-.125.745-.519.632a.849.849 0 0 0-.828.77c.003.215-.033.495.208.604a2.168 2.168 0 0 0 .647.006.49.49 0 0 1 .453.658.514.514 0 0 1-.102.219c-.232.29-.33.804.05 1.023.42.242.628-.257.76-.565.25-.586 1.105-.08.857.5a1.472 1.472 0 0 1-2.231.853 1.512 1.512 0 0 1-.544-1.702 1.085 1.085 0 0 1-.688-.28 1.862 1.862 0 0 1-.402-1.315 1.356 1.356 0 0 1 .49-1.193zm-19.707 68.427a.496.496 0 0 1 0-.992.496.496 0 0 1 0 .992z" fill="#010101"/></svg>