<svg xmlns="http://www.w3.org/2000/svg" viewBox="0 0 160 160"><title>_mares-and-delusions-icon</title><path d="M82.32 83.889c.765-.528 1.38-1.454 2.446-1.078.6.21.34 1.169-.263.956-.63-.22-1.218.658-1.682.978-.528.364-1.024-.497-.501-.856zm.89 2.167a4.887 4.887 0 0 1 2.015-.407.496.496 0 0 0 0-.992 6.069 6.069 0 0 0-2.515.542c-.583.257-.078 1.113.5.857zm49.343-19.214c-1.198.233-2.169 1.072-3.38 1.245-.63.09-.362 1.046.264.956 1.215-.173 2.184-1.012 3.38-1.244.626-.122.36-1.078-.264-.957zm2.38 2.628a5.146 5.146 0 0 0 2.86-.66c.557-.311.058-1.169-.5-.857a4.179 4.179 0 0 1-2.36.525c-.637-.04-.635.952 0 .992zm-2.526-.59a4.762 4.762 0 0 1-2.661.811.496.496 0 0 0 0 .992 5.73 5.73 0 0 0 3.162-.946c.53-.35.034-1.21-.501-.857zM88.43 88.43a1.345 1.345 0 0 0 .518-.243c.067-.048.337-.348.422-.29.528.362 1.025-.497.501-.857a.919.919 0 0 0-.843-.097c-.33.11-.534.455-.862.53-.622.14-.359 1.098.264.956zm-7.015 3.087a4.707 4.707 0 0 1 2.014-1.09.497.497 0 0 0-.264-.956 5.78 5.78 0 0 0-2.452 1.344c-.472.432.231 1.132.702.702zm6.317-6.752a2.073 2.073 0 0 1 1.075-.37c.636-.034.64-1.026 0-.992a3.09 3.09 0 0 0-1.576.505c-.53.35-.034 1.21.501.857zm-2.69 4.958q.907-.443 1.831-.845c.584-.254.08-1.109-.5-.856q-.925.402-1.831.844c-.574.28-.071 1.136.5.857zm-.89-1.719a2.47 2.47 0 0 1 1.822-.682.496.496 0 0 0 0-.993 3.481 3.481 0 0 0-2.523.974c-.465.44.238 1.14.702.701zm3.114-5.125a1.018 1.018 0 0 1 1.068-.458c.623.128.89-.828.263-.956a2.045 2.045 0 0 0-2.188.913c-.346.54.513 1.037.857.501zm.921 3.33a1.027 1.027 0 0 1 .952-.37c.636.05.633-.942 0-.992a2.021 2.021 0 0 0-1.809.862c-.386.508.475 1.002.857.5zm-7.055 3.606a1.977 1.977 0 0 1 1.131-.879c.609-.188.35-1.146-.263-.956a3.03 3.03 0 0 0-1.724 1.334c-.336.545.522 1.044.856.5zm-.766-1.338a2.068 2.068 0 0 1 1.362-.781c.627-.073.634-1.066 0-.992a3.052 3.052 0 0 0-2.064 1.071c-.406.488.293 1.193.702.702zm58.405-48.66c-.69 2.208-3.307 2.665-5.328 2.296-2.547-.465-3.077-3.213-2.282-5.335.85-2.265 2.612-2.77 4.74-2.483a.86.86 0 0 1 .268.039c.092.015.18.022.273.04a.804.804 0 0 1 .65.533 4.652 4.652 0 0 1 1.68 4.91zm-1.8-1.203a2.916 2.916 0 0 0-1.418-2.386c-1.166-.174-2.072-.033-2.548 1.28-.499 1.375-.193 2.693 1.445 2.7 1.187.004 2.5-.143 2.522-1.594zm-17.065 24.742c-.291-.568-1.147-.067-.857.501a8.401 8.401 0 0 0 .703 1.15c.226.308.703.69.688 1.092-.024.639.968.638.992 0a1.918 1.918 0 0 0-.588-1.296 8.223 8.223 0 0 1-.938-1.447zm4.968.93c.492.398 1.198-.3.701-.701a18.888 18.888 0 0 1-2.679-2.641c-.408-.492-1.107.213-.701.701a18.881 18.881 0 0 0 2.679 2.641zm-5.795-6.894c-.49-.4-1.197.298-.702.702a8.684 8.684 0 0 1 1.558 1.633c.37.512 1.232.018.857-.5a9.61 9.61 0 0 0-1.713-1.835zm-1.973 4.218a7.67 7.67 0 0 1-1.08-1.248c-.36-.523-1.22-.027-.857.5a8.862 8.862 0 0 0 1.236 1.45c.465.436 1.168-.264.701-.702zm.51-2.683c-.564-.296-1.066.56-.5.857a2.196 2.196 0 0 1 .75.903 6.384 6.384 0 0 0 .852 1.066c.45.455 1.151-.246.702-.701-.64-.65-.972-1.689-1.803-2.125zm3.277 4.148a13.159 13.159 0 0 1 1.917 1.89c.406.494 1.105-.212.701-.7a13.15 13.15 0 0 0-1.917-1.892c-.493-.396-1.2.302-.701.702zm-3.204 3.528c-.072.633.921.628.992 0 .125-1.11-.993-1.607-1.16-2.59-.107-.629-1.064-.362-.957.263a2.513 2.513 0 0 0 .56 1.123c.284.364.62.71.565 1.204zm16.869 1.185a5.254 5.254 0 0 0 2.874-.827c.536-.343.04-1.202-.501-.857a4.277 4.277 0 0 1-2.373.691.496.496 0 0 0 0 .993zm-26.51-1.319c.19.608 1.147.349.958-.263a6.127 6.127 0 0 0-.891-1.8c-.372-.512-1.233-.017-.857.501a5.31 5.31 0 0 1 .79 1.562zm36.217-2.912a12.676 12.676 0 0 0 2.526-1.063c.558-.31.058-1.167-.501-.857a11.437 11.437 0 0 1-2.289.964.497.497 0 0 0 .264.956zm-8.4 2.368a3.196 3.196 0 0 0 .673-.448 1.873 1.873 0 0 1 1.03-.49c.63-.096.362-1.052-.264-.956a2.54 2.54 0 0 0-1.393.675 2.143 2.143 0 0 1-1.725.502c-.633-.074-.628.919 0 .992a3.03 3.03 0 0 0 1.68-.276zm8.755.812c1-.15 1.874-.776 2.885-.85.633-.047.638-1.04 0-.993-1.116.083-2.055.722-3.148.886-.63.095-.362 1.051.263.957zm-37.307-4.839a3.972 3.972 0 0 1-.736-1.805c-.092-.63-1.048-.362-.956.263a4.587 4.587 0 0 0 .835 2.043c.372.512 1.233.017.856-.5zm-26.635 33.9c.97-2.54 3.504-3.605 5.908-4.351 4.103-1.275 14.248-4.314 15.94-2.622 2.488 2.488 4.761 5.915 1.91 8.786-2.017 2.03-5.877 2.955-8.402 4.02-2.988 1.26-6.616 3.552-9.985 3.257-4.014-.351-6.796-5.357-5.37-9.09zm21.13 1.336a3.383 3.383 0 0 0 .536-.423 4.844 4.844 0 0 0 .534-.647 1.962 1.962 0 0 0-.89.122c-.27.185-.208.67-.18.948zm-2.772.568a4.192 4.192 0 0 0 .005.644c.39-.133.789-.275 1.176-.427a.974.974 0 0 1-.092-.066.411.411 0 0 1-.093-.062c-.193-.194-.475-.551-.76-.621a.271.271 0 0 0-.13.004.853.853 0 0 0-.054.15 2.905 2.905 0 0 0-.052.378zm-1.63-6.816c.198.469.457.98.762.997.433.025.788-.373.544-.747a.884.884 0 0 1-.146-.527l-1.16.277zm-1.734 7.447c.015.229.035.593.037.618.018.233.043.465.064.698a43 43 0 0 1 1.336-.605c-.008-.02-.024-.03-.031-.052-.246-.675-.778-.694-1.38-.671-.009.002-.016.01-.026.012zm-1.868-6.586c.232.559.565 1.134 1.158 1.12.807-.018.67-.882.505-1.517zm-1.536 8.6c.046.298.118.579.169.865.473-.21.944-.429 1.412-.65-.003-.008-.008-.012-.01-.02-.11-.407-.598-2.287-1.334-1.69-.33.268-.293 1.127-.237 1.495zm-1.791-7.804L91 93.589c.129.257.283.517.402.779l.063.1a.299.299 0 0 1 .07-.026c.681-.472.556-1.425.344-2.216l-.006-.017-1.396.334zm-1.793 8.204c.031.468.109.929.185 1.39a1.031 1.031 0 0 1-.012.338 14.778 14.778 0 0 0 1.591-.468c-.386-.686-.842-1.656-1.512-1.917-.089-.034-.24-.021-.273-.057a3.358 3.358 0 0 0 .021.714zm-2.831-7.09a.94.94 0 0 1 .17.2c.332.603.661 1.207.994 1.81.228.41.36.788.93.528 1.05-.48.43-2.292.03-3.118a17.879 17.879 0 0 0-2.124.58zm-.856 8.636a3.973 3.973 0 0 0 1.982.56c-.249-.576-.546-1.465-1.184-1.723-.798-.321-.83.61-.798 1.163zm-2.296-5.907a10.89 10.89 0 0 0 .933.624 1.142 1.142 0 0 0 .368.184c.006-.012.019-.03.043-.076a3.346 3.346 0 0 0-.021-2.172 1.498 1.498 0 0 0-1.323 1.44zm60.868-31.167a29.462 29.462 0 0 0 3.314-.94c.599-.21.341-1.168-.264-.957a29.456 29.456 0 0 1-3.314.94c-.623.138-.36 1.095.264.957zM76.696 90.614a17.195 17.195 0 0 0 2.082-1.318c.508-.375.014-1.237-.5-.857a17.196 17.196 0 0 1-2.083 1.318c-.563.303-.062 1.16.5.857zm1.125 3.475a5.33 5.33 0 0 1 1.397-1.183.496.496 0 0 0-.501-.857 6.134 6.134 0 0 0-1.598 1.338c-.41.485.289 1.19.701.702zm-.115-59.557a1.018 1.018 0 0 0 1.358.356 1 1 0 0 0 .356-1.357 12.044 12.044 0 0 0-2.325-2.522 1.022 1.022 0 0 0-1.403 0 1 1 0 0 0 0 1.403 10.306 10.306 0 0 1 2.014 2.12zm-1.69 54.482a4.705 4.705 0 0 1 1.677-1.41c.567-.293.066-1.15-.501-.857a5.774 5.774 0 0 0-2.032 1.766c-.377.517.484 1.012.857.5zm1.293 3.397a6.487 6.487 0 0 1 1.665-1.327c.558-.311.058-1.168-.5-.856a7.33 7.33 0 0 0-1.867 1.482c-.427.472.272 1.176.702.701zM73.192 9.776a32.462 32.462 0 0 1 3.174 3.772.49.49 0 0 0 .443.69.477.477 0 0 0 .128-.025.55.55 0 0 0 .672-.167c6.064-.901 12.083-2.455 18.236-2.146 6.685.336 13.368.048 19.551 2.954.575.27 1.079-.585.5-.857-6.16-2.895-12.437-2.634-19.092-3.035-6.66-.4-12.992 1.18-19.538 2.14a34.08 34.08 0 0 0-3.173-3.809.464.464 0 0 0 .08-.259 9.613 9.613 0 0 1 .402-2.688.497.497 0 0 0-.956-.264 10.614 10.614 0 0 0-.437 2.952.456.456 0 0 0 .013.066.468.468 0 0 0-.003.676zm29.82 71.498c-1.002.22-2.012.395-3.031.518-.626.076-.634 1.069 0 .993a34.927 34.927 0 0 0 3.295-.554c.624-.137.36-1.094-.264-.957zm-22.087 3.725a4.253 4.253 0 0 0-2.305 1.222c-.448.455.253 1.157.702.702a3.354 3.354 0 0 1 1.866-.967c.628-.11.362-1.066-.263-.957zM18.767 63.694c-1.895-.705-4.306-1.257-5.872-2.517-.491-.395-1.416-2.67-2.056-4.115L9.45 55.936a.394.394 0 0 1-.058-.59.479.479 0 0 1-.023-.093c-.416-9.264.924-18.506.334-27.767a.442.442 0 0 1 .058-.25.467.467 0 0 1 .465-.58 12.003 12.003 0 0 0 1.35-.013c.088-1.378.158-3.196 1.64-3.487 2.515-.494 5.935.37 8.455 1.023.036-.51.052-1.023.041-1.542a3.234 3.234 0 0 1-1.471-3.082 2.526 2.526 0 0 1 2.424-1.877 19.62 19.62 0 0 1 .243-4.96c.21-.976.56-2.428 1.6-2.863 2.764-1.154 3.493 3.026 3.534 5.022 1.179.17 3.008.803 2.237 2.124-.172.294-.504.357-.73.57-1.454 1.37-1.184 2.12-.95 3.869.095.703.18 1.397.237 2.093 1.734-.284 3.472-.553 5.203-.856 2.281-.4 3.362-.786 4.891-2.691.723-.9 1.166-1.543 2.07-1.815a4.995 4.995 0 0 1-1.839-1.684 2.872 2.872 0 0 1-.104-2.208c.534-1.587 1.61-1.518 2.685-2.45 1.583-1.375.424-4.763 3.13-4.721.835.012 2.619.133 3.279.76a2.396 2.396 0 0 1 .592 1.461c.03-.083.058-.166.087-.25a25.269 25.269 0 0 1 1.24-3.042c.283-.573 1.139-.07.857.5a23.253 23.253 0 0 0-1.14 2.806 8.393 8.393 0 0 0-.589 2.27 4.488 4.488 0 0 1 2.046.3 20.36 20.36 0 0 1 1.007-2.675l1.56-3.962c.23-.589 1.19-.33.956.263l-1.351 3.435a14.366 14.366 0 0 0-1.304 3.625.476.476 0 0 1-.014.046 2.06 2.06 0 0 1 .239 1.188c-.08 1.222-1.048 1.657-1.805 2.434-.835.858-.767.582-.672 1.988.05.76.212 1.536.33 2.306.793-.064 1.58-.066 2.227-.102 2.418-.135 4.836-.258 7.255-.385a4.043 4.043 0 0 1 .155-2.524.516.516 0 0 1-.235-.525c.67-4.223 2.49-8.47 3.772-12.546.191-.608 1.149-.347.957.264-1.153 3.666-2.736 7.473-3.53 11.276a4.287 4.287 0 0 1 6.275-.166c.333-3.858 1.96-7.336 2.6-11.196.104-.629 1.06-.36.956.264a40.646 40.646 0 0 1-1.21 4.845.505.505 0 0 1 .174.481.401.401 0 0 1 .232.151 81.655 81.655 0 0 1 5.877 8.565c6.655-.706 13.225-2.031 19.886-2.825 4.813-.573 9.801-.861 14.631-1.027 2.397-.082 3.61.458 5.757 1.52 1.944-2.156 4.104-3.393 6.003-5.59 1.018-1.177 2.155-3.113 3.746-3.599 2.541-.775 6.266.782 8.92.824a14.85 14.85 0 0 1 6.085.968 1.077 1.077 0 0 1 .17 1.647c-6.343 5.417-12.597 10.879-18.005 17.255-.014.017-.03.02-.045.036a38.259 38.259 0 0 1 .898 3.929c2.588-2.717 5.864-4.723 8.607-7.32q5.203-4.925 10.074-10.18c.436-.469 1.136.234.702.701q-4.881 5.244-10.074 10.181c-2.904 2.749-6.512 4.919-9.135 7.894a12.851 12.851 0 0 1-.042 3.44c-.777 4.64-6.178 9.757-9.156 13.161a.917.917 0 0 1-.19.145c.012.1.029.198.033.3.079 2.006-1.319 2.517-2.8 2.334.455 1.378.527 2.871-.814 3.57a2.036 2.036 0 0 1-1.652.108 2.44 2.44 0 0 1-.117.656c-.564 1.632-2.68 1.231-4.027 1.023a.819.819 0 0 1-.493-.26 1.012 1.012 0 0 1-.655-.594c-1.137-2.754-4.61-5.742-2.523-8.975a7.687 7.687 0 0 1 7.087-3.004 8.156 8.156 0 0 1 5.128 2.865c3.565-4.02 8.296-8.728 7.956-14.502-.143-2.428-4.466-13.61-7.013-15.428s-7-.795-10.795-.693a104.987 104.987 0 0 0-12.565 1.191c-7.225 1.068-14.353 2.422-21.664 2.664a66.715 66.715 0 0 1 2.383 4.366.983.983 0 0 1 .06.223 112.137 112.137 0 0 1 5.093-2.192c2.41-.74 5.927 4.582 7.502 6.522.24.297.511.565.768.846a.928.928 0 0 1 .272-.04c4.145.234 8.287.355 12.44.298 4.116-.056 8.674.252 12.185-2.222 1.047-.737 2.038.984 1.002 1.714a11.154 11.154 0 0 1-.95.592 1.085 1.085 0 0 1-.197.2c-1.743 1.343-3.455 2.797-5.282 4.025-1.427.96-3.08 1.426-4.54 2.319-2.642 1.615-4.448 3.981-7.648 4.5a.97.97 0 0 1-.132-.005 1.027 1.027 0 0 1-1.527.218c-1.41-1.218-2.818-2.45-4.153-3.75-3.402 2.152-6.27 5.063-9.218 7.778-.47.432-1.173-.269-.702-.702 2.953-2.719 5.827-5.615 9.214-7.799a31.164 31.164 0 0 1-2.625-2.984c-2.163-2.859-3.308-6.346-5.757-8.995a.941.941 0 0 1-.246-.551 110.715 110.715 0 0 0-17.279 8.738c4.819 2.987 4.738 11.642 5.756 16.548 1.128 5.431 2.866 8.744-3.547 9.227.138.495.287.99.451 1.487.404 1.217-1.513 1.734-1.913.527-1.446-4.359-1.65-8.667-2.555-13.106-.819-4.017-2.469-7.549-2.457-11.63-2.592.448-7.038 1.507-8.197-1.36a2.088 2.088 0 0 1 .23-2.226 1.913 1.913 0 0 1-.877-1.393 2.106 2.106 0 0 1 .055-.894 2.923 2.923 0 0 1-1.482-1.692 2.126 2.126 0 0 1-.108-.92 2.155 2.155 0 0 1-.923-1.358c-.448-1.715.689-2.768 2.06-3.364a1.83 1.83 0 0 1 .37-2.773 4.174 4.174 0 0 1 2.07-.865 29.896 29.896 0 0 0-.757-4.032.499.499 0 0 1 .228-.56 6.535 6.535 0 0 0 1.35-.682q.915-3.828-1.781-2.685c-.277.059-.673-.136-.628-.478.232-1.78.22-4.3-2.175-4.057-1.972.2-1.467 1.503-1.784 2.88a1.823 1.823 0 0 1-.816 1.36 5.153 5.153 0 0 1-.724.316 2.31 2.31 0 0 0-1.268.86q-1.45.687-.149 2.017c.596 1.464.943 1.367 1.78 2.312a4.607 4.607 0 0 1 .988 2.051c.467 1.99-.119 4.064-.093 6.076a.44.44 0 0 1 .135.346c-.108 3.477.387 7.506-1.555 10.579-1.457 2.304-4.103 5.135-7.028 5.313-7.788.475-7.018-10.93-7.049-15.935a.473.473 0 0 1-.024-.21c.232-2.44-.837-4.957-.495-7.332a2.23 2.23 0 0 1 .487-1.237c.16-.198.61-.38.726-.584.46-.8-.156-1.177-1.101-1.183a.493.493 0 0 1-.422-.73 7.933 7.933 0 0 0-.31-2.822c-.345-1.002-1.82-1.811-2.445-.675a4.674 4.674 0 0 0-.374 1.137 18.992 18.992 0 0 0-.253 5.343.435.435 0 0 1-.14.36.441.441 0 0 1-.39.21c-.839-.003-1.946.32-1.935 1.338a2.303 2.303 0 0 0 1.182 1.922.483.483 0 0 1 .168.171.47.47 0 0 1 .15.336c.154 4.239-1.51 8.071-1.583 12.247a.479.479 0 0 1-.07.24c0 .006.003.01.003.015q-.281 6.545-.52 13.093a22.269 22.269 0 0 0 .334 6.25c.469 1.908 1.165 3.785 1.752 5.658a.423.423 0 0 1-.1.444 38.63 38.63 0 0 0 1.08 8.645c.61 2.195 1.599 4.19 1.715 6.497a.498.498 0 0 1-.974.132c-.723-2.586-4.436-1.553-5.22-4.346a19.341 19.341 0 0 1-.251-4.453zm93.529-13.946a4.907 4.907 0 0 0-.97-1.157 5.654 5.654 0 0 0-2.128-1.163 5.576 5.576 0 0 0-4.628.723c-3.487 2.154-.25 5.417 1.097 8.05h.01c2.25.347 1.188-1.597.635-2.885-.495-1.151 1.173-2.17 1.714-1.001.298.644.764 1.948 1.596 1.628.866-.333-.266-1.82-.634-2.422a1 1 0 0 1 1.358-1.358q.939.987 1.95-.415zM67.995 17.09a3.882 3.882 0 0 1 .238.531 3.723 3.723 0 0 1 .138 1.687c.059.093.111.19.17.285a.94.94 0 0 1 .52-.174 79.49 79.49 0 0 0 5.53-.357 79.544 79.544 0 0 0-5.475-7.96.509.509 0 0 1-.06-.12 22.722 22.722 0 0 0-1.061 6.108zm-4.876 3.71a20.374 20.374 0 0 1 1.403 2.028 26.841 26.841 0 0 1 2.434 5.592q.862-.444 1.732-.875l-1.838-3.798a9.583 9.583 0 0 1-1.264-2.734 3.148 3.148 0 0 1 .141-1.035c.133-.76.386.202.367-1.296-.02-1.567-1.188-2.134-2.642-1.754-2.863.75-1.485 2.367-.333 3.872zm-13.613 1.883l-.222 1.076c.805.304 1.07 1.745 0 1.913a2.167 2.167 0 0 0-.528-.013v.013l-.026-.01c-.555.07-.596.48-.115 1.234.09-.018.18-.034.267-.048 1.024-.165 1.857 1.289.765 1.813a8.746 8.746 0 0 1-1.047.422 4.834 4.834 0 0 0 1.707.832c.106-.008.21-.014.31-.018 1.193-.042 1.25 1.581.264 1.95-.09.033-.192.05-.286.078-.248.446-.249.717.007.808a5.081 5.081 0 0 1 .769-.034c1.244.129 1.298 2.029 0 1.984-.17-.017-.353-.032-.542-.048q-1.55-.052.667 1.404.69-.061 1.379-.148c.983-.111 1.966-.233 2.949-.351a.952.952 0 0 1 .446-.858q4.343-2.88 8.91-5.323c-.646-2.175-1.625-5.585-3.467-7.048a8.34 8.34 0 0 0-.735-.505.953.953 0 0 1-.55.213l-5.722.304c-.953.05-1.91.087-2.862.152q-1.173.048-2.338.208zM31.202 33.838c-.105 2.39 1.145 4.044 3.632 4.198 2.729.17 4.276-1.628 3.54-4.323-.486-1.783-1.485-3.446-3.306-3.97a.464.464 0 0 1-.18.017c-2.255-.245-3.599 2.107-3.686 4.078zm37.726 6.601a4.754 4.754 0 0 0-.838-2.217 10.331 10.331 0 0 1-1.271-1.947c-.456-1.179-2.375-.667-1.914.527a8.122 8.122 0 0 0 1.092 1.895 3.98 3.98 0 0 1 .946 1.742c.138 1.256 2.124 1.27 1.985 0zm6.863 7.724c-.077-.626-1.07-.633-.993 0 .162 1.317-.914 2.946-1.84 3.836a6.305 6.305 0 0 1-3.373 1.55c-.628.11-.362 1.066.263.957a6.98 6.98 0 0 0 4.053-2.056c.993-1.098 2.078-2.748 1.89-4.287zm-11.434 24.74c-.975.7-1.902 1.475-2.846 2.216-1.004.787.41 2.182 1.403 1.403.874-.685 1.73-1.412 2.642-2.044a19.716 19.716 0 0 0 2.121-1.358c1.28-1.154 1.462-3.865 3.15-4.464 1.195-.424.68-2.342-.527-1.914-1.99.707-2.283 2.334-3.278 3.975-.654 1.08-1.675 1.477-2.665 2.187zm8.44-32.221a19.205 19.205 0 0 0 4.093-2.776.467.467 0 0 1 .346-.434c.063-.018.125-.028.188-.043.013-.013.028-.024.042-.037a.46.46 0 0 1 .606-.047 2.59 2.59 0 0 1 2.575 3.604c-.64 1.495-2.498 2.602-3.685 3.627-.96.827-2.101 2.22-3.414 2.49-2.277.47-3.809-2.031-3.196-4.034a4.146 4.146 0 0 1 2.446-2.35zm-1.464 3.94a18.83 18.83 0 0 1 1.058-.929 6.379 6.379 0 0 1-.611-1.088 2.128 2.128 0 0 0-.528 1.467 2.367 2.367 0 0 0 .081.55zm2.482 1.184a51.353 51.353 0 0 1-.871-1.286c-.381.317-.753.64-1.1.983a1.82 1.82 0 0 0 1.971.303zm2.26-1.772a11.668 11.668 0 0 1-1.03-1.076c-.453.307-.899.62-1.33.946q.454.69.931 1.364c.485-.4.956-.82 1.429-1.234zm3.47-3.912c-.478.303-.97.605-1.46.908l.493.845a8.583 8.583 0 0 0 .74-.693 6.42 6.42 0 0 0 .227-1.06zm-2.571-.989l.61 1.044c.635-.393 1.267-.783 1.879-1.179-.222-.541-.754-.755-1.612-.625-.283.265-.582.51-.877.76zm-1.09 3.277a11.088 11.088 0 0 0 .945.974c.33-.282.656-.568.985-.85l-.572-.978c-.454.282-.909.563-1.359.854zm-1.178-1.639c.174.298.363.584.562.861.488-.316.983-.62 1.476-.927l-.551-.942c-.383.291-.767.579-1.177.835-.097.06-.206.116-.31.173zm-.884.456a11.983 11.983 0 0 0-1.224.662 3.634 3.634 0 0 0 .567 1.193c.413-.312.843-.608 1.275-.9a11.88 11.88 0 0 1-.618-.955zm-41.101-7.313a1.84 1.84 0 0 1 2-1.824.504.504 0 0 1 .135.042c.013 0 .022-.006.036-.005a2.054 2.054 0 0 1 1.867 2.031 1.788 1.788 0 0 1-2.027 1.795 2.1 2.1 0 0 1-2.011-2.04zm2.01 1.046c.596.06 1.118-.262 1.03-.907a1.037 1.037 0 0 0-.87-.934.502.502 0 0 1-.142-.04c-.01 0-.017.004-.028.003-1.358-.135-1.227 1.753.01 1.878zm104.761 33.304c1.294.118 2.213-.84 3.403-1.128.62-.15.357-1.106-.264-.957-1.075.26-1.995 1.197-3.139 1.092-.636-.058-.632.935 0 .993zm-22.986-12.642a5.028 5.028 0 0 0-.365-.649c-.345-.403-.78-.629-1.067-1.105a.496.496 0 0 0-.856.5 4.037 4.037 0 0 0 .514.691c.187.199.442.331.624.527a5.868 5.868 0 0 1 .383.672 3.17 3.17 0 0 0 .643.679c.496.392 1.202-.306.702-.702a2.442 2.442 0 0 1-.578-.613zM90.764 82.303a7.15 7.15 0 0 0 2.458-1.438c.5-.396-.206-1.093-.702-.701a5.906 5.906 0 0 1-2.02 1.183.496.496 0 0 0 .264.956zm7.156-24.022a.901.901 0 0 0-.998-.459c-.705-.22-1.6.272-1.257 1.126l1.48 3.686c.389.967.75 2.126 2.05 1.682a1.014 1.014 0 0 0 .693-1.22 18.77 18.77 0 0 0-1.968-4.815zm-1.896 25.357a17.904 17.904 0 0 1 2.037-.286c.632-.052.638-1.045 0-.992a20.246 20.246 0 0 0-2.3.321c-.626.125-.362 1.081.263.957zm-.817-3.037a10.596 10.596 0 0 0 2.01-.945c.544-.332.046-1.19-.501-.857a9.337 9.337 0 0 1-1.773.845c-.599.21-.341 1.17.264.957zm1.225 4.667l2.019-.507a.497.497 0 0 0-.264-.957l-2.02.508a.496.496 0 0 0 .265.956zm-8.114-15.924a3.12 3.12 0 0 0-2.029 2.12 2.479 2.479 0 0 0-2.178-.277 3.448 3.448 0 0 0-3.48 1.726c-.907 1.679-.342 3.543.316 5.195a1.068 1.068 0 0 0 1.384.587 1.04 1.04 0 0 0 1.588-1.056c-.202-1.047-.857-4.116.7-4.43 1.378-.276 1.964 1.867 2.456 2.89.485 1.012 2.161.302 1.813-.764-.309-.946-1.352-3.082-.356-3.81q.463-.537 1.156-.032a1.001 1.001 0 0 1 1.222.838 11.634 11.634 0 0 1 1.088 1.93.993.993 0 0 0 1.713-1.001c-1.227-2.18-2.346-5.205-5.393-3.916zm4.94 12.417a20.51 20.51 0 0 0-2.611 1.311.496.496 0 0 0 .5.857 18.757 18.757 0 0 1 2.376-1.211c.58-.244.325-1.204-.264-.957zm.694 1.43q-1.293.748-2.537 1.575c-.53.352-.033 1.211.5.857q1.245-.827 2.537-1.576a.496.496 0 0 0-.5-.857zm5.94.222a.496.496 0 0 0 0 .992h3.25a.496.496 0 0 0 0-.992zm32.339-17.17c.582-.258.078-1.113-.501-.856a11.598 11.598 0 0 1-2.865 1.132c-.63.09-.362 1.046.264.957a12.569 12.569 0 0 0 3.102-1.232zm7.095.373a23.927 23.927 0 0 1 2.426-.484c.63-.091.362-1.048-.263-.956a23.96 23.96 0 0 0-2.427.483.497.497 0 0 0 .264.957zm-.025-1.65c1.122.04 1.905-.83 2.961-1.015.628-.11.362-1.067-.263-.957-.946.166-1.726 1.015-2.698.98-.638-.024-.637.968 0 .992zM95.611 82.32a18.015 18.015 0 0 0 2.079-.684c.586-.233.33-1.193-.264-.957a18.019 18.019 0 0 1-2.078.684.497.497 0 0 0 .263.957zm6.813-2.15a8.118 8.118 0 0 1-2.696.136c-.633-.07-.628.922 0 .992a8.932 8.932 0 0 0 2.96-.172c.623-.139.36-1.096-.264-.957zm-8.128 4.538q-1.265.675-2.536 1.34c-.566.297-.065 1.153.501.857q1.27-.665 2.536-1.34c.564-.3.063-1.158-.5-.857zm7.95-6.663l-3.225.846a.497.497 0 0 0 .264.956l3.225-.845a.497.497 0 0 0-.264-.957zM33.826 99.64a2.697 2.697 0 0 0-2.02 2.117 2.879 2.879 0 0 0-2.735-1.198c-2.423.276-2.153 2.183-2.006 4.104.049.632 1.041.638.992 0-.09-1.177-.34-1.582.555-2.463a1.108 1.108 0 0 1 1.801-.437 2.121 2.121 0 0 1 1.068 1.917.496.496 0 0 0 .992 0 8.24 8.24 0 0 1 .238-1.632q2.914-2.596 3.122.684c-.033.638.96.636.992 0 .082-1.608-1.201-3.447-3-3.092zm10.59 2.7l-2.37-6.252c-.225-.592-1.184-.335-.957.263l2.37 6.252c.224.592 1.183.335.956-.263zm-1.358 8.346c-.098 3.2-6.472 3.547-8.642 3.988-1.781.362-3.645 1.015-5.279-.142-1.26-.89-1.718-2.578-2.07-3.984a1205.39 1205.39 0 0 0 .175-.7c.847-1.39 2.798-1.924 4.283-2.36 2.265-.666 4.54-1.147 6.789-1.868 2.957-.947 4.826 2.36 4.744 5.066zm-6.122-3.527c.23.266.553.58.715.468.139-.096.19-.477.221-.776a17.04 17.04 0 0 1-.936.308zm-7.074 1.81a4.016 4.016 0 0 0-1.649 1.223c.323.58.922 1.36 1.544.783.546-.506.316-1.355.105-2.005zm2.425 5.034a4.259 4.259 0 0 0-.612-.707c-.476-.427-.74-.098-.81.391a6.66 6.66 0 0 0 1.422.316zm.538-5.892a18.81 18.81 0 0 0-2.017.502c.258.503.884 1.211 1.41 1.138.554-.076.623-1.003.607-1.64zm2.416 5.477c-.361-.453-.854-1.044-1.272-1.03-.518.018-.455.852-.425 1.37a24.28 24.28 0 0 0 1.697-.34zm.623-6.12c-.33.085-.657.173-.996.247-.279.06-.605.121-.947.185.216.53.532 1.053 1.138 1.097.878.064.885-.847.806-1.53zm2.599 5.458c-.337-.63-1.137-2.15-1.785-1.796-.457.25-.341 1.04-.31 1.45a6.215 6.215 0 0 1 .01.77l.091-.018a24.599 24.599 0 0 0 1.994-.406zm.89-2.516c-.22.251.057.993.097 1.287a5.614 5.614 0 0 1 .041.9 4.998 4.998 0 0 0 1.173-.626c-.079-.325-.825-2.114-1.31-1.561zm7.956-.566a.496.496 0 0 0 0-.992.496.496 0 0 0 0 .992zm-24 3.695a.496.496 0 0 0 0 .992.496.496 0 0 0 0-.992zm37.995 2.531c-4.19-.152-7.988 1.214-12.093 1.676-2.57.29-5.124.046-7.698.123-6.358.191-12.425 2.456-18.817 2.05-1.27-.08-1.275-2.065 0-1.984 6.384.405 12.459-1.925 18.817-2.05a63.21 63.21 0 0 0 11.253-.791 109.154 109.154 0 0 1-1.923-24.668.486.486 0 0 1-.024-.084c-.341-3.903-1.202-7.706-1.605-11.589a110.114 110.114 0 0 1-.268-12.155.45.45 0 0 1 .19-.379.444.444 0 0 1 .02-.648c.854-.802 2.114-.594 2.887-1.565.547-.687.788-1.92-.117-2.467-.61-.369-1.56-.158-2.239-.207l-.013-.003a.38.38 0 0 1-.31-.15.484.484 0 0 1-.066-.087l-.007-.01-.008-.017a.54.54 0 0 1-.047-.11 43.509 43.509 0 0 1-2.084-7.136c-.12-.445-.622-2.557-.92-2.68-1.004-.41-1.125.858-1.2 1.442a32.642 32.642 0 0 0-.156 4.954.437.437 0 0 1-.32.452.49.49 0 0 1-.255.1 2.853 2.853 0 0 0-2.832 1.945 2.564 2.564 0 0 0 2.402 2.622.405.405 0 0 1 .458.345.517.517 0 0 1 .073.218c.584 5.824-.616 11.617-.303 17.446.035.64-.958.636-.992 0-.002-.046 0-.092-.003-.138a.509.509 0 0 1-.364.22 9.515 9.515 0 0 1-8.775-4.97.515.515 0 0 1-.036-.159.461.461 0 0 1-.073-.047 9.07 9.07 0 0 1-.57.339 2.41 2.41 0 0 1 .835 2.559c-.413 1.049-1.541.96-2.39.511a8.905 8.905 0 0 1-1.455 1.184q-1.763 1.41-3.609 2.711a8.836 8.836 0 0 1-3.673 1.938.507.507 0 0 1-.628-.478c-.112-1.706 1.288-3.08 2.325-4.303a36.82 36.82 0 0 1 4.3-4.247c-.93-.652-1.717-1.953-.523-2.8.746-.528 1.578-.025 2.301.608l.31-.29a2.703 2.703 0 0 1-.292-.36 1.126 1.126 0 0 1 1.024-1.84 2.1 2.1 0 0 1 .81-1.292 1.09 1.09 0 0 1 .39-.16c-.208-.517-.278-1.05.117-1.362a1.912 1.912 0 0 1 1.625-.27.781.781 0 0 1 .652-.882 1.74 1.74 0 0 1 .894.044.911.911 0 0 1 .433-.794 2.799 2.799 0 0 1 2.159.25c1.853.843 3.221 2.839 4.52 4.436a50.616 50.616 0 0 0 .026-7.452 3.597 3.597 0 0 1-2.991-3.5c.198-1.814 1.785-2.719 3.426-2.966-.059-1.852-.213-8.878 2.259-7.804 1.096.476 1.597 2.846 1.878 3.848.675 2.405 1.011 4.866 2.04 7.158a4.36 4.36 0 0 1 2.5.415 2.336 2.336 0 0 1 .977 2.013 3.254 3.254 0 0 1-1.151 2.317 3.342 3.342 0 0 1-.496.354c.324 3.39.093 6.826.238 10.22a.478.478 0 0 1 .27.3 25.725 25.725 0 0 0 5.832 9.708.473.473 0 0 1 .471.473c.095 4.731-.939 9.371-.734 14.117a96.787 96.787 0 0 0 1.543 13.833 22.365 22.365 0 0 1 1.805-.02c1.275.047 1.277 2.032 0 1.985zM30.489 77.373a34.5 34.5 0 0 0-4.257 4.024c-.457.447-1.16-.254-.702-.701a36.307 36.307 0 0 1 4.408-4.135c-.047-.058-.094-.116-.143-.173a37.226 37.226 0 0 0-3.223 3.02c-1.005 1.072-2.825 2.687-3.16 4.286 1.554-.499 3.025-1.848 4.278-2.78a15.044 15.044 0 0 0 2.614-2.047 1.276 1.276 0 0 0 .185-1.494zm2.705.18a1.99 1.99 0 0 0-.549-.892 11.902 11.902 0 0 0-1.202-1.082l-1.529-1.3c-.37-.314-.402-.596-.578.048-.16.579.047.596.49.803a.388.388 0 0 1 .327.15c.545.659 1.713 1.804 1.864 2.733.46.325 1.267.61 1.177-.46zm-1.203-2.805c.163.139.348.293.536.455.218-.108.417-.242.621-.369-.404-.33-.866-.6-1.299-.897l-.359.337c.185.182.354.349.501.474zm11.338-2.334a.451.451 0 0 1-.198-.134c-.922-1.067-1.826-2.152-2.77-3.199a6.674 6.674 0 0 0-1.6-1.404c-.757-.428-1.467-.672-1.451.356a.517.517 0 0 1-.862.36.942.942 0 0 0-.49-.288.967.967 0 0 0-.205-.01c.013.252.043.506.065.75a.4.4 0 0 1-.337.457.377.377 0 0 1-.284-.009.566.566 0 0 1-.072-.032.433.433 0 0 1-.042-.02 1.407 1.407 0 0 0-.708-.292 1.226 1.226 0 0 0-.385.03.495.495 0 0 0-.093.037c.019.074.032.172.047.212a4.092 4.092 0 0 0 .186.432 5.429 5.429 0 0 0 .397.659.428.428 0 0 1-.17.649.447.447 0 0 1-.669-.006c-.228-.246-.425-.46-.69-.143a1.45 1.45 0 0 0-.276.776.488.488 0 0 1-.241.385.405.405 0 0 1-.36.125c-.333-.033-.667-.064-.432.379.084.159.322.277.46.378.307.225.628.43.94.648a6.022 6.022 0 0 1 1.55 1.486.464.464 0 0 1 .044.1.449.449 0 0 1 .138.178 8.687 8.687 0 0 0 7.919 4.478.397.397 0 0 1 .348.106c-.078-2.485.079-4.965.241-7.444zm11.616 42.251a.504.504 0 0 1-.136-.28c-.955-7.415-2.06-14.837-2.009-22.33a.433.433 0 0 1-.159-.37c.162-4.637-.82-8.893-1.338-13.452-.465-4.1-.042-8.27-.387-12.4a2.216 2.216 0 0 0-1.058.438c-.01.01-.022.012-.032.02a.449.449 0 0 1 .112.306 99.532 99.532 0 0 0 .324 12.564c.443 3.698 1.195 7.31 1.532 11.03a.48.48 0 0 1 .042.22 107.99 107.99 0 0 0 1.9 24.494c.406-.082.812-.165 1.21-.24zm3.564-.491a103.893 103.893 0 0 1-1.493-12.913c-.297-4.947.715-9.766.68-14.686a26.864 26.864 0 0 1-5.335-7.94c.586 4.387 1.41 8.455 1.274 12.914a.45.45 0 0 1 .156.362c-.066 7.542 1.05 15.012 2.01 22.474a.444.444 0 0 1-.01.137 32.36 32.36 0 0 1 2.718-.348zm-9.45-5.948a.496.496 0 0 0 0 .992.496.496 0 0 0 0-.992zM73.277 77.29q-1.074-2.27-1.933-4.628c-.434-1.19-2.353-.676-1.913.528q.948 2.6 2.133 5.101c.546 1.154 2.257.148 1.713-1.001zM47.56 106.288a.496.496 0 0 0 0 .992.496.496 0 0 0 0-.992zm19.443 22.609a.958.958 0 0 0 .007-.438c.006-.167.001-.334.009-.5 1.239-1.482 2.01-3.09.66-4.822-1.411-1.811-2.875-2.22-2.722-4.893.13-2.273.564-4.57.874-6.831a.983.983 0 0 0 .339-1.285 18.498 18.498 0 0 1-1.85-11.278c.284-2.269.847-4.361.399-6.657a16.822 16.822 0 0 0-1.457-3.739c-1.478-3.242-1.47-6.325-2.117-9.734a.815.815 0 0 0-.77-.713c-1.385-1.788-3.618-7.282.062-7.757 1.249-.161 1.265-2.147 0-1.984-5.81.75-4.027 8.396-1.26 11.395a.913.913 0 0 0 .137.098c.419 2.615.298 5.166 1.263 7.677.354.92.93 1.737 1.291 2.648 1.305 3.291.932 5.024.538 8.239a21.028 21.028 0 0 0 1.754 12.172 1.01 1.01 0 0 0-.263.549c-.376 2.877-1.308 6.193-.922 9.097a11.866 11.866 0 0 0 1.686 3.21 1.006 1.006 0 0 0-.083.31 16.455 16.455 0 0 0 .44 4.932c-.267 7.88 1.286 15.873 2.24 23.669.153 1.25 2.14 1.266 1.985 0-.943-7.696-2.46-15.583-2.242-23.365zm-3.945 11.469c-1.318-.863-2.621-1.801-3.98-2.617a7.814 7.814 0 0 0 5.534-3.147c.369-.523-.491-1.019-.857-.5-1.695 2.405-4.47 2.797-7.205 2.83-1.862.024-2.825.239-4.008-2.094a25.203 25.203 0 0 1-.443-2.659q-.505-1.733.716-.318c-.061.555.861.677.974.132.973-1.284 1.505-1.515 1.608-.717.003.048 0 .09.004.139l.007-.001c.003.046.01.08.011.132.098.545 1.027.427.975-.131-.014-.05-.018-.086-.029-.13l.01-.002c-.014-.084-.036-.154-.054-.231-.07-.645.42-.55 1.474.295.094.456.89.49.956 0a1.584 1.584 0 0 1-.018-.264h.018c-.006-.032-.017-.06-.024-.091.005-.467.28-.584.856-.31a1.04 1.04 0 0 1 .701.081c-.002.448.049.9.064 1.252a.496.496 0 0 0 .992 0 5.788 5.788 0 0 0-.017-.86c.001-.05-.005-.099-.003-.149q-.127-1.218 1.512.3a.496.496 0 0 0 .857-.5c-.466-.818-1.372-2.212-2.552-1.775a1.117 1.117 0 0 0-.398.259 2.67 2.67 0 0 0-1.203-1.038.522.522 0 0 0-.6.078 3.136 3.136 0 0 0-.83 1.309c-.784-.975-1.962-.948-2.472.103-.612-.513-1.433-.285-2.045.414-.292-.797-.878-1.369-1.865-.798-1.653.955-.445 5.23.09 6.548.947 2.33 3.444 2.15 5.626 2.008a.484.484 0 0 0 .143.118c1.693.9 3.272 2.069 4.874 3.124a115.273 115.273 0 0 1 2.151 11.675c.082.624 1.075.632.993 0a117.86 117.86 0 0 0-2.231-12.137.424.424 0 0 0-.312-.328zm-41.31-26.078a.496.496 0 0 0 0 .992.496.496 0 0 0 0-.992zm55.509 23.127c-1.432 4.732-3.088 9.46-3.596 14.403-.064.63-1.057.634-.992 0 .518-5.039 2.171-9.842 3.631-14.667 1.328-4.39 2.406-8.993 4.525-13.089a1.085 1.085 0 0 1-.334-.681 1.097 1.097 0 0 1-.097-.108c-1.242-1.693-4.259-5.485-1.896-7.421a3.577 3.577 0 0 1 4.329-.046c.963-2.172 3.602-3.231 5.109-1.828 1.567-2.185 4.19-2.234 5.054-.017 2.133-1.464 5.03-.653 3.652 3.072-.811 2.193-1.446 6.015-3.969 6.818-3.297 1.049-7.435.752-10.882.503-2.144 4.066-3.21 8.686-4.534 13.06zm4.85-15.143a1.043 1.043 0 0 1 .067.111 45.948 45.948 0 0 0 7.81-.144c2.56-.284 2.579-.773 3.53-2.779l.971-2.364c.959-1.568-.144-3.156-1.289-.366a.993.993 0 0 1-1.913-.527c.277-3.013-1.935-2.094-2.365.304-.24.899-1.733.99-1.914 0 0 0-.226-1.785-1.6-1.254s-.949 2.626-.949 2.626a1 1 0 0 1-1.849.501c-1.671-2.908-3.558-1.172-2.593.364a8.01 8.01 0 0 0 .636 1.316 19.477 19.477 0 0 0 1.459 2.212zM44.114 47.034c.085-1.671-.805-3.485-1.307-5.054-.194-.606-1.153-.347-.957.263.47 1.47 1.351 3.235 1.271 4.791-.032.638.96.637.993 0zm-22.24 61.056a13.119 13.119 0 0 0-.856-3.516 39.496 39.496 0 0 1-1.632-3.607.497.497 0 0 0-.957.264c.71 2.395 2.16 4.293 2.452 6.86.072.626 1.065.634.992 0zm5.81-52.614a.496.496 0 0 0 0 .992.496.496 0 0 0 0-.992zm5.1-2.204a51.435 51.435 0 0 1 5.471-2.582c.933-.427 1.917-.99 2.895-.396a3.309 3.309 0 0 1 1.294 2.35c.37 3.04-2.63 4.213-4.88 5.329-2.637 1.307-4.679.954-6.118-1.69-.004-.006-.003-.012-.006-.018a.49.49 0 0 1-.202-.365 2.715 2.715 0 0 1 1.547-2.628zm7.836.704c-.103-.046-.81-.184-.637.14a.474.474 0 0 1 .05.283 6.878 6.878 0 0 1 .513.736 3.028 3.028 0 0 0 .59-.723 1.357 1.357 0 0 0-.516-.436zm-1.13-2.658a1.854 1.854 0 0 0 .54.405c.408.19.48.064.644-.317a.43.43 0 0 1 .044-.063 1.965 1.965 0 0 0-1.228-.025zm-.492 3.436a.81.81 0 0 0-.662-.29 1.351 1.351 0 0 0-.157.014.08.08 0 0 0-.046.103.427.427 0 0 1-.136.48 3.754 3.754 0 0 1 .63 1.196.444.444 0 0 1 .007.054c.37-.183.747-.377 1.103-.592a4.85 4.85 0 0 0-.74-.965zm-1.41-2.686c.005.01.004.024.01.034.079.143.169.273.255.417.127.212.114.255.263.04a1.277 1.277 0 0 0 .222-.84c-.256.112-.51.232-.75.349zm-1.477 3.956a.485.485 0 0 1-.226.53c.12.228.23.449.316.622a.482.482 0 0 1 .033.353 15.336 15.336 0 0 0 1.574-.8.492.492 0 0 1-.138-.208c-.12-.355-.256-.85-.633-1.017-.228-.101-1 .169-.926.52zm-.403-3.121c.106.422.313 1.067.762.964.366-.084.264-.907.208-1.362-.274.123-.608.255-.97.398zm-1.656.727a3.95 3.95 0 0 1 .138.516c.172.286.413.587.515.233a3.266 3.266 0 0 0-.012-.809l-.004-.242c-.215.095-.43.194-.637.302zm-.487 3.764a2.444 2.444 0 0 0 1.83.35.45.45 0 0 1-.051-.067 5.084 5.084 0 0 0-.914-1.504c-.422-.368-.734.808-.81 1.107a.47.47 0 0 1-.055.114zm-1.222-2.18a.516.516 0 0 1 .125.19c.237.624.695.216.778-.252a2.044 2.044 0 0 0-.01-.68c-.025-.047-.053-.095-.076-.142a.495.495 0 0 1-.028-.11 2.39 2.39 0 0 0-.79.994zm4.002-7.931c.7.11 1.238.871 1.534 1.441.294.567 1.15.066.857-.5-.572-1.103-2.084-2.516-3.45-1.883a1.93 1.93 0 0 0-1.003 1.197 1.454 1.454 0 0 0-1.829.03c-1.562 1.036-.868 2.94.366 3.88.508.387 1.002-.474.5-.857a1.306 1.306 0 0 1-.616-1.55q-.005-1.035.88-.19a1.093 1.093 0 0 1 .584.213 3.258 3.258 0 0 0 .34 1.119c.224.41.975.25.924-.25a4.428 4.428 0 0 0-.293-1.167c-.054-.778.2-1.642 1.206-1.483zm-9.098 9.755a.496.496 0 0 0 0 .992.496.496 0 0 0 0-.992zM24.81 29.226a.496.496 0 0 0 0 .992.496.496 0 0 0 0-.992zm-2.875 83.804a.496.496 0 0 0 0-.992.496.496 0 0 0 0 .992zm6.937-55.312a.496.496 0 0 0 0-.992.496.496 0 0 0 0 .992zm-.193-5.06c.11-1.87-1.31-3.337-1.87-5.004-.203-.602-1.162-.343-.957.264.523 1.558 1.937 3.002 1.835 4.74-.038.638.954.636.992 0zm91.326 64.299c-3.466-2.29-7.682-6.324-12.187-5.79-3.545.422-7.052 3.148-9.076 5.974-2.981 4.164-3.864 9.943-4.796 14.853-.495 2.607-.592 5.198-.952 7.811-.507 3.675-1.857 7.16-2.425 10.837-.193 1.25 1.719 1.788 1.914.528.507-3.284 1.675-6.36 2.273-9.603.954-5.172 1.268-10.323 2.547-15.467 1.157-4.654 2.797-9.323 7.408-11.66 5.735-2.908 9.812 1.271 14.293 4.23 1.069.706 2.064-1.012 1.002-1.713zm26.117 17.959a6.337 6.337 0 0 1 .818 1.927c.151.62 1.108.358.957-.264a7.188 7.188 0 0 0-.919-2.164c-.34-.538-1.2-.04-.856.501zm-57.053-2.051c-.027-.003-.045-.018-.071-.023a29.089 29.089 0 0 1-.018 5.346 2.288 2.288 0 0 1-2.961 2.155 5.145 5.145 0 0 1-3.78-3.569 9.173 9.173 0 0 1-.013-2.507c-.568 1.716-1.184 3.419-1.625 5.09-1.095 4.144-2.027 8.33-2.959 12.513-.139.624-1.095.358-.956-.264.863-3.874 1.726-7.749 2.718-11.592a141.436 141.436 0 0 1 1.666-5.958c.47-1.54 1.09-3.072 1.415-4.656l.062-1.49a1.028 1.028 0 0 1 1.649-.75 29.394 29.394 0 0 0 3.162.478 1.136 1.136 0 0 1 .7-.003 3.744 3.744 0 0 0 .636-.094c.65-.161 1.178-.62 1.844-.775a4.981 4.981 0 0 1 .996-.113 1.004 1.004 0 0 1 .858.006l.072.002a.503.503 0 0 1 .393.786 5.482 5.482 0 0 1-.273 3.991 3.282 3.282 0 0 1-3.515 1.427zm-4.972 1.462a18.248 18.248 0 0 0 2.901.326c-.048-.456-.098-.863-.106-1.133l-.14-4.984.001-.006c-.752-.083-1.508-.211-2.242-.329a54.836 54.836 0 0 0-.414 6.126zm2.962 2.325a20.884 20.884 0 0 1-2.703-.256 1.95 1.95 0 0 0 1.176 1.54c1.055.301 1.43-.365 1.527-1.284zm2.01-5.771c.777.09 1.554.187 1.907-.654a4.112 4.112 0 0 0-.061-2.4c-.448.113-.886.271-1.402.451a7.535 7.535 0 0 1-.781.236c0 .008.005.014.005.022.021.77.07 1.561.126 2.363a.88.88 0 0 1 .206-.018zm54.85 15.26a.496.496 0 0 0-.957.264c.314 1.116 1.054 2.038 1.402 3.137.191.607 1.15.348.956-.264-.348-1.1-1.089-2.026-1.401-3.137zm.646-8.739l-1.375-3c-.266-.58-1.121-.076-.857.501l1.375 3c.266.58 1.121.076.857-.5zm1.682 6.694c-.053.637.94.633.992 0a4.158 4.158 0 0 0-.628-2.56c-.338-.541-1.196-.044-.857.5a3.258 3.258 0 0 1 .493 2.06zm-1.602-.33a5.61 5.61 0 0 0-1.123-2.071c-.412-.489-1.11.216-.701.701a4.43 4.43 0 0 1 .867 1.633.497.497 0 0 0 .957-.264zm-31.638-86.732q.781 1.08 1.653 2.09c.419.483 1.118-.222.702-.702q-.79-.912-1.499-1.888c-.37-.513-1.232-.018-.856.5zm18.834 75.19a3.056 3.056 0 0 0 .893 1.884.496.496 0 0 0 .702-.702 1.975 1.975 0 0 1-.603-1.181c-.074-.627-1.067-.634-.992 0zm17.334-26.615a.947.947 0 0 0 .089-.448q-.745-18.556-.548-37.126a.88.88 0 0 0-.553-.862.84.84 0 0 0-.905-.214c-6.77 2.165-13.645 4.516-20.72 5.374a45.552 45.552 0 0 0-14.646 3.995l-.016-.008a.997.997 0 0 0-1.22 1.22c.159.402.337.788.524 1.167a.99.99 0 0 0 .218.603c.115.141.217.287.327.43.314.56.642 1.111.968 1.664.364 1.337.669 2.69.84 3.155a24.93 24.93 0 0 0 1.85 3.968 39.504 39.504 0 0 1 .484 4.036 28.805 28.805 0 0 0-.076 6.528c.698 4.96 3.935 9.083 4.592 14.07a1.04 1.04 0 0 0 .11.32.957.957 0 0 0 .004.19c.92 3.998 1.294 7.55.07 11.509-.874 2.829-1.767 5.567-2.435 8.462a111.858 111.858 0 0 1-6.986 19.676 1 1 0 0 0-.053.627.835.835 0 0 0 .15.725c1.95 2.767 4.563.148 5.8-1.95 3.45-5.858 4.927-13.74 6.718-20.278a.98.98 0 0 0 .18.004 159.31 159.31 0 0 0 4.644-.907l.391 1.728a11.804 11.804 0 0 0 .6 2.594c.643 1.231 2.841-.298 3.276 1.193a.401.401 0 0 0-.032.389c.63 1.62 1.702 3.864.796 5.56-.278.522-.546.225-.659.882-.18 1.05 1.008 3.101 1.363 4.032a39.112 39.112 0 0 1 1.731 5.42c.14.622 1.096.359.957-.264a39.11 39.11 0 0 0-1.73-5.42c-.518-1.355-1.293-2.649-.752-3.92.314-.736.662-.883.597-1.869a16.256 16.256 0 0 0-1.3-4.564.509.509 0 0 0 .041-.273 2.22 2.22 0 0 0-.639-1.483c-.519-.359-1.233-.13-1.816-.193-.758-.084-.816-.083-1.131-.827a9.25 9.25 0 0 1-.345-1.521l-.378-1.668a156.677 156.677 0 0 0 19.406-5.514 1.013 1.013 0 0 0 1.731-.661 99.751 99.751 0 0 0-1.517-19.551zm-2.265 41.062c-.343-.537-1.202-.04-.857.5l.75 1.174c.19.298.655.774.636 1.128-.034.639.958.637.992 0a2.273 2.273 0 0 0-.557-1.293l-.964-1.51zm-1.2-17.702a.497.497 0 0 0-.956.263 24.074 24.074 0 0 0 1.053 3.194c.239.583 1.199.328.957-.264a24.06 24.06 0 0 1-1.053-3.193zm-6.919 2.272c-.407-.492-1.106.213-.701.702l.934 1.128c.407.492 1.106-.213.701-.702zm2.547 7.11c.197-1.396-.708-2.587-1.362-3.748a.496.496 0 0 0-.857.501c.469.831 1.404 1.976 1.263 2.984-.088.624.868.894.956.263zm-4.386 9.366l.746 1.597a3.231 3.231 0 0 1 .493 1.772c-.09.624.865.894.957.264.21-1.459-.746-2.862-1.34-4.133-.27-.578-1.125-.075-.856.5zm-6.79-4.749l1.999-.818a.505.505 0 0 0 .346-.61c-.273-.8-.704-2.777-1.508-3.247a2.38 2.38 0 0 0-1.973.167l-.98-4.804a.504.504 0 0 0-.73-.296c-.855.362-3.047.795-3.423 1.762-.142.365.141.936.233 1.267a14.336 14.336 0 0 1 .502 3.208c-2.127 1.08-2.106 1.293-1.565 3.8a.502.502 0 0 0 .61.346c2.023-.58 3.297 8.252 3.263 9.542a.496.496 0 0 0 .992 0c.094-3.543-1.428-7.045-2.445-10.39a.505.505 0 0 0-.479-.364c-1.986.084-1.16-1.433.314-2.174a.465.465 0 0 0 .173-.146.44.44 0 0 0 .152-.364 17.245 17.245 0 0 0-.479-3.43c-.226-.991-.274-.962.65-1.353l1.389-.587.976 4.786a.499.499 0 0 0 .61.346c.752-.273 1.264-.631 1.968.155a4.581 4.581 0 0 1 .668 1.622l-1.882.771a.506.506 0 0 0-.273.261.399.399 0 0 0-.171.515 86.687 86.687 0 0 1 3.353 11.032c.145.622 1.102.359.957-.263a86.679 86.679 0 0 0-3.246-10.734zM49.685 49.03a.496.496 0 0 0 0-.992.496.496 0 0 0 0 .992zm90.038 98.495c.274 1.023 1.313 2.04 1.156 3.133-.09.625.867.895.957.264.207-1.445-.806-2.352-1.156-3.66a.497.497 0 0 0-.957.263zm.074-5.672a5.167 5.167 0 0 1 1.12 2.803c.054.632 1.047.638.992 0a6.35 6.35 0 0 0-1.41-3.504c-.4-.498-1.098.208-.702.701zm2.862-11.043a1.058 1.058 0 0 1-.298-.892c.094-.624-.862-.894-.957-.263a2.12 2.12 0 0 0 .554 1.856c.436.468 1.137-.234.701-.701zm-6.004 6.12a8.79 8.79 0 0 1 .851 2.603c.105.629 1.06.362.957-.263a9.634 9.634 0 0 0-.95-2.84c-.293-.569-1.15-.068-.858.5zm1.299 8.05c.216.595 1.176.338.957-.264l-1.095-3.011c-.216-.596-1.175-.339-.956.263l1.094 3.011zm-3.48-13.445c-.246.961.671 1.884 1.164 2.621.353.528 1.213.032.857-.5l-.634-.948c-.154-.23-.508-.605-.43-.91a.497.497 0 0 0-.957-.263zM122.43 68.516c.578-.269.075-1.124-.5-.856a8.313 8.313 0 0 1-3.309.772.496.496 0 0 0 0 .992 9.56 9.56 0 0 0 3.809-.908zm-3.11 2.33a17.607 17.607 0 0 0 3.293-.933c.588-.23.333-1.19-.263-.956a17.604 17.604 0 0 1-3.294.933c-.628.113-.362 1.07.263.956zm.296 1.828c1.366.21 2.28-.888 3.576-.929.637-.02.64-1.012 0-.992a3.912 3.912 0 0 0-1.538.413 3.273 3.273 0 0 1-1.775.55c-.624-.095-.894.86-.263.958zm-5.123 1.313a4.33 4.33 0 0 0 1.617-.584 16.493 16.493 0 0 1 2.151-.796c.606-.195.347-1.153-.264-.957-.599.192-1.197.386-1.779.626a6.217 6.217 0 0 1-1.725.719c-.633.045-.638 1.038 0 .992zm.08-1.681a9.707 9.707 0 0 0 3.154-1.249c.543-.334.046-1.192-.5-.857a8.887 8.887 0 0 1-2.917 1.15c-.625.127-.36 1.083.264.956zm12.565-4.56c.625-.13.36-1.087-.263-.957a10.188 10.188 0 0 1-3.002.168c-.636-.056-.632.937 0 .992a11.108 11.108 0 0 0 3.265-.203zM56.43 50.418a6.327 6.327 0 0 1 .852 2.865c.033.635 1.025.64.992 0a7.45 7.45 0 0 0-.987-3.366.496.496 0 0 0-.857.5zm.987 5.261q.47 1.45.906 2.908a.497.497 0 0 0 .957-.263q-.437-1.46-.907-2.909c-.196-.605-1.154-.346-.956.264zm67.142 15.85a3.674 3.674 0 0 0 1.587-.36 5.014 5.014 0 0 1 1.725-.333.496.496 0 0 0 0-.992 5.834 5.834 0 0 0-1.561.221 5.056 5.056 0 0 1-1.75.472c-.638-.042-.636.95 0 .992zm-.185-1.641a7.284 7.284 0 0 0 3.325-.484c.587-.231.331-1.19-.264-.956a6.635 6.635 0 0 1-3.06.448c-.637-.055-.633.938 0 .992zm-10.13.512c.987.071 1.753-.59 2.7-.696.627-.07.634-1.063 0-.992-.928.104-1.763.763-2.7.695-.638-.046-.635.947 0 .993zm-5.426-1.99a9.636 9.636 0 0 1 .775 1.363c.27.579 1.125.075.857-.5a9.64 9.64 0 0 0-.776-1.363c-.357-.525-1.217-.029-.856.5zm.799-4.998a5.003 5.003 0 0 1 1.052 1.872c.188.608 1.146.348.957-.264a6.18 6.18 0 0 0-1.308-2.31c-.425-.477-1.125.227-.701.702zm.29-4.143c-.1-.628-1.057-.361-.956.264.108.666.673 1.075.85 1.7a.496.496 0 0 0 .958-.264c-.177-.621-.749-1.067-.851-1.7zm1.196-.592a11.09 11.09 0 0 0 1.188 1.565c.43.474 1.13-.23.701-.701a9.621 9.621 0 0 1-1.032-1.365c-.338-.54-1.197-.042-.857.5zM48.184 49.03a.496.496 0 0 0 0-.992.496.496 0 0 0 0 .992zm62.63 27.079l2.558-2.083c.495-.403-.21-1.101-.702-.701l-2.558 2.082c-.495.403.21 1.102.702.702zm4.218-8.336c.273.576 1.13.073.856-.501a5.234 5.234 0 0 0-1.361-1.767c-.485-.409-1.19.29-.702.702a4.56 4.56 0 0 1 1.207 1.566zm-5.701 4.656a20.514 20.514 0 0 0 3.588-1.741c.543-.334.045-1.192-.501-.857a19.17 19.17 0 0 1-3.351 1.64c-.593.222-.337 1.18.264.958zm5.122-8.855a12.512 12.512 0 0 1-1.217-1.79.496.496 0 0 0-.857.501 13.97 13.97 0 0 0 1.373 1.99c.405.494 1.104-.211.701-.701zm-4.572 10.517a10.956 10.956 0 0 0 2.772-1.673c.529-.352.033-1.212-.5-.857l-1.3.864a4.66 4.66 0 0 1-1.236.71.496.496 0 0 0 .264.956zm1.684-6.492a17.743 17.743 0 0 0 1.021 1.736c.353.528 1.213.032.857-.501a17.775 17.775 0 0 1-1.022-1.736c-.292-.568-1.148-.067-.856.5zm-58.3 9.866a14.229 14.229 0 0 1 1.153 2.074.497.497 0 0 0 .957-.263c-.366-1.41-1.662-2.258-1.498-3.865.065-.635-.928-.63-.992 0a3.899 3.899 0 0 0 .38 2.054zm3.715-.092a7.127 7.127 0 0 1-1.416-2.538c-.103-.628-1.06-.362-.956.264a7.659 7.659 0 0 0 1.516 2.774c.353.528 1.213.032.856-.5zm-3.625-23.718c.073.626 1.066.634.992 0a18.734 18.734 0 0 0-.703-3.372c-.188-.608-1.147-.349-.957.264a17.33 17.33 0 0 1 .668 3.108zm-.475 19.012a.496.496 0 0 0 .993 0 4.375 4.375 0 0 1 .683-3.091c.414-.483-.285-1.188-.701-.702a5.283 5.283 0 0 0-.975 3.793zm4.415-4.895a9.833 9.833 0 0 1 1.092-2.158c.355-.533-.504-1.03-.857-.501a10.897 10.897 0 0 0-1.192 2.395c-.214.603.744.862.957.264zM48.81 46.538a.496.496 0 0 0 0 .992.496.496 0 0 0 0-.992zm3.393 1.059a.496.496 0 0 0 .993 0 7.31 7.31 0 0 0-.595-2.683c-.247-.586-1.102-.08-.857.5a6 6 0 0 1 .46 2.183zm7.085 15.495a9.32 9.32 0 0 0-.947-3.109c-.29-.569-1.147-.067-.857.5a7.91 7.91 0 0 1 .812 2.609c.079.625 1.072.633.992 0zm1.548-.078a14.152 14.152 0 0 0-1.185-2.842c-.308-.559-1.165-.059-.856.501a12.917 12.917 0 0 1 1.085 2.604.497.497 0 0 0 .956-.263zm-1.216 4.643a7.037 7.037 0 0 1 .82-2.051.496.496 0 0 0-.857-.501 7.92 7.92 0 0 0-.92 2.288c-.143.621.814.887.957.264zm-2.963-7.315c-.206-.6-1.165-.342-.957.264a13.595 13.595 0 0 1 .61 2.555c.088.63 1.044.361.957-.264a13.597 13.597 0 0 0-.61-2.555zm-.295 4.244a15.62 15.62 0 0 0-1.766 2.238c-.35.536.51 1.034.857.5a14.188 14.188 0 0 1 1.61-2.037c.44-.463-.26-1.166-.701-.701zm-2.313-9.037a26.672 26.672 0 0 1 .556 3.168c.07.628 1.064.635.992 0a28.886 28.886 0 0 0-.59-3.432c-.148-.621-1.105-.358-.958.264zm.981-7.694c-.105-1.075-.827-1.956-.927-3.018-.06-.63-1.052-.636-.992 0 .102 1.077.823 1.957.927 3.018.062.63 1.055.637.992 0zm.423 5.737c.13.624 1.086.36.957-.264a22.222 22.222 0 0 0-.885-3.108c-.218-.595-1.177-.338-.957.264a22.207 22.207 0 0 1 .885 3.108zm.05 15.69a6.702 6.702 0 0 0-.694 3.19c.02.637 1.013.64.992 0a5.624 5.624 0 0 1 .56-2.689c.278-.572-.577-1.075-.857-.5zm-3.576-29.169a27.484 27.484 0 0 1 .711 2.729c.13.625 1.086.36.957-.264a27.497 27.497 0 0 0-.712-2.729c-.192-.606-1.15-.347-.956.264zm-1.374.046a3.868 3.868 0 0 0 .925 2.646c.408.493 1.106-.212.702-.701a2.829 2.829 0 0 1-.634-1.945c.023-.639-.97-.638-.993 0zm6.297 15.743c-.209-.599-1.168-.34-.956.264a8.112 8.112 0 0 1 .444 2.117c.045.633 1.038.638.993 0a9.122 9.122 0 0 0-.48-2.38zM54.245 39.29a.497.497 0 0 0-.957.264l.825 3.042a.497.497 0 0 0 .956-.264l-.824-3.042zm1.575 5.206c-.279-.574-1.135-.072-.856.5l.645 1.328a3.474 3.474 0 0 1 .524 1.338.496.496 0 0 0 .992 0 3.323 3.323 0 0 0-.46-1.43l-.845-1.736z" fill="#010101"/></svg>