<svg xmlns="http://www.w3.org/2000/svg" viewBox="0 0 320 320"><path d="M284.188 104.442c-1.238 9.479 1.816 21.762.926 34.258-.499 6.854-2.653 13.867-2.787 20.373-.124 6.319 1.505 11.891.926 17.587-1.086 10.814-7.921 27.565-16.661 29.63-4.316 1.023-9.621-2.599-13.884-.926-4.236 7.04-2.911 16.074-5.563 23.15-3.071 8.224-9.079 13.982-13.885 19.447-15.834 3.178-18.868-6.435-26.853-11.116-3.925 22.616-.72 52.37-15.736 63.887-12.79-.481-21.655-4.895-25.927-13.884-8.473 6.72-7.414 22.838-20.373 23.15-5.029.116-12.879-5.26-15.736-9.266-9.425-13.19-5.411-40.693-8.339-59.259-5.447-.178-8.099 6.551-14.81 7.414-8.509 1.086-19.75-2.234-21.299-6.488-1.54-4.245-9.087-24.85-8.331-42.588-11.704 1.513-25.704 4.415-31.481-8.331-.757-1.664-3.346-13.751-3.703-15.745-3.515-19.367.943-48.027-3.702-66.664-.997-3.996-4.255-7.316-4.628-10.182-1.095-8.286 4.967-16.43 2.777-23.15 6.88-10.405 31.08-33.715 44.903-43.345 13.822-9.621 38.441-16.092 54.168-18.691C143.18 12.217 155.346 10 168.448 10c20.96 0 41.583 5.403 54.631 10.182 19.518 7.165 54.684 23.711 60.175 57.408 5.374 5.661 6.336 20.551.934 26.852zm-26.853-1.851c11.116 2.252 21.628-6.391 19.438-19.448-3.418-.677-4.317-4.673-8.331-5.554-9.043-1.976-23.061 4.45-24.075 9.257-1.353 6.427 5.785 14.294 12.968 15.745zm14.81 25.002c-.054-.57-.134-1.095-.926-.926-.053-.57-.134-1.095-.926-.926-4.192 5.678-10.405 9.345-16.661 12.959.801 17.276-6.435 44.387 7.405 50.928 5.457-1.388 8.314-6.266 9.257-12.042 2.278-13.911.088-35.183 1.851-49.993zm-7.405-62.962c-1.201-6.319-7.841-8.909-12.033-12.042-4.681-3.489-27.138-20.026-70.376-24.993-15.593-1.379-28.757-1.673-41.663-.926-34.471 1.985-64.466 24.841-82.409 42.589 2.563 2.376 6.115 3.765 9.266 5.554 1.842-5.18 19.065-18.798 24.067-22.225 2.563-1.744 7.004-4.032 11.116-5.554 18.798-6.96 43.452-13.466 68.516-11.108 17.684 1.664 38.619 9.15 53.011 15.327 6.871 2.946 20.916 16.911 25.687 18.931 4.271-3.123 10.608-4.894 14.818-5.553zm-1.852 49.994c-3.818-.97-7.165-.365-12.042-1.851-7.494 6.817-15.621 8.704-25.918 12.042-10.396 3.365-18.353 6.132-28.704 8.331-5.207 1.104-10.796 3.151-15.745 3.703-15.771 1.754-37.996-.703-49.994-4.628-.926-.303-14.321-4.682-18.522-6.48-6.23-2.679-11.989-6.533-18.513-9.266-7.379-3.08-15.113-7.636-23.15-8.331-.525-1.353-4.361 1.744-4.628 3.703 9.675 10.226 23.64 14 37.035 20.373 6.043 2.875 12.256 5.465 18.513 7.405 13.458 4.174 25.153 7.236 52.237 9.283 27.075 2.056 57.024-12.986 57.024-12.986s10.227-7.654 15.737-11.108c5.519-3.462 12.79-4.69 16.67-10.19zm-37.034 124.072c17.516-17.846 16.154-60.656 15.736-90.74-12.096-1.344-21.637 6.355-31.481 10.191 2.021 26.692 6.996 72.343 8.331 76.846 1.344 4.504 3.533 3.881 7.414 3.703zm13.885-135.18c-1.228-4.121-3.48-5.136-3.703-10.182-.258-5.937 2.661-11.464 4.628-16.671-14.392-6.283-24.966-16.395-39.811-22.224-18.059-2.652-37.756-7.45-58.334-4.628-18.13 2.492-37.8 10.414-50.928 19.448-4.548 3.133-15.238 12.051-16.662 16.662-1.023 3.311.516 7.165 0 11.116 6.132 2.252 11.081 6.791 17.587 10.182 6.569 3.418 11.304 6.248 18.833 9.007 3.462 1.273 18.949 6.827 23.435 7.717 7.806 1.531 15.86 1.896 23.479 2.724 13.618 1.478 30.502-1.478 39.812-4.628 17.16-5.822 28.989-13.414 41.664-18.523zm-42.589 57.408h-1.851c-8.98 2.083-15.985 1.095-25.001 3.702-1.211 34.881-2.787 80.754 4.628 110.178 1.496 5.937 2.279 14.811 10.182 14.819 5.305-8.304 6.212-20.115 7.414-31.48 3.409-32.273 1.504-67.047 4.628-97.219zm-41.672 100.922c1.611-28.205 3.249-68.747 2.786-95.368-6.96-1.611-14.223-2.99-24.076-3.703.036 1.273-.436 2.03-.926 2.777-.276 13.965-.196 27.689-.926 39.812-1.077 17.721-1.655 39.002-.926 55.556.587 13.422 2.964 28.152 13.885 32.407 12.613-3.703 9.32-16.172 10.183-31.481zm-43.514-37.961c6.035-20.925 5.732-49.593 6.48-69.441-10.209-4.299-20.613-8.402-31.481-12.042v2.777c3.898 23.96 1.246 55.762 4.628 77.781.934 6.061 4.548 16.617 10.191 16.662 6.48.053 8.918-11.366 10.182-15.737zm-47.217-33.332c8.785-12.505 6.488-36.1 8.331-55.556-6.052-3.818-11.66-8.099-18.522-11.108-.926 3.641-1.816 8.224-1.851 12.959-.142 17.997 2.43 46.674 12.042 53.705zm-2.777-87.037c.578-5.278 3.925-7.797 3.703-13.885-4.842-4.682-8.331-14.374-17.596-9.265-2.652 4.45-4.361 9.835-7.405 13.893 3.408 7.085 10.938 11.793 21.298 9.257zm137.957-44.44c-8.963 9.079-20.498 16.929-35.184 18.513-16.048 1.727-27.583-2.821-38.886-6.479-7.966-2.572-17.169-7.619-24.076-1.851-.543 8.82 1.273 22.607 3.703 31.481 12.069 5.563 27.707 16.661 46.291 18.513 19.706 1.976 40.782-3.151 50.928-8.331 9.773-11.17 12.55-42.571-.926-51.845l-1.85-.001z"/></svg>