<svg xmlns="http://www.w3.org/2000/svg" viewBox="0 0 640 640"><path d="M257.069 302.93c1.86 1.86 2.931 4.44 2.931 7.07s-1.07 5.21-2.931 7.069C255.21 318.93 252.63 320 250 320s-5.21-1.07-7.07-2.931C241.07 315.21 240 312.63 240 310s1.069-5.21 2.93-7.07S247.37 300 250 300s5.21 1.069 7.069 2.93zM190 380c-1.311 0-2.601.54-3.54 1.47a5.008 5.008 0 0 0 0 7.07c.939.93 2.22 1.46 3.54 1.46 1.319 0 2.6-.53 3.54-1.46A5.04 5.04 0 0 0 195 385c0-1.311-.53-2.601-1.46-3.53A5.081 5.081 0 0 0 190 380zm0 20.02c-1.32 0-2.601.53-3.54 1.46a5.006 5.006 0 0 0 0 7.07c.939.93 2.22 1.47 3.54 1.47 1.319 0 2.6-.54 3.54-1.47a5.03 5.03 0 0 0 1.46-3.53 5.04 5.04 0 0 0-1.46-3.54 5.055 5.055 0 0 0-3.54-1.46zm-20.011-10.01c-1.319 0-2.609.53-3.539 1.46-.931.93-1.461 2.22-1.461 3.54s.53 2.61 1.461 3.54c.93.93 2.22 1.46 3.539 1.46 1.311 0 2.601-.53 3.53-1.46.931-.94 1.47-2.22 1.47-3.54s-.539-2.61-1.47-3.54a5.027 5.027 0 0 0-3.53-1.46zM445 350c-1.32 0-2.61.54-3.54 1.47A5.026 5.026 0 0 0 440 355c0 1.319.529 2.609 1.46 3.54.93.93 2.22 1.46 3.54 1.46 1.31 0 2.6-.53 3.529-1.46A5.046 5.046 0 0 0 450 355c0-1.311-.54-2.601-1.471-3.53A5.036 5.036 0 0 0 445 350zm0 20c-1.32 0-2.61.54-3.54 1.47A4.99 4.99 0 0 0 440 375c0 1.319.529 2.609 1.46 3.54.93.93 2.22 1.46 3.54 1.46 1.31 0 2.6-.53 3.529-1.46A5.046 5.046 0 0 0 450 375c0-1.311-.54-2.601-1.471-3.53A5.004 5.004 0 0 0 445 370zm-20-10c-1.32 0-2.61.54-3.54 1.47A5.026 5.026 0 0 0 420 365c0 1.319.529 2.609 1.46 3.54.93.93 2.22 1.46 3.54 1.46 1.31 0 2.6-.53 3.529-1.46A5.046 5.046 0 0 0 430 365a5.02 5.02 0 0 0-5-5zm-70-60c-2.63 0-5.21 1.069-7.07 2.93S345 307.37 345 310s1.069 5.21 2.93 7.069A10.059 10.059 0 0 0 355 320c2.63 0 5.21-1.07 7.069-2.931C363.93 315.21 365 312.63 365 310s-1.07-5.21-2.931-7.07A10.085 10.085 0 0 0 355 300zm-4.21 64.874c-4.329-.848-8.539 1.979-9.388 6.314C338.476 386.145 325.271 397 310.006 397s-28.469-10.855-31.396-25.812a8 8 0 1 0-15.702 3.073c4.393 22.447 24.2 38.739 47.098 38.739s42.706-16.292 47.099-38.739a8 8 0 0 0-6.315-9.387zm192.207 55.12c0 20.953-17.047 38-38 38H453.01v67.009a8 8 0 0 1-8 8h-60a8 8 0 0 1 0-16h52v-59.009H208.007v67.009a8 8 0 0 1-8 8h-60a8 8 0 0 1 0-16h52v-59.009h-22c-37.495 0-68-30.505-68-68 0-21.044 9.848-40.839 26.212-53.623-27.541-34.282-37.143-79.252-25.663-122.098 16.141-60.237 70.92-102.307 133.212-102.307 11.211 0 22.453 1.385 33.416 4.117.753.181 1.566.389 2.38.605 25.292 6.777 46.425 22.993 59.514 45.663l26.937 46.656c15.021-11.023 33.149-17.003 51.986-17.003 48.523 0 88 39.477 88 88a87.577 87.577 0 0 1-3.345 24.065 52.923 52.923 0 0 1 24.377 15.091 52.832 52.832 0 0 1 13.965 35.844c0 11.453-3.638 22.358-10.252 31.346 12.146 6.383 20.251 19.099 20.251 33.644zm-16 0a21.905 21.905 0 0 0-18.427-21.69l-8.073 2.163a7.997 7.997 0 0 1-2.075.274 8 8 0 0 1-2.066-15.73l7.934-2.126c8.09-7.046 12.707-17.116 12.707-27.88 0-18.46-13.269-33.76-31.235-36.537l-6.336 3.658a7.997 7.997 0 0 1-10.928-2.928 8 8 0 0 1 2.928-10.928l6.197-3.578A71.546 71.546 0 0 0 482 280.004c0-39.701-32.299-72-72-72-17.376 0-34.005 6.234-47.096 17.576l-1.316 4.912a8.005 8.005 0 0 1-9.799 5.657 8 8 0 0 1-5.656-9.799l1.083-4.043-29.997-51.955c-10.951-18.969-28.634-32.537-49.79-38.206a85.744 85.744 0 0 0-2.055-.522 122.442 122.442 0 0 0-29.607-3.657c-55.063 0-103.487 37.193-117.757 90.447-10.557 39.4-.94 80.833 25.712 111.555h11.408a8 8 0 0 1 0 16h-12.772c-15.07 9.49-24.352 26.169-24.352 44.025 0 28.673 23.327 52 52 52h334.99c12.132 0 22.001-9.869 22.001-22z"/></svg>