<svg xmlns="http://www.w3.org/2000/svg" viewBox="0 0 320 320"><path d="M203.254 58.143c.782-2.666 2.518-16.557-1.126-30.139-.502-2.777-13.247-17.985-6.836-18.004 5.194-.015 6.165 1.277 9.293 5.699 9.856 13.933 13.662 32.458 14.487 45.555.924 14.611-16.095 37.181-39.909 45.432 0 0 1.244-8.051-1.712-15.156-2.959-7.106-7.035-9.327-6.987-9.135 0 0 29.979-14.656 32.79-24.252zm-49.067 32.67s-6.231-12.349-19.001-8.405c-12.77 3.944-7.662 35.115 31.96 48.228 21.489-33.042-1.776-59.071-12.959-39.823zm-24.134-23.205c14.296 10.271 24.782 14.938 30.015 8.685 5.012-5.987 1.065-12.808-1.894-15.936-.718-.758 4.271-5.562 2.582-6.329-8.474-3.848-11.638-5.793-15.733-8.27-14.905-9.018-25.697 14.144-14.97 21.85zm-16.63 104.228c-3.984 18.792 4.519 36.53 3.104 48.635-1.86 15.925-7.042 43.134-11.136 57.183-4.014 13.773-5.59 28.105-3.714 30.239 3.972 4.52 8.514 2.622 13.062-14.157 4.751-17.538 23.787-43.823 29.981-63.287 10.447-32.833 10.558-75.214 10.558-75.214-24.853-9.933-37.877-2.154-41.855 16.601zm101.996 14.788c-5.504-17.44-55.947-30.163-55.947-30.163s-.738 11.744-1.068 15.657c-.345 4.098-1.638 16.389-1.638 16.389s30.451 9.623 30.738 18.075c.236 6.856-11.626 42.724-16.125 56.055-1.048 3.115.495 5.218 3.873 5.481 10.719.836 33.202 3.02 35.78-1.753 2.579-4.773-24.074-7.844-22.53-10.405 12.419-20.648 32.421-51.896 26.917-69.336zm-84.862-43.793c12.194 11.688 68.669 10.155 78.738 1.647 9.816-8.295 7.888-11.728 1.726-10.74-8.845 1.42-18.505 6.131-18.505 6.131-18.202-5.052-31.85-6.329-41.23-11.537-25.229-14.009-29.169-35.269-25.4-42.381-29.299-.001-23.881 29.513 4.671 56.88z"/></svg>