<svg xmlns="http://www.w3.org/2000/svg" viewBox="0 0 320 320"><path d="M258.274 120.398c-1.961 1.366-4.932.265-6.572-1.06a1.728 1.728 0 0 1-.441-.583 2.259 2.259 0 0 1-.608-1.191c-.204-1.235.021-2.153.566-3.24a5.85 5.85 0 0 1 .919-1.306c.752-.818 1.941-1.409 3.072-1.357 1.793.083 3.506 1.249 4.222 2.916.9 2.096.896 4.39-1.158 5.821zm-2.253 15.881c-1.332 2.475-4.842 3.09-7.141 1.615-1.038-.666-1.997-1.735-1.934-3.057.019-.399.105-.76.235-1.095.023-.205.059-.412.122-.627.245-.835.645-1.671 1.292-2.274.988-.92 2.356-1.562 3.737-1.405 1.489.168 3.082.851 3.781 2.287.728 1.496.701 3.083-.092 4.556zm14.743 21.288c-.522 1.655-1.053 3.309-1.566 4.968.417.809.378 1.807-.517 2.611-.116.104-.235.198-.352.299-1.193 4.161-2.14 8.371-2.35 12.717.103.056.203.119.297.193 7.155 5.583 10.148 16.788 14.556 24.426 4.263 7.386 7.441 14.736 7.801 23.366a11.96 11.96 0 0 1-.316 3.3c.267.257.474.609.57 1.085 2.766 13.785-1.936 27.378-1.453 41.205 3.619 1.581 6.955 3.578 10.29 5.739.492.319.956.918.888 1.547-.27 2.479-.101 6.117-1.367 8.663 1.28 4.57 2.922 9.569-2.574 11.96-8.872 3.86-18.486 5.697-28.051 6.836-.737.088-1.562-.602-1.709-1.301a15.65 15.65 0 0 1-.311-2.364c-.57.512-1.487.622-2.312-.023-3.341-2.61-6.889-4.823-10.532-6.886-.118.993-.615 1.961-1.637 2.675-7.291 5.097-14.954 9.757-23.881 11.15-4.337.676-8.218-.072-12.482-.676-4.523-.64-9.072-.439-13.618-.232-10.858.494-26.764 1.415-31.411-11.002-1.907-5.095-1.202-16.144-7.602-17.913-8.276-2.287-16.864-1.833-24.629-6.048-6.251-3.393-13.017-8.461-18.085-13.428-4.527-4.436-6.255-9.981-8.2-15.77-8.845-1.873-17.603-4.116-25.909-7.336-11.616-4.503-23.05-9.414-32.524-17.748-9.281-8.164-15.129-18.656-17.893-30.689-2.443-10.636-3.141-21.891-.356-32.473-5.728-1.144-6.271 35.846 5.206 51.619 5.586 7.676 9.827 12.882 11.859 22.308 2.245 10.415.509 17.997.062 28.545-.065 1.543-.998 2.858-2.508 3.295-8.885 2.567-10.691-6.991-10.449-13.64.168-4.605.713-9.176.978-13.773.331-5.737-1.66-9.043-5.13-13.691-9.787-13.111-14.779-33.846-13.939-49.891.386-7.376 1.659-14.406 5.013-21.066 2.635-5.232 8.379-9.741 7.915-15.85-.009-.123.007-.229.008-.346-.535-1.126-1.044-2.224-1.47-3.277-2.006-4.965-4.413-10.655-3.695-16.127.709-5.406 5.098-8.04 10.277-8.181 7.111-.193.697-15.685-.562-19.45-1.163-3.481-1.31-7.188-2.432-10.665-1.323-4.105-4.419-4.317-7.672-6.23-4.726-2.778-7.609-11.711-7.368-16.873.144-3.089.852-5.934 3.016-8.248 2.454-2.623.037-6.008 1.7-9.068 3.026-5.566 8.55-6.493 13.913-8.751.613-.258 1.139-.251 1.576-.082.618-.447 1.363-.855 2.261-1.216a9.659 9.659 0 0 1 1.931-.55c.106-.306.294-.593.58-.837 2.118-1.805 4.288-2.106 6.298-1.503 5.613-.378 9.043 4.18 11.615 8.681 1.9-.079 3.754.067 5.354.657.592-.602 1.374-.999 2.283-.975 5.321.136 9.975 2.047 12.876 6.654 2.998 4.76.094 8.673-1.141 13.247-1.443 5.343 4.851 11.095 7.504 15.298 3.175 5.031 6.258 11.442 11.452 14.689.171.107.305.236.417.377 3.288-.246 6.577-.648 9.854-.82 2.429-.128 4.92-.234 7.388-.487a5.46 5.46 0 0 1-.546-1.802c-.431-3.447 4.599-22.276.799-23.033-3.096-.617-5.139-1.058-7.08-3.676-1.94-2.617-1.283-7.212-1.125-10.191.164-3.087-.78-6.642.542-9.539.632-1.385 1.788-2.654 3.396-2.927 1.375-.234 4.74.084 4.61-2.298-.456-8.36 5.896-8.324 12.095-7.896.885-2.481 2.645-4.346 6.033-4.774 6.772-.856 9.309 2.761 10.495 7.502.771-.796 1.877-1.194 3.212-.734.706.243 1.348.511 1.984.904.772.477 1.362 1.282 1.62 2.168.158.035.335.068.54.093 1.004.123 1.852.31 2.786.696 1.732.716 3.49 2.097 4.576 3.714a3.299 3.299 0 0 1 1.638 1.389c2.653 4.502 3.193 11.604 1.479 16.861.14.38.217.783.213 1.195-.029 2.616-.969 4.217-2.676 5.64a32.124 32.124 0 0 0 .101 3.644c.336 3.701.907 7.384 1.412 11.065.477 3.473 1.471 8.046.762 11.889 3.899-1.208 8.002-1.985 12.012-2.165.142-7.791-1.599-19.768 5.582-24.127 4.477-2.717 11.201-1.839 16.063-1.184 2.745.37 5.421.985 8.088 1.644-1.597-10.107-.453-20.691 2.479-30.473-5.751-2.798-7.101-13.804 1.064-13.772 4.321.017 7.926 2.092 9.15 6.361 1.027 3.582-2.128 6.02-5.227 6.684-2.773 10.353-5.025 21.267-4.139 32.028 1.851.46 3.708.905 5.59 1.264.146.028.272.077.39.134-1.334-21.343 25.023-40.561 45.053-32.304 4.936 2.035 9.164 6.074 11.521 10.867 2.151 4.372 6.29 11.681 3.067 16.353.082.284.124.6.093.966-.014.167-.043.325-.061.489-.089 4.947-.829 10.073-2.547 14.696-1.117 3.004-2.568 6.861-5.015 9.348.161.415.2.899.053 1.443-.551 2.042-1.585 3.567-2.89 4.972 2.052 1.37 3.907 3.39 4.479 5.384.313.13.602.319.836.592 3.635 4.234 5.762 8.449 6.712 12.953 2.19-2.735 4.879-4.551 7.928-3.901 7.139 1.522 15.404 13.397 14.81 20.687-.6 7.353-7.406 19.208-16.435 17.274-4.133-.885-7.162-4.536-9.032-8.822-.084 3.131-.221 6.262-.469 9.404-.562 7.088-1.611 13.89-3.756 20.691zm7.007-41.691c-.338 4.068 1.715 14.425 6.679 15.499 5.881 1.273 11.988-8.344 11.72-13.437-.164-3.116-1.687-6.393-3.382-8.948-1.097-1.653-6.182-8.51-8.756-5.443-2.768 3.298-5.14 7.489-6.282 11.722.028.188.039.388.021.607zm-8.688-7.851c-7.718-1.308-15.828-2.801-23.031-5.875-1.066-.455-2.14-.942-3.222-1.418-3.302 8.389-5.787 17.042-8.848 25.514-1.52 4.209-3.227 8.369-4.513 12.659-1.025 3.42-1.521 7.104-2.616 10.483.831.199 1.641.388 2.366.602 3.084.912 6.187 1.789 9.334 2.46 4.259.909 15.157 3.977 17.819-1.224 2.924-5.712 3.18-12.455 4.776-18.579 2.1-8.055 6.975-15.081 8.039-23.46-.036-.387-.062-.776-.104-1.162zm-40.051 18.596c3.158-9.207 5.68-18.6 9.247-27.668a24.4 24.4 0 0 0-1.45-.422c-3.766-.952-4.3.742-5.274 4.169-2.172 7.645-4.851 15.232-6.71 22.947-1.175 4.877-2.073 9.798-3.099 14.706-.301 1.442-1.94 5.746-.438 6.911.823.639 1.875 1.083 2.994 1.44-1.512-6.838 2.652-16.024 4.73-22.083zm41.753-73.069c-4.319-.391-9.636-3.595-12.907-3.766-6.751-.354-12.48 1.771-17.93 4.905-.054 2.624-.798 4.86-2.018 6.565 8.222 3.699 16.44 7.844 24.449 11.96 2.451-6.758 7.125-12.538 8.406-19.664zm-8.831 23.709c-9.202-2.778-17.674-9.064-25.883-14.088-1.689 1.261-3.818 1.847-6.165 1.574a37.452 37.452 0 0 1 4.821 2.917c3.377 2.399 6.538 5.088 10.176 7.095 3.966 2.187 14.01 7.87 17.551 3.291a2.806 2.806 0 0 1-.5-.789zm-34.858-37.533c5.339.587 9.926 4.47 11.867 9.478 8.258-4.164 17.105-6.027 26.626-2.548 3.083 1.127 7.664 3.225 5.916-2.092-.778-2.366-1.657-4.804-2.836-7.007-2.249-4.2-5.574-7.885-10.275-9.305-11.432-3.455-23.655 2.27-31.298 11.474zm-5.779 9.773c1.96-1.83 4.553-2.844 7.2-1.826.024.009.041.026.064.036 2.083-.227 4.135.473 5.546 2.57.27.401.496.806.694 1.213.197-.119.396-.229.593-.346-1.079-5.319-5.011-7.869-9.934-9.336-1.721 2.404-3.137 4.996-4.163 7.689zm-4.121 22.186c1.437 3.607 5.877 5.584 9.291 6.866 5.818 2.186 11.873 3.427 17.884 4.943 4.439 1.12 8.511 2.994 12.836 4.452 2.111.712 4.595 1.748 6.863 1.637 3.876-.19-1.369-3.246-2.912-3.459-.762-.105-1.237-.632-1.462-1.275-4.656.357-10.62-1.56-14.231-3.304-6.063-2.928-10.833-7.509-16.678-10.748-3.469-1.922-8.07-2.498-11.362-4.625-.625 1.845-.917 3.788-.229 5.513zm-5.235-51.834a1.61 1.61 0 0 1 .854-.168c3.581.23 4.052-5.613.599-6.36a6.38 6.38 0 0 0-3.333-.094c-3.688 1.373-.562 6.147 1.88 6.622zm-12.69 51.566c.326-.049.67-.061 1.034-.011a7.78 7.78 0 0 1 2.224.661c.043-.028.089-.053.131-.082 1.801-1.217 3.425-2.631 5.115-3.993 1.38-1.112 2.778-2.439 4.287-3.552a30.118 30.118 0 0 1 1.872-4.944c-4.249-.087-8.537-.33-12.747-.811-.465-.053-.943-.112-1.423-.171-.698 4.279-.142 8.65-.493 12.903zm-.78 9.667c-1.271.942-2.6 1.926-4.136 2.369-1.131.326-2.095-.248-2.609-1.095-.133.077-.268.145-.399.229-2.304 1.469-1.719 3.809-1.176 6.02 1.043 4.242 2.542 9.766 5.72 12.972 3.081 3.108 9.848-4.277 11.405-6.788.545-.879.883-1.726 1.058-2.542-.399.14-.798.281-1.189.456-1.148.513-2.268 1.103-3.382 1.684-2.408 1.256-4.121-1.971-2.07-3.541 1.596-1.221 4.129-2.096 6.337-2.208-.448-1.143-1.205-2.199-2.143-3.163-1.8 1.047-3.675 2.171-5.686 2.711-2.446.657-3.976-2.847-1.73-4.104 1.19-.666 2.553-1.192 3.935-1.377a34.317 34.317 0 0 0-3.222-1.821c-.084-.042-.145-.11-.222-.16-.163.118-.33.238-.491.358zm-3.364 33.897c-.182 3.028-.408 6.125-.92 9.15 1.688-1.109 3.382-2.253 4.952-3.674 4.433-4.013 7.613-9.055 8.886-14.719a3.203 3.203 0 0 1-.352-2.157l.185-.964c-3.52 3.508-8.079 6.349-12.41 5.182.222 2.381-.219 5.148-.341 7.182zm51.657 113.659c-4.335-3.632-8.424-9.012-10.442-13.368-2.401-5.181-4.802-11.01-6.361-16.528-.103.109-.207.214-.31.324-2.037 2.166-3.887 4.212-6.664 5.362-2.464 1.02-4.441-.42-5.941-3.141a144.612 144.612 0 0 1-1.317 10.162c-.917 5.585-1.969 11.349-3.533 16.91 7.288 3.924 14.81 7.309 22.085 11.271 4.843 2.638 10.248 4.5 15.095 7.202-1.181-5.437-1.686-11.024.374-15.557-.284-.018-.568-.038-.853-.051-1.455-.068-2.265-1.405-2.133-2.586zm-12.401-44.402c.763-3.27.92-7.425-.326-10.636a5.486 5.486 0 0 0-.537-1.035 59.843 59.843 0 0 0-4.776 1.088c-2.527.696-7.126.965-9.298 2.612-1.814 1.375-1.325 5.418-1.202 7.441.069 1.139 2.358 17.199 3.86 16.092 2.63-1.937 4.755-4.924 7.014-7.281 2.248-2.345 4.506-5.028 5.265-8.281zm-8.721-14.589c-13.886.014-27.834-4.92-39.889-11.73-5.169 16.644-3.182 33.821-3.787 50.983-.017.49-.123.918-.289 1.291 3.802.866 7.607 1.705 11.107 3.413 1.857.906 1.83 2.879.854 4.212 2.126 1.487 4.03 3.26 5.803 5.174 1.906 2.059 3.987 4.109 5.797 6.298 1.898-6.384 3.929-12.698 5.262-19.281 1.521-7.509 2.549-15.03 3.187-22.638-.436-6.037.148-11.766 1.76-13.613 1.829-2.096 4.35-2.554 6.935-3.222 1.093-.283 2.178-.583 3.26-.887zm-27.365 65.352c1.521-.422 3.056-.788 4.645-1.023-.053-.039-.109-.07-.16-.115-2.381-2.094-3.995-5.22-5.808-7.8-1.781-2.534-3.676-4.965-6.076-6.928 2.486 5.276 5.479 10.358 7.399 15.866zm-10.938-16.641l-1.119-.258c2.359 6.102.804 13.491 2.059 19.934a26.148 26.148 0 0 0 3.901-1.066c.459-.162.912-.316 1.367-.474-2.47-5.882-4.681-11.942-6.208-18.136zm-4.323-1.025c-3.587-.893-7.153-1.93-10.448-3.368-5.559-2.426-10.887-6.269-16.962-7.178-2.543 5.008-4.241 10.389-7.011 15.291l-.116.204c9.051 5.528 18.261 11.815 28.471 14.926 1.872.571 3.642.929 5.382 1.092-1.031-6.81.539-14.07.684-20.967zm-32.821-11.208c-1.62-.35-3.235-.913-4.827-1.264-3.479-.766-6.947-1.272-10.494-1.403a2.232 2.232 0 0 1-.629.49c.032 5.578.485 10.995 1.197 16.621.439 3.465 1.045 7.149 1.22 10.796 2.46-4.715 5.224-9.277 7.816-13.917 2.092-3.74 3.629-7.663 5.717-11.323zm14.263-16.316c.044 1.962-1.011 3.463-2.487 4.567 3.371 2.32 5.002 5.884 1.448 9.771 3.362 1.009 6.628 2.439 9.968 3.722.722.277 1.453.525 2.19.754-.704-16.823-2.584-38.201 7.161-52.934a1.988 1.988 0 0 1 .009-1.156c-.157-2.164.758-4.359 1.223-6.469.479-2.173.94-4.339 1.511-6.487-5.206.177-11.135-1.379-9.62-7.084-4.382-3.671-9.19-6.475-13.958-9.951a42.542 42.542 0 0 1-2.685-2.119c-3.401 3.547-6.607 7.238-9.826 10.964-3.609 4.176-7.11 9.278-11.43 12.74-7.284 5.837-16.445 4.623-25.165 6.223-7.88 1.446-16.568 3.02-23.569-2.071-8.094-5.886-13.61-14.344-19.019-22.599-3.004-4.584-6.304-9.135-9.175-13.902 1.512 7.069 3.702 14.035 4.479 21.186.038.348-.027.662-.152.944 6.24 5.04 6.903 15.676 12.463 22.161 7.682 8.961 17.413 14.971 28.322 18.477-3.032-3.282-5.121-7.545-.869-11.089 4.14-3.451 10.302-1.904 12.439 2.82 2.996.161 6.124 1.337 7.895 3.552 2.252 2.816 2.002 6.227.123 8.682 4.036.491 8.107.78 12.049.657 5.713-.179 11.877-1.43 17.51.057 4.378 1.154 9.052 3.509 9.165 8.584zm-43.23-15.327a9.385 9.385 0 0 0-6.492-1.56c-1.228.155-1.789.891-1.987 1.818.366.304.673.698.867 1.181.55 1.379.924 1.963 2.527 2.282 1.339.267 3.34.468 4.594-.196 1.868-.99 1.986-2.5.491-3.525zm-8.733-5.202c-1.254-1.203-3.571-.936-4.713.506-.908 1.147.269 2.922.84 3.996.18.338.369.675.558 1.013.225-.242.483-.429.767-.55-.123-2.009.641-3.872 2.548-4.965zm75.242-40.456c.983-2.962 1.516-6.048 1.798-9.152.267-2.943.424-5.894.463-8.85.012-.884-.055-1.824-.039-2.751-4.919 1.386-13.015.387-15.697.406-4.084.028-10.486 1.84-15.297.894a3.166 3.166 0 0 1-.899.741c-.811.452-1.603.783-2.376 1.015 5.58 10.089 18.461 12.521 25.745 20.834.316-.226.726-.334 1.217-.192 1.142.33 1.96.482 2.591.416a16.551 16.551 0 0 1 2.405-3.098l.089-.263zm-5.633-50.836c1.757.144 3.475.405 5.112.829.033.009.055.03.087.041 1.62-1.021 3.251-1.328 4.949-1.473-.079-.561.019-1.186.369-1.836.363-.685.733-1.365 1.111-2.042.137-.249.295-.449.46-.628-.04-4.725.707-10.232 2.429-14.737-3.222-.351-6.567-.546-9.539.135-7.246 1.659-4.221 12.973-4.978 19.711zm-23.442 11.829c-1.67.898-1.421.206-1.451 1.475-.027 1.185-.028 2.335.081 3.516.111 1.2.35 8.386 1.893 8.747 5.313 1.241 11.536-.612 17.026-.573 3.026.021 6.07.09 9.093-.102 1.273-.081 2.635-.093 3.865-.468l.067-.022c-2.706-4.452-4.191-10.52-4.839-14.321-.278-1.63-.379-3.625.077-5.394-8.689 1.708-18.095 2.994-25.812 7.142zm-33.341-40.695c1.635.113 2.958 1.015 3.446 2.623 1.552 5.113 3.462 18.941-.14 25.98.502-.227 2.143-.992 2.399-1.511 4.432-8.997 2.425-20.176 3.096-29.989-4.313.797-9.143 1.493-12.096-1.185-.011.164-.027.333-.037.496-.182 2.981.165 3.366 3.332 3.586zm-60.984-1.044a183.763 183.763 0 0 1 5.112 6.322c.535-3.315 1.389-7.613 1.35-11.073-1.666 1.892-4.164 3.45-6.462 4.751zM41.67 33.772c.887 2.558 2.263 4.905 3.324 7.392.482 1.129.336 2.357-.798 3.044-1.888 1.144-9.372 4.918-7.143 8.091 2.227 3.171 6.23.021 9.356 1.73 5.736 3.136 6.074 11.646 7.296 17.326 2.081 9.675 3.188 19.927 6.566 29.266 3.061 8.461 8.472 15.624 13.368 23.079 5.002 7.616 10.176 17.319 18.106 22.31 7.794 4.906 16.169 2.153 24.622.856 3.853-.591 7.897-.231 11.701-1.096 5.255-1.195 8.23-4.565 11.634-8.489 5.339-6.156 10.317-12.61 15.963-18.48-1.734-2.14-3.056-4.553-3.735-7.349-5.947-.81-10.104-7.853-10.926-14.037-.484-3.642-.013-8.02 2.999-10.528 2.593-2.159 5.93-1.965 8.638-.441.338-.418.709-.8 1.159-1.09a42.841 42.841 0 0 1 4.674-2.593c-2.345-5.172-3.952-11.067-6-16.162-2.116-5.264-4.585-10.954-4.865-16.699-.202-4.146.503-7.836 4.548-9.713.937-.435 2.093-.636 2.938-1.243 1.746-1.254 1.11-5.706-1.467-5.763-2.272-.05-4.503.121-6.766-.173-.892-.116-1.934-.571-2.1-1.599-.446-2.766-.383-5.667-1.001-8.393-.616-2.716-4.358-6.958-7.249-3.66-.407.464-.697 1.021-.914 1.631.07.175.124.36.153.556.446 2.986.892 5.907-.143 8.71.119.977.216 1.887.231 2.659.028 1.443-1.169 2.419-2.514 2.514-1.323.094-2.703.151-4.04.365-.374.195-.74.39-1.079.586a3.511 3.511 0 0 1-1.836.496c-1.58 1.351-3.374 4.296-.438 5.001 3.348.804 6.904-.373 10.228-.859 1.354-.198 3.243.6 3.032 2.309-1.392 11.277.846 23.734-4.785 34.097.111.678-.102 1.412-.823 1.898-6.585 4.443-14.802 4.671-22.474 5.106-7.087.402-14.737 2.114-21.76.369a17.932 17.932 0 0 1-5.792-2.594c-.831.226-1.806-.005-2.505-.947a201.797 201.797 0 0 1-3.549-4.959c-1.41-1.802-2.727-3.74-4.078-5.687-4.351-6.268-11.042-13.494-13.008-21.191-.795-.47-1.221-1.576-.342-2.279l.287-.23c.031-.027.062-.055.096-.077 3.024-2.432 12.204-10.09 3.512-10.293-3.545-.083-6.982.658-10.485 1.072-1.028.122-1.887-.79-2.186-1.665-.533-1.558-1.289-3.565-2.501-4.755-1.041-1.367-2.46-1.936-4.257-1.706l-2.872 4.287zm109.306 56.923c-1.338-.121-2.603-.004-3.287.856-.916 1.15-.918 3.946-.629 5.53.602 3.299 2.612 8.763 6.447 8.35-1.641-3.216-3.249-9.803-2.531-14.736zM33.393 39.568c.571 1.663 1.423 3.131 2.332 4.624 1.355-1.143 2.933-2.118 4.522-2.962-1.007-2.323-2.224-4.85-2.73-7.236a1.358 1.358 0 0 1-.382.39c-1.681 1.135-4.598 2.693-3.742 5.184zm5.677 81.944c.883 3.143 4.853 10.681 5.614 16.415 3.628-3.016 7.929-4.996 12.56-4.823 1.066.04 2.038.172 2.943.369-2.763-8.207-2.792-17.809-2.67-26.261-1.051-2.255-1.952-4.574-2.628-6.985-3.12-11.139-5.391-22.791-7.483-34.163-.379-2.06-.635-4.776-1.945-6.499-1.659-2.183-5.397-.381-7.591-.66-1.563-.199-3.229-1.404-4.389-2.882-.097 2.169.379 4.386 1.433 6.224.892 1.554.548.418 2.868 1.181 3.881 1.276 6.246 3.975 7.666 7.763 3.402 9.072 2.447 18.937 3.676 28.377.647 4.967 2.84 9.416.196 14.146-2.128 3.805-11.544 3.193-10.25 7.798zm83.584 118.996c.179.037.369.079.554.118.207.084.431.127.666.144 10.992 2.442 30.634 8.636 31.249-8.262.009-.246.047-.473.103-.687a117.174 117.174 0 0 1-8.386-6.632c-2.277 3.959-4.567 7.901-6.64 11.969-.039.013-.078.017-.117.029a3.44 3.44 0 0 1-.191.539c-.252.562-1.075 1.031-1.686.967-4.711-.494-9.707-.598-14.336-1.584a.967.967 0 0 1-.297-.118 1.648 1.648 0 0 1-1.011-.217c-.766-.448-1.153-1.584-.619-2.36l.161-.233c-.7-5.723-1.13-11.539-1.159-17.343-.292-4.757-.562-9.515-.836-14.282-.081-1.417.627-3.128 2.176-3.294.377-.041.758-.048 1.14-.047.047-.013.091-.031.143-.038 2.8-.421 5.638-.248 8.422.229.644-.714 1.953-.559 2.239.389 3.931-.287 7.893-.139 11.815.231 2.567.242 5.306.264 7.652 1.243 1.293-.852 3.019.205 3.386 1.629 1.091.084 2.158.26 3.216.473a1.44 1.44 0 0 1 .2-.429c2.988-4.326-2.234-5.73-5.604-6.264-2.388-.378-2.288-4.244 0-4.706l1.477-.298c4.553-1.594.286-4.793-2.506-5.185a26.88 26.88 0 0 0-5.387-.198c-3.097.193-6.164.628-9.255.879-6.14.5-12.372-.003-18.463-.826-13.37-1.806-26.323-5.625-37.001-14.154-5.362-4.283-11.469-9.402-14.304-15.849-2.117-4.815-3.583-15.263-9.468-16.853-13.87-3.746-21.305 15.965-22.032 26.257-.916 12.976 1.678 27.734 8.936 38.778 7.276 11.071 19.248 18.49 31.243 23.582 14.361 6.099 29.306 9.273 44.52 12.403zm8.116-36.83c-.292-.072-.582-.147-.874-.221-1.702-.122-3.363-.553-5.162-.814.255 1.786.477 3.584.675 5.389 1.6-.22 3.236-.365 4.839-.244.11-1.384.273-2.759.522-4.11zm-.478 17.592c-1.337-.165-2.584-.351-3.954-.032.056 1.908.082 3.816.069 5.72 1.343-.235 2.751-.372 4.087-.207-.071-1.832-.136-3.656-.202-5.481zm-4.502-9.359c.154 1.786.289 3.575.385 5.368 1.269-.496 2.63-.724 3.955-.574a118.19 118.19 0 0 1-.064-4.587c-1.417.088-2.858-.021-4.276-.207zm.385 22.236c1.28-.093 2.635.039 3.637.091.348.018.695.044 1.042.064-.061-1.083-.126-2.165-.176-3.253-.816-.042-1.63-.225-2.453-.254a22.134 22.134 0 0 0-1.894.022c-.036 1.113-.096 2.221-.156 3.33zm135.217 61.491c-1.937-4.414-2.492-10.055-3.646-14.483-1.909-7.325-3.396-14.711-5.149-22.064a95.744 95.744 0 0 0-.846-3.24 2.692 2.692 0 0 1-.973-.456c-6.439-4.781-14.344-7.25-21.284-11.241-6.319-3.634-12.662-7.604-18.373-12.227-.588 1.774-1.225 3.525-1.955 5.224-.628 1.462-2.008 1.765-3.242 1.367-.22.128-.467.228-.76.272-5.536.821-10.302 3.853-15.728 4.933a25.95 25.95 0 0 1-1.96.312c5.194 3.692 10.018 7.946 14.88 12.025 7.732 6.486 15.93 12.419 24.37 17.953 7.454 4.887 15.207 9.114 22.894 13.595 3.823 2.227 8.418 4.684 11.772 8.03zm11.736 6.39a4.905 4.905 0 0 1-.489-1.777 7.467 7.467 0 0 1 .028-1.504c-1.859.72-3.71 1.254-5.37 1.305.059 2.288 1.075 2.708 4.128 2.241.567-.086 1.135-.176 1.703-.265zm7.92-1.499a1.172 1.172 0 0 1-.314-.611c-.002-.01-.006-.021-.007-.031-.514-.235-.933-.673-1.079-1.25-.258-1.018-.306-2.001-.271-3.005-1.152.571-2.43 1.217-3.751 1.839.03.08.076.149.09.241.185 1.285.517 2.483.793 3.74.087-.017.175-.029.263-.046 1.425-.278 2.853-.568 4.276-.877zm6.925-1.782a1.762 1.762 0 0 1-.357-.799 19.78 19.78 0 0 0-.44-1.943c-.194-.657-.496-1.293-.65-1.957a1.616 1.616 0 0 1 .091-.979c-1.244.323-2.489.646-3.712 1.023.012.068.03.132.036.205.1 1.128.255 2.171.505 3.295.053.238.061.476.037.708.205.36.322.746.321 1.204a1.568 1.568 0 0 1-.061.401 65.238 65.238 0 0 0 3.537-.963c.19-.061.432-.126.693-.195zm6.988-8.694c-1.794 1.042-3.726 1.725-5.7 2.297.021.023.045.041.065.067 1.04 1.27 1.616 2.929 2.118 4.476.1.307.122.593.084.854 2.254-.761 4.412-1.889 4.265-3.67-.113-1.362-.461-2.699-.832-4.024zm-9.922-55.669c-1.137.725-2.545 1.129-4.231 1.076-5.08-.16-10.045-1.786-15.052-2.553a161.074 161.074 0 0 0-12.109-1.384c-.11.066-.233.108-.352.157.527 20.244 9.757 39.359 11.723 59.436.314 3.208 1.362 5.442 4.908 4.35a49.12 49.12 0 0 0 6.46-2.519c2.501-1.175 4.793-2.28 7.477-2.963 3.69-.939 9.981-1.549 10.619-6.148.537-3.867.488-3.69-2.761-5.545-2.234-1.276-4.448-2.375-6.921-3.127-.972-.296-1.464-1.072-1.556-2.044-1.23-12.992 3.394-25.794 1.795-38.736zm-1.109-7.291c-5.292-.056-12.157.908-17.036-1.728-1.989.81-3.991 1.585-6.017 2.302 4.662.476 9.308 1.145 13.861 2.073 3.374.688 9.087 2.718 9.189-2.537l.003-.11zm-10.954-4.385c3.565-.074 7.161-.536 10.682-.717-.21-1.057-.566-2.025-1.16-2.726a12.19 12.19 0 0 1-.729-.969 145.492 145.492 0 0 1-8.793 4.412zm-9.625-41.383c-.419-.178-.75-.537-.84-1.116-.601-3.861-.502-7.575.028-11.259-3.287 1.333-6.873 1.905-10.567 2.036-4.565.162-8.871.313-13.175.795 2.118 5.742 1.779 13.092-1.322 18.232-1.52 2.519-3.424 4.543-5.405 6.575 5.108 2.019 7.187 9.623 9.469 14.023 1.792 3.457 4.071 6.57 6.561 9.559 1.527 1.833 3.404 3.573 4.904 5.505 9.317-2.673 18.201-6.399 26.74-11.057-.878-1.868-1.682-3.807-2.598-5.412a180.583 180.583 0 0 1-5.571-10.567c-2.708-5.569-6.196-11.415-8.224-17.314zm6.026-57.088c-1.443 4.585-3.166 9.132-4.049 13.877-1.027 5.521-1.869 16.04-7.963 18.699-6.521 2.845-14.585 1.038-21.206-.62a174.086 174.086 0 0 1-10.669-3.052c-2.634-.84-5.534-1.331-7.473-3.474-1.688-1.865-1.308-4.676-.853-6.925 1.098-5.425 2.098-10.89 3.389-16.272 1.349-5.624 3.619-10.957 5.018-16.528.977-3.89 1.742-7.85 3.15-11.615 2.308-6.175 8.681-4.547 13.695-2.696 8.582 3.167 16.95 5.643 25.916 7.339-.528-2.989-1.157-5.964-1.647-8.978-5.932 2.212-13.706-2.577-19.145-4.43-10.294-3.508-21.109-3.653-30.578-9.576-3.762-2.353-5.364-5.637-5.632-9.198a58.1 58.1 0 0 1-3.518 3.463c6.491.636 10.506 12.765 11.8 17.493 3.131 11.445 1.304 24.631-5.806 34.153-6.247 8.366-15.017 13.679-25.194 15.359.305 2.799.249 5.574.1 8.382-.088 1.651.016 3.488-.483 5.09 9.111 3.425 18.651 6.436 28.121 8.379 5.296 1.087 14.413.072 19.316 3.959.948-.192 1.9-.37 2.863-.508 8.304-1.196 18 1.406 25.242-3.667.277-1.075.572-2.152.897-3.235 2.274-7.561 3.938-14.864 4.364-22.786.228-4.221.315-8.427.345-12.633zM81.848 95.421c-3.235 2.398-3.415 6.615-4.945 10.044-.889 1.993-.261 4.407 2.052 5.043 2.07.569 4.46-1.062 4.346-3.311-.179-3.529-.077-6.583.866-9.994.34-1.23-1.157-2.643-2.319-1.782zm48.749 5.886c-1.634-9.119-11.03-10.32-16.482-5.083-5.357-4.352-14.097-1.748-14.694 6.808-.135 1.932 2.809 2.724 3.669.994 2.042-4.112 5.889-5.775 8.493-1.18 1.384 2.441 4.767 1.681 5.61-.733 1.951-5.589 6.701-4.257 8.446.562 1.135 3.132 5.543 1.895 4.958-1.368zM120.382 138.3c-10.678 1.471-28.601 1.902-30.796-12.05-.778-4.947 1.602-11.516 6.461-13.684 5.323-2.375 10.917-1.632 16.48-2.448.087-.062.162-.13.261-.186 7.345-4.183 24.015-2.596 26.575 7.1 3.352 12.691-8.042 19.761-18.981 21.268zm3.072-24.89c.058.222.097.459.091.73-.531 5.932 6.427 5.62 7.427.393.028-.145.073-.27.118-.396-1.445-.542-3.138-.721-4.985-.707-.834.006-1.731-.014-2.651-.02zm-11.799 1.312c.184.312.296.691.28 1.153-.233 6.682 6.789 3.571 6.873-1.736.014-.148.047-.284.081-.418-1.159.213-2.26.557-3.209 1.155-1.249.788-2.466.442-3.282-.365-.243.079-.495.143-.743.211zm-13.46 17.468c-.003.025-.015.044-.019.069 2.035 1.091 4.578 1.74 7.21 2.091a2.415 2.415 0 0 1-.123-.771c-.023-2.433-.827-5.948-3.783-6.358-2.849-.396-3.06 2.941-3.285 4.969zm2.247-15.393c.009.042.032.077.036.12.604 6.021 6.881 3.883 7.029-1.041.004-.123.026-.233.045-.345-2.441.353-4.929.615-7.11 1.266zm15.283 17.703a2.53 2.53 0 0 1-.316-.921c-.241-1.802-1.037-5.61-3.418-5.958-1.952-.285-2.173 2.446-2.1 4.384.063.517.109 1.041.121 1.573.01.432-.086.797-.245 1.107a51.994 51.994 0 0 0 5.958-.185zm11.73-2.679c-1.565-6.464-6.195-2.278-7.461 2.097 2.405-.435 5.04-1.101 7.461-2.097zm43.997 31.261c-.193.149-.397.276-.598.408.003.017.009.03.012.047 2.075 13.954-20.019 11.188-21.236-.732-.571-5.591 3.345-10.734 8.583-12.452 4.04-1.325 8.433-.271 9.253 4.02 1.82-.017 3.525.427 4.631 1.479 2.204 2.096 1.649 5.456-.645 7.23zm-2.853-4.113c-1.218-.578-3.482-.656-5.299-.325.053.394-.076.813-.293 1.122-.035.236-.378.471-.442.684-.124.417-.482.257-.482.549v.016c2.083-.286 3.548-.526 5.044-1.122.294-.117 1.64-.831 1.639-.632.002-.447.192-.122-.167-.292zm-2.276 6.437c-1.051.308-2.112.589-3.135.93-1.162.388-2.093-.068-2.667-.839-.776-.087-1.522-.569-1.845-1.495-.49-1.408-.377-3.184.368-4.498.16-.282.345-.561.562-.809a.967.967 0 0 1 .087-1.086c.918-1.222 2.608-2.184 4.492-2.733-.773-2.399-4.274-1.195-5.909-.135-2.636 1.708-5.053 4.784-4.106 8.127.888 3.133 3.756 5.093 6.905 5.599 3.045.489 4.682-.576 5.248-3.061z"/></svg>