<svg xmlns="http://www.w3.org/2000/svg" viewBox="0 0 320 320"><path d="M126.282 166.963c5.412-.001 10.795.028 16.156.839 1.713.259 1.287 3.057-.405 2.991-5.268-.206-10.473-1.112-15.751-1.184-1.705-.024-1.708-2.646 0-2.646zm14.087 47.196c2.067.513 2.82-2.435.867-3.145-5.072-1.844-10.527-3.142-15.939-2.458-1.647.208-1.729 2.78 0 2.646 5.378-.417 9.979 1.694 15.072 2.957zm23.252 16.306c-11.743 5.034-25.317 6.982-38.012 5.617-8.966-.964-17.064-5.418-18.332-15.116-.807-6.167-.051-12.504-.65-18.74-.638-6.652-1.332-13.4-.365-20.059 1.212-8.346 2.004-19.9 8.839-25.816-1.094-1.671-1.492-3.681-.661-6.223 1.445-4.419 4.167-7.22 7.378-10.454 3.883-3.911 7.856-9.578 8.98-15.198a15.743 15.743 0 0 0-2.601-1.539c.138 3.892-4.046 6.14-7.661 5.679-3.836-.489-6.225-3.382-6.081-6.958-2.321.791-4.239 2.25-5.291 4.547-.302.659-1.25.585-1.653.096-.276-.078-.504-.276-.549-.602-1.817-13.086 11.611-24.232 23.523-17.129 1.361-4.337 2.407-8.659 3.297-13.195.253-1.287 2.311-.981 2.266.307-.111 3.221.221 6.568-.293 9.759-.311 1.932-.817 3.843-1.201 5.763 1.746-.277 3.509-.462 5.263-.401 1.769.062 1.76 2.653 0 2.738-1.896.091-3.774.143-5.654.317-.029.479-.038.952-.016 1.414 2.228-.198 4.573.381 6.508 1.372 1.407.72.82 3.298-.838 3.096-1.793-.218-3.453-1.007-5.194-1.047.589 2.997 1.269 5.85-.621 9.121-.046.079-.111.127-.168.189-1.058 4.385-3.665 8.661-6.832 11.939-1.38 5.372-4.288 12.658-2.167 17.906.48 1.187-1.397 2.29-2.185 1.272-3.228-4.165-1.518-10.576.453-15.855-.065.044-.128.093-.193.136-5.259 3.506-9.68 10.323-2.644 14.747 2.794 1.757 5.756 3.294 8.358 5.334.781.613-.258 1.959-1.063 1.377-2.856-2.068-7.554-3.797-10.604-6.435-5.23 5.947-6.123 15.347-7.337 22.842-1.032 6.374-.383 12.791.37 19.16.635 5.378.714 11.026 1.729 16.337 1.954 10.228 9.517 13.07 19.151 14.064 11.008 1.136 21.021-.371 31.731-2.78 1.392-.313 2.456 1.802 1.02 2.418zM126.17 122.12a21.916 21.916 0 0 0-1.469-.445c.007.965-.28 1.957-1.065 2.576-.798.63-1.636.898-2.648.699-.988-.194-1.363-1.605-.663-2.297l-.003-.012a.619.619 0 0 1-.036-.119c-.051-.123-.108-.244-.152-.37a1.937 1.937 0 0 1-.017-1.197 17.194 17.194 0 0 0-3.706.223c-.39 3 1.652 5.358 4.832 5.351 3.067-.008 4.489-1.562 4.927-4.409zm4.518-.274c-1.094-3.275-2.532-6.426-1.224-10.15.142-.406.26-.808.396-1.212-.055-.011-.104-.004-.161-.025-2.893-1.071-6.009-1.725-8.934-1.332-.902 2.439-2.597 4.628-3.685 6.997-.323.703-.656 1.4-1.032 2.058 4.918-.411 10.81 1.288 14.64 3.664zm42.559 71.303c-.281-1.255-.765-2.477-1.336-3.676 1.478-.833.667-4.001-1.589-3.013-.615-1.097-1.23-2.178-1.757-3.244-2.536-5.139-4.563-10.479-6.544-15.848-2.743-7.432-5.72-16.406-12.337-21.303-.031-.023-.064-.036-.095-.056a37.08 37.08 0 0 0-.947-1.31c-1.05-1.379-3.398-.127-2.391 1.397.401.606.834 1.225 1.272 1.855.067.165.173.322.319.464 1.961 2.855 3.857 5.973 3.062 9.479-1.087 4.795-6.565 2.704-10.326 1.128a1.327 1.327 0 0 0-.434-1.154c-.691-.642-1.451-.999-2.365-1.204-1.034-.232-1.639-.319-2.745-.15-.75.115-1.385.886-1.575 1.575a2.08 2.08 0 0 0-.039.873c-.355.611-.421 1.36.056 2.074 1.102 1.646 2.708 1.808 4.507 1.493.623-.109.917-.532.984-1.017.045-.061.093-.12.131-.185.135-.231.21-.5.252-.777 4.133 2.175 9.624 5.042 12.878.252.996-1.466 1.365-3.091 1.327-4.759 2.505 4.612 4.202 9.784 5.957 14.563 1.384 3.768 2.987 7.422 4.65 11.046-4.557-1.426-9.151-2.864-13.748-4.125-3.718-1.02-7.73-2.421-11.37-.575-.795.403-1.155 1.049-1.219 1.735a250.296 250.296 0 0 0-3.306-.113l-.644-.016a1.287 1.287 0 0 0-.367-.165c-6.489-1.712-11.69-.74-17.02 2.345-2.206.987-4.213 2.38-5.868 4.376-.395.477.103 1.244.69.894 7.965-4.754 16.988-4.143 25.911-3.961 5.168.105 10.079.139 15.208 1.025 4.471.773 8.571 1.65 13.1 1.546l1.515 3.237c-3.343 1.265-6.871 2.221-10.115 3.748-5.335 2.51-10.275 4.504-16.19 5.063-11.326 1.07-18.817-6.337-28.967-9.376-1.202-.36-1.703 1.497-.515 1.869 5.331 1.671 9.886 4.886 14.887 7.283 4.078 1.955 8.461 2.536 12.936 2.516 4.451-.02 9.024-1.016 13.096-2.775 4.352-1.88 10.386-6.084 15.656-6.64.312.67.624 1.34.932 2.012.182 12.141 7.37 21.912 10.165 33.507.476 1.973 3.341 1.115 2.996-.826-1.661-9.351-6.412-17.851-8.762-26.987 2.739 2.403 5.66 4.602 7.432 7.881 1.102 2.039 4.258.206 3.108-1.817-2.532-4.458-6.786-6.813-10.456-10.164zm-59.121-53.45c5.642-1.961 9.239-6.536 13.191-10.74.68-.723-.364-1.767-1.088-1.088-3.964 3.722-8.327 6.804-13.253 9.1-1.533.715-.44 3.28 1.15 2.728zm-6.539 6.217c.119-.694.027-1.346-.493-1.866a1.936 1.936 0 0 0-2.324-.3l-.093.054a1.828 1.828 0 0 0-.738.844c-.203.289-.33.628-.33.996 0 .833.547 1.415 1.287 1.691.998.372 2.501-.315 2.691-1.419zm12.788-16.778c-2.167.156-4.318.314-6.478.567-1.934.227-3.854.243-5.659 1.007-1.237.524-.952 2.769.386 2.952 3.966.544 8.68-1.027 12.255-2.663.901-.412.462-1.932-.504-1.863zm67.862 16.585c6.243 10.938 16.291 18.786 18.951 31.602.364 1.753 3.323 1.376 3.142-.425-1.309-13.079-13.737-21.933-20.977-31.829-.482-.658-1.538-.087-1.116.652zm29.854 9.36c-.83 2.053-.78 4.142-.716 6.312.064 2.178 3.354 2.185 3.384 0 .025-1.832-.228-3.718.269-5.502.541-1.941-2.221-2.58-2.937-.81zm73.362 136.872c-.151.355-.318.694-.499 1.02-.748 3.415-.195 6.796-2.428 9.736-1.627 2.142-4.158 3.457-6.563 4.51-6.302 2.76-13.877 3.128-20.625 2.54-9.893-.862-19.41-3.616-29.021-5.968-9.596-2.349-19.305-4.604-28.607-7.971a1.1 1.1 0 0 1-.327-.193c-3.079 1.663-6.165 3.307-9.327 4.792-2.766 1.3-5.653 2.743-8.609 3.555-3.085.848-6.273 1.101-9.358 1.949-.859.236-1.617.122-2.232-.207-9.123 2.16-19.008 2.261-28.25 1.292-9.035-.947-17.702-3.218-24.257-9.856-7.556-7.652-14.513-16.059-20.13-25.251a84.613 84.613 0 0 1-2.869-5.106c-5.364-.056-10.746 1.535-15.895 2.864-5.124 1.322-10.354 2.129-15.494 3.376-10.959 2.66-19.819 9.404-30.397 12.887-1.53.504-2.761-.81-2.9-2.209-.411-4.141-.485-8.321-.139-12.468-.604-.412-1.029-1.081-1.038-1.97-.106-10.602-.251-20.551-2.808-30.888-1.613-6.52-4.024-14.414-1.536-21.01 2.423-6.426 9.56-9.221 15.706-10.713 5.91-1.434 11.595-2.655 17.312-4.583-1.618-4.2-2.594-8.615-2.601-13.024-.014-9.268 1.875-19.835 7.514-27.45 2.758-3.725 6.053-6.289 9.679-8.349-2.686-4.745-2.682-10.722-2.16-16.006.594-6.011 1.338-12.276 2.935-18.102 4.287-15.647 13.579-29.168 18.579-44.504 3.904-11.975 4.473-27.769 14.456-36.782 3.809-3.439 8.448-5.095 12.54-1.326 3.167-6.525 9.743-9.964 16.597-13.126 11.253-5.192 22.069-11.347 34.565-13.012 23.194-3.091 39.651 12.429 58.004 23.784 4.277 2.646 9.205 4.623 12.264 8.8 2.948 4.025 4.272 8.564 5.225 13.404.384 1.951.751 3.91 1.114 5.871 3.367 7.761 8.071 14.876 12.399 22.118 4.143 6.931 7.413 14.229 9.969 21.889 2.954 8.854 6.1 17.277 10.038 25.754 3.284 7.068 5.475 13.745 6.569 21.487 1.924 13.617 4.204 27.841-2.489 40.626-.019.037-.041.073-.06.11 8.159 16.288 6.22 34.331 5.644 52.002-.308 9.441-.771 19.076.208 28.486.574 5.491 1.534 11.963-.698 17.222zM137.001 45.936c.443 0 .889.007 1.34.025 7.593.297 15.097 1.049 22.68 1.424 7.105.352 14.331.506 21.322 1.957 11.026 2.289 19.732 8.17 26.758 16.929 6.845 8.534 13.597 18.1 18.916 27.664 3.135 5.636 5.656 11.579 7.712 17.687a72.669 72.669 0 0 0 6.194-2.994c-2.229-5.568-3.965-11.289-6.358-16.816-2.19-5.056-4.339-10.119-5.581-15.505-.343-1.484 1.901-2.112 2.284-.63 1.636 6.331 4.666 11.986 7.508 17.829 2.068 4.252 3.528 8.894 5.651 13.113.972-.594 1.946-1.212 2.933-1.807-.385-1.159-.773-2.317-1.162-3.474-3.137-9.333-6.76-19.039-6.243-29.038.067-1.289 1.931-1.288 2 0 .567 10.715 4.738 20.677 8.748 30.688.77-.361 1.556-.683 2.363-.939.84-.266 1.552-.106 2.092.282a163.013 163.013 0 0 1-2.402-5.286c-4.636-10.771-6.529-22.398-8.685-33.85-.957-5.08-1.469-11.016-4.278-15.501-2.677-4.276-6.69-5.972-10.812-8.521-15.741-9.738-32.048-25.702-51.989-24.148-5.448.425-10.645 1.718-15.702 3.468a1.705 1.705 0 0 1-.379.836c-1.047 1.256-2.156 2.449-3.283 3.623 8.491-.861 17.816-.035 24.324 3.567 2.696 1.492.756 5.186-1.979 4.695-9.252-1.66-18.91-4.211-28.331-2.201-.493.503-.992 1-1.476 1.513-1.647 1.746-3.161 3.597-4.67 5.45 1.609-.214 3.185-.396 4.66-.551 17.361-1.82 35.3.306 51.923 5.61 3.495 1.115 2.042 6.083-1.497 5.429-15.794-2.918-31.375-6.535-47.573-5.266-3.853.302-8.451.428-12.946 1.061-1.123 1.163-2.525 2.502-4.062 3.677zm-18.034 9.901c-7.983 7.26-10.933 17.753-10.93 28.277.001 5.617-1.396 10.679-3.172 15.916a2.443 2.443 0 0 1 1.164.125c2.639.9 23.002-1.972 21.443 3.348a.731.731 0 0 1-1.062.432c-6.013-3.439-14.595.671-21.047 1.145-.898.066-1.525-.27-1.914-.792-.844 2.789-1.339 5.49-.812 8.656.419 2.515.601 4.698.049 7.205-.117.53-.506.821-.947.905-2.425 9.682-9.009 18.981-8.487 29.162.553 10.786 3.085 21.801 4.862 32.448.853 5.11 1.715 10.292 1.796 15.485.079 5.1-.39 10.226-.1 15.322.545 9.557 4.636 17.313 11.569 23.787 3.008 2.809 6.587 5.352 9.218 8.521 2.448 2.948 4.404 7.014 8.58 7.66 2.309.357 4.744.62 7.125 1.037-1.662-1.693-3.446-3.277-5.229-4.839-1.043-.913.38-2.786 1.491-1.933a39.774 39.774 0 0 1 7.579 7.645c2.636.775 5.062 1.948 6.987 3.928-2.464-5.667-5.954-10.488-9.146-15.88-.88-1.486 1.296-3.27 2.44-1.883 3.777 4.581 6.964 10.262 8.361 16.181 3.528-8.747 11.95-16.46 21.89-15.21 2.399.302 4.685 1.145 6.979 1.407-.67-.851-1.303-1.739-1.998-2.539-1.264-1.455-2.596-2.78-4.203-3.858-1.273-.854-.14-2.857 1.211-2.072 1.845 1.071 3.485 2.423 4.965 3.956 1.323 1.37 2.801 2.69 4.005 4.167a8.254 8.254 0 0 0 1.288-.545c.155-.083.309-.171.464-.257a1.106 1.106 0 0 1-.192-.625c.003-11.72 10.756-18.679 19.344-24.715 12.11-8.511 16.418-22.508 18.944-36.427.265-1.46 2.764-1.13 2.599.352-1.287 11.553-5.632 24.865-14.01 33.287-8.312 8.356-23.462 13.434-24.489 26.855 1.325-.778 2.671-1.53 4.093-2.017 3.499-1.197 7.144-1.081 9.8 1.821.529.578 1.536 2.022 2.736 3.462 4.156-12.156 12.79-21.92 17.385-33.817 2.3-5.956 3.673-12.099 5.065-18.313 1.493-6.666 3.916-13.094 4.804-19.893.11-.84 1.333-.899 1.354 0 .147 6.521-1.09 12.774-2.169 19.173-1.154 6.84-2.266 13.708-4.871 20.186-4.852 12.068-13.208 22.382-17.076 34.892-.155.5-.419.872-.739 1.15.961.461 1.879.47 2.638-.326 1.806-1.895 2.987-4.328 4.378-6.524 2.282-3.601 4.695-7.113 7.532-10.305 5.09-5.727 13.821-12.374 21.337-6.646 3.603 2.746 6.344 7.473 9.262 10.95 2.596 3.093 5.301 6.338 7.258 9.926 4.681-2.942 10.99-3.731 13.979-8.868 3.145-5.404 1.761-10.526-.688-15.449a1.601 1.601 0 0 1-.416-.534c-1.348-2.733-4.047-5.268-4.639-8.293-4.687 1.665-9.754 2.093-14.893.735-5.025-1.328-2.897-9.051 2.143-7.772 14.568 3.696 26.906-11.613 29.34-24.409 1.264-6.645.755-13.027.102-19.694-.655-6.689-.571-13.876-3.19-20.177-2.973-7.154-6.597-14.092-8.962-21.488-2.093-6.545-3.574-13.262-6.024-19.699-3.305-8.683-8.704-16.482-12.847-24.779 1.647 7.832 3.71 15.551 7.086 22.855 5.281 11.428 11.684 22.393 13.838 34.969 1.082 6.315 1.874 12.707 2.746 19.052.746 5.436.997 10.359-1.172 15.488-.977 2.311-4.247.563-3.824-1.612 1.305-6.707.183-12.818-.845-19.464-.892-5.766-1.271-11.597-2.77-17.262-2.258-8.531-6.294-16.314-10.103-24.209-.008.827-.361 1.66-1.173 2.194-.727.478-1.498.959-2.304 1.435 3.273 8.566 5.958 17.268 5.722 26.606-.056 2.195-3.536 2.845-3.958.536-1.079-5.906-1.663-11.843-3.215-17.664a176.216 176.216 0 0 0-2.197-7.485 58.738 58.738 0 0 1-4.123 1.885c5.106 8.916 4.882 20.167 5.633 30.112.172 2.272-3.609 2.798-3.988.54-1.638-9.738-.656-20.336-5.095-29.382-1.955.636-3.912 1.127-5.798 1.398 1.585 5.136 2.868 10.369 3.926 15.621 2.791 13.863 5.217 28.05 4.828 42.239-.314 11.445.21 23.347-8.698 31.854-1.95 1.862-4.886-1.062-2.959-2.958 5.36-5.273 6.794-11.853 7.037-19.147.235-7.056.503-14.133-.025-21.182-.713-9.519-2.212-19.123-4.299-28.537a1.641 1.641 0 0 1-.302-.165c-2.069-1.426-4.284-2.475-6.838-2.493-1.432-.01-1.331-1.976 0-2.154 2.151-.286 4.258.061 6.224.849-.161-.667-.331-1.33-.496-1.995-1.7-.597-3.419-1.224-5.235-1.023-1.625.179-1.918-2.43-.38-2.81 1.575-.389 3.122-.282 4.642.053-.19-.713-.376-1.429-.573-2.139a2.074 2.074 0 0 1-.709-.013c-.823-.154-1.635-.399-2.463-.517-.663-.094-1.329-.024-1.993-.067-1.8-.116-2.18-2.578-.425-3.142 1.367-.44 3.017-.383 4.493-.046-.177-.592-.36-1.183-.544-1.774-.263.128-.581.157-.939.022-.996-.375-2.001-.906-3.078-.981-1.706-.119-1.741-2.646 0-2.677a7.692 7.692 0 0 1 3.019.569c-.25-.739-.514-1.472-.779-2.206-.268.242-.643.361-1.091.224-.558-.171-1.011-.439-1.533-.685-.467-.219-.98-.336-1.373-.714-.596-.573-.299-1.61.482-1.825.631-.174 1.409.034 2.03.224.179.055.347.116.508.184-.925-2.362-1.933-4.69-3.081-6.95-2.631-5.185-5.947-9.825-9.123-14.673-5.979-9.127-11.893-19.523-21.051-25.874-12.435-8.624-28.041-7.508-42.434-9.349-11.38-1.459-25.279-3.079-34.535 5.339zm-37.865 94.764c2.512-1.11 5.123-2.136 7.784-3.248.047-.02.092-.028.139-.043.051-.667.115-1.333.203-1.997 1.203-9.144 7.347-17.142 10.711-25.54.046-.114.112-.199.178-.285.073-3.221-1.121-6.226-1.134-9.413-.013-2.955.806-5.606 1.767-8.388 2.208-6.397 3.738-12.065 3.905-18.882.327-13.303 6.089-26.092 16.526-32.538-.241-.314-.368-.738-.276-1.252.483-2.693.354-7.146-2.619-8.55-2.446-1.155-4.97 2.292-6.245 3.93-3.477 4.47-5.418 9.839-6.873 15.255-2.712 10.091-5.191 19.742-9.615 29.274-5.268 11.349-11.681 22.644-14.084 35.055-1.475 7.618-4.617 19.44-.367 26.622zm15.234 112.107c-1.477-3.168-2.805-6.375-4.102-9.617-.388.27-.876.439-1.475.438-19.003-.041-37.449 9.638-54.186 17.723.526 3.115 1.087 6.233 1.423 9.371 10.089-3.612 18.792-9.818 29.557-12.061 9.44-1.965 19.102-5.104 28.783-5.854zm58.617 39.273c-1.234-7.666-7.034-13.373-9.694-20.59-1.288-3.493-1.614-6.837-.961-10.509.226-1.269.646-2.82.653-4.282a2.666 2.666 0 0 1-.796-.513c-2.251-2.103-6.112-1.357-8.918-1.85-3.078-.541-6.085-1.56-8.969-2.753-5.62-2.324-11.474-4.56-16.146-8.565-8.819-7.559-14.469-18.21-18.812-28.818-9.2-22.475-14.44-49.062-3.161-71.635-6.372 4.879-14.009 7.11-18.139 14.938-4.158 7.881-6.321 18.17-4.369 27.003 2.162 9.781 7.541 16.737 13.99 24.094 5.576 6.362 10.313 13.384 13.529 21.239 3.885 9.488 6.787 18.981 12.187 27.819 5.088 8.327 11.018 16.114 17.794 23.144 6.782 7.037 14.177 10.105 23.931 10.838 2.587.196 5.225.355 7.881.44zm36.462-18.601c5.776-6.562 11.239-13.378 16.774-20.142 5.82-7.112 11.829-14.067 17.199-21.536 2.198-3.057 4.243-6.022 5.848-9.433.603-1.281 1.21-2.528 1.901-3.719-6.848 1.969-12.689 10.287-16.674 15.404-3.184 4.089-9.425 12.148-14.449 5.427-1.637-2.19-3.738-6.276-6.703-6.894-3.04-.635-5.482 1.429-7.798 3.037-3.36 2.333-7.066 3.737-11.215 2.916-6.666-1.319-12.141-2.585-17.716 2.451-3.825 3.455-6.954 7.599-8.717 12.477-.016.044-.044.069-.063.11.805 2.61.162 5.482-.076 8.139-.408 4.541 1.037 8.33 3.347 12.19 3.55 5.932 7.147 11.382 8.109 18.214 3.98-.092 7.943-.439 11.786-1.177.199-.23.427-.447.713-.63 6.789-4.342 12.432-10.812 17.734-16.834zm17.955 2.259c11.085-5.134 22.915-9.258 33.604-15.182 4.504-2.496 11.406-6.344 12.857-11.771 1.259-4.707-.764-9.318-3.284-13.255-2.555-3.992-5.506-7.785-8.707-11.281-1.632-1.782-3.489-4.284-5.823-5.415-2.226 2.837-3.163 6.377-5.134 9.397-2.274 3.485-4.792 6.814-7.314 10.123-5.029 6.597-10.491 12.845-15.754 19.252-5.543 6.748-11.034 13.556-16.815 20.103-2.658 3.01-5.168 6.27-7.792 9.415 2.381-.728 4.75-1.598 7.171-2.821 5.666-2.862 11.229-5.896 16.991-8.565zm76.13 16.172c1.577-1.621 2.077-3.439 2.306-5.377-2.876 1.975-6.693 2.454-10.296 1.316-3.083-.974-6.144-2.761-9.361-3.223-3.598-.517-7.296.985-10.933.866-6.496-.212-13.747-2.499-19.977-4.394-4.067-1.237-9.007-2.701-11.724-6.198-3.857 1.708-7.697 3.408-11.424 5.214-2.8 1.356-5.545 2.824-8.284 4.303 15.565 3.885 31.179 8.53 46.968 11.315 7.467 1.317 15.641 2.265 23.127.467 3.262-.782 7.171-1.794 9.598-4.289zm-75.401-170.606c-2.427-.843-4.763-1.932-7.174-2.82-1.386-.51-2.356 1.782-1.008 2.39 2.469 1.112 4.794 2.478 7.413 3.219 1.813.512 2.512-2.183.769-2.789zm-26.857 59.999c-1.599-1.134-3.314 1.305-2.032 2.633 2.672 2.766 4.716 5.741 6.803 8.953 1.464 2.253 4.593.309 3.533-2.065-1.746-3.911-4.84-7.066-8.304-9.521zm12.985.891c-.316-1.095-1.464-1.766-2.573-1.461-1.121.308-1.733 1.467-1.461 2.573.248 1.009.677 1.961.925 2.97.28 1.14 1.541 1.809 2.649 1.504 1.121-.308 1.829-1.522 1.504-2.649-.289-1-.756-1.936-1.044-2.937zm-47.63-119.258c-11.108 3.843-30.019 3.784-34.079 17.419-.36 1.208 1.47 1.688 1.869.515 4.352-12.807 22.984-11.001 33.158-15.685 1.269-.584.363-2.702-.948-2.249zm-25.913 113.17c-.249 1.133-.259 2.29-.248 3.445a.81.81 0 0 0 .498.77c.063.2.191.391.405.545 1.389 1 4.41 1.985 6.315 1.222 4.345 1.595 9.427 2.134 14.16 1.378a2.84 2.84 0 0 0 1.469-.281 22.41 22.41 0 0 0 3.923-1.247c1.35.139 2.781.046 3.835-.695.324.036.645.077.958.154.475.117.956-.044 1.271-.382 1.002.159 2.157-.676 1.767-1.869-.017-.045-.026-.092-.039-.138.051.155.045-.087.012-.045.019-.081.039-.161.065-.24.029-.059.218-.564.121-.334.285-.675.307-1.381-.25-1.939-.582-.582-1.693-.661-2.262 0a3.437 3.437 0 0 0-.812 1.775c.007.134.003.268-.019.399-.001.073-.014.146-.011.22l-.044-.001c-.177.571-.651 1.038-1.428 1.038-.175 0-.327-.032-.47-.077a1.765 1.765 0 0 1-.515.081c-.108 0-.202-.021-.3-.037.018-.094.028-.192.023-.298-.021-.455-.039-1.034-.087-1.402-.075-.576-.077-1.125-.336-1.657-.377-.773-1.669-.774-2.045 0a2.96 2.96 0 0 0-.169.44c-.02.024-.045.034-.064.06-.557.766-.5 1.661-.452 2.559.006.108.044.19.069.283l-.084-.006a.765.765 0 0 0-.649.27.857.857 0 0 0-.351.106 1.179 1.179 0 0 0-.6-.191c-.125-.004-.249-.012-.374-.017-.426-.232-.952-.288-1.428-.066a39.842 39.842 0 0 0-3.053-.065c.122-1.008.334-1.994.348-3.021.023-1.647-2.531-1.645-2.553 0-.01.756-.073 1.505-.098 2.258-.647-.087-1.278.091-1.936.137-.7.049-1.406.005-2.104-.041a1.027 1.027 0 0 0-.471.079 1.509 1.509 0 0 0-.415-.42l.009-1.028c.01-1.091-1.702-1.091-1.692 0l.008.948c-.55.221-.971.445-1.549.051-.062-.042-.134-.058-.203-.083-.31-.344-.747-.554-1.214-.523.004-.05.022-.093.02-.147-.031-.743-.102-1.468-.077-2.215.056-1.687-2.674-1.686-2.615 0 .033.958.055 1.954.571 2.79.153.247.38.399.628.475-.083.07-.168.135-.261.19-.296.175-.805.087-1.126.076-.853-.031-1.682-.296-2.529-.302.011-.836.042-1.674.238-2.49.279-1.161-1.525-1.651-1.78-.492zm86.046-41.24c1.69-.132 2.268-2.712.421-3.112-2.718-.588-4.357-1.479-6.001-3.752-1.406-1.942-2.689-3.866-4.736-5.195-.962-.625-2.103.835-1.23 1.594 4.069 3.539 4.638 11.004 11.546 10.465zm-13.29-17.828c-.11 1.296-1.19 1.827-2.114 1.612.032 1.182-1.563 2.304-2.676 1.21a25.817 25.817 0 0 0-3.372-2.799c-.525 4.801-5.454 8.242-10.173 6.21-4.114-1.772-5.376-6.155-4.083-10.086a19.991 19.991 0 0 0-3.144.573c-1.479 1.016-2.589 2.118-3.821 3.677-.192.243-.458.393-.748.481 1.179 6.343 10.391 7.908 14.23 12.316 1.323 1.52-.431 4.238-2.274 2.947-5.886-4.12-15.376-7.622-14.583-16.193-.434-.057-.796-.355-.729-.933 2.011-17.372 35.093-17.897 33.487.985zm-9.962-1.104a22.405 22.405 0 0 0-3.387-1.568c.749 1.285.857 3.038.131 4.403-.453.851-1.629 1.353-2.554 1.039-.425-.145-.668-.275-.998-.582-.762-.709-.82-1.863-.354-2.74.141-.266.316-.516.453-.784-.002-.048.151-.505.171-.599.006-.03.01-.043.015-.063l-.001-.009a2.154 2.154 0 0 0-.434-.374 1.129 1.129 0 0 1-.438-1.33 19.86 19.86 0 0 0-3.456-.241c-.071 2.46.785 5.613 3.097 6.733 3.396 1.646 6.691-.119 7.645-3.663.025-.087.07-.151.11-.222zm-8.423-9.41c.273.333.349.797.018 1.298-.89 1.345-1.978 2.43-3.206 3.368 6.357-.781 12.894 1.411 18.113 5.746-.857-8.562-7.964-11.543-14.925-10.412zm-75.877 36.298a3.99 3.99 0 0 0-.903.122l-.092.02-.264.036a4.39 4.39 0 0 0-.511.211 1.934 1.934 0 0 0-1.546 1.378c-.251.911.303 2.191 1.332 2.346l.039.004.007.004c.415.22.853.382 1.329.388 1.046.013 1.815-.62 2.358-1.458.853-1.314-.269-3.045-1.749-3.051zm71.042 135.42c-1.009 3.157-4.079 5.006-7.233 3.39-2.766-1.417-4.618-4.731-3.603-7.802.024-.072.065-.126.102-.185.194-3.182 3.421-4.992 6.582-3.652 3.169 1.343 5.245 4.828 4.152 8.249zm-4.958-4.913c-1.741-.573-1.669.122-1.963 1.734-.171.935-1.01 1.389-1.852 1.381.38 1.02 1.064 1.893 2.151 2.434 1.385.689 2.996.611 3.436-1.123.397-1.563.047-3.828-1.772-4.426zm-7.905-12.867c-1.082-1.056-1.847-2.362-2.115-3.857-.275-1.533.212-2.855.571-4.314-.188-.722-.026-1.503.715-2.1 2.932-2.362 7.944-2.81 10.509.491 2.447 3.151 1.859 7.403-1.104 10.071-2.449 2.203-6.251 1.977-8.576-.291zm5.908-2.377c.961-.924 2.384-3.582.741-4.627-1.586-1.009-3.043-.316-4.534.549a2.2 2.2 0 0 1-1.507.267c-1.022 2.409 3.203 5.827 5.3 3.811zm-12.403-147.693c.354 10.396 8.507 17.837 13.779 26.113 1.163 1.825 4.545.641 3.655-1.541-3.628-8.899-12.474-15.259-14.049-25.03-.313-1.937-3.45-1.454-3.385.458zm-53.966 28.123c.832-.262 1.133-.912 1.417-1.662.336-.887-.512-1.742-1.35-1.772l-.051-.002c-.409-.103-.831-.025-1.208.182-.05.023-.104.036-.153.062l-.353.273-.027.028c-.019.017-.043.029-.061.047a1.737 1.737 0 0 0 0 2.427c.46.477 1.166.612 1.786.417zm57.459-40.78c4.803-1.481 9.056-2.555 14.136-2.141 4.789.39 9.521 2.213 13.995 3.843 1.494.544 2.488-1.85 1.079-2.558-9.734-4.888-20.852-9.581-31.485-4.541-3.054 1.446-.887 6.372 2.275 5.397zm-12.523-6.993c-.494 2.153 2.865 3.055 3.293.908.616-3.092 1.165-6.556 4.205-8.145 1.556-.813.188-3.101-1.366-2.338-3.922 1.926-5.215 5.579-6.132 9.575zm-19.13-37.066c.793.54 1.96.312 2.61-.337a2.17 2.17 0 0 0 .407-2.46c0-.016.008-.031.008-.048 0-.695-.51-1.507-1.242-1.632-1.09-.185-2.021.036-2.694.969a2.021 2.021 0 0 0-.344 1.336c.102.952.434 1.613 1.255 2.172zm-1.673 6.883c.089.659.623 1.337 1.207 1.637 1.555.796 3.774-.065 4.158-1.853.186-.867.015-1.736-.629-2.38-.712-.712-1.854-.918-2.763-.481-.782.023-1.73.606-1.849 1.441l-.022.156.055-.095c-.196.472-.241.95-.157 1.575zm-4.723 4.893a2.317 2.317 0 0 0 1.514-1.305c.231-.338.374-.736.374-1.188 0-.856-.493-1.462-1.169-1.78-.051-.035-.092-.081-.146-.112a2.415 2.415 0 0 0-1.849-.242c-1.26.347-2.023 1.691-1.676 2.952.346 1.26 1.691 2.022 2.952 1.675zm64.008 9.252c1.854.99 3.523 2.213 5.097 3.601 1.226 1.081 3.032-.763 1.784-1.784-1.785-1.459-3.655-2.771-5.732-3.783-1.307-.636-2.454 1.269-1.149 1.966zm-.223 7.344c2.051 1.427 4.148 2.773 6.102 4.335 1.18.943 2.862-.633 1.697-1.697-2.004-1.83-4.409-3.092-6.696-4.525-1.209-.757-2.243 1.094-1.103 1.887zm-1.557 4.976c2.762 1.09 5.235 2.606 7.596 4.397.837.635 1.763-.857.838-1.434-2.568-1.602-5.302-2.957-8.156-3.971-.643-.23-.893.765-.278 1.008z"/></svg>