<svg xmlns="http://www.w3.org/2000/svg" viewBox="0 0 320 320"><path d="M300.125 76.668c-2.486-21-19.497-50.387-38.452-59.762-14.887-7.362-34.787-12.06-49.725 3.1l-88.19 90.974-6.9-45.9-22.825 4.887 9.458 60.737c-1.859 33.734-9.237 69.904-15.147 90.367-7.541 26.112-21.351-7.481-26.09-26.032-7.29-28.535-20.98-115.313-20.98-115.313l-21.715 6.008S29.032 155 37.598 194h-.002c3.457 16 9.177 34.092 14.255 44.15 11.999 23.756 42.918 32.191 53.84 5.831 4.854-11.715 10.31-27.093 11.31-41.907v-.01l7.031 30.36 6.74 23.577h23.379l-14.009-55.211s26.947 38.603 41.534 48.523c16.47 11.2 39.08 2.664 47.904-19.131 3.617-8.934 6.227-17.28 8.133-25.46l-23.816-7.451c-2.163 7.918-4.952 16.335-8.246 22.425-6.146 11.364-15.128 7.355-22.406-.708-15.149-16.778-39.641-49.036-39.641-49.036s62.856-22.81 139.802-54.224c13.802-5.634 18.35-25.272 16.719-39.06zM252.06 98.004l-122.082 51.37-1.976-11.423 87.427-86.461c3.982-3.94 10.9-6.577 15.439-5.259 16.211 4.71 26.849 24.612 27.381 41.053.135 4.123-.967 7.54-6.189 10.72zm-12.829 187.94c-.644 12.071-11.027 21.367-23.203 20.718-9.625-.513-17.497-7.091-20.048-15.778-32.394 4.116-64.753 8.194-100.153 6.026-2.257 7.926-9.351 13.499-17.466 13.066-9.518-.508-16.781-9.086-16.242-19.198.539-10.114 8.677-17.94 18.196-17.432 3.425.183 6.539 1.499 9.123 3.471 37.349 2.394 74.605-.836 111.796-7.182 4.292-4.445 10.441-7.046 17.126-6.689 12.175.649 21.515 10.924 20.871 22.998z"/></svg>