<svg xmlns="http://www.w3.org/2000/svg" viewBox="0 0 320 320"><path d="M286.98 149.769c-2.697-8.207-6.73-16.083-11.088-23.52-3.266-5.568-7.065-10.947-11.546-15.642 7.695-8.11 13.223-18.091 16.909-28.644a96.928 96.928 0 0 0 4.587-19.225c.82-6.205 1.089-12.427-.791-18.464-1.449-4.655-4.251-8.647-7.755-11.925.906-2.563 1.545-5.247 2.101-7.831.884-4.117 1.397-8.297 1.934-12.468.195-1.511-1.47-2.583-2.987-1.77-1.814.973-6.152 3.542-9.501 5.528-1.567.929-6.637 4.394-7.714 5.279-2.192-1.284-4.454-2.446-6.817-3.417-7.531-3.09-15.542-3.95-23.503-2.189-6.057 1.341-11.377 4.185-15.785 8.537-3.798 3.752-6.35 8.708-8.255 13.637-1.415 3.661-2.509 7.439-3.53 11.232-5.698 1.133-11.231 1.971-16.988.449-.811-.215-2.396-.844-3.459-1.318-1.485-.661-2.909-1.447-4.306-2.275-2.919-1.727-5.635-3.8-8.393-5.766-11.169-7.961-23.22-15.359-36.637-18.745-6.407-1.619-13.279-2.116-19.768-.69-5.976 1.312-11.405 4.095-16.071 8.037-8.762 7.4-14.163 17.66-21.019 26.663a75.271 75.271 0 0 1-4.274 5.139c-.333.363-.673.72-1.015 1.074.034-.041-.077.06-.337.304a72.916 72.916 0 0 1-4.468 3.669c-4.565 3.477-9.726 6.464-14.593 9.219-4.76 2.697-9.651 5.281-14.03 8.582-4.301 3.246-8.274 7.429-9.395 12.863-.265 1.29.615 2.975 1.893 3.393 10.421 3.412 21.771-.185 31.28-4.705.103-.049.204-.1.308-.151.077.845.374 1.681.855 2.441.914 1.443 2.789 2.175 4.392 2.452 3.458.598 7.214-.235 10.495-1.308a43.697 43.697 0 0 0 4.185-1.62c-.274 2.437.264 4.777 2.157 6.68 2.068 2.077 5.447 2.217 8.158 1.747 3.501-.608 6.851-2.023 9.992-3.643.479-.246.953-.498 1.425-.752.478 2.496 2.007 4.747 4.406 5.835 3.256 1.479 7.345.323 10.52-.787 3.194-1.118 6.236-2.813 9.162-4.575-.462 2.742.033 5.685 2.607 7.289 2.94 1.831 6.705 1.33 9.896.513 3.499-.897 6.999-2.299 10.273-4.069-.074.162-.15.326-.222.488-3.19 7.237-4.866 14.891-6.632 22.56-.903 3.927-1.521 7.922-2.424 11.853-.731 3.183-1.927 6.254-3.413 9.157-2.782 5.428-7.037 9.968-11.733 13.797-5.21 4.25-11.033 7.826-16.892 11.106-7.587 4.25-15.382 8.11-23.111 12.092-7.294 3.76-14.443 7.748-21.509 11.915-5.302 3.124-10.677 7.003-13.892 12.353-.679 1.135-1.113 2.434-1.324 3.735-.184 1.147.501 2.578 1.655 2.964 3.671 1.236 7.289.627 10.928-.415 3.483-.996 6.889-2.345 10.332-3.483 7.869-2.6 15.072-6.809 22.169-11.015 3.666-2.174 7.447-4.082 11.306-5.886 3.93-1.839 7.481-3.846 11.904-6.324 4.423-2.479 5.658-3.612 8.866-5.202a10.431 10.431 0 0 1 4.068-1.097c.153-.009.708.099.735.107.053.02.229.121.322.175.025.019.05.04.075.061.019.026.049.063.09.112.017.023.03.04.045.057a.998.998 0 0 0 .05.111c.021.049.118.364.138.4.072.365.097.739.108 1.11-.014-.278-.041.428-.041.448-.026.27-.069.535-.114.8a7.981 7.981 0 0 1-.392 1.556c-1.026 3.088-2.892 5.541-4.584 8.387-4.425 7.439-8.799 14.908-12.925 22.519-4.118 7.594-7.949 15.346-11.342 23.294-1.375 3.221-3.017 6.324-4.473 9.51-2.079 4.547-3.954 9.197-5.221 14.042-.94 3.604-1.731 8.472.835 11.622 5.673 6.959 12.776-5.565 15.22-9.533 4.912-7.973 9.177-16.347 13.318-24.739 5.152-10.437 10.733-20.674 16.879-30.562 3.129-5.031 10.405-15.207 10.405-15.207s15.098-1.088 27.319-4.098c4.856-1.196 9.609-3.247 14.148-5.288 3.164-1.424 6.317-2.989 9.218-4.912-.881 5.405-.243 10.973 3.951 14.315-4.528 7.893-8.973 16.568-5.204 25.291.941 2.18 2.546 4.11 4.184 5.829a76.935 76.935 0 0 0-1.881 4.228c-1.493 3.66-2.759 7.623-2.945 11.597-.129 2.749.288 5.686 2.159 7.836 1.324 1.522 3.127 2.335 5.04 2.567-1.126 3.695-1.909 7.375-2.273 11.234-.405 4.297-.526 8.695.603 12.891.512 1.898 1.507 3.7 3.023 4.981 1.015.86 2.138 1.215 3.296 1.183-.395 1.044-.8 2.086-1.152 3.133-1.018 3.015-1.941 6.088-2.545 9.215-.819 4.263-.698 9.953 4.047 11.867 3.677 1.483 7.029-1.141 9.373-3.709 2.911-3.186 4.985-7.24 6.943-11.051 3.792-7.369 6.767-15.091 10.028-22.699.182-.423.366-.845.563-1.263.047-.1.096-.194.145-.291.253-.39.511-.776.769-1.16 2.204-3.295 4.628-6.442 7.141-9.507 5.051-6.156 10.551-11.925 15.906-17.814 10.644-11.707 20.256-21.959 26.396-42.46 5.522-18.425 4.337-33.708-.966-49.846zM109.939 29.757a33.1 33.1 0 0 1 4.167-1.669c1.407-.461 2.209-.633 3.915-.916 1.638-.273 3.301-.396 4.962-.435 2.511-.062 6.168.419 9.133 1.078 3.103.691 6.033 1.7 9.155 2.949 3.196 1.28 6.304 2.786 9.344 4.398 4.418 2.347 8.613 4.971 12.78 7.743 4.537 3.02 8.939 6.257 13.737 8.865 3.959 2.152 8.434 3.794 12.979 3.898 4.075.095 8.117-.72 11.915-2.177-.089.342-.181.681-.27 1.023-.571 2.154-1.087 4.329-1.827 6.426-14.843-1.067-29.694-2.221-43.511-8.218-5.057-2.197-9.242-5.058-13.844-8.118-4.945-3.289-9.945-6.542-15.221-9.282-5.215-2.706-10.959-4.852-16.899-4.99a22.575 22.575 0 0 0-1.708.032c.393-.209.792-.413 1.193-.607zM81.428 63.733c.181-.681 1.745-4.392 2.841-5.858 2.219-2.976 4.315-6.045 6.456-9.073 3.121-4.411 6.383-8.774 10.202-12.609.088-.086.392-.383.45-.438l.032-.028c2.949-1.059 6.05-1.509 9.365-1.165 5.295.553 10.295 2.937 14.886 5.504 9.925 5.546 18.513 13.354 28.948 18.009 13.354 5.957 27.771 7.49 42.171 8.618a16.806 16.806 0 0 1-2.031 2.083c-4.403 3.751-10.166 5.608-15.517 7.987-2.523 1.123-5.002 2.348-7.383 3.727-3.918 2.269-6.119 2.86-10.174 2.112.1.009-.321-.112-.4-.143a1.402 1.402 0 0 0-.163-.064l-.051-.033a3.384 3.384 0 0 1-.441-.334c.18.145-.206-.245-.238-.287-.136-.182-.197-.413-.252-.758-.097-.597-.019-1.232.045-1.826.06-.562.934-2.885 1.582-3.675 1.224-1.491 2.434-2.991 3.778-4.36 2.302-2.348-1.479-6.119-3.97-4.08-2.247 1.836-4.2 4.031-6.173 6.15-2.661 2.857-4.465 4.964-7.349 7.255-.632.5-1.278.981-1.948 1.428a14.1 14.1 0 0 1-.734.458c.339-.208-.566.274-.715.341a10.93 10.93 0 0 1-.835.327l-.061.019c.017-.013-.315.074-.424.094-.263.046-.531.059-.798.084-.005-.001-.008.001-.01.001a6.045 6.045 0 0 1-.377-.044l-.134-.019c-.019-.008-.045-.019-.084-.032-.161-.079-.214-.096-.164-.059a5.87 5.87 0 0 1-.644-.53c-.231-.21-.538-1.01-.641-1.46-.399-1.77.019-3.67.338-5.422.055-.294 1.757-2.01 2.622-2.67a56.805 56.805 0 0 0 7.385-6.725c2.025-2.2-1.391-5.704-3.645-3.744-1.965 1.712-4.058 3.304-6.112 4.907-2.889 2.252-5.781 4.452-8.965 6.281a5.494 5.494 0 0 1-.16.094c-.157.089-.317.175-.476.262-.401.217-.81.422-1.219.619-.705.343-1.43.645-2.167.907-.086.031-.173.059-.258.087a3.235 3.235 0 0 0-1.029.304c-.089.023-.25.066-.302.076-.34.073-.681.118-1.026.153l-.192.011c-.048-.002-.248-.002-.323-.008a4.958 4.958 0 0 1-.718-.12l-.046-.017a4.37 4.37 0 0 1-.491-.217 3.27 3.27 0 0 1-.22-.161c-.098-.075-.188-.159-.277-.242.175.159-.129-.163-.163-.206-.443-.555-.642-.918-.889-1.602-.322-.89.011-3.646.369-4.092 1.455-1.797 2.812-3.667 4.104-5.492 2.12-2.99-2.243-6.5-4.471-3.551-1.531 2.027-3.084 4.044-4.74 5.969-1.001 1.168-2.059 2.276-3.14 3.369-.622.631-.596.607-1.34 1.274a26.489 26.489 0 0 1-1.955 1.586c-.286.213-.584.413-.881.612-.067.044-.621.375-.633.389-.527.285-1.076.526-1.638.734-.257.093-.521.171-.783.248.422-.13-.394.058-.515.076-.098.014-.607.027-.629.039a6.178 6.178 0 0 1-.676-.096c.277.047-.431-.143-.548-.19-.079-.032-.639-.352-.578-.3-.657-.441-1.23-1.007-1.731-1.616-1.226-1.496-1.285-3.484-.741-5.269.126-.418 1.463-2.901 2.256-3.82 2.378-2.753 4.623-5.644 7.036-8.306 1.95-2.152-1.41-5.641-3.559-3.656-5.021 4.632-8.906 10.596-14.001 14.806-1.374 1.135-2.59 1.965-3.939 2.591-.296.138-.601.254-.905.373-.121.049-.809.255-.83.274a8.686 8.686 0 0 1-1.015.164l-.243.016c.042-.009-.383-.001-.443-.005a6.992 6.992 0 0 1-.886-.134c-.032-.01-.061-.016-.086-.022a7.932 7.932 0 0 1-.618-.235c-.832-.349-1.588-.878-2.273-1.458-1.289-1.09-1.075-2.682-.68-4.167zM60.273 88.527a78.303 78.303 0 0 1-7.505 3.25 62.745 62.745 0 0 1-3.591 1.203c-1.235.374-1.973.557-3.408.862a35.532 35.532 0 0 1-6.911.773c.11-.007-.531-.028-.579-.029-.295-.014-.587-.041-.88-.065-.456-.04-.908-.102-1.362-.169l.086-.125c.836-1.239 1.932-2.398 2.837-3.222 2.294-2.078 4.92-3.787 7.58-5.354.224-.133.451-.263.677-.39-.022.015.513-.289.546-.307.735-.41 1.47-.819 2.208-1.226 1.661-.914 3.333-1.811 5.003-2.713 3.314-1.785 6.62-3.597 9.847-5.539 4.553-2.741 8.786-5.828 12.54-9.505-.072 1.123.105 2.248.641 3.323.953 1.903 2.729 3.454 4.629 4.402-6.84 5.855-14.487 10.933-22.358 14.831zm16.852 3.485c-1.197.516-2.389 1.005-3.633 1.393-.249.076-.497.144-.748.215.088-.031-.766.182-.902.213a28.3 28.3 0 0 1-2.238.41 17.52 17.52 0 0 1-.973.102c-.156.011-.314.018-.472.024-.035 0-.061.004-.089.005l-.118-.007c-.287-.011-.571-.049-.856-.077-.135-.014-.267-.143-.4-.167-.044-.005-.076-.123-.103-.123h-.002c-.065 0-.215.003-.326-.056.029-.011-.158-.168-.091-.001-.004-.006-.011.018-.016.012-.12-.205-.018.031-.066-.236-.069-.372-.072-.728-.153-1.102a112.702 112.702 0 0 0 22.892-16.094c.731-.666 4.098-3.583 5.391-4.364a29.803 29.803 0 0 0 3.537-2.526 7.522 7.522 0 0 0-.146 2.94c.223 1.596 1.118 3.158 2.26 4.414-1.33.933-2.562 2.037-3.817 3.034a163.439 163.439 0 0 1-6.069 4.606c-4.052 2.911-8.281 5.405-12.862 7.385zm25.373 2.212c-.411.248-.825.491-1.242.73-.044.027-.083.046-.111.065l-.028.016c-.206.113-.41.228-.616.34-.864.475-1.739.928-2.623 1.362-1.543.758-3.105 1.471-4.727 2.04-.347.12-.7.232-1.055.339-.072.023-.143.04-.214.061-.082.024-.185.05-.242.062-.627.149-1.265.253-1.906.316-.293.029-.586.056-.879.067-.018.002-.028.004-.044.004l-.175-.015a6.719 6.719 0 0 1-.807-.115l-.219-.084a8.462 8.462 0 0 1-.571-.246 4.876 4.876 0 0 1-.218-.16c-.059-.046-.1-.078-.135-.103-.015-.017-.03-.037-.052-.061a4.766 4.766 0 0 1-.398-.549c.034.03-.243-.496-.298-.628-.122-.296-.251-.588-.365-.886a15.415 15.415 0 0 1-.532-1.708c2.405-1.261 4.73-2.683 6.988-4.171 2.364-1.556 4.651-3.232 6.908-4.94 2.316-1.753 10.925-6.217 12.789-7.135 2.756-1.358 5.176-3.271 7.362-5.463.06 1.126.32 2.286.579 3.172.393 1.351 1.393 2.455 2.56 3.217-.26.224-.52.448-.783.672a170.72 170.72 0 0 1-8.699 6.89c-3.309 2.455-6.714 4.787-10.247 6.911zm18.53 3.773l-.373.213c-.157.087-.314.173-.468.26-.426.233-.856.458-1.286.681-.895.46-1.808.875-2.724 1.289-.777.35-1.572.663-2.38.938-.136.047-.762.226-.869.261a14.43 14.43 0 0 1-1.046.208c-.342.055-.686.085-1.032.106l-.163.005c-.093-.006-.186-.014-.281-.022a9.19 9.19 0 0 1-.905-.122.755.755 0 0 1-.098-.022 7.181 7.181 0 0 1-.386-.151c-.043-.019-.083-.04-.123-.061-.056-.036-.182-.112-.237-.153a3.032 3.032 0 0 1-.162-.127c-.044-.044-.163-.158-.208-.212-.538-.652-.537-.733-.891-1.714a12.024 12.024 0 0 1-.244-.762 126.474 126.474 0 0 0 5.963-3.81 166.25 166.25 0 0 0 11.016-8.173c1.386-1.118 2.764-2.247 4.085-3.442.492-.447.98-.902 1.462-1.363.55-.53 2.932-2.514 3.567-2.791a45.75 45.75 0 0 0 3.273-1.601c-1.141 3.249-1.019 6.746 1.406 9.402-2.398 1.14-4.549 2.871-6.691 4.401-3.319 2.366-6.684 4.7-10.205 6.762zm27.751.365c-2.775 1.54-5.635 2.95-8.61 4.063-.707.267-1.428.506-2.145.748-.341.114-.685.217-1.031.317-.153.039-.305.076-.459.109-.623.142-1.255.236-1.892.29-.1.009-.356.01-.526.011a6.776 6.776 0 0 1-.71-.086 2.634 2.634 0 0 1-.075-.011 3.916 3.916 0 0 1-.371-.152c-.028-.019-.085-.06-.152-.105.045-.029-.361-.505-.307-.318a5.972 5.972 0 0 1-.215-.535c-.006-.013-.009-.024-.013-.035a17.084 17.084 0 0 1-.291-2.967c-.003-.403.15-1.335.407-1.503 2.252-1.465 4.459-3.001 6.654-4.55.924-.649 1.777-1.371 2.656-2.077.858-.686 6.104-3.608 8.089-4.764 2.338-1.359 4.417-3.205 6.36-5.15a6.493 6.493 0 0 0 3.331 5.486c.765.429 1.583.7 2.418.832a48.866 48.866 0 0 0-4.519 5.167c-.54.709-2.557 2.177-3.099 2.462-1.817.956-3.702 1.77-5.5 2.768zm54.487 75.76c-.352.763-1.02 2.437-1.02 2.437s-4.659 3-8.523 4.854c-2.332 1.117-9.704 4.445-12.156 5.271-5.249 1.768-12.455 3.016-15.034 3.431-5.435.877-10.932.981-11.952 1.142 4.007-4.918 8.288-9.607 12.908-13.964 5.479-5.162 11.449-9.853 17.567-14.232 5.59-4.003 11.438-7.682 17.669-10.598-1.265 6.694-1.224 13.586 1.085 20.098.029.08.061.158.096.234-.219.439-.434.88-.64 1.327zm73.541-157.75c-.618 3.44-1.354 6.858-2.383 10.194a57.896 57.896 0 0 1-.905 2.702 40.584 40.584 0 0 0-2.251-1.492 27.234 27.234 0 0 0-1.415-.815 126.462 126.462 0 0 0-3.858-2.766c3.664-2.512 7.308-5.087 10.812-7.823zm-30.913 31.532c1.693-1.794 4.3-1.84 6.581-1.643 2.554.22 5.05.81 7.622.817a15.803 15.803 0 0 0 6.222-1.256c3.768-1.607 6.447-4.717 8.506-8.149.151.186.306.378.462.578 3.16 4.017 4.799 8.535 5.107 13.745.155 2.61-.191 5.868-.506 8.748-.346 3.172-.887 6.322-1.566 9.441-2.844 13.073-8.806 26.462-18.065 36.511-2.572-2.245-5.262-4.35-7.775-6.666-2.231-2.055-4.439-4.377-5.505-7.267-1.038-2.812-.132-5.945.818-8.641 1.145-3.246 2.526-6.422 3.019-9.855.553-3.875-.439-7.7-2.535-10.97-1.576-2.455-3.733-4.606-4.803-7.354-1.103-2.829.468-5.973 2.418-8.039zm-29.898 86.21a103.417 103.417 0 0 1 3.783-6.24c.441.98.974 1.893 1.555 2.673 1.517 2.049 3.878 3.517 6.388 3.9-1.271 1.431-2.443 2.944-3.441 4.606-.668 1.114-10.209 15.284-13.377 21.161-1.154 2.139-2.286 4.292-3.489 6.404-1.768-11.202 3.252-22.943 8.581-32.504zm-7.808 40.918c.979-1.974 1.708-3.054 2.809-4.884 1.642-2.729 3.173-5.519 4.69-8.319 2.317-4.267 4.681-8.518 7.548-12.427 1.33 3.079 4.392 5.435 7.335 6.927-1.62 2.243-3.289 5.429-4.357 7.048-1.065 1.62-4.203 4.424-5.444 6.013-1.619 2.073-3.028 4.308-4.383 6.558-2.967 4.927-5.604 10.033-8.289 15.117a109.997 109.997 0 0 1-1.856 3.344c-3.732-5.767-.93-13.587 1.947-19.377zm-5.544 36.142c1.883-5.538 5.212-10.467 8.055-15.534 2.669-4.757 5.17-9.604 7.912-14.32 1.353-2.324 2.779-4.607 4.325-6.807a46.456 46.456 0 0 1 1.933-2.553c.045.126.088.253.144.378 1.007 2.336 3.121 3.365 5.413 3.609-1.098 1.924-1.865 4.012-2.089 6.292a23.406 23.406 0 0 0 .005 4.421c-6.607 12.815-14.917 24.581-22.25 36.973a64.693 64.693 0 0 0-1.638 2.937c-3.17-4.607-3.643-10.011-1.81-15.396zm4.265 40.206a7.434 7.434 0 0 1-1.376-.564c-.024-.011-.04-.018-.057-.028l-.097-.065c-.192-.129-.371-.279-.553-.424a8.77 8.77 0 0 1-.419-.349 5.361 5.361 0 0 1-.522-.708c.092.12-.247-.545-.302-.689-.035-.091-.062-.184-.093-.274.032.078-.098-.399-.116-.498a12.496 12.496 0 0 1-.188-2.037c.004-.045.007-.351.008-.41a20.195 20.195 0 0 1 .224-2.122c.137-.903.335-1.795.555-2.679.184-.739.42-1.506.782-2.583 1.219-3.603 2.768-7.087 4.545-10.446a63.17 63.17 0 0 1 1.023-1.856c.129-.227.262-.452.393-.676.01-.014.02-.03.026-.042.271-.443.537-.889.809-1.334 2.073-3.427 4.188-6.826 6.297-10.231 4.128-6.673 8.243-13.37 11.992-20.264.247.649.519 1.286.821 1.904 1.155 2.37 2.872 4.613 5.146 5.751-.367.353-.734.706-1.095 1.063-2.158 2.14-4.496 4.435-6.116 7.028-1.298 2.081-2.019 4.469-2.293 6.919-1.157 1.29-1.938 2.942-2.826 4.423-.935 1.562-1.885 3.117-2.829 4.676-1.896 3.128-3.786 6.263-5.61 9.432-3.156 5.474-5.98 11.141-8.129 17.083zm4.609 30.524c-.182-.112-.346-.26-.775-.481l-.047-.025-.023-.016a3.707 3.707 0 0 1-.208-.161c-.056-.054-.157-.147-.195-.195-.119-.141-.221-.298-.323-.452.207.306-.232-.489-.301-.661-.073-.18-.381-1.276-.225-.643a78.79 78.79 0 0 0-.15-.597l.001.005c-.105-.414-.067-.264-.001-.005-.052-.201-.093-.405-.137-.608a19.162 19.162 0 0 1-.241-1.527c-.117-.942-.161-1.893-.208-2.841a34.767 34.767 0 0 1-.042-1.479l-.001-.439c.006-.27.011-.541.019-.811.058-1.971.238-3.938.486-5.892 1.487-11.8 6.84-22.738 12.768-32.91 1.379-2.363 2.791-4.709 4.196-7.058.26-.434.517-.869.774-1.304.961 3.673 2.972 7.09 6.487 8.819.531.261 1.055.475 1.584.642-6.021 6.542-10.156 14.4-13.768 22.459-1.901 4.243-3.83 8.436-5.42 12.812-1.598 4.393-2.968 8.863-4.246 13.357-.001.003-.001.006-.004.011zm30.938-28.801a145.155 145.155 0 0 0-7.38 9.331c-1.37 1.893-2.868 3.826-3.849 5.96-1.304 2.83-2.411 5.757-3.612 8.632-1.797 4.298-3.659 8.572-5.702 12.759a108.784 108.784 0 0 1-3.251 6.19c-.084.145-.478.806-.586.996a55.51 55.51 0 0 1-.685 1.091 48.528 48.528 0 0 1-1.715 2.462 23.684 23.684 0 0 1-1.521 1.882c-.094.106-.192.206-.29.306-.265.243-.545.465-.835.679-.071.053-.146.101-.219.151-.019.007-.037.012-.056.02-.03-.037-.062-.082-.107-.139-.037-.046-.087-.121-.133-.189-.029-.095-.103-.326-.12-.423a8.428 8.428 0 0 1-.101-1.031l-.009-.169.005-.159c.011-.308.037-.616.063-.921.054-.664.153-1.322.259-1.976.25-1.554.621-3.09 1.02-4.609.797-3.024 1.978-6.308 3.013-9.425.869-2.608 1.455-5.326 2.236-7.962.899-3.03 1.881-6.043 2.967-9.011 4.025-10.994 8.71-22.149 16.626-30.943a17.826 17.826 0 0 0 2.243 6.092c1.448 2.425 3.963 4.15 6.695 4.791a284.885 284.885 0 0 0-4.956 5.615zm30.624-36.531c-6.377 10.189-14.664 18.914-22.776 27.748a11.19 11.19 0 0 1-2.491-.766c-1.594-.712-2.707-2.133-3.443-3.526-1.884-3.567-1.827-8.134-.57-11.794 2.028-5.913 5.886-11.314 9.672-16.213 4.154-5.379 8.79-10.369 13.538-15.222.947-.97.574-2.709-.402-3.484-1.136-.902-2.543-.566-3.482.403-5.038 5.194-9.921 10.55-14.28 16.336a88.24 88.24 0 0 0-6.098 9.248c-1.581 2.763-3.043 5.674-3.869 8.76a19.958 19.958 0 0 0-.621 3.607c-1.451-.362-2.891-.947-3.856-2.109-1.119-1.343-2.008-3.318-2.396-4.811-.262-1.006-.588-2.015-.728-3.044-.174-1.294-.279-2.335-.279-3.314v-.091.091c0 .293.129-.427.131-.443.008-.255.085-.51.106-.763.039-.501.132-.996.21-1.492.076-.478.19-.951.305-1.421.009-.042.025-.076.032-.105.01-.037.027-.075.045-.133.087-.287.194-.568.3-.85a11.38 11.38 0 0 1 .592-1.279l.017-.026c.105-.167.224-.325.34-.484 1.047-1.407 2.246-2.716 3.442-3.998 2.27-2.429 4.741-4.659 7.221-6.87 5.143-4.581 10.421-9.08 14.708-14.505a45.542 45.542 0 0 0 1.904-2.615c.821-1.208.771-2.81-.433-3.768-1.081-.859-2.946-.775-3.77.433-3.789 5.57-8.774 10.093-13.75 14.571a428.061 428.061 0 0 0-3.728 3.391c-2.069-1.134-3.182-3.635-3.898-5.879-.981-3.073-1.226-6.773-.821-9.838.051-.373.121-.743.199-1.112.007-.032.017-.064.024-.095a9.71 9.71 0 0 1 .107-.375c.259-.769.669-1.491 1.104-2.174 1.32-2.075 3.009-3.948 4.781-5.649 1.921-1.845 3.968-3.558 5.976-5.306.984-.853 1.954-1.721 2.907-2.609 1.061-.989 2.291-2.005 3.094-3.229.705-1.065.855-2.352.048-3.428-.892-1.189-2.743-1.527-3.932-.561-1.061.862-1.949 1.937-2.945 2.877-1.046.989-2.127 1.94-3.208 2.888-2.286 2.008-4.565 4.012-6.717 6.164-.78.778-1.54 1.587-2.256 2.431a16.042 16.042 0 0 1-.653-.131c-.039-.008-.335-.086-.384-.095-.109-.033-.216-.069-.325-.102-.311-.098-.616-.192-.918-.316a6.095 6.095 0 0 1-.401-.189s-.003 0-.002-.003c-.019-.01-.032-.022-.055-.038a2.942 2.942 0 0 1-.262-.207 2.606 2.606 0 0 1-.126-.163c-.033-.088-.006-.192-.033-.272-.025-.181.023-.36.023-.54v-.033c0-.043-.053-.09-.049-.153.027-.28.046-.559.103-.835.02-.083.026-.166.045-.25.009-.027.007-.049.014-.068.116-.371.262-.727.4-1.091.258-.688.566-1.354.896-2.011a30.142 30.142 0 0 1 .861-1.585c.048-.084.081-.146.108-.187.011-.021.027-.047.05-.084 3.749-6.144 8.704-11.58 13.624-16.799.869-.923 1.786-1.803 2.565-2.805 1.94-2.496-1.466-6.26-3.95-4.057-1.788 1.585-3.38 3.401-4.991 5.166-2.431 2.667-4.785 5.413-7.009 8.259-1.28-1.133-2.535-2.255-3.556-3.643-.802-1.093-1.302-2.277-1.439-3.288a6.244 6.244 0 0 1-.047-.615c.021.383.045-.455.058-.567.04-.316.112-.625.186-.932l.047-.168c.031-.094.06-.192.094-.286.526-1.555.929-2.088 1.808-3.288 3.907-5.338 9.257-9.023 13.697-14.029 2.465-2.778-2.053-6.323-4.497-3.569-2.411 2.718-4.827 4.837-7.5 7.4l-.338.324a4.182 4.182 0 0 0-.254-.082c-1.056-.29-2.088-.427-3.018-1.052-1.022-.688-1.692-1.359-2.353-2.376-.509-.785-.796-1.916-.962-2.852-.234-1.324.006-2.085-.083-3.38 3.151-4.178 6.563-8.173 10.083-11.918.493-.523.995-1.039 1.507-1.552 8.232 5.654 12.859 14.56 16.113 23.885 1.796 5.141 3.283 10.382 5.089 15.521 1.898 5.401 4.244 10.592 7.1 15.555 3.639 6.326 8.195 12.074 11.919 18.352 1.657 2.794 3.227 6.072 4.325 9.314.62 1.832 1.03 3.779 1.326 5.766-1.935 7.222-4.923 14.161-8.89 20.502zm11.183-33.084c-2.586-5.482-6.139-10.635-9.398-15.417-3.283-4.808-6.344-9.572-8.89-14.751-2.391-4.861-4.143-10.008-5.891-15.126-2.348-6.882-4.896-13.768-8.638-20.033-3.183-5.329-7.588-9.716-12.893-12.81a49.44 49.44 0 0 1 3.211-2.644 22.171 22.171 0 0 1 3.378-2.108.524.524 0 0 1 .068-.031c1.681 2.06 3.677 3.931 5.656 5.676 1.781 1.57 4.516 3.808 5.4 4.644.882.836 3.069 2.864 3.864 3.755.797.895 4.287 5.164 6.136 7.816 4.874 6.982 8.671 14.702 11.988 22.526 3.283 7.753 5.28 15.997 6.053 24.378a75.23 75.23 0 0 1-.044 14.125zM249.165 55.536c-.136-1.32.523-2.797 1.58-3.701.744-.9 1.738-1.595 2.952-1.677 1.293-.089 2.761.511 3.431 1.678 1.352 2.355 1.066 5.28-1.465 6.695-2.32 1.297-6.205-.2-6.498-2.995z"/></svg>