<svg xmlns="http://www.w3.org/2000/svg" viewBox="0 0 320 320"><path d="M10 127.819h10.338l.736-10.528h10.03l.599-10.503h96.293v192.663H85.088V160.327H52.829v117.67H9.999L10 127.819zM138.723 20.55v10.865h-10.347v63.944l10.678.675v160.142h42.703V95.912l10.272-.607V31.616l-10.397-.732V20.548c-14.303.002-28.606.002-42.909.002zM267.54 170.633v10.914h-10.914l.187-.187v10.377h-21.641V181.36l.187.187h-10.914v-10.914l.187.187h-10.377v-21.641h10.377l-.187.187v-10.914h10.914l-.187.187v-10.377h21.641v10.377l-.187-.187h10.914v10.914l-.184-.197h42.465v-42.435H192.794v170.752h117.205v-42.531h-74.217v-21.541h74.132V170.83h-42.558l.184-.197zm0-21.266h-10.914v-10.914l.187.187h-21.641l.187-.187v10.914h-10.914l.187-.187v21.641l-.187-.187h10.914v10.914l-.187-.187h21.641l-.187.187v-10.914h10.914l-.184.197V149.17l.184.197z"/></svg>