<svg xmlns="http://www.w3.org/2000/svg" viewBox="0 0 320 320"><path d="M277.734 188.775c-4.75-17.702-28.897-18.41-40.851-28.899-.011-.01-.023-.015-.035-.025 5.852-11.452 8.701-23.259 9.68-36.289 1.187-15.802 1.723-31.545 3.273-47.336 1.375-14.01 2.3-28.043 3.465-42.067.559-6.726 2.223-18.848-4.965-22.917-5.358-3.033-12.997.179-18.057 2.289-15.923 6.64-29.566 17.483-45.121 24.762-11.461 5.364-23.514 8.251-33.747 15.665-1.018-7.641-3.435-14.736-9.082-20.95-4.602-5.064-13.478-14.159-21.268-12.267-3.765.915-5.618 4.012-6.556 7.559-.912 3.448.834 6.611 3.019 9.404a2.911 2.911 0 0 0-.816.469c-11.315 9.378-23.206 17.104-37.574 20.732-9.53 2.406-19.597 4.24-27.546 10.397-10.11 7.83-6.445 23.75-7.384 34.742-.602 7.052-3.602 13.416-2.642 20.615 1.75 13.121 13.376 22.856 27.816 27.518 1.643 11.176 2.614 22.364 4.057 33.613 1.205 9.389 1.74 22.225 7.995 29.927 7.734 9.523 20.225 14.294 30.506 20.908-7.029 3.429-14.57 7.052-22.365 6.415.095-1.199 1.676-6.922-.208-7.847-5.174-2.54-10.371-3.629-15.611-.734-4.979 2.75-7.293 9.068-8.287 14.3-1.593 8.387-.276 17.874 1.641 26.097 1.781 7.635 8.786 23.972 9.076 25.189 1.114 4.676 4.557 7.322 8.892 8.966 4.945 1.876 10.885.676 15.887-.293 7.479-1.449 14.709-4.315 21.808-7.002 14.473-5.478 28.873-10.732 42.972-17.158 15.483-7.056 30.864-13.268 47.172-18.187 14.284-4.309 29.04-7.741 43.1-12.703 12.776-4.509 13.105-19.37 16.011-30.562 2.955-11.379 8.981-22.272 5.745-34.331zm-36.017-87.286c-.858 15.589-.387 31.28-5.547 46.242-4.367 12.666-13.321 23.221-17.954 35.824-2.075 5.646-3.003 11.637-3.03 17.635-2.199.456-4.401.9-6.606 1.316-5.328 1.006-10.603 2.551-15.823 4.294-.15-4.994-.78-9.937-1.589-14.863 5.454-2.647 9.168-8.153 12.215-13.216 4.802-7.978 8.265-16.694 11.915-25.232 4.361-10.202 9.733-19.898 15.013-29.644 4.387-8.097 7.392-17.094 11.596-25.312-.062.985-.136 1.97-.19 2.956zm4.854-83.955a3.8 3.8 0 0 1 .393.744c1.84 4.762.919 10.932.541 15.881-.453 5.917-.872 11.831-1.32 17.748-.81 10.696-2.056 21.369-3.084 32.054-1.974 3.241-11.006 24.578-15.836 33.707-5.246 9.915-10.934 19.622-15.458 29.901-3.302 7.502-6.316 15.118-9.847 22.521-2.875 6.028-6.309 13.032-11.528 17.593-1.626-9.008-3.563-17.991-3.99-27.154.096-1.114.237-2.223.413-3.33 4.042-11.368 9.76-21.911 15.028-32.721.784 3.075 2.379 5.736 5.472 6.978 6.892 2.766 10.962-9.67 12.202-13.82 3.084-10.326 11.162-32.563-.371-40.576 4.044-9.635 9.224-18.687 14.001-28.069 2.573-5.054 5.116-10.116 6.854-15.523 1.743-5.426 3.007-11.329 6.53-15.934zM212.79 80.056c-3.604 10.125-6.275 20.429-9.981 30.45-3.089-2.037-5.386-3.522-6.614-7.236-1.202-3.638-.65-7.622.43-11.205 2.242-7.438 8.539-12.933 16.227-12.175l-.062.166zm2.878 6.567a97.234 97.234 0 0 1 1.343-3.978c5.216 7.103 1.482 19.104-.586 26.769-1.391 5.157-2.667 10.739-5.536 15.278-3.144 4.973-4.981-2.4-5.752-7.235 4.29-10.012 7.288-20.408 10.531-30.834zm-29.355-42.486c6.808-2.717 13.071-7.015 19.331-10.767.39-.234.957-.589 1.662-1.033l.001.019c1.726 11.352-3.604 20.369-13.547 25.907-10.29 5.731-21.645 4.051-28.783-5.342-.054-.071-.112-.127-.169-.188 6.936-3.358 14.42-5.769 21.505-8.596zM152.02 68.202a3.19 3.19 0 0 0 .068-.666 159.96 159.96 0 0 0-.121-6.425c2.999-2.722 6.319-4.938 9.826-6.843.032.141.075.284.14.432 12.387 28.242 59.76 3.083 50.585-23.781-.197-.577-.499-1.003-.855-1.313 8.36-5.177 22.551-13.469 30.269-13.816-5.388 8.027-6.958 18.582-11.14 27.207-5.304 10.938-11.676 21.338-16.28 32.581-10.617-3.435-19.557 4.279-23.298 14.002-3.372 8.765-1.52 23.64 9.515 26.032.026.006.05.005.075.01a113 113 0 0 1-1.757 4.026c-5.55 12.007-12.079 23.623-15.633 36.442-11.644-2.596-23.14-5.858-34.352-9.918-.004-.239-.004-.477-.008-.716.096-.185.177-.387.232-.62 2.341-9.909 10.723-32.21-5.745-34.498-12.254-1.703-27.313 6.963-36.425 14.684a296.195 296.195 0 0 1-12.963-9.249c14.107-4.552 28.08-9.293 41.159-16.609 6.628-3.707 13.447-8.599 16.89-15.57 2.209-4.475 3.844-11.493-.182-15.392zm-8.183 75.132a2.96 2.96 0 0 0-.081.846 231.909 231.909 0 0 1-8.641-3.538c-8.754-3.819-16.877-8.382-24.708-13.45 8.079-5.766 18.84-10.656 28.496-11.832 15.905-1.938 6.989 19.811 4.934 27.974zm.164 6.392c-1.011 4.74-2.702 9.654-6.691 12.566-5.127 3.744-12.051.618-16.844-2.05-11.242-6.259-10.663-16.361-10.723-27.09 7.353 4.594 15.22 8.441 22.826 11.847a222.28 222.28 0 0 0 11.432 4.727zM123.866 25.924c6.31 1.175 11.964 7.701 15.914 12.323 6.536 7.648 6.545 18.128 6.535 27.762-3.8.192-7.195 3.201-7.529 6.541-6.6-6.939-6-18.331-9.715-26.833-2.051-4.694-5.157-8.096-8.114-12.182-2.076-2.869-1.605-8.452 2.909-7.611zM50.358 130.752c-.292.364-.545.72-.772 1.072-2.321-3.69-3.476-7.627-3.215-12.377.203-3.68 1.465-7.25 2.246-10.823.742-3.393.906-6.927 1.036-10.384.246-6.521-.605-13.628 1.491-19.911 1.474-4.418 6.329-6.991 10.263-8.78 8.33-3.787 17.725-4.677 26.361-7.556 12.282-4.096 22.849-11.839 32.724-19.997.137-.113.246-.233.351-.354.127.147.256.296.377.44 8.858 10.531 4.572 29.246 18.629 35.98 5.469 2.62 6.823-.839 5.522-2.705-.488-.699-1.852-2.145-1.088-3.002.745-.835 2.365-1.08 3.359-.636 5.012 2.243-2.163 12.82-4.119 14.927-10.128 10.909-27.401 16.16-41.019 21.17-9.373 3.449-19.185 5.549-28.602 8.879-8.223 2.906-17.955 7.087-23.544 14.057zm24.338 20.001c-.82-4.055-1.774-8.081-2.52-12.152-.706-3.855-.447-12.4-.107-14.888 4.062-1.841 7.435-3.19 8.272-3.467 3.286-1.09 6.578-2.148 9.866-3.204 4.549 5.204 9.961 9.696 15.799 13.663-.942 6.341-1.864 12.823-.57 19.131 1.626 7.929 8.388 13.135 15.213 16.583 6.109 3.086 13.308 4.223 19.366.499 5.212-3.204 7.686-9.466 9.028-15.34 10.659 3.803 21.585 6.879 32.614 9.37-.084 9.31 1.911 18.387 3.859 27.476.054.251-.386.761-.676.838-7.986 2.121-15.784.489-23.676-1.417-8.468-2.044-16.838-4.276-25.351-6.136-21.016-4.591-41.704-11.763-59.891-23.4-.335-2.527-.719-5.049-1.226-7.556zm12.185 63.079c-6.442-6.312-6.6-18.444-7.898-26.779-1.214-7.799-1.645-15.697-2.451-23.546 16.903 12.762 37.092 19.492 57.643 24.135 9.486 2.143 18.855 4.669 28.325 6.872 7.473 1.738 17.068 3.819 24.343.304.877 4.415 1.63 8.846 2.007 13.322-4.125 1.449-8.214 2.969-12.264 4.398-10.964 3.869-22.03 7.151-33.113 10.631-9.003 2.826-17.429 6.778-25.935 10.764-9.853-7.091-21.926-11.546-30.657-20.101zm-8.578 77.338c-.771-2.148-1.666-4.261-2.635-6.367-3.58-7.777-5.275-15.918-5.735-24.444-.522-9.678 2.097-27.343 15.089-21.312-1.079 11.435-4.852 22.501-.295 33.702 1.021 2.511 6.121 12.029 6.958 18.245-2.246-3.319-6.468-4.767-11.129-1.878-.85.528-1.608 1.233-2.253 2.054zm191.851-81.773c-1.741 5.775-3.905 11.324-5.202 17.232-1.359 6.191-1.991 13.933-6.509 18.751-3.491 3.723-10.375 4.227-15.015 5.609-7.588 2.262-15.149 4.613-22.75 6.834-13.84 4.044-27.618 8.261-40.93 13.842-13.994 5.867-27.463 12.863-41.612 18.397-12.068 4.72-24.423 9.816-37 12.988-5.638 1.422-12.062 2.644-17.324-.47-3.701-2.19-3.203-7.435.194-9.624 3.64-2.345 4.748 2.736 4.125 5.129-.456 1.753 1.253 3.864 3.154 3.154 9.322-3.486 4.777-15.446 2.213-22.133-1.607-4.192-3.968-8.356-4.859-12.783-1.276-6.344-.243-12.831.499-19.293 8.3 1.366 16.513-1.968 24.028-5.235 10.018-4.354 19.707-9.216 30.107-12.655 11.583-3.83 23.35-6.934 34.876-10.991 10.857-3.821 21.888-8.066 33.224-10.236 11.893-2.276 23.741-5.095 35.245-8.891 6.3-2.079 18.827-5.657 22.955-12.712 4.124 6.396 3.126 14.643.581 23.087zM204 92.755c-2 0-2-3.98 0-3.98 4 0 4 3.98 0 3.98zm-22-42.953c3 0 3 3.794 0 3.794-2 0-2-3.794 0-3.794zm14-4.865c3 0 3 4.021 0 4.021-2 0-2-4.021 0-4.021zm-70 83.032c-3 0-3-4.722 0-4.722s3 4.722 0 4.722zm10 7.443c-2 0-2-4.826 0-4.826 3 0 3 4.826 0 4.826zm1-11.705c-2 0-2-3.588 0-3.588s2 3.588 0 3.588zm-16.317 20.906c0 1.307-1.203 2.796-2.629 2.629l-.528-.062c-1.39-.163-2.567-1.045-2.567-2.567 0-1.523 1.178-2.405 2.567-2.567l.528-.062c1.427-.167 2.629 1.322 2.629 2.629zM123 156.209c-2 0-2-4.186 0-4.186 3 0 3 4.186 0 4.186zm10-6.558c3 0 3 3.65 0 3.65s-3-3.65 0-3.65zm-45 30.207c3 0 3 4.475 0 4.475-2 0-2-4.475 0-4.475zm1 16.027c-2 0-2-4.351 0-4.351 3 0 3 4.351 0 4.351zm4.581 12.147c.346-.577.164-.338.115-.034-.325 2.027-3.751 2.027-4.076 0-.049-.304-.231-.542.115.034-.872-1.454.249-3.351 1.923-3.351s2.795 1.897 1.923 3.351zm9.419 8.504c-2 0-2-4.475 0-4.475 3 0 3 4.475 0 4.475zm-.784-13.55c-.965 0-2.184-.727-2.327-1.771l-.07-.509c-.125-.912-.051-1.728.639-2.418a2.495 2.495 0 0 1 1.757-.728c.876 0 1.703.475 2.146 1.231.372.634.346 1.218.251 1.915l-.07.509c-.142 1.044-1.361 1.771-2.326 1.771zM101 185.333c3 0 3 4.083 0 4.083-2 0-2-4.083 0-4.083zm13 10.678c-3 0-3-3.547 0-3.547s3 3.547 0 3.547zm3 9.115c3 0 3 4.619 0 4.619-2 .001-2-4.619 0-4.619zm0 17.642c-2 0-2-4.269 0-4.269 3 .001 3 4.269 0 4.269zm13-6.294c-2 0-2-4.351 0-4.351 4 0 4 4.351 0 4.351zm0-19.153c4 0 4 4.392 0 4.392-2 0-2-4.392 0-4.392zm12.918 3.78l.041-.528c.108-1.384 1.077-2.547 2.547-2.547 1.47 0 2.439 1.163 2.547 2.547l.041.528c.11 1.408-1.261 2.588-2.588 2.588-1.328 0-2.698-1.18-2.588-2.588zm5.338 9.825c.356.139.669.311.945.52a2.106 2.106 0 0 1 0 3.594 3.898 3.898 0 0 1-.945.52c-1.482.58-3.041-.878-3.041-2.317 0-1.438 1.56-2.896 3.041-2.317zM163 204.008c3 0 3 4.743 0 4.743-2 .001-2-4.743 0-4.743zm10.795.788c0-.528.202-1.061.538-1.482.462-1.094 1.838-1.757 2.981-1.442 1.295.356 2.109 1.755 1.736 3.057-.478 1.664-1.933 2.362-3.544 2.114-1.008-.155-1.711-1.302-1.711-2.247zm32.205-8.89c-2 0-2-4.392 0-4.392 4 0 4 4.392 0 4.392zm7-16.033c-2 0-2-4.001 0-4.001 3 0 3 4.001 0 4.001zm7.588-14.74c-1.493.826-3.544-.166-3.544-2.043 0-1.877 2.052-2.869 3.544-2.043 1.948.651 1.948 3.436 0 4.086zM227 149.874c-3 0-3-4.186 0-4.186s3 4.186 0 4.186zm6-17.477c3 0 3 4.372 0 4.372-2 0-2-4.372 0-4.372zm-116.311-60.04c-16.491 8.511-33.005 18.302-51.473 21.741-2.278.424-3.227-2.804-.965-3.5 17.625-5.424 33.605-14.133 49.888-22.604 2.888-1.501 5.445 2.87 2.55 4.363zm121.605 154.465c-10.037 5.368-20.698 9.386-31.468 13.014-10.547 3.553-21.037 7.394-31.634 10.779-21.921 7.004-44.637 11.088-66.614 17.956-2.224.695-3.778-2.832-1.605-3.807 20.657-9.265 43.45-12.173 64.874-19.123 10.598-3.438 21.104-7.217 31.665-10.775 10.902-3.672 21.702-7.594 31.868-13.031 3.281-1.754 6.198 3.231 2.914 4.987z"/></svg>