<svg version="1.2" baseProfile="tiny" xmlns="http://www.w3.org/2000/svg" viewBox="0 0 160 160"><path d="M139.589 44.062c.056-8.47.826-16.962.307-25.429-.239-3.895.066-9.713-4.25-11.488-3.986-1.638-9.647-.342-13.84-.324-8.473.038-16.892 1.076-25.365.78-8.33-.292-16.644-1.066-24.964-1.537-5.14-.291-11.418-.647-15.781 2.597-5.876 4.368-11.34 10.03-16.493 15.227-2.928 2.953-5.762 6.004-8.717 8.928-2.73 2.701-5.163 6.036-8.389 8.14a.944.944 0 0 0-.436.954c-.806 1.053-.914 2.543-.994 3.838-.268 4.331-.716 8.725-.74 13.067-.032 5.662.879 12.669 5.37 16.69 2.02 1.808 4.387 2.304 7.037 2.417 4.059.173 8.19.282 12.273.348l-.001 5.849c-9.802.497-17.496 6.821-19.926 16.406-2.977 11.742-3.589 24.471 2.879 35.168 5.553 9.183 14.635 11.591 24.872 9.893a.97.97 0 0 0 .416.584c4.954 3.339 8.776 6.942 14.902 7.728 4.786.614 9.351-.07 13.787-1.94 10.309-4.345 15.219-12.788 14.804-23.895-.001-.028-.015-.046-.018-.073.864-.362 1.67-.788 2.318-1.127 2.477-1.297 4.738-3.014 7.097-4.531-3.623 5.823-9.782 16.465-2.001 17.138 3.531.305 5.995-4.221 7.312-6.817.997-1.965 2.098-4.296 2.811-6.67 1.488 5.666 3.906 12.851 9.426 11.566.533-.124.816-.716.693-1.221-.652-2.68-.514-5.533-1.367-8.164-.604-1.864-1.753-3.524-2.463-5.336 4.835 3.375 15.028 9.433 15.734 2.92.378-3.486-4.517-6.685-8.5-8.841 5.644-.422 12.569-2.024 11.796-8.181-.701-5.581-8.006-3.975-13.459-2.661 3.844-4.136 7.944-10.271 4.355-13.774-3.924-3.83-9.586 1.547-13.11 6.374.075-1.803.185-3.603.337-5.414.159-1.89.379-4.072-.476-5.854-1.177-2.454-4.405-3.612-6.765-2.065-4.733 3.103-2.49 12.064-1.859 17.487-2.191-2.497-3.89-5.34-5.961-8.014-1.64-2.117-4.244-4.365-6.807-2.255-5.104 4.203 1.569 10.86 6.52 15.326-2.907-1.289-6.263-2.721-9.15-3.002-.063-.059-.116-.122-.204-.169-3.382-1.808-5.724-4.904-8.944-6.943-2.373-1.503-4.453-1.662-6.972-2.479-5.013-1.627-2.233-10.621-1.88-15.19 8.524.288 16.84 1.578 25.441 1.425 9.566-.171 18.988-2.216 28.516-2.463 5.157-.134 9.528.392 10.513-5.894.554-3.532.065-7.433.115-11 .062-4.505.159-9.009.19-13.514.002-.03.016-.052.015-.084-.002-.084-.008-.159-.011-.241.002-.336.01-.672.011-1.009a.933.933 0 0 0-.135-.488c-.035-.222-.094-.422-.152-.622.273-.282.398-.699.152-1.141-.032-.057-.075-.103-.11-.157.119-.165.177-.366.188-.569.021-.088.053-.17.053-.274zm-50.784 64.514c.443-1.72 2.478-1.561 3.849-1.403 4.787.554 8.95 3.277 13.522 4.547a.79.79 0 0 0 .551.074c.042-.005.079-.021.118-.031.046-.017.092-.03.135-.054a.959.959 0 0 0 .457-.462c.011-.021.02-.043.03-.065a1.1 1.1 0 0 0 .085-.395.974.974 0 0 0-.025-.229c-.009-.036-.014-.072-.027-.108a.85.85 0 0 0-.182-.306c-.009-.011-.01-.022-.019-.033l-.031-.032c-.013-.012-.022-.026-.036-.037-2.433-2.682-5.246-4.94-7.778-7.518-.935-.952-1.801-1.952-2.494-3.1-.821-1.358-2.293-6.094 1.035-5.737 2.26.243 4.163 4.571 5.314 6.224 1.804 2.593 3.815 5.057 6.3 7.026.696.551 1.607.195 1.694-.702.063-.39.075-.781.038-1.174-.001-.045-.022-.076-.028-.118a1.6 1.6 0 0 0 .036-.382c-.131-4.227-1.196-8.402-.876-12.655.061-.818.039-2.731.694-3.398 2.279-2.321 3.33 1.908 3.232 3.715-.218 4.018-.543 7.973-.555 12.012-.004 1.386 2.176 2.178 2.795.757.913-2.095 11.178-14.77 11.606-8.876.267 3.682-5.799 9.306-8.38 11.347-1.032.816-.16 2.61 1.061 2.561 3.784-.153 8.117-2.539 11.819-1.963 1.164-.506 1.713.042 1.648 1.643 1.082 1.125 1.044 1.914-.114 2.368-.547.752-2.078 1.207-2.935 1.428-2.845.732-6.074.555-8.995.562-1.93.004-1.934 3.004 0 3 .302-.001.634-.001.99-.004 3.111 1.636 6.369 3.465 8.858 5.921.72.71 2.133 1.892 1.443 3.12-.719 1.279-3.96-.18-4.915-.541-3.586-1.356-6.528-3.382-9.46-5.833-.596-.498-1.765-.232-1.694.702.182 2.399 1.299 4.246 2.305 6.384 1.345 2.856 1.38 5.866 1.942 8.875-4.232-.549-6.316-11.662-7.227-14.765-.002-.035.003-.072 0-.107-.087-1.267-2.072-1.277-1.984 0 .002.025-.001.05 0 .075-.003.023.002.048 0 .072.134 2.693-1.106 5.704-2.102 8.131-1.001 2.439-2.809 7.148-5.556 8.164-5.168 1.911-1.52-7.039-.677-8.604 1.558-2.894 3.555-5.534 5.096-8.433.249-.25.278-.581.162-.887a.934.934 0 0 0-.048-.124 1.018 1.018 0 0 0-.06-.1c-.298-.489-.981-.727-1.441-.337-2.103 1.017-4.006 2.513-5.964 3.771-2.233 1.435-5.654 4.146-8.437 4.153-2.161.006-1.923-2.164-1-3.556.991-1.495 2.672-2.558 4.177-3.45 2.562-1.52 5.43-2.794 8.355-3.417.61-.13.79-.652.676-1.122.052-.532-.252-1.095-.94-1.077-3.875.105-7.839-1.198-11.635-1.91-.691-.13-1.593-.235-2.235-.538-.928-.441-2.485-1.841-2.173-3.049zm-15.779 17.136c-2.554 9.633-9.123 15.538-19.389 17.641-10.433 2.137-19.701-.084-25.035-9.826-5.197-9.493-4.593-19.849-2.506-30.135 2.052-10.116 8.9-17.336 19.751-17.337.937 0 .742-1.861.742-1.975.142-.156.407-12.405.136-14.892-.289-2.659-.472-5.309-.471-7.985 0-1.189.017-2.385.085-3.571.127-2.211-.502-3.082 2.154-3.424 2.533-.326 1.978.154 2.194 2.308.127 1.259.178 2.529.237 3.793.133 2.86.165 5.723.178 8.586.024 5.723.002 11.446.002 17.169 0 .076.027.132.04.199-.018.509.295 1.035.952 1.043 3.593.044 7.368 1.689 10.494 3.406 2.723 1.496 4.752 3.889 6.767 6.19 4.3 4.91 5.81 20.734 3.669 28.81zM53.092 85.381c.003-2.121.02-4.244.036-6.369.073.015.136.043.22.043 5.251-.046 10.558-.628 15.759.249.016 4.838-3.837 10.463-6.526 9.201-3.054-1.434-6.128-2.846-9.489-3.124zm34.513-17.31l-.712 2.069c-1.949.266-2.883-.51-2.804-2.329-.043-.424-.303-.694-.617-.834-.173-1.802-.487-3.596-.677-5.392-.263-2.485-.958-6.453.505-8.691 1.425-2.181 3.105-.3 3.248 1.593.097 1.294-.056 2.597.021 3.892.094 1.567.456 3.118.667 4.671.187 1.366.588 3.56.369 5.021zm9.287-1.136c-.098.869.069 1.503-.532 2.425-1.665 2.552-3.256-.074-3.556-1.812a.836.836 0 0 0-.257-.48c-.086-2.572-.271-5.139-.218-7.716.034-1.624 1.263-10.933 3.513-5.765 1.249 2.871 1.128 6.588 1.136 9.66.003 1.217.05 2.478-.086 3.688zm8.278-5.829c.023 1.378.013 2.757-.017 4.135-.01.47.076 1.059-.041 1.514-.015.398-.018.797-.01 1.195-1.995 1.106-3.011.889-3.047-.651a.872.872 0 0 0-.299-.491c-.261-4.891-.863-17.103 1.976-15.712 1.859.911 1.408 8.261 1.438 10.01zm9.555 5.877c-.199 1.808-1.97 4.028-3.427 1.251-.126-3.97-.559-7.927-.625-11.897-.019-1.132-.023-5.326 2.035-4.223.774.415 1.041 2.562 1.193 3.322.487 2.441.574 4.967.644 7.449.021.727.016 1.455.048 2.181.028.605.197 1.333.132 1.917zm22.89-23.65l-.197.003c-2.774-1.213-7.14-.694-9.425-.631-7.548.208-15.15-.319-22.702-.636-10.074-.422-19.854-1.64-29.981-1.335-10.92.328-21.782.844-32.713.836-.047 0-.08.02-.123.025-.045-.005-.078-.025-.127-.025-4.407.025-8.718-.986-13.127-1.009-.894-.005-2.074-.106-3.252-.101 3.298-2.87 6.228-6.529 9.146-9.56 4.605-4.782 9.232-9.596 14.264-13.935 2.484-2.142 4.874-4.75 7.537-6.637 3.164-2.242 7.055-2.435 10.863-2.424 7.065.021 14.21.815 21.26 1.28 13.144.866 26.583.222 39.727-.54 2.987-.173 5.612-.57 7.558 1.916 2.079 2.657 1.658 8.312 1.728 11.692.145 7.028-.358 14.053-.436 21.081zM36.385 94.848c-.166-.886-1.389-.905-1.813-.237-4.958 7.81-8.984 15.372-6.986 24.845.098.466.758 3.821 1.002 5.383.663 4.252 3.137 7.682 5.404 11.224.478.747 1.442.483 1.758-.106.261-.286.392-.704.206-1.146-1.292-3.055-.395-6.882-.371-10.1.029-3.777-.106-7.514.121-11.289.35-5.862 1.768-12.772.679-18.574zm-2.28 10.976c-.216 4.289-.553 8.609-.577 12.904-.021 3.672-.679 8.212-.349 12.284-1.512-2.615-2.679-5.317-2.815-8.592-.201-4.853-1.517-9.234-.03-15.354 1.041-3.071 2.61-6.008 4.373-8.918.005 2.557-.474 5.142-.602 7.676zm95.589-85.358c.021 3.272-4.617 4.761-7.126 5.209-7.546 1.347-15.817-.287-23.478.035-6.527.275-14.065 1.236-20.415-.861-2.991-.988-5.485-3.911-3.571-7.098 2.546-4.238 9.671-2.837 14.261-2.326 5.245-.109 10.489-.253 15.731-.356 5.409-.106 10.906-.971 16.295-.152 2.755.42 8.28 1.875 8.303 5.549zm-59.658 90.772c.505 8.937.55 16.644-5.082 24.075-.227.3-1.038.983-1.15 1.263-.47 1.172-2.389.657-1.913-.528 2.404-5.99.928-12.766.736-19.015-.113-3.679-.051-7.384-.021-11.064.03-3.666.805-7.671-1.046-11.025-.46-.833.494-1.916 1.357-1.357 6.221 4.02 6.734 10.847 7.119 17.651zm-23.038 3.727c-.142-7.893.418-15.984-.252-23.84-.056-.654-.837-1.361-1.493-.857-3.245 2.496-5.414 4.933-6.113 9.08-1.069 6.345-.314 13.305-.347 19.72-.029 5.57-1.907 22.279 7.554 22.237.855-.004 1.125-.888.834-1.474a.925.925 0 0 0 .158-.518c-.015-8.118-.196-16.232-.341-24.348zm-6.188.21c.066-7.758-1.659-16.289 4.088-22.001.431 7.21-.014 14.582.115 21.791.145 8.078.324 16.155.341 24.234-6.788-1.565-4.581-19.726-4.544-24.024zm17.477-16.237c-.008-.047-.008-.094-.022-.141-.67-3.684-2.23-6.941-5.904-8.442-.481-.196-.841.012-1.033.352a.902.902 0 0 0-.223.605c.014 7.944-.552 15.757-.903 23.682-.363 8.195.578 16.375.653 24.568.011 1.169 1.658 1.257 1.929.283 3.277-2.384 5.299-4.827 5.912-9.017 1.021-6.975.307-14.236.115-21.243-.085-3.138.101-7.083-.524-10.647zm-5.445 2.305c.111-2.756.203-5.515.224-8.29 1.736 1.209 2.685 3.184 3.204 5.444-1.283.582-2.485 1.684-3.428 2.846z"/></svg>