<svg xmlns="http://www.w3.org/2000/svg" viewBox="0 0 160 160"><title>die roboter</title><path d="M106.627 43.435a.993.993 0 0 1 0-1.985.993.993 0 0 1 0 1.985zM87.794 93.284a.993.993 0 0 0 0 1.984.993.993 0 0 0 0-1.984zm.833-4.682a.993.993 0 0 0 0-1.985.993.993 0 0 0 0 1.985zM61.345 41.34a3.268 3.268 0 0 1-1.398-3.374 2.076 2.076 0 0 1 .931-1.823 2.73 2.73 0 0 1 1.981-.095.477.477 0 0 0 .363.119 2.67 2.67 0 0 1 1.687 3.469 2.61 2.61 0 0 1-3.564 1.704zm.816-1.814c.69.53 1.37-1.253.534-1.446a.501.501 0 0 0-.363-.119 3.416 3.416 0 0 1-.395-.083 3.702 3.702 0 0 1-.026.447c-.009.32-.05.97.25 1.2zm8.58-5.805a3.103 3.103 0 0 1 1.17-2.319 2.971 2.971 0 0 1 2.44-.17.904.904 0 0 1 .113.054.951.951 0 0 1 .261.02 3.139 3.139 0 0 1 2.262 3.734 3.1 3.1 0 0 1-3.554 2.274 3.347 3.347 0 0 1-2.692-3.593zm1.995.59a1.323 1.323 0 0 0 1.185 1.077 1.097 1.097 0 0 0 .277-2.168.932.932 0 0 1-.121-.063.962.962 0 0 1-.253-.012c-.376-.094-.725-.249-.951.136a1.549 1.549 0 0 0-.137 1.03zm15.698 3.235a2.812 2.812 0 0 1-3.147 2.359c-1.523-.225-3.285-1.558-3.19-3.234.097-1.715 1.675-2.561 3.196-2.72a174.847 174.847 0 0 1 .803.083 3.264 3.264 0 0 1 2.338 3.512zm-1.938-.358a1.28 1.28 0 0 0-.927-1.24.944.944 0 0 1-.106-.065.98.98 0 0 1-.17.053c-.474.05-1.317.327-1.21.969.083.498 1.054.98 1.47 1.032a.837.837 0 0 0 .943-.749zm-3.673 5.892a.936.936 0 0 1 .261.778.966.966 0 0 1-.954 1.037c-6.56.159-12.89 2.468-19.503 2.715a.844.844 0 0 1-.821-.462.945.945 0 0 1-.405-1.598c5.842-5.382 15.057-9.306 21.422-2.47zm-14.688.08a23.767 23.767 0 0 0-3.595 2.326 51.51 51.51 0 0 0 3.595-.477zm4.354 1.05a.906.906 0 0 1-.02-.1v-2.504a14.284 14.284 0 0 0-2.35.666v2.39c.792-.146 1.581-.3 2.37-.451zm3.313-2.717a9.873 9.873 0 0 0-1.349-.078v2.427c.449-.083.9-.153 1.349-.23zm3.999 1.562a8.781 8.781 0 0 0-2.015-1.073v1.324c.67-.094 1.34-.188 2.015-.251zM154.01 66.96c-.667 5.664-1.5 11.149-1.226 16.875a73.034 73.034 0 0 1 .335 7.386c-.169 3.147-.174 12.585-.118 12.816 3.167 12.982-2.518 29.92-13.816 37.44-11.64 7.746-25.327 15.27-39.288 9.384a1.024 1.024 0 0 1-.581-.614 1.071 1.071 0 0 1-.302-.166 41.24 41.24 0 0 1-8.107-8.05c-1.007-1.412-3.512-5.325-2.208-7.114 1.343-1.843 4.135.673 5.233 1.56 2.885 2.332 5.199 5.411 8.752 6.792a.97.97 0 0 1 .118.075l.32-.432c-2.57-1.926-5.68-3.763-7.751-6.238-1.176-1.404-2.628-4.118-1.432-5.928 1.185-1.792 3.326-.745 4.613.244 2.847 2.185 5.561 4.57 8.253 6.943l1.205-1.63c-1.914-1.613-10.593-7.39-7.168-10.666 2.954-2.826 8.152 1.626 10.845 4.14-1.29-19.292-.853-38.613-.249-57.923-3.828 4.834-11.232 9.16-17.412 6.68-6.247-2.506-6.296-12.874-4.914-18.545q-20.632 3.831-41.021 8.8a97.14 97.14 0 0 1-.729 3.917 37.328 37.328 0 0 0-1.233 6.233 1.033 1.033 0 0 1 .007.444l-10.671 53.934a.892.892 0 0 1-.068.16.865.865 0 0 1-.93 1.062c-7.539-.585-14.984 1.233-22.519.614a.97.97 0 0 1-1.38-.88c.24-22.463-2.77-44.58-3.603-66.981a.928.928 0 0 1-.135-.492c.07-6.954-1.773-13.75-1.386-20.712a.961.961 0 0 1 .653-.882.846.846 0 0 1 .438-.19 95.021 95.021 0 0 1 4.139-.46c3.428-11.49 10.793-27.45 22.912-31.713 6.659-4.495 13.58-5.736 21.477-5.752 3.9-.008 7.85-.154 11.746.05 4.133.218 6.58 2.414 10.403 3.428a.918.918 0 0 1 .455.283.994.994 0 0 1 .467 1.108 51.944 51.944 0 0 1 5.527 5.515c1.036 1.325 1.93 3.494.939 5.121-2.264 3.714-9.546-4.084-11.374-5.943l-1.249 1.135c1.32 1.624 3.33 2.498 4.699 4.081 1.051 1.217 2.07 3.479 1.275 5.075a1.742 1.742 0 0 1-.134.216 365.95 365.95 0 0 0 7.38-.766 116.292 116.292 0 0 0 3.727-11.9 4.112 4.112 0 0 1-1.018-4.225c.682-2.154 3.383-2.488 5.303-2.091a3.996 3.996 0 0 1 3.066 4.92 2.189 2.189 0 0 1-1.762 1.804.91.91 0 0 1-.015.162l-3.246 10.57c3.892-.503 7.78-1.046 11.657-1.689a.845.845 0 0 1 1.064-.048 101.27 101.27 0 0 1 9.76 7.468 175.502 175.502 0 0 0 21.422-.002 67.355 67.355 0 0 0 10.256-1.27c2.347-.517 8.038-.875 8.072.021.453 12.128 1.95 24.759.527 36.846zm-35.962 8.49a50.142 50.142 0 0 1-4.594-4.613c-.626 19.822-1.108 39.655.248 59.457a28.084 28.084 0 0 1 1.843.014 42.167 42.167 0 0 1-.749-5.919c-.068-1.407.18-2.961 1.925-2.924 3.629.077 5.663 5.909 6.278 8.732a.96.96 0 0 1 .002.173 9.595 9.595 0 0 0 5.238-2.586 26.212 26.212 0 0 0 5.318-7.6 264.012 264.012 0 0 1-3.862-24.367 14.044 14.044 0 0 0-5.36-1.995.875.875 0 0 1-.17-.065.92.92 0 0 1-.795.136c-1.878-.486-1.856-3.233-2.132-4.819a53.498 53.498 0 0 1-.761-8.287 1.008 1.008 0 0 1 .992-.993l1.63-.063c-1.591-1.536-3.356-2.828-5.051-4.282zm19.758 38.632a68.567 68.567 0 0 0 10.002-2.607c-3.446-1.137-6.275-3.576-9.71-4.866a22.683 22.683 0 0 1-.292 7.473zm12.338-4.058a1.01 1.01 0 0 1 .645.34c.356-.14.717-.264 1.071-.412a29.492 29.492 0 0 0-.653-4.845c-.012-.025-.032-.039-.043-.065l-2.364-5.789a38.262 38.262 0 0 0-1.654-2.707q-3.78 4.317-7.732 8.477c3.61 1.612 6.745 4.524 10.73 5.001zm-4.168-15.143c-.1-.134-.214-.257-.317-.39a35.83 35.83 0 0 0-6.89 2.28 18.495 18.495 0 0 1-3.754 1.534 18.212 18.212 0 0 1 2.578 5.762q4.29-4.503 8.383-9.186zm-1.7-2.098a36.608 36.608 0 0 0-6.827-6.102c-.993 3.218-2.467 6.314-2.77 9.678 1.668-.318 3.282-1.43 4.82-2.048a36.277 36.277 0 0 1 4.776-1.528zm-9.14-5.396a33.317 33.317 0 0 0-6.496 5.626 14.583 14.583 0 0 1 4.11 2.667 44.126 44.126 0 0 1 2.387-8.293zM135 85.14a37.03 37.03 0 0 0-8.1-3.534c-.026-.007-.04-.025-.065-.034l-2.074.08a33.85 33.85 0 0 1 3.386 8.982A35.217 35.217 0 0 1 135 85.14zm-12.427-3.344c-.012-.02-.01-.039-.02-.059l-.056.002c.045 1.474.127 2.945.302 4.412.074.616.504 5.674 1.1 5.828a.94.94 0 0 1 .206.1 1.008 1.008 0 0 1 .758-.17 15.913 15.913 0 0 1 1.593.352 32.307 32.307 0 0 0-3.883-10.465zm9.818 44.321a21.013 21.013 0 0 1-3.875 4.065c-.199.156-.4.289-.6.425a100.725 100.725 0 0 1 8.972 5.89c-.573-1.738-1.595-3.536-2.228-5.03l-2.27-5.35zm-14.742-2.137c-1.085-.645-.892.133-.827 1.039q.067.943.177 1.884c.138 1.181.349 2.35.588 3.514 1.18.075 2.329.145 3.455.12-.465-2.062-1.493-5.429-3.393-6.557zM90.351 13.02a.036.036 0 0 0 .015.006.986.986 0 0 1 .427-.084c.87.014 3.583.48 3.531-.788-.197-4.795-7.113-1.628-3.973.865zm-2.957 13.114c.583-.07 1.165-.155 1.748-.227a.934.934 0 0 1 .022-.23l3.275-10.666c-.536-.027-1.075-.071-1.577-.082a116.286 116.286 0 0 1-3.468 11.205zm-16.848-7.031c-.501.464-.99.936-1.484 1.407 1.09.815 1.915 1.926 3 2.772a15.618 15.618 0 0 0 2.464 1.54 11.537 11.537 0 0 0 1.669.852c.216-2.672-3.824-4.714-5.65-6.571zm1.641 7.946a.902.902 0 0 1 .271.585c.914-.071 1.826-.164 2.74-.242-.632-.271-1.237-.631-1.673-.857a17.166 17.166 0 0 1-2.775-1.761c-1.102-.872-1.936-2.133-3.13-2.873-.054.055-.113.107-.167.162q2.3 2.556 4.734 4.986zm-6.114-3.557a54.656 54.656 0 0 0-1.931 2.14q1.336.75 2.64 1.649a.978.978 0 0 1 .434.726c.98-.062 1.957-.134 2.935-.203q-2.092-2.107-4.078-4.312zm10.684-10.09c-.68.637-1.36 1.275-2.056 1.91a65.576 65.576 0 0 0 3.774 3.475c.853.72 4.644 4.185 4.368 1.352-.143-1.476-1.97-2.745-2.975-3.72zM64.241 9.03a1.034 1.034 0 0 1 .05.487c-.716 5.038-2.898 9.817-2.425 14.978.17.076.341.148.51.228a.993.993 0 0 1 .117-.214c3.762-4.504 8.499-8.43 12.822-12.465-2.846-1.046-5.227-2.709-8.506-2.918a53.205 53.205 0 0 0-2.568-.096zm-15.067.406a.831.831 0 0 1 .083.496l-.005.03c1.642 3.166 3.848 6.56 4.909 10.04q3.923-5.57 8.076-10.973c-1.84.011-3.68.055-5.502.051a66.972 66.972 0 0 0-7.561.356zm12.33 3.834a304.11 304.11 0 0 0-6.801 9.376 1.095 1.095 0 0 1-.087.101 18.395 18.395 0 0 1 5.211.955c-.155-3.574.835-6.984 1.677-10.432zm-12.793-.14c-.738 3.725-1.72 7.407-1.794 11.221a17.084 17.084 0 0 1 5.91-1.56.896.896 0 0 1-.096-.255c-.498-3.168-2.343-6.394-4.02-9.406zm-13.2.842a.974.974 0 0 1 .164.355c.668 2.845 3.32 4.022 5.628 5.373a19.763 19.763 0 0 1 3.728 2.825c.369-4.14 1.607-8.128 2.189-12.254a.973.973 0 0 1-.013-.577 30.535 30.535 0 0 0-11.684 4.26c-.003.007-.01.012-.012.018zm-3.209 28.622l.044-.108a.84.84 0 0 1-.365-.396l-.1-.212q-7.198-.541-14.41-.613c3.864 3.378 8.045 6.29 13.168 7.35.108.004.214.003.322.007.028.002.047.016.074.019a41.334 41.334 0 0 1 1.348-5.25.787.787 0 0 1-.08-.797zm-18.188 9.928c4.738 4.687 10.752 7.204 16.774 10.012a39.352 39.352 0 0 1-.17-11.873c-.007 0-.012.002-.02 0-.111-.019-.219-.046-.33-.067a53.96 53.96 0 0 0-16.254 1.928zm2.7 20.43c2.352.752 4.653 1.711 7.07 2.276a83.64 83.64 0 0 0 12.515 1.642 38.948 38.948 0 0 1-5.004-11.854c-5.026 2.355-9.466 5.843-14.582 7.936zM33.29 40.226a41.132 41.132 0 0 1 5.327-9.172l-.091-.045a1.101 1.101 0 0 1-.548-.27c-1.752-.92-3.36-2.092-5.102-3.053a77.137 77.137 0 0 0-7.175-3.389q3.908 7.911 7.59 15.929zm6.237-10.892c.06.026.117.057.177.082a1.008 1.008 0 0 1 .206.14 22.792 22.792 0 0 1 5.079-4.19c-2.046-2.394-4.519-3.706-7.135-5.37a12.71 12.71 0 0 1-1.747-1.327 35.922 35.922 0 0 0 1.669 5.294 25.116 25.116 0 0 1 1.75 5.37zm-14.982-7.662c2.466 1.034 4.938 2.063 7.332 3.256 1.867.931 3.605 2.18 5.415 3.245-.59-2.088-1.664-4.052-2.338-6.113a37.464 37.464 0 0 1-1.503-7.035 24.226 24.226 0 0 0-8.906 6.647zm-9.999 17.642a.946.946 0 0 1 .378-.05c.013 0 .022-.007.036-.007q7.995 0 15.964.573-3.528-7.632-7.248-15.173a.98.98 0 0 1 .176-1.147 1.02 1.02 0 0 1-.475-.448 61.21 61.21 0 0 0-8.83 16.252zm-1.895 6.694a81.583 81.583 0 0 0-.509 4.808.787.787 0 0 1 .379.109 55.462 55.462 0 0 1 12.226-2.22 45.037 45.037 0 0 1-10.625-7.786.913.913 0 0 1-.107-.149 85.376 85.376 0 0 0-1.47 4.451 1.144 1.144 0 0 1 .023.236 1.015 1.015 0 0 1 .083.55zm.521 26.083c5.878-1.566 10.645-5.436 15.989-8.182-6.256-2.906-12.412-5.621-17.187-10.742a111.15 111.15 0 0 0 .702 19.066.988.988 0 0 1 .496-.142zM28.66 99.22a118.473 118.473 0 0 0 7.784-20.363A99.742 99.742 0 0 1 25.058 77.5c-4.02-.788-7.73-2.644-11.717-3.404-.045.003-.088.002-.132.006 3.542 9.192 8.096 19.377 15.384 25.867a.757.757 0 0 1-.001-.08.955.955 0 0 1 .068-.669zm12.965-7.232a102.779 102.779 0 0 0-11.31 8.663.975.975 0 0 1-.636.233 25.38 25.38 0 0 0 9.228 4.841q1.36-6.868 2.718-13.737zm1.424-7.194a1.018 1.018 0 0 1-.367-.23 40.153 40.153 0 0 1-4.385-4.966 121.334 121.334 0 0 1-6.218 16.996 78.271 78.271 0 0 1 10.07-7.25l.9-4.55zM55.287 38.72l3.742-9.762a1.052 1.052 0 0 1 1.405-.578c1.365-.06 2.728-.135 4.091-.211-5.78-3.632-11.944-4.915-18.361-1.203-5.443 3.148-8.763 8.647-11.178 14.295 6.836-.282 13.465-2.198 20.3-2.54zM52.73 51.503q20.375-4.202 40.964-7.203a1.048 1.048 0 0 1 .369.019 121.289 121.289 0 0 1 7.833-18.216 359.92 359.92 0 0 1-41.288 4.251l-6.05 15.784a26.226 26.226 0 0 0-1.774 4.627 5.893 5.893 0 0 0-.054.738zm25.082 4.594a51.19 51.19 0 0 0-6.472.286c-3.885.492-4.12 2.812-5.077 6.189q5.554-1.206 11.125-2.328a.866.866 0 0 1-.065-.737 9.732 9.732 0 0 0 .487-3.398l.002-.012zm19.362-2.43a1 1 0 0 1 .992.992l-.582 6.548c3.23 1.701 6.484 3.362 9.827 4.816a127.463 127.463 0 0 1-13.063-19.856.851.851 0 0 1-.126.046q-20.749 3.016-41.28 7.267a12.76 12.76 0 0 0 1.865 4.219 49.803 49.803 0 0 0 5.559 6.01.943.943 0 0 1 .103.161c1.224-.274 2.446-.557 3.671-.827a.991.991 0 0 1 .038-.412l2.231-7.392a1.02 1.02 0 0 1 .957-.728l29.808-.844zm13.75 15.907c-6.88-2.539-13.306-6.108-19.778-9.53-1.51 5.557-1.476 15.17 5.465 16.972 5.058 1.313 11.14-3.247 13.772-7.043a.985.985 0 0 1 .541-.399zm4.702-26.026c-1.045-.537-1.425-1.98-1.376-3.199a7.636 7.636 0 0 1 1.701-4.48 138.103 138.103 0 0 0-11.94-9.545 118.3 118.3 0 0 0-8.069 18.62 125.335 125.335 0 0 0 12.617 19.357 134.822 134.822 0 0 1 7.067-20.753zm-6.435 91.159l1.986-2.685c-.86-.8-8.76-7.414-8.956-4.25-.075 1.21 2.3 2.913 3.087 3.594q1.94 1.673 3.883 3.341zm-4.96 6.571c.023.017.04.036.06.054l1.332-1.801q-2.226-1.962-4.494-3.874c-.416-.35-4.948-4.597-5.596-3.351-.436.838.879 2.492 1.385 3.096a16.197 16.197 0 0 0 2.69 2.386c1.534 1.173 3.082 2.327 4.624 3.49zm-2.61 3.663a17.867 17.867 0 0 1-4.738-3.092c-1.724-1.523-3.353-3.647-5.4-4.745-.848-.454-.796-.776-.856-.116a5.32 5.32 0 0 0 .837 2.177 17.676 17.676 0 0 0 2.683 3.725 46.162 46.162 0 0 0 5.298 4.993l2.176-2.942zm4.993 5.749l8.328-18.419c-.49-.008-.982-.008-1.48.012-.012 0-.02-.005-.03-.005-.013.02-.02.039-.034.059l-12.442 16.82a25.272 25.272 0 0 0 5.658 1.533zm15.819-2.436a.987.987 0 0 1-.277-.206c-.01-.01-.018-.024-.029-.036a1133.877 1133.877 0 0 0-.202-.306c-1.834-4.44-4.328-8.569-5.87-13.104l-7.371 16.301a31.08 31.08 0 0 0 13.749-2.649zm.572-15.843a31.323 31.323 0 0 1-5.551-.033 60.705 60.705 0 0 0 4.311 10.276 51.913 51.913 0 0 1 1.24-10.243zm15.03 7.323a.944.944 0 0 1-.323-.164 100.327 100.327 0 0 0-11.216-7.5.902.902 0 0 1-.399-.466 10.555 10.555 0 0 1-1.112.406.968.968 0 0 1 .022.511 49.878 49.878 0 0 0-1.154 14.71.899.899 0 0 1 .053.391 121.735 121.735 0 0 0 11.568-6.195 28.66 28.66 0 0 0 2.562-1.693zm10.186-12.48q-6.938-1.026-13.919-1.67l2.893 6.82c.836 1.972 2.047 4.027 2.1 6.209a.92.92 0 0 1-.027.153 34.432 34.432 0 0 0 8.953-11.513zm.204-1.956a75.888 75.888 0 0 0-11.262-8.787 34.445 34.445 0 0 1-3.121 7.065q7.216.663 14.383 1.722zm3.482-13.244a69.763 69.763 0 0 1-12.299 3.701 78.775 78.775 0 0 1 10.083 8.015 35.426 35.426 0 0 0 2.216-11.716zm.499-62.007c-.178-6.267-.604-11.542-.86-17.763a44.03 44.03 0 0 0-9.706.46c-2.835.382-5.7.562-8.555.712q-4.88.258-9.758.218l1.953 1.64a.998.998 0 0 1 1.492.856c1.011.957 1.514.9 1.518-.157-.011-.028-.024-.055-.036-.083h.039a5.477 5.477 0 0 0-.04-.527c.18-1.092 1.59-.78 1.914 0a37.19 37.19 0 0 0 1.352 2.992l.203-.455a.997.997 0 0 1 1.949.264c-.09-.873 3.432 4.572 3.659 4.75 1.019.8 2.806.365 3.614 1.361.825 1.018.265 2.049-.267 2.98-1.222 2.14-3.882 3.515-4.24 6.24-.779 1.129-.485 1.914.87 2.359-.01-.162-.024-.322-.031-.486a6.483 6.483 0 0 1 .04-2.372c.117-1.256 2.074-1.283 1.983 0-.013.192-.017.377-.025.566-.008.468 0 1.034-.007 1.633a16.739 16.739 0 0 0 .258 2.283 29.654 29.654 0 0 0 .435-5.918c-.037-1.288 1.899-1.261 1.984 0 .13 1.925.287 3.838.557 5.715a.759.759 0 0 1 .086-.042c2.876-.624 3.365-7.046 3.834-9.292.227-1.088 2.072-.845 1.949.264a44.01 44.01 0 0 0-.187 7.873c.932-3.137.93-8.007 1.21-10.06.15-1.107 1.593-.761 1.913 0 .303.719.486 2.879.9 3.99zm-106.279 50.07a.993.993 0 0 0 0 1.985.993.993 0 0 0 0-1.985zm9.094 1.137a2.135 2.135 0 0 0 2.602-1.488 1.934 1.934 0 0 0-.621-1.895.977.977 0 0 0-.914-1.276 2.619 2.619 0 0 0-2.622 1.885 2.309 2.309 0 0 0 1.555 2.774zm28.426-24.626a35.496 35.496 0 0 1-.261 4.83c-.27 1.815-1.38 4.066-3.532 4.023-2.006-.04-2.57-2.048-2.696-3.696a19.27 19.27 0 0 1-1.953-.077 1.834 1.834 0 0 1-1.73-1.253 4.529 4.529 0 0 1 .523-4.14 4.862 4.862 0 0 1 3.589-1.106.985.985 0 0 1 .218-.537 4.24 4.24 0 0 1 5.001-.641c.942.624.85 1.594.841 2.597zm-5.505 1.517a4.37 4.37 0 0 0-.065-.88.084.084 0 0 1 0-.044 1.337 1.337 0 0 1-.207.04c-.675.09-1.968-.195-2.445.441-.239.32-.328 1.916-.082 2.072a6.818 6.818 0 0 0 1.457.021c.442.008.884-.005 1.326-.016.028-.545.04-1.089.016-1.634zm3.461-2.482c-.396-.396-1.49-.149-2.075.178.87.964.642 2.968.576 4.103a.944.944 0 0 1-.521.808 1.02 1.02 0 0 1-.459.842l.001.005c.057.982-.11 1.197 1.011 1.105 1.1-.09 1.06-.387 1.26-1.384a17.673 17.673 0 0 0 .195-2.801c.017-.444.386-2.482.012-2.856zm-26.732 8.015a3.457 3.457 0 0 1-2.39-2.023 3.077 3.077 0 0 1 .793-3.381 3.331 3.331 0 0 1 2.854-.574c.451-2.111 2.947-1.592 4.207-.521 1.43 1.216.981 3.212.617 4.87-.388 1.764-1.5 3.815-3.474 4.097a2.252 2.252 0 0 1-2.607-2.468zm2.004.101q.658.649 1.153-.086a3.588 3.588 0 0 0 .61-.904 6.196 6.196 0 0 0 .45-1.493 7.18 7.18 0 0 0 .184-1.59 1.147 1.147 0 0 0-.216-1.025.995.995 0 0 0-1.046-.318.817.817 0 0 1-.286.512c.573 1.166.171 2.943-.255 4.015a.977.977 0 0 1-.546.56.936.936 0 0 1-.048.33zm-1.129-1.955a4.471 4.471 0 0 0 .217-1.81c-.04-.383-.017-.324-.429-.39a1.229 1.229 0 0 0-.949.14 1.074 1.074 0 0 0-.181 1.334 1.677 1.677 0 0 0 1.342.726zM33.961 33.45a.993.993 0 0 0 0 1.985.993.993 0 0 0 0-1.985zm-1.167-3.5a.993.993 0 0 0 0 1.985.993.993 0 0 0 0-1.985zm34.404 91.758c-.107 4.612.103 9.478-.595 14.049-.3 1.969-.659 4.402-2.903 4.845-1.894.375-4.147-1.51-5.228-2.834-2.337-2.862-2.352-6.597-1.938-10.071-.819-1.23-1.629-2.466-2.478-3.677-2.176-3.099-5.048-6.049-6.11-9.742-1.864-.393-3.299-1.478-2.93-3.741.305-1.872 1.62-4.053 3.718-4.16a3.687 3.687 0 0 1 3.592 5.128 1.082 1.082 0 0 1 .204.202 200.224 200.224 0 0 0 4.575 5.812c-.147-5.112-.387-12.491 6.541-11.518 6.213.873 3.647 11.602 3.552 15.707zm-18.697-9.392a2.534 2.534 0 0 0 2.135-2.125 1.822 1.822 0 0 0-1.609-1.834c-1.07-.066-1.693 1.166-1.946 2.033-.184.632-.298 1.356.373 1.746a2.384 2.384 0 0 0 .907.243.899.899 0 0 1 .14-.063zM63.58 129.48a1.025 1.025 0 0 1-.18-.28c-1.378-3.486-4.156-6.019-6.536-8.818-1.992-2.343-3.856-4.792-5.716-7.24a4.841 4.841 0 0 1-1.226.78c1.17 3.817 4.474 7.097 6.707 10.332.575.834 1.125 1.683 1.684 2.527a.754.754 0 0 1 .068.103q1.993 3.015 3.892 6.09a13.714 13.714 0 0 0 1.287-3.45c.004-.018.015-.027.02-.044z"/></svg>