<svg xmlns="http://www.w3.org/2000/svg" viewBox="0 0 320 320"><path d="M188.903 179.024c-3.395-2.323-8.892-5.531-13.589-8.126-2.732-1.511-5.415-3.146-8.009-4.728a418.199 418.199 0 0 0-4.039-2.434c.638 8.674.863 17.22.859 25.43 1.223.475 2.547 1.281 4.001 2.213.459.295.858.556 1.155.717.729.395 1.456.782 2.18 1.17 2.173 1.16 4.42 2.361 6.579 3.671 3.008 1.825 5.074 3.351 7.072 4.826 1.683 1.242 3.422 2.526 5.791 4.045 1.963 1.26 8.387 4.089 13.801 6.355-1.504-3.607-3.914-8.644-5.057-11.03-.529-1.106-.967-2.02-1.244-2.623-.393-.851-1.817-3.74-3.467-7.086-2.4-4.867-5.082-10.306-6.033-12.4zM87.374 45.9c10.222-.172 19.935-1.022 30.303-2.033 33.571-3.263 69.343-.74 103.091-.818 13.322-.031 26.409 1.448 39.673-.659 8.412-1.335 15.952-16.431 10.052-26.048-7.269-9.95-17.505-5.209-27.963-5.239-19.229-.056-38.626-.432-57.671 2.68-35.435 5.788-83.563-5.076-114.144 6.779 18.299.001 24.791 17.379 16.659 25.338zm72.409 147.966c-2.289 1.158-4.669 1.988-6.997 2.792-3.896 1.346-7.575 2.617-10.506 5.312-.695.64-1.393 1.298-2.095 1.962-3.291 3.109-6.694 6.326-10.787 8.44a91.299 91.299 0 0 1-4.628 2.218c-3.29 6.145-6.069 10.756-8.253 13.682-2.235 2.996-3.738 6.76-4.826 10.266 2.577-.854 5.881-2.081 7.132-2.845.829-.506 1.592-1.059 2.33-1.593 1.693-1.228 3.445-2.496 5.994-3.241 2.567-.753 11.688-4.578 12.882-5.266 1.715-1.289 3.584-2.12 5.394-2.924 1.868-.83 3.633-1.615 5.055-2.83 2.656-2.278 6.809-4.376 8.785-5.312.226-6.48.446-13.42.52-20.661zm31.791 17.196c-1.257-.617-2.309-1.176-3-1.618-2.488-1.596-4.286-2.923-6.024-4.207-2.01-1.483-3.908-2.885-6.748-4.607-2.059-1.249-4.155-2.369-6.374-3.556-.731-.391-1.466-.783-2.203-1.183a26.273 26.273 0 0 1-1.43-.877 44.193 44.193 0 0 0-1.696-1.045c-.077 7.497-.309 14.66-.544 21.333 2.318 1.981 10.826 9.184 15.783 12.497 1.987 1.304 17.736 9.238 25.151 12.286-.511-1.117-1.099-2.374-1.699-3.657-1.313-2.809-2.803-5.991-4.191-9.201-.7-1.619-1.475-3.544-2.294-5.581-1.402-3.484-3.694-9.184-4.731-10.584zm-30.812 7.533c-2.483 1.195-5.314 2.799-7.1 4.225-.438 2.177-.255 11.153.126 14.046.394 2.99 1.979 7.269 3.01 9.258 1.631-2.067 4.132-7.55 5.041-9.542.532-1.168.917-2.011 1.186-2.499.988-1.79 1.869-9.638 1.687-12.16a371.697 371.697 0 0 1-3.95-3.328zm-5.124-109.575l.012.097c.109.07.215.148.323.223-.114-.105-.224-.213-.335-.32z"/><path d="M76.099 44.445c5.06 1.291 8.148-.716 9.111-3.805.873-2.799.003-6.487-2.723-9.416-2.275 0-5.354 1.079-8.103 3.08-4.125 3.004-6.21 8.117 1.715 10.141zm50.096 135.771c1.936-1.258 3.937-2.261 5.872-3.23 2.14-1.072 4.161-2.085 6.045-3.395 1.206-.84 2.518-1.684 3.787-2.5 3.04-1.956 6.184-3.979 8.439-6.261.526-.532 1.014-1.137 1.529-1.776.792-.984 1.612-2.002 2.686-2.898.729-.607 1.617-.896 2.476-1.176.408-.133 1.092-.354 1.274-.505 0 .001-.049.042-.103.131l.324.194c-.361-3.85-.803-7.71-1.364-11.562a439.535 439.535 0 0 1-1.228-6.639c-.941.746-1.966 1.451-2.959 2.098-.694.453-1.384.953-2.081 1.457-.9.652-1.831 1.326-2.82 1.944-1.586.99-3.076 2.135-4.654 3.345-1.797 1.379-3.655 2.805-5.726 4.041-1.562.934-3.869 1.882-6.311 2.887l-.731.301c-4.16 4.966-13.841 21.578-17.553 30.207 2.473-.948 5.201-2.339 7.363-3.638.946-.569 1.917-1.038 2.856-1.491 1.034-.498 2.01-.97 2.879-1.534zm11.025 20.579c.717-.678 1.428-1.35 2.138-2.002 3.592-3.304 7.875-4.784 12.018-6.215 3.025-1.046 5.898-2.044 8.435-3.693-.001-8.4-.245-17.137-.932-25.971-.175.06-.348.117-.515.171-.362.118-.909.296-1.068.403-.721.604-1.374 1.414-2.066 2.273-.561.695-1.14 1.415-1.82 2.104-2.591 2.62-5.938 4.773-9.175 6.855-1.293.832-2.515 1.618-3.656 2.413-2.139 1.487-4.395 2.618-6.577 3.712a91.023 91.023 0 0 0-3.395 1.767c-.638.667-2.234 3.435-3.534 5.692-1.81 3.144-4.062 7.056-6.345 10.2-2.403 3.309-7.124 11.454-9.099 16.163 6.59-1.604 13.045-4.715 15.79-6.131 3.549-1.833 6.728-4.837 9.801-7.741zm-76.902 85.356c-1.692 4.162-1.155 9.297 4.32 10.359 5.964 1.154 11.213-3.591 7.08-11.74-3.779-7.448-9.302-3.782-11.4 1.381z"/><path d="M72.738 300.097c-3.727.852-9.537 1.525-13.596-1.138-2.382-1.562-3.939-4.011-4.503-7.08-.703-3.813.243-8.094 2.468-11.168 2.216-3.066 5.971-6.604 10.437-7.41 62.398-11.276 111.492-11.967 160.395-1.687 2.687.565 12.046.396 19.381.202 13.636-107.373-14.022-145.961 4.97-224.259-7.125.648-13.607.341-19.903.034-5.601-.27-41.883.486-54.209.405-3.835-.025-21.764-.192-27.177-.341-11.111-.306-59.943 3.118-67.282 2.469-7.341-.65-12.806-2.164-14.323-3.431-3.009-2.517-3.466-8.278-1.952-12.069 1.325-3.318 5.251-5.036 8.714-6.551.848-.37 1.709-.747 2.481-1.127-2.001-1.137-4.19-1.834-6.231-2.153-4.958-.772-13.217 4.334-15.751 10.177-30.793 71.035 9.673 109.25-11.281 227.022-5.045 28.359 2.234 40.176 9.978 43.827 3.972 1.873 8.857 1.665 12.494.031 2.256-1.014 3.898-2.939 4.88-5.717.002-.013.007-.025.01-.036zm29.938-183.383a3927.32 3927.32 0 0 1 1.223-11.527l.26-2.42 2.371.546c1.384.319 3.027.774 4.769 1.257 1.265.35 2.606.722 3.991 1.082-5.027-5.038-6.226-12.339-4.882-18.411 1.769-7.987 8.36-16.046 19.098-16.046.613 0 1.24.027 1.865.081 7.461.642 14.89 7 19.084 16.252.049-.24.092-.476.146-.718 2.76-12.347 13.007-17.874 21.938-17.874 4.333 0 8.38 1.315 11.396 3.703 5.154 4.081 8.202 13.307 6.796 20.567-.084.429-.182.849-.294 1.256a44.095 44.095 0 0 0 3.214-2.473l2.356-1.987 5.318 14.496-.646.946C196.278 111.731 186.101 116 175.353 116h-.002c-1.364 0-2.692-.125-3.988-.262 4.913 2.1 10.686 4.817 15.024 6.894a927.23 927.23 0 0 0 3.243 1.548c4.113 1.943 7.023 5.009 11.124 11.715 2.188 3.576 6.536 15.819 7.158 20.153l.518 3.607-3.412-1.28c-1.311-.491-4.292-1.526-7.452-2.624 2.356 4.083 4.56 8.883 5.415 11.571 1.037 3.262 2.118 5.721 3.164 8.098 1.647 3.747 3.204 7.285 4.152 13.027l.304 1.84-1.776.567c-.2.064-.427.095-.676.095-2.604 0-7.728-3.303-11.666-6.156.789 1.605 1.598 3.246 2.325 4.722 1.664 3.373 3.101 6.286 3.516 7.188.272.59.7 1.483 1.218 2.566 4.364 9.118 6.738 14.465 6.784 16.606l.07 3.271-3.036-1.224c-.339-.137-4.918-1.987-9.573-4.019.717 1.668 1.54 3.687 2.522 6.128.81 2.012 1.573 3.911 2.251 5.479 1.363 3.152 2.839 6.305 4.14 9.086 2.058 4.396 3.237 6.95 3.565 8.3l.499 2.054-2.044.542a2.556 2.556 0 0 1-.725.105c-1.299.001-4.462-.892-16.061-6.512-6.691-3.243-13.96-7.007-14.997-7.7-2.289-1.53-5.229-3.791-8.01-6.02-.277 3.857-1.046 8.844-2.124 10.799-.188.344-.583 1.207-1.039 2.207-3.489 7.649-5.723 11.687-8.244 12.525a3.214 3.214 0 0 1-1.011.166c-.503 0-.994-.124-1.44-.368-2.517-1.379-5.132-9.996-5.562-13.266-.013-.097-.635-6.58-.407-11.694-.643.309-1.288.601-1.926.885-1.679.746-3.265 1.457-4.598 2.469-1.234.937-11.821 5.234-14.219 5.936-1.833.536-3.149 1.515-4.674 2.618-.806.584-1.639 1.238-2.614 1.833-2.313 1.412-10.828 4.522-12.503 4.522h-.007l-2.777-.112.699-2.786c1.228-4.718 3.083-10.732 6.575-15.412 1.491-1.996 3.304-4.883 5.399-8.578-3.035 1.068-6.336 2.009-9.561 2.5l-2.607.396.127-2.634c.229-4.732 8.744-18.55 10.818-21.405 2.008-2.767 3.97-6.127 5.729-9.18-.09.052-.188.099-.277.152-1.255.754-7.761 4.551-12.713 5.292l-3.161.473.742-3.108c1.319-5.524 9.166-19.774 15.056-28.95-2.168.992-4.887 1.685-7.541 2.36-1.757.445-3.417.867-4.674 1.322l-2.627.951-.258-2.781c-.389-4.205 9.179-24.209 10.4-26.049 1.167-1.753 5.802-5.287 13.315-10.703-.648.045-1.303.076-1.973.076-8.923 0-18.37-3.994-25.27-6.911l-1.461-.618.157-1.578z"/><path d="M276.169 287.284c-.039-10.056-8.506-9.102-18.778-9.102-18.41 0-55.286-6.329-83.034-8.137-38.688-2.519-64.581 2.802-102.972 7.796 8.468 6.488 9.236 23.916.509 30.449 1.785.258 3.593.487 5.367.578 25.533 1.296 38.415-2.061 63.82-4.156 25.352-2.09 112.595 7.522 122.832 4.797 12.372-3.286 12.747-10.243 12.256-22.225zM144.818 114.073c5.03-6.354 5.76-15.412 1.952-24.229-3.463-8.02-9.8-13.752-15.77-14.267a17.595 17.595 0 0 0-1.495-.065c-8.915 0-13.589 6.821-14.883 12.663-1.262 5.7.042 13.649 7.869 17.294 2.113.984 4.089 1.483 5.87 1.483 5.371 0 8.269-4.802 8.269-9.321 0-3.457-1.664-7.151-6.335-7.151-1.59 0-3.411.424-5.414 1.26l-2.673-3.119c1.819-2.97 4.47-4.605 7.465-4.605 2.729 0 5.589 1.407 7.843 3.861 2.996 3.26 4.556 7.893 4.174 12.392-.453 5.349-3.244 11.726-13.96 11.726-5.794 0-12.331-1.811-17.584-3.266-.766-.212-1.512-.419-2.219-.609-.24 2.239-.585 5.477-.791 7.435 6.65 2.796 14.63 5.949 22.117 5.949 6.516 0 11.607-2.43 15.565-7.431zm40.278 37.224c-8.794-3.579-14.297-6.085-21.264-9.256-1.131-.515-2.308-1.051-3.546-1.613.36 2.015.734 4.039 1.129 6.088a234.29 234.29 0 0 1 1.411 11.969c2.28 1.296 4.539 2.665 6.726 3.998 2.556 1.558 5.198 3.169 7.85 4.635 3.849 2.126 13.169 7.39 16.597 10.327 1.982 1.699 7.648 5.798 11.243 7.92-.819-3.14-1.875-5.54-3.048-8.208-1.041-2.365-2.22-5.047-3.326-8.527-1.147-3.606-5.174-11.756-8.021-15.225-2.494-.879-4.631-1.652-5.751-2.108zm-9.745-39.706c8.727 0 17.188-3.166 21.121-7.803l-2.428-6.612c-3.895 2.89-8.028 5.024-11.96 6.212a12.73 12.73 0 0 1-1.033.291c-3.712.971-7.174 1.032-10.175.169-6.591-2.004-8.524-6.93-8.146-10.875.503-5.25 4.65-9.455 9.862-9.999l1.404 3.954c-3.658 2.392-5.258 5.102-4.505 7.631.864 2.901 4.546 5.173 8.381 5.173a9.23 9.23 0 0 0 2.621-.373c3.268-.964 5.285-3.312 5.996-6.978 1.209-6.24-1.789-13.63-5.237-16.36-2.256-1.786-5.352-2.77-8.716-2.77-7.209 0-15.486 4.483-17.725 14.499-1.576 7.05-.704 12.71 2.592 16.824 3.572 4.46 10.114 7.016 17.948 7.017zm-14.606 4.761c-1.078-.393-2.097-.763-3.136-1.009-.429-.101-.829-.279-1.219-.481.941 7.148 1.904 13.795 3.009 20.427 2.259 1.021 4.308 1.953 6.221 2.823 6.923 3.151 12.391 5.641 21.104 9.188 1.963.8 7.421 2.695 12.237 4.368 1.368.475 2.66.924 3.803 1.323-1.449-5.023-4.223-12.44-5.692-14.843-3.649-5.968-5.992-8.508-9.285-10.064a824.32 824.32 0 0 1-3.265-1.557c-6.161-2.951-16.473-7.889-21.241-9.309a44.166 44.166 0 0 1-2.536-.866zm-39.239 22.488c-1.554 2.339-6.961 14.446-8.951 20.354.475-.124.96-.247 1.452-.372 2.977-.756 6.35-1.612 8.021-2.764 1.826-1.26 4.818-2.49 7.712-3.681 2.188-.899 4.45-1.83 5.738-2.6 1.856-1.107 3.612-2.456 5.312-3.759 1.589-1.22 3.232-2.481 4.995-3.582.864-.54 1.734-1.17 2.576-1.779a56.7 56.7 0 0 1 2.254-1.577c.903-.589 3.536-2.314 4.436-3.625-1.053-6.359-1.979-12.756-2.884-19.603-2.755 2.181-7.103 5.303-12.872 9.421-7.046 5.032-16.694 11.921-17.789 13.567z"/></svg>