<svg xmlns="http://www.w3.org/2000/svg" viewBox="0 0 320 320"><path d="M186.229 223.252l-10.177-26.32c5.393-35.787 10.837-72.398 14.298-96.938 26.502-4.277 41.665-12.534 42.509-13.002l-7.037-12.696c-.172.094-12.174 6.555-33.388 10.572.711-5.338 1.209-9.374 1.442-11.77.462-4.761.629-9.353.542-13.755 22.467-4.519 33.91-11.963 34.583-12.411l-8.018-12.1c-.137.09-9.451 6.006-27.962 9.952-1.877-10.286-5.568-18.799-10.914-24.689C176.028 13.396 167.986 10 158.203 10c-9.789 0-17.838 3.401-23.921 10.107-5.923 6.53-9.814 16.271-11.45 28.076-13.85.405-23.262 2.133-29.385 8.196-4.243 4.2-6.305 9.939-6.305 17.545 0 8.086 2.848 15.023 8.236 20.063 6.108 5.713 15.23 8.678 26.567 8.677 1.454 0 2.948-.054 4.472-.153 3.473 24.484 8.73 59.826 13.94 94.412l-10.18 26.328-21.375-97.46-14.178 3.11 26.539 121.009a7.256 7.256 0 0 0 13.858 1.062l9.71-25.112a40030.181 40030.181 0 0 0 12.754 83.525.725.725 0 0 0 1.434 0c.137-.887 5.922-38.443 12.757-83.517l9.706 25.104a7.256 7.256 0 0 0 13.858-1.062l26.542-121.009-14.178-3.11-21.375 97.461zm6.201-150.295c-.238 2.454-.722 6.643-1.462 12.182C181.856 86.781 170 87.952 159 87.998V62.757c13-.046 24.547-1.321 34.011-3.133.073 4.267-.132 8.718-.581 13.333zm-57.072-51.875c5.796-6.39 13.482-9.631 22.845-9.631 9.357 0 17.037 3.236 22.829 9.618 5.177 5.704 8.753 13.982 10.574 24.01-9.044 1.831-20.171 3.17-33.404 3.17-5.435 0-10.502-.051-15.21-.099-6.973-.071-13.163-.127-18.694-.004 1.611-11.399 5.365-20.786 11.06-27.064zm-30.065 62.303c-2.447-2.289-3.636-5.384-3.636-9.462 0-5.248 1.507-6.739 2.002-7.229 2.657-2.629 9.266-3.621 18.311-3.954.039 3.358.212 6.808.559 10.358.279 2.853.935 8.038 1.877 14.97-8.658.395-15.429-1.239-19.113-4.683zm18.682-10.428a119.516 119.516 0 0 1-.555-10.267c5.7-.163 12.045-.098 19.188-.024 4.54.045 8.392.093 14.392.098v79.1c0 .401.599.726 1 .726s1-.325 1-.726v-39.349c11-.038 21.085-.932 29.886-2.28-3.38 23.942-8.637 59.202-13.872 93.967l-10.033-25.926a7.26 7.26 0 0 0-13.544 0l-10.021 25.916c-8.116-53.898-16.244-108.986-17.441-121.235zm34.228 231.544a41295.24 41295.24 0 0 1-12.417-81.369l12.417-32.114 12.42 32.123a41360.051 41360.051 0 0 1-12.42 81.36z"/></svg>