<svg xmlns="http://www.w3.org/2000/svg" viewBox="0 0 320 320"><path d="M186.817 57.826l11.416-10.664-3.625 9.155-7.791 1.509zM116.621 203.64c4.427 0 5.211-2.471-4.714-16.134-7.032-9.677-12.66-13.887-17.124-13.92-4.464-.033-3.516 4.112 2.988 13.066 9.024 12.418 13.287 16.988 18.85 16.988zm29.006 21.908c-5.927-.042-12.735 5.519-21.457 17.524-12.1 16.655-15.285 22.785-7.827 22.785 5.938 0 11.81-3.315 25.125-21.64 9.429-12.979 10.085-18.626 4.159-18.669zm-12.48-167.069c8.317-11.452 5.569-12.096.37-12.096-4.726 6.505-13.326 17.89-17.824 24.082 4.713.001 9.866-1.547 17.454-11.986zM70.508 179.984c-2.849-6.359-11.401-7.052-15.289-5.474 2.735 3.762 11.032 15.182 11.032 15.182 2.795-.412 7.511-2.433 4.257-9.708zm-4.312-81.961l-9.043-8.557 3.815 9.97 5.228-1.413zm39.457-9.285c4.416 6.083 11.845 16.723 16.047 22.511 4.404 0 7.125-1.446.033-11.205-7.777-10.703-11.222-11.306-16.08-11.306zm85.241-.049l6.391 8.67s.257-2.38 3.84-2.685c-2.525-4.127-6.311-6.466-10.231-5.985zm-50.519 41.816l-11.909 11.125 8.128-1.576 3.781-9.549zm-4.549-42.397c-3.365-.024-2.649 3.102 2.251 9.846 6.799 9.357 10.013 12.802 14.204 12.802 3.335 0 3.928-1.862-3.552-12.158-5.298-7.293-9.539-10.467-12.903-10.49zm70.079 10.408c-4.355-.839-5.162 3.39-5.162 3.39l6.622 9.166s6.919.638 8.151-1.221c1.231-1.864-5.256-10.494-9.611-11.335zm31.043 75.457l11.859 16.32c2.276-1.192 7.778-4.554 4.854-9.973-3.731-6.913-16.713-6.347-16.713-6.347zm42.453-101.096c-2.798 3.546-2.857 9.428-.131 13.03l22.065 29.146c2.727 3.601 2.755 9.517.064 13.145l-23.222 31.3c-2.692 3.628-2.952 9.745-.578 13.588l21.232 34.391c2.373 3.843 2.122 9.979-.56 13.615l-42.922 58.23c-2.681 3.635-8.571 6.678-13.088 6.678H18.213c-4.517 0-6.067-3.077-3.444-6.755l37.892-53.195c2.623-3.678 2.661-9.722.084-13.433l-29.236-42.099c-2.577-3.71-2.5-9.728.171-13.371l21.502-29.335c2.671-3.643 2.845-9.729.387-13.519L26.831 85.394c-2.458-3.79-2.286-9.89.382-13.535l22.783-31.163C52.663 37.051 58.542 34 63.059 34h238.728c4.517 0 5.923 2.969 3.125 6.515l-25.511 32.362zm-60.738-26.656c-5.823 7.434-15.338 21.11-18.064 24.862-3.492 4.806 3.157 4.758 6.819-.287 1.249-1.719 10.187-14.249 15.164-20.62.124 2.065-3.09 10.899-6.766 16.284-2.839 4.157 3.272 3.768 6.16.101 4.407-5.595 14.331-15.242 17.622-16.959-3.756 5.634-13.162 18.032-15.889 21.784-2.728 3.753 2.493 4.997 6.367-.335 4.542-6.251 13.006-17.842 18.893-26.024 4.145-5.759-7.689-4.641-23.576 12.458 7.657-15.506-.299-19.475-6.73-11.264zm12.649 87.507c2.518-3.467 11.11-6.764 14.673-2.217 1.411 1.801 7.609-2.558 5.421-4.633-2.103-1.999-11.179-2.19-16.669-.608-8.122 2.341-15.428 11.892-11.049 15.365-7.971 3.196-16.004 12.636-11.095 16.254 3.288 2.426 14.32.321 19.151-2.218 4.821-2.533 4.667-6.622.419-4.353-9.888 5.286-16.241 4.178-12.279-1.277 3.76-5.173 9.297-6.654 13.864-6.654 2.295 0 5.338-4.543 3.293-4.543-5.127.001-8.289-1.593-5.729-5.116zm-8.657 56.981c2.735 0-1.504-5.404-3.937-5.404-6.096 0-12.609-1.894-15.649-6.083-2.996-4.122 1.523-8.044 13.614-2.634 4.79 2.138 4.631-3.042-1.554-5.512-5.957-2.376-17.073-2.604-20.867-.721-5.616 2.785 2.198 14.141 13.406 18.272-3.953 3.797 2.803 15.02 14.888 19.323 8.1 2.885 17.582.383 18.939-2.638 1.356-3.012-5.896-7.875-7.02-5.173-2.625 6.286-12.096 4.968-16.806-1.52-4.468-6.153-.444-7.91 4.986-7.91zm-82.011 8.006c-6.945-3.702-6.534 2.951-1.763 5.711 2.974 1.724 7.054 4.698 17.412 4.698 19.928 0 3.922-20.818-13.785-22.943-14.053-1.69-19.16-16.08-1.937-8.584 6.13 2.664 6.507-2.875 1.198-5.37-4.887-2.301-9.303-3.134-14.159-3.016-18.001.44-2.959 18.389 15.531 22.216 16.379 3.389 20.445 19.521-2.497 7.288zm26.231-100.273c-1.304-1.795-5.763-8.37-8.026-11.484-2.263-3.114-7.988-2.452-6.136.094l8.458 11.643c9.776 13.453 16.898 16.1 22.299 16.121 7.78.033 8.441-4.205-.772-16.884-1.769-2.437-6.209-8.546-7.43-10.227-2.883-3.973-8.955-3.52-6.53-.181s6.849 9.045 8.638 11.506c12.034 16.567 1.788 16.33-10.501-.588zm-4.868 45.166c-4.84 7.571-4.068 13.422-1.044 14.974 3.032 1.558 6.497-1.003 7.858-2.877 1.364-1.875 19.082-26.264 20.94-28.822 1.857-2.558-4.801-2.23-6.598.241-1.797 2.474-17.668 24.88-17.668 24.88s-1.81-2.883 4.082-12.321c4.978-7.974 4.377-10.544 1.108-12.763-3.159-2.145-5.97-2.409-8.034.434-1.052 1.448-18.416 25.349-20.4 28.077-2.891 3.977 3.811 4.138 6.138.938 1.793-2.472 17.115-23.911 17.115-23.911 1.762.511 2.137 2.341-3.497 11.15zm-27.53 1.316s-2.138 5.107-5.157 10.904c-2.999 5.762 6.067 2.855 7.157-.64 1.088-3.495 6.849-20.652 9.751-29.03.537-1.547-6.89-.98-10.682-.98-3.378 0-5.656 3.784-3.574 3.963 2.645.23 5.37.215 5.37.215s-20.398 18.117-28.067 24.683c-7.667 6.565.964 5.797 4.029 2.998 4.432-4.051 10.669-10.63 10.669-10.63l10.504-1.483zm56.23 11.802c2.147-2.955 17.399-23.588 19.464-26.43 2.436 0 3.971-.418 9.417-.418 2.386 0 6.678-5.878 4.404-5.878h-26.403c-2.954 0-5.416 5.721-3.713 5.721 3.381 0 6.287.486 9.048.486-2.064 2.842-17.181 23.382-19.327 26.34-2.148 2.956 4.96 3.134 7.11.179zm15.765-61.317c-2.462-5.225-11.789-11.549-19.661-10.869-3.089.269-5.991.49-7.164.759-1.808.413 1.246 3.827 3.25 3.698 1.46-.091 2.937-.129 2.937-.129l16.245 22.153s-1.623-.098-2.615-.098c-2.597 0 .289 4.027 2.963 4.027 2.673 0 17.631 1.367 18.637-2.301.999-3.665-3.253-13.117-14.592-17.24zm-73.158-10.762c-5.873.031-8.704 4.139-1.843 13.581 9.687 13.333 18.043 16.813 23.923 16.813 6.788.001 8.938-3.815-1.114-17.645-6.344-8.733-15.095-12.78-20.966-12.749zm-7.581 13.487c-6.982-9.608-15.022-13.524-22.936-13.488-3.2.014-6.359-.182-8.472.054-2.396.268.947 4.091 3.012 4.091 1.221 0 3.14-.053 3.14-.053l16.143 22.497s-1.737-.003-2.655-.003c-2.299 0 .873 3.876 2.706 3.876 1.664 0 6.442-.022 10.964 0 6.073.024 6.52-5.38-1.902-16.974zm-50.554 57.47c-1.732 2.386-1.537 3.396-.343 3.396h21.643c3.413 0 8.393-6.674 4.19-6.674-2.5 0-10.788.78-16.363.78 1.177-1.619 15.497-21.229 18.182-24.981 2.932-4.1-4.546-3.839-7.334 0-1.302 1.792-18.238 25.093-19.975 27.479zm13.829 31.414c12.852 17.69 23.943 22.31 31.74 22.31 9.01 0 11.863-5.059-1.474-23.416-8.423-11.59-20.033-16.96-27.824-16.917-7.791.041-11.545 5.491-2.442 18.023zm98.643 19.421c2.554 3.515 11.342 3.774 8.79.258-2.552-3.516-20.007-27.976-22.462-31.352 2.898 0 4.835-.019 11.304-.019 2.839 0-1.181-6.325-3.885-6.325H150.01c-3.516 0 2.387 6.127 4.411 6.127 4.021 0 7.582.056 10.864.056 2.455 3.379 19.812 27.737 22.366 31.255zM253.674 115c3.056 0-1.191-5.969-4.954-5.969-2.241 0-8.667.709-13.663.709-1.053-1.451-13.753-18.998-16.234-22.358-2.709-3.675-9.068-3.392-6.57.047 1.165 1.604 16.343 22.388 17.897 24.526 1.554 2.139 3.061 3.045 4.132 3.045h19.392zm-63.498-69.145c2.537.221 5.148.205 5.148.205s-19.551 17.367-26.902 23.66c-7.351 6.292.923 5.557 3.861 2.874 4.251-3.882 10.226-10.19 10.226-10.19l10.067-1.422s-2.047 4.895-4.942 10.452c-2.875 5.524 5.816 2.738 6.861-.613 1.047-3.352 6.565-19.796 9.349-27.826.512-1.485-6.603-.939-10.242-.939-3.239 0-5.418 3.626-3.426 3.799zm-43.938 11.302c-15.701 21.609 7.745 22.196 20.146 6.13 5.454-7.067 1.226-6.686-9.154-4.978-2.482.411-5.573 5.4-2.64 4.775 3.293-.699 7.221-1.879 7.213-1.866-2.111 4.087-6.723 9.233-11.413 9.233-6.047 0-3.434-5.285 1.792-12.477 5.225-7.193 10.754-11.877 14.392-11.877 2.932 0 4.001 1.472 2.243 4.546-2.566 4.495 4.724 2.923 6.229.719 8.197-12.006-13.965-14.637-28.808 5.795zm-21.695-10.719c1.307 0 3.44-.055 3.44-.055L110.278 70.45s-1.85-.005-2.83-.005c-2.462 0-5.091 4.146-3.133 4.146 1.785 0 6.922-.021 11.73 0 6.461.028 15.336-5.755 24.348-18.155 7.467-10.28 4.955-14.471-3.569-14.43-3.445.015-6.517-.196-9.146.056-2.979.286-5.345 4.376-3.135 4.376zm-32.594-2.297c-1.01 1.388-17.655 24.298-19.554 26.913-2.773 3.815 3.652 3.968 5.881.9 1.722-2.37 16.407-22.922 16.407-22.922 1.688.492 2.048 2.246-3.354 10.689-4.638 7.257-3.897 12.866-1.003 14.354 2.907 1.492 6.228-.961 7.534-2.76 1.307-1.797 18.29-25.174 20.073-27.625 1.781-2.451-4.602-2.138-6.325.233-1.723 2.369-16.936 23.847-16.936 23.847s-1.734-2.763 3.913-11.809c4.774-7.644 4.195-10.107 1.064-12.237-3.027-2.056-5.721-2.309-7.7.417zm-45.933 29.27c3.154 2.326 13.729.306 18.359-2.127 4.622-2.429 4.473-6.347.403-4.17-9.479 5.066-15.569 4.004-11.768-1.227 3.601-4.958 8.909-6.376 13.286-6.376 2.202 0 5.119-4.356 3.159-4.356-4.915 0-7.949-1.525-5.497-4.904 2.417-3.323 10.654-6.484 14.068-2.125 1.354 1.726 7.292-2.451 5.198-4.441-2.018-1.915-10.716-2.097-15.976-.581-7.789 2.244-14.794 11.399-10.593 14.727-7.643 3.064-15.341 12.111-10.639 15.58zm1.829 14.833c2.672.206 5.091.191 5.091.191s5.316 16.234 6.992 22.118c1.675 5.881 8.408 5.194 7.51 2.686-1.301-3.631-4.281-9.525-4.281-9.525l7.481-1.328s4.732 4.576 9.577 9.768c4.812 5.164 9.153 2.561 5.581-.572-3.578-3.132-20.755-18.505-29.061-26.012-1.535-1.387-7.45-.879-10.848-.879-3.024 0-.139 3.392 1.958 3.553zm-3.23 66.681c.396 1.452.193 3.952 8.904 3.952 16.764 0 28.741-17.506 16.449-19.298-9.757-1.42 3.533-13.521 8.86-7.218 1.896 2.242 8.988-2.418 7.574-4.517-1.304-1.934-3.997-2.638-8.227-2.537-15.677.373-24.963 15.468-14.086 18.687 9.63 2.851-6.661 16.417-11.011 6.131-1.314-3.114-9.098 2.478-8.463 4.8zm25.534 51.289c3.239 4.463 10.156 3.244 8.317.712-1.84-2.535-7.358-10.254-7.358-10.254s7.358-1.167 9.081-7.464c1.686-6.159-4.051-14.092-11.148-17.437-7.091-3.345-18.028-2.775-21.586-2.229-3.255.5-3.146 1.115-1.747 3.042 1.401 1.926 21.932 30.185 24.441 33.63zM96.169 249c4.405 0 9.25-7.277 5.309-7.277-2.427 0-13.246-.276-13.246-.276 10.291-15.892 17.205-20.124 20.652-12.82 1.601 3.393 8.975-1.581 6.97-4.993-4.179-7.116-21.734-8.507-37.418 17.809 0 0-6.284.336-11.741.336-5.458 0-8.789 7.314-5.606 7.314 3.184 0 12.371-.195 12.371-.195-7.314 11.466-14.136 23.04-20.173 12.349-1.906-3.376-10.7 3.089-7.992 6.965C55.771 283.211 72.811 266 83.502 249h12.667zm58.286-6.921c11.295-15.546 6.183-22.746-4.348-22.691-10.532.055-26.194 7.368-38.404 24.174-17.24 23.729-11.368 29.925-.909 29.926 12.08 0 25.774-6.79 43.661-31.409zm37.554 26.074l33.395-45.964c2.964-4.079-7.657-3.556-10.522.387s-28.175 39.674-28.175 39.674-2.887-4.595 6.51-19.646c7.94-12.719 6.978-16.816 1.768-20.356-5.036-3.421-9.519-3.842-12.812.69l-32.533 44.778c-4.61 6.345 6.078 6.6 9.786 1.496 2.865-3.943 27.298-38.133 27.298-38.133 2.805.816 3.406 3.734-5.579 17.784-7.72 12.072-6.487 21.404-1.669 23.88 4.835 2.484 10.359-1.599 12.533-4.59zM278.644 220H236.54c-4.714 0-8.639 7.921-5.92 7.921 5.391 0 10.025-.075 14.429-.075-3.292 4.532-27.4 37.125-30.825 41.839-3.424 4.713 7.913 5.025 11.338.311 3.424-4.713 27.747-37.536 31.04-42.069 3.888 0 6.337.265 15.017.265 3.807.001 10.651-8.192 7.025-8.192zm-8.523-23.301c4.217 8.342 3.665 11.337-9.993-4.004 10.074-6.828-1.863-17.57-9.123-21.144-7.26-3.576-18.051-2.383-21.703-2.383-3.645 0-3.084 1.189-1.592 3.25l24.234 33.355c3.463 4.766 10.909 4.227 8.945 1.519a2714.207 2714.207 0 0 1-7.545-10.542l2.27-1.219c14.22 14.935 28.785 19.498 22.594 4.092-1.423-3.546-9.878-6.478-8.087-2.924zm1.414-71.574c-3.597.015-6.799-.203-9.545.06-3.105.298-5.575 4.565-3.268 4.565 1.364 0 3.586-.057 3.586-.057l-18.47 25.108s-1.931-.006-2.954-.006c-2.566 0-5.311 4.326-3.263 4.326 1.857 0 7.218-.023 12.234 0 6.738.029 15.999-6.004 25.4-18.943 7.792-10.721 5.171-15.093-3.72-15.053zm2.919-17.008c-1.975 4.737-9.112 3.743-12.664-1.145-3.365-4.635-.334-5.962 3.76-5.962 2.058 0-1.133-4.071-2.966-4.071-4.594 0-9.501-1.427-11.796-4.585-2.255-3.106 1.149-6.06 10.265-1.985 3.608 1.611 3.486-2.292-1.175-4.153-4.49-1.789-12.866-1.96-15.726-.543-4.23 2.099 1.656 10.654 10.106 13.768-2.981 2.863 2.109 11.319 11.217 14.562 6.105 2.175 13.248.289 14.272-1.987 1.021-2.271-4.445-5.933-5.293-3.899zm4.975-64.432c-2.015-1.915-10.712-2.097-15.977-.581-7.786 2.244-14.792 11.399-10.592 14.727-7.64 3.065-15.34 12.112-10.635 15.581 3.153 2.326 13.725.306 18.358-2.127 4.619-2.429 4.47-6.347.399-4.17-9.479 5.066-15.566 4.004-11.769-1.227 3.603-4.958 8.911-6.376 13.287-6.376 2.206 0 5.119-4.356 3.159-4.356-4.914 0-7.949-1.525-5.493-4.904 2.414-3.323 10.65-6.484 14.064-2.125 1.355 1.725 7.297-2.452 5.199-4.442zm-11.348 86.008c-4.93 6.789-13.899 18.664-18.593 25.123 4.915 0 10.294-1.614 18.21-12.505 8.679-11.946 5.81-12.618.383-12.618z"/></svg>