<svg xmlns="http://www.w3.org/2000/svg" viewBox="0 0 320 320"><path d="M307.277 106.428c-3.892-3.371-78.903-82.38-89.942-91.703-4.644-3.922-6.056-4.714-12.771-4.724-24.016-.036-88.846.965-94.425 1.221-5.579.256-8.158 1.332-11.5 4.336S33.247 84.945 24.864 94.412c-3.85 4.349-7.967 8.109-12.085 12.183-1.49 1.474-4.282 4.476-1.774 9.879s84.15 184.284 85.468 186.603 2.293 4.727 8.176 5.022c5.625.282 108.597 1.823 110.687 1.896s3.467-.822 5.621-3.401c2.155-2.58 8.189-12.849 11.532-19.435 4.443-8.757 68.761-155.762 75.29-169.561 2.699-5.703 3.389-7.799-.502-11.17zm-66.99 70.705c-2.174 3.025-3.989 6.39-6.34 9.281-3.127 3.845-6.602 1.797-10.12.12-2.226-7.023-4.933-13.906-4.23-21.945.355-4.059.136-15.026-5.65-16.148-16.119-3.125-6.881 51.593-27.928 52.284-2.26-5.712-6.167-13.744-12.461-18.943-4.764-3.935-13.417-7.847-20.442-7.239-.359-5.32-3.512-10.65-8.473-13.665-3.556-2.161-6.8 3.361-3.258 5.506 5.39 3.264 9.19 17.087-2.352 15.209-3.122-.508-7.504-2.164-10.648-.884-4.21 1.714-10.231 8.079-13.784-.423-1.69-4.044.178-10.726.84-14.887 2.462-15.486 6.359-29.232 14.837-42.345 2.702.022 5.855-.156 8.557-.127-1.633 8.115 5.245 25.51 13.759 30.63 10.197 6.132 22.334 7.941 33.307-.312 8.062-6.063 13.091-18.397 13.505-30.524 5.003.273 10.717.021 15.692.736-1.177 4.082 4.811 7.35 6.666 3.178 2.957-6.648 10.85-18.256 19.845-14.241 7.094 3.166 9.725 13.469 11.328 20.175 2.134 8.929 2.667 18.378-1.163 26.882-2.869 6.362-7.43 12.036-11.487 17.682zm-77.11-33.399c3.165 2.222 7.226 1.39 9.354-.292 2.222-1.757 1.085-5.581-1.964-6.253-2.006-.442-1.499-2.687 1.117-2.138 1.883.396 7.887 2.79 10.776 5.354-1.751 3.593-4.459 6.513-8.731 7.907-9.303 3.035-16.758-1.941-20.936-9.174 2.374-1.331 4.515-2.668 6.732-3.519.475 2.706-.223 5.393 3.652 8.115zm4.816-15.503c-5.729-.401-12.106 2.497-16.897 5.853-1.371-3.44-2.032-6.105-2.064-10.603 12.212-.047 24.405-.846 36.634-.838-.14 3.577-.375 8.25-1.235 12.019-4.064-3.794-11.334-6.074-16.438-6.431zm16.497-16.983c-14.131-.212-28.296 1.003-42.402 1.648-13.481.616-26.935.102-40.415.371-4.451.089-8.036-.07-13.31.118-1.232-13.971-1.057-29.571 8.57-40.393 15.034-16.901 25.775 1.15 36.118-2.156 21.989-7.028 59.059-13.09 78.105-4.345 8.006 3.676 15.612 8.189 22.527 13.622 3.01 2.365 5.716 5.069 7.744 8.304 2.607 4.156-1.037 11.499-2.826 16.296-5.964-.299-13.298 2.324-19.347 9.939-.432-.093-22.553-3.22-34.764-3.404zm-61.878 11.741c-2.802 3.853-4.261 6.001-5.931 10.759-6.433-4.84-14.471-6.014-22.663-4.64-3.51.589-9.181 3.599-12.781 7.184-1.237-3.202-1.451-8.511-1.275-12.563 2.565-.302 36.553-.736 42.65-.74zm-37.52 17.436c1.803-2.025 3.971-3.724 6.618-4.684-.184 2.474.682 5.666 2.549 7.235 3.445 2.894 7.088 2.635 9.895.286 1.578-1.321 2.229-5.417-1.282-5.867-3.23-.413-1.454-2.806.225-2.746 4.374.157 8.363 2.747 11.45 5.917-1.232 6.741-19.846 13.975-29.899.422l-.023-.035.467-.528zm26.099 14.437c-2.756 12.058-4.944 26.424-.787 30.494-4.8 2.636-8.615 7.979-11.214 12.259l-.024.041c-2.987-6.213-9.325-11.188-12.013-16.631-1.705-3.452-2.193-7.651-2.792-11.054-.788-4.473-.992-14.269-.369-17.418 7.365 4.576 20.533 6.615 27.199 2.309zm3.227 50.77c3.816 13.831 45.301 5.215 43.218-8.191-.051-.331 5.65 3.066 9.518 6.412-1.28 16.06-17.529 10.24-29.126 11.774-5.263.696-10.458 2.826-15.687 3.742-2.982.522-6.191.783-9.179.202-3.119-.607-5.59-2.687-6.109-5.224 1.478-2.701 6.863-8.414 7.365-8.715zm4.865-2.414c5.229-2.122 13.633-4.463 19.031-5.367 3.801-.636 8.487-1.132 13.207-.935 2.127 7.838-27.629 14.61-32.238 6.302zm-68.354-18.422c-7.522-16.238-23.978-53.218-32.211-69.807-.855-1.722-1.472-3.619.138-5.08 5.583-5.062 9.592-9.621 14.655-15.15 8.442-9.219 17.352-18.01 25.76-27.256 1.375-1.512 15.382-15.787 16.743-17.311-2.633 7.966-2.219 17.678-2.219 21.333 0 13.229-.428 18.286 7.993 20.533-.62 5.702-.348 16.408-.187 21.786-.946.084-4.001.153-7.391.448-3.39.295-3.972 1.692-3.377 12.355.55 9.853 2.755 16.33 7.509 21.635-1.352 4.562-.922 16.64-.36 22.542.401 4.207 7.119 32.032 8.216 41.244.109.912.225 1.811.342 2.71-4.772 2.145-14.594 4.649-18.044 6.133-1.746-2.902-8.61-16.78-17.567-36.115zm53.353 115.07c-3.516-7.28-10.497-20.517-13.99-27.779-5.162-10.73-13.227-34.158-19.491-44.14 1.935-.468 7.984-2.958 9.888-3.454 2.355-.613 4.738-1.269 7.008-2.174 1.005 5.525 2.386 10.902 4.526 16.365 4.294 10.959 11.147 19.621 21.207 24.326.17 4.772 2.56 10.314 3.769 13.897 2.837 8.405 6.59 16.457 9.892 24.685-1.565-.116-19.09-.204-20.644-.238-.593-.014-1.922-.985-2.165-1.488zm86.765 3.315c-7.834-.004-15.67.106-23.506.157-7.944.051-29.033-.659-31.662-.921a4.233 4.233 0 0 0-.18-.652c-3.225-8.31-6.916-16.435-10.304-24.68a137.247 137.247 0 0 1-4.085-11.385c.51.117 1.011.247 1.535.348 16.39 3.144 33.803 6.809 50.551 5.3 9.505-.856 17.603-4.979 24.599-10.709-1.145 5.28-2.317 10.555-3.423 15.844-1.66 7.925-4.45 18.091-3.525 26.698zm52.202-55.647c-3.535 8.095-11.442 25.651-15.376 33.564-3.164 6.363-7.293 12.783-9.915 19.515-.939 2.412-1.911 3.19-3.909 3.086-5.437-.283-10.877-.422-16.318-.482 2.294-7.872 2.748-16.867 4.373-24.682 1.949-9.373 4.17-18.685 6.074-28.065a120.796 120.796 0 0 0 5.385-6.881c9.972-13.71 16.135-31.894 12.187-48.684 5.69 2.103 10.75-1.108 15.151-6.002 3.226 2.884 7.479 4.784 11.273 6.717a113.01 113.01 0 0 0 12 5.278c-.511 1.312-.926 2.664-1.526 3.938-8.232 17.488-11.035 23.547-19.399 42.698zm40.009-92.226c-5.274 12.575-10.799 25.051-15.938 37.68-4.265-1.642-8.485-3.361-12.634-5.285-3.08-1.429-6.385-3.589-8.643-5.514 2.747-3.943 4.456-7.05 6.531-10.152 8.639-12.912 9.868-24.813 7.06-39.665-1.387-7.336-3.594-21.229-14.756-26.19 12.609-24.391 2.929-39.506 3.101-49.403 12.572 12.85 40.232 43.542 52.201 55.049.621.597.563 1.577.284 2.248-5.783 13.886-11.543 27.729-17.206 41.232zm-42.927 2.026c-4.978 6.284-19.749 4.344-12.939-.515 4.378-3.123 5.283-4.953 3.292-9.809-1.143-2.789-2.364-5.598-2.67-8.623-.491-4.842 1.537-13.867 7.991-13.916 6.411-.049 9.594 6.763 10.682 12.065 1.62 7.886-1.544 14.724-6.356 20.798zm-97.673 122.37c0 2.171-1.834 3.982-4.032 3.982s-4.032-1.811-4.032-3.982c0-2.171 1.834-3.982 4.032-3.982s4.032 1.811 4.032 3.982zm3.934 16.103a8.258 8.258 0 0 1-1.452.172c-2.024.08-3.714-1.729-3.714-3.668s1.69-3.748 3.714-3.668c.488.019.973.066 1.452.172 3.515.776 3.515 6.214 0 6.992zm8.586-11.957c-.356.24-.747.34-1.149.438-2.16.524-4.346-1.019-4.346-3.27 0-2.231 2.189-3.821 4.346-3.27 1.006.257 1.775.78 2.329 1.658.997 1.582.265 3.468-1.18 4.444zm9.653 7.197c-1.328-1.015-2.455-1.392-4.114-1.047-2.311.482-3.457 3.789-1.867 5.541.829 1.433 2.519 2.289 4.297 1.807a3.827 3.827 0 0 0 2.666-2.633c.325-1.17.056-2.875-.982-3.668zm3.573-6.586c-4.501 0-4.501-6.894 0-6.894s4.501 6.894 0 6.894zm9.173 13.37c-5.152 0-5.152-7.891 0-7.891s5.152 7.891 0 7.891zm5.999-15.398l-.001.001a.018.018 0 0 0 .005-.004l-.004.003zm-.149-5.545c-.043-.034-.081-.074-.127-.106.096.059.191.123.279.196-.049-.031-.101-.06-.152-.09zm1.344 5.546c-1.044.975-2.911.983-4.074.31a3.539 3.539 0 0 1-1.765-3.04c0-1.566 1.088-2.979 2.617-3.395.907-.246 2.114-.099 2.948.473-.538-.327-1.104-.44-.586-.242.253.097.488.217.713.347.134.106.287.194.393.327a1.632 1.632 0 0 0-.24-.237c.939.596 1.573 1.502 1.573 2.726s-.634 2.13-1.573 2.726c.089-.073.172-.151.24-.237-.072.09-.16.161-.243.239a4.833 4.833 0 0 1-.862.435c-.61.235.278.039.859-.432zM233.943 98.44c-5.235 0-5.235-8.018 0-8.018s5.235 8.018 0 8.018zm-7.802 1.853c0 2.241-1.894 4.112-4.163 4.112s-4.163-1.87-4.163-4.112 1.894-4.112 4.163-4.112 4.163 1.87 4.163 4.112zm2.04-13.872c0 2.337-1.975 4.288-4.341 4.288-2.367 0-4.341-1.951-4.341-4.288s1.975-4.288 4.341-4.288 4.341 1.951 4.341 4.288zm-14.135 5.778c0 2.171-1.834 3.982-4.032 3.982s-4.032-1.811-4.032-3.982c0-2.171 1.834-3.982 4.032-3.982 2.198-.001 4.032 1.811 4.032 3.982zm-1.506-10.19c-5.212 0-5.212-7.983 0-7.983s5.212 7.983 0 7.983z"/></svg>