<svg xmlns="http://www.w3.org/2000/svg" viewBox="0 0 160 160"><title>_dinosaurs-icon</title><path d="M146.948 64.53a.924.924 0 0 0 .085-.505 114.167 114.167 0 0 1-.509-21.145 44.282 44.282 0 0 0-2.304-18.25 1.063 1.063 0 0 0-.038-.789c-3.384-7.572-8.987-15.896-17.128-18.78a32.39 32.39 0 0 0-25.899 2.2 1.007 1.007 0 0 0-.363.35c-9.228 5.223-15.885 13.411-22.329 21.66a1.039 1.039 0 0 0-.063.127 17.205 17.205 0 0 0-5.88 3.121c-5.98 5.007-10.343 13.093-14.887 19.373a11.64 11.64 0 0 1-1.472.167c-5.182.213-9.322-.068-13.402 3.675-4.035 3.701-6.048 9.136-6.965 14.395a1.043 1.043 0 0 0 .107.663 190.26 190.26 0 0 1-13.935 13.785c-3.742 3.465-6.912 7.123-8.716 11.924a.887.887 0 0 0-.406.826c.235 5.073-1.076 11.175 1.686 15.791 1.334 2.23 2.836 2.821 4.484 2.675a1.093 1.093 0 0 0 .346.42c4.879 3.585 11.003 5.103 16.816 2.887a59.58 59.58 0 0 0 10.322-5.395 40.072 40.072 0 0 1-2.348 6.868 1.034 1.034 0 0 0-.536.111c-7.256 3.74-24.948 15.099-10.665 22.36 4.756 2.417 10.31 1.535 15.035-.41a85.74 85.74 0 0 0 10.644-5.802c2.808-1.655 5.861-3.073 8.041-5.532l.003-.002c7.857-5.16 16.895-5.688 25.982-5.7q-3.947 4.228-7.778 8.627c-.016.008-.03.006-.046.015-1.96 1.098-3.924 2.19-5.882 3.293-1.192.672-2.426 1.379-2.514 2.894a2.72 2.72 0 0 0 .103.912c-2.467 2.486-5.384 5.938-3.736 9.7 1.56 3.56 7.334 5.321 10.81 5.6 4.538.362 7.93-2.783 10.646-6.05 3.15-3.789 5.56-8.047 8.978-11.42 1.14-1.126 18.746-12.583 24.727-18.435a56.32 56.32 0 0 0 9.524-11.838 64.913 64.913 0 0 0 5.436-13.207c1.193-4.441 2.824-8.781 3.538-13.377a73.492 73.492 0 0 0 .488-17.783zm-92.704 62.91l.368 1.512q2.015 3.589-1.677 3.158a1.116 1.116 0 0 0-1.61-1.182.95.95 0 0 0-.741.965 10.348 10.348 0 0 1-.327 2.729 9.706 9.706 0 0 1-.477 1.384c-.073.167-.432 1.073-.606 1.152a1.35 1.35 0 0 1-.912-.238c-.227-.294.051-.965.108-1.262q.27-1.397.564-2.79a1.092 1.092 0 0 0-1.686-1.107 1.032 1.032 0 0 0-.633.638c-.308.845-.637 1.68-1.012 2.499a31 31 0 0 1-.649 1.335c-.261.505-.24.83-.887.722-.681-.115-.586-.584-.49-1.246a6.26 6.26 0 0 1 .253-1.01 7.105 7.105 0 0 1 1.229-2.259 1.103 1.103 0 0 0 .213-.44c.15-.144.278-.273.375-.379.916-.995-.568-2.486-1.487-1.487a9.97 9.97 0 0 1-3.365 2.848q-2.07 2.178-1.761-.86l1.473-1.86a48.01 48.01 0 0 0 3.675-5.173 40.608 40.608 0 0 0 4.831-13.008c3.58-2.358 7.082-4.828 10.49-6.925a1.002 1.002 0 0 0 .147-.004 26.254 26.254 0 0 0 3.98-1.277c-1.57 5.686-6.091 9.683-8.407 15.098a14.143 14.143 0 0 0-1.288 5.76 19.466 19.466 0 0 0 .31 2.707zm14.082-17.52c-1.25 2.142-4.842 3.244-7.689 3.98 2.337-3.453 4.647-6.688 5.372-11.006.005-.03-.005-.053-.002-.082.347-.172.69-.367 1.034-.55a19.895 19.895 0 0 0 1.174 2.023 7.061 7.061 0 0 1 .11 5.636zm75.956-65.44a76.383 76.383 0 0 0-.139 9.749 1.124 1.124 0 0 0-.147.443q-1.288 10.894-1.672 21.851a.932.932 0 0 0 .19.606 79.431 79.431 0 0 1-17.792 37.881 1.094 1.094 0 0 0-.195.35 1.048 1.048 0 0 0-.265.16c-7.3 6.686-15.52 12.114-23.471 17.964a21.431 21.431 0 0 0-6.569 7.028c-.58 1.054-2.04 5.854-2.837 6.398-.016.011-.804.067-1.406.115a3.475 3.475 0 0 1 .477-1.49c.776-1.113-1.047-2.165-1.816-1.062-.686.984-.598 2.191-1.032 3.275a9.844 9.844 0 0 1-.87 1.65l-.012.019-.231-.017c-.2-.054-.492-.066-.74-.13a12.972 12.972 0 0 1 .503-1.46 22.079 22.079 0 0 1 .975-2.35 1.03 1.03 0 0 0-.01-.941l-.012-.019a1.162 1.162 0 0 0-.203-.283c-.028-.028-.06-.049-.09-.074a1.22 1.22 0 0 0-.205-.147 1.082 1.082 0 0 0-.162-.062 1.051 1.051 0 0 0-.202-.057.942.942 0 0 0-.155 0 .832.832 0 0 0-.226.03 1.004 1.004 0 0 0-.206.1.767.767 0 0 0-.093.06.993.993 0 0 0-.148.095c-.653.634-5.133 4.961-5.865 2.822-.204-.598.975-1.723 1.319-2.098a12.537 12.537 0 0 1 2.462-2.054 1.088 1.088 0 0 0-.127-1.874.741.741 0 0 0-.064-.037.847.847 0 0 0-.134-.042.868.868 0 0 0-.62.019 6.543 6.543 0 0 1-2.518.681c-1.05-.035-1.828-.798-.88-1.71a5.754 5.754 0 0 1 1.183-.67l5.592-3.13a.95.95 0 0 0 .432-.286 248.345 248.345 0 0 1 26.305-26.497 1.064 1.064 0 0 0 .187-.163c3.531-2.998 7.18-5.887 11.002-8.63 1.09-.781.041-2.607-1.061-1.815a174.78 174.78 0 0 0-11.379 8.92c-6.727 2.721-14.159 6.807-21.513 6.503a41.772 41.772 0 0 1-20.885-12.908 67.39 67.39 0 0 0 3.378-2.14c5.358 5.696 11.368 10.169 19.414 10.859a25.995 25.995 0 0 0 20.758-8.048 1.052 1.052 0 0 0-1.488-1.488 23.968 23.968 0 0 1-19.27 7.433c-7.341-.672-12.78-4.83-17.66-9.964.87-.613 1.725-1.234 2.572-1.857a.954.954 0 0 0 .3.693c4.148 4.084 9.236 7.33 15.215 7.595 6.965.308 13.056-3.608 18.62-7.312 1.122-.746.07-2.569-1.061-1.816-4.616 3.072-9.543 6.427-15.215 6.909-6.333.538-11.67-2.53-16.072-6.864a1.073 1.073 0 0 0-.377-.246c1.455-1.08 2.876-2.144 4.255-3.135l.685-.492c2.001 4.472 6.884 5.72 11.319 6.464 1.324.222 1.893-1.804.559-2.028-3.956-.663-8.364-1.534-10.12-5.616-.01-.024-.027-.033-.038-.055q.934-.672 1.87-1.353a1.018 1.018 0 0 0 .312.25c5.567 2.839 14.152 4.015 18.774-1.303 2.783-3.202 2.967-8.102 4.955-11.8 2.194-4.078 4.732-7.795 5.911-12.327a1.053 1.053 0 0 0-2.028-.56c-1.491 5.733-5.448 10.172-7.506 15.649-1.308 3.481-1.459 7.271-5.1 9.343-4.071 2.316-9.475 1.324-13.485-.597q1.118-.827 2.223-1.675a.92.92 0 0 0 .478.242c2.89.528 5.842.916 8.52-.56 1.186-.654.126-2.471-1.061-1.817-1.828 1.008-3.89.853-5.882.525a66.072 66.072 0 0 0 9.218-8.723 1.055 1.055 0 0 0 .23-.494.964.964 0 0 0 .113-.136c2.452-4.62 4.578-9.144 5.465-14.337.637-3.729 2.042-9.63.708-13.21-.9-2.412-2.978-2.91-5.389-2.633-5.468.628-11.345 3.24-16.629 4.78a1.053 1.053 0 0 0 .56 2.029l9.37-2.733c1.203-.35 4.387-1.768 5.623-1.64 1.761 0 3.749-.692 4.558 2.187q-.045 1.373-.11 2.745a48.9 48.9 0 0 1-5.972 21.75 1.04 1.04 0 0 0-.084.282c-5.378 6.314-12.416 11.215-19.109 16.027-6.515 4.684-14.215 11.303-22.145 13.12a.966.966 0 0 0-.548.143L40.395 114.4c-6.41 3.91-12.598 4.782-18.864.753.728-.27 1.478-.588 2.252-.901a1.008 1.008 0 0 0 .549-.121c.238-.13.473-.267.711-.399a1.028 1.028 0 0 0 .05.1 6.383 6.383 0 0 0 2.033 1.897c.847.388 1.57-.127 2.185-.683a6.483 6.483 0 0 0 1.22-1.554 1.544 1.544 0 0 0 2.253.294 6.76 6.76 0 0 0 2.504-3.562 2.191 2.191 0 0 0 2.731 0 6.462 6.462 0 0 0 1.912-4.032 3.787 3.787 0 0 0 3.407-.624 5.669 5.669 0 0 0 1.794-2.559 3.444 3.444 0 0 0 1.018.648 2.28 2.28 0 0 0 2.55-.907 8.72 8.72 0 0 0 2.097-4.433 3.342 3.342 0 0 0 3.127-1.3 6.67 6.67 0 0 0 1.379-2.837 3.364 3.364 0 0 0 3.067-.743c1.176-1.132 1.205-2.803 1.068-4.316a1.045 1.045 0 0 0-.64-.885 22.662 22.662 0 0 0 3.653-8.265c.283-1.32-1.744-1.884-2.028-.559-1.938 9.052-9.6 14.697-16.66 19.89a183.307 183.307 0 0 1-20.106 12.793.935.935 0 0 0-.207.037c-1.818.726-4.488 2.52-6.394.892-1.596-1.363-1.907-4.169-2.068-6.08-.258-3.061.073-6.148-.029-9.218a1.058 1.058 0 0 0 .155-.26c2.014-5.684 6.328-9.617 10.706-13.538a134.174 134.174 0 0 0 12.182-12.342 1.08 1.08 0 0 0-.065-1.487c.792-4.214 2.237-8.505 5.184-11.724 3.688-4.027 7.97-4.058 13.04-4.213 7.576-.232 16.59-7.953 20.73 2.994.474 1.254 2.508.71 2.028-.559-1.322-3.494-3.803-6.524-7.579-7.494-3.644-.938-7.044.748-10.519 1.937 3.52-4.976 6.934-10.186 10.911-14.746 5.337-6.118 14.065-6.56 21.664-5.907 1.348.116 1.34-1.988 0-2.103a45.68 45.68 0 0 0-11.759.326c5.92-7.499 12.167-14.768 20.666-19.445a1.016 1.016 0 0 0 .357-.323 30.353 30.353 0 0 1 23.835-1.754c7.322 2.65 12.396 10.274 15.572 17.166a.914.914 0 0 0 .012.587 45.788 45.788 0 0 1 2.203 19.638zM26.885 112.7q1.18-.67 2.348-1.359a4.886 4.886 0 0 1-.915 1.71c-.15.177-.356.327-.494.508l-.06.053-.017-.012c-.055-.174-.418-.394-.559-.543-.107-.114-.203-.237-.303-.356zm4.63-2.718c.678-.41 1.344-.84 2.017-1.258a6.778 6.778 0 0 1-1.207 2.579c-.097.125-.267.263-.392.405-.07-.261-.225-.554-.285-.783-.047-.177-.074-.357-.108-.536.002-.026.01-.05.013-.077a.978.978 0 0 0-.039-.33zm3.953-2.469c.79-.506 1.575-1.022 2.358-1.54a7.846 7.846 0 0 1-.603 1.84c-.164.337-.338.808-.72.719-.335-.08-.717-.603-.9-.862a1.178 1.178 0 0 0-.135-.157zm5.018-3.343a185.5 185.5 0 0 0 2.696-1.891 3.854 3.854 0 0 1-.845 1.381 1.844 1.844 0 0 1-1.852.51zm5.137-3.673c.803-.594 1.61-1.18 2.401-1.791.236-.182.47-.366.705-.55a6.6 6.6 0 0 1-.968 2.397c-.228.346-.641 1.063-1.03 1.006-.318-.047-.783-.622-1.1-1.037-.004-.008-.004-.017-.008-.025zm5.485-4.252q.947-.786 1.86-1.599a9.977 9.977 0 0 1-.55.877 1.421 1.421 0 0 1-1.31.722zm4.48-4.13a35.122 35.122 0 0 0 1.828-2.056 2.52 2.52 0 0 1-.394 1.748 1.328 1.328 0 0 1-1.434.307zm35.976-57.84c-6.115-.21-14.539 1.719-17.787 7.534-.661 1.183-2.478.121-1.817-1.062 3.623-6.485 12.708-8.812 19.604-8.575 1.352.047 1.353 2.15 0 2.104zm-47.422 62.14c-6.546 4.506-13.17 10.147-20.552 13.232-4.556 1.904-5.973.345-6.773-4.483-.22-1.326 1.807-1.891 2.028-.559.67 4.039 2.594 3.84 5.979 2.103a58.588 58.588 0 0 0 5.832-3.57c4.172-2.8 8.286-5.69 12.425-8.538 1.119-.77 2.17 1.053 1.061 1.816zm42.549-16.712a37.285 37.285 0 0 0 15.887-27.016c.155-1.33 2.26-1.342 2.104 0-1.353 11.647-7.061 22.048-16.731 28.7-1.115.768-2.378-.915-1.26-1.684zm33.224 37.496a133.54 133.54 0 0 1-17.562 13.077c-1.152.72-2.207-1.101-1.061-1.816a130.22 130.22 0 0 0 17.136-12.748c1.013-.892 2.505.591 1.487 1.487zm-1.8-34.275a26.64 26.64 0 0 1-15.55 13.164c-1.293.421-1.841-1.61-.56-2.029A24.505 24.505 0 0 0 116.3 81.863c.623-1.204 2.438-.14 1.817 1.061zM69.018 57.62a12.325 12.325 0 0 1 2.222 2.2c.895 1.02 2.378-.472 1.488-1.486-1.433-1.633-3.165-3.415-5.51-3.456-2.618-.045-4.381 2.258-6.045 3.948-2.167 2.202-9.028 8.127-3.482 10.846 1.21.593 2.278-1.22 1.061-1.817-1.306-.64-.764-2.12.34-3.667a.873.873 0 0 0 .705.655c4.41.95 10.58-2.235 9.22-7.223zm-3.32-.124c.017.022.02.047.04.069.645.742 1.407 2.806-.18 3.08-.937.163-1.207-1.072-1.333-1.934a7.704 7.704 0 0 1 1.473-1.215zm-13.1 55.986a1.052 1.052 0 0 1 0-2.104 1.052 1.052 0 0 1 0 2.104zm3.445-3.826a1.052 1.052 0 0 1 0 2.103 1.052 1.052 0 0 1 0-2.103zm-3.445 7.668a1.052 1.052 0 0 1 0-2.103 1.052 1.052 0 0 1 0 2.103zm-30.74-15.75a1.052 1.052 0 0 1 0 2.103 1.052 1.052 0 0 1 0-2.104zm4.24-.53a1.052 1.052 0 0 1 0 2.103 1.052 1.052 0 0 1 0-2.104zm-1.855-3.578a1.052 1.052 0 0 1 0 2.103 1.052 1.052 0 0 1 0-2.103zm-5.035 0a1.052 1.052 0 0 1 0 2.103 1.052 1.052 0 0 1 0-2.103zm2.915-3.975a1.052 1.052 0 0 1 0 2.103 1.052 1.052 0 0 1 0-2.103zm7.155 3.445a1.052 1.052 0 0 1 0 2.103 1.052 1.052 0 0 1 0-2.103zm-2.915-4.24a1.052 1.052 0 0 1 0 2.103 1.052 1.052 0 0 1 0-2.103zm-1.855-3.842a1.052 1.052 0 0 1 0 2.103 1.052 1.052 0 0 1 0-2.104zm3.842-4.77a1.052 1.052 0 0 1 0 2.103 1.052 1.052 0 0 1 0-2.104zm0 3.312a1.052 1.052 0 0 1 0 2.103 1.052 1.052 0 0 1 0-2.103zm4.77-7.42a1.052 1.052 0 0 1 0 2.103 1.052 1.052 0 0 1 0-2.103zm-.794 11.13a1.052 1.052 0 0 1 0 2.103 1.052 1.052 0 0 1 0-2.103zm5.83 2.385a1.052 1.052 0 0 1 0 2.103 1.052 1.052 0 0 1 0-2.103zm-3.18 2.65a1.052 1.052 0 0 1 0 2.103 1.052 1.052 0 0 1 0-2.103zm63.864-44.52a1.052 1.052 0 0 1 0 2.103 1.052 1.052 0 0 1 0-2.103zm-.662 4.77a1.052 1.052 0 0 1 0 2.103 1.052 1.052 0 0 1 0-2.103zm-4.902-4.24a1.052 1.052 0 0 1 0 2.103 1.052 1.052 0 0 1 0-2.103zm-36.968 6.21a1.052 1.052 0 0 1 0-2.103 1.052 1.052 0 0 1 0 2.104zm-5.565.663a1.052 1.052 0 0 1 0-2.103 1.052 1.052 0 0 1 0 2.103zm-5.433.15a1.052 1.052 0 0 1 0 2.103 1.052 1.052 0 0 1 0-2.104zm8.745 4.355a1.052 1.052 0 0 1 0-2.103 1.052 1.052 0 0 1 0 2.103zm-4.372 0a1.052 1.052 0 0 1 0-2.103 1.052 1.052 0 0 1 0 2.103zm-6.758 1.474a1.052 1.052 0 0 1 0 2.104 1.052 1.052 0 0 1 0-2.104zM90.492 23.78a1.052 1.052 0 0 1 0-2.103 1.052 1.052 0 0 1 0 2.103zm5.035-5.3a1.052 1.052 0 0 1 0-2.103 1.052 1.052 0 0 1 0 2.103zm-.397 4.108a1.052 1.052 0 0 1 0-2.104 1.052 1.052 0 0 1 0 2.104zm5.432-7.818a1.052 1.052 0 0 1 0-2.103 1.052 1.052 0 0 1 0 2.103zm-1.06 4.373a1.052 1.052 0 0 1 0-2.104 1.052 1.052 0 0 1 0 2.104zm5.698-7.023a1.052 1.052 0 0 1 0-2.103 1.052 1.052 0 0 1 0 2.103zm5.432-1.987a1.052 1.052 0 0 1 0-2.104 1.052 1.052 0 0 1 0 2.104zM137.53 83.67a1.052 1.052 0 0 1 0-2.103 1.052 1.052 0 0 1 0 2.103zm1.722-5.432a1.052 1.052 0 0 1 0-2.104 1.052 1.052 0 0 1 0 2.104zm.265-4.77a1.052 1.052 0 0 1 0-2.104 1.052 1.052 0 0 1 0 2.104zm1.06-5.83a1.052 1.052 0 0 1 0-2.104 1.052 1.052 0 0 1 0 2.104zm-.132-6.095a1.052 1.052 0 0 1 0-2.104 1.052 1.052 0 0 1 0 2.104zm-3.843 1.871a1.052 1.052 0 0 1 0 2.104 1.052 1.052 0 0 1 0-2.104zm-.397 7.271a1.052 1.052 0 0 1 0-2.103 1.052 1.052 0 0 1 0 2.103zm4.107-19.858a1.052 1.052 0 0 1 0 2.103 1.052 1.052 0 0 1 0-2.103zm.265-9.16a1.052 1.052 0 0 1 0-2.103 1.052 1.052 0 0 1 0 2.104zm-.132 2.932a1.052 1.052 0 0 1 0 2.104 1.052 1.052 0 0 1 0-2.104zm-44.918 17.49a1.052 1.052 0 0 1 0 2.104 1.052 1.052 0 0 1 0-2.104zm-2.12-2.534a1.052 1.052 0 0 1 0-2.103 1.052 1.052 0 0 1 0 2.103zM66.377 69.89a1.052 1.052 0 0 1 0-2.103 1.052 1.052 0 0 1 0 2.103zm6.228 1.855a1.052 1.052 0 0 1 0-2.103 1.052 1.052 0 0 1 0 2.103zm-1.06-6.343a1.052 1.052 0 0 1 0 2.103 1.052 1.052 0 0 1 0-2.103zm-33.258 9.407a1.052 1.052 0 0 1 0 2.104 1.052 1.052 0 0 1 0-2.104zm3.71-4.372a1.052 1.052 0 0 1 0 2.103 1.052 1.052 0 0 1 0-2.103zm-6.758 15.767a1.052 1.052 0 0 1 0 2.104 1.052 1.052 0 0 1 0-2.104zm5.698-1.457a1.052 1.052 0 0 1 0 2.103 1.052 1.052 0 0 1 0-2.103zm-1.855-4.902a1.052 1.052 0 0 1 0 2.103 1.052 1.052 0 0 1 0-2.104zm6.758 1.44a1.052 1.052 0 0 1 0-2.103 1.052 1.052 0 0 1 0 2.103zm15.104 18.02a1.052 1.052 0 0 1 0-2.103 1.052 1.052 0 0 1 0 2.103zm6.493-2.517a1.052 1.052 0 0 1 0-2.104 1.052 1.052 0 0 1 0 2.104zm3.578-2.12a1.052 1.052 0 0 1 0-2.104 1.052 1.052 0 0 1 0 2.104zm5.3-3.18a1.052 1.052 0 0 1 0-2.104 1.052 1.052 0 0 1 0 2.104zm-6.36-.928a1.052 1.052 0 0 1 0-2.103 1.052 1.052 0 0 1 0 2.103z" fill="#010101"/></svg>