<svg xmlns="http://www.w3.org/2000/svg" viewBox="0 0 320 320"><path d="M221.689 147.076a6.108 6.108 0 0 0-.337.019c-1.585.096-2.257.469-2.257 1.246 0 .065-.195.486-.433.939-.24.452-.406.815-.368.815.036 0-.101.337-.305.743-.205.406-.375.791-.375.866 0 .075-.282.724-.621 1.436-.339.713-.613 1.335-.613 1.391 0 .055-.079.262-.176.459-.414.859-.931 2.139-.931 2.295 0 .257-.464 1.506-.731 1.973-.13.226-.296.616-.373.859-.079.246-.334.662-.57.926-.236.265-.426.536-.426.607 0 .07-.224.426-.493.784-.27.358-.524.847-.568 1.099-.043.251-.173.599-.291.768-.118.171-.25.484-.291.693-.082.419-.784 1.983-1.022 2.276-.195.24-.69 1.532-1.035 2.709-.431 1.467-.871 2.702-1.306 3.642a77.262 77.262 0 0 0-1.234 2.969c-.455 1.155-.9 2.271-.991 2.476-.089.205-.305.729-.483 1.171-.178.44-.46 1.006-.628 1.261-.168.253-.303.506-.303.563 0 .055-.207.705-.452 1.449-.248.743-.493 1.578-.544 1.85-.053.269-.32 1.273-.594 2.223-.277.95-.503 1.85-.505 1.999-.002.149-.058.299-.118.337-.058.036-.14.329-.185.645-.087.563-.127.683-.421 1.248a1.484 1.484 0 0 0-.149.57c0 .159-.163.613-.363 1.016-.83 1.669-.871 1.83-.871 3.367-.002 2.213.258 5.083.457 5.083.092 0 .163-.108.163-.245 0-.138.051-.354.116-.472.289-.522 1.732-3.921 2.218-5.24.25-.675.645-1.581 1.551-3.491a39.487 39.487 0 0 0 1.785-4.474c.264-.799.536-1.59.608-1.759.876-2.11 2.333-6.088 3.647-9.947 1.766-5.192 2.788-7.961 3.246-8.827.161-.306.291-.621.291-.705 0-.081.142-.474.318-.866.176-.392.428-.967.563-1.273.132-.305.325-.714.419-.919.096-.205.561-1.542 1.035-2.969 1.181-3.546 1.121-3.363 1.508-4.26.19-.443.38-.957.426-1.145.045-.188.135-.371.195-.407.06-.039.104-.151.104-.252 0-.103.5-1.261 1.111-2.574.611-1.314 1.111-2.428 1.111-2.471 0-.043.226-.531.498-1.085.602-1.231.669-1.411-.007-1.391zm-17.415-49.66c-.017-.387-.659-.929-1.061-.95-.026 0-.053.005-.077.008a.175.175 0 0 0-.065.019c-.207.086-.986.168-1.72.187-.734.02-1.371.044-1.422.053-.163.029-.111 2.298.058 2.529.183.248 5.699.397 5.555.146a44.572 44.572 0 0 0-.666-1.008c-.328-.484-.599-.924-.602-.984zm-6.712-17.93c.041.56.137.868.361 1.161.168.222.298.441.298.486 0 .046.171.286.376.543.204.258.368.505.368.549 0 .046.111.231.245.414.228.31.51.803 1.073 1.883.125.236.272.462.318.498.144.109 2.136 3.462 2.601 4.376.649 1.282.741 1.444 1.111 1.927.187.246.337.486.337.537 0 .053.154.328.342.609.188.282.445.762.577 1.068.13.305.39.719.568.924.402.454.69.938.751 1.215.024.115.332.582.686 1.041.907 1.179 3.265 4.443 3.594 4.988.154.247.332.473.382.497.05.022.353.46.685.97.332.511.645.955.693.989.046.034.178.243.296.472.118.228.375.596.57.808.698.767 1.111 1.277 1.111 1.391 0 .062.154.279.356.471.426.41.428.414 1.501-.664.375-.38.998-.964 1.388-1.294.63-.53.7-.618.558-.809a67.766 67.766 0 0 1-1.244-1.712c-.154-.226-.59-.813-.962-1.314-.373-.5-.765-1.039-.866-1.19a11.47 11.47 0 0 0-.44-.587c-.349-.434-1.655-2.351-1.655-2.425 0-.094-2.052-3.113-2.774-4.08-.563-.753-1.509-2.113-2.658-3.83l-1.674-2.502a172.933 172.933 0 0 1-1.727-2.606 47.016 47.016 0 0 0-1.299-1.876c-1.467-2.013-2.298-3.33-3.635-5.767-.479-.876-.669-1.212-.919-1.217-.149-.002-.329.113-.594.306-.969.699-1.352 2.03-.835 2.87.04.064.105.459.136.88zm31.448 20.917a29.678 29.678 0 0 0 1.82-.154l.425-.072v-1.893c0-1.141-.011-1.903-.083-1.903-.065 0-.161.096-.228.214-.111.2-.629.739-1.731 1.778a7.443 7.443 0 0 0-.816.97c-.214.311-.471.643-.58.731-.419.346-.203.411 1.193.329z"/><path d="M241.503 122.159c.313-.665.568-1.234.568-1.261 0-.029.19-.453.421-.953.231-.498.592-1.35.801-1.893.212-.544.433-1.075.498-1.177.224-.339.14-.375-.885-.37-.561.005-1.21-.015-1.448-.043-2.093-.263-4.59-.342-5.153-.164-.597.19-1.042.274-2.199.395a6.334 6.334 0 0 0-.828.13c-.491.156-1.287-.766-1.256-1.637.012-3.096-.599-6.265-.756-9.363l-.007-2.716-.491-.161c-.522-.173-1.338-.132-2.341.103-.397.092-1.066.109-1.857.058-1.181-.077-1.239-.067-1.415.195-.103.15-.353.416-.558.594-.659.575-1.177 1.167-1.177 1.353 0 .327-.589.962-1.352 1.448-.411.262-.748.517-.748.563 0 .043-.421.397-.933.789-.51.392-.996.806-1.078.924-.137.195-.674.575-2.654 1.874-.38.253-.748.431-.813.39-.065-.041-.313-.075-.544-.065-.346.012-.515-.082-.957-.536-.296-.306-.573-.551-.628-.551-.166 0-.787-.652-.787-.828 0-.091-.392-.558-.868-1.027-.474-.468-.866-.878-.866-.911 0-.036-.274-.414-.613-.842-.339-.426-1.196-1.605-1.896-2.625l-1.268-1.855-2.035-.014c-1.116-.008-2.557-.06-3.202-.116a32.017 32.017 0 0 0-1.524-.103l-.353-.014v1.333c0 .732.016 1.325.062 1.325.048 0 .117.267.16.589.043.323.205 1.364.364 2.314.161.95.323 2.009.369 2.348.053.409.225.83.516 1.253.585.859.517 1.275-.383 2.238-1.438 1.544-2.62 2.718-2.942 2.923-.188.12-.351.279-.356.356-.007.13-.883.881-1.54 1.314-.426.281-2.071 1.681-3.257 2.766-.585.537-1.311 1.145-1.617 1.352-.789.536-2.471 2.057-2.471 2.238 0 .084.217.347.471.582.255.236.801.777 1.222 1.215.421.438 1.314 1.345 1.98 2.006l1.208 1.203 4.754.058c2.615.033 5.088.086 5.497.115.406.029 1.354.066 2.1.077.748.015 1.72.077 2.16.13.442.056 1.027.123 1.301.157.746.089 4.311.681 5.36.892.505.101 1.648.246 2.536.31 2.569.186 3.161.238 4.08.368 1.518.216 1.939.245 4.08.31 1.155.033 2.62.086 3.265.11 4.397.166 5.256.164 5.588-.007.231-.121.606-.157 1.196-.116l.854.05.277-.704c.397-.992 1.278-2.721 1.754-3.448.587-.897.845-1.373 1.177-2.134.388-.887.742-1.645 1.437-3.114zm7.734-6.255c-.267.01-.544.044-.746.099-.351.097-1.434 1.769-1.804 2.794-.12.339-.286.669-.368.736-.082.069-.238.382-.356.7-.116.317-.31.683-.426.808a3.07 3.07 0 0 0-.395.595c-.103.204-.245.478-.318.613a6.095 6.095 0 0 0-.291.743c-.087.273-.37.85-.632 1.282-.262.431-.479.854-.479.936 0 .084-.527 1.198-1.183 2.485a417.778 417.778 0 0 0-1.559 3.077c-.2.409-.493.91-.645 1.112-.154.204-.325.503-.375.666a3.69 3.69 0 0 1-.306.654c-.202.334-.205.4.014 1.184.125.452.342 1.455.484 2.237.142.782.344 1.53.44 1.667.096.137.173.476.176.751.003.274.113.748.253 1.054.318.702.736 2.233.736 2.711 0 .199.058.397.135.445.099.06.111.332.041.904-.245 1.961-.024 3.299 1.085 6.501.142.406.303.931.356 1.169.269 1.205.847 3.352.962 3.57.169.313.82 3.063.938 3.958.05.371.183.902.298 1.176.116.277.282.835.368 1.242.087.409.257.964.382 1.236s.325.998.438 1.61c.195 1.039 1.025 4.058 1.306 4.746.07.17.202.703.291 1.176.091.477.366 1.694.608 2.704.243 1.01.447 1.92.447 2.018 0 .231.996 1.518 1.177 1.518.091 0 .043-.416-.149-1.215-.161-.661-.378-1.556-.479-1.999a23.153 23.153 0 0 1-.245-1.241 83.9 83.9 0 0 0-.317-1.725c-.137-.714-.255-1.52-.258-1.792-.005-.272-.053-.546-.103-.613-.053-.07-.128-.65-.176-1.295a18.97 18.97 0 0 0-.258-1.98c-.272-1.291-.419-2.343-.486-3.419-.063-.972-.241-2.364-.382-3.002-.087-.399-.258-1.588-.794-5.497a66.06 66.06 0 0 1-.253-2.404c-.074-.849-.224-1.83-.325-2.18-.098-.348-.163-.685-.147-.743.014-.06-.039-.416-.118-.789-.079-.375-.26-1.622-.399-2.776s-.313-2.468-.375-2.909a45.914 45.914 0 0 1-.305-2.47c-.036-.378-.12-.989-.188-1.356a274.68 274.68 0 0 1-.31-1.843 25.164 25.164 0 0 0-.438-2.083c-.243-.905-.243-.924-.007-1.43.493-1.056 1.6-3.743 1.812-4.397.118-.374.515-1.321.871-2.103.358-.78.845-1.995 1.08-2.71.238-.712.743-2.081 1.126-3.031 1.157-2.877 1.429-3.592 1.429-3.746.001-.098-.415-.144-.858-.129zm16.807-82.507c.048-8.606-.053-11.433-.433-11.64-1.965-.173-3.933-.223-5.904-.214-4.335.025-8.678.344-13.005.291-3.351.037-7.357.38-10.669.188-.282.469-.503.876-.447 1.474-.395 6.243-.539 11.913-.854 18.171a5.69 5.69 0 0 0-.135.486c-.212.917-1.771.95-4.302.867-8.808-.119-15.543.081-24.354.271-7.948.007-7.556.067-8.93-.881l-.794-.556-.44-15.255c.053-1.256.065-2.783.031-3.394l-.065-1.112-.606.019c-8.548.368-18.144 1.314-26.74.679-12.662-.156-22.357-.092-26.054.168-5.699.347-11.389.871-17.104.705-9.068-.108-14.197-.101-16.858.012-4.202.18-4.628.19-10.212.265-9.259.14-18.536.404-27.759 1.171-2.459.231-5.708.354-11.362.433-5.038.07-4.932.063-5.142.467-.663 1.285-.847 6.046-.271 7.222.088.18.114.924.072 2.161-.058 1.674.043 4.443.207 5.658.351 2.63.478 8.726.257 12.378-.106 1.776-.075 1.838.739 1.571 6.339-.06 14.879.199 14.879.199l68.664-1.617s10.478.062 10.68.103c1.175.236 18.997.024 22.668-.272 1.73-.137 5.136-.259 9.59-.335 1.641-.028 3.084-.091 3.202-.137.387-.149 2.935.219 4.436.64 1.412.397 3.099.847 6.245 1.655a3304.502 3304.502 0 0 1 47.105 13.865 4533.693 4533.693 0 0 1 17.718 5.665c3.844 1.237 6.24 1.812 6.264 1.812.087 0 .19-1.637.176-2.712.294-13.439.272-26.975-.493-40.471z"/><path d="M261.899 139.608c-.026-.041-.087-2.966-.13-6.629h.007c-.045-3.663-.106-12.986-.137-20.865-.031-7.879-.084-15.32-.116-16.544-.036-1.35.015-3.344.13-5.079.238-3.612.291-10.128.089-10.476-.103-.18-.621-.389-1.965-.777-5.971-1.811-11.863-3.899-17.829-5.708-9.852-2.437-19.448-6.002-29.338-8.324-1.934-.443-4.253-1.141-7.65-2.295-6.462-2.186-12.924-4.39-19.484-6.264a2.481 2.481 0 0 0-.666-.103c-.65-.022-1.263.173-1.98.29-.941.092-.897.005-.671 1.261.098.546.197 3.494.264 8.083.005.272-.026.869-.07 1.326-.053.535-.034.973.063 1.234.137.371.284 10.472.248 16.776-.002.305 0 1.301 0 2.217 0 .917-.029 2.921-.06 4.449-.137 6.856-.183 10.708-.166 14.266.007 2.105.014 4.439.019 5.187.009 2.565-.137 8.399-.214 8.586-.205.504-.298 12.88-.156 20.591.05 2.596.087 7.152.079 10.126-.029 9.183-.005 14.93.065 17.507.111 4.21.185 6.719.258 8.709.072 1.984.209 13.061.214 17.285.002 1.326-.041 4.128-.099 6.236a247.636 247.636 0 0 0-.082 6.732c.01 1.595.012 4.046.005 5.439-.019 4.155-.005 4.893.084 7.345.048 1.291.067 2.708.053 3.149-.053 1.599-.043 2.788.05 10.807.092 7.712.108 11.561.058 12.538-.012.239.029 1.429.084 2.652.123 2.596.139 4.229.079 7.287-.026 1.224-.005 2.761.043 3.416.053.688.034 1.212-.031 1.253-.065.04-.084 1.474-.053 3.44.058 3.43.055 3.736.019 5.477-.01.544-.01 1.013 0 1.047.012.033.015 1.703 0 3.704-.01 2.004.041 5.091.111 6.856.07 1.766.156 4.24.2 5.498.205 5.266.034 10.527.183 15.796 0 .789.05.785 1.208-.096a29.944 29.944 0 0 1 1.509-1.072c.305-.198.587-.39.621-.429.034-.036.45-.346.924-.678a130.83 130.83 0 0 0 2.528-1.798c11.868-8.672 23.153-17.923 34.52-27.218 7.732-6.058 15.904-12.354 22.4-18.58a107.277 107.277 0 0 1 6.972-6.357c.313-.37 3.565-3.592 4.429-4.19.813-.657.936-1.415.931-2.192.077-3.553.529-6.977.582-10.554.034-1.287.094-2.477.13-2.651.034-.171.087-.917.123-1.656.036-.739.108-1.407.154-1.479.045-.075.087-1.051.103-2.175.034-2.257.173-6.922.24-8.088.06-1.056.212-4.403.253-5.505.137-3.755.231-6.623.354-11.083.034-1.173.092-2.18.123-2.23.197-.32.318-17.937.149-21.449-.159-3.313-.168-6.719-.026-6.772.099-.036.089-.118-.012-.291-.077-.132-.115-.426-.089-.651.034-.304.171-7.679.173-9.39 0-.104-.003-1.604-.012-3.337-.024-3.664.12-13.359.2-13.438.029-.032.029-.098.005-.142zm-6.274-26.432c-.065.305-.202.666-.315.8-.346.416-.539.816-.763 1.597a9.648 9.648 0 0 1-.524 1.367c-.171.339-.438.979-.589 1.422-.152.44-.489 1.241-.751 1.785-.262.544-.698 1.653-.977 2.463-.666 1.936-2.083 5.049-2.495 5.502-.18.199-.421.632-.544.957-.12.327-.308.729-.414.893-.103.166-.195.354-.2.429a1.216 1.216 0 0 1-.091.322c-.099.217-.65 1.682-.919 2.437-.166.474-.166.558.014.939.111.233.229.786.265 1.214.034.431.116.948.176 1.152.058.204.204.809.322 1.352.118.544.284 1.289.375 1.655.092.366.137.801.096.962-.041.161-.022.356.046.441.067.084.19.545.272 1.022.082.474.224 1.032.31 1.235.178.415.626 3 .751 4.32.043.474.135.97.2 1.092.14.262.849 5.61 1.035 7.799.024.271.108.828.18 1.234.327 1.833.727 4.883.984 7.412.077.746.197 1.67.26 2.042.06.373.135.844.166 1.049.034.202.096 1.151.137 2.101.041.95.147 2.008.238 2.348.094.339.262 1.39.375 2.341.116.95.26 1.859.325 2.018.76 1.913.83 5.072.123 5.567-1.297.907-2.99.01-4.896-2.593a50.553 50.553 0 0 0-1.417-1.686c-.645-.746-1.424-1.699-1.727-2.122a21.82 21.82 0 0 0-.768-1.03c-.123-.14-.226-.289-.226-.334 0-.048-.113-.219-.253-.383l-.498-.582a5.007 5.007 0 0 1-.493-.763c-.135-.26-.356-.57-.491-.693-.132-.12-.233-.313-.233-.433 0-.118-.503-.727-1.111-1.352a72.113 72.113 0 0 1-1.939-2.074c-.462-.517-.998-1.1-1.183-1.294-.188-.195-.337-.395-.337-.445 0-.051-.368-.481-.816-.953a20.048 20.048 0 0 1-1.352-1.597c-.296-.406-.64-.842-.763-.974-.12-.135-.44-.559-.705-.931-.262-.375-.51-.709-.556-.746-.046-.034-.515-.65-1.042-1.364a90.575 90.575 0 0 0-1.104-1.474 8.484 8.484 0 0 1-.452-.679 4.995 4.995 0 0 0-.493-.679c-.18-.187-.637-.772-2.03-2.593-.337-.443-.669-.825-.724-.847-.055-.022-.096-.097-.096-.162 0-.068-.245-.435-.551-.823l-1.073-1.364-.524-.666-1.008 2.038c-.553 1.123-1.046 2.199-1.092 2.393-.077.33-.563 1.566-1.073 2.721a6.09 6.09 0 0 0-.305.867c-.043.195-.214.733-.387 1.209-.171.477-.52 1.485-.777 2.237-.287.852-.662 1.651-.974 2.103-.279.4-.505.814-.505.917 0 .25-.95 2.492-1.643 3.887a31.732 31.732 0 0 0-.893 1.972c-.187.474-.39.929-.452 1.008-.116.146-.344.724-.919 2.321-.481 1.343-1.051 2.719-1.157 2.788-.053.033-.216.392-.356.801a30.097 30.097 0 0 1-.633 1.662c-.214.508-.411 1.01-.433 1.111-.148.664-.736 2.053-1.209 2.963a.342.342 0 0 0-.143.177l-.1.266c-.128.216-.236.365-.306.411-.065.041-.154.291-.202.548l-.089.467.069-.036c-.734 1.916-1.505 3.816-2.451 5.64-.601 1.158-1.175 2.29-1.538 3.489-.115.299-.239.523-.29.523-.055 0-.103.07-.103.15 0 .192-1.593 3.478-1.727 3.563-.058.036-.197.315-.303.613-.106.301-.267.633-.356.739-.231.272-.998 1.718-1.183 2.23a16.553 16.553 0 0 1-.782 1.792c-1.203 2.351-2.026 4.124-2.271 4.915-.315 1.022-.594 1.197-1.908 1.162l-1.027-.031-.092-.369a28.95 28.95 0 0 1-.606-3.394c-.06-.577-.156-1.275-.221-1.546-.063-.272-.154-1.102-.2-1.85a60.356 60.356 0 0 0-.135-1.856c-.058-.522-.106-1.691-.241-5.995-.045-1.46-.106-2.747-.13-2.87-.038-.212-.204-3.132-.2-3.544.003-.104-.046-.385-.103-.621-.058-.238-.145-1.099-.188-1.915-.043-.816-.12-1.84-.18-2.283-.063-.442-.12-1.419-.123-2.165-.003-.748-.053-1.72-.118-2.16-.115-.816-.349-4.946-.426-7.528a43.055 43.055 0 0 0-.18-2.658 90.68 90.68 0 0 1-.26-3.214c-.137-2.129-.192-2.752-.298-3.329-.036-.204-.158-1.682-.264-3.279-.19-2.899-.258-3.363-.84-5.529-.32-1.186-.553-2.723-.655-4.359l-.05-.931.958-.977c.529-.539 1.236-1.342 1.571-1.785.688-.91 1.251-1.561 2.341-2.716a110.7 110.7 0 0 0 1.746-1.913 39.212 39.212 0 0 1 1.326-1.436l.334-.337-.342-.341c-.19-.195-.756-.693-1.249-1.099-.493-.41-2.083-1.906-3.529-3.333-1.448-1.426-3.484-3.433-4.527-4.455-2.096-2.05-2.73-2.738-4.352-4.662-.329-.39-.732-.741-.893-.782-.366-.091-.363-.122.026-.9.457-.909 5.807-6.236 7.636-7.597.27-.199 1.376-1.237 2.459-2.302l1.965-1.939-.072-.719a166.2 166.2 0 0 1-.264-3.633c-.104-1.597-.219-3.069-.258-3.271-.568-2.863-.666-3.488-.686-4.689a27.697 27.697 0 0 0-.123-2.167c-.055-.44-.151-1.523-.229-2.405-.074-.883-.353-2.769-.621-4.196-.433-2.331-.488-2.856-.548-5.206-.067-2.692-.224-4.858-.44-6.156-.796-4.778-.693-5.208 1.701-6.647 1.99-1.195 2.976-1.689 3.582-1.708a.871.871 0 0 1 .659.253c.154.141.356.26.455.26.464 0 1.913 1.898 3.582 4.694 1.581 2.644 3.597 5.574 4.59 6.666.279.305.597.719.7.911.101.195.474.775.832 1.295.361.52.784 1.201.938 1.506.154.306.323.575.368.609.104.075 1.864 2.452 2.478 3.344.238.347.606.859.828 1.143.219.284.406.654.406.815.003.161.142.459.318.674.508.613 1.403 2.095 1.403 2.321 0 .113.055.229.118.25.06.024.51.65 1.001 1.398.493.748 1.006 1.511 1.133 1.694.125.185.226.44.226.57 0 .127.139.416.31.647.168.231.428.676.575.981.147.306.375.715.517.919.142.205.274.405.291.434.063.103.796-.7 1.54-1.668 2.105-2.745 2.981-3.824 4.169-5.182.714-.813 1.602-1.901 1.973-2.411.37-.51.818-1.094.991-1.299.171-.207.481-.589.686-.854.202-.266.789-.964 1.299-1.546.51-.58 1.09-1.273 1.292-1.545 1.542-2.072 3.938-4.015 4.942-4.015.921 0 1.54 1.227 1.597 3.135.048 1.571.154 2.731.318 3.531.063.306.116.83.116 1.169.002.342.024.818.053 1.056.029.236.145 1.239.25 2.223.108.987.236 2.122.286 2.529.075.62.101 4.193.039 5.251-.043.736.019 5.776.077 6.084.07.383.657.464 1.525.214 1.458-.418 7.807-.416 9.637.007.303.07.94.178 1.414.238.476.06.883.168.907.241.024.072.099.128.161.128.248 0 1.326.815 1.39 1.049.094.357.061 1.158-.081 1.798zm-92.039-10.62c-3.397.002-8.844-.096-9.448-.173a18.585 18.585 0 0 0-2.251-.142c-.722-.002-1.357.038-1.726.128-.44.11-1.551.216-2.567.248-.986.029-2.458.118-3.271.193-.815.077-1.898.151-2.405.168-.511.017-1.011.067-1.114.103-.332.123-2.092.337-2.774.337-.784 0-.849.12-.808 1.636.04 1.458-.01 3.893-.111 5.276-.05.714-.067 2.388-.039 3.712.082 3.613.056 4.98-.077 5.458-.075.267-.069.508 0 .633.073.129.061.531-.026 1.094-.25 1.624-.274 2.161-.133 3.194.165 1.234-.15 1.054 2.114 1.143 2.189.089 3.253.159 4.998.325.679.063 2.096.178 3.15.253 1.051.073 2.225.198 2.597.27.376.072.95.125 1.287.118.337-.007 1.083.039 1.663.103.993.109 1.999.173 4.869.31.669.032 1.53.08 1.915.116.628.06 1.855.132 6.621.524.816.067 1.612.083 1.766.083h.284l-.07-1.59c-.036-.9-.053-3.291-.046-5.328.007-2.038-.014-3.892-.019-4.131-.06-3.392.284-6.82.468-10.154v-3.751l-1.004-.077c-.561-.042-2.282-.079-3.843-.079zm35.746-62.33c9.934.612 21.248-.736 31.383-.356l.479-.077.693-11.519c.118-5.567.219-10.953.012-16.561a51.85 51.85 0 0 1-.084-1.415l-2.353-.123a147.152 147.152 0 0 0-7.443-.176c-7.482-.002-15.051.433-22.446.536l-.491.077.019 3.022c.087 8.809-.177 17.946.231 26.592zm-65.306 16.742c-.043-.043-3.782-.157-3.782-.157l-57.677 1.715s-3.13.055-3.173.058c-.045.002-.007.284.084.628.231.882.294 1.744.376 5.122.038 1.628.094 3.156.123 3.395.067.58.164 7.063.238 16.236.033 4.145.086 8.702.123 10.128.037 1.427.096 6.233.13 10.682.067 8.976.088 9.431.517 16.549.026.441.067 1.55.104 2.463.035.917.091 1.838.123 2.043.096.656.162 1.671.245 4.14.047 1.324.106 2.74.138 3.149.029.407.077 1.355.108 2.101.032.747.086 1.741.118 2.217.031.479.092 1.901.127 3.156.039 1.258.095 3.121.131 4.141.039 1.017.092 2.569.118 3.452.024.883.081 2.466.122 3.517.075 1.937.113 3.551.25 9.26.043 1.732.116 3.236.148 3.337.034.103.082 2.358.111 5.006.046 4.114.13 6.325.486 12.9.026.51.104 1.795.173 2.846.071 1.054.154 2.887.188 4.075.037 1.189.091 2.519.123 2.961.09 1.208.3 5.553.299 6.118-.002.758.253 6.563.33 7.467.035.443.072 2.502.077 4.574.005 2.071.006 5.29.014 7.156.018 6.767.015 7.53.005 11.298-.014 5.365.008 5.937.149 5.937.108 0 3.267-1.933 5.057-3.091.339-.219 1.013-.65 1.487-.958a21.566 21.566 0 0 1 1.54-.904c.374-.189 1.202-.704 1.842-1.137.64-.433 1.502-.958 1.916-1.165.411-.209 1.234-.7 1.83-1.099a58.083 58.083 0 0 1 1.675-1.087c1.224-.733 2.82-1.761 3.175-2.05.453-.368 2.009-1.397 2.346-1.551.334-.154.68-.381.977-.64.135-.118.303-.215.375-.215.072-.003.364-.18.648-.399.284-.221.996-.705 1.579-1.068.582-.363 1.054-.702 1.054-.755 0-.053.221-.183.49-.291.272-.109.607-.318.751-.459.145-.145.527-.38.839-.518.316-.14.64-.322.732-.414.094-.093.25-.168.348-.168.099 0 .397-.143.666-.31.27-.172.531-.31.571-.31.039 0 .323-.176.64-.395.318-.218 1.059-.635 1.635-.919.578-.284 1.386-.76 1.805-1.065a12.295 12.295 0 0 1 1.532-.946c.427-.211 1.279-.731 1.895-1.15.618-.421 1.823-1.222 2.671-1.785.849-.563 1.632-1.083 1.733-1.152.322-.222 1.641-.977 2.219-1.268.306-.152.611-.33.678-.399.067-.073.334-.203.597-.292 1.022-.346 4.003-2.174 5.663-3.474.525-.409 1.754-1.28 2.723-1.939.97-.659 1.898-1.325 2.068-1.475 1.054-.917 1.646-1.376 1.947-1.533 1.721-.887 1.928-1.28 1.747-3.221a48.86 48.86 0 0 1-.177-3.07 38.092 38.092 0 0 0-.107-2.348c-.047-.443-.111-2.659-.15-4.934-.117-6.647-.204-9.96-.355-13.773-.231-5.844-.267-10.467-.2-26.054.007-1.768.005-5.548-.014-8.401-.017-2.853.004-5.719.053-6.363.197-2.646.231-3.43.283-7.036.153-10.134.188-11.738.265-12.597.045-.51.09-1.371.103-1.915.015-.541.034-1.02.045-1.054.013-.034.032-1.137.039-2.463.008-1.323.079-3.327.162-4.448.107-1.468.137-4.807.091-11.918-.085-13.246-.022-26.045.13-26.203.053-.056-.005-2.729-.091-4.061-.054-.75-.131-1.387-.174-1.43zM71.274 221.913c-.009-2.037-.04-3.895-.064-4.133s-.082-3.33-.13-6.86c-.111-8.367-.135-9.241-.284-10.857-.111-1.187-.295-4.364-.284-4.889.036-1.583.01-3.5-.06-3.608-.092-.149-.116-.544-.227-4.475-.069-2.499-.085-2.841-.314-5.937-.071-.951-.162-2.856-.203-4.249-.038-1.391-.091-3.175-.115-3.957a465.38 465.38 0 0 1-.116-4.751c-.035-1.836-.078-3.722-.11-4.199-.031-.476-.122-2.369-.196-4.203-.069-1.834-.192-4.864-.271-6.732a283.59 283.59 0 0 1-.173-7.289 311.903 311.903 0 0 0-.104-5.62c-.06-1.575-.159-5.78-.241-9.887-.017-.888-.075-1.672-.123-1.752-.531-7.201-.57-16.417-1.189-23.622-.003-4.402-.136-26.278-.168-27.529-.045-1.737-.193-5.73-.279-7.681-.034-.795-.111-1.619-.174-1.839-.062-.219-.115-1.323-.117-2.451l-.005-3.103a22.044 22.044 0 0 0-.195-2.909l-.058-.518-4.463-.137c-.399-.004-.387.103-.238.498.623 2.896.118 5.827.568 8.75.337 13.27 1.285 26.687 1.487 40.01.043 7.838.09 10.241.252 12.164.477 7.417-.04 9.435.537 16.852.056 1.018.114 2.75.124 3.847.011 1.098.072 2.314.136 2.704 1.396 18.065 1.678 42.317 2.464 60.515-.03 2.881.087 10.503.196 12.474.026.51.085 1.903.128 3.091.334 6.272-.032 12.529.784 18.753.072.358.113.337 1.454-.537 2.071-1.35 2.247-1.357 2.36-3.149.081-1.272-.156-3.039-.464-7.534-.06-.848-.115-3.213-.125-5.251zm97.227-124.93c-.118-.005-2.17-.024-4.547-.051-4.049-.044-5.23-.074-9.447-.241a347.18 347.18 0 0 0-9.938-.25c-1.904-.021-4.213-.074-5.129-.118-.52-.024-.903-.051-1.184-.046-.844.017-.781.311-.835 1.747l-.05 1.59.322-.064 1.321-.246a10.712 10.712 0 0 1 1.842-.161c.472.015 1.396-.055 2.042-.154 1.425-.221 6.564-.235 8.157-.019.577.077 2.963.166 5.309.193 5.247.06 10.246.168 11.367.253l.842.072.05-.85c.024-.462.05-1.02.065-1.241.019-.306-.021-.407-.187-.414z"/><path d="M234.673 103.296c-.116 1.546.214 9.719.39 9.661.051-.016.674-.026 1.388-.026 1.285 0 1.301-.009 1.244-.284a12.205 12.205 0 0 1-.125-.827c-.185-1.538-.318-4.105-.296-5.873a73.454 73.454 0 0 0-.123-4.386 380.227 380.227 0 0 1-.221-3.827 66.963 66.963 0 0 0-.303-3.517c-.13-1.155-.238-2.384-.238-2.723-.003-.496-.026-.746-.149-.77a.157.157 0 0 0-.053 0c-.13.031-.344.242-.671.616a47.59 47.59 0 0 1-.828.916c-.344.346-.452 2.526-.253 5.026.139 1.76.284 5.402.238 6.014zm-55.522 196.118c-.079-4.232-.168-6.676-.31-8.328-.058-.677-.089-1.271-.065-1.311.026-.044.003-.767-.058-1.612-.06-.845-.145-2.479-.188-3.633a173.324 173.324 0 0 0-.13-2.95c-.077-1.338-.074-5.499.007-9.402.079-3.774.173-10.428.168-12.101-.005-1.914-.082-7.292-.111-7.597-.015-.17.005-.727.045-1.234.041-.51.104-2.429.142-4.263.041-1.833.13-3.675.195-4.087.063-.411.113-1.658.116-2.774.002-1.117.005-2.11.007-2.211.003-.101-.026-1.629-.072-3.395a545.377 545.377 0 0 1-.077-3.337 52.903 52.903 0 0 0-.046-2.846c-.089-1.622-.183-9.043-.173-13.891.005-2.82-.007-5.785-.027-6.601-.063-2.649-.05-4.052.046-5.75.132-2.368.255-6.291.231-7.528-.01-.577-.045-3.05-.077-5.497a616.374 616.374 0 0 0-.07-4.701c-.007-.134-.01-.964 0-1.848.029-3.151-.176-11.097-.291-11.292-.113-.185-.298-9.621-.214-10.877.026-.372.038-1.869.026-3.329-.012-1.46.012-3.635.05-4.826.039-1.189.087-3.515.103-5.179.019-1.662.067-3.079.111-3.149.043-.068.034-.363-.019-.652-.053-.289-.05-.524 0-.524s.034-.267-.026-.588a6.166 6.166 0 0 1-.084-1.14c.015-.306-.041-2.309-.123-4.448-.154-4.039-.082-9.993.149-12.589.13-1.456.25-5.697.219-7.6-.072-4.578-.045-17.547.039-18.546.053-.621.103-1.646.118-2.283.041-1.913.205-6.298.258-6.958.029-.339.082-1.013.13-1.486.116-1.143.075-8.468-.05-9.145-.055-.291-.116-.962-.13-1.494-.015-.531-.053-1.142-.084-1.344-.142-.905-.305-9.489-.245-13.037.036-2.149.034-4.196-.007-4.547l-.077-.64-2.237.065c-.95.029-1.901.068-2.853.07l-.024 4.972c-.014 2.735-.053 10.667-.084 17.629-.034 6.962-.106 14.213-.156 16.114-.05 1.903-.092 7.768-.096 13.032-.012 9.577-.132 12.724-.544 13.85-.058.159-.113 2.155-.123 4.432-.019 3.998-.05 4.79-.2 6.11-.07.602-.291 4.569-.286 5.064.002.135-.039 1.583-.089 3.214-.05 1.628-.089 3.014-.092 3.084-.003.067.024.739.065 1.487.243 11.261-.075 22.318-.46 33.341.029 2.175.077 5.362.111 7.095.091 4.86.079 10.337-.026 13.243-.123 3.397-.123 10.378 0 13.309.147 3.477.231 4.992.279 5.069.024.038.055.82.07 1.734.014.912.072 2.028.13 2.471.058.44.135 1.19.161 1.679.027.491.07.936.103.992.034.053.103 1.208.149 2.567.045 1.356.123 3.086.176 3.834.12 1.725.055 6.674-.099 7.36-.063.286-.116 1.14-.108 1.893.012 1.65-.091 3.139-.414 5.937-.255 2.197-.263 2.895-.176 10.371.048 4.203.2 7.645.433 9.513.067.548.123 1.527.123 2.175 0 .645.055 1.477.123 1.848.07.372.156 1.927.188 3.454.031 1.526.089 2.964.13 3.2.041.238.096 1.357.116 2.478.074 3.921.187 6.969.298 7.896a63.59 63.59 0 0 1 .337 8.141c-.063 3.934-.096 7.425.219 11.336.147 1.008-.253 4.037.977 2.808.955-.903 2.933-2.363 4.314-3.183.565-.354.724-.494.517-1.112-.226-1.269-.279-1.823-.358-6.002z"/></svg>