<svg xmlns="http://www.w3.org/2000/svg" viewBox="0 0 320 320"><path d="M203.976 10c-2.199 12.47-.193 28.928-8.128 36.864-7.935 7.935-21.706 4.619-35.849 7.112 2.199-12.47.193-28.928 8.128-36.864 7.936-7.935 21.707-4.619 35.849-7.112zm37.232 216.002c0 47.102-35.67 83.998-81.208 83.998s-81.208-36.896-81.208-83.998c0-18.424 6.915-33.117 14.924-50.13 8.451-17.957 18.968-40.304 26.463-77.193 3.889-19.142 20.264-32.511 39.821-32.511s35.932 13.369 39.821 32.511c7.495 36.889 18.014 59.236 26.465 77.193 8.007 17.013 14.922 31.706 14.922 50.13zm-20.319 0c0-30.145-26.187-50.464-40.98-123.277-1.657-8.155-8.852-16.238-19.909-16.238s-18.252 8.083-19.909 16.238c-14.793 72.813-40.98 93.133-40.98 123.277 0 36.909 27.223 63.678 60.889 63.678s60.889-26.769 60.889-63.678z"/></svg>