<svg xmlns="http://www.w3.org/2000/svg" viewBox="0 0 320 320"><path d="M136.657 248.528c.794.794 1.343 1.732 1.343 2.91v42.168c0 1.18-.55 2.28-1.343 3.073S134.742 298 133.56 298h-10.649c-2.041 0-3.966-.548-5.75-1.321-1.796-.781-3.371-1.984-4.692-3.305a15.21 15.21 0 0 1-3.199-4.696c-.774-1.784-1.271-3.681-1.271-5.722V247h8v35.957c0 1.805.821 3.615 2.083 4.878 1.262 1.261 3.023 2.166 4.828 2.166H130v-38.562c0-1.178.127-2.117.92-2.91.802-.802 1.462-1.157 2.64-1.157 1.182-.002 2.303.362 3.097 1.156zm-45.066-22.424c-1.097 0-1.802.384-2.639 1.191-.835.804-.952 1.633-.952 2.811V298h8v-67.894c0-1.18-.525-2.042-1.328-2.844-.794-.794-1.9-1.158-3.081-1.158zM74.75 256.333c.773 1.78 1.25 3.746 1.25 5.788v21.266c0 2.04-.478 3.938-1.253 5.722-.78 1.796-1.917 3.342-3.238 4.663-1.321 1.321-2.872 2.361-4.67 3.142-1.784.773-3.693 1.157-5.735 1.157-2.041 0-3.997-.385-5.78-1.157-1.796-.781-3.394-1.821-4.715-3.142-1.315-1.315-2.428-2.859-3.212-4.663-.778-1.792-1.397-3.692-1.397-5.722v-21.266c0-2.032.621-3.998 1.397-5.788.784-1.807 2.001-3.349 3.315-4.663 1.316-1.315 2.858-2.325 4.663-3.109a14.349 14.349 0 0 1 5.755-1.191c2.03 0 3.927.411 5.722 1.191 1.807.783 3.349 1.792 4.663 3.109 1.321 1.32 2.455 2.864 3.235 4.663zM68 262.121c0-1.809-.74-3.435-2.002-4.696-1.261-1.261-2.939-1.918-4.747-1.918-1.806 0-3.313.657-4.575 1.918S55 260.313 55 262.121v21.266c0 1.805.45 3.4 1.712 4.663 1.262 1.261 2.686 1.951 4.49 1.951a6.62 6.62 0 0 0 4.735-1.951C67.2 286.787 68 285.191 68 283.386v-21.265zm-32.732 15.015c-1.047-1.825-2.431-3.168-4.2-4.46L21.179 266h-.033c-1.353-1-2.146-2.898-2.146-4.574v-.066c0-1.759 0-3.245 2-4.366v-.066c1-1.149 2.756-1.629 4.356-1.323.016 0-.052-.002-.038 0 1.673.25 3.033 1.211 3.9 2.712.552.978 1.255 1.672 2.363 1.949 1.123.281 2.074-.267 3.058-.267h.033c1.044-1 1.613-1.488 1.885-2.578.281-1.125.19-2.124-.364-3.108-1.08-1.825-2.475-3.315-4.167-4.464a13.91 13.91 0 0 0-5.589-2.232c-.536-.087-1.019-.182-1.521-.207a13.56 13.56 0 0 0-1.158-.004c-1.135.039-2.21.219-3.307.56a14.535 14.535 0 0 0-5.292 2.942 13.5 13.5 0 0 0-3.473 4.994 13.512 13.512 0 0 0-.959 6.019 13.405 13.405 0 0 0 1.72 5.821c1.013 1.79 2.307 3.276 4.002 4.498l10.054 6.912c1.461.974 2.308 2.557 2.464 4.498.159 1.887-.968 3.531-1.968 4.729v.033c-1 1.22-3.103 1.79-4.845 1.488-.015-.002-.026 0-.042 0-1.864-.246-3.329-1.352-4.204-2.977-.01-.021-.058-.015-.068-.033-.457-.81-.739-1.24-.96-1.587l-6.88 3.77c.18.453.407 1.112.86 1.918 1.087 1.904 2.452 3.452 4.167 4.63 1.719 1.178 3.651 1.941 5.821 2.282 2.175.337 4.262.209 6.284-.397 2.019-.606 3.798-1.652 5.358-3.076 1.626-1.49 2.795-3.167 3.572-5.126.777-1.96 1.096-4.049.959-6.218-.135-2.166-.709-4.133-1.753-5.95zM170.404 73H228v134h23V73h41.013c6.136 0 11.112-4.847 11.112-10.983S298.148 51 292.013 51H187.932c-5.893 7-11.733 15-17.528 22zm-62.078 43.17l-.595-.695-19.282-22.06-9.26 12.865 25.301 29.567c.85.994 2.783 2.352 5.49 2.183 1.567-.098 3.069-1.13 4.266-2.315s1.975-2.461 2.394-3.01C141.559 99.99 166 68.29 191 36.828v-.033c2-2.208 3.126-4.625 3.196-6.879.07-2.254-.793-4.38-2.851-6.152-1.542-1.327-3.036-1.851-4.551-1.852-.504-.001-1.016.018-1.515.132-1.993.46-3.942 1.84-5.553 3.836l-70.873 89.595-.527.695zm122.459 140.163a14.538 14.538 0 0 1 1.215 5.788v21.266c0 2.04-.443 3.938-1.218 5.722-.78 1.796-1.948 3.342-3.269 4.663-1.321 1.321-2.873 2.361-4.67 3.142-1.784.773-3.694 1.157-5.736 1.157-2.041 0-3.966-.385-5.75-1.157-1.796-.781-3.399-1.821-4.72-3.142-1.315-1.315-2.437-2.859-3.222-4.663-.778-1.792-1.416-3.692-1.416-5.722v-21.266c0-2.032.64-3.998 1.416-5.788.784-1.807 2.02-3.349 3.334-4.663 1.316-1.315 2.858-2.325 4.663-3.109a14.192 14.192 0 0 1 5.722-1.191c2.03 0 3.927.411 5.722 1.191 1.807.783 3.349 1.792 4.663 3.109 1.322 1.32 2.486 2.864 3.266 4.663zM224 262.121c0-1.809-.754-3.435-2.016-4.696-1.261-1.261-2.921-1.918-4.728-1.918-1.806 0-3.282.657-4.544 1.918S211 260.312 211 262.121v21.266c0 1.805.481 3.4 1.743 4.663 1.262 1.261 2.651 1.951 4.455 1.951a6.6 6.6 0 0 0 4.726-1.951c1.262-1.263 2.076-2.859 2.076-4.663v-21.266zm-37.457-31.783c-1.46 0-2.588.471-3.605 1.488-1.01 1.009-1.488 2.21-1.488 3.671 0 1.459.471 2.588 1.488 3.605s2.145 1.455 3.605 1.455c1.458 0 2.627-.446 3.638-1.455 1.018-1.017 1.488-2.146 1.488-3.605 0-1.461-.478-2.662-1.488-3.671-1.011-1.011-2.18-1.488-3.638-1.488zm123.428 52.751c-.134-2.168-.71-4.136-1.753-5.953-1.048-1.825-2.464-3.168-4.233-4.46L294.096 266h-.033c-1.353-1-2.063-2.898-2.063-4.574v-.066c0-1.759 0-3.245 2-4.366v-.066c1-1.149 2.715-1.629 4.315-1.323.015 0-.073-.002-.059 0 1.673.25 3.023 1.211 3.89 2.712.551.978 1.282 1.672 2.391 1.949 1.123.281 2.036-.267 3.02-.267h.033c1.044-1 1.645-1.488 1.918-2.578.281-1.125.19-2.124-.364-3.108-1.081-1.825-2.476-3.315-4.167-4.464a13.916 13.916 0 0 0-5.589-2.232c-.536-.087-1.053-.182-1.554-.207a12.776 12.776 0 0 0-1.124-.004 12.628 12.628 0 0 0-3.34.56 14.387 14.387 0 0 0-5.258 2.942 13.488 13.488 0 0 0-3.473 4.994c-.777 1.924-1.129 3.925-.992 6.019a13.405 13.405 0 0 0 1.72 5.821 13.888 13.888 0 0 0 4.035 4.498l10.021 6.912c1.461.974 2.349 2.557 2.505 4.498.158 1.887-.926 3.531-1.926 4.729v.033c-2 1.22-3.111 1.79-4.854 1.488-.015-.002-.081 0-.095 0-1.865-.246-3.339-1.352-4.215-2.977-.01-.021-.03-.015-.04-.033-.457-.81-.775-1.24-.996-1.587l-6.881 3.77c.18.453.439 1.112.892 1.918 1.087 1.904 2.418 3.452 4.134 4.63 1.718 1.178 3.65 1.941 5.821 2.282 2.173.337 4.294.209 6.317-.397 2.02-.606 3.798-1.652 5.358-3.076a13.591 13.591 0 0 0 3.539-5.126 14.326 14.326 0 0 0 .989-6.215zm-41.01-30.956c-1.321-1.321-2.867-2.279-4.663-3.059-1.784-.775-3.715-1.074-5.755-1.074h-10.616c-1.18 0-2.046.28-2.84 1.074-.802.802-1.087 1.583-1.087 2.761V298h8v-42h6.543c1.806 0 3.356.64 4.618 1.903 1.262 1.261 1.839 2.808 1.839 4.615v31.552c0 1.18.433 2.04 1.236 2.844.794.794 1.772 1.157 2.95 1.157 1.1 0 1.887-.376 2.734-1.191.835-.804 1.08-1.635 1.08-2.811v-31.552c0-2.042-.253-3.938-1.027-5.722-.781-1.798-1.691-3.342-3.012-4.662zM169.445 248H163v-17.894c0-1.18-.44-2.042-1.243-2.844-.794-.794-1.772-1.158-2.953-1.158-1.178 0-1.96.356-2.762 1.158-.802.802-1.042 1.664-1.042 2.844V248h-9v8h9v42h8v-42h6.445c1.18 0 2.042-.404 2.844-1.206.794-.794 1.158-1.754 1.158-2.935 0-1.178-.355-1.971-1.158-2.773-.802-.804-1.663-1.086-2.844-1.086zM149.601 99.898a44.692 44.692 0 0 1 2.58 14.982c0 24.624-19.76 44.318-44.384 44.318-24.623 0-44.384-19.694-44.384-44.318a44.242 44.242 0 0 1 44.384-44.384c8.629 0 16.656 2.404 23.449 6.615l13.725-17.363a66.482 66.482 0 0 0-37.317-11.443C71.036 48.304 41 78.262 41 114.88V207h22v-42.61l1.43 1.058a66.49 66.49 0 0 0 43.247 15.941c36.618 0 66.569-29.892 66.569-66.51 0-12.604-3.52-24.421-9.66-34.495-5.018 6.466-9.983 12.99-14.985 19.514zm36.942 147.472c-1.18 0-1.828.353-2.631 1.157-.794.794-.912 1.732-.912 2.91V298h8v-46.562c0-1.178-.558-2.117-1.352-2.91s-1.927-1.158-3.105-1.158z"/></svg>