<svg width="539" height="521" viewBox="0 0 539 521" xmlns="http://www.w3.org/2000/svg"><title>galaxy-logo</title><path d="M459.952 409.952l-.128-35.557a5.03 5.03 0 0 1-.893.096l-64.152 1.172a5 5 0 0 1-5.091-4.999v-37.407c-13.04 3.922-27.095 7.258-42.243 9.98l5.153 70.608 106.053-4.013c.447-.017.884.025 1.3.12zm.035 9.744a5.025 5.025 0 0 1-.958.129l-265.655 10.054 3.852 67.222a5 5 0 0 1-4.172 5.218l-49.918 8.297a5 5 0 0 1-1.183.054L52.54 504.16a5 5 0 0 1-4.583-4.254l-5.437-36.66a5 5 0 0 1 4.779-5.73l89.609-2.996-1.846-28.115-103.742.947a5 5 0 0 1-5.037-4.7l-7.996-133.477a5 5 0 0 1 4.765-5.294l37.663-1.707a176.795 176.795 0 0 1-2.993-6.596C35.234 223.191 41.4 168.41 78.353 133.48c-8.595-3.633-14.602-8.921-17.783-15.645-8.43-17.817 4.879-41.928 29.247-58.072 59.503-39.424 148.517-43.099 234.877-9.727-2.622-9.124-.36-17.409 6.802-23.35 9.48-7.862 26.207-10.135 45.82-6.328 28.752 5.582 65.921 37.856 85.07 76.542 14.915 30.133 18.611 61.603 9.4 92.162 13.03.388 25.216 9.824 32.034 24.082 8.247 17.245 6.803 37.35-5.678 52.147-1 1.185-2.005 2.355-3.018 3.51h24.427a5 5 0 0 1 4.998 5.122l-5 205.805a5 5 0 0 1-3.482 4.643l-44.801 14.254a5 5 0 0 1-1.728.23l-119.57-5.081a5 5 0 0 1-4.788-4.996v-35.336a5 5 0 0 1 4.87-4.998l110.03-2.872-.093-25.875zM485.79 278.8c-12.228 12.271-25.884 22.801-42.69 32.21h21.513a5 5 0 0 1 5 4.983l.485 134.43a5 5 0 0 1-4.87 5.016l-110.048 2.873v25.672l113.898 4.841 40.56-12.905 4.79-197.12H485.79zm-62.74 42.21c-7.372 3.263-15.153 6.284-23.363 9.056v35.505l59.062-1.079a5.02 5.02 0 0 1 1.04.089l-.158-43.57H423.05zm-127.98 28.814v32.73a5 5 0 0 1-4.684 4.99l-48.92 3.091a5 5 0 0 1-5.313-4.83l-1.364-42.972a240.94 240.94 0 0 1-20.119-6.575c.417 15.984-8.933 25.515-25.021 28.607l3.153 55.027 149.797-5.67-5.059-69.318c-13.333 2.098-27.474 3.744-42.47 4.92zm-10 .53c-11.848.117-25.73-1.602-40.195-4.947l1.11 34.923 39.085-2.47v-27.506zm-42.426-15.775c17.804 4.517 34.849 6.507 48.064 5.546 17.311-1.259 33.45-3.14 48.492-5.615a4.977 4.977 0 0 1 2.529-.908 4.99 4.99 0 0 1 1.753.182c33.753-5.888 61.862-14.831 85.219-26.474 26.496-13.207 45.02-28.578 61.797-48.468 9.795-11.612 10.936-27.51 4.3-41.386-5.954-12.451-16.545-19.707-26.583-18.197-5.93 14.842-14.995 29.406-27.395 43.427-22.42 25.351-63.96 41.202-112.004 44.704-46.835 3.414-94.008-5.42-126.215-24.603-24.98-14.88-33.839-39.994-24.944-62.785 6.868-17.598 22.731-29.552 42.16-31.563-14.794-6.438-31.187-4.96-43.761 4.124-17.502 12.643-23.609 36.732-13.25 65.895a5 5 0 0 1-9.424 3.347c-11.777-33.16-4.475-61.967 16.818-77.348 19.499-14.086 46.315-13.3 66.922 2.756 4.404-9.63 2.334-17.626-5.229-23.74-8.603-6.954-23.402-10.529-39.235-9.202-17.337 1.452-33.859 8.472-46.022 20.381-14.093 13.8-21.964 33.553-21.964 59.023 0 43.32 24.173 77.081 65.45 100.26a193.572 193.572 0 0 0 15.125 7.619 5 5 0 0 1 7.611 2.885l.109.418a230.406 230.406 0 0 0 26.056 8.772 4.979 4.979 0 0 1 3.62.95zM65.779 291.954l-37.207 1.686 7.408 123.668 98.425-.898-1.838-28.011-60.111-1.847a5 5 0 0 1-4.843-4.808l-2-52.813a5 5 0 0 1 5.074-5.188l18.325.283c-8.793-9.466-16.633-20.255-23.233-32.072zm78.756 126.104a4.98 4.98 0 0 1 1.238 3.248 4.977 4.977 0 0 1-.84 2.82l2.29 34.89a5 5 0 0 1-4.822 5.325l-89.168 2.98 4.028 27.155 84.824 6.177 44.9-7.462-7.291-127.257c-.907.031-1.829.046-2.764.046-12.376 0-24.566-2.313-36.247-6.608l1.43 21.78c.415.757.64 1.631.611 2.556a4.992 4.992 0 0 1-.335 1.656l2.146 32.694zm-45.751-84.41a4.98 4.98 0 0 1-2.252.496l-20.727-.32L77.43 376.7l54.48 1.674-1.39-21.18a4.984 4.984 0 0 1 .27-1.986c-11.38-5.408-22.156-12.706-32.005-21.56zm136.058-147.012c-4.322 7.078-3.33 15.147 3.371 22.27 11.336 12.052 36.312 19.656 72.682 19.656 115.272 0 132.27-114.246 24.445-163.284a4.993 4.993 0 0 1-3.246-1.44c-.818-.354-1.642-.704-2.474-1.05-86.186-35.903-175.775-33.452-234.28 5.31-20.735 13.737-31.506 33.252-25.73 45.46 2.533 5.356 8.242 9.661 17.455 12.436 33.679-26.923 72.27-40.557 114-43.039 33.141-1.971 66.177 3.163 96.93 12.907 17.59 5.574 29.31 15.743 34.069 28.824 4.394 12.079 2.392 25.67-5.118 37.443-7.516 11.784-19.91 20.798-34.866 24.903-14.005 3.844-29.61 3.287-45.787-2.02 18.59 21.039 53.704 24.182 85.633 9.528 16.07-7.375 28.725-18.425 35.134-30.966 6.898-13.5 6.412-28.16-2.48-43.08a5 5 0 0 1 8.59-5.12c10.652 17.873 11.26 36.184 2.794 52.75-7.515 14.707-21.88 27.25-39.867 35.504-17.661 8.106-37.57 11.488-55.54 9.154-19.214-2.496-35.26-11.31-45.715-26.146zm-11.556 1.585c-8.308 8.036-12.1 15.772-11.804 22.916.377 9.096 7.55 18.049 20.645 25.588 27.64 15.914 74.13 21.624 111.681 12.6a5 5 0 1 1 2.337 9.724c-39.97 9.604-89.082 3.572-119.008-13.657-30.39-17.499-34.801-42.865-8.121-66.779-14.9 2.156-26.77 11.515-32.043 25.026-7.105 18.203-.064 38.162 20.746 50.557 64.232 38.26 183.42 29.572 225.61-18.133 37.77-42.707 42.234-90 20.095-134.728-17.854-36.07-52.582-66.224-78.014-71.161-16.954-3.291-30.748-1.416-37.53 4.209-5.649 4.684-5.908 11.93.609 21.345 54.82 24.597 83.926 67.46 78.387 109.549-5.698 43.294-46.433 73.286-105.981 73.286-38.864 0-66.403-8.385-79.966-22.805-7.932-8.433-10.335-18.38-7.643-27.537zm23.306-13.685c15.378 5.603 29.981 6.382 42.84 2.852 12.59-3.455 22.913-10.962 29.083-20.636 5.905-9.257 7.432-19.628 4.151-28.648-3.628-9.974-12.905-18.023-27.692-22.709-29.665-9.4-61.514-14.349-93.315-12.458-41.27 2.455-79.156 16.3-112 43.858-37.523 31.484-44.586 83.966-22.749 134.838 21.317 49.662 64.706 84.347 110.02 84.347 20.293 0 29.902-7.157 27.329-23.929-6.553-2.837-12.944-5.975-19.034-9.395-44.18-24.81-70.553-61.644-70.553-108.98 0-28.094 8.903-50.438 24.968-66.168 13.9-13.61 32.616-21.562 52.183-23.201 35.494-2.974 62.6 14.859 56.844 39.947 20.83-2.541 32.81-10.067 33.138-18.163.371-9.2-13.762-19.841-39.872-25.876a5 5 0 0 1 2.252-9.743c30.246 6.99 48.237 20.536 47.612 36.022-.602 14.908-18.068 25.45-45.205 28.042zm210.712 78.815a5 5 0 0 1 6.837 7.298c-26.859 25.165-64.121 43.102-105.688 52.189-38.822 8.487-79.087 8.634-111.663.51a5 5 0 0 1 2.42-9.703c31.018 7.735 69.733 7.594 107.107-.576 39.908-8.724 75.543-25.878 100.987-49.718zm-308.682 65.7a5 5 0 0 1-4.348 9.005C90.214 301.955 61.43 196.433 99.39 161.935a5 5 0 1 1 6.725 7.4c-32.194 29.258-5.682 126.45 42.507 149.716zm228.92-255.179a5 5 0 1 1 4.767-8.791c26.804 14.53 44.79 35.444 54 60.33 7.795 21.063 8.818 44.11 3.86 64.064a5 5 0 1 1-9.705-2.411c4.482-18.042 3.55-39.04-3.534-58.183-8.373-22.624-24.727-41.64-49.387-55.009zM265.165 58.3a5 5 0 1 1-1.601 9.87c-29.789-4.83-52.536-6.332-73.907-4.261-24.338 2.358-46.7 9.507-69.195 22.63a5 5 0 1 1-5.039-8.638c23.751-13.855 47.504-21.449 73.27-23.946 22.362-2.167 45.908-.612 76.472 4.345z" fill="#000" fill-rule="nonzero"/></svg>