<svg xmlns="http://www.w3.org/2000/svg" viewBox="0 0 160 160"><title>portraits</title><path d="M127.732 125.472a22.545 22.545 0 0 0-2.224-2.815c-.872-.937-2.273.469-1.403 1.403a19.288 19.288 0 0 1 1.913 2.413c.707 1.056 2.427.064 1.714-1.001zm5.559-10.236a13.167 13.167 0 0 0-1.6-2.905 1.023 1.023 0 0 0-1.357-.356 1 1 0 0 0-.356 1.358 11.255 11.255 0 0 1 1.4 2.43 1.024 1.024 0 0 0 1.22.693.999.999 0 0 0 .693-1.22zm7.674-9.668c-.265-1.249-2.179-.72-1.914.527a21.815 21.815 0 0 1 .459 5.238c-.04 1.278 1.945 1.277 1.984 0a24.097 24.097 0 0 0-.53-5.765z"/><path d="M149.403 78.64a.982.982 0 0 0-.096-.143 14.794 14.794 0 0 0 .245-2.933c-.057-2.495-.646-4.95-.93-7.425 2.334-12.948-2.443-23.465-9.342-34.65a1.003 1.003 0 0 0-.26-.278c-5.14-16.822-22.142-26.896-39.359-22.28a70.175 70.175 0 0 0-10.958.4A19.605 19.605 0 0 0 76.89 9.284c-4.153.454-9.637 1.197-13.16 3.645a18.889 18.889 0 0 0-5.25 6.534c-.191.18-.384.36-.573.54-3.06 2.935-7.629 6.524-8.929 10.768a1.01 1.01 0 0 0-.475.207c-6.099 4.917-12.175 10.417-15.313 17.77-3.514 8.234-6.116 16.767-5.58 25.735a.945.945 0 0 0 .508.8 57.393 57.393 0 0 0 .852 6.915c-.743 1.753-2.025 3.275-2.848 5.328a18.04 18.04 0 0 0-.206 12.484c-4.435 5.442-9.637 12.507-6.93 19.607a11.495 11.495 0 0 0-4.098 2.42c-1.39 1.438-.98 3.064-1.927 4.418-.793 1.134-2.473 1.598-3.588 2.618a10.854 10.854 0 0 0-3.183 5.578c-.196.758.73 1.674 1.457 1.12a23.897 23.897 0 0 1 7.458-3.874 1.103 1.103 0 0 0 1.31-1.21c-.613-4.428 6.435-4.384 9.078-5.638 1.955-.928 5.025-2.466 6.384-4.308 1.156-1.567.17-3.22 1.199-4.719.564-.824 3.183-1.583 4.04-2.212a18.453 18.453 0 0 0 2.93-2.756l.014.028a.81.81 0 0 0-.195.899c2.223 6.31 4.607 13.6 8.556 19.068 3.263 4.52 8.923 6.696 13.958 8.924 1.214 1.774-.003 3.405.599 5.228.192.581.92 1.177 1.213 1.637a4.72 4.72 0 0 1 .444 4.022.497.497 0 0 0 .957.264c.617-2.095.07-3.504-.937-5.311-1.018-1.827-.318-3.633-.931-5.385a14.685 14.685 0 0 0 3.208.625 81.163 81.163 0 0 0 23.824-6.699c1.324-.61 2.702-1.248 4.02-1.984.098.4.217.801.348 1.202a19.12 19.12 0 0 1-6.725 4c-.6.207-.342 1.166.264.958a20.351 20.351 0 0 0 6.817-3.97 19.513 19.513 0 0 0 1.207 2.48 53.107 53.107 0 0 1-9.375 8.223c-.508.375-.014 1.236.5.856a55.195 55.195 0 0 0 9.415-8.189c.157.246.334.483.502.724a1.18 1.18 0 0 1 .198.045c.722.27 1.434.56 2.164.803.09-.074.186-.143.27-.223a1.612 1.612 0 0 1 2.477.322l.007.008a1.592 1.592 0 0 1-.125 2.112c-.31.242-.618.482-.928.716-.119.108-.237.218-.359.325.022.018.043.04.065.059a3.547 3.547 0 0 0-1.36 1.48c-.474 1.138.39 2.604-.64 3.569-.911.853-2.47.418-3.192 1.535-.567.879-.093 1.994-.54 2.93-.275.573.58 1.077.856.5.366-.764.127-1.42.363-2.165.482-1.52 2.366-1.315 3.391-2.184a1.85 1.85 0 0 0 .74-1.23 6.165 6.165 0 0 0-.055-.938c.03-1.565.288-2.172 1.264-2.85l.023.017a5.737 5.737 0 0 1 1.506-1.457 1.596 1.596 0 0 1 2.079.422 1.423 1.423 0 0 1 .958.813 1.79 1.79 0 0 1 .663.592 1.497 1.497 0 0 1-.056 1.65 1.631 1.631 0 0 1-.27.593l.023.007a12.554 12.554 0 0 0-1.422 1.504 6.651 6.651 0 0 0-1.255 4.392.496.496 0 0 0 .992 0 5.688 5.688 0 0 1 1.364-4.165 13.9 13.9 0 0 1 1.497-1.438c.016.003.031.003.047.005a1.485 1.485 0 0 1 1.097-1.204c1.737-.512 3.676.258 5.47.207.246-.007.486.009.73.012.446-.122.899-.243 1.369-.355 3.767-.897 7.625-.942 11.4-1.718.012-.017.029-.032.041-.049a12.2 12.2 0 0 0 4.75-1.582 27.963 27.963 0 0 0 3.66-1.762c1.644-.938 2.253-2.585 2.928-4.234a3.202 3.202 0 0 1 1.844 1.763 3.041 3.041 0 0 0 .52.771l-.025.059c.048.02.096.036.144.055a1.326 1.326 0 0 0 1.068.34 2.421 2.421 0 0 0 2.115-.281c1.744-1.397.306-6.047.343-7.83.096-4.709 3.544-9.06 4.164-13.867a25.751 25.751 0 0 0-1.264-11.555c2.935-8.639 4.222-17.638.574-26.532zM25.83 122.624a15.507 15.507 0 0 1-4.716 1.513 23.695 23.695 0 0 1 2.05-1.768 4.307 4.307 0 0 1 4.039-.575c-.402.276-.847.541-1.373.83zm.44-12.256c-.373.554-.795 1.06-1.15 1.63a15.63 15.63 0 0 0-.993 1.895c-.017-3 .495-6.328 2.3-7.284 2.243-1.188.584 2.659-.157 3.76zm4.65-.423a15.165 15.165 0 0 0-1.31 3.18 2.212 2.212 0 0 1-.509-2.502 9.446 9.446 0 0 1 2.029-3.596c.544.197 1.152.532 1.165.886.014.361-1.177 1.675-1.376 2.032zm1.98-14.63a12.308 12.308 0 0 1-.469 3.164 14.65 14.65 0 0 1-.852-4.31 13.345 13.345 0 0 1 .107-2.24 7.34 7.34 0 0 1 .238-1.378q.783-1.652 1.014-.395c.968 1.003.111 4.016-.037 5.16zm5.058-32.962a19.322 19.322 0 0 0-1.946 7.177 8.307 8.307 0 0 1-.706-4.28c.066-.948.032-3.293 1.236-3.658a14.498 14.498 0 0 1 1.54.471q.633-.921-.124.29zm97.513 23.207c1.265 2.032 3.172 3.574 4.338 5.717a14.542 14.542 0 0 1 1.75 6.875 18.192 18.192 0 0 0-5.267-7.384 31.138 31.138 0 0 0-3.32-2.375 14.41 14.41 0 0 1 2.5-2.833zm-.724-1.943c-.199.164-.406.325-.595.494-2.072-3.2-7.333-13.361-11.117-7.186-2.392 3.903-3.257 9.875-4.647 14.227-1.712 5.355-3.841 10.717-4.616 16.304-.938.25-1.852.5-2.725.735a2.128 2.128 0 0 0-1.988-.849c-.675.027-1.354.082-2.033.152.784-7.89 4.937-16.407 7.558-23.737 1.804-5.046 4.255-11.957 10.905-9.645a15.177 15.177 0 0 1 9.258 9.505zm-18.525 21.266c.076-.374.17-.748.256-1.122a20.013 20.013 0 0 1 5.796 1.873 45.26 45.26 0 0 0-3.266.554 7.133 7.133 0 0 0-2.786-1.305zm1.464 1.592c-.618.141-1.233.288-1.84.441.055-.357.134-.713.198-1.069a5.923 5.923 0 0 1 1.642.628zm-.988-3.68c.145-.583.302-1.166.464-1.748 2.511.45 4.81 1.758 7.106 2.825l3.387 1.574a22.747 22.747 0 0 0-3.644.004 20.729 20.729 0 0 0-7.313-2.655zm6.207-4.29a9.001 9.001 0 0 0-.318 1.22c-1.328-.852-2.838-2.004-4.424-1.954.185-.575.379-1.147.57-1.72a17.621 17.621 0 0 0 4.172 2.453zm-3.843-3.447c.151-.447.305-.888.459-1.333.645.507 1.29 1.014 1.948 1.507a6.678 6.678 0 0 0 2.284 1.37 11.85 11.85 0 0 0-.494.985 16.17 16.17 0 0 1-4.197-2.53zm1.445 4.592l1.966 1.177a6.006 6.006 0 0 0 .065 1.137 20.311 20.311 0 0 0-5.1-1.872c.131-.45.281-.897.42-1.346a.51.51 0 0 0 .154.004 3.826 3.826 0 0 1 2.495.9zm5.003 3.71a8.659 8.659 0 0 0 1.86-.767 3.82 3.82 0 0 0 2.991 1.966c.086.387.164.777.241 1.167l-5.092-2.366zm2.537-1.597a.503.503 0 0 0-.728-.296 4.941 4.941 0 0 1-2.787 1.034c-1.33-.097-1.079-.919-1.008-1.89a8.76 8.76 0 0 1 1.702-4.51 14.66 14.66 0 0 1 2.793 2.695 14.097 14.097 0 0 1 2.089 4.72 2.804 2.804 0 0 1-2.06-1.753zm-3.763-6.016a.467.467 0 0 0-.153-.064 5.816 5.816 0 0 1-2.161-1.308 99.896 99.896 0 0 1-2.11-1.633l.196-.575a99.476 99.476 0 0 0 3.222 2.15 12.58 12.58 0 0 0 1.185 1.15c-.063.088-.117.189-.179.28zm-2.802-5.853a5.325 5.325 0 0 0 .485 2.357c-.526-.35-1.059-.693-1.578-1.054.187-.547.378-1.096.562-1.641a3.096 3.096 0 0 0 .53.338zm-.21-1.31c.172-.516.349-1.035.512-1.547l.015-.048a4.624 4.624 0 0 0 .544.554 5.423 5.423 0 0 0-.527.92 3.856 3.856 0 0 0-.143.403 2.062 2.062 0 0 1-.311-.226.475.475 0 0 0-.09-.056zM123 86.817a3.274 3.274 0 0 1-.553-.58.496.496 0 0 0-.377-.208c.124-.474.25-.99.385-1.531l1.84 1.55a3.86 3.86 0 0 0-1.295.769zm-.156-3.284a.502.502 0 0 0-.122-.067c.141-.527.293-1.057.464-1.57q2.234 2.172 4.63 4.155a7.552 7.552 0 0 0-2.258-.23l-2.714-2.288zm.719-2.651a8.528 8.528 0 0 1 .69-1.374 43.82 43.82 0 0 1 7.57 7.125c-.195.252-.388.506-.573.775-.134-.07-.27-.135-.405-.202a77.08 77.08 0 0 1-7.282-6.324zm1.307-2.144a2.515 2.515 0 0 1 .856-.558c2.352-.88 2.851 1.493 4.084 3.179a131.72 131.72 0 0 1 2.797 4.007 1.112 1.112 0 0 0 .131.158c-.097.107-.187.223-.28.332a44.624 44.624 0 0 0-7.588-7.118zm-61.693 2.581a22.37 22.37 0 0 1 7.948.918 6.24 6.24 0 0 0 4.598-.485.414.414 0 0 0 .244-.464c2.883-.952 5.772-2.058 8.71-2.783 4.608-1.137 7.464.68 11.15 2.867.986.585 1.878-.725 1.267-1.474 2.888-.422 5.514-2.31 8.443-2.31 2.932 0 5.245 2.293 8.222 2.244a.49.49 0 0 0 .154-.034q-1.638 4.457-3.182 8.947c-.633 1.828-1.352 3.704-2.064 5.608-3.988-.79-7.435.191-10.854 2.336-2.338 1.465-4.518 2.746-7.37 1.994-1.911-.504-3.607-1.632-5.614-1.805-2.244-.192-4.328.881-6.54.881-3.028 0-4.302-2.028-6.041-4.062a12.264 12.264 0 0 0-9.535-4.317c.702-2.691 1.194-5.617.464-8.06zm56.333-46.145a58.922 58.922 0 0 1 6.159 4.06 14.041 14.041 0 0 1-2.119.149.477.477 0 0 0-.065-.099c-2.402-2.42-5.046-4.547-8.473-5.05a24.617 24.617 0 0 0-2.122-2.197c2.343.528 4.7 2.045 6.62 3.137zm-7.967-4.278q-.987-.776-2.032-1.445c3.6-.118 7.673 1.964 10.662 3.567a41.076 41.076 0 0 1 7.81 5.5 5.725 5.725 0 0 1-1.06.435 60.11 60.11 0 0 0-8.476-5.494c-2.165-1.142-4.446-2.449-6.904-2.563zm10.563 8.425a14.225 14.225 0 0 1-3.712-.726.941.941 0 0 0-.396-.068 31.285 31.285 0 0 0-1.667-2.625c-.12-.166-.245-.322-.367-.483a14.398 14.398 0 0 1 6.142 3.902zm1.546-23.112a30.65 30.65 0 0 1 6.999 5.911c-.63-.022-1.26-.032-1.891-.046a35.81 35.81 0 0 0-5.57-5.695.996.996 0 0 0 .462-.17zm-1.912.276a34.333 34.333 0 0 1 5.744 5.557q-1.694-.025-3.389-.027a.54.54 0 0 0 .213-.83 64.112 64.112 0 0 0-4.182-4.586zm-2.914.205a64.124 64.124 0 0 1 4.78 5.197.474.474 0 0 0 .159.128c-.682 0-1.365-.007-2.047-.002a72.565 72.565 0 0 0-4.747-5.193zm-3.107.218a.49.49 0 0 0 .102.15c1.622 1.575 3.139 3.245 4.604 4.962-.36.005-.721 0-1.082.006-1.303-1.422-2.582-2.877-3.926-4.363-.218-.241-.446-.461-.672-.687zm13.605 20.197c.013.01.026.014.04.024a2.62 2.62 0 0 1-.557.77 41.93 41.93 0 0 0-9.624-6.498c-3.29-1.594-7.197-3.407-10.922-2.822a.449.449 0 0 0-.13.05 27.9 27.9 0 0 0-1.824-.936c1.866.122 3.77.15 5.707.412 6.67.9 12.12 5.001 17.31 9zm-25.555-23.581a.984.984 0 0 0 .228.656c1.223 1.473 4.372 4.058 3.95 6.398a26.193 26.193 0 0 0-2.17-2.811l-3.707-4.546c.572.085 1.14.182 1.7.303zm-3.108-.47l3.429 4.206a22.33 22.33 0 0 1 3.35 4.434 4.033 4.033 0 0 1-1.222 1.022c-.374-3.68-3.482-7.243-6.212-9.734.22.018.436.05.655.073zm-2.249-.163c2.797 2.404 6.646 6.319 6.837 10.269a10.62 10.62 0 0 1-1.594.453c-1.046-4.517-4.208-7.584-7.383-10.757a46.3 46.3 0 0 1 2.14.035zm-3.453-.005a.503.503 0 0 0 .115.175c3.178 3.196 6.511 6.204 7.6 10.718-.38.051-.76.093-1.125.117a29.076 29.076 0 0 0-7.32-10.993c.245-.01.487-.009.73-.017zm-2.103.088a28.093 28.093 0 0 1 7.646 10.963c-.15.002-.296.002-.436 0a29.833 29.833 0 0 1-.859-1.415 10.088 10.088 0 0 0-.856-1.626 1.064 1.064 0 0 0-.183-.192.847.847 0 0 0-.16-.48 33.056 33.056 0 0 0-6.606-7.148q.728-.057 1.454-.102zm5.496 12.23a44.23 44.23 0 0 0-2.686-.425l-.241-3.408a.48.48 0 0 0-.018-.065c.253-.002.505 0 .758-.005a.921.921 0 0 0 .114-.025c.056.051.115.098.17.15a.855.855 0 0 0 .075.045 1.114 1.114 0 0 0 .113.427c.226.466.474.919.723 1.37a8.442 8.442 0 0 1 .405 1.15.88.88 0 0 0 .56.631 1.08 1.08 0 0 0 .027.154zm-3.686-.527c-.605-.065-1.21-.136-1.82-.181a18.062 18.062 0 0 0-.605-3.131.465.465 0 0 0-.042-.08q1.119.025 2.242.027a.438.438 0 0 0-.008.06l.233 3.305zm-3.34-3.417a.447.447 0 0 0-.042.368 16.965 16.965 0 0 1 .56 2.808c-.292-.017-.583-.038-.875-.051a7.84 7.84 0 0 0-1.369-3.173c.574.022 1.15.032 1.726.049zm-2.99-.098a.482.482 0 0 0 .046.08 6.937 6.937 0 0 1 1.57 3.11c-.33-.01-.66-.028-.992-.033a.494.494 0 0 0 .027-.47 11.15 11.15 0 0 0-1.787-2.731c.378.02.757.026 1.135.044zm-2.474-.124a.467.467 0 0 0 .126.226 10.46 10.46 0 0 1 2.124 3.05c-.47-.002-.94-.014-1.41-.008a10.183 10.183 0 0 0-1.891-3.33c.35.023.7.04 1.051.062zm-2.232-.148a.445.445 0 0 0 .078.238 13.177 13.177 0 0 1 1.97 3.149c-.65-.151-1.3-.28-1.947-.379a8.636 8.636 0 0 0-1.945-3.14c.614.048 1.229.088 1.844.132zm-3.272-.249a.427.427 0 0 0 .143.239 7.812 7.812 0 0 1 2.131 2.875 25.928 25.928 0 0 0-2.14-.152 4.533 4.533 0 0 0-1.553-3.077c.474.041.946.075 1.42.115zm-2.97-.253a.47.47 0 0 0 .09.122c.952.845 1.966 1.779 2.02 3.092-.45.007-.9.009-1.345.04a.48.48 0 0 0-.012-.054 12.782 12.782 0 0 0-2.122-3.324l1.369.124zm-2.63-.234a.462.462 0 0 0 .134.33 12.069 12.069 0 0 1 2.22 3.25c-.307.035-.614.07-.918.117a24.38 24.38 0 0 0-3.45-3.472c-.491-.401-1.197.297-.703.702a24.365 24.365 0 0 1 3.002 2.966c-.465.095-.926.2-1.382.321a.483.483 0 0 0-.116-.296 23.816 23.816 0 0 0-3.982-3.664 17.89 17.89 0 0 1 5.195-.254zm-6.47.569a23.031 23.031 0 0 1 4.44 3.926c-.308.096-.62.183-.924.292-1.488-1.428-3.608-3.112-5.706-3.403a16.958 16.958 0 0 1 2.19-.815zm-3.761 1.601a.49.49 0 0 0 .492.188c1.887-.357 4.233 1.419 5.775 2.842-.29.12-.585.225-.87.356a11.882 11.882 0 0 1-5.433-3.368zm5.61 5.45a.894.894 0 0 0 .688-.312 22.177 22.177 0 0 1 15.011-1.117.913.913 0 0 0 .641-.06c.01 0 .017.005.027.005 11.76-.186 23.438 2.255 29.732 13.123 4.741 8.187 5.279 17.709 5.154 27.001-2.68-2.03-3.152-8.078-4.278-10.877a38.705 38.705 0 0 0-3.796-7.167 37.828 37.828 0 0 0-12.995-11.946c-12.027-6.653-24.739-4.738-37.605-2.558a21.993 21.993 0 0 1 7.42-6.091zm-26.659 33.82a37.208 37.208 0 0 1 6.275-9.212c.02.704.027 1.41.011 2.118a.993.993 0 0 0 1.984 0 39.796 39.796 0 0 0-.11-3.992c.215-.199.426-.406.644-.597.236-.207.488-.382.73-.577a35.046 35.046 0 0 0 .034 4.163c.089 1.267 2.074 1.277 1.985 0a35.004 35.004 0 0 1 .068-5.644c.581-.362 1.178-.69 1.785-.996v6.018a.993.993 0 0 0 1.984 0v-6.897a25.54 25.54 0 0 1 1.713-.602L60.468 53a.993.993 0 0 0 1.984 0l.117-8a.916.916 0 0 0-.03-.16 31.75 31.75 0 0 1 1.538-.324 36.868 36.868 0 0 0-.287 7.233c.077 1.269 2.062 1.277 1.984 0a35.336 35.336 0 0 1 .352-7.55c.343-.043.692-.064 1.037-.099-.044 2.55-.056 5.1-.02 7.65a.993.993 0 0 0 1.985 0c-.038-2.602-.026-5.205.021-7.807a49.44 49.44 0 0 1 1.725-.053c-1.516 2.746-.72 5.88-1.066 8.985-.142 1.267 1.844 1.257 1.984 0 .304-2.718-.745-6.186 1.1-8.517a1.02 1.02 0 0 0 .202-.462c.492.012.982.05 1.474.073a11.878 11.878 0 0 0-.924 7.399c.235 1.254 2.148.723 1.913-.527a9.704 9.704 0 0 1 1.185-6.746c.59.047 1.177.106 1.763.165a10.415 10.415 0 0 0-1.621 7.985c.241 1.252 2.154.722 1.913-.528a8.313 8.313 0 0 1 1.813-6.985.996.996 0 0 0 .122-.221c.556.069 1.102.147 1.65.224a14.695 14.695 0 0 0-1.622 7.155c.094 1.266 2.079 1.276 1.984 0a13.653 13.653 0 0 1 1.673-6.855l.788.123a11.177 11.177 0 0 0-1.036 6.088c.14 1.255 2.126 1.27 1.984 0a9.483 9.483 0 0 1 1.318-6.126c.017-.029.015-.055.029-.083.302-.028.59-.04.884-.058a15.571 15.571 0 0 0-1.058 5.03.993.993 0 0 0 1.984 0 14.243 14.243 0 0 1 1.2-5.079c.505.014.998.055 1.486.109a7.953 7.953 0 0 0-1.229 4.468c.115 1.262 2.1 1.274 1.985 0a6.91 6.91 0 0 1 1.251-4.002.922.922 0 0 0 .035-.108 14.732 14.732 0 0 1 1.898.631 8.981 8.981 0 0 0-1.693 3.587c-.168 1.248 1.744 1.789 1.914.527a8.288 8.288 0 0 1 1.581-3.257 18.45 18.45 0 0 1 1.71 1.065l.062.044-1.497 2.128c-.736 1.046.984 2.039 1.714 1.001l1.398-1.988q.727.513 1.456 1.041l-1.42 1.738a1.021 1.021 0 0 0 0 1.403 1 1 0 0 0 1.403 0l1.52-1.859a1.276 1.276 0 0 0 .069-.116c.777.59 1.533 1.206 2.273 1.836l-3.01 3.113c-.889.919.513 2.324 1.402 1.403l3.083-3.187c.241.23.47.47.704.705l-2.96 3.185c-.87.935.53 2.341 1.402 1.403l2.903-3.122c.089.105.187.204.273.312.345.43.656.876.953 1.33a.956.956 0 0 0-.496.237 27.23 27.23 0 0 0-2.899 3.104 1.023 1.023 0 0 0 0 1.403 1 1 0 0 0 1.403 0 27.225 27.225 0 0 1 2.9-3.104c.016-.015.02-.032.034-.048.28.525.538 1.06.785 1.601a.973.973 0 0 0-.238.152q-1.814 1.751-3.528 3.6c-.868.936.532 2.342 1.403 1.403a90.957 90.957 0 0 1 3.18-3.245c.256.627.505 1.259.755 1.89l-3.647 3.27c-.952.854.455 2.254 1.404 1.403l2.766-2.481.405 2.344a1.035 1.035 0 0 0-.353.202 14.268 14.268 0 0 1-3.384 2.185c-1.155.541-.149 2.252 1.002 1.714a15.765 15.765 0 0 0 3.107-1.94l.383 2.218a10.6 10.6 0 0 0-.482.937l-3.422.272c-1.264.1-1.275 2.085 0 1.984l2.606-.207-.192.519c-.17.45-.328.903-.495 1.354a.433.433 0 0 0-.415-.246c-2.955.048-5.267-2.244-8.222-2.244-3.035 0-5.669 1.99-8.652 2.349a.525.525 0 0 0-.459.47c-2.754-1.68-5.71-3.878-9.071-3.594-4.197.355-8.609 2.503-12.596 3.781a1.02 1.02 0 0 0-.438 1.64c-2.203.618-4.19-.489-6.44-.85a17.64 17.64 0 0 0-4.743-.062.496.496 0 0 0-.282.13 6.556 6.556 0 0 0-3.15-3.213c-5.196-2.64-12.024-.824-17.093 1.759a.97.97 0 0 0 .004-.142c-.955-5.82-1.75-11.735.861-17.27zm-1.931 29.413c2.098-.655 4.197.943 6.197 1.399a15.045 15.045 0 0 0 4.199.35 15.226 15.226 0 0 0 7.746-2.667c.043.202.08.405.122.607a.47.47 0 0 0-.177.082 12.6 12.6 0 0 1-5.969 2.412c-.625.079-.633 1.072 0 .993a13.576 13.576 0 0 0 6.351-2.472c.059.295.125.589.18.886a28.74 28.74 0 0 1-.914 2.277 24.1 24.1 0 0 1-18.847-.475 12.224 12.224 0 0 1 1.181-3.19c-.025-.067-.045-.136-.07-.202zm1.125-1.154a10.299 10.299 0 0 1 .776-1.83 11.159 11.159 0 0 1 1.113-.884l-.191.314a5.43 5.43 0 0 0-.817 2.482 5.886 5.886 0 0 0-.881-.082zm5.018-2.728a.702.702 0 0 1 .955-.676 1.452 1.452 0 0 1 .85 1.223l.005.013c-.269.651-1.816.41-1.81-.56zm9.99 2.995a14.166 14.166 0 0 1-6.771 1.645 6.341 6.341 0 0 0-.218-6.517 10.892 10.892 0 0 1 7.42 2.943 1.908 1.908 0 0 0-.432 1.93zm-16.063-8.395a1 1 0 0 0 .374-.127 23.875 23.875 0 0 1 9.151-3.258 15.43 15.43 0 0 1 5.175-.083 1.42 1.42 0 0 1 .987-.058 6.31 6.31 0 0 1 .823.341c.203.816.455 1.689-.539 1.625a.499.499 0 0 0-.478.628 80.14 80.14 0 0 1 2.058 7.065 11.991 11.991 0 0 0-4.5-2.906.473.473 0 0 0-.316-.34c-4.477-1.532-8.309-.106-12.735.115a9.212 9.212 0 0 1 0-3.002zm-2.374-29.93c.074-.292.556-2.904 1.465-2.238.696.51-.21 1.63-.394 2.12a9.957 9.957 0 0 0-.229 5.237c-1.871-.602-1.214-3.636-.842-5.118zM86.76 133.94a78.555 78.555 0 0 1-19.016 5.014 15.34 15.34 0 0 1-4.066-.563c-5.215-2.316-11.226-4.53-14.279-9.479a68.364 68.364 0 0 1-5.44-11.46c-.767-2.003-2.432-8.475-2.612-9.228-.918-3.845-1.733-8.5-1.147-12.583l.048.012a1.929 1.929 0 0 1-.033-.274 25.045 25.045 0 0 0 18.437.788 16.978 16.978 0 0 1-1.138 1.896 1.654 1.654 0 0 1-.337.347 1.466 1.466 0 0 1-.225.279.288.288 0 0 0 .022.061 17.84 17.84 0 0 0-2.704 4.112c-.604 1.504-1.024 4.219-.224 5.719.73 1.367 1.497.724 2.598.333.025-.009.043-.01.067-.019a1.44 1.44 0 0 0 .942 1.563 2.227 2.227 0 0 0 2.418-.855c.092.04.177.08.278.117a2.591 2.591 0 0 0 1.53.132 4.675 4.675 0 0 0 1.406-.565 2.184 2.184 0 0 0 3.966-.324 4.498 4.498 0 0 0 1.863.309 3.462 3.462 0 0 0 1.615-6.405c-.538-.349-1.036.51-.501.856q2.73 2.065-.626 4.447a3.951 3.951 0 0 1-2.293-.18c-.054-.014-.107-.034-.161-.05l-.031-.01a7.07 7.07 0 0 0-1.865-.488c-1.16-.02-1.678.598-2.673.976-2.763 1.052-2.422-.85-4.47-1.057-1.323-.135-2.453 1.745-3.337-.406-1.429-3.478 2.98-7.053 4.485-9.735.294-.523.559-1.06.8-1.606a.54.54 0 0 0 .233-.583c.285-.695.536-1.404.766-2.12a.489.489 0 0 0 .124-.42c.19-.622.374-1.247.535-1.877a1.274 1.274 0 0 1 .73-.244v-.004a11.34 11.34 0 0 1 6.99 2.04c1.812 1.3 2.813 3.243 4.428 4.72 3.154 2.882 6.473.758 10.147.72 4.107-.04 6.965 3.232 11.18 1.467 1.712-.716 3.16-1.905 4.785-2.777a12.27 12.27 0 0 1 8.342-1.242 50.248 50.248 0 0 0-3.3 12.443c-1.287.174-2.571.37-3.84.516a1.076 1.076 0 0 0-.652 1.795.878.878 0 0 0-.066.46 12.524 12.524 0 0 0 2.231 6.223c-1.267 3.43-2.512 7.272-4.604 10.288-2.463 3.551-7.504 5.364-11.326 6.921zm-29.01-25.068a.516.516 0 0 0 .104-.176 2.804 2.804 0 0 1 1.303.447 1.366 1.366 0 0 1-.803.424c-.338.032-.96-.296-.604-.695zm6.43-.04a3.337 3.337 0 0 1 2.094-.142c.015.003.028.008.043.012a1.2 1.2 0 0 1-2.138.13zm50.904 34.057a1.215 1.215 0 0 0 .067.217c-2.352 1.142-4.417 1.46-6.965-.113a18.696 18.696 0 0 1-4.197-3.78 22.392 22.392 0 0 1-4.8-10.118.902.902 0 0 0-.067-.158c2.41-2.965 3.843-7.16 5.171-10.828a4.824 4.824 0 0 0 .577.274 10.284 10.284 0 0 0 6.155-.113c-.008.026-.014.053-.021.08l-.288.647a12.138 12.138 0 0 0-4.219 2.892c-2.525 2.726-5.759 9.642-4.001 13.297a3.552 3.552 0 0 0 2.915 2.188c1.807-.013 2.462-1.98 3.27-3.285l.557-.898q3.304 3.016 6.507 6.14a18.21 18.21 0 0 0-.713 3.072 1.035 1.035 0 0 0 .052.486zm1.434-5.566q-3.048-2.956-6.184-5.819a.923.923 0 0 0-.08-.048 1.237 1.237 0 0 1 .602-.569.454.454 0 0 0 .056.076q3.074 2.739 5.945 5.689c-.114.223-.234.443-.339.67zm1.976-6.54a7.899 7.899 0 0 0 .437.96l-1.973-2.06a3.658 3.658 0 0 0 .284-.474 9.148 9.148 0 0 0 1.426.688.792.792 0 0 0-.174.885zm.562 2.524c-.178.223-.364.44-.533.67l-3.252-2.938a4.044 4.044 0 0 0 1.014-.624l2.77 2.892zm-1.097 1.495c-.206.312-.421.62-.609.941q-2.28-2.324-4.688-4.513a10.972 10.972 0 0 0 1.452.1l3.845 3.472zm20.039.898a18.637 18.637 0 0 1-2.66 3.286 43.511 43.511 0 0 1-18.202 2.85 16.583 16.583 0 0 1 3.75-7.668 7.974 7.974 0 0 0 2.53 1.416c1.212.412 1.732-1.504.527-1.914a5.762 5.762 0 0 1-3.471-3.27 11.19 11.19 0 0 0 1.363.143c1.277.053 1.275-1.931 0-1.984a6.209 6.209 0 0 1-4.446-1.631c-.506-.404-1.536-.385-1.658.437-.263 1.773-5.154.776-6.565 2.224-.918.942-1.206 2.654-2.198 3.499-.534 1.442-1.172 1.576-1.912.415a1.002 1.002 0 0 0 .081-.336 6.6 6.6 0 0 1 .853-3.018.997.997 0 0 0-.83-1.47c1.002-3.041 2.428-5.799 5.406-7.418 2.814-1.53 6.14-1.866 9.272-2.17a.973.973 0 0 0 .136-.042 12.99 12.99 0 0 0 3.405-.484 4.533 4.533 0 0 1-.69 2.18c-.338.544.52 1.043.857.502a5.55 5.55 0 0 0 .841-2.871.492.492 0 0 0-.034-.185c.015-.012.033-.02.048-.031a.948.948 0 0 0 .107.167q3.12 3.23 5.926 6.734c.798.996 2.194-.416 1.403-1.403q-2.806-3.505-5.926-6.734a.881.881 0 0 0-1.16-.136.76.76 0 0 0-.845-.43 13.068 13.068 0 0 1-8.072-1.548.956.956 0 0 0-.21-.066.847.847 0 0 0-1.144-.126 12.952 12.952 0 0 1-7.074 2.06c-3.09-.195-4.375-2.605-4.847-5.372 2.183.065 4.366.144 6.549.17 1.186.014 1.978-.274 2.208-1.302a89.403 89.403 0 0 1 11.638-2.355 22.984 22.984 0 0 1 4.066-.294 22.35 22.35 0 0 1-.757.865c-.435.466.265 1.17.702.701a23.11 23.11 0 0 0 1.216-1.427 7.575 7.575 0 0 1 3.123 1.433c2.432 1.816 3.077 3.607 3.674 6.48.26 1.25 2.173.72 1.913-.527-.674-3.243-1.89-6.25-4.345-8.005a.994.994 0 0 0 .174-.79c-.802-4.394-1.974-8.054-5.365-11.09a19.18 19.18 0 0 1-1.994-1.64c-1.015-.74-1.267-1.474-.775-2.204a10.003 10.003 0 0 1 2.751 1.944 1.761 1.761 0 0 0 2.085.53 11.642 11.642 0 0 0 2.594-2.242 5.35 5.35 0 0 0 .758-.85 19.373 19.373 0 0 1 5.262 5.037 4.811 4.811 0 0 0-1.889 1.158.496.496 0 0 0 .702.702 3.815 3.815 0 0 1 1.753-.996 16.282 16.282 0 0 1 1.209 2.474c4.3 11.083 1.482 25.394-1.813 36.622zm7.62-82.239a43.029 43.029 0 0 0-3.19-7.216c-1.078-1.928-2.483-3.44-2.563-5.842a6.689 6.689 0 0 1 .28-1.566c3.822 6.744 6.593 13.413 7.02 20.763a41.117 41.117 0 0 0-1.548-6.139z"/><path d="M76.883 118.357a.838.838 0 0 0-.887-.604c-.571.025-1.136.035-1.703.053a12.211 12.211 0 0 1-8.32-3.953.859.859 0 0 0-1.013-.225.89.89 0 0 0-.576.276c-1.698 1.76-2.928 1.626-4.904.675-.617-.297-.992-.645-1.73-.563a4.485 4.485 0 0 0-2.004 1.143c-1.316.977-2.617 1.975-3.926 2.963a1.092 1.092 0 0 0 .292 1.88 1.192 1.192 0 0 0 .099.074c1.569 1.499 3.26 3.008 5.452 3.442 1.619.32 3.285.29 4.916.62a30.488 30.488 0 0 0 4.06.73c3.516.229 10.722-1.58 10.35-6.248a.488.488 0 0 0-.106-.263zm-6.753 5.238a15.278 15.278 0 0 1-6.849-.313c-1.61-.356-3.114-.446-4.735-.646a8.837 8.837 0 0 1-4.908-2.589c3.617-1.543 7.329-.622 11.109-.306a77.9 77.9 0 0 0 9.588.063 14.56 14.56 0 0 0 1.496-.003l.011-.002c-.717 2.118-3.756 3.351-5.712 3.796zm42.297 1.905a2.92 2.92 0 0 1-.428-1.875c.06-.635-.933-.63-.992 0a3.809 3.809 0 0 0 .564 2.376c.334.542 1.193.045.856-.5zm1.897-80.8c-10.09-11.961-25.558-19.386-41.128-13.842-.597.212-.34 1.171.264.957 15.267-5.437 30.286 1.88 40.162 13.586.413.489 1.111-.216.702-.701zm-49.958 84.516a16.048 16.048 0 0 0-4.476-1.375c-.625-.094-.894.862-.264.957a15.18 15.18 0 0 1 4.24 1.275c.574.27 1.078-.584.5-.857zm-39.105 5.132a7.564 7.564 0 0 0-4.984 2.621 28.638 28.638 0 0 0-1.775 2.436 4.888 4.888 0 0 0-1.25 2.595c-.02.639.972.638.993 0 .044-1.287 1.932-3.393 2.734-4.33a6.58 6.58 0 0 1 4.282-2.33c.625-.078.633-1.07 0-.992zm-5.536-.262a8.903 8.903 0 0 0-3.606 2.505 11.72 11.72 0 0 0-2.638 3.767c-.209.605.75.865.957.264a10.592 10.592 0 0 1 2.382-3.329 7.918 7.918 0 0 1 3.169-2.25c.598-.212.34-1.17-.264-.957zm9.145 3.958c-1.791-.152-3.14.877-4.286 2.148-.999 1.108-2.534 2.38-2.712 3.932-.073.633.92.628.992 0 .123-1.07 1.573-2.28 2.275-3.066 1.012-1.136 2.098-2.16 3.732-2.021.636.054.632-.939 0-.993zm5.37.326a9.55 9.55 0 0 0-3.95 3.005 6.223 6.223 0 0 0-1.723 4.37c.021.636 1.013.639.992 0a5.43 5.43 0 0 1 1.749-4.01 8.457 8.457 0 0 1 3.195-2.408.496.496 0 0 0-.263-.956zm5.276 1.558c-3.148 1.372-3.193 5.022-2.945 7.958.054.631 1.046.637.993 0-.22-2.59-.375-5.869 2.452-7.102.584-.254.08-1.11-.5-.856zm-2.152-15.631c-2.483 1.32-5.704 3.836-8.606 3.55-.635-.063-.63.93 0 .992 3.173.313 6.43-2.261 9.106-3.686.564-.3.064-1.156-.5-.856zm4.168 2.695q-1.367.981-2.758 1.927c-1.073.728-2.248 1.663-3.636 1.45-.624-.095-.894.86-.264.957 2.664.408 5.15-2.036 7.159-3.477.514-.369.02-1.23-.501-.857zm1.347 4.762a15.738 15.738 0 0 1-3.572 2.674c-.56.307-.06 1.164.5.857a16.681 16.681 0 0 0 3.773-2.83.496.496 0 0 0-.701-.701zm3.381 4.13a5.004 5.004 0 0 1-3.008 1.289c-.632.047-.638 1.04 0 .992a6.122 6.122 0 0 0 3.71-1.58c.475-.428-.229-1.128-.702-.701zm4 2.626a10.18 10.18 0 0 1-3.146 2.16c-.583.259-.079 1.114.5.858a10.905 10.905 0 0 0 3.347-2.316.496.496 0 0 0-.701-.702zm3.742 3.352a5.01 5.01 0 0 0-3.073 1.936 14.407 14.407 0 0 0-2.35 3.33c-.292.567.564 1.07.857.501a13.545 13.545 0 0 1 1.751-2.64c.675-.786 1.722-2.062 2.815-2.135.633-.041.638-1.034 0-.992zm3.608 2.628c-.5 1.628-1.729 2.96-1.268 4.761a.497.497 0 0 0 .957-.264c-.384-1.502.846-2.859 1.267-4.233.188-.611-.77-.873-.957-.263zm-13.362-.92a5.31 5.31 0 0 0-2.36 4.305.496.496 0 0 0 .993 0 4.263 4.263 0 0 1 1.868-3.45c.524-.357.028-1.217-.501-.856zm56.102-55.734l-.847-1.253a.503.503 0 0 0-.56-.228c-4.034 1.32-7.652-2.432-11.7-2.797a11.3 11.3 0 0 0-8.783 2.995 10.778 10.778 0 0 0-2.093 1.649 9.122 9.122 0 0 1 .136-2.635 7.426 7.426 0 0 1 1.68-2.94c.401-.49-.297-1.196-.701-.701a9.043 9.043 0 0 0-1.825 2.965 11.133 11.133 0 0 0-.243 3.98.477.477 0 0 0 .128.297 7.888 7.888 0 0 0-.523.774.456.456 0 0 0 .067.564.484.484 0 0 0 .017.09.495.495 0 0 0-.02.693c3.587 3.967 10.255 4.652 15.231 3.55.624-.138.36-1.095-.263-.957-4.09.906-9.458.518-12.958-2.11a19.087 19.087 0 0 0 8.773 1.551c3.912-.122 6.962-1.57 10.503-3.13a6.626 6.626 0 0 0 3.752-1.264.47.47 0 0 0 .218-.427.52.52 0 0 0 .012-.666zm-23.659 1.52a10.873 10.873 0 0 1 .233 1.245c-.289-.135-.577-.268-.871-.421a7.092 7.092 0 0 1 .638-.823zm4.608-.193c-.583-.052-.692-.459-.699-.974-.008-.623.215-.773.811-.848a5.199 5.199 0 0 1 .576-.031 2.135 2.135 0 0 0 .218.11 4.523 4.523 0 0 1 .25 1.457 2.254 2.254 0 0 1-1.156.286zm4.567 3.168c-.434.014-.853.014-1.265.008a5.985 5.985 0 0 0-.263-6.417 16.306 16.306 0 0 1 6.28 2.157 22.909 22.909 0 0 0 3.958 1.828 22.754 22.754 0 0 1-8.71 2.424z"/></svg>
