<svg xmlns="http://www.w3.org/2000/svg" viewBox="0 0 320 320"><path d="M287.468 165.384c-3.663-57.692-45.787-103.022-105.311-103.022 0 0 1.588-14.142 17.399-23.352 11.859-6.908 6.454-23.691-8.812-15.11-14.106 7.929-25.254 30.22-25.254 30.22s3.671-24.86 6.135-31.931c4.136-11.866-15.988-20.124-21.52 0-4.121 14.989-4.121 33.304-4.121 33.304s-5.494-21.52-11.447-30.22c-8.611-12.585-28.712-5.752-18.773 9.157 7.326 10.989 8.242 27.93 8.242 27.93-39.377 1.374-98.901 58.15-91.117 136.904 7.784 78.754 66.392 114.926 141.941 110.348 82.385-4.991 116.793-78.795 112.638-144.228zm-238.277 66.78a4.052 4.052 0 1 1 0-8.104 4.052 4.052 0 0 1 0 8.104zm0-21.612a4.052 4.052 0 1 1 0-8.104 4.052 4.052 0 0 1 0 8.104zm0-21.613a4.052 4.052 0 1 1 0-8.104 4.052 4.052 0 0 1 0 8.104zm0-21.612a4.052 4.052 0 1 1 0-8.104 4.052 4.052 0 0 1 0 8.104zm151.287-94.554a4.052 4.052 0 1 1 0 8.104 4.052 4.052 0 0 1 0-8.104zm0 21.612a4.052 4.052 0 1 1 0 8.104 4.052 4.052 0 0 1 0-8.104zm-21.613-21.612a4.052 4.052 0 1 1 0 8.104 4.052 4.052 0 0 1 0-8.104zm-21.612 0a4.052 4.052 0 1 1 0 8.104 4.052 4.052 0 0 1 0-8.104zm-21.613 0a4.052 4.052 0 1 1 0 8.104 4.052 4.052 0 0 1 0-8.104zm-21.612 0a4.052 4.052 0 1 1 0 8.104 4.052 4.052 0 0 1 0-8.104zm0 21.612a4.052 4.052 0 1 1 0 8.104 4.052 4.052 0 0 1 0-8.104zm-21.612 0a4.052 4.052 0 1 1 0 8.104 4.052 4.052 0 0 1 0-8.104zm0 21.613a4.052 4.052 0 1 1 0 8.104 4.052 4.052 0 0 1 0-8.104zM70.803 253.777a4.052 4.052 0 1 1 0-8.104 4.052 4.052 0 0 1 0 8.104zm0-21.613a4.052 4.052 0 1 1 0-8.104 4.052 4.052 0 0 1 0 8.104zm0-21.612a4.052 4.052 0 1 1 0-8.104 4.052 4.052 0 0 1 0 8.104zm0-21.613a4.052 4.052 0 1 1 0-8.104 4.052 4.052 0 0 1 0 8.104zm0-21.612a4.052 4.052 0 1 1 0-8.104 4.052 4.052 0 0 1 0 8.104zm0-21.612a4.052 4.052 0 1 1 0-8.104 4.052 4.052 0 0 1 0 8.104zm0-21.613a4.052 4.052 0 1 1 0-8.104 4.052 4.052 0 0 1 0 8.104zm21.613 151.287a4.052 4.052 0 1 1 0-8.104 4.052 4.052 0 0 1 0 8.104zm0-21.612a4.052 4.052 0 1 1 0-8.104 4.052 4.052 0 0 1 0 8.104zm21.612 21.612a4.052 4.052 0 1 1 0-8.104 4.052 4.052 0 0 1 0 8.104zm0-21.612a4.052 4.052 0 1 1 0-8.104 4.052 4.052 0 0 1 0 8.104zm21.612 43.224a4.052 4.052 0 1 1 0-8.104 4.052 4.052 0 0 1 0 8.104zm0-21.612a4.052 4.052 0 1 1 0-8.104 4.052 4.052 0 0 1 0 8.104zm0-21.612a4.052 4.052 0 1 1 0-8.104 4.052 4.052 0 0 1 0 8.104zm21.613 43.224a4.052 4.052 0 1 1 0-8.104 4.052 4.052 0 0 1 0 8.104zm0-21.612a4.052 4.052 0 1 1 0-8.104 4.052 4.052 0 0 1 0 8.104zm0-21.612a4.052 4.052 0 1 1 0-8.104 4.052 4.052 0 0 1 0 8.104zm21.612 43.224a4.052 4.052 0 1 1 0-8.104 4.052 4.052 0 0 1 0 8.104zm0-21.612a4.052 4.052 0 1 1 0-8.104 4.052 4.052 0 0 1 0 8.104zm0-21.612a4.052 4.052 0 1 1 0-8.104 4.052 4.052 0 0 1 0 8.104zm21.613 21.612a4.052 4.052 0 1 1 0-8.104 4.052 4.052 0 0 1 0 8.104zm0-21.612a4.052 4.052 0 1 1 0-8.104 4.052 4.052 0 0 1 0 8.104zm-14.029-21.163c-23.794 6.549-42.305 6.678-71.24-4.01-12.414-4.585-20.859-16.143-21.55-29.358-1.958-37.459 8.928-70.528 37.242-91.755 13.791-10.339 33.037-8.278 44.6 4.503 20.451 22.606 31.835 55.116 35.072 85.423 1.715 16.046-8.567 30.915-24.124 35.197zm35.641 42.775a4.052 4.052 0 1 1 0-8.104 4.052 4.052 0 0 1 0 8.104zm0-21.612a4.052 4.052 0 1 1 0-8.104 4.052 4.052 0 0 1 0 8.104zm0-86.45a4.052 4.052 0 1 1 0-8.104 4.052 4.052 0 0 1 0 8.104zm0-21.612a4.052 4.052 0 1 1 0-8.104 4.052 4.052 0 0 1 0 8.104zm0-21.613a4.052 4.052 0 1 1 0-8.104 4.052 4.052 0 0 1 0 8.104zm0-21.612a4.052 4.052 0 1 1 0-8.104 4.052 4.052 0 0 1 0 8.104zm21.612 151.287a4.052 4.052 0 1 1 0-8.104 4.052 4.052 0 0 1 0 8.104zm0-21.613a4.052 4.052 0 1 1 0-8.104 4.052 4.052 0 0 1 0 8.104zm0-21.612a4.052 4.052 0 1 1 0-8.104 4.052 4.052 0 0 1 0 8.104zm0-21.613a4.052 4.052 0 1 1 0-8.104 4.052 4.052 0 0 1 0 8.104zm0-21.612a4.052 4.052 0 1 1 0-8.104 4.052 4.052 0 0 1 0 8.104zm0-21.612a4.052 4.052 0 1 1 0-8.104 4.052 4.052 0 0 1 0 8.104zm0-21.613a4.052 4.052 0 1 1 0-8.104 4.052 4.052 0 0 1 0 8.104zm21.613 108.062a4.052 4.052 0 1 1 0-8.104 4.052 4.052 0 0 1 0 8.104zm0-21.612a4.052 4.052 0 1 1 0-8.104 4.052 4.052 0 0 1 0 8.104zm0-21.613a4.052 4.052 0 1 1 0-8.104 4.052 4.052 0 0 1 0 8.104zm0-21.612a4.052 4.052 0 1 1 0-8.104 4.052 4.052 0 0 1 0 8.104zm-102.226-40.709c-5.336-4.947-13.397-5.787-19.579-1.95-24.266 15.061-32.709 41.543-30.01 71.616.553 6.161 4.428 11.548 10.149 13.899 23.837 9.796 37.118 9.066 56.827 2.702 7.134-2.304 11.725-9.189 11.312-16.675-1.363-24.71-10.569-52.783-28.699-69.592zm16.875 35.046c0 3.793-6.15 6.868-13.736 6.868s-13.736-3.075-13.736-6.868 6.15-6.868 13.736-6.868 13.736 3.075 13.736 6.868zm-15.11 13.736c0 3.793-6.15 6.868-13.736 6.868s-13.736-3.075-13.736-6.868 6.15-6.868 13.736-6.868 13.736 3.075 13.736 6.868zm-13.736-34.34c7.586 0 13.736 3.075 13.736 6.868s-6.15 6.868-13.736 6.868-13.736-3.075-13.736-6.868 6.15-6.868 13.736-6.868zm-15.11 13.736c7.586 0 13.736 3.075 13.736 6.868s-6.15 6.868-13.736 6.868-13.736-3.075-13.736-6.868 6.15-6.868 13.736-6.868zm-13.736 34.34c0-3.793 6.15-6.868 13.736-6.868s13.736 3.075 13.736 6.868-6.15 6.868-13.736 6.868c-7.586.001-13.736-3.074-13.736-6.868zm28.846 20.605c-7.586 0-13.736-3.075-13.736-6.868s6.15-6.868 13.736-6.868 13.736 3.075 13.736 6.868-6.15 6.868-13.736 6.868zm15.11-13.736c-7.586 0-13.736-3.075-13.736-6.868s6.15-6.868 13.736-6.868 13.736 3.075 13.736 6.868-6.15 6.868-13.736 6.868z"/></svg>