<svg xmlns="http://www.w3.org/2000/svg" viewBox="0 0 320 320"><path d="M136.783 77.396c-1.131-.201-2 .218-2.517.884-6.266-.734-11.929 2.222-13.08 9.017-1.222 7.216 5.731 11.011 11.938 11.18 5.503.15 10.462-3.66 11.709-8.988 1.272-5.435-2.576-11.12-8.05-12.093zm109.852 64.64c5.897-16.345 5.955-34.427-2.07-51.358-7.298-15.396-20.297-27.137-35.609-34.268-7.898-3.678-16.094-5.436-24.727-6.117-7.16-.565-14.319-1.078-21.145 1.201-1.873-4.695-4.152-9.194-6.406-13.746-4.644-9.375-10.213-23.399-22.705-23.23-2.95-4.657-14.197-4.785-17.979-4.361-8.223.922-17.355 5.047-20.568 13.173-.318.803-.128 1.524.313 2.077-5.707 8.753-10.55 16.832-11.003 27.646-.142 3.385.184 6.714.773 10.008-11.126 5.505-22.687 12.172-30.213 22.262-3.909 5.241-6.643 11.107-9.236 17.079-2.689 6.194-5.932 12.24-8.12 18.629-4.298 12.553-2.654 26.423 4.185 37.678 6.356 10.461 15.556 20.445 26.437 26.163a89.31 89.31 0 0 0 7.022 3.289 2.431 2.431 0 0 0 2.064.842c9.256 3.649 19.275 6.132 28.72 8.081 6.799 1.403 13.792 2.326 20.82 2.922 1.872 7.001 4.829 13.844 7.222 20.669 2.706 7.72 4.787 15.84 7.981 23.366 3.587 8.45 9.602 15.442 17.709 19.019.957 4.724 2.665 9.251 4.599 13.658 2.058 4.689 3.966 9.568 7.917 12.992.773.67 1.595 1.218 2.45 1.676-2.966 1.102-5.068 2.987-3.848 6.054 2.146 5.395 7.734 4.761 13.035 2.998-1.753 3.656-2.031 8.034 2.144 9.323 5.033 1.554 9.136-4.784 10.605-9.785 2.827 3.785 7.821 8.347 11.689 5.318 2.809-2.2 2.524-6.515.649-9.171-.099-.14-.218-.27-.325-.406 2.707-.109 5.292-.812 7.344-2.717 4.716-4.38.552-8.794-4.087-10.14.453-.744.849-1.555 1.159-2.462 1.469-4.298.004-9.912-.495-14.284-.523-4.588-1.25-9.167-2.824-13.512 2.418-2.483 4.487-5.304 5.554-8.401 2.512-7.286-.827-13.514-.431-20.791 6.187-1.29 12.12-3.994 17.389-7.798 11.933-8.616 20.436-21.709 22.253-36.383 1.46-11.808 1.062-28.407-8.242-37.193zm3.702 20.78c-.051 0-.099-.011-.151-.007-1.926.155-4.151.531-6.046 1.41a40.794 40.794 0 0 0-.775-3.793c1.775-1.615 4.061-2.592 5.91-4.142.521 2.109.859 4.311 1.062 6.532zm-2.13-9.956c-.581-.061-1.185.146-1.681.55-1.434 1.171-2.92 2.174-4.227 3.416a37.752 37.752 0 0 0-1.068-2.705c-.027-.061-.062-.107-.092-.163a78.543 78.543 0 0 0 3.63-7.233c1.48 1.783 2.589 3.874 3.438 6.135zm-9.76-62.091c.117.138.239.251.363.352 6.755 12.722 8.232 26.628 5.444 39.974-6.09-1.472-11.636.261-14.2 6.706-2.196 5.521-1.059 14.578 2.909 19.186a79.328 79.328 0 0 1-2.74 3.734c-9.217 11.801-21.329 20.376-34.79 26.004 1.9-14.834.733-33.163-11.949-42.141 14.607-9.196 25.575-25.299 25.851-42.652.046-2.874-.398-5.476-1.225-7.818.307-.392.468-.924.343-1.569-1.081-5.591 7.656-7.078 11.576-7.75 6.574-1.13 14.011.793 18.418 5.974zm-62.753 111.792a25.26 25.26 0 0 1-1.74-3.72 119.733 119.733 0 0 0 7.619-1.653c-2.174 1.454-4.098 3.597-5.879 5.373zm10.14-3.374c.152-.11.274-.238.383-.373a41.686 41.686 0 0 0 2.663 2.593c-1.148 1.009-2.097 2.389-2.998 3.509-1.322 1.643-2.618 3.31-4.155 4.76-.05.047-.084.095-.126.143a30.984 30.984 0 0 1-4.107-4.514c1.176-.884 2.309-1.816 3.445-2.754 1.552-1.285 3.284-2.194 4.895-3.364zm-1.654 12.748c1.62-1.295 3.002-2.798 4.369-4.352 1.09-1.238 2.404-2.369 3.485-3.632 1.299.94 2.644 1.79 4.026 2.541-2.403 2.568-3.906 6.256-6.336 8.678-.043.043-.073.088-.11.132a38.358 38.358 0 0 1-5.434-3.367zm12.211.89c1.206-1.57 2.573-2.941 3.867-4.402.938.355 1.89.655 2.849.917-1.522 3.027-2.855 6.333-3.296 9.576a37.437 37.437 0 0 1-2.074-.483 40.248 40.248 0 0 1-4.832-1.619c1.306-1.199 2.398-2.572 3.486-3.989zm-8.257-17.528c1.223-.393 2.441-.801 3.649-1.238.905.136 1.826-.12 2.376-.89a102.223 102.223 0 0 0 9.25-4.155c.375 5.405 2.094 11.194 3.57 16.386a30.786 30.786 0 0 1-3.335-.572c-6.218-1.419-10.993-5.316-15.51-9.531zm-73.025-59.855c-1.622-4.606-3.646-9.029-5.668-13.467a158.766 158.766 0 0 1-3.008-7.092c1.099.172 2.204.278 3.149.448 3.136.563 6.261.932 9.43 1.258 7.026.722 14.09.528 21.015-.889 6.691-1.369 13.099-5.021 18.708-8.775 2.46-1.646 4.723-3.577 6.888-5.587 1.981-1.839 3.482-4.081 5.181-6.155 2.586 7.82 5.075 15.655 7.521 23.543.995 3.208 2.187 6.361 3.304 9.528a271.468 271.468 0 0 1 1.624 4.727c.404 1.215.501 3.884.965 1.84-.186.819-.025 1.521.327 2.081-5.536 4.429-11.838 7.094-19.068 9.126-13.934 3.916-28.91 7.038-43.523 5.914a23.304 23.304 0 0 0-1.361-2.876 2.705 2.705 0 0 0-1.143-1.866c-.251-.385-.503-.77-.769-1.151-.014-.02-.031-.034-.045-.053-.316-.941-.555-1.95-.76-2.531-.94-2.671-1.828-5.355-2.767-8.023zm.131 15.674a62.51 62.51 0 0 1-11.005-2.942c-7.889-2.92-16.047-9.595-16.874-18.456-.798-8.55 6.092-14.566 11.283-20.491a210.163 210.163 0 0 0 5.338 13.797c2.672 6.226 5.384 12.315 7.489 18.768.791 2.424 1.738 6.961 3.769 9.324zm70.263-29.3c-.54-1.54-1.073-3.083-1.575-4.636-1.964-6.072-3.496-12.274-5.536-18.334-1.6-4.753-3.347-9.459-5.013-14.191 6.748-1.608 14.191-1.118 20.544 1.708 8.484 3.774 10.876 11.915 9.391 20.596-.91 5.318-3.177 10.418-6.101 15.11-3.772-.898-7.862-.604-11.71-.253zm8.54 4.87a82.384 82.384 0 0 1-4.382 5.352c-.129.145-.261.279-.391.421-.386-1.305-.943-2.586-1.337-3.73-.328-.952-.661-1.902-.997-2.851 2.432.175 4.761.365 7.107.808zm-7.106-70.558c5.166.634 10.181 1.649 15.21 3.428 11.708 4.14 22.139 11.747 29.919 21.388-4.6-1.386-9.687-1.46-14.249-.539-4.622.933-11.113 3.375-12.934 7.878-5.523-6.939-15.373-10.2-24.874-9.907.225-7.459.55-17.763 6.928-22.248zm-6.057-.585c-4.633 6.016-5.126 16.061-4.645 23.135-1.56.207-3.093.512-4.577.917-.277-.841-.568-1.677-.833-2.522-2.144-6.837-3.793-13.816-5.969-20.645 5.178-1.606 10.635-1.296 16.024-.885zm-51.062-38.977c3.239 1.67-8.573 7.995-9.985 8.667-6.652 3.166-13.791 4.089-19.527-.475 5.014-9.265 20.396-12.892 29.512-8.192zM98.659 28.01c5.291 5.27 14.123 4.71 20.91 1.813 4.811-2.054 13.924-5.668 15.005-11.666 9.78 2.464 14.464 14.69 18.467 24.047-8.308 7.162-18.04 12.049-28.867 14.122-12.233 2.343-23.303-.85-34.058-6.379 1.067-7.844 4.966-14.68 8.543-21.937zm56.207 18.279l.166.349c5.725 11.786 7.694 24.923 11.956 37.231a805.525 805.525 0 0 1 2.369 6.969c-3.596 4.138-6.732 8.322-11.269 11.636-5.212 3.807-11.376 6.851-17.562 8.639-6.402 1.85-13.256 1.796-19.845 1.365-5.142-.336-10.719-1.979-15.922-1.967-2.696-7.329-4.936-14.829-6.885-22.384-2.701-10.467-7.061-20.763-7.948-31.606a29.908 29.908 0 0 1-.089-2.469c19.423 14.165 47.756 6.904 65.029-7.763zM59.405 89.59c6.498-9.514 17.226-15.977 27.12-21.795 1.669 6.717 4.119 13.315 5.763 19.946a248.355 248.355 0 0 0 4.917 17.215c-3.913 3.533-7.643 6.665-10.457 10.359-2.234-5.874-8.089-11.084-12.508-14.355-4.383-3.244-11.636-7.019-17.821-6.519a64.575 64.575 0 0 1 2.986-4.851zm12.936 90.591c-8.988-4.461-15.807-11.746-21.805-19.707.014-.007.027-.01.041-.018 3.962-2.189 7.568-5.857 7.74-10.639.134-3.723-1.498-7.086-4.275-9.521-3.667-3.215-8.959-3.881-12.278-1.332-.483-5.913.353-11.99 2.403-17.979 1.822-5.324 4.745-10.434 6.973-15.614a181.507 181.507 0 0 1 1.679-3.791c.296-.073.601-.191.912-.395 4.832-3.154 12.511.932 16.764 3.658 5.877 3.767 11.07 8.916 13.232 15.558-1.025 2.346-1.703 4.966-1.891 8.033-.461 7.514 4.137 13.935 9.82 18.581-6.775 1.356-12.729 7.169-16.035 12.869-3.502 6.042-4.733 13.475-3.28 20.297zm6.655 2.868c-2.886-6.611-1.96-13.976 1.298-20.432 3.644-7.22 9.415-10.145 16.7-11.899.099.058.199.123.299.18 9.913 5.711 22.603 6.27 33.749 6.679 13.328.489 26.258-3.167 38.941-6.856 3.325-.967 6.582-2.302 9.71-3.947 12.627 8.749 12.253 28.402 9.814 42.216-9.405 3.251-19.331 5.153-29.294 5.786-26.935 1.71-55.896-1.692-81.217-11.727zm97.338 113.509a3.35 3.35 0 0 1-.605-.519 3.6 3.6 0 0 1 .483-.335c.94-.564 2.028-.883 3.067-1.206 1.802-.561 3.749-1.041 5.623-1.29.059-.008.112-.025.168-.037a39.326 39.326 0 0 0 4.206-.506c.132.368.284.731.455 1.085-4.205 1.74-9.829 4.665-13.397 2.808zm11.601 8.839c-.104.031-.355.047-.466.008l-.038-.151c-.184-.695.276-1.714.482-2.354.563-1.751 1.524-3.298 2.463-4.863a67.643 67.643 0 0 1 2.261-.917c.119.07.249.119.373.18-.889 2.917-2.125 7.223-5.075 8.097zm7.937-13.014c-.047.202-.309.71-.287.684-.071.085-.469.365-.345.317-.318.123-.759.087-1.426-.297-.457-.263-.821-.66-1.121-1.107 1.131-.255 2.234-.523 3.293-.786-.004.397-.022.794-.114 1.189zm-.765-5.238c-6.707 1.562-14.652 3.826-20.446-1.229-3.123-2.724-4.652-7.646-6.327-11.323a221.034 221.034 0 0 1-4.339-10.13c1.231.348 2.495.636 3.806.831 12.067 1.789 26.183-.035 36.157-7.411a60.823 60.823 0 0 0 2.872-2.257c1.917 6.119 2.553 12.677 3.166 19.009.885 9.134-7.903 10.883-14.889 12.51zm10.78 15.271c-1.264.415-3.423-1.541-4.267-2.24-1.204-.996-2.375-2.149-3.322-3.417a5.724 5.724 0 0 0 1.3-1.515c2.066.352 4.024 1.265 5.593 2.657.814.722 1.401 1.608 1.44 2.712.016.45-.216 1.63-.744 1.803zm8.821-13.68c.173 2.014-2.424 3.115-3.91 3.527-1.701.471-3.545.503-5.379.364a15.016 15.016 0 0 0-4.793-1.82c-.02-.258-.039-.516-.086-.765 2.889-.787 5.717-1.769 8.054-3.368.335.103.716.141 1.153.076 1.528-.227 4.776-.164 4.961 1.986zm-3.359-48.809c-1.007 6.144-6.253 11.171-10.966 14.777-9.042 6.919-23.32 7.764-34.107 5.435-11.914-2.572-17.934-13.796-21.359-24.381-3.828-11.831-9.316-23.418-12.727-35.387 5.77.365 11.539.538 17.22.576 7.126.047 14.173-.449 21.074-1.514.805 3.415 2.316 6.454 4.299 9.153-3.25.673-6.187 3.463-7.782 6.154-2.341 3.952-2.189 9.61.874 13.135 3.672 4.226 10.378 5.656 15.456 3.195 4.465-2.163 6.67-6.279 6.641-10.811a54.357 54.357 0 0 0 5.345 2.104c5.333 1.771 10.791 2.239 16.126 1.644-.86 5.333.777 10.604-.094 15.92zm-7.203-20.385c1.194-2.96 2.047-6.24 2.846-9.404 1.633.218 3.283.288 4.937.211a19.588 19.588 0 0 0 1.308 8.288c.074.188.166.349.266.497-3.07.527-6.207.675-9.357.408zm8.1-14.065c-1.012-5.968-2.686-12.768-5.247-18.38a98.887 98.887 0 0 0 14.191-9.637c6.574-5.362 12.266-11.633 16.863-18.509 4.763 14.069-.232 29.977-11.149 39.868-4.415 4.001-9.326 6.191-14.658 6.658zm4.859 12.851a2.5 2.5 0 0 0-.005-.757c-.43-2.633-1.403-5.014-1.351-7.679a27.234 27.234 0 0 0 5.686-1.777c.561.983 1.175 1.941 1.712 2.935.696 1.288 1.13 2.875 2.141 3.942a38.146 38.146 0 0 1-8.183 3.336zm13.233-6.624c-.464.356-.936.697-1.412 1.03-.354-1.411-1.264-2.628-2.088-3.842a48.79 48.79 0 0 0-1.868-2.6 32.034 32.034 0 0 0 2.962-2.04 42.078 42.078 0 0 0 2.229-1.862c1.9.854 3.492 2.383 5.183 3.563.373.26.764.359 1.141.337a60.19 60.19 0 0 1-6.147 5.414zm8.277-7.699a1.726 1.726 0 0 0-.666-1.429c-1.499-1.221-3.018-2.358-4.709-3.216a43.126 43.126 0 0 0 2.331-2.783c2.308.743 4.292 2.142 6.562 2.983a51.976 51.976 0 0 1-3.518 4.445zm5.911-8.199c-.073-.044-.14-.091-.223-.128-2.014-.89-4.115-2.023-6.304-2.587a43.893 43.893 0 0 0 2.843-5.376c.109.028.22.054.341.067 2.254.242 4.224 1.092 6.338 1.749a45.232 45.232 0 0 1-2.995 6.275zm4.375-10.531a17.633 17.633 0 0 0-6.54-1.409 43.188 43.188 0 0 0 1.118-3.94c2.183-.038 4.347-.404 6.549-.364a42.477 42.477 0 0 1-1.127 5.713zm1.498-10.158c-.072-.003-.137-.016-.213-.013-1.941.083-4.021.212-5.954.704.313-2.339.409-4.705.322-7.07 1.807-.817 3.591-1.132 5.632-1.396.135-.017.267-.045.396-.077.059 2.719-.031 5.386-.183 7.852zM123.052 21.022c-4.55 2.116-11.81 6.361-16.75 3.611-1.467-.817-.713-2.89.809-2.986 5.212-.328 9.18-3.985 14.134-4.911 2.445-.457 4.37 3.095 1.807 4.286zm-.913 57.685c-3 0-3-4.358 0-4.358s3 4.358 0 4.358zm8-2.658c-3 0-3-4.045 0-4.045s3 4.045 0 4.045zm10-1.26c-3 0-3-4.026 0-4.026s3 4.026 0 4.026zm8 6.234c-2 0-2-3.987 0-3.987 3 0 3 3.987 0 3.987zm2 8.936c-2 0-2-3.85 0-3.85 3 .001 3 3.85 0 3.85zm-3.324 5.609c-.107-.025-.097-.037 0 0zm0 3.943c-.097.037-.107.025 0 0zm.104-.021a1.552 1.552 0 0 0-.104.021c.121-.047.369-.171.669-.446-1.363 1.248-3.683.418-3.683-1.525 0-1.943 2.32-2.774 3.683-1.525-.3-.275-.548-.399-.669-.446.028.006.059.013.104.021 1.939.323 1.939 3.576 0 3.9zm-8.78 4.58c-2 0-2-3.557 0-3.557 3 .001 3 3.557 0 3.557zm-12 .295c-2 0-2-3.146 0-3.146s2 3.146 0 3.146zm-7-6.161c-2 0-2-3.83 0-3.83s2 3.83 0 3.83zm-4-9.161c-2 0-2-3.518 0-3.518 3 0 3 3.518 0 3.518zm-66.13 42.26c-.146-1.078-1.173-1.682-2.158-1.77-.959-.086-1.791.719-2.059 1.567-.126.4-.092.866.019 1.263.072.258.197.491.354.698.048.094.097.186.14.283.374.826 1.501 1.167 2.317.943.834-.229 1.57-1.077 1.506-1.979-.022-.337-.073-.67-.119-1.005zm6.643.851c-.643-.082-1.262.362-1.701.774-.638.597-.738 1.629-.306 2.368.166.283.387.472.628.623.923.725 2.587.627 3.115-.554.189-.422.302-.684.318-1.156.042-1.225-.974-1.918-2.054-2.055zm8.775 9.159c0 .737-.4 1.433-1.036 1.805-.533.312-1.026.293-1.611.211a3.058 3.058 0 0 1-.474-.094c-1.901-.579-1.901-3.265 0-3.844.159-.048.311-.071.474-.094.766-.107 1.455-.042 2.034.538.391.39.613.925.613 1.478zm.712 11.326c-2 0-2-4.143 0-4.143 3 0 3 4.143 0 4.143zm-5 10.385c-2 0-2-3.4 0-3.4s2 3.4 0 3.4zm88.469 8.518c-2.338-3.678-7.384-6.016-11.603-4.466-1.272.467-1.721 1.642-1.564 2.692-2.351 3.238-2.182 7.348.441 10.496 2.52 3.025 6.685 4.549 10.323 2.607 4.187-2.235 4.758-7.625 2.403-11.329zm-13.524-7.677c-.046.289-.187.551-.359.789-.682 1.615-3.398 1.564-3.801-.292-.269-1.237.233-2.756 1.66-2.998.736-.125 1.426-.029 1.977.523.556.556.64 1.239.523 1.978zm7.055.218c-3 0-3-3.518 0-3.518 2 0 2 3.518 0 3.518zm8.495 4.491a2.163 2.163 0 0 1-1.74-.868c-.574-.556-.838-1.458-.63-2.214.271-.987 1.135-1.554 2.12-1.614 1.155-.071 2.098.811 2.417 1.851.431 1.404-.739 2.845-2.167 2.845zm4.505 6.47c-3 0-3-3.928 0-3.928s3 3.928 0 3.928zm.857 8.623l-.057.235c-.491 2.038-3.617 2.038-4.108 0l-.057-.235c-.332-1.377.653-2.77 2.111-2.77s2.443 1.393 2.111 2.77zm-8.857 5.998c-2 0-2-3.654 0-3.654 3 0 3 3.654 0 3.654zm-12.221-1.859l-.229.075c-1.321.434-2.684-.717-2.684-2.045 0-1.327 1.363-2.479 2.684-2.045l.229.075c1.945.641 1.945 3.301 0 3.94zm-5.012-8.912l-.056.235c-.473 1.963-3.484 1.963-3.957 0l-.056-.235c-.32-1.328.63-2.672 2.035-2.672s2.355 1.344 2.034 2.672zm-1.767-6.738c-3 0-3-3.654 0-3.654 2-.001 2 3.654 0 3.654zm98-13.772c-2 0-2-3.127 0-3.127s2 3.127 0 3.127zm-4-7.779c-2 0-2-3.576 0-3.576 3 0 3 3.576 0 3.576zm1-9.105c-3 0-3-4.377 0-4.377s3 4.377 0 4.377zm6-11.193v.5c0 1.129-.871 2.071-2 2.071s-2-.942-2-2.071v-.5c0-1.129.871-2.071 2-2.071s2 .942 2 2.071zm5-3.647c-3 0-3-3.713 0-3.713 2 .001 2 3.713 0 3.713zm6-.392c-2 0-2-3.928 0-3.928 3 0 3 3.928 0 3.928zm-72 80.068c-2 0-2-3.478 0-3.478s2 3.478 0 3.478zm-3.851 4.606a2.248 2.248 0 0 1-2.148 1.636c-.991 0-1.885-.68-2.148-1.636a2.103 2.103 0 0 1 .038-1.258l.028-.159c.359-2.07 3.805-2.07 4.164 0l.028.159c.132.387.161.811.038 1.258zm-1.863 9.163c0 1.029-.729 1.991-1.743 2.219-1.186.266-2.417-.409-2.748-1.611-.33-1.201.396-2.482 1.597-2.813 1.434-.394 2.894.718 2.894 2.205zm1.256 11.31c-.504.4-1.2.569-1.829.396-.809-.223-1.564-1.066-1.485-1.95.112-1.252.695-2.214 1.936-2.63 1.375-.46 2.795.753 2.795 2.129 0 .92-.596 1.731-1.417 2.055zm8.458 8.196c-3 0-3-4.495 0-4.495s3 4.495 0 4.495zm11 .536c-3 0-3-4.065 0-4.065 2 0 2 4.065 0 4.065zm9.159-7.035c0 1.451-1.549 2.862-3.03 2.308a20.913 20.913 0 0 1-.227-.085c-.974-.364-1.693-1.128-1.693-2.224 0-1.096.719-1.859 1.693-2.224l.227-.085c1.481-.552 3.03.859 3.03 2.31zm3.841-4.546c-3 0-3-4.416 0-4.416s3 4.416 0 4.416zm-14.83 54.545c-1.311-1.782-2.069-4.278-2.845-6.347-.713-1.902-1.312-3.844-1.425-5.882-.142-2.564 3.326-2.615 4.146-.561.804 2.013 1.512 4.035 2.453 5.996.76 1.586 1.773 3.189 2.101 4.927.524 2.781-2.798 4.087-4.43 1.867zm15.109-5.97c-.722-3.143-1.612-6.284-1.841-9.511-.171-2.417 3.427-2.729 4.088-.553.889 2.923 2.37 5.628 3.236 8.552 1.046 3.531-4.665 5.076-5.483 1.512zm70.894-244.203c-2.379-8.779-12.699-16.887-21.093-10.041-6.718 1.311-11.268 7.465-10.443 14.883.982 8.83 8.587 15.85 17.538 15.452 10.954-.488 16.718-10.258 13.998-20.294zm-16.73 15.295c-5.437-.785-9.368-5.964-10.062-11.188-.73-5.485 2.392-8.376 6.577-10.058.658.258 1.408.296 2.113-.033 14.932-6.985 20.471 24.037 1.372 21.279zm30.357 29.798c-3.952-3.223-9.711-3.197-13.225.64-1.001 1.093-.758 2.408.007 3.232-1.564 3.78-.453 7.963 2.958 10.562 3.61 2.751 8.88 2.548 11.727-1.173 3.165-4.134 2.572-9.966-1.467-13.261zm-1.982 10.656c-1.336 2.108-4.062 1.581-5.853.525-2.607-1.537-3.162-4.459-1.766-7.02.109-.2.167-.396.198-.587 4.655-3.651 10.761 1.811 7.421 7.082zM45.306 47.012c-.024 1.176.721 1.879 1.61 2.084.231 4.172 2.469 7.855 7.069 9.486 6.193 2.197 12.652-.388 15.151-6.493 6.721-16.419-23.49-21.86-23.83-5.077zm19.41 3.859c-1.189 3.741-5.685 4.634-9.016 3.802-3.951-.986-5.907-4.262-5.732-7.909 1.504-3.762 4.338-5.701 8.652-5.44 5.087.308 7.546 4.983 6.096 9.547zm182.229 185.275c-.714-4.37-5.46-6.716-9.456-5.369-1.037.349-1.515 1.142-1.558 1.955-3.116 1.147-4.195 4.496-3.446 7.682.917 3.9 4.692 6.074 8.507 5.242 4.342-.947 6.627-5.385 5.953-9.51zm-7.078 5.426c-3.568 1.113-5.074-4.765-2.049-6.391.048-.026.086-.057.129-.085.227.017.464.012.721-.042 4.762-.999 5.418 5.202 1.199 6.518zm37.243-109.265c-2.136-3.53-6.664-3.784-9.898-1.716-3.46 2.212-4.685 6.612-2.994 10.201-.002.323.128.642.445.889.022.017.046.028.068.045.015.023.026.047.041.069.512.774 1.225 1.066 1.908 1.028 2.629 1.069 5.659.777 8.229-.615 3.874-2.1 4.323-6.395 2.201-9.901zm-8.393 7.915a2.564 2.564 0 0 0-.201-.617c-.958-1.984-.53-3.838 1.083-5.28 1.388-1.242 3.297-1.213 4.349.365 2.326 3.491-1.842 5.763-5.231 5.532zm-168.531 75.623c-.085.052-.152.112-.227.169-11.033 3.738-2.74 20.488 7.512 17.532 12.2-3.519 4.361-24.797-7.285-17.701zm5.667 13.703c-2.795.852-5.414-1.801-6.643-3.977-1.317-2.331-.847-4.521.871-6.023.623.453 1.471.616 2.374.179 6.654-3.22 9.695 7.901 3.398 9.821z"/></svg>