<svg xmlns="http://www.w3.org/2000/svg" viewBox="0 0 320 320"><path fill-rule="evenodd" d="M181.006 191.555c1.232.062 2.395-.084 3.367-.639 1.093-.628 2.192-.952 3.413-.899.282-.366.421-.712.352-1.155l-.505-.934c-.049-.384.262-.553.277-.837-.112-.529-.222-1.058-.326-1.565-3.217-.978-10.085 1.58-11.188 3.629 1.724.409 3.506.73 4.61 2.4zm15.256-25.088a15.283 15.283 0 0 1-3.299 2.897c-1.762 1.146-3.375 2.488-5.158 3.809.928 1.12 1.086 2.558 1.979 3.697.586.743 1.232 1.516 1.424 2.615.139.798.515 1.708 1.025 2.322.297.174.496.158.681.101a12.603 12.603 0 0 0 2.979-1.351c1.086-.687 1.981-1.547 2.58-2.787.535-1.104 1.395-2.077 2.516-2.692-.037-.969.018-1.886.515-2.426.654-2.423.667-4.684.765-7.068-.659-1.009-.743-2.377-1.078-3.735-2.028 1.322-3.512 2.972-4.929 4.618zm-14.822 14.524c1.34-.058 2.573-.595 3.849-.813.309-.535.291-.883.079-1.267-.595-1.075-1.412-2.049-1.443-3.311-.813-.223-1.494-.103-2.045.249-1.047.663-2.203.987-3.36 1.342-1.478.451-2.904 1.077-4.493 1.11-.707.017-1.472-.066-2.217.513.56.527.674 1.208.687 1.857.809 1.075 1.576 2.095 2.3 3.052.456-.005.773-.102 1.009-.291 1.241-.998 2.827-1.291 4.169-2.075.449-.263.952-.344 1.465-.366zm-17.492-94.503c1.716.776 3.085 1.987 4.23 3.394 1.985 2.435 2.895 5.282 2.913 8.456.007 1.465-.026 2.966.233 3.806-.159 4.186-.406 7.777-.857 11.288.875.416 1.421-.24 2.077-.245 1.256.316 2.459.942 3.838.731.264-1.448.864-2.7.804-4.135-.06-1.392-.203-2.814.253-4.147-.082-.494-.249-.905-.154-1.414.221-1.173.038-2.375-.028-3.558-.053-.941-.115-1.847.112-2.786.205-.848.322-1.75.273-2.616a5.853 5.853 0 0 1 .17-1.838c.299-1.166 1.009-2.206 1.309-3.319.416-1.542 1.346-2.629 2.38-3.646 1.426-1.398 2.765-2.831 3.572-4.716-.251-1.353-1.368-1.777-2.278-2.425-1.018-.724-2.162-.832-3.344-.861-.461-.012-.844.151-1.128.522-.906 1.189-1.776 2.444-2.001 3.926-.159 1.065-.562 2.012-.892 3-.163.481-.421 1.003-.928 1.158-.641.195-1.049.641-1.461 1.067-1.505.124-2.346-.742-3.045-1.858-.888-1.415-1.52-2.963-2.293-4.436-.441-.844-1.316-1.347-1.562-2.107-1.67-1.058-3.063-1.081-4.189.879-.031.245-.083.752-.404 1.178-.145.192-.179.431-.166.673.101 1.827.881 3.264 2.566 4.029z"/><path fill-rule="evenodd" d="M147.028 124.869c1.406 1.553 3.064 2.798 4.626 4.138 1.491 1.277 3.346 2.102 5.094 3.046 1 .538 2.114.741 3.093 1.306.919-.019 1.782.405 2.666.487 2.082.193 4.177.35 6.277.29.778-.022 1.622.293 2.325.08 1.082-.33 2.166-.207 3.241-.34.888-.11 1.824-.017 2.659-.272.763-.234 1.481-.4 2.283-.38.611.016 1.232-.087 1.849-.235 1.478-.353 2.981-.557 4.409-.28 1.446-1 3.096-1.381 4.689-2.178.189-.862 1.179-1.107 1.804-1.703 1.232-1.177 1.89-2.721 2.913-4.022.562-.715.853-1.655 1.562-2.086.359-.459.17-.895.359-1.27.185-.174.381-.361.676-.636-.335-.568.13-.961.438-1.401.271-.388.621-.755.659-1.231.121-1.49.297-2.989.251-4.48-.077-2.693-.582-5.331-1.366-7.912a6.263 6.263 0 0 0-.452-1.077c-.624-1.208-1.214-2.408-2.159-3.444-.83-.908-1.661-1.831-2.43-2.795-.707-.89-1.769-1.268-2.582-1.979-2.058-1.794-4.618-2.111-7.203-2.678-.299 2.289-.71 4.415-.822 6.563.573.179 1.033.216 1.505.239 1.677.084 3.111.82 4.25 1.979.725.742 1.531 1.425 2.157 2.272.824 1.112 2.056 1.889 2.527 3.306.229.682.157 1.381.388 2.06.48 1.425.586 2.928.427 4.413-.245 2.293-.731 4.467-2.018 6.523-.914 1.467-2.047 2.574-3.415 3.394-1.329.797-2.699 1.582-4.153 2.167-1.87.755-3.788 1.365-5.936 1.612l-.983.747c-1.989-.214-4.036.748-5.964-.052-1.556.602-3.135.433-4.603.265-5.729-.65-10.735-2.944-14.868-7.118-.403-.905-.497-1.985-1.082-2.891-.169-.262-.157-.591-.123-.916.147-1.416.312-2.832.401-4.252.071-1.151.199-2.256.917-2.959.626-2.421.131-5.012 2.421-6.583l-.045-.97c.289-.292.457-.638.65-.979.571-1.009 1.045-2.108 2.172-2.681.488-.249.947-.556 1.414-.841 1.713-1.046 3.635-1.127 5.536-1.027.762.038 1.522.127 2.373.122.209-1.123.009-2.12-.47-3.083-.654-1.315-1.95-1.432-3.149-1.7-.656-.016-1.221.298-1.829.44-2.18.51-4.547.446-6.417 2.13-.709 1.031-1.64 2.021-2.636 2.954-.542.506-1.165.95-1.61 1.532-1.3 1.7-2.535 3.451-3.785 5.193-.615.858-1.241 1.712-1.795 2.608-.666 1.081-.712 2.388-1.186 3.539-.894 2.174-.506 4.33.21 6.414.835 2.451 2.083 4.671 3.86 6.632z"/><path fill-rule="evenodd" d="M138.426 125.468c.557 2.731.39 5.491.204 8.245-.046.684-.16 1.403-.159 2.048.006 1.242-.091 2.499.043 3.734.104.962.283 1.933.791 2.805 1.267 2.177 3.048 3.891 4.947 5.491.409.345.823.685 1.292.981 1.059.667 2.243 1.087 3.286 1.758 2.944 1.891 6.269 2.725 9.588 3.624 1.317.357 2.742.206 3.924.909.919-.189 6.55.284 7.28.592 1.469-.713 2.919-.12 4.4.011.375-.138.769-.331 1.187-.423 2.51-.554 5.085-.689 7.625-1.076 1.652-.253 3.355-.302 4.774-1.359.406-.3.87-.276 1.249-.225 1.088-.977 2.119-1.864 3.311-2.194 1.555-3.782 4.056-6.951 5.142-10.723.218-.245.589-.191.643-.524.405-3.75 1.062-7.478 1.075-11.291-.487.442-.868.915-1.225 1.405-.982 1.362-1.972 2.776-3.34 3.726-1.489 1.035-2.772 2.323-4.545 3.049-1.52.625-3.08 1.091-4.634 1.509-1.329.359-2.763.41-4.151.625-2.111.327-4.283.26-6.337.979-.178.063-.388.052-.582.054-2.369.037-4.737.058-7.105.106-1.5.029-2.981-.125-4.409-.541-2.201-.639-4.544-.467-6.715-1.466-1.282-.59-2.5-1.024-3.153-2.358-.026-.055-.133-.071-.235-.122-.754.341-1.305.016-1.969-.461-1.498-1.074-2.771-2.415-4.283-3.452-1.174-.804-2.171-1.725-2.552-2.813-2.429-1.853-3.806-4.002-4.055-6.699-.32-.354-.536-.635-.886-.819-.226.227-.232.428-.285.613-.269.931.049 1.858.024 2.79-.018.506-.276.946-.165 1.492z"/><path fill-rule="evenodd" d="M160 10C77.159 10 10 77.157 10 160c0 82.842 67.159 150 150 150 82.842 0 150-67.158 150-150 0-82.843-67.158-150-150-150zm30.328 48.255c.348-1.858.108-3.812 1.071-5.57.302-.555.394-1.249.483-1.895.234-1.697 1.289-2.998 2.113-4.404.315-.534.807-.956 1.175-1.461.622-.855 1.382-1.471 2.459-1.643.353-.055.656-.258.928-.488.41-.352.974-.562 1.406-.482.945.171 1.776-.178 2.649-.319.555-.087 1.095-.136 1.622.066.503.192 1.005.094 1.527.038 2.789.947 5.1 2.359 5.446 5.803-.85.959-.699 2.65-2.241 3.457-2.109.042-4.222.777-6.392 1.202-1.685.328-2.856 1.288-3.525 2.942-.917 2.275-1.556 4.63-2.223 6.982-.022.073-.059.158-.044.228.366 1.64-.535 3.039-.884 4.537-.198.853-.921 1.402-1.339 2.03-1.536 0-3.166-1.372-3.618-2.824-.467-1.509-.553-3.063-.555-4.611-.001-1.198-.285-2.38-.058-3.588zM157.323 26.18c1.055-.485 2.025-.996 3.042-1.387 1.171-.449 3.398-.43 4.31 1.13.69.311 1.641.266 2.078.955.831 1.306 1.998 2.42 2.49 3.919.346 1.066.707 2.173.271 3.321a1.028 1.028 0 0 0-.002.69c.185.578.185 1.197.071 1.746-.368 1.745.106 3.407.423 5.069.22 1.165.322 2.334.313 3.493-.013 2.012.447 3.961.597 5.947.073.957.599 1.85.395 2.874-.315 1.613-.712 3.2-1.481 4.657-.569 1.075-1.719 1.426-2.882.968-.324-.128-.632-.307-1.007-.494-.341-.896-.599-1.716.073-2.468-.46-1.16-1.593-2.146-.656-3.472-.352-1.131-.646-2.217-.696-3.362-.029-.641-.416-1.171-.771-1.689-.862-1.259-1.769-2.498-1.855-4.211-1.1-.28-1.493-1.183-1.933-2.132-.602-1.303-1.48-2.479-2.065-3.787-.843-1.899-1.963-3.735-1.63-5.992a5.721 5.721 0 0 0-.291-2.748c.225-1.128.895-2.035 1.206-3.027zM128 57.189v-1.312c0-1.114 1.163-1.572 2.134-2.069.789-.406 1.362-.766 2.269-.734.787.029 1.409.214 1.947.821 1.931-.522 3.377.502 4.674 1.569 2.221 1.829 4.39 3.766 6.012 6.165 1.488 2.2 2.519 4.644 2.963 7.312.169 1.025.553 2.008.638 3.062.12 1.472.299 2.94.456 4.409.233 2.205-.57 4.226-1.112 6.292-.039.153-.085.302-.158.548l-.895.602c-1.867.146-1.868.146-2.717-.454.266-1.061-.417-2.048-.351-3.13.067-1.12-.207-2.216-.326-3.313-.087-.789-.188-1.66-.722-2.414-.692-.975-1.4-1.975-1.758-3.244-1.79-1.209-3.167-2.96-4.748-4.502-.896-.872-2.011-1.483-3.094-2.082-1.025-.57-2.082-1.062-2.987-1.829-.198-.168-.493-.222-.706-.314-.736-1.285-2.081-1.84-2.423-3.389-.127-.759-.096-1.448.904-1.994zm135.855 110.349c.029 2.073-.145 4.14-.075 6.207.071 2.087-.381 4.116-.542 6.176-.143 1.875-.582 3.699-.805 5.561-.482 4.027-.588 8.095-1.412 12.087-.619 2.985-.961 6.024-1.556 9.016-.639 3.182-1.111 6.403-1.829 9.564-.483 2.122-1.104 4.228-1.987 6.246-.529 1.212-.83 2.522-1.294 3.765-.877 2.342-1.65 4.724-2.65 7.022-.703 1.613-1.639 3.102-2.355 4.713a232.095 232.095 0 0 0-2.759 6.462c-.571 1.406-1.318 2.743-1.93 4.136-1.172 2.675-2.798 5.039-4.618 7.313-1.144 1.426-2.073 3.032-3.086 4.563-.822 1.247-1.822 2.333-2.845 3.418-1.198 1.267-2.397 2.52-3.378 4.005-1.542 2.329-2.937 4.779-4.817 6.876-1.06 1.187-2.26 2.259-3.272 3.486-1.126 1.368-2.41 2.565-3.682 3.778-1.159 1.106-2.298 2.27-3.62 3.148-.989.656-1.904 1.452-3.036 1.91-.718.291-1.45.617-1.921 1.205-1.348.161-2.386.961-3.53 1.32-.192-.172-.013-.381-.295-.493-.732 1.117-2.007 1.52-3.168 1.921-1.179.408-2.472.714-3.845.432-.249.077.117.469-.143.533-.377.348-.84.267-1.166.207-1.364-.242-2.516.482-3.774.674-1.022.158-2.005.454-2.996.694-1.326.324-2.706.341-3.999.875-.7.287-1.529.266-2.285.379-.339-.143-.225-.588-.533-.762-.714.022-.767.646-.989 1.161-.862-.288-1.6.251-2.393.326-.174-.3.234-.284.174-.582-.707-.269-1.417.654-2.237.04-.15-.357.134-.897-.278-1.424.727-.114 1.199-.405 1.463-.98-.617-.222-1.633.016-2.767.637-.137.617.564.892.619 1.458-.502.456-.914.075-1.373-.192-.782.947-1.441.102-2.217-.189-.515.055-1.099.113-1.522.159-1.126-.302-2.104-.595-3.142-.553-.262-.13-.112-.319-.095-.5.015-.17-.136-.267-.28-.366-1.393.828-2.736.342-4.248-.218-.448.049-1.071.064-1.589-.097-.408-.269-.022-.564-.187-.853l-.612-.258c-.573.007-.791.461-1.148.643-.842-.044-1.565-.302-1.987-.732-3.648-.78-6.8-2.184-9.736-4.166l-.774.234c-.89-.644-1.629-1.501-2.726-1.651l-.731-1.342c-1.308-.009-2.085-1.329-3.426-1.324-1.255-1.465-3.28-2.212-3.805-4.325-.263-.287-.683-.025-.944-.207-.769-.665-.549-1.443-.384-2.122-.068-1.035-1.03-1.181-1.486-1.672-.094-.557.376-.628.557-.91-.066-.385-.163-.769-.059-1.157-.776-.886-1.484-1.771-1.318-3.032.038-.289-.15-.52-.274-.763-.126-.245-.263-.507-.216-.784.31-1.76-.308-3.428-.498-5.138-.029-.269-.205-.606-.101-.797.494-.91.174-1.767-.144-2.589-.6-1.551-.152-3.109-.118-4.656.03-1.254-.194-2.476-.256-3.713-.014-.266-.21-.537-.116-.802.434-1.245.153-2.582.551-3.807-.43-1.632-.536-3.256-.239-4.836.058-.456-.406-.632-.385-1.018-.063-.375.235-.65.306-1.035-.62-.981-.406-2.151-.277-3.169.133-1.067-.466-2.217.347-3.146-.308-1.296-.195-2.532-.206-3.778-.01-1.304.506-2.886-1.016-3.97l-10.172-1.009c-.699.458-.82 1.194-1.465 1.815-3.432.985-6.799.568-9.895-1.626-.178-.156-.375-.103-.567-.088-.153.015-.304.047-.407.064-.101.097-.194.141-.208.203-.26 1.247-1.293 1.862-2.191 2.501-2.862 2.036-5.711 4.085-8.81 5.779-2.325 1.267-4.714 2.455-6.846 4.061-.753.566-1.58 1.016-2.433 1.414-.354.167-.686.359-.981.634-.742.701-1.554 1.15-2.62 1.399-1.103.258-2.207.784-3.261 1.271-.765.353-1.563.377-2.323.575-.622.161-1.287.224-1.849.476-1.12-.194-2.102-.846-3.146-.515-1.036-.665-1.692-1.445-1.693-2.514-.27-.425-.768-.19-.966-.568-.14-.386.308-.619.277-.985-.461-1.556-.05-3.116.012-4.673.059-1.505.878-2.895 1.042-4.537-1.499.198-2.706-.249-4.003-.154-.603-.941-2.209-.436-2.498-1.809l-.966-.339c-.126-.622-.748-.963-.966-1.672.257-.775-.135-1.558-.261-2.384-.203-1.348.127-2.701.771-3.953.44-.859.878-1.725 1.069-2.69.126-.645.635-1.143.72-1.817.043-.346.215-.679-.019-1.002-.937-.624-2.099-.106-3.062-.624-.2-.287-.399-.577-.642-.928-1.408-.467-2.408-1.564-3.496-2.902-.869-1.807-.023-3.684.696-5.517.622-1.588 1.241-3.21 2.458-4.493.241-.256.263-.648.133-1.154-.965-.614-2.161-.76-3.453-.987-.701-.895-2.166-.901-2.794-2.027-.183-.373-.046-.723-.016-1.034-.05-.108-.061-.207-.118-.244-.764-.526-.872-1.243-.625-2.075.09-.3.233-.606.23-.908-.022-2.102 1.283-3.637 2.212-5.343.618-1.132 1.403-2.131 2.143-3.003.056-.54-.148-.829-.352-1.113-1.34-.701-2.445-1.58-2.724-3.378-1.275-.703-1.379-2.346-2.049-3.64-.237-.46-.095-1.08.307-1.575-.567-1.044-.299-2.016.116-3.045.438-1.077.945-2.133 1.239-3.276.152-.593.551-1.137 1.047-1.533.66-.533.924-1.34 1.442-1.972.236-.291.268-.73.233-1.231-.919-.688-.641-1.849-.938-2.879.701-.755.763-1.664.531-2.618-.097-.399-.04-.773.048-1.158.429-1.913 1.392-3.541 2.673-4.995.37-.419.537-.946.81-1.406 1.219-2.058 2.648-3.78 5.186-4.48 1.627-.447 3.18-.06 4.749-.286.665-.096 1.151.474 1.754.581 2.057.364 4.022.972 5.879 1.935.277.143.575.235.899.25.849.039 1.61.299 2.024.808 4.625 1.676 8.598 4.105 12.339 6.708 1.154-.014 1.58-1.314 2.674-1.036.307-.543.613-1.04 1.19-1.146 1.128-.204 2.036-.917 3.102-1.299a46.978 46.978 0 0 1 5.691-1.624c1.977-.439 3.982-.572 6.005-.332.928.108 1.753.397 2.345 1.078.346.262.024.66.353.962.364.238.795.558 1.238-.148-.1-.491-.668-.862-.459-1.667.304-.617.773-1.417.355-2.342l.44-.972c-.658-.778.009-1.405.372-2.128-.013-1.63.21-3.244 1.141-4.425.305-.558-.118-.76-.105-1.158 1.077-2.456.909-5.353 2.161-7.874.087-1.244.471-2.455 1.049-3.581.578-1.123 1.297-2.173 1.972-3.244.206-.348-.27-.528-.235-.866.494-1.316 1.257-2.498 1.981-3.698.286-.472.721-.821 1.299-.714.313-.298.465-.61.624-.927.359-.716.899-1.268 1.634-1.61 1.137-.527 2.165-1.226 3.143-2.001.367-.288.732-.599.938-1.036.84-1.796.837-1.797 2.609-2.092.931-.787 1.08-2.025 1.622-3.045.166-.311.268-.656.538-.895.521-.46.833-1.015.938-1.712.059-.39.329-.704.571-1.014.531-.678.95-1.426 1.404-2.155.55-.881 1.333-1.604 1.894-2.508 1.784-2.881 4.619-4.83 6.715-7.444.242-.302.575-.522.929-.705 1.452-.749 2.885-1.534 4.548-1.723.181-.021.348-.162.526-.25-.051-.769-.404-1.369-.82-1.934-.615-.835-.689-1.742-.66-2.772.067-2.347 1.381-4.271 1.947-6.461.8-.497 1.291-1.239 1.604-1.994.291-.317.638-.309.875-.438.231-.278.176-.657.311-.744.633-.486 1.229-.672 1.791-.696 1.185-.05 2.357.007 3.525.434 2.346.855 3.928 2.585 5.464 4.403.101.119.179.256.28.373.049.056.134.08.271.157.874-.552 1.3-1.486 1.738-2.377.573-1.168 1.285-2.216 2.248-3.132 2.483-.483 4.933-.478 7.361.399 2.335.844 4.155 2.282 5.453 4.386.35.563.681 1.146 1.04 1.695.698 1.078.538 2.075.016 3.105-.853 1.689-2.093 3.102-3.289 4.544-.32.391-.661.764-.8 1.293.659.627 1.533.645 2.28.939 2.56 1.003 4.642 2.659 6.544 4.602 1.827 1.866 3.768 3.659 5.262 5.788 1.148 1.641 2.141 3.467 2.459 5.533.114.732.194 1.476.518 2.141.26.221.536.141.8.092 1.613-.297 3.224-.592 4.836-.902a10.703 10.703 0 0 1 2.672-.157c3.585.24 7.154.574 10.622 1.706 2.153.702 4.25 1.595 6.445 2.14 2.547.632 4.94 1.718 7.454 2.412 2.796.774 5.226 2.138 7.579 3.781 1.199.841 2.6 1.424 3.792 2.307 1.036.767 2.027 1.575 2.785 2.657.665.952 1.621 1.638 2.25 2.676 1.133 1.867 1.641 3.955 2.457 5.931.429 1.041.965 2.053 1.099 3.203.046.395.28.733.516 1.047.738.982 1.084 2.065.846 3.351.683.758.917 1.721 1.157 2.719.234.976.487 1.959.884 2.899.67 1.585 1.273 3.209 1.615 4.892.41 2.019.815 4.046 1.231 6.059.375 1.795.763 3.583 1.047 5.395.152.966.304 1.925.194 2.912-.07.663 0 1.324.194 1.978.234.79.154 1.61.166 2.432z"/><path fill-rule="evenodd" d="M195.673 207.899c-.683-1.199-1.798-2.038-1.886-3.417-2.3.531-5.621 2.065-7.676 3.563 2.853 1.168 5.391 2.593 8.126 4.122.152-1.716.094-3.247 1.436-4.268z"/><path fill-rule="evenodd" d="M142.162 221.668c.89-.346 1.799-.394 2.671-.423a10.39 10.39 0 0 1 4.343.776c.592.245 1.148.256 1.706.009.999-.44 2.035-.478 3.104-.423 2.429.128 4.842.018 7.22-.542 1.078-.255 2.152-.427 3.172-.07.807-.348 1.558-.584 2.355-.441.668.119 1.326.022 1.987.009 1.24-.015 2.503-.225 3.737.28.633-.145 1.262-.062 1.932.077.998.203 1.937.588 2.93.791.419.086.85.302 1.267.174.947-.286 1.858-.035 2.77.113 1.293.207 2.565.244 3.814-.163.678-.222 1.366-.154 1.963.07.569.214 1.025.181 1.542-.055.221-.397.45-.806.69-1.241a6.136 6.136 0 0 1 .434-2.142c.282-.709 1.188-.899 1.366-1.639-.478-.701-1.26-.718-1.868-1.051-.947-.522-1.86-1.102-2.798-1.639-1.648-.943-3.543-.883-5.339-1.234-1.881-.368-3.944-.267-5.31-2.005-.046-.057-.139-.071-.234-.119-.56-.082-1.146-.092-1.725.059-1.512.394-3.091.641-4.525 1.229-2.016.831-4.054.586-6.112.581-1.304-.004-2.596-.3-3.929.161-.97.333-2.01.049-2.812-.782.01-.507-.243-.996-.058-1.512.108-.355.571-.428.647-.806.106-.304-.155-.619.09-1.007 1.662-1.421 3.7-1.729 5.846-1.37 1.139.189 2.245.049 3.365.057 1.553.007 2.976-.622 4.479-.815 1.331-1.099 2.324-1.256 4.166-.652.355-.125.606-.445.991-.577 1.41-.487 2.847-.808 4.349-.833 1.3-.02 2.532-.194 3.67-.996.784-.555 1.6-1.141 2.545-1.434a41.528 41.528 0 0 0 7.244-3.027c.469-.91 1.597-1.274 2.419-2.179-.185-.571.452-.817.63-1.293.773-2.516 1.353-5.076 2.122-7.557-.635-.871-.705-1.875-1.06-2.811-1.163.414-2.188.982-3.203 1.547-.963.536-1.654 1.404-1.769 2.477-.159 1.457-.83 2.638-1.604 3.799a2.844 2.844 0 0 1-1.897 1.258 9.325 9.325 0 0 0-2.64.943c-1.238.67-2.556 1.181-3.968 1.39-.353.055-.696.146-.978.372-1.723 1.382-4.433 1.368-6.427-.465a2.223 2.223 0 0 0-1.595-.613 10.13 10.13 0 0 1-1.168-.059c-1.589-.176-3.195-.09-4.775-.053-2.016.044-4.014.158-6.033-.049-.614-.064-.986-.542-1.614-.505-1.351.075-2.579-.923-3.931-.469a2.73 2.73 0 0 1-.878-.652c-.124-.348-.27-.674-.358-1.011-.418-1.622.784-3.314 2.307-2.99.999.212 1.994.179 2.98.313 1.613.22 3.197.786 4.863.59.71-.083 1.401.022 2.159.269 1.119-.818 2.596.09 3.809-.709.223-1.511-.743-2.728-1.009-4.21-.168-.232-.399-.546-.652-.89.042-1.1-.46-2.021-1.088-2.858-.016-.709-.051-1.375-.48-1.817-.097-.901.419-1.721-.081-2.477-.341-.231-.677-.313-1.024-.399-1.194-.289-2.468-.242-3.585-.868-.225-.128-.535-.101-.802-.156-.729-.148-1.496-.201-2.156-.546-.981-.513-2.02-.544-3.07-.496-1.395.068-2.53-.731-2.919-2.133.248-.45.615-.899.356-1.425.759-1.261.911-1.52 1.455-1.529 1.705-.038 3.401-.218 5.114.198 2.228.54 4.341 1.549 6.669 1.692.452.026.793.326 1.236.405 1.112-.154 2.236-.315 3.356.057.143.048.313.027.465.007 1.271-.178 2.536-.317 3.765-.789.793-.306 1.527-.742 2.386-.932 1.901-.421 3.803-1.029 5.325-2.228 1.849-1.458 4.014-2.414 5.827-3.9.317-.26.712-.293 1.036-.465.205-.309.362-.604.615-.868 1.349-1.399 2.932-2.541 4.169-4.076 1.666-2.065 3.129-4.26 3.728-6.817.476-2.033 1.002-4.081 1.221-6.18.088-.853.156-1.668-.26-2.593-1.13 1.794-1.749 3.706-2.827 5.379-1.082 1.676-2.113 3.371-3.75 4.614-.822.626-1.809.95-2.604 1.578-1.419 1.123-2.876 2.122-4.708 2.253-.672.896-1.69.806-2.563 1.066-.85.253-1.741.11-2.631.364-1.181.333-2.487.561-3.679.515-1.372-.053-2.679.282-4.028.275-.732-.005-1.556-.173-2.186.037-1.527.506-3.025-.08-4.532.14a5.926 5.926 0 0 1-1.62.008c-1.967-.274-3.935-.526-5.905-.786-.813-.106-1.663-.102-2.216-.825-.468.279-.864.3-1.309.177-.566-.157-1.115-.35-1.674-.524-1.183-.366-2.172-1.154-3.476-1.301-2.235-.251-3.991-1.537-5.658-3.083-.599.386-.831-.398-1.346-.478-.926-.142-1.593-.701-2.291-1.312-1.496-1.309-2.686-2.936-4.33-4.084-.495-.347-.787-.919-.92-1.472-.166-.696-.565-1.174-1.066-1.594-.837-.704-1.428-1.463-.902-2.497-.102-.49-.467-.349-.672-.488.698-1.892.415-11.908.222-14 .168-.488.218-1.002.387-1.486-.08-.734-.551-1.386-.551-2.057v-4.965c0-.225-.434-.27-.716-.192-2.154 1.008-2.747 3.136-3.708 5.021-.972 1.908-1.889 3.843-1.48 6.066-.259.452-.474.859-.699 1.256-.077.353.19.7-.029 1.092-.108.273-.511.266-.738.528-1.214 4.775-3.006 9.426-3.047 14.622l.667 1.77c-.233 2.208-.281 2.32-1.694 3.867-.162.179-.304.353-.353.595-.113.562-.513.833-1.001 1.062-.896.421-1.815.682-2.812.747-2.086.135-4.086.723-6.047 1.386-2.299.775-3.441 2.839-4.821 4.612-.609.78-.708 1.846-1.283 2.626-.677.917-.984 1.994-1.204 3.018-.476 2.21-.813 4.47-.941 6.724-.084 1.498-.14 3.045.219 4.55.561 2.355 1.099 4.713 1.675 7.189.715.203.851.839.905 1.542.02.267.145.524.221.787.657 2.271 1.945 4.25 2.961 6.358.251.52.482 1.04.663 1.6.384 1.188.809 2.397 1.457 3.45 1.234 2.007 2.106 4.186 3.082 6.302.898 1.936 1.788 3.898 2.54 5.909.438 1.168 1.04 2.26 1.452 3.452.306.888.53 1.919 1.304 2.582.881.756 1.78 1.694 3.064 1.399 1.064-.245 2.022-.09 2.988.249.904.315 1.847.333 2.774.368 1.634.062 3.281.049 4.862.478 1.934.522 3.901.672 5.879.738.694.025 1.394-.176 2.022.155z"/><path fill-rule="evenodd" d="M257.538 157.438c-.352-1.697-.91-3.376-1.223-5.077-.379-2.055-1.09-3.988-1.697-5.962-.571-1.872-1.172-3.739-1.63-5.64a24.268 24.268 0 0 0-1.188-3.653c-.982-2.376-2.058-4.723-2.401-7.277-1.102-1.36-1.707-2.99-2.721-4.377-.743-1.015-1.492-1.978-2.421-2.839-.969-.894-2.128-1.444-3.221-2.118-2.523-1.552-4.885-3.382-7.852-4.124-2.532-.635-5.023-1.439-7.529-2.164-2.146-.619-4.321-1.147-6.429-1.873-2.238-.771-4.495-.924-6.819-.742-1.756.135-3.484.321-5.206.762-1.066.272-2.129.452-2.93.93-.754.857-.626 1.811-.903 2.768.298.353.051 1.027.269 1.327.855 1.178.416 2.586.851 3.818.154.438.037.923.046 1.38.015.795-.284 1.534-.287 2.292-.009 1.943-.39 3.878 0 5.962.688.468.685 1.39.707 2.223.027.885.297 1.701.536 2.509.185.605.308 1.195.379 1.819.192 1.656.223 3.322.319 4.985.048.859.053 1.706.018 2.563-.049 1.223-.591 2.356-.591 3.584 0 1.118-.386 2.143-.888 3.189.335.954-.291 1.845-.333 2.813.615 1.047.992 2.171.989 3.446.575.689.89 1.502.897 2.444.004.506.19.992.32 1.487.211.822.586 1.598.626 2.474.115 2.538-.44 5.008-.839 7.482-.322 2-1.082 3.896-2.078 5.687-.306.546-.623 1.08-.954 1.609-.388.615-.829 1.245-.758 2.126.593.632.747 1.439.641 2.342-.159 1.344-.137 2.704-.225 4.052-.079 1.174-.103 2.322-.474 3.444-.049.145-.038.311-.049.467-.121 1.86-.67 3.563-1.63 5.178-.471.797-1.013 1.604-1.276 2.486a13.823 13.823 0 0 0-.515 5.189c.187 2.003.346 4.021.853 5.988.266 1.036.119 2.023-.778 2.778-.234.196-.414.456-.619.69.152.385.302.74.743 1.029.454.015.976.174 1.437.483.317.211.661.207 1.015.231 1.952.125 3.854.467 5.638 1.32.54.262.84.643.985 1.225.672 2.705-.677 5.713-3.356 6.912-1.595.716-3.029 1.791-4.68 2.119-.701.846-.513 1.712-.436 2.567.242 2.686-.218 5.385.147 8.066.015.115-.006.236-.018.352a10.262 10.262 0 0 0 .33 3.961c.341 1.176.192 2.247-.077 3.344-.15.612-.253 1.218-.317 1.846-.077.76-.046 1.582-.656 2.146-.41.143-.723-.211-1.203-.029-.458.352-1.216.339-1.729.815-.696-.385-1.249-.797-1.447-1.518.143-.787.612-1.47.524-2.289-.156-1.353-.362-2.71.132-3.988-.798-1.763-.617-3.631-.586-5.363.039-2.093-.207-4.204.128-6.303.136-.86.022-1.763.022-2.758-2.212-.28-4.47-.364-6.692-.742-1.527-.258-3.096-.167-4.664-.088-1.987.103-3.99-.128-5.988-.192-.784-.024-1.553-.073-2.316-.306-2.717-.828-5.528-.926-8.342-.991-1.108-.026-2.173.317-3.241.31-1.822-.016-3.56.483-5.349.58-2.414.134-4.794.615-7.25.412-1.392-.114-2.79-.313-4.195-.31-1.598.005-3.195.002-4.829.002-.775.45-1.355 1.205-2.092 1.78-.809.634-1.928.421-2.79 1.271.083 1.139-.312 2.364-.267 3.591.067 1.829.29 3.651.119 5.486-.136 1.45-.156 2.899.129 4.329.209 1.055.139 2.107.125 3.162-.005.352-.01.692.007 1.042.068 1.448.306 2.882.38 4.32.2 3.865.268 7.734.729 11.581.181 1.514.201 3.056.504 4.545.368 1.804.527 3.649 1.386 5.369.914 1.826 1.931 3.481 3.729 4.532 1.008.59 2.095 1.069 3.031 1.752 1.09.797 2.411 1.316 3.164 2.45 1.725.747 3.372 1.556 5.089 2.172 1.177.418 2.277 1.112 3.518 1.269 1.146.148 2.011.716 2.744 1.304 2.33.469 4.538.914 6.644 1.335.32.225.203.619.692.762.797-.346 1.696-.383 2.36.588 1.099-.253 2.142.172 3.032.093.54.191.509.678.85.815.311-.068.035-.489.412-.542.485.015 1.034-.099 1.448.037.386.172.348.564.65.648.581.152.904-.348 1.21-.509 1.231.397 2.362.33 3.464.196.998-.117 1.857-.007 2.569.776.46-.394 1.159-.441 1.24-1.212.758.104 1.465-.084 2.146.199.341-.276.646-.535 1.073-.698 1.051-.401 2.099-.767 3.237-.859.573-.047 1.168-.115 1.436-.632 1.172-.251 2.303-.181 3.322-.621 1.794-.776 3.702-.721 5.64-.95.397-.897 1.351-1.06 2.248-1.349.293.306.11 1.091.87.815.311-.32-.005-.787.313-1.025 1.842-1.243 3.995-1.864 5.927-3.131.247-.088.591.262.914.024.344-.242-.207-.502-.058-.654.893-.608 1.701-1.1 2.373-1.814.632-.67 1.311-1.344 2.327-1.436.048-.004.09-.106.148-.179-.097-.146-.198-.3-.309-.476l.558-.881c.286-.216.549.053.747-.167.04-.839.533-1.443 1.091-1.987 2.02-1.967 3.712-4.166 4.958-6.7.335-.176.767-.103 1.064-.395-.113-.183-.406-.123-.461-.557 1.56-2.47 3.442-4.843 5.936-7.266.308-.734.91-1.701 1.714-2.401.888-.771 1.322-1.789 1.972-2.684 1.058-1.469 1.703-3.246 3.252-4.349.026-.018.029-.071.042-.106.621-1.84 2.119-3.234 2.545-5.195.373-1.716 1.379-3.213 1.97-4.86.291-.811.672-1.49 1.062-1.716 2.995-6.422 5.521-12.658 7.815-19.039-.048-.743.203-1.489.326-2.258.218-1.386.753-2.683.938-4.087a96.767 96.767 0 0 1 1.463-8.187c.214-.961.311-1.917.463-2.877.19-1.205.178-2.488 1.011-3.635-.379-.463-.333-1.034-.192-1.624.324-1.331.482-2.673.547-4.045.132-2.607.57-5.189.906-7.78.278-2.115.861-4.175.798-6.363-.037-1.335.128-2.708.161-4.07.022-.967.068-1.95.491-2.827-.641-1.705-.476-3.453-.524-5.158-.073-2.788-.494-5.528-1.053-8.232z"/><path fill-rule="evenodd" d="M197.213 223.089c3.618-.936 3.618-.936 4.145-2.016-2.04-.158-3.719-1.064-5.387-1.772-1.025.855-2.155 1.494-1.791 3.102.932.497 2.102.223 3.033.686zm-95.477-8.339c-.8-.881-1.065-1.985-1.204-3.109-.131-1.062-.317-2.093-.807-3.047a35.235 35.235 0 0 1-1.502-3.406c-.223-.582-.388-1.143-.274-1.818.141-.833-.496-1.632-.246-2.424-.191-.335-.591-.245-.724-.714l-.22-3.069c-.215-.249-.634-.403-.731-.817-.401-1.707-.919-3.398-1.152-5.127a12.515 12.515 0 0 0-.645-2.706c-.442-1.216-.866-2.463-.186-3.721-.592-2.778-1.399-5.479-1.446-8.471.035-.123.577-.119.41-.559-1.071-.401-1.178-.549-1.23-1.679a5.036 5.036 0 0 0-.265-1.37c-.383-1.159-.344-2.379-.446-3.732-.879-.782-.122-2.124-.716-3.105.13-1.3.167-2.573.032-3.889.733-1.355.879-2.931 1.405-4.4-.198-.28-.321-.623-.563-.776-4.424-2.82-8.906-5.526-14.323-7.043-.874.197-1.99-.335-3.052-.75-1.795-.696-3.436-.413-5.091.231-.232.263-.409.531-.65.723-2.109 1.689-3.266 3.953-3.717 6.544-.264 1.516-.441 3.116.662 4.58 1.797.461 3.855.026 5.683 1.139.066.833 1.068 1.208 1.264 2.21-.562 1.144-2.102 1.507-2.587 2.981-2.02-.329-3.961-1.414-6.074-.3a3.74 3.74 0 0 1-.963 1c-1.543 1.075-2.01 2.523-1.434 4.294.157.485.306.969.458 1.454.497 1.591 1.654 2.62 2.994 3.483.293.189.623.3 1 .284 1.163-.057 2.322.192 3.496-.033.808-.156 1.636.018 2.43.139.546.626.937 1.293 1.267 2.117-.23.78-.188 1.836-1.204 2.179-1.073.362-2.069.921-3.185 1.163-.34.071-.725.165-.976.381-1.683 1.447-3.448 2.798-4.704 4.693-.698 1.055-.882 2.128-.731 3.212.503.67 1.072 1.011 1.746 1.137 1.113.207 2.231.482 3.355.518 1.329.049 2.608.333 3.813.48.473.366.164.936.589 1.256.461.251 1.138.24 1.431.943-.028.178-.041.416-.104.635-.088.3-.211.588-.342.949-3.69 1.324-4.915 4.878-6.878 7.716-.091 2.591.963 3.664 3.482 3.69 1.503.015 3.004.095 4.473.146.445.529.844 1.007 1.166 1.393.23.535.036.961.061 1.392.048.879-.089 1.738-1.04 2.168-.281.124-.31.439-.477.639-.721.853-.71 2.223-1.974 2.679-.008.996-.363 1.86-.778 2.712-.59 1.207-.602 2.481-.405 3.756.521.43 1.089.522 1.688.536.429.009.881-.051 1.272.156.681.363 1.353.298 2.051.07.93-.306 1.87-.582 2.788-.461 1.975-1.439 3.57-1.84 4.014-1.042.044.348-.417.59-.251.939.226.588.934.463 1.208.923.219 1.181.195 1.276-.546 1.979-.254.244-.521.474-.778.716-1.469 1.393-3.073 2.69-3.457 4.858-.014.075-.055.148-.092.218-.887 1.589-.933 3.267-.553 4.968.27.342.581.569.849.663 1.677.115 3.103-.414 4.547-.905a8.958 8.958 0 0 0 1.595-.7c.348-.196.185-.727.623-.923.982-.438 1.775-1.175 2.65-1.785.512-.355 1.136-.557 1.622-.943.834-.661 1.719-1.066 2.83-.893.481-.87 1.219-1.435 2.031-1.904 1.851-1.069 3.851-1.895 5.46-3.36.236-.216.58-.209.881-.297.556-.169 1.105-.366 1.621-.709.139-.306.285-.622.406-.886 1.229-.826 2.13-1.906 3.173-2.796-.254-.987-1.097-1.573-1.099-2.435-1.748-1.268-2.436-2.989-2.704-4.938zm-30.782-39.565c-.479.038-.977.079-1.551.123-.335-.639-1.322-.357-1.679-1.183.093-.736.353-1.503.283-2.342-.061-.747.547-1.273 1.336-1.393.619-.095 1.246-.103 1.99.19.068.591.384 1.009.942 1.262-.134 1.254-.335 2.42-1.321 3.343zm-.458-16.313c-.382-.501-1.01-.822-1.225-1.484-.044-1.706.673-2.954 2.26-3.595 1.769-.714 2.658.623 3.701 1.718-.303.595-.606 1.225-.552 1.962-.605.421-.917 1.045-1.226 1.664a959.902 959.902 0 0 1-2.958-.265zm-.848 30.683c-.457-1.046-.221-2.097-.178-3.162 1.361-1.655 1.68-1.729 3.863-.859.857 1.159.902 2.086.159 3.34-.976 1.653-2.336 1.88-3.844.681zm2.262 16.736c-.226-.311-.484-.604-.784-.978.123-1.245-.099-2.657 1.463-3.344.916-.405 2.502.163 3.415 1.234.388 1.223-.119 2.184-.666 3.065-.798 1.288-2.526 1.257-3.428.023zm7.472 11.618c-1.031 1.073-3.17.897-4.02-.841-.125-.254-.123-.533-.072-.804.107-.571.228-1.141.346-1.723.427-.518 1.032-.619 1.325-1.069.156-.039.267-.073.382-.086 1.501-.15 2.048.099 2.516 1.141.538 1.197.318 2.556-.477 3.382zm8.299 11.071c-.121.769-.327 1.522-.49 2.258l-1.269 1.333c-1.781.489-3.009-.203-3.523-1.899.268-.56.324-1.223.401-1.853.925-1.249 2.169-1.619 3.621-1.457.895.101 1.403.722 1.26 1.618zm25.108-15.607c-1.042-2.333-1.366-4.968-2.954-7.073-.265-.355-.07-.745-.04-1.165-.796-.394-.494-1.571-1.366-1.831-1.22-3.001-2.41-5.918-3.708-9.109a11.685 11.685 0 0 1-2.471-6.226c-.117-.26.324-.397.074-.667-.629-.943-1.478-1.745-1.592-2.994-.078-.892.098-1.831-.127-2.657-.33-1.201-.361-2.415-.332-3.6.038-1.613.26-3.219.31-4.847.066-2.157.753-4.223 1.498-6.246.108-.291.217-.568.248-.892.138-1.437.721-2.717 1.621-3.816.577-.703.974-1.478 1.369-2.278.452-.916.315-2.18 1.567-2.607.036-.872.673-1.334 1.119-1.945 1.316.016 1.729-1.263 2.657-1.838-5.946.554-11.083 2.837-15.334 6.907-.248 2.517-.225 4.762.414 6.97.083.293.038.621.074.93.123 1.046.098 2.142.414 3.126.627 1.95.948 3.948 1.238 5.955.39 2.701.915 5.372 1.475 8.04.104.498.38.938.395 1.469.065 2.036.648 3.992 1.06 5.966.508 2.444 1.251 4.839 1.881 7.26.718 2.758 1.579 5.469 2.521 8.156.155.443.406.862.496 1.313.503 2.509 1.524 4.805 2.969 6.886.634.912 1.415 1.817 2.445 2.307.634.304 1.244.641 1.87.947.938.46 1.937.793 2.86 1.3.077.04.216-.033.498-.082-.764-1.924-1.709-3.741-2.027-5.843-.563-.439-.816-1.129-1.122-1.816z"/></svg>