<svg xmlns="http://www.w3.org/2000/svg" viewBox="0 0 320 320"><path d="M289.272 157.846c0-10.617-1.287-20.938-3.713-30.817-1.31-10.845-4.281-22.481-9.002-35.346-14.61-43.643-5.417-58.14.077-66.802 2.226-3.511 4.149-6.543 2.961-10.134-1.013-3.061-4.667-4.747-10.286-4.747-7.054 0-18.028 2.731-26.645 8.832-9.365 6.631-16.347 15.452-21.283 25.277-18.272-9.901-39.18-15.535-61.381-15.535-71.28 0-129.272 57.991-129.272 129.271 0 51.36 30.118 95.802 73.611 116.641 2.271 5.735 4.346 9.941 4.551 10.355.269.539.759.935 1.344 1.082.067.017.441.109 1.073.245l-1.725.59a2.066 2.066 0 0 0-1.327 1.425l-4.343 16.396a2.063 2.063 0 0 0 1.083 2.379c.252.125 6.341 3.04 20.94 3.041l.76-.003c6.493-.044 18.987-1.565 19.517-1.63a2.065 2.065 0 0 0 1.813-2.066l-.12-14.869a2.051 2.051 0 0 0-.108-.64 392.166 392.166 0 0 0-1.472-4.307l.335-.074c4.387.454 8.834.706 13.339.706 8.923 0 17.632-.927 26.05-2.658l-.09 11.115a2.064 2.064 0 0 0 1.814 2.065c.505.061 12.443 1.512 18.649 1.555l.724.002c13.964 0 19.8-2.79 20.042-2.909a2.065 2.065 0 0 0 1.084-2.381l-4.148-15.643a2.065 2.065 0 0 0-1.328-1.424l-7.029-2.402c43.436-20.858 73.505-65.271 73.505-116.59zM245.048 22.202c7.835-5.547 18.068-8.073 24.26-8.073 3.96 0 6.052.962 6.367 1.916.549 1.66-.433 3.322-2.529 6.626-5.501 8.673-15.739 24.818-.486 70.379 17.799 48.507 10.89 82.694-23.103 114.313-7.718 7.179-17.996 12.439-29.193 15.21l5.639-5.155c8.128-2.872 15.498-7.133 21.315-12.544 4.87-4.53 9.137-8.874 12.855-13.874H258v-3h-4v-4h-4v-3.805l-3.682.257-.101-3.452h-.65c.001-5-.411-9.492-1.546-13.592-2.349-8.479-10.146-17.267-18.604-24.59 1.186-9.868-1.775-18.178-4.523-25.803-1.681-4.667-3.269-9.105-3.953-13.722-5.293-35.736 10.303-64.484 28.107-77.091zm-51.74 247.202c-5.096 0-14.475-.737-17.818-1.014l-14.44-33.278a170.44 170.44 0 0 0 3.427-.163l3.452 6.99 11.104-5.485-1.387-2.808c8.448-1.191 14.899-2.815 19.039-4.057l13.05 38.915c-4.07.325-11.921.9-16.427.9zm-50.811-38.812l11.107-17.656 8.882 17.982c-2.634.129-5.384.201-8.244.201-4.082 0-8.007-.196-11.745-.527zm-62.691-39.99a1.029 1.029 0 0 0-1.401.41l-4.239 7.752c-.044.08-.057.166-.078.25a38.666 38.666 0 0 1-3.134-2.316c.089-.078.171-.166.231-.276l4.239-7.753a1.03 1.03 0 0 0-.411-1.4 1.03 1.03 0 0 0-1.4.41l-4.194 7.671a31.012 31.012 0 0 1-2.707-2.845l3.92-7.169a1.03 1.03 0 0 0-.41-1.4 1.029 1.029 0 0 0-1.401.41l-3.489 6.381a24.413 24.413 0 0 1-2.702-4.886c.237-1.184 1.895-4.687 3.563-7.776l4.655-.343a2.064 2.064 0 0 0 1.908-2.198c-.077-1.133-1.07-2.004-2.187-1.92 0 0-1.458.091-2.915.188-.734.049-1.467.1-2.018.142-.224.018-.507.039-.807.091l-.057.005c-.013 0 .328.001.315.003-.027.002-3.087.33-4.087.33V174h-.762c.181-1 1.103-3.189 1.767-3.642l6.646-.989c8.351.071 17.106 1.61 19.278 11.903l-8.657 20.669a40.793 40.793 0 0 1-3.552-1.9.997.997 0 0 0 .257-.293l4.239-7.75a1.026 1.026 0 0 0-.41-1.396zm12.3-9.443c-2.843-15.704-17.876-15.809-23.597-15.849a1.963 1.963 0 0 0-.298.022c.087-.355.165-.703.265-1.065 5.098-18.402 40.669-39.278 42.829-40.53.34-.142 1.616-.656 3.673-1.3l27.194 40.843-19.627 28.027a96.065 96.065 0 0 1-1.598-.315c-2.643-6.007-6.909-17.381-8.512-31.192-.126-1.086-1.245-1.885-2.33-1.823-1.092.063-2.105.968-2.105 2.061v2.822l-10.2 10.36c-.097.097-.104.204-.18.317l-5.552 8.412c.055-.259.086-.525.038-.79zm20.067-107.622l-3.687-18.459 18.629 7.461c.454.182.957.197 1.42.042 6.318-2.108 13.757-3.223 21.512-3.223 7.756 0 15.195 1.115 21.513 3.223.462.155.964.141 1.421-.042l18.627-7.461-3.686 18.458a2.065 2.065 0 0 0 .594 1.893c6.189 5.944 8.86 11.762 8.165 17.789-1.682 14.599-23.469 27.536-36.486 35.267l-2.339 1.392c-2.139 1.278-4.912 1.981-7.809 1.981-2.895 0-5.669-.703-7.807-1.981l-.732-.436c-13.422-8.016-38.407-22.938-39.301-38.045-.328-5.541 2.768-10.863 9.201-15.821a2.063 2.063 0 0 0 .765-2.038zm127.868 90.73c3.13 11.301.167 27.894-1.051 33.705a182.393 182.393 0 0 1-5.281-1.659l1.013-3.747c.061-.228.084-.466.066-.701-.581-7.291-5.855-11.306-14.854-11.306-3.105 0-6.447.489-9.682 1.276l.899-6.887c.083-.635-.235-1.273-.689-1.726L200 162.861v-2.822c0-1.093-.752-1.998-1.844-2.061-1.087-.053-1.993.737-2.118 1.823-1.598 13.769-4.488 25.161-6.245 31.276-5.771.984-19.569 3.003-35.532 3.003-3.603 0-7.003-.105-10.167-.275l49.518-71.511c2.253.77 3.503 1.386 3.505 1.386.375.215 37.694 21.704 42.924 40.587zm-42.845 14.308a58.853 58.853 0 0 0 7.609-5.273l2.12 2.12-.059.451c-3.526 2.887-7.106 5.15-10.623 6.996.317-1.353.636-2.789.953-4.294zm1.089-5.54c.313-1.718.615-3.503.901-5.352l2.695 2.695a53.514 53.514 0 0 1-3.596 2.657zm-7.655 30.464l7.931 21.138c-3.412 1.165-11.355 3.556-22.853 5.086l-11.601-23.487c11.606-.529 21.192-1.861 26.523-2.737zm27.446 15.572l-1.534-1.175c-.38-.313-.787-.656-1.226-1.036l5.276-4.861a1.032 1.032 0 0 0-1.399-1.517l-5.373 4.95c-.017.016-.024.038-.04.055a69.687 69.687 0 0 1-2.704-2.641l5.288-4.872a1.032 1.032 0 0 0-1.399-1.517l-5.304 4.888a70.984 70.984 0 0 1-2.466-2.841l4.942-4.554a1.032 1.032 0 0 0-1.399-1.517l-4.835 4.455a66.373 66.373 0 0 1-2.299-3.15c.495-.525 1.273-1.238 1.846-1.763 2.622-2.404 5.1-4.673 3.76-7.024-.872-1.532-2.889-2.214-6.542-2.214a33.2 33.2 0 0 0-2.318.085c-.477-.56-1.038-1.587-1.143-2.182 4.589-2.934 13.506-5.951 20.725-5.951 2.469 0 9.908-.001 10.706 7.164l-5.649 20.9-6.913 6.318zm-107.848 4.757a101.217 101.217 0 0 1-3.45-1.251l12.635-19.253c2.508.495 6.397 1.174 11.419 1.774l-14.069 20.598a80.913 80.913 0 0 1-6.535-1.868zm10.528-102.757c6.459 4.638 13.206 8.672 18.636 11.915l.731.436c.466.279.961.528 1.467.764l10.103 15.5-6.979 9.965-25.469-38.253c.484-.103.988-.213 1.511-.327zM154.309 146h-.126l-6.357-9.912c.733.076 1.474.012 2.221.012 3.632 0 7.157-.967 9.926-2.622l2.329-1.415c.479-.285.968-.365 1.462-.659L154.309 146zm3.213 2.558l.16-.245c.01-.016.023-.029.033-.045l14.571-22.311c2.973-1.891 5.996-3.921 8.913-6.083 1.52.27 3.037.569 4.531.872a257.8 257.8 0 0 0 3.455.685l-49.895 72.053a171.244 171.244 0 0 1-12.243-1.41l30.475-43.516zm-22.03 57.036c2.395.225 4.984.421 7.74.571l-14.2 22.573c-2.93-.549-5.65-1.156-8.135-1.775l14.595-21.369zm67.541 19.186l-1.23-3.281c.18.002.358.012.538.012 3.702 0 7.391-.309 11.016-.884 1.771 1.488 3.051 2.401 3.516 2.723a75.06 75.06 0 0 1-13.84 1.43zM34.856 157.846c0-69.004 56.14-125.143 125.144-125.143 21.571 0 41.879 5.493 59.613 15.144-7.371 16.758-9.143 35.907-6.756 52.02.744 5.024 2.477 9.834 4.153 14.486 2.477 6.875 4.87 13.546 4.583 21.151-10.861-8.748-21.636-14.954-22.52-15.458-.237-.12-5.089-2.54-13.104-3.928 7.707-6.486 13.841-13.998 14.812-22.427.807-7.006-2.084-13.878-8.594-20.439l4.214-21.102a2.062 2.062 0 0 0-2.791-2.32l-21.47 8.6c-6.571-2.094-14.191-3.199-22.094-3.199-7.901 0-15.521 1.105-22.093 3.199l-21.471-8.6a2.064 2.064 0 1 0-2.792 2.32l4.186 20.959c-6.893 5.633-10.185 11.863-9.791 18.532.566 9.563 8.539 18.442 18.099 25.993-4.086 1.149-6.449 2.192-6.634 2.274-.065.029-.129.106-.19.141-1.597.911-39.175 22.575-44.859 43.093-.274.988-.5 1.948-.695 2.888l-2.572.41c-3.196.509-5.045 5.516-5.14 8.058-.11 2.946 1.77 3.623 2.349 3.76.435.103 1.005.149 1.849.149h.001c.332 0 .689-.008 1.053-.02-3.441 6.711-2.943 7.988-2.686 8.644 5.353 13.717 20.361 19.354 20.997 19.588a2.065 2.065 0 0 0 2.614-1.14l6.628-15.812a72.4 72.4 0 0 0 3.178-.971 2.071 2.071 0 0 0 1.055-.812l7.892-11.89 8.413-8.412c2.375 12.779 6.526 22.645 8.699 27.23l-.449 1.804-.732 2.929-15.004 22.862c-.01.015-.014.031-.023.046-.07.113-.133.229-.179.351-.021.056-.029.115-.045.172-.024.084-.054.168-.067.254-.01.067-.006.135-.009.203-.004.079-.015.158-.01.237.005.08.026.159.041.239.012.065.015.131.034.196l.001.003.001.007c.021.074.058.14.087.21.027.066.048.135.081.197.033.06.077.112.115.169.044.066.084.135.135.195.043.05.096.091.144.137.058.056.112.116.177.165.055.042.119.072.179.108.065.039.125.085.194.117a.31.31 0 0 1 .019.009h.001l.005.002c.183.084 1.52.692 3.738 1.506-4.059 6.678-7.338 13.607-8.193 19.548-.893 6.209 1.266 14.835 3.857 22.338-40.002-20.908-67.378-62.793-67.378-110.97zm67.606 89.219c.8-5.56 4.069-12.253 8.099-18.742 4.034 1.327 9.509 2.887 16.095 4.191l-1.643 2.611 10.483 6.595 4.533-7.206c1.375.14 2.776.264 4.205.367-4.273 6.639-7.936 13.891-8.547 19.939-.865 8.582 6.123 22.212 9.208 27.745-2.816.578-7.836 1.358-14.463 1.358-8.913 0-15.853-1.282-18.268-1.794-2.098-4.416-11.232-24.423-9.702-35.064zm41.319 44.73l.102 12.689c-3.756.428-12.39 1.352-17.215 1.386l-.732.003c-.399 0-.781-.005-1.167-.01l1.722-6.88a1.032 1.032 0 1 0-2.002-.502l-1.836 7.337a85.286 85.286 0 0 1-3.289-.173l1.993-7.958a1.032 1.032 0 1 0-2.002-.502l-2.073 8.279a62.44 62.44 0 0 1-3.23-.406l2.17-8.668a1.033 1.033 0 0 0-2.003-.502l-2.207 8.817a35.448 35.448 0 0 1-3.626-.886l3.579-13.512 8.158-2.79c2.954.305 6.438.534 10.312.534 4.799 0 8.782-.382 11.795-.825.473 1.373.983 2.879 1.551 4.569zm5.872-9.237c-1.391-2.36-10.736-18.605-9.857-27.324.595-5.903 4.675-13.383 9.212-20.088a138.145 138.145 0 0 0 7.592.083l15.593 35.936a2.067 2.067 0 0 0 1.713 1.235c.31.027 4.735.413 9.635.727l2.127 7.2A125.09 125.09 0 0 1 160 282.99c-3.484 0-6.934-.151-10.347-.432zm74.145 10.584c-.79.24-1.895.529-3.327.809l-2.086-8.323a1.032 1.032 0 0 0-2.002.502l2.049 8.172a60.87 60.87 0 0 1-2.993.376l-1.959-7.813a1.033 1.033 0 0 0-2.002.502l1.878 7.49a82.6 82.6 0 0 1-3.048.16l-1.734-6.915a1.032 1.032 0 1 0-2.002.502l1.619 6.457c-.346.004-.688.009-1.045.009l-.695-.002c-4.567-.032-12.72-.899-16.348-1.311l.099-12.335a2.04 2.04 0 0 0-.085-.601l-2.199-7.446c1.977.095 3.855.157 5.389.157 3.58 0 9.033-.338 13.25-.644l.946 2.337c.225.554.679.985 1.246 1.178l11.668 3.987 3.381 12.752zm-9.219-22.716a2.04 2.04 0 0 0-.093-.738l-13.678-40.789c.519.011 1.036.024 1.56.024 19.112 0 37.338-6.756 50.002-18.537 18.552-17.258 29.25-35.477 32.706-55.699.008-.046.013-.093.021-.139.029 1.096.047 2.195.047 3.298 0 49.446-28.836 92.267-70.565 112.58zm12.416-220.2l-.396.271c5.181-11.246 12.542-20.064 20.358-25.598 4.99-3.532 12.056-6.281 18.44-7.173a28.366 28.366 0 0 1 3.878-.289c.592 0 1.149.024 1.655.072a11.011 11.011 0 0 1 1.328.21c-.363.745-.968 1.714-1.23 2.134l-.627.993c-1.712 2.701-4.057 6.401-5.912 11.506-2.593 7.134-3.571 15.428-2.966 24.972l-1.891 1.287-2.096-2.999-2.999 2.096-2.068-2.999-2.907 2-.073.064-.048.032-1.737-2.967L245 55.902V56h-.654l-2.032-2.983L239.315 55H239v-.065l-1.955-2.967-2.888 2.096-2.049-2.967-2.959 2.064-.028-.032-.03.032-2.096-2.935zm-6.808 48.568c-1.038-7.008-1.233-13.726-.761-20.091l3.087-1.483 1.58 3.29 3.322-1.548 1.58 3.29 3.29-1.58 1.548 3.29 3.322-1.613 1.548 3.257 3.355-1.516 1.517 3.225 3.356-1.516 1.52 3.193 3.362-1.451 1.731 3.225L257 89.217V89h-.302l1.548 3.35 3.225-1.404 1.58 3.296 3.29-1.593 1.613 3.283 1.899-.925c7.484 20.644 10.244 37.803 8.57 53.451l-2.536 1.229-1.613-3.322-3.29 1.58-1.58-3.29-3.29 1.58-1.58-3.322-3.29 1.613-1.613-3.29-3.29 1.58-1.548-3.225-3.322 1.484-1.548-3.257-2.903 2.064-1.935-3.773-3.29 1.58-1.58-3.322-3.29 1.58-1.613-3.257-3.29 1.58-1.58-3.322-1.533.736a46.234 46.234 0 0 0-.958-6.966c-1.011-4.719-2.553-9.001-4.044-13.143-1.595-4.44-3.106-8.635-3.72-12.781zm-87.525 15.797h.007l-.004.003-.003-.003zm10.735-3.293c0-3.677 2.977-6.659 6.65-6.659s6.65 2.981 6.65 6.659c0 3.677-2.977 6.659-6.65 6.659s-6.65-2.981-6.65-6.659zm40.707-37.361l-8.709-6.941 11.369-6.373-2.66 13.314zm-20.31 46.287c1.309 2.649-2.84 5.542-5.388 7.041a7.4 7.4 0 0 1-1.509.65c-.378-.893-1.312-1.903-1.312-1.903s-1.338 1.441-1.454 2.402c-.343.025-.686.043-1.032.052-.437-.765-1.111-1.491-1.111-1.491s-.68.733-1.117 1.502a78.215 78.215 0 0 0-1.362 0c-.437-.768-1.117-1.502-1.117-1.502s-.674.727-1.111 1.491a22.136 22.136 0 0 1-1.032-.052c-.116-.961-1.454-2.402-1.454-2.402s-.935 1.009-1.312 1.903a7.376 7.376 0 0 1-1.509-.65c-2.548-1.499-6.697-4.392-5.388-7.041.707-1.43 2.016-1.85 3.615-1.805-.182 1.66 3.032 4.502 3.032 4.502s1.434-2.105 1.81-3.611c.527.133 1.055.262 1.58.384.318.93 1.389 2.075 1.389 2.075s.751-.803 1.182-1.61c.34.036.674.061.998.064a9.58 9.58 0 0 0 1.003-.048c.432.801 1.173 1.593 1.173 1.593s1.036-1.112 1.371-2.034a72.026 72.026 0 0 0 1.608-.389c.39 1.504 1.8 3.575 1.8 3.575s3.18-2.814 3.032-4.477c1.598-.052 2.911.357 3.615 1.781zM110 91h5v5h5v4h4v4h4v5h4.314s11.124-8.878 17.733-8.878c6.608 0 17.733 8.878 17.733 8.878H172v-5h5v-4h5v-4h4v-5h4v-4.117s-22.193-9.189-26.626-9.189-13.313 8.878-13.313 8.878-8.947-8.878-13.381-8.878c-4.433 0-26.68 9.189-26.68 9.189V91zm50.957 2.122c.293 1.757 1.338 3.1 3.794 3.148.958-.024 1.666-.407 2.355-1.098a3.746 3.746 0 0 0 1.101-2.669 3.76 3.76 0 0 0-.241-1.29l1.445-.391c.177.526.295 1.07.295 1.655.001 1.416-.545 2.868-1.538 3.865-.994.997-2.316 1.659-3.723 1.659h-.004c-2.561 0-4.587-1.953-5.055-4.382l1.571-.497zm-30.206-2.28l1.475.378c-.142.396-.144.816-.144 1.26.002 2.04 1.347 3.692 3.816 3.736.957-.022 1.698-.402 2.383-1.089a3.703 3.703 0 0 0 1.031-2.012l1.449.375c-.197 1.01-.686 2.089-1.427 2.832-.984.988-2.296 1.679-3.691 1.679h-.005c-2.875 0-5.195-2.487-5.197-5.367-.002-.579.137-1.271.31-1.792z"/></svg>