<svg xmlns="http://www.w3.org/2000/svg" viewBox="0 0 320 320"><path d="M295.371 126.655c-14.04-23.155-35.604-43.755-58.64-57.868-23.984-14.694-52.461-19.388-80.19-16.979-24.37 2.117-53.764 8.299-69.635 28.644-7.639 6.225-16.753 10.753-26.651 11.708-9.347.902-18.23 1.165-26.087 6.968-10.424 7.698-19.641 23.561-12.468 35.577-.536.186-1.077.498-1.619.966-1.113.961-1.674 2.409-1.888 4.059-1.426-1.157-5.944.771-5.569 6.146.915 13.115 2.983 17.563 10.482 28.219 7.94 11.283 13.659 23.998 23.409 33.968 4.411 4.511 9.732 8.198 15.342 11.401 3.093 3.065 5.743 6.634 9.051 9.487 4.746 4.094 10.767 6.934 16.509 9.316 12.174 5.051 24.261 9.031 37.483 6.068 6.503-1.457 11.7-5.884 17.992-7.548 2.79-.738 6.16.055 8.946.426 3.059.407 6.072.134 9.088-.4 6.666-1.181 11.656-7.104 18.453-7.227 6.241-.113 12.483 5.995 17.603 9.027-1.755 4.44.354 9.662 5.109 10.651.152.893.5 1.846 1.129 2.868 2.262 3.674 5.904 4.631 9.47 3.971.028 1.604.699 3.215 2.316 4.687 1.977 1.801 4.191 2.143 6.257 1.597.446 1.045 1.372 1.902 3.025 2.38 2.894.837 5.598.169 7.827-1.342.305 1.603 1.017 3.056 2.432 4.104 3.041 2.251 7.177 1.06 10.37-.183 9.316-3.628 21.427-11.401 26.221-20.347 2.902-5.415 1.366-11.384-1.369-16.48-1.813-3.377-4.122-6.511-6.591-9.552 7.274.526 15.217-1.521 21.155-4.3 9.282-4.344 16.293-12.799 20.625-21.892 10.794-22.665 2.694-47.867-9.587-68.12zM47.617 99.316c8.152-1.957 16.276-1.145 24.3-4.025a52.4 52.4 0 0 0 8.664-4.057c-4.631 11.007-5.567 23.772-5.998 35.391-.326 8.777.288 17.176 2.398 25.699.228.922.469 1.842.714 2.762-2.163 2.825-6.718 1.938-10.042 2.09-6.095-6.141-12.518-12.119-17.965-18.734-4.711-5.722-9.461-13.297-17.685-13.641-3.312-.139-3.834 1.904-3.268 4.385-1.213-.169-2.465.11-3.712 1.057-4.486-12.711 11.5-28.263 22.594-30.927zm112.608 113.695c-8.426 4.955-18.286 3.59-26.88-.046 3.907-9.767 5.361-21.25 5.829-31.069.451-2.198.946-4.378 2.013-6.362 2.161-4.017 5.315-.242 5.22 2.807-.081 2.611-.629 5.149-.495 7.773.15 2.935 4.368 2.922 4.545 0 .119-1.96.875-3.786 1.747-5.521 1.075-2.14 4.576-5.44 5.077-.924.231 2.083-.047 4.168-.36 6.248a21.643 21.643 0 0 0-.549 4.373c-.184 2.9 4.302 2.875 4.497 0 .095-1.392.434-2.7.809-4.039.562-2.009 2.294-5.441 2.563-1.367.211 3.193-.51 6.392-.188 9.581.308 3.049 4.576 3.117 4.79 0 .211-3.081 1.396-5.386 3.585-7.192a145.243 145.243 0 0 0 2.394 4.643c-2.249 8.686-6.692 16.446-14.597 21.095zm140.444-22.878c-2.676 6.958-7.334 13.182-13.224 17.742-14.582 5.33-28.463-.329-40.855-8.383-.033-.022-.068-.033-.101-.052-9.446-13.873-17.891-28.432-27.544-42.168-2.488-3.541-8.359-.164-5.844 3.416 8.906 12.674 16.918 25.94 25.778 38.645 4.029 5.777 8.251 11.403 12.735 16.835.337.408.688.805 1.034 1.207.141.227.314.444.545.636 4.58 5.23 9.688 10.011 13.02 16.19 5.976 11.08-6.491 18.892-14.509 24.132-3.268 2.136-6.721 4.147-10.455 5.333-5.205 1.654-5.062-2.357-4.232-6.495.59-2.941-3.34-3.932-4.416-1.217-.871 2.198-2.381 3.698-4.61 4.449-2.059.693-2.43.057-2.12-.924.9-.972 1.644-2.093 2.148-3.264.989-2.298-1.86-5.196-3.787-2.922a17.011 17.011 0 0 0-2.295 3.563c-.671.634-1.508 1.015-2.591.855-2.997-.442-1.765-2.991-.366-4.533a14.58 14.58 0 0 0 1.345-1.183c1.855-1.878-.683-5.448-2.903-3.762-.162.123-.319.255-.477.385l-.008-.01c-.032.033-.066.064-.098.096a15.33 15.33 0 0 0-1.039.95c-2.092 1.739-4.514 2.649-7.193 1.189-1.232-.672-1.732-1.338-1.759-1.941 1.847-.628 3.63-1.748 5.189-2.753 1.897-1.223 1.338-4.76-1.233-4.553-2.811.226-5.587 1.285-7.253 3.025-3.572.546-1.847-4.943.131-6.254 2.798-1.854 5.296-3.13 6.122-6.642 1.338-5.694-7.524-13.617-10.742-17.453-3.183-3.795-6.63-7.327-9.938-11.01-4.429-4.931-7.655-11.035-10.697-16.885-6.082-11.697-9.837-24.177-10.299-37.363-.347-9.902-.579-21.024 3.477-30.274 4.902-11.181 16.239-13.21 27.09-11.213 5.555 1.022 10.896 3.116 16.328 4.628 6.713 1.869 13.26 4.071 19.493 7.215 10.24 5.166 16.667 15.685 26.055 22.13 2.538 1.742 5.681-2.306 3.298-4.274-4.826-3.986-8.573-8.897-12.708-13.551-4.671-5.257-9.914-9.266-16.245-12.328-6.265-3.031-13.062-4.84-19.778-6.547-5.986-1.521-12.125-3.216-18.266-3.97-8.664-1.064-17.576.362-24 6.061-9.301 6.385-13.568 17.356-14.808 28.831-.383 3.541-.386 7.15-.172 10.762-.079 4.9-.623 9.67-4.315 13.453-2.997 3.071-13.128 5.563-15.654 1.05a1.582 1.582 0 0 0-.248-.326c-2.022-11.266-5.264-22.616-5.933-33.818 1.596 1.433 3.739 1.72 5.948-.527 1.581-1.609 2.169-3.756 2.154-6.074.266.154.542.299.827.431 4.961 2.296 8.489-1.95 8.723-6.566.38-7.492-13.057-18.492-18.285-9.794-.377.628-.47 1.245-.375 1.81-8.925 17.447-.241 40.619 2.62 58.564.782 4.903 1.028 9.911.87 14.923-.164 3.018-.26 6.244-.763 9.536a123.474 123.474 0 0 1-1.934 11.051c-2.495 11.295-7.103 24.137-19.01 28.132-10.79 3.62-21.92-1.227-31.683-5.539-10.406-4.596-21.001-10.001-29.493-17.679-9.317-8.424-14.905-20.479-21.595-30.9-3.347-5.215-7.106-9.965-9.797-15.588-2.23-4.658-3.513-8.31-2.888-9.748s1.507-1.456 2.486 1.029c1.639 4.159 5.175 2.369 4.467-.379a23.433 23.433 0 0 0-.592-1.941c-.502-1.843-.823-3.697-.903-5.652-.202-4.973 2.167-2.294 3.954.122.452.664.889 1.251 1.253 1.706 1.483 1.851 4.663-.607 3.286-2.536a58.725 58.725 0 0 0-1.73-2.333c-.494-.751-.932-1.553-1.229-2.388a2.399 2.399 0 0 0-.36-1.605 5.14 5.14 0 0 1 .024-1.207c.256-1.749 5.008 3.556 5.217 3.815 1.498 1.856 4.714-.623 3.309-2.553-.546-.75-3.946-5.961-2.761-5.708 3.782.806 6.372 3.975 8.762 6.761 5.114 5.957 10.251 11.49 15.74 17.118 12.22 12.531 23.441 25.904 37.954 35.925 2.332 1.61 4.523-2.192 2.212-3.784-3.656-2.519-7.094-5.28-10.409-8.179a54.11 54.11 0 0 1-1.475-2.212c-.158-13.026-6.377-25.424-6.703-38.525-.368-14.741.254-31.229 6.483-44.848a41.882 41.882 0 0 1 5.153-8.44c.324-.323.659-.635.973-.967.267-.282.446-.578.555-.876 12.643-14.414 34.021-19.711 52.339-22.822 29.329-4.982 59.791-1.371 85.961 13.19 24.715 13.752 46.994 36.499 61.179 60.835 10.194 17.487 15.977 38.175 8.463 57.712zm-168.85-72.07c.184-2.15.495-4.292.975-6.425a27.86 27.86 0 0 1 2.222 6.148c.383 1.617.554 3.602-.147 5.157-1.153 2.56-2.771-3.15-2.708-3.884.037-.426-.105-.76-.342-.996zm3.867-10.324c.129-.158.248-.34.351-.546 1.421-2.837 7.967 3.851 8.506 5.795.278 1.003.483 4.084-1.452 3.821-1.521-.206-2.763-1.788-3.624-2.91-1.247-1.624-2.206-3.443-3.23-5.217a27.854 27.854 0 0 0-.551-.943zM70.1 137.062c-.397 3.209-4.807 3.32-5.076 0-.263-3.258-2.176-6.761-5.42-7.946-3.446-1.259-4.571.632-4.544 4.032.022 2.779-3.933 2.641-4.219 0-.64-5.894 3.329-11.158 9.674-9.066 5.304 1.749 10.318 7.049 9.585 12.98zM34 122.865c-4 0-4-5.524 0-5.524 3-.001 3 5.524 0 5.524zm10 2.656c-3 0-3-5.096 0-5.096 4 0 4 5.096 0 5.096zm-1.158-13.786a2.822 2.822 0 0 0-.082-.436c-.357-1.296-1.945-2.423-3.31-1.879-.233.092-.465.19-.695.29-1.312.494-2.363 2.133-1.809 3.521.22.552.396 1.074.883 1.458.549.433.902.636 1.575.87 1.203.419 2.618-.264 3.234-1.316.415-.708.502-1.694.204-2.508zM54 119.925c-3 0-3-4.342 0-4.342 2 0 2 4.342 0 4.342zm-1.035-10.604c-.247-.658-.409-1.005-.873-1.535a2.357 2.357 0 0 0-.341-.329 2.956 2.956 0 0 0-2.192-.94c-1.737 0-3.123 1.433-3.149 3.149-.008.513.097.998.297 1.454.407 1.332 1.677 2.329 3.113 2.329.862 0 1.697-.346 2.306-.955.765-.766 1.237-2.111.839-3.173zm4.682-3.263c-1.941 0-3.253-1.856-2.811-3.69l.059-.245c.296-1.229 1.514-2.095 2.752-2.095 1.238 0 2.456.866 2.752 2.095l.059.245c.442 1.834-.87 3.69-2.811 3.69zM61 112.997c-3 0-3-5.096 0-5.096s3 5.096 0 5.096zm4 9.285c-3 0-3-5.402 0-5.402s3 5.402 0 5.402zm5-7.649c-3 0-3-5.239 0-5.239 4 .001 4 5.239 0 5.239zm-2-8.644c-3 0-3-4.648 0-4.648s3 4.648 0 4.648zm117 76.917c-4 0-4-5.585 0-5.585s4 5.585 0 5.585zm9.79 7.886l-.069.503c-.166 1.213-1.582 2.058-2.703 2.058s-2.537-.845-2.703-2.058l-.069-.503c-.144-1.055-.059-1.999.739-2.796a2.884 2.884 0 0 1 2.032-.842c1.014 0 1.97.549 2.482 1.424.431.733.401 1.408.291 2.214zm6.57 7.025c-.975-1.385-2.888-1.829-4.178-.538a2.669 2.669 0 0 0-.779 1.881c0 .623.222 1.129.563 1.565.367.907 1.42 1.515 2.358 1.515 1.039 0 2.294-.771 2.467-1.878.145-.927.129-1.75-.431-2.545zm5.267 12.277c-.052.028-.099.064-.153.088-1.142.554-2.446.502-3.384-.437-.931-.931-1.002-2.25-.437-3.384.33-.661 1.144-1.396 1.924-1.532.738-.128 1.006-.1 1.746.007 1.2.174 2.035 1.557 2.035 2.673.001 1.037-.699 2.229-1.731 2.585zm8.175-12.018c-.342 1.242-1.443 1.989-2.693 2.05a2.462 2.462 0 0 1-.88-.094l-.289-.039c-.502-.138-1.058-.488-1.426-.856-.858-.858-.961-1.912-.792-3.043.124-.827 1.066-1.754 1.886-1.886.875-.141 1.674-.136 2.459.323.253.174.493.364.72.57l.142.187.017.016-.009-.005c.391.513.41.529.056.05.73.673 1.108 1.638.809 2.727zm-.808-2.727l-.048-.045.026.015.022.03zm-11.716-4.09c.752.076.675.059-.232-.053l-.663-.28c-.273-.118-.535-.346-.737-.529a2.814 2.814 0 0 1-.816-1.33c-.169-.613-.076-.973.011-1.586.116-.817 1.077-1.778 1.894-1.894.614-.087.973-.18 1.586-.011.511.141.974.424 1.33.816.184.202.411.465.529.737.251.433.377.9.379 1.401l-.047-.506c.649 1.833-1.401 3.884-3.234 3.235zm-4.546-14.277l-.031.261c-.091.777-.249 1.415-.824 1.989-.525.525-1.246.824-1.989.824s-1.464-.299-1.989-.824c-.575-.575-.733-1.212-.824-1.989l-.031-.261c-.181-1.543 1.43-2.844 2.844-2.844s3.025 1.301 2.844 2.844zM180 168.449c-2 0-2-4.851 0-4.851 3 0 3 4.851 0 4.851zm10 .532c-3 0-3-4.872 0-4.872 4 .001 4 4.872 0 4.872zm-12-10.493c-3 0-3-5.279 0-5.279 4-.001 4 5.279 0 5.279zm50 42.729c-3 0-3-5.157 0-5.157 4 0 4 5.157 0 5.157zm7.581 7.863a2.993 2.993 0 0 1-2.86 2.177c-1.617 0-2.966-1.349-2.966-2.966 0-.367.077-.75.219-1.111.249-1.196 1.604-2.024 2.747-2.024 1.134 0 2.476.817 2.739 1.998.241.616.29 1.313.121 1.926zm-13.113-24.01c0 1.567-1.272 2.733-2.793 2.793l-.261.01c-1.528.06-2.803-1.32-2.803-2.803 0-1.483 1.275-2.862 2.803-2.803l.261.01c1.521.06 2.793 1.226 2.793 2.793zM208 123.745c-3 0-3-5.198 0-5.198 4 0 4 5.198 0 5.198zm17 3.082c-3 0-3-4.056 0-4.056 2 0 2 4.056 0 4.056zm8 5.718c-3 0-3-5.055 0-5.055 4 0 4 5.055 0 5.055zm-13.673-1.745c0 .981-.532 1.907-1.378 2.403-.683.4-1.388.427-2.144.28a4.362 4.362 0 0 1-.487-.128c-2.526-.788-2.526-4.322 0-5.111.162-.051.32-.096.487-.128.997-.193 1.964-.027 2.707.716.52.52.815 1.233.815 1.968zm8.673 9.858c-4 0-4-5.626 0-5.626 3 0 3 5.626 0 5.626zm12 .465c-4 0-4-6.034 0-6.034 3 0 3 6.034 0 6.034zm10 4.559c-3 0-3-5.239 0-5.239s3 5.239 0 5.239zm-8 6.34c-3 0-3-4.872 0-4.872 4 0 4 4.872 0 4.872zm30 48.604c-3 0-3-3.975 0-3.975 2 0 2 3.975 0 3.975zm-8-9.169c-2 0-2-4.423 0-4.423 3-.001 3 4.423 0 4.423zm13.365-15.779l-.041.522c-.099 1.268-.987 2.334-2.334 2.334s-2.235-1.066-2.334-2.334l-.041-.522c-.101-1.292 1.157-2.375 2.375-2.375s2.476 1.082 2.375 2.375zm17.454 8.023c-1.52 0-2.548-1.453-2.201-2.89l.118-.489c.498-2.067 3.669-2.067 4.167 0l.118.489c.346 1.436-.681 2.89-2.202 2.89zM289 197.904c-2 0-2-3.751 0-3.751 3 .001 3 3.751 0 3.751zm0-26.501c-2 0-2-3.975 0-3.975 4 0 4 3.975 0 3.975zM143.648 76.158c-.47-.753-1.281-1.266-2.247-1.266-.708 0-1.395.285-1.895.785-.735.735-.842 1.632-.689 2.608.221 1.42 1.709 2.48 3.107 2.439 1.432-.042 2.63-1.164 2.63-2.63a2.455 2.455 0 0 0-.906-1.936zm-2.987-9.065c0 1.318-1.191 2.748-2.609 2.609l-.522-.051c-1.387-.135-2.558-1.061-2.558-2.558 0-1.497 1.171-2.423 2.558-2.558l.522-.051c1.418-.139 2.609 1.291 2.609 2.609zM156 68.529c-3 0-3-4.872 0-4.872 4 0 4 4.872 0 4.872zm-12 85.519c-2 0-2-4.749 0-4.749 3 0 3 4.749 0 4.749zm4.863-10.391l.012-.021a1.474 1.474 0 0 0-.054.295c-.138.988-1.286 1.676-2.201 1.676s-2.063-.688-2.201-1.676a1.563 1.563 0 0 0-.054-.295l.012.021c-.136-.431-.185-.889-.223-1.377-.106-1.342 1.202-2.466 2.466-2.466s2.572 1.124 2.466 2.466c-.039.488-.087.946-.223 1.377zM95 170.021c-2 0-2-4.342 0-4.342 3 0 3 4.342 0 4.342zm0-12.341c-2 0-2-4.709 0-4.709 3 .001 3 4.709 0 4.709zm-.379-21.311c-.319.242-.986.76-.499.378-.55.43-1.044.734-1.773.734a2.518 2.518 0 0 1-1.773-.734 2.518 2.518 0 0 1-.734-1.773c0-.727.303-1.225.734-1.773.838-1.064 1.945-1.778 3.338-1.809 1.383-.03 2.538 1.177 2.538 2.538 0 1.021-.751 2.25-1.831 2.439zM105 145.678c-3 0-3-4.709 0-4.709s3 4.709 0 4.709zm11 5.74c-2 0-2-4.709 0-4.709 3 .001 3 4.709 0 4.709zm1 26.184c-3 0-3-4.892 0-4.892 4 0 4 4.892 0 4.892zm-71.074-9.752c0 1.328-1.2 2.769-2.63 2.63l-.522-.051c-1.398-.137-2.579-1.07-2.579-2.579 0-1.509 1.18-2.442 2.579-2.579l.522-.051c1.43-.139 2.63 1.302 2.63 2.63zM52 176.252c-2 0-2-4.281 0-4.281 3 .001 3 4.281 0 4.281zm10.851 7.018l-.044.011a.59.59 0 0 1 .063-.017l-.019.006zm.019-.006l-.019.006a2.315 2.315 0 0 0-.62.316c.255-.184.472-.273.576-.305-.035.008-.08.016-.146.026-.245.038-.477.18-.698.296-1.5.795-1.5 3.183 0 3.978.204.108.366.177.622.269.264.094.271.086.164.022 1.495.571 3.355-.502 3.355-2.28 0-1.731-1.761-2.798-3.234-2.328zm21.407 2.328l-.031.522c-.074 1.27-1.005 2.334-2.334 2.334-1.329 0-2.26-1.064-2.334-2.334l-.031-.522c-.075-1.288 1.133-2.365 2.365-2.365 1.232.001 2.44 1.077 2.365 2.365zM63 168.455c-2 0-2-4.342 0-4.342 3 .001 3 4.342 0 4.342zm-13.184 17.137c.137 1.273-1.17 2.344-2.344 2.344s-2.481-1.071-2.344-2.344l.112-1.044c.13-1.209.917-2.232 2.232-2.232s2.102 1.023 2.232 2.232l.112 1.044zM80 201.178c-2 0-2-4.036 0-4.036 3 0 3 4.036 0 4.036z"/></svg>