<svg xmlns="http://www.w3.org/2000/svg" viewBox="0 0 320 320"><path d="M93.652 77.215c6.068-2.132 9.173 32.275 3.398 34.78-5.507 2.386-9.152-32.757-3.398-34.78zm84.725 117.061c-3.538 4.746 1.097 15.433 4.545-.992-1.099-1.099-2.974-1.115-4.545.992zm42.542-53.414c-4.255-1.149-7.434 6.742-10.263 18.52 6.067-6.064 14.286-17.433 10.263-18.52zm3.53-79.516c-2.189-1.538-5.126-.982-4.538 2.123.584 3.091 3.876 3.685 3.876 3.685s2.855-4.269.662-5.808zm-94.757 26.459c0 2.123 2.914 4.534 5.438 3.084 2.263-1.301 3.573-4.102 3.573-4.102-3.433-2.719-9.011-2.464-9.011 1.018zm162.711 73.216c0 8.371-6.794 25.82-24.121 22.842-3.398 10.236-13.93 15.651-28.057 12.832-8.531 13.461-17.469 26.838-44.989 20.384-1.386 15.967-7.344 37.711-34.597 32.955-2.849 19.025-23.737 30.577-39.809 22.268-8.617 16.124-24.119 16.462-30.088 5.93-12.328 8.155-25.439.34-25.439-33.634-14.611 2.039-22.939-4.88-24.105-21.954-12.911-7.601-36.336-39.426-18.814-54.828-21.858-21.857-11.859-70.214 7.392-69.308-2.489-21.064 5.843-39.137 22.019-40.27 4.766-12.73 26.617-19.75 41.176-12.093 27.857-16.038 63.871-13.547 84.323-3.581 15.561-7.021 31.417-4.305 42.122 3.581 10.358-2.901 18.455 3.271 21.514 13.804 30.577-2.379 42.619 12.017 38.491 30.603 9.926-1.848 19.436 4.898 18.399 14.736 17.685-1.003 16.306 41.952-5.417 55.733zM168.915 71.385c-.147 18.775 23.809 19.456 38.095 15.525 7.975-2.196 13.856-7.824 17.887-14.126 10.72 4.853 31.721 4.091 30.403 10.251-.559 2.618-5.702 4.033-16.14 2.009-15.482-3-34.395 8.414-30.265 13.311 3.114 3.692 11.265-5.675 19.775-5.156 12.337.743 32.901 8.873 39.578-3.149 6.716-12.093-7.957-20.982-23.482-20.671-5.558.111-11.59.282-17.209-1.068 1.793-3.514 2.625-6.568 2.238-8.156-1.986-8.115-15.819-3.636-14.543 4.008.402 2.4 2.842 5.086 6.15 6.997-.249.405-.707.924-1.379 1.433-6.817 5.174-26.475 10.947-28.465-2.69-1.988-13.605 21.168-10.912 23.391-12.714 2.725-2.204-6.462-6.474-16.83-7.181-12.305-.836-29.06 3.324-29.204 21.377zm-55.784-6.173c6.663-.471 23.102-7.851 41.599-7.851-2.187 2.19-5.599 8.434-10.614 18.148-5.024-3.501-9.001-3.728-14.729-2.291-14.232 3.566-15.1 23.94-5.804 30.111 7.701 5.112 13.953-3.242 18.973-13.457.133-.263.278-.546.429-.833 1.553 1.074 3.335 2.475 5.395 4.256 13.315 11.527 27.196 5.082 28.609 2.276 2.055-4.085-6.496-1.723-15.495-7.024-4.832-2.849-8.737-6.906-12.079-9.714 8.144-12.285 23.83-28.715 14.883-30.543-12.434-2.543-25.319-2.318-29.991-1.859-21.609 2.121-31.239 4.445-31.947 9.167-.826 5.53 4.139 10.084 10.771 9.614zm55.173 42.371c-3.125-.452-1.583 8.029-11.319 10.803-7.871 2.243-14.88-5.72-19.764-4.657-10.125 2.205-6.928 13.188-15.464 20.513-6.912 5.929-16.676 5.579-17.992 7.51-3.428 5.024 11.255 12.675 23.47 4.295 9.659-6.626 12.303-22.057 12.303-22.057s7.342 9.781 18.564 5.668c11.125-4.077 15.504-22.075 10.202-22.075zM78.419 91.85c.203 15.816 8.208 32.388 17.439 32.27 9.227-.118 16.556-13.049 16.352-28.865-.204-15.815-7.862-28.552-17.092-28.433-9.228.118-16.904 9.214-16.699 25.028zm1.321-25.269c7.469-.656 13.467-3.422 11.358-5.651-5.883-6.215-23.613-9.284-25.69-1.153-1.134 4.44 7.099 7.441 14.332 6.804zM58.26 184.419c2.817-6.287-26.303-38.056-21.686-50.804 6.064-16.751 25.141 41.675 29.778 28.835 5.632-15.592-23.89-69.831-10.299-71.644 7.091-.946 9.311 38.968 18.799 46.997 11.776 9.967 20.461-6.908 13.275-8.72-4.737-1.197-7.737-5.395-11.285-11.778-7.717-13.888-7.378-59.311-26.634-47.002-16.126 10.31-6.557 48.776-6.557 48.776s-15.231-16.948-19.656.28c-5.081 19.786 1.992 39.181 19.43 56.617 0 0-9.266-2.633-12.39 5.614-2.745 7.26 8.458 26.925 14.143 22.463 4.249-3.332-9.194-15.177-3.138-18.632 7.446-4.241 13.608 4.827 16.22-1.002zm85.877 65.749c-2.478-4.776-6.632.877-13.786-3.758-7.43-4.811-5.187-15.901-3.403-31.029 2.754-23.395 15.195-51.779-1.85-54.243-17.516-2.528-22.602 27.969-22.602 27.969s-1.37-16.816-13.919-17.617c-15.733-1.003-14.335 35.783-14.335 35.783s-10.075-14.075-17.383 1.669c-5.056 10.899-2.453 21.092 2.162 22.63 4.228 1.407-1.944-16.719 8.432-15.7 10.37 1.019 9.86 51.776 14.588 51.776 13.008 0-5.035-65.858 5.746-68.055 16.325-3.214 4 70.859 14.579 72.686 9.431 1.631.807-80.796 13.94-81.444 12.737-.629-9.015 43.953 4.412 64.887 8.096 12.616 26.165-.258 23.419-5.554zm31.213-27.155c-5.643-.51-13.196.577-12.391-17.374 1.126-25.087 22.029-52.115 8.167-50.855-7.964.725-16.214 65.057-24.673 68.187-4.757 1.761.224-20.55 4.05-36.741 3.338-14.132 6.311-40.469-1.813-37.215-8.481 3.398-3.568 19.31-8.481 38.304-6.225 24.078-12.789 49.176-2.575 51.684 13.092 3.216 18.869-11.732 18.869-11.732s5.015 9.359 11.837 8.166c7.869-1.371 13.571-11.832 7.01-12.424zm50.413-32.322c-5.022-2.521-4.941 5.046-20.504 3.831-7.116-.556-9.61-4.11-12.727-7.173 1.472-8.76 6.101-39.409 12.558-59.618 1.877-5.883-12.556-2.047-22.267.938-9.815 3.02-20.605 5.472-21.957 12.308-1.544 7.817 5.026 9.705 11.606 6.004 12.683-7.139 19.568-7.365 19.568-7.365s-3.608 22.204-7.018 42.232c-8.049-7.238-14.674 10.937-15.299 18.842-.405 5.089.247 15.442 9.128 13.095 4.536-1.199 9.35-9.928 11.176-16.245 4.653 3.547 10.107 8.583 18.001 7.257 11.471-1.927 22.96-11.483 17.735-14.106zm5.549-25.82c-1.309-3.51-5.424 1.774-7.685 5.797-6.754 12.009-15.255 11.078-14.193.716 16.547-12.452 27.929-45.866 18.416-49.943-16.216-6.951-36.591 65.427-19.364 67.099 13.127 1.273 25.566-16.336 22.826-23.669zm49.37-4.416c-2.921-2.619-8.047 6.736-14.322.313-6.207-6.35 1.298-41.772-8.667-44.678-8.481-2.474 3.713 50.633-6.331 49.547-4.836-.523-3.862-11.864-3.862-24.322 0-12.989-2.178-34.212-9.182-32.284-10.288 2.831.299 10.087-.805 28.887-.979 16.723-4.283 37.146 9.062 44.835 15.33 5.923 16.339-13.778 16.339-13.778s4.545 7.428 10.815 4.621c6.324-2.828 9.3-11.04 6.953-13.141zm17.951-38.845c-3.285-9.06-8.678.232-8.678.232s4.034-17.107-5.42-19.872c-8.766-2.564-10.414 14.724-10.414 14.724s-.317-5.192-3.132-9.93c-6.566-11.067-14.987-.887-5.707 5.658 7.439 5.248.961 40.223 7.455 41.314 5.492.924 2.792-36.882 8.743-38.015 8.683-1.308-4.9 29.62.151 32.049 4.466 2.152 4.997-19.025 11.907-20.158 3.575-.584-6.103 19.373-2.277 22.91 2.21 2.044 10.56-20.119 7.372-28.912z"/></svg>