<svg xmlns="http://www.w3.org/2000/svg" viewBox="0 0 320 320"><path d="M82.581 36.736c1.337-2.605 2.759-5.143 4.212-7.651a151.756 151.756 0 0 1 11.703-5.864c-7.344 14.752-10.671 31.122-16.819 46.994-6.575 16.972-15.146 32.777-26.373 47.138-13.547 17.32-28.76 33.935-45.14 49.025-.14-3.274-.208-6.554-.134-9.841 22.545-18.896 44.786-41.668 54.566-68.813 6.086-16.901 9.737-34.917 17.985-50.988zm-65.359 77.356C33.937 91.848 49.004 68.493 63.79 44.887c-6.294 5.265-12.179 11.126-17.625 17.494-6.483 10.176-13.125 20.24-20.061 30.095a150.934 150.934 0 0 0-8.882 21.616zm57.996 7.167c21.599-35.025 43.729-71.656 61.275-109.399-2.54.403-5.067.864-7.582 1.399-15.879 34.725-36.923 67.411-55.775 100.466-15.165 26.574-40.384 44.42-61.855 65.704a148.058 148.058 0 0 0 1.777 10.619c8.278-7.614 16.941-14.868 25.054-22.335 14.927-13.74 26.484-29.234 37.106-46.454zm141.609 177.752a152.52 152.52 0 0 0 10.873-4.948c.891-5.461 1.691-10.94 2.68-16.386 3.645-20.124 12.289-36.855 23.333-53.909 14.725-22.75 27.246-49.041 34.065-75.383.489-1.875 1.447-6.609-1.911-3.577-49.505 44.734-81.482 99.645-99.003 162.951a149.549 149.549 0 0 0 9.633-2.086c.104-.373.25-.733.342-1.106 6.178-26.638 15.335-53.793 28.235-77.939 11.08-20.735 29.853-39.411 47.447-55.503-9.066 28.15-26.727 51.64-40.073 77.911-8.283 16.312-12.178 32.979-15.621 49.975zm57.551-83.439c-10.549 24.555-22.631 48.671-35.457 72.243 4.926-3.039 9.676-6.404 14.255-10.03 13.443-24.69 26.037-49.942 37.411-75.59 6.825-15.393 13.083-31.027 19.414-46.631a150.789 150.789 0 0 0-2.021-20.46c-11.857 26.538-22.125 53.768-33.602 80.468zm.842-91.564c-16.636 25.664-36.348 48.179-54.773 72.487-19.554 25.792-35.012 54.165-45.182 84.899-3.01 9.086-5.372 18.768-7.668 28.605 3.309-.171 6.618-.412 9.902-.8 1.056-4.062 2.112-8.118 3.193-12.15 10.445-39.105 24.578-72.255 50.152-103.887 17.429-21.572 33.998-42.764 49.108-66.11 5.726-8.848 11.85-17.396 18.095-25.853a148.942 148.942 0 0 0-2.656-5.849c-6.966 9.368-13.803 18.836-20.171 28.658zm14.756 111.147a150.909 150.909 0 0 0 12.357-27.39c-11.783 16.627-21.709 34.194-30.665 52.653a150.477 150.477 0 0 0 18.308-25.263zm-266.46-12.882c7.381-11.765 15.513-25.032 22.008-37.291 2.015-3.805 3.559-10.262-2.082-4.828-8.37 8.057-17.881 16.215-26.495 25.023a150.639 150.639 0 0 0 3.138 8.936c.122-.125.244-.254.373-.379 1.423-1.405 2.869-2.788 4.292-4.19-1.288 2.144-2.631 4.251-3.944 6.377a150.036 150.036 0 0 0 2.71 6.352zM87.3 291.342c8.602-16.337 16.459-33.14 26.568-48.542 9.805-14.944 23.382-27.228 35.14-40.571 10.574-11.988 19.689-24.821 28.461-38.152 15.702-23.874 30.647-48.631 42.716-74.564 8.614-18.505 12.1-38.583 17.002-58.114-.715-.431-1.404-.889-2.131-1.307-1.3-.748-2.613-1.429-3.925-2.135-5.244 19.598-7.985 39.857-15.928 58.633-11.27 26.632-27.899 51.539-44.138 75.343-17.881 26.205-43.333 46.066-59.834 73.407-10.421 17.268-18.98 35.578-28.736 53.215.849.513 1.667 1.051 2.527 1.549.752.432 1.521.817 2.278 1.238zM256.246 86.589c-1.947 3.592-4.029 8.216-2.375 9.218 2.216 1.341 7.112-6.337 8.999-9.446.427-.687.848-1.375 1.245-2.08 3.852-6.459 7.863-12.955 11.85-19.507a147.355 147.355 0 0 0-6.196-7.089c-4.909 9.345-9.384 18.959-13.523 28.904zM124.423 267.254c20.165-26.391 44.676-49.093 64.419-75.807 10.775-14.568 19.816-30.306 27.661-46.615 9.255-19.244 14.206-40.04 22.191-59.776 5.415-13.38 12.759-25.731 19.7-38.314-1.416-1.225-2.833-2.443-4.298-3.622-6.85 12.684-14.163 25.127-20.048 38.36-8.84 19.858-13.779 41.161-22.625 60.937-8.535 19.067-21.746 35.877-35.579 51.362-29.175 32.664-56.446 65.676-77.898 102.968 1.691.77 3.394 1.484 5.097 2.187a320.68 320.68 0 0 1 21.38-31.68zm159.448-185.28c.653-1.213 1.337-2.403 2.009-3.604a152.495 152.495 0 0 0-4.163-6.087c-2.161 3.454-4.298 6.921-6.343 10.457-9.499 16.425-17.845 33.492-27.228 49.984-9.615 16.914-21.941 32.059-34.022 47.239-21.032 26.43-40.811 53.496-55.231 84.191-6.801 14.486-11.044 30.013-16.502 45.036 3.126.37 6.251.614 9.383.785 6.544-12.715 10.897-26.449 15.403-39.994 13.113-39.417 38.65-70.059 63.784-102.259 20.939-26.839 36.799-55.872 52.91-85.748zM151.248 34.705c5.269-8.234 10.702-16.383 16.135-24.534a149.377 149.377 0 0 0-5.946-.171c-21.959 33.617-44.669 66.703-62.282 103.047-16.154 33.351-28.705 68.627-47.71 100.543-5.488 9.223-11.642 18.178-18.107 26.895a159.95 159.95 0 0 0 3.028 4.646c23.894-34.283 43.162-70.624 60.347-109.543 15.629-35.399 33.687-68.317 54.535-100.883zM122.14 304.222c-.147.336-.311.669-.458 1.005 1.856.492 3.712.977 5.58 1.396 4.414-9.697 8.834-19.83 12.448-29.341 1.533-4.031 2.259-10.616-2.662-4.532-7.717 9.529-16.709 19.351-24.475 29.781 2.924.977 5.867 1.836 8.821 2.627.252-.313.496-.625.746-.936zm-.348-176.219c17.875-41.668 48.668-76.311 74.651-113.532a148.611 148.611 0 0 0-9.389-2.055c-21.269 29.179-43.784 57.586-59.987 89.881-11.367 22.665-19.914 46.741-29.114 70.331-11.843 30.373-32.557 57.998-54.168 82.373a149.908 149.908 0 0 0 7.185 8.182c16.642-20.918 31.202-43.451 43.131-67.426 10.842-21.81 18.1-45.382 27.691-67.754zm48.504 14.046c17.954-24.961 31.507-51.444 41.623-80.468 4.212-12.079 7.369-25.001 10.854-37.826a149.321 149.321 0 0 0-10.745-4.459c-4.902 14.706-8.48 30.038-12.948 44.511-10.586 34.295-25.354 64.434-46.983 93.13-17.338 23.01-37.148 44.013-56.33 65.456-13.748 15.372-25.598 31.742-36.513 48.906a153.44 153.44 0 0 0 5.214 4.496c29.577-48.938 72.458-87.353 105.828-133.746zm24.688-97.879c-2.497 11.792-5.501 23.428-10.146 34.552a12.352 12.352 0 0 1-.684 1.652c-.525 1.213-1.172 2.422-1.88 3.616-13.803 26.962-31.135 51.337-50.939 74.265-.763.886-10.488 10.656-8.388 4.16 7.283-22.558 15.678-45.711 28.815-65.579 10.024-15.152 20.995-29.723 32.142-44.062.653-.838 11.684-11.475 11.08-8.604zM175.43 73.108c-4.524 6.069-8.938 12.216-13.101 18.514-8.492 12.837-14.078 28.031-18.992 42.917 9.737-12.754 18.302-26.162 25.555-40.791 2.857-6.558 4.865-13.594 6.538-20.64z"/></svg>