<svg xmlns="http://www.w3.org/2000/svg" viewBox="0 0 320 320"><path d="M204.197 86.558c-1.749-.211-3.398-.495-4.871-1.518-1.703-1.182-3.737 1.489-2.205 2.858.488.436 1.012.818 1.561 1.156-.33 1.052.217 2.419 1.651 2.419.819 0 1.344-.45 1.587-1.029.558.152 1.127.271 1.703.354 3.109.45 3.686-3.864.574-4.24zm-33.492-9.348c-.337.85-.297 1.836.181 2.651.269.455.631.817 1.086 1.086.767.449 1.488.43 2.333.305a.648.648 0 0 0 .115-.022c.645-.149 1.25-.613 1.629-1.193 1.085.425 2.21.734 3.412.879 2.485.298 2.966-3.769.585-4.321-2.051-.475-3.975-1.194-5.872-2.101-1.482-.709-3.035-1.806-4.713-1.876-1.489-.062-2.052 1.779-1.148 2.773.635.7 1.494 1.286 2.392 1.819zM181.6 96.623c-.407-.05-.814-.19-1.195-.293-1.408-.38-6.197-2.096-6.157-3.93.044-2.022-2.495-2.392-3.525-.955-3.92 5.47 9.165 12.989 13.556 10.186 2.854-1.822 3.958-5.791 5.03-8.794 1.374-3.853 2.926-8.034 3.519-12.095.399-2.733-3.477-5.043-4.885-2.059-2.224 4.714-3.047 10.127-4.923 15.007a19.822 19.822 0 0 1-1.42 2.933zm-11.531-59.812l.099.022c1.493.326 2.854-.431 3.329-1.89.09-.277.142-.573.108-.863-.113-.844-.123-.921-.033-.232a7.606 7.606 0 0 0-.114-.797c-.414-2.182-3.582-2.356-4.581-.644-.473.489-.763 1.111-.763 1.837.001 1.136.807 2.317 1.955 2.567zM175 42.538c3 0 3-4.482 0-4.482-2 0-2 4.482 0 4.482zm-2.922 24.878c2.68 2.163 5.344 4.706 8.435 6.261 2.395 1.205 4.4-2.167 2.106-3.604-2.826-1.769-5.435-3.855-8.261-5.612-1.787-1.11-3.961 1.598-2.28 2.955zM171 49.544c3 0 3-4.811 0-4.811-4 0-4 4.811 0 4.811zm-13.861 59.355c-.185 1.047.267 2.101 1.364 2.403 1.071.295 2.062-.357 2.402-1.364.072-.214.149-.426.226-.638l.021-.041c.01-.018.011-.024.017-.038.716-.798.752-2.019-.028-2.799-.744-.744-2.101-.81-2.835 0-.638.706-1.002 1.544-1.167 2.477zm-3.109-46.066c1.64 1.543 3.879-.766 2.442-2.442-1.471-1.717-.972-2.251.405-3.617 1.395-1.384 2.57-3.333 1.371-5.245-1.124-1.793-4.345-1.204-4.195 1.136.015.23-.02.416-.03.483-.076.125-.128.149-.357.414-.643.742-1.305 1.474-1.739 2.363-1.295 2.651.144 5.065 2.103 6.908zm8.379 33.226c1.237.038 2.459.229 3.684.392.872.116 1.729-.701 1.943-1.479.265-.963-.32-2.313-1.407-2.478-1.402-.213-2.799-.395-4.22-.382-2.551.023-2.539 3.869 0 3.947zM165 45.128c3 0 3-4.4 0-4.4-2 0-2 4.4 0 4.4zm12.728 66.849c-.978.573-1.167 1.704-.711 2.617.211.877.904 1.556 1.882 1.556 1.086 0 1.908-.885 1.943-1.943.018-.536-.108-1.077-.414-1.522-.608-.884-1.72-1.282-2.7-.708zm22.987-28.269c1.923.372 3.893.757 5.85.876 3.139.191 3.17-4.984 0-4.893-1.623.047-3.264-.133-4.878-.284-1.18-.11-3.029-.6-4.302-.138-.582.048-1.124.39-1.314 1.127-.126.491-.019.927.22 1.297.599 1.489 3.089 1.757 4.424 2.015zm6.852 169.961c-8.356-1.766-17.061-1.66-25.522-2.789-4.025-.537-8.042-1.073-12.11-.942-3.766.121-7.344.691-11.033-.377-2.151-.622-3.024 2.2-1.426 3.382 4.709 3.483 13.245 2.241 18.787 2.856 9.874 1.095 20.037 1.671 29.829 3.223 3.459.548 5.027-4.603 1.475-5.353zm41.433-4.76c-2 0-2 4.872 0 4.872 4 0 4-4.872 0-4.872zm22.922 1.158c-.396-1.204-1.421-2.075-2.726-2.075s-2.33.872-2.726 2.075l-.079.241c-.596 1.813.984 3.682 2.805 3.682 1.821 0 3.401-1.87 2.805-3.682l-.079-.241z"/><path d="M286.829 239.33c-.638-1.284-1.437-2.202-2.35-2.851 5.427-5.949 3.455-17.576-5.394-18.06.582-2.655.848-5.409 1.008-7.936.764-12.11-1.479-24.475-5.174-35.964-3.909-12.154-10.802-22.333-17.311-33.174-6.734-11.215-17.521-24.949-16.777-38.681a20.986 20.986 0 0 0 2.662-2.134c5.536-5.248.163-9.655-5.145-10.94.404-2.748.549-5.527 1.009-8.277.685-4.094 2.717-7.806 4.24-11.631 1.918-4.816 1.341-8.028-.748-12.504-1.325-2.839-5.801-9.013-9.5-9.469 1.86-7.522-.414-16.478-5.538-22.065-2.978-3.248-7.275-5.298-11.112-7.303-4.558-2.382-8.881-4.99-13.732-6.761-8.214-2.998-16.031-1.316-23.899 1.584-4.582 1.689-12.713 4.227-13.254 10.027-.084.896.346 1.599.987 2.038-5.116 4.837-8.188 11.848-12.566 17.472-.013.017-.021.035-.033.052-1.566-.146-3.061.132-4.236 1.042-3.367 2.608-3.55 8.442-4.031 12.336-.221 1.787-.479 3.762-.603 5.761-.724 3.039-.694 6.155 1.593 8.422-5.551 4.918-10.496 10.261-14.905 16.275-1.375 1.875-2.864 3.648-4.411 5.369-3.912 2.434-7.331 5.586-10.638 8.831-.297.262-.601.516-.895.781-.308.212-.619.42-.93.627-3.149.587-6.485.465-9.65.625-5.997.303-11.941.27-17.945.28-9.268.015-18.613 1.701-25.902 7.8-13.051 10.921-16.738 28.894-20.998 44.526-1.744 6.397-4.234 12.534-6.175 18.87-1.55 5.059-4.196 12.597-.502 17.279.784.993 2.134 1.547 3.616 1.878-2.086 5.057-1.834 13.433-1.938 16.496-.436 12.743 1.353 24.621 7.455 36.009 7.183 13.404 19.009 25.433 31.714 33.646 2.803 1.812 5.761 3.444 8.801 4.917 1.124 6.624 3.086 13.718 8.386 18.112 5.306 4.399 12.754 5.214 19.345 5.949 9.649 1.075 18.957 1.999 28.671.971 9.401-.995 18.548-3.811 27.74-5.894 10.28-2.33 20.754-2.193 31.174-3.409 6.923-.808 14.875-.156 21.284-3.338 13.658-6.782 5.521-18.904.486-28.785 1.207-4.091 2.499-8.159 3.587-12.283 8.931 8.646 19.614 8.717 31.892 8.151 9.304-.429 28.47 3.174 30.627-9.775.711-4.295 2.036-10.825.015-14.892zM87.504 279.265c-12.823-6.134-23.015-15.273-32.036-26.135-8.812-10.61-13.974-22.848-14.422-36.664-.142-4.383-.014-8.76.145-13.141.055-1.527-.159-6.687.753-9.338.374.028.724.055 1.04.086 4.47.438 8.977.529 13.454.936 6.65.604 13.305 1.407 19.901 2.44 3.244.508 6.396.845 9.561.521.032.337.073.671.114 1.005-.63 7.164-1.247 14.099-2.961 21.133a105.574 105.574 0 0 0-13.179-12.593c-3.174-2.554-7.715 1.949-4.506 4.507 13.153 10.484 22.678 23.194 29.27 38.622 2.653 6.209 5.861 12.042 11.361 16.184 2.435 1.833 6.228 4.984 9.494 5.271-1.087 5.809-.493 12.417.314 17.682-8.609-4.87-19.477-6.294-28.303-10.516zM240.732 96.763c-.384.779-1.008 1.421-1.738 1.972a2.018 2.018 0 0 0-.24-.619c-.719-1.186-1.359-2.325-1.617-3.593 1.919.046 4.505.393 3.595 2.24zm-22.43-35.475c.914-.907 2.386-1.609 3.514-1.415 1.908.329 2.541 2.485 2.891 4.165.575 2.761 4.933 1.597 4.242-1.17-.656-2.626-2.023-5.144-4.404-6.398.464-.267.818-.748.872-1.438.178-2.273 2.188-1.493 2.958.042 1.254 2.501 4.996.304 3.746-2.189-.091-.181-.206-.346-.315-.516.093-.078.181-.164.256-.269 1.707-2.387 7.324 10.012 7.687 11.616.801 3.54-3.452 9.509-4.727 12.885-1.438 3.811-2.269 9.384-1.746 13.43.015.115.045.223.075.331a2.622 2.622 0 0 0-.177.356c-3.295.27-6.454 1.363-9.559 2.535-1.887.712-3.832 1.281-5.688 2.023.05-.221.066-.457.029-.702-.388-2.585-.77-5.134-.852-7.752-.103-3.273 2.238-6.286 3.895-8.918 2.109-3.35 3.441-6.701 2.721-10.646-.433-2.371-4.464-2.437-4.837 0-.15.98-.397 1.875-.679 2.739-2.129-2.587-2.63-6.002.098-8.709zm-6.007 43.55c.927 1.507 2.525 2.344 4.243 2.803l-.002.023c-.002 2.258.076 4.505.204 6.745-6.171-1.419-12.511-1.986-18.843-2.217 3.985-3.795 7.978-7.61 11.359-11.953 1.315-1.689 3.014-4.007 4.447-6.495.337.718.707 1.435 1.115 2.156.152.268.335.46.532.6-.781.444-1.533.948-2.234 1.555-2.021 1.754-2.142 4.634-.821 6.783zm4.005-3.601c1.165-1.39 3.798-2.187 5.414-3.011 3.141-1.602 7.239-3.132 11.027-3.772.057 2.261.987 4.373 2.416 6.235a48.57 48.57 0 0 1-.992.352c-3.906 1.336-8.118 1.787-12.171 2.475-.695.119-7.888.338-5.694-2.279zm-66.813-43.511a65.734 65.734 0 0 1 1.077-7.323c.25-1.202.643-3.296 1.856-3.796 2.264-.933 7.41 1.903 8.197 3.833.725 1.779 3.467 1.149 2.954-.814-.576-2.202-2.853-4.421-5.515-5.735 5.34-6.169 9.019-15.355 16.844-18.369.269.463.408 1.099.344 1.968-.13 1.772-.005 3.148.661 4.774 1.745 4.257 6.527 5.033 5.059 10.443-1.214 4.475 1.956 8.952 6.562 8.962 1.859.004 3.718-.853 5.427-1.479 3.745-1.37 1.35 3.212.605 5.43-.781 2.323-1.511 5.231-.18 7.503 1.39 2.372 3.604 2.596 5.935 2.487 1.384 3.559 5.017 5.059 7.908 3.66 1.763 3.484 4.663 6.391 7.34 2.33a15.602 15.602 0 0 0 2.057 2.103c-1.249 2.398-2.712 4.666-3.764 7.438-.369.97-.625 1.918-.785 2.85a2.574 2.574 0 0 0-.256 1.041c-.19 4.574-5.346 10.871-8.113 14.19-3.114 3.735-6.878 6.931-10.342 10.331-7.636 7.496-15.174 11.853-26.21 10.128-20.534-3.211-17.449-29.913-16.043-45.406.215-.333.43-.665.62-1.013.144-.263.209-.549.214-.832 2.285.006 4.496-1.145 5.784-3.402 1.332-2.334-1.78-4.735-3.697-2.853-1.493 1.466-2.555 1.909-4.284.384-.514-.453-.749-1.112-.849-1.842l.302.092c-.113-2.359.075-4.747.292-7.083zm-3.184 21.139c-1.9 10.404-2.462 20.565 1.935 30.838 3.587 8.383 9.679 13.672 18.787 15.078 2.125.328 4.152.443 6.101.373-2.474 5.715-4.383 11.236-11.998 12.01-6.196.63-12.551-1.021-18.289-3.202-11.702-4.449-20.946-13.714-24.23-25.761 9.257-9.713 19.283-18.849 27.694-29.336zm-5.022 215.633c-1.741.584-3.947 1.268-6.198 1.638-6.133 2.8-12.863 1.799-14.427-5.826-1.411-6.877-1.277-14.529.807-21.236 2.109-6.788 10.128-7.145 16.072-6.301-.3 1.326-.617 2.646-.933 3.966-1.634.081-3.254.181-4.815.225a1.332 1.332 0 0 1-.482.219c-.062.015-.115.043-.174.062-.865.06-1.715.248-2.532.641l-.101.009c-2.177.203-2.19 3.206 0 3.392.231.02.464.03.695.047 3.635.856 7.339.839 11.235.8 3.005-.03 6.352.722 8.559 2.45.092.07.192.122.275.208.024.025.044.05.067.075.081.071.174.133.251.207l-.049.018c6.702 7.396-.25 16.723-8.25 19.406zm80.039-57.202c-.166 3.825-.492 7.595-1.188 11.364-1.151 6.236-3.134 12.305-4.901 18.394a2.898 2.898 0 0 0-.435 1.515l-.122.425c-.928 3.312-1.63 6.663-2.36 10.021-.916 4.21-4.583 3.318-8.116 3.31-8.146-.017-16.294-.156-24.435.163-7.832.307-15.592.708-23.327-.689 1.096-4.526-1.857-9.659-5.343-12.425-2.464-1.955-5.694-2.586-9.145-2.717 2.005-7.537 3.316-15.253 5.319-22.793 2.107-7.934 5.052-15.613 7.451-23.457 1.513.085 2.999.347 4.489.589 4.367 1.221 8.611 3.138 12.902 4.459 6.671 2.054 13.877 2.711 20.795 3.389 5.54.543 11.205.701 16.784 1.251 1.606.513 3.401.574 5.218.667.354.056.711.102 1.064.164 4.113.725 5.524 2.375 5.35 6.37zm-6.265-18.336c-4.773-6.787-4.64-16.565-3.865-24.456.539-5.494 1.688-10.882 4.217-15.82 1.674-3.268 4.326-5.824 7.023-8.327.289 7.727.689 15.441 2.308 23.026.741 3.471 5.778 1.942 5.234-1.443-1.449-9.008-1.757-18.084-2.213-27.156.3-.764.219-1.557-.117-2.23-.253-4.692-.573-9.381-1.14-14.057-1.64-13.516-4.519-26.849-6.162-40.363 4.039.055 8.631-1.243 12.544-2.134 1.317-.3 2.56-.684 3.752-1.148-.693 8.753 3.073 16.645 7.477 24.29 5.673 9.849 11.664 19.478 17.475 29.238 9.979 16.759 16.305 40.929 11.731 60.298-2.686 11.371-19.715 7.938-28.38 7.987-10.139.058-23.196 1.805-29.884-7.705zm66.586 30.806c-.164 1.95-.149 4.081-1.073 5.856-1.061 2.039-6.588 2.295-8.332 2.471-5.819.587-11.793.13-17.644.447-10.811.586-20.83.597-29.22-7.198.084-.39.173-.778.25-1.169.514-2.581.77-5.175.948-7.782 9.871 2.998 19.632 3.485 29.959 1.688 5.875-1.022 11.796-1.711 17.674-2.703 2.35-.397 7.347-2.291 7.83 1.811.252 2.146-.213 4.441-.392 6.579zm-.289-15.212c-.185.207-.31.423-.389.642-2.185-.273-4.616.105-6.972.499-7.856 1.314-15.811 2.677-23.714 3.622-8.011.957-15.797-.296-23.374-2.778.067-1.695.03-3.516-.564-5.035a43.23 43.23 0 0 0 4.918.715c6.214.547 12.501-.156 18.73.055 6.39.216 12.652.099 18.893-1.42 4.225-1.029 6.818-3.75 8.448-7.154.097.011.187.031.291.034 2.542.064 4.287.754 5.252 3.273.989 2.588.292 5.519-1.519 7.547z"/><path d="M173.589 110.905c-.985-.577-2.471-.281-3.01.789-.669 1.328-1.079 2.771-.898 4.268.148 1.229.921 2.272 2.272 2.272 1.593 0 2.428-1.442 2.191-2.876.024.228.024.204.002-.073-.013-.184.002-.369.014-.553.011.072.091-.415.097-.435-.01.038.251-.668.123-.383.49-1.093.324-2.356-.791-3.009zm14.399-5.542c-.287-.46-.601-.903-.91-1.348-.626-.9-1.753-1.311-2.757-.723-.986.578-1.223 1.779-.723 2.757.452.884.921 1.771 1.324 2.678.378.85 1.546 1.198 2.38.968 1.027-.282 1.883-1.518 1.472-2.592-.225-.585-.452-1.205-.786-1.74zm-23.981-2.074c3.994 2.263 8.65 5.662 13.233 6.441 2.501.425 4.523-3.167 1.861-4.415-2.139-1.003-4.433-1.652-6.606-2.595-2.321-1.007-4.593-2.167-6.991-2.982-2.114-.719-3.387 2.48-1.497 3.551zm2.086 5.08c-1.222-.336-2.266.41-2.681 1.522-.421 1.129-.577 2.361-.584 3.562-.006 1.177.987 2.159 2.159 2.159 1.193 0 2.137-.982 2.159-2.159.004-.226.014-.45.029-.675a3.4 3.4 0 0 0 .008-.152l.027-.153c.082-.488.226-.962.404-1.423.432-1.109-.463-2.39-1.521-2.681z"/></svg>