<svg xmlns="http://www.w3.org/2000/svg" viewBox="0 0 320 320"><path fill-rule="evenodd" d="M157.925 27.92c1.306-.048 1.062 1.531.512 2.814-.65 1.517-1.595 3.779-2.388 5.031-.356.561-1.235 1.026-1.877 1.705-.689.732-1.071 1.706-1.705 2.218-1.285 1.034-4.075 2.32-6.054 2.558-.992.12-1.894-.011-2.814.256-2.344.681-4.259 2.431-6.14 3.411-2.761 1.439-5.477 2.561-7.845 4.349-1.311.992-2.146 2.506-3.325 2.73-1.309.248-3.021-.55-3.156-1.28-.138-.746 1.372-3.038 1.876-3.923 3.287-5.759 7.527-9.552 14.582-11.682 3.38-1.02 6.313-2.534 9.126-4.009 2.814-1.474 5.87-3.321 8.868-4.177.096-.029.238.002.34-.001zm16.715 103.268c-.188 4.062-.518 9.407-.596 13.473-.041 2.057-.438 5.764.17 6.736 1.072 1.717 4.546.469 4.945-1.023.325-1.21.387-2.621.597-3.753.678-3.656.739-9.085.768-12.791.03-3.755 1.777-12.021-2.9-11.001-3.231.707-2.814 4.708-2.984 8.359zm-59.353-.769c-.301 3.501-.464 9.96-.852 14.242-.263 2.91-1.679 6.518.938 7.505 4.184 1.577 3.807-2.7 4.093-5.714.487-5.135.628-9.822.853-14.752.139-3.023.374-8.11-2.472-7.931-3.286.206-2.278 3.387-2.56 6.65zm33.003-.851c1.798-.471 2.435 4.347 2.558 6.056.422 5.881.262 12.292-.34 18.589-.516 5.394-.708 14.868 2.132 16.629.443.274 2.064.692 2.899.852 2.616.501 7.869 1.123 8.784 3.24 1.37 3.169-4.615 2.973-7.163 3.24-5.666.595-11.093 1.135-16.799.938-2.665-.093-6.077.4-8.186-.426-1.183-.464-2.924-2.728-2.132-4.265.574-1.117 3.594-1.127 5.2-1.449 1.837-.37 4.715-1.61 5.629-3.07.958-1.531.767-3.372 1.193-5.202 1.481-6.351 1.749-14.126 2.302-21.745.349-4.791 1.106-11.16 3.753-13.303.066-.052.06-.056.17-.084zm-8.614 6.905c-.695 6.73-.753 14.6-1.535 21.831-.242 2.245-.089 5.276-.767 7.078-1.62 4.304-8.982 2.89-10.831 6.907-2.147 4.667 2.34 8.68 5.884 9.38 7.212 1.427 17.423.538 24.645-.256 4.349-.477 10.609-.101 11.257-3.582.889-4.78-3.263-7.475-6.054-8.612-2.108-.858-5.521-.982-6.141-2.302-.739-1.576.182-5.473.342-7.419.29-3.54.411-6.323.682-9.977.441-5.933.668-12.975-1.109-17.312-.566-1.38-2.181-4.667-3.326-5.456-1.171-.809-3.833-1.109-5.286-.938-5.489.645-7.221 5.434-7.761 10.658zm-34.195 32.663c2.443.57 3.157-4.224.428-3.668-1.454.297-2.067 3.284-.428 3.668zm71.546 2.643c1.588-.203 1.173-3.662-.853-2.984-1.579.528-.753 3.189.853 2.984zm-63.871 1.364c2.25.335 3.278-4.201.767-3.923-1.514.168-2.631 3.646-.767 3.923zm71.973.683c.943-.944.204-3.208-1.365-2.814-2.568.643-.526 4.705 1.365 2.814zm-79.477 1.364c-.259 3.055 4.511 1.85 3.24-.768-.162-.331-.637-.608-1.451-.511-.884.106-1.722.483-1.789 1.279zm71.205 3.411c2.59 1.783 4.332-3.453 1.023-2.728-.931.203-2.286 1.859-1.023 2.728zm-20.026 36.894c-.87 6.155-5.711 8.632-12.963 8.612-6.727-.017-12.715-2.142-16.287-5.713-1.082-1.082-2.452-3.45-2.302-5.031 7.029 5.102 22.975 7.466 31.552 2.132zm-24.558-9.465c.831-.368 3.949.021 4.179.681 1.009 2.898-5.798 3.111-4.691-.255.068-.206.229-.302.512-.426zm12.364-.256c2.348.591-.452 3.994-1.876 3.326-1.13.216-3.487-.89-2.302-2.559.533-.75 2.711-.796 4.178-.767zm-19.443-.342c.485-.148 3.204.091 3.498.598.407.701-.743 2.233-1.281 2.388-1.694.488-3.939-2.456-2.217-2.986zm23.104.438c.328-.566 2.151-.924 2.83-.544.499 1.518-.024 2.972-2.142 2.154-.377-.452-.976-1.112-.688-1.61zm8.533-2.143c2.683.034-.018 3.854-2.132 3.156-.516-.189-.886-1.386-.511-2.133.267-.531 1.564-1.046 2.643-1.023zm-5.891-9.356c1.268-.235 3.809 1.377 6.118 1.84 2.096.421 5.79.282 6.759 1.723.488.724 1.532 2.698.563 3.195-1.549.794-3.588-.497-5.425-.633-2.668-.197-6.582 1.183-9.085 1.814-5.738 1.445-11.961 1.03-18.961.734-3.713-.155-7.579-.692-10.489-.937-.829-.07-1.919.263-2.047-.342-.321-1.515 3.84-.425 4.435-.34 4.273.605 8.792-1.548 11.596-3.327.813-.515 1.736-1.644 2.729-1.619.808.02 2.17 1.853 2.644 2.302.642.609 1.766 1.98 2.899 1.962 2.7-.044 5.072-5.782 8.264-6.372zm-8.349 2.451c-.947-.025-1.807-1.482-2.388-1.961-.723-.598-1.733-1.479-2.814-1.621-3.084-.409-4.867 1.883-7.163 2.984-2.049.984-4.594 2.463-7.079 2.73-1.441.155-3.299-.435-4.775-.256-1.37.165-3.494 1.642-3.667 2.642-.657 3.806 3.263 3.804 4.349 5.544.328.526.215 1.247.426 2.046 2.199 8.294 8.51 16.166 18.505 17.482 3.339.44 7.55 1.104 11.001.17 8.353-2.26 12.066-8.223 14.07-16.884.369-1.598.162-4.177 1.023-5.116.692-.756 2.616-.735 3.156-1.877 1.009-2.136-.214-5.236-1.195-6.225-2.483-2.503-6.056-1.967-10.527-3.191-1.402-.384-3.907-2.072-5.513-1.818-2.984.471-5.318 5.402-7.409 5.351zm152.287 44.201c-.377 5.743-2.248 10.903-6.054 13.39-6.147 4.021-15.456 3.267-25.154 3.837-2.939.173-5.79.816-8.786.936-12.245.49-24.674.329-37.35.682-6.794.189-11.499-.753-15.01-4.264-4.871-4.871-3.456-16.1-3.24-25.073.072-2.999.705-6.754.173-9.376-.235-1.158-4.92-2.304-6.054-2.9-.998-.524-4.649-3.253-5.628-2.559-.345.243-.111 3.16-.173 4.436-.224 4.698-.365 9.314-.595 13.9-.152 3.029-1.313 6.905-1.109 10.058.075 1.138 1.871 2.687 2.814 3.668 1.001 1.044 1.648 2.503 2.559 3.415 3.955 3.955 7.518 8.194 11.513 12.19.975.975 1.968 1.991 2.894 3.073 1.822 2.127 2.995 3.355 4.605 5.881.608.956 1.508 2.023 1.709 2.901 1.11 4.848-3.405 8.816-10.15 7.591-.635-.115-1.663-.857-2.305-.513-.429.228-.522 1.622-.682 2.131-.749 2.362-2.51 4.39-4.946 4.691-1.588.195-3.028-1.093-4.35-.595-.467.176-.55 1.541-.849 2.299-1.021 2.594-3.877 5.189-7.76 4.096-.653-.184-1.708-.951-2.217-.687-.68.35-.847 2.497-1.283 3.24-1.455 2.482-5.103 3.529-8.868 2.305-.684-.221-1.908-1.22-2.554-1.022-.634.194-1.071 2.218-1.536 2.813-1.372 1.757-3.949 2.514-6.91 2.386-1.534-.066-3.772-1.981-4.604-1.704-.81.269-1.822 3.312-2.981 4.09-1.324.886-3.698 1.746-5.974.941-.62-.219-1.943-1.471-2.559-1.281-.66.203-1.219 2.206-1.79 2.645-2.31 1.78-6.496 1.805-8.695.087-.616-.483-1.254-1.602-1.791-1.624-.68-.027-1.646 1.217-2.472 1.624-2.174 1.068-4.578.636-6.315-.428-.592-.363-1.528-1.442-2.132-1.451-1.071-.014-2.027 1.162-3.154 1.277-2.489.255-4.646-.908-5.714-2.213-.386-.473-.896-1.9-1.531-1.964-1.031-.104-1.989 1.481-3.582 1.704a5.44 5.44 0 0 1-3.755-.848c-.736-.502-.989-1.742-1.877-1.709-.578.021-1.241.953-1.532 1.109-2.481 1.339-5.904.812-7.336-1.023-.513-.657-.833-2.314-1.618-2.559-.558-.174-1.627.376-2.219.428-2.614.228-4.26-.693-5.372-2.219-.34-.466-.623-1.653-1.196-1.791-.682-.162-1.497.49-2.132.515-2.558.1-4.858-.967-5.881-2.559-.48-.747-.951-3.018-1.791-3.327-.712-.263-1.652.44-2.474.428-1.825-.031-3.14-1.539-3.923-2.814-.47-.765-.892-2.34-1.536-2.559-.326-.113-1.299.197-2.132.173-1.083-.031-2.609-.409-3.495-.768-3.953-1.606-4.707-3.643-3.837-7.672.698-3.222 4.069-7.532 6.223-10.064 5.106-6.005 9.604-11.722 15.35-17.227 1.279-1.225 2.39-2.915 3.581-4.604.959-1.36 3.872-2.639 4.183-3.922.535-2.206-.097-5.562.081-8.187.474-6.96.839-12.843.854-20.121.246-6.383.194-10.495.428-15.436.062-3.107.78-8.442-2.646-8.442-3.453 0-4.92-.366-6.649-2.391-.435-.511-2.216-2.969-2.732-2.641-.607.386-.428 5.387-.508 6.482-.463 6.261-4.397 10.967-3.073 17.309.39 1.868 2.355 2.81 1.964 5.286-.166 1.045-1.52 1.867-2.306 2.219-5.249 2.348-10.251-2.378-11.848-5.887-1.884-4.715 2.524-13.53 1.531-20.463.156-4.968.092-11.221-.428-15.523-2.571 2.981-5.197 6.485-8.526 9.129-.713.564-2.953 2.295-4.177 1.363-.975-.743.111-5.265.428-6.569.544-2.243 1.431-3.879 1.877-5.714 1.062-4.36.222-9.911-.428-13.894-1.168-7.151-3.745-14.94-1.964-22.941.872-3.937 1.06-3.971-3.17-5.21-3.084-.905-9.062-7.381-9.074-10.935a10.796 10.796 0 0 1-6.179-8.663c-.771-7.46 2.322-13.268 6.855-16.169 1.615-1.03.329-1.383-.128-1.906-.905-.865-1.68-1.846-1.69-2.739-.011-1.162 1.39-2.401 2.559-2.559 3.91-.529 8.524.302 10.659-2.299 4.125-5.024 1.462-13.287.768-20.214-.836-8.359 1.773-13.645 5.795-18.163 7.917-8.895 15.793-15.941 29.336-19.36.815-.206 1.791-1.967 2.559-2.894 2.454-2.961 5.203-5.237 8.701-7.163 3.198-1.763 7.256-3.247 10.399-5.461.795-.56 2.325-2.082 3.16-2.299a6.51 6.51 0 0 1 1.574-.185c.915-.007 1.906.099 3.029.099 1.245 0 4.107-.266 4.345.341.485 1.235-2.618 2.711-3.067 2.981-1.259.756-2.424 1.818-3.409 2.559-2.458 1.85-5.396 2.634-8.273 3.754-2.891 1.127-5.354 2.559-7.591 4.432-3.052 2.552-5.595 4.891-6.737 9.296-.162.622-.912 2.897-.167 3.414.581.402 3.426-1.759 4.177-2.132 3.2-1.587 5.533-2.552 8.1-4.691.827-.689 2.504-2.793 3.668-2.732 1.137.059 1.566 1.676 1.449 2.732-.204 1.85-2.932 4.622-4.176 5.969-1.661 1.797-4.3 2.61-6.229 3.835-4.345 2.764-8.636 4.906-12.282 7.846-1.238.999-4.659 5.577-3.495 7.764.636 1.196 2.261 2.161 3.755 2.814 1.211.531 4.189 1.272 3.923 2.727-.556 3.035-6.082.578-7.76 1.363-2.472 1.159-4.29 3.792-6.054 5.801-4.751 5.408-11.682 15.394-7.083 25.327 1.65 3.562.495 5.721-.936 8.867-2.195 4.828-4.425 13.443-1.277 19.36 1.358 2.551 2.009 5.832 4.432 7.331-1.514-5.788-1.846-14.339-.255-20.889.343-1.413 1.346-5.358 2.647-5.373 1.034-.011 3.028 3.726 2.812 5.2-.461 3.165 1.202 7.256 1.532 11.259.16 1.961-.345 6.075.513 6.563.839.477 3.382.016 3.582-.428.191-.425-.747-2.023-.941-2.554-4.782-13.058-1.31-31.504 5.887-39.909.381-.446 1.348-1.795 2.044-1.536.834.31.239 2.926.087 3.922-.215 1.403-.312 3.209-.595 4.432-.153.659-.566 1.23-.682 2.05-.682 4.805-.583 11.235-1.023 16.628-.324 3.961.066 8.642 1.278 11.936.079.214 1.054 3.062 1.618 2.899.674-.194.384-2.05.513-2.981.968-6.988 1.49-14.862 4.01-19.874 2.271-4.518 5.572-8.186 10.145-10.399.982-.475 4.663-1.162 4.946-1.877.291-.737-.78-3.056-1.023-4.177-1.732-7.934-.381-15.087 4.181-19.699 1.219-1.231 7.366-4.426 8.782-.856.892 2.251-.041 6.475-.342 8.614-.354 2.531-.225 6.059 1.11 8.018 2.654 3.892 7.705 2.158 10.659-.173 3.266-2.578 5.193-5.255 6.822-9.041 2.845-6.614 6.313-15.845 16.031-15.771.601.004 1.371-.055 1.531.508.079.279-1.192 2.707-1.443 2.9-4.421 3.377-7.734 7.099-9.897 12.11-2.279 5.282-5.041 9.116-9.549 12.449-4.369 3.231-11.231 4.799-16.033.514-4.113-3.671-4.916-9.252-3.75-17.054-6.386 4.681-4.29 17.697-.681 23.363 1.946 3.056 5.567 5.286 10.232 5.286 4.964 0 9.005-1.307 12.618-2.812 10.295-4.291 19.162-12.318 23.281-23.283.705-1.875 1.605-3.783 2.645-5.113 1.104-1.408 2.614-2.272 3.923-3.754 2.339-2.648 4.007-6.967 5.368-10.486 1.469-3.792 2.685-7.893 4.01-11.768 1.345-3.936 2.645-9.064 1.877-13.819-.338-2.088-1.189-4.311-1.618-6.308-.334-1.56-3.743-5.728-1.791-7.077.532-.369 4.107-.725 5.027 0 .194.152.518 1.431.768 1.877 1.774 3.157 3.651 4.46 3.582 9.463-.02 1.408.173 4.087.768 4.35.512.225 2.839-1.493 3.668-1.878 3.615-1.676 9.597-2.389 14.067-1.109 5.922 1.695 9.136 5.32 10.747 11.173-3.65-1.6-5.582-4.093-9.551-4.858-8.259-1.594-14.081 4.764-17.395 10.399-.807 1.373-1.577 3.021-2.646 4.524-.474.667-3.107 4.305-1.79 5.199.642.436 2.471-.027 3.836 0 3.726.075 7.562 1.091 9.637 2.814.85.706 1.258 1.892 1.964 2.559.456.429 3.261 1.398 2.9 2.899-.474 1.974-5.554-.553-6.054-.768-1.885-.81-3.945-2.186-5.887-2.046-4.936.357-11.97 3.036-12.536 7.846-.734 6.237 6.558 4.452 11.601 4.691 3.513.167 7.486.308 10.144 1.11 8.065 2.431 14.126 9.502 15.436 18.758.46 3.25-.125 6.993.515 10.492 1.308 7.147-.926 13.683-1.283 20.462 4.637-2.45 7.667-6.376 10.578-10.913 1.289-2.007 2.783-4.118 4.004-6.737.948-2.034 3.11-5.748 2.9-8.186-.198-2.319-1.408-4.865-2.64-6.141-1.051-1.088-6.931-3.292-4.01-5.204 2.99-1.957 5.391-2.188 6.991-5.368 1.241-2.468 2.524-6.067 2.986-9.382.895-6.419-4.283-7.763-8.1-10.149-.945-.591-3.284-1.788-3.414-2.982-.45-4.136 2.244-8.589 3.836-11.172 4.186-6.789 1.363-18.365-2.212-23.536-1.991-2.879-4.46-4.96-6.229-8.528 1.761.08 4.59-.711 6.142 0 .414.19.625.875 1.109 1.363 1.2 1.21 3.153 1.863 4.177 3.242.805 1.08 1.94 2.535 2.473 3.582 1.434 2.814 3.664 5.383 4.604 8.446 1.009 3.282 2.182 6.317 3.409 9.631 1.156 3.123 2.755 5.743 3.841 9.213 1.026 3.281 1.916 6.559 3.668 9.378 4.635 7.454 7.876 21.043 4.259 31.3-.506 1.434-1.193 3.053-1.873 4.685-.515 1.238-2.247 3.004-2.217 4.264.028 1.249 1.597 2.17 1.964 3.5 2.845 10.332-1.163 22.304-4.097 31.041-1.513 4.504-3.152 9.092-5.199 13.472-1.56 3.34-2.773 6.526-3.755 10.232-.25.947-.495 3.771-.255 4.008.58.571 3.513.035 4.605 0 11.139-.349 22.266-.633 32.745-1.109 13.426-.611 25.533-.903 27.118 11.255.387 2.974.173 5.974.34 9.041.328 5.981.86 11.813 0 18.077-.41 2.983.024 6.237.087 9.294.266 12.475 1.365 25.083.601 36.748zM39.735 92.475c2.63 1.754 7.803 4.062 12.704 4.003 1.155-.013 3.384-.418 3.668-1.19.667-1.807-1.227-3.903-1.617-5.286-1.593-5.643.504-12.677 2.554-16.545 2.787-5.262 6.14-10.481 10.658-13.304.667-.418 2.993-1.085 3.16-1.792.121-.508-.868-1.559-1.109-2.045-2.791-5.635 1.588-10.884 5.113-13.472.84-.617 2.55-1.078 2.818-2.046.214-.765 0-3.236 0-3.841 0-1.176.263-3.24-.59-3.274a.915.915 0 0 0-.438.12c-4.046 2.042-7.861 4.002-11.509 6.227-5.368 3.277-10.056 9.043-13.305 14.837-1.849 3.296-2.59 6.986-2.219 11.513.405 4.922 3.004 10.9 1.451 16.199-1.578 5.388-5.251 8.935-11.339 9.896zm9.121 29.931c3.712-5.034 1.774-15.664 4.518-21.404-4.955-.039-9.247-.715-12.981-2.144-2.309-.889-3.464.097-5.539 1.88-2.037 2.039-5.304 5.995-3.955 10.907.737 2.681 3.629 4.702 7.353 4.513 2.672-.137 6.602-1.87 5.535-5.221-.266-.834-1.137-1.877-2.457-1.9-1.79-.031-2.693 1.894-3.078 2.847-.249.618-.239 1.593-.709 1.898-1.382.9-4.03-.391-4.269-1.423-.425-1.84 1.02-4.997 1.818-6.244 1.065-1.666 4.046-3.421 7.035-3.402 2.782.015 6.007 2.141 6.745 4.404.577 1.761.319 4.747-.308 6.103-1.552 3.363-5.649 6.733-10.253 7.682.837 1.773 2.59 4.415 5.7 5.539 3.265 1.182 3.169-1.616 4.845-4.035zm9.551 9.378c-.101-.643-2.395-4.435-3.155-4.345-.654.076-2.48 4.243-2.9 5.026-1.281 2.386-2.268 5.031-2.728 8.019-1.166 7.582 2.57 15.146 3.415 22.087 2.568-5.871 1.821-16.844 3.576-23.536.558-2.127 2.128-5.118 1.792-7.251zm3.928 31.64c-1.808 2.203-1.421 6.672-1.536 10.399-.227 7.215.796 14.679.681 21.919-.089 5.546-5.158 11.111-1.451 15.858.316.405 2.799 2.713 3.75 1.196.315-.502-.362-1.995-.508-2.814-1.338-7.503 2.057-12.336 2.386-20.127.391-9.305.068-20.401-3.322-26.431zm18.84-31.214c-.625-1.484-5.721-2.185-7.878-2.147a5.516 5.516 0 0 0-.39.016c-6.027.471-9.641 3.534-9.128 10.572.542 7.429 1.573 14.619 3.923 21.237 2.44 6.869 3.249 13.352 6.482 18.759.668 1.114 2.717 3.914 4.01 3.841 2.679-.153 1.234-5.19.85-6.822-.359-1.527-1.033-3.057-1.363-4.605-.418-1.947-.148-5.126-.937-6.996-.27-.641-1.159-.931-1.622-1.531-.442-.571-.761-1.449-1.277-2.133-.677-.894-1.693-1.563-2.219-2.559-1.266-2.399-1.383-6.851.26-9.468.805-1.281 3.094-3.025 4.43-3.582.903-.375 2.347-.37 2.901-1.109.453-.605 1.116-3.685.768-4.432-.638-1.37-5.235-1.228-7.338-1.023-1.098.108-2.77 1.048-3.582.682-.494-.224-1.013-1.739-.935-2.386.285-2.406 5.327-3.343 8.273-3.16 1.168.073 3.062 1.221 4.177.601.623-.346.935-2.943.595-3.755zm-3.495 17.141c-.94.024-2.13 1.038-2.474 1.536-1.054 1.531-.666 7.729 1.283 7.332.554-.114 1.019-3.041 1.276-4.177.318-1.4 1.099-4.722-.085-4.691zm148.039-13.987c-.913 3.886-2.229 7.77-.768 11.34 3.855-9.085 8.132-19.468 10.405-30.271.916-4.356 2.977-10.891 1.282-15.35-.965-2.54-4.615-2.827-2.733-6.817 2.249-4.767 5.725-9.811 6.229-16.459.217-2.868-.167-5.548-.515-8.36-.198-1.601-.73-4.248-1.363-5.881-.839-2.168-2.63-3.769-3.836-5.546-2.126-3.13-2.769-6.615-4.183-10.658-.494-1.414-.772-4.702-2.132-5.033a.273.273 0 0 0-.076-.004c-.819.084-2.465 4.255-3.078 5.377-.649 1.186-1.427 2.001-1.873 3.154-1.743 4.512 2.409 4.02 5.027 5.459 1.87 1.027 4.17 3.782 4.778 6.141 1.529 5.938-1.268 13.103-3.582 16.799-.719 1.147-3.159 2.801-3.154 4.004 0 .643 1.048 1.542 1.363 2.132 2.156 4.032 1.366 8.992-.173 12.964-.656 1.691-2.064 3.706-1.873 4.945.166 1.071 1.978 2.298 2.386 3.073.4.756.826 1.728.937 2.727.312 2.817.83 5.163 1.021 7.504.62 7.531-2.681 12.768-4.089 18.76zm-14.495-14.154c.018.716 1.38 2.07 1.873 2.901 2.763 4.672 1.663 12.358 1.963 18.591 1.822-1.921 3.966-4.584 4.86-7.337 1.854-5.716 3.847-12.197 3.328-19.693-.06-.878-1.058-6.295-1.814-6.233-.049.003-.103.035-.15.092-2.343 2.734-4.544 6.285-7.499 8.781-.766.643-2.585 1.919-2.561 2.898zm8.013 33.173c-.281-1.072-.543-2.734-.595-3.923-.034-.781-.005-2.068-.502-2.088-.115-.004-.256.059-.433.211-2.527 2.158-4.645 5.483-4.436 10.064 1.172.121 2.14-.179 3.581-.342.787-.087 3.251-.093 3.495-.595.383-.792-.9-2.527-1.11-3.327zm-14.495-23.282c.59-.553 3.161-1.949 3.582-.428.162.585-.419 2.066-.683 2.9-.505 1.598-2.355 3.723-2.044 5.373.305 1.634 3.161 2.483 3.154 4.35.598-3.664.964-10.647.594-15.436-.093-1.215-.447-3.426-1.282-3.837-.187-.092-.428-.121-.692-.109-.794.04-1.769.457-1.949.704-1.061 1.464-.353 4.762-.68 6.483zm-1.109 16.292c.849-1.034 1.116-3.959 0-4.951-.429 1.119-.786 3.954 0 4.951zm.173 18.244c4.941-3.555 4.355-12.947 4.771-20.549h-.168c-.28.219-.549.48-.681.854-.841 2.376-.962 4.867-2.647 6.649-.675.716-1.501 1.109-1.704 1.791-.828 2.799.683 8.028.429 11.255zm-119.899 8.359c1.28 4.515 1.605 9.203 2.9 13.732 2.043 7.15 3.905 14.051 6.817 20.296 1.131 2.424 1.567 5.507 2.647 7.758 2.205 4.603 5.395 9.048 8.1 12.705 5.875 7.945 15.632 12.115 27.972 13.645 6.385.792 12.974-.193 19.1-1.023 5.831-.789 11.639-2.291 15.349-5.459 1.67-1.425 3.267-3.875 4.605-5.8 3.558-5.119 6.758-10.414 9.977-16.033.529-.923 1.742-2.423 1.704-3.581-.032-1.034-1.098-1.814-1.617-2.473-1.922-2.438-3.26-4.742-4.265-8.013-.851-2.779-2.94-11.882 1.11-12.709 2.609-.533 4.518 2.381 6.395 3.668 1.147.785 3.198 2.427 4.605 2.219 1.549-.229 3.406-5.195 4.176-7.164 2.215-5.663 4.277-11.021 5.286-17.395 1.602-10.113-.643-22.089.26-32.404a304.73 304.73 0 0 1 2.472-20.214c.498-3.184 1.372-6.576 1.365-9.977-.01-3.347-.543-7.024-.937-10.399-.901-7.706-1.352-13.233-4.944-17.741-3.527-4.426-10.413-4.336-18.25-4.091-5.753.18-9.604-1.504-12.964-3.923-.559-.401-2.128-2.594-3.063-2.592a.515.515 0 0 0-.179.032c-1.017.378-1.553 3.475-1.959 4.432-1.874 4.428-4.298 7.244-7.418 10.491-4.097 4.265-7.824 7.65-13.392 10.572-5.06 2.658-9.943 6.137-17.482 6.482-6.177.284-10.543-.812-14.067-3.495-.87-.66-2.555-2.673-3.841-2.813-6.617-.718-10.351 5.015-12.363 9.462-1.752 3.872-2.14 8.784-3.069 13.559-1.887 9.71-2.725 19.491-3.841 29.423-.539 4.798-2.475 9.084-2.727 13.9-.292 5.595.235 10.331 1.538 14.923zm117.34 18.164c.173-3.951.453-7.999-.087-11.682h-.173c-1.107 1.435-1.432 4.096-2.386 6.136-.768 1.646-4.327 5.77-3.408 7.933.269.636 4.501 2.267 5.713 1.363.487-.365.295-2.695.341-3.75zM87.061 215.951c-.633 9.649-.916 20.324-.937 29.763-.001 1.168-.73 4.395-.086 5.031.506.501 2.507.046 3.409.428 1.058.446 2.164 1.635 2.646 2.553.335.64.612 2.68 1.363 2.9.891.262 2.438-.723 4.177-.508 1.078.134 2.518.703 3.328 1.276.632.449 1 1.938 2.044 1.964.864.023 1.431-1.062 2.392-1.282 2.969-.678 5.642.77 7.159 1.964.667.525 1.648 2.341 2.305 2.386.681.045 1.625-.933 2.305-1.11 1.795-.466 4.122-.032 5.541.682.701.353 1.249 1.311 1.959 1.282.637-.025 1.684-1.136 2.219-1.363 2.344-.999 5.171-.296 6.91.595.684.351 1.828 1.461 2.385 1.451.815-.016 2.513-2.025 3.755-2.474 1.511-.543 3.488-.659 5.033-.259.92.238 2.641 2.108 3.235 2.05.722-.069 1.339-1.738 1.878-2.217 1.266-1.131 3.63-2.184 6.227-1.959 1.141.099 2.823 1.032 3.923.596.677-.27.883-1.387 1.363-2.046.695-.954 2.268-2.202 4.009-2.392 1.389-.151 2.831.573 4.01.255.934-.252 1.178-1.611 1.704-2.386 1.179-1.738 3.089-3.356 5.628-3.668.568-.07 2.225.082 2.559-.168.644-.481.533-4.246.595-5.541.316-6.682 1.103-12.93 1.109-19.533-5.88 6.41-8.002 13.382-16.119 17.228-3.586 1.7-8.405 3.08-13.131 3.581-8.317.882-16.359 1.84-24.559.422-7.367-1.272-15.072-4.256-20.214-7.925-1.782-1.273-4.173-2.666-5.368-4.01-2.8-3.154-4.756-7.704-7.336-11.427-1.617-2.331-3.668-5.157-4.351-8.018-.45-1.89-1.076-2.733-1.704-4.178-.163-.375-.49-1.512-.768-1.531-.093-.005-.18.111-.255.422-.506 2.111-.188 4.82-.342 7.166zm98.408 34.454c-.471.138-.429 1.369-.595 2.046-.457 1.874-.907 4.922-2.559 5.286-4.463.982-1.722-4.515-4.436-4.778-1.122-.108-2.469 1.394-2.982 2.219-.681 1.096-1.566 3.086-1.704 4.859-.12 1.539.088 3.14-.856 3.415-3.384.978-2.631-4.982-4.177-5.373-2.32-.59-4.208 3.275-4.777 4.778-.622 1.642.146 5.559-2.132 5.539-3.305-.027-.979-7.096-5.461-5.967-2.409.607-4.113 2.974-5.026 5.113-.564 1.322-.651 3.3-1.624 3.501-4.2.868-3.497-6.561-5.627-6.91-.932-.152-2.142.77-2.647 1.196-1.286 1.085-2.893 3.108-3.322 4.518-.338 1.113-.149 1.809-.768 2.046-.806.307-2.244-.469-2.727-1.11-1.048-1.392-.629-4.272-1.449-5.368-1.142-1.522-4.058-.557-5.206.342-.846.661-1.62 1.846-1.791 2.894-.204 1.244.11 2.039-.34 2.477-.94.915-2.696-.016-3.155-1.027-.869-1.918.457-5.148-1.196-5.795-1.066-.418-2.333.163-2.727.34-.735.332-1.856 1.334-2.299 2.3-.598 1.303-.619 3.183-2.559 2.986-3.351-.338-.917-4.979-2.392-7.591-1.677-2.97-5.833-.92-6.817 1.363-.751 1.742.045 1.711-.941 2.559-.75.644-2.399.522-2.901-.167-1.489-2.047.052-6.388-1.959-6.91-3.879-1.007-3.529 5.023-5.459 5.2-2.529.232-2.327-2.917-2.219-4.432.176-2.427-1.216-5.365-3.748-5.119-2.33.228-1.446 4.993-4.01 4.865-.815-.041-1.974-1.019-2.219-1.451-1.542-2.736 1.535-7.115.087-9.469-1.107.838-2.956 2.971-4.183 4.35-3.938 4.425-7.653 8.886-11.681 13.304-3.126 3.429-6.316 7.765-7.933 12.277-.242.675-.943 1.497-.85 2.559.195 2.216 3.702 1.234 5.119.596 1.379-.622 2.371-1.957 3.75-1.791 1.325.159 2.043 1.38 2.046 2.305.003 1.242-3.655 5.648-1.618 6.737 1.329.711 3.17-.862 4.177-1.536 1.188-.796 4.402-2.964 5.031-.768.601 2.092-2.579 4.504-1.449 6.822 1.226 2.517 5.641-.404 6.735-1.451.712-.681 1.193-2.226 2.386-2.131 3.332.263-.388 6.555 1.196 7.678 1.238.876 3.194-1.548 4.01-2.046.587-.357 1.22-.538 1.449-.687.433-.283.916-1.218 1.618-1.19.94.038 1.635 1.386 1.791 2.386.132.854-1.237 5.081-.082 5.545.69.277 1.987-.695 2.386-1.027 1.074-.895 2.198-3.389 4.09-3.236 2.538.204.937 5.074 3.154 5.453 2.572.442 3.945-4.122 6.141-4.09 2.993.044 1.752 6.355 4.777 6.396 1.333.017 2.407-1.112 3.154-1.964.756-.864 3.188-4.46 4.177-1.791.867 2.337-.613 4.972 2.132 5.204 1.451.122 3.422-1.567 4.096-2.305.976-1.067 1.579-3.513 2.901-3.668 2.3-.27 2.391 2.989 3.748 4.524 1.293 1.459 3.879 1.09 4.865-.342.86-1.249.64-5.525 2.472-5.799 3.401-.51 1.904 6.05 4.945 6.222 2.129.121 3.596-2.761 4.177-4.431.815-2.35.345-4.446 2.385-4.351 1.844.086 2.825 4.096 4.605 4.604 5.304 1.517 4.217-5.359 5.546-7.758 2.167-3.91 4.562 2.327 5.8 3.328.813.657 2.97 1.545 4.518.85 1.635-.736 3.184-5.068 2.814-7.332-.094-.571-1.058-1.672-.856-2.386.21-.74 2.096-.786 2.9-.428 1.587.709 2.915 5.511 6.056 4.86 1.574-.328 2.607-4.635 2.05-7.164-.184-.837-1.573-1.334-1.451-2.299.121-.937 2.056-1.267 2.814-1.11 2.44.508 3.581 5.455 6.823 4.519 2.471-.715 2.103-5.96 1.277-8.273-.229-.643-.993-1.15-.935-1.873.103-1.321 2.061-1.415 3.067-1.027 2.323.892 3.565 4.322 6.822 4.522 2.526.156 5.043-1.304 4.263-4.182-.672-2.486-3.589-4.675-5.286-6.564-5.152-5.733-10.567-10.946-15.691-16.972-.026-.041-1.066-1.579-1.528-1.444zM290.7 224.737c.166-6.884-.076-13.562-.682-20.469-.574-6.556.252-13.811.255-20.722 0-3.54-.377-6.61-.601-10.146-.222-3.525-.356-7.058-1.618-9.209-1.679-2.863-6.111-3.435-10.578-3.413a73.39 73.39 0 0 0-3.067.085c-15.996.745-30.706.629-45.448 1.278-3.875.17-7.72-.435-11.173.173-3.295.58-5.777 2.075-7.592 4.35-4.529 5.674-3.277 15.948-3.836 25.067-.099 1.596-.12 3.738-.595 5.119-1.623 4.708-10.326 2.602-14.582 1.618-3.861-.893-6.385-2.861-9.722-4.177-.045 9.643 6.856 13.846 13.217 17.141 2.251 1.166 5.007 1.925 6.997 3.322 1.024.72 2.831 2.178 3.154 3.581.591 2.566-.029 6.184-.087 9.296-.053 2.824-.027 6.098.255 9.041.48 5.022-.436 10.627.935 14.668 1.635 4.812 10.06 4.673 16.119 4.09 12.593-1.207 25.627.068 37.949-1.276 2.95-.322 6.222-.613 9.378-.513 3.181.098 6.525.595 9.555.259 5.382-.598 9.962-3.668 11.428-8.868 1.616-5.734.183-13.841.339-20.295z"/></svg>