<svg xmlns="http://www.w3.org/2000/svg" viewBox="0 0 320 320"><path d="M120.872 250.893c.269-.323.185-.582-.515-1.544-.933-1.283-.878-1.719.272-2.134 1.39-.501 2.371.444 1.997 1.921-.138.55-.084.935.145 1.183a.98.98 0 0 1 .265.746l-.001.008c-.025.336-.228.67-.598.951-.699.528-1.441.435-1.686-.224-.137-.362-.11-.627.121-.907zm-4.815 2.328c.619.805 1.852-.09 2.05-1.136a.924.924 0 0 0 .021-.158 1.357 1.357 0 0 0-.065-.548c-.119-.321-.273-.75-.336-.957-.172-.556-.471-.601-1.184-.205-.638.367-.647.388-.305 1.094.267.561.272.823.018 1.227-.18.282-.269.593-.199.683zm-33.108-.386c.511 2.165.97 2.94 2.29 3.777 1.793 1.141 2.632 1.136 6.042-.023l2.988-1.021 3.173.336c3.092.322 3.228.366 4.877 1.321 3.519 2.047 4.712 2.18 7.351.879 1.751-.866 1.804-.879 3.792-.615 1.334.177 2.556.181 3.615 0 .879-.154 2.08-.23 2.679-.151 2.058.273 4.714-.301 5.468-1.175.256-.298 1.005-.705 1.662-.895 1.967-.574 2.951-1.265 3.076-2.234l.002-.014c.037-.322-.015-.674-.161-1.06-.111-.291-.219-1.158-.239-1.922-.021-.759-.048-1.807-.068-2.314-.023-.638.112-1.078.428-1.442.804-.935-.009-2.38-1.44-2.57-.888-.118-.997 4.373-.176 7.075.699 2.302.408 2.777-1.952 3.227-.903.171-1.883.478-2.181.676-.298.2-1.054.478-1.678.604-.626.126-1.49.294-1.907.376-1.571.331-5.627.524-7.027.339-1.609-.213-2.188-.101-4.395.854-1.817.786-3.489.531-5.974-.9-1.823-1.049-5.01-1.702-7.808-1.622-2.107.054-2.496.134-5.001 1.146-3.317 1.344-5.976-.208-5.766-3.369.049-.707-.075-1.754-.269-2.333-.796-2.363-.858-2.256 2.192-3.506a39.982 39.982 0 0 0 1.968-.921c1.688-.835 2.748-.951 5.964-.646 2.472.237 2.808.218 4.476-.363 2.082-.715 3.032-.665 4.335.236 1.11.763 2.257.819 3.179.14 1.016-.743 2.157-.937 4.092-.68 1.001.133 1.835.151 1.85.032.115-.868 3.795-.829 4.541.057 1.071 1.265 1.824 1.486 2.895.821.417-.255 1.251-.542 1.853-.632.602-.092 1.243-.204 1.43-.253.583-.137 1.21.988 1.084 1.936-.14 1.054.31.899 1.237-.434 1.65-2.377-1.222-4.384-4.164-2.911-1.427.714-2.271.675-3.081-.132-1.422-1.411-3.197-1.731-5.102-.922-1.022.432-1.73.532-3.236.463-1.64-.082-2.134.005-3.296.568l-1.366.679-1.714-.504c-1.897-.548-3.088-.46-4.653.315-1.066.528-2.747.534-4.307.016-.854-.283-1.498-.36-2.133-.235-2.539.445-3.234.641-3.854 1.058-.369.247-1.078.551-1.568.67-3.442.822-5.331 3.214-4.615 5.837.133.46.396 1.522.592 2.361zm41.502-4.177c-.206.681-.155.877.331 1.297.428.367.543.698.463 1.295-.058.438-.038.884.039.981.371.481 1.552.045 1.638-.609.035-.263-.189-1.109-.495-1.866-.306-.76-.526-1.611-.488-1.899.161-1.204-1.088-.534-1.488.801zM118 247.459c.051-.126.081-.229.096-.323.051-.276-.045-.444-.321-.641-.989-.713-1.921.267-1.447 1.524.351.93 1.189.657 1.672-.56zm-6.351 3.566c.051.405.253.581.742.646.515.068.897-.299.982-.773a1.238 1.238 0 0 0-.203-.896c-.232-.336-.234-.554-.019-.753.441-.408.273-1.976-.232-2.145-1.068-.353-1.55.986-.765 2.134.299.426.287.503-.121.853a1.09 1.09 0 0 0-.384.934zm-4.536 3.712c.677.347 1.747-.601 1.885-1.339.009-.047.006-.092.007-.14a.552.552 0 0 0-.197-.452c-.13-.105-.07-.433.145-.861.55-1.087-.281-2.012-1.111-1.243-.28.257-.291.529-.074 1.373.256 1.02.247 1.072-.297 1.519-.646.526-.776.926-.358 1.143zm2.287-6.801c.011-.064.009-.137.015-.204.051-1.45-1.508-1.103-1.725.384-.051.343-.012.712.065.816.479.625 1.49-.043 1.645-.996zm-4.446.604c.254-.432.393-.687.427-.88.034-.191-.026-.314-.17-.503-.736-.964-1.848-.177-1.835 1.301.014 1.428.759 1.47 1.578.082zm-10.697.081c.231.305.992.289 1.237-.02.131-.163.555-.446.953-.63.464-.221.7-.404.718-.65.021-.243-.175-.552-.583-1.017-.804-.919-1.144-.987-1.882-.382-.637.528-.721.751-.372 1.034.135.111.149.492.026.853-.121.358-.169.721-.097.812zm6.238-2.215c-.616-.082-2.033.433-1.915.697.049.114.099.507.117.885.018.375.145.86.276 1.067.347.554.526.505 1.352-.326.515-.516.787-1.061.823-1.5.033-.436-.184-.761-.653-.823zm-19.278-5.33c.259-.101.817-.4 1.245-.667.9-.567 3.527-1.545 4.819-1.8.487-.096 2.336-.484 4.105-.859 3.41-.728 4.26-.821 8.558-.886 1.493-.02 3.116-.132 3.607-.25.49-.118 1.47-.208 2.17-.192.702.009 1.7-.09 2.222-.236.518-.14 1.278-.214 1.694-.159.412.06 2.47.166 4.581.234 2.91.084 4.357.236 5.957.623 2.244.531 4.178.782 6.552.82 4.585.074 8.38 3.913 8.713 8.812.044.666.229 2.336.408 3.714.185 1.413.241 2.16.158 2.939l-.003.02c-.01.111-.024.219-.044.335-.047.307-.109.629-.2 1.015-.23.985-.501 2.223-.599 2.751-.101.531-.711 1.785-1.346 2.785-.634.997-1.382 2.273-1.662 2.834-.691 1.384-1.77 2.576-2.931 3.246-1.279.745-4.346 2.207-4.567 2.178-.1-.013-.897.211-1.774.504-.877.291-1.708.515-1.847.497-.136-.018-1.525.371-3.085.853-1.558.487-3.212.982-3.664 1.111-.455.135-1.517.203-2.359.15a28.555 28.555 0 0 0-2.895-.005c-2.624.146-4.953-.104-6.768-.748-.954-.338-1.801-.592-1.888-.549-.743.327-4.839-.055-7.089-.664-1.818-.489-3.092-.686-4.697-.741-3.876-.119-4.131-.153-6.293-.769-1.167-.33-2.435-.752-2.826-.933-.389-.179-1.526-.498-2.51-.717-2.651-.586-3.152-.897-4.268-2.615-2.155-3.325-2.415-4.903-1.258-7.73.41-1.004.834-2.495.94-3.299.11-.827.401-1.75.655-2.114.249-.349.484-.901.527-1.226.123-.927.855-2.004 1.986-2.912a20.858 20.858 0 0 0 2.027-1.942c1.514-1.698 3.126-3.209 3.649-3.408zm-3.583 16.831c.682.285 3.986.946 9.187 1.83 1.852.316 3.765.742 4.242.935.472.224 1.136.346 1.471.308.333-.041.663.048.735.204.157.348 4.719.959 8.601 1.14 7.283.333 8.048.313 9.876-.218.493-.143 1.782-.326 2.877-.415 1.095-.083 2.257-.268 2.576-.415.319-.146.729-.259.9-.236.175.023.729-.155 1.233-.404.505-.254 1.357-.489 1.902-.51 5.217-.225 10.194-1.646 10.37-2.971.03-.225.329-.544.661-.709.859-.411 1.39-1.67 1.549-3.333.158-1.659-.052-3.718-.68-5.71-.179-.566-.347-1.316-.368-1.669-.079-1.17-1.933-4.642-2.633-4.918-1.584-.633-18.461-2.425-20.689-2.198-.206.021-.834.092-1.386.169-.552.076-1.445.173-1.989.213-2.448.155-4.503.501-6.296 1.04-.423.127-1.652.241-2.738.258-1.086.017-2.718.187-3.623.378-1.72.365-4.039.723-6.791 1.064-3.432.428-3.766.567-3.896 1.546-.094.71-.29.972-1.072 1.444-3.08 1.857-6.253 12.249-4.019 13.177zm10.507-7.726c.211.028.541-.123.741-.328.41-.431 1.358.059 1.957 1.01.399.631 1.124.465 1.438-.329.046-.115.074-.221.084-.319.039-.291-.09-.531-.427-.88-.563-.585-.705-1.46-.225-1.396.535.071.289-.65-.347-1.02-.904-.523-1.883-.382-2.264.321-.333.616-.618.66-1.259.197-1.165-.835-3.406 1.358-2.306 2.262.107.088.228.491.254.912.029.416.352 1.117.717 1.552l.657.795-.531.683c-.428.544-.478.747-.27 1.076.311.504.793.402 1.255-.251.496-.696.593-2.896.16-3.464-.394-.512-.222-.899.366-.821zm54.761 39.149c.257-1.023-.288-1.445-1.081-.841-.389.296-.443.499-.286.863.139.321.107.629-.089.93-.326.503-.494 1.769-.267 2.041.307.363 1.191.235 1.944-.277l.772-.533-.595-.679c-.503-.558-.572-.806-.398-1.504zm4.811-.224c-.101-.008-.646-.166-1.221-.331-1.97-.553-2.843 1.109-1.167 2.221.79.524.884.504 1.195-.147.156-.321.522-.706.81-.85.314-.162.537-.447.566-.658.018-.123-.044-.218-.183-.235zm-8.28 2.409a3.647 3.647 0 0 1-.791-.516c-.951-.833-2.212.833-1.403 1.859.368.466 1.584.597 2.028.224.227-.194.37-.53.403-.856.033-.321-.039-.627-.237-.711zm-20.647-2.22c-1.045.409-1.152.754-.334 1.064.888.33 1.511.363 1.849.076.245-.206.362-.422.372-.606.03-.56-.862-.93-1.887-.534zm3.231 1.948c-1.064-.437-2.349 1.35-1.667 2.322.44.638 1.028.46 1.552-.462.327-.576.498-.977.514-1.271.017-.292-.111-.469-.399-.589zm46.416-7.911c1.098 1.794 1.572 3.544 1.437 5.245-.121 1.503-.718 2.964-1.798 4.361-.376.491-.906 1.488-1.178 2.22-1.493 3.973-12.016 10.079-17.739 10.289-1.076.039-2.534.189-3.24.326-.702.135-2.724.439-4.496.675-3.144.424-3.692.532-4.723.844-.94.283-5.185.521-7.882.443-1.479-.04-3.953-.032-5.508.02-4.567.157-5.492.139-5.986-.13-.258-.137-1.188-.333-2.057-.406-4.356-.422-7.109-2.577-8.252-6.447-.355-1.192-.918-2.607-1.272-3.139-2.651-3.963-2.639-8.816.047-10.965 1.46-1.172 3.709-2.732 3.909-2.715.086.007 1.287-.523 2.66-1.192 3.218-1.568 7.379-3.349 7.761-3.317.165.014 1.046-.255 1.948-.594 4.361-1.649 4.348-1.65 19.428-.919 3.954.189 6.837.258 7.943.202 9.558-.516 16.365.48 17.417 2.517.233.449.949 1.657 1.581 2.682zm-3.526 3.982c.134-1.392-.065-2.908-.629-4.439l-.731-1.951-3.473-.194c-3.755-.22-6.559-.136-8.924.275-1.988.332-10.117-.023-12.707-.569-1.6-.337-2.071-.345-2.678-.099-1.376.566-2.222.538-3.735-.12-1.816-.785-2.705-.865-4.559-.383-.813.212-1.931.427-2.475.488-2.182.232-6.229 1.315-8.142 2.174-1.115.501-2.092.902-2.167.896-.076-.006-.623.265-1.213.602-.593.337-1.5.767-2.024.962-3.071 1.137-5.587 5.277-5.077 8.366.954 5.813 7.825 9.345 15.497 7.96.872-.154 1.828-.405 2.128-.566.3-.162 1.365-.301 2.373-.303 1.011-.002 2.432-.112 3.148-.246.717-.139 2.328-.273 3.58-.297 4.933-.104 6.23-.164 6.935-.368a7.82 7.82 0 0 1 1.367-.258 128.64 128.64 0 0 0 4.206-.405 7.237 7.237 0 0 0 1.505-.362c.349-.139 1.135-.275 1.745-.325 1.41-.103 7.199-1.84 7.903-2.365.294-.217 1.01-.491 1.587-.605.785-.153 1.365-.534 2.323-1.492a47.565 47.565 0 0 1 2.108-1.957c1.235-1.043 1.958-2.625 2.129-4.419zm-10.141 2.062c-.01.181-.026.374-.048.574-.157 1.624-3.403 3.898-4.854 3.399-.331-.112-.665-.042-.867.163-.182.187-.516.319-.741.3a1.08 1.08 0 0 0-.689.209c-.157.136-1.022.266-1.915.297-.932.037-2.33.332-3.289.684-.922.344-2.134.638-2.691.65-.56.015-1.642.157-2.396.31-2.12.439-2.626.45-3.526.071-1.48-.633-6.133-1.22-7.54-.957a40.8 40.8 0 0 1-1.863.315c-.34.039-1.912.578-3.494 1.189-3.073 1.188-4.29 1.369-5.295.793-3.099-1.774-5.222-6.74-3.486-8.149.654-.532 3.094-1.84 4.289-2.295 2.425-.925 2.92-1.204 2.958-1.655.052-.622 1.734-1.418 2.465-1.168.314.108.908.054 1.347-.128.427-.172.931-.25 1.111-.162.448.217 3.503-.25 4.443-.674.627-.282 1.552-.263 5.144-.009 3.886.302 4.573.284 6.123-.089 2.238-.541 3.335-.396 5.217.661 2.646 1.489 3.708 1.845 6.18 2.002 2.828.188 3.585.937 3.417 3.669zm-.908.148c.034-.909-.855-1.717-2.513-2.11-1.624-.386-3.925-1.169-4.648-1.587-.192-.114-1.027-.602-1.862-1.094-2.004-1.182-3.25-1.287-5.584-.47-1.574.55-1.868.581-2.776.288-1.81-.581-5.574-.62-7.603-.075-.995.271-2.199.545-2.676.607-2.076.28-3.147.555-3.678.971-.316.249-1.462.689-2.559.972-1.096.282-2.515.76-3.141 1.058-.626.301-1.346.516-1.611.493-2.325-.196-3.774 2.973-2.325 5.074 1.976 2.876 3.744 3.364 7.166 1.959 1.053-.431 2.053-.875 2.228-.986.172-.109 1.23-.475 2.351-.816 3.112-.94 6.065-.739 9.921.686 1.321.493 1.454.504 2.92.164a28.161 28.161 0 0 1 3.267-.52c.95-.083 2.288-.299 2.975-.482.689-.189 1.702-.374 2.244-.409 1.892-.133 6.291-1.527 7.073-2.247.54-.495.813-.997.831-1.476zm61.112-46.213c.397 1.909.626 3.257.71 4.295.104 1.334-.041 2.155-.425 2.967-.346.731-.871 2.09-1.158 3.009-.982 3.138-2.552 4.517-7.336 6.488-9.411 3.871-15.496 5.916-18.981 6.354-.867.111-2.285.353-3.146.548-2.603.593-4.246.873-4.414.731-.088-.075-2.435.011-5.222.174-4.826.294-10.909.341-11.382.099-.123-.064-.799-.167-1.501-.229-2.461-.214-4.129-.536-4.634-.908a11.622 11.622 0 0 0-1.218-.749c-1.628-.855-2.566-1.937-5.133-5.956-1.149-1.796-1.85-5.884-1.286-7.515.179-.524.407-1.437.509-2.014.099-.58.281-1.068.398-1.077.114-.009.599-.868 1.071-1.902.471-1.038.951-1.963 1.081-2.054.128-.097.216-.378.195-.643-.088-1.161 3.614-5.092 5.736-6.09 2.736-1.293 7.585-2.621 9.881-2.714.402-.016 1.486-.203 2.412-.419.927-.211 3.589-.629 5.923-.927a531.71 531.71 0 0 0 7.369-.986c1.713-.253 4.39-.496 5.953-.527 1.563-.032 3.595-.211 4.523-.408 10.35-2.221 18.293 1.913 20.075 10.453zm-21.003-5.257c-1.073 1.246-4.045 2.891-5.404 2.994-.669.051-2.171.861-2.707 1.452-.489.542-1.779.365-2.629-.367-1.494-1.282-2.354-1.48-3.431-.806-1.776 1.114-3.306 1.502-4.175 1.075-1.007-.513-2.902-.383-3.703.233-.671.514-2.066.685-2.517.298-.372-.325-1.74.208-2.63 1.019-.302.275-.935.52-1.397.555-.622.047-.799.153-.686.391.187.395-.376 1.403-.798 1.435-.966.073-.854 1.426.142 1.717 1.159.341 1.031 1.617-.171 1.708-.464.035-.624-.152-.963-1.153l-.4-1.196-.981 1.121c-1.774 2.029-.79 3.536 2.607 4.002 1.296.183 1.55.719 1.367 2.823-.073.805.03 1.019.662 1.588.864.776.701.763 2.795.116.905-.276 1.762-.672 1.906-.877.145-.204.406-.384.576-.397.173-.013.943-.437 1.709-.949 4.721-3.165 9.657-4.05 12.08-2.177 2.871 2.223 6.097 1.956 8.646-.73 1.902-2.002 2.766-2.477 5.03-2.601 2.003-.124 2.9-.495 4.176-1.723.351-.341 1.056-.759 1.573-.944 1.104-.384 1.552-1.045 1.496-1.612-.088-.734-1.023-1.311-2.5-.933-2.395.6-3.426-.087-3.024-2.026.425-2.025.067-2.775-1.306-2.749-.555.014-1.062-.284-2.078-1.245-1.615-1.529-1.978-1.535-3.265-.042zm18.762 4.678c-.135-1.036-.954-1.993-2.957-4.105-3.38-3.562-4.004-3.809-10.494-4.203-.902-.052-2.382.619-2.348 1.076.075.993 2.216 2.172 3.147 1.728.978-.453 1.513.16 2.186 2.513.321 1.121.631 2.169.69 2.327.057.155.534.313 1.051.355 3.384.293 4.268 2.785 1.746 4.893a29.502 29.502 0 0 0-2.024 1.882c-1.749 1.837-3.331 2.579-4.736 2.214-1.771-.455-2.226-.353-2.925.68-.338.503-1.032 1.232-1.54 1.633-.508.4-1.073.951-1.26 1.215-1.143 1.605-6.618 1.26-8.336-.52-.609-.625-2.738-.987-4.205-.714-3.109.585-5.245 1.203-5.436 1.577-.067.126-.3.233-.526.25-.226.017-.935.498-1.573 1.048-1.648 1.427-3 2.164-4.866 2.642-1.979.506-2.146.419-3.307-1.724-.79-1.449-.91-2.158-.561-3.175.115-.343-.224-.558-1.749-1.127-3.508-1.307-4.173-4.038-1.565-6.419.347-.315.615-.731.601-.926-.061-.803 2.447-3.466 3.326-3.533.451-.034 1.354-.377 2.001-.769 1.043-.634 1.308-.688 2.44-.567 1.329.138 1.508.093 2.813-.609 1.119-.601 1.678-.596 3.319.034l1.416.544 1.7-1.075c2.065-1.33 2.812-1.364 4.725-.146 1.409.892 1.83.967 2.946.489.378-.163 1.444-.46 2.372-.663 1.579-.341 1.754-.441 2.714-1.609.565-.691 1.371-1.482 1.786-1.749 2.023-1.299-1.677-1.716-5.293-.602a49.13 49.13 0 0 1-2.999.825c-.725.167-1.97.483-2.761.703-.791.22-2.087.487-2.89.548-.802.084-2.164.294-3.025.465-.96.188-2.142.25-3.05.156-1.635-.168-3.234.128-10.021 1.869-.462.122-1.043.422-1.292.679-.25.249-.994.799-1.658 1.22-2.082 1.328-4.448 4.325-5.448 6.898-.3.775-.775 1.695-1.05 2.052-.98 1.278-1.135 1.792-1.121 3.756.012 1.867.052 2.019.677 2.594.362.337.86.875 1.104 1.204.359.484.942.698 2.992 1.095 1.401.275 2.688.588 2.86.701 1.35.896 6.254.815 13.878-.244 1.2-.164 3.308-.599 4.693-.973 4.606-1.239 6.835-1.692 8.925-1.851 2.146-.149 5.359-1.03 7.96-2.184.744-.326 1.533-.54 1.754-.475.589.177 6.062-.758 7.728-1.319 3.324-1.122 5.696-3.923 7.077-8.355.303-.958.47-1.604.389-2.229zm-13.078 4.323c.4.988 2.739-.107 2.571-1.135-.01-.05-.018-.063-.03-.096-.453-1.388-1.224-1.45-2.102-.157-.417.615-.567 1.07-.439 1.388zm-9.209-1.222c-.305-.025-.566-.132-.574-.232-.008-.106-.245-.42-.533-.706-.352-.353-.492-.718-.426-1.107.074-.426.003-.581-.267-.561a2.6 2.6 0 0 1-.773-.09c-.265-.078-.454.083-.573.482-.098.333-.336.754-.537.949-.587.57-.388 1.497.36 1.623.361.065.751-.01.891-.194.836-.969 1.311-.296.883 1.243-.152.55-.259 1.134-.253 1.288.015.426 2.003-.04 2.346-.549.179-.266.233-.626.204-.977-.047-.586-.339-1.141-.748-1.169zm2.661.089c.56.608.903.689 1.574.366.257-.121.366-.311.332-.544-.045-.303-.323-.666-.815-1.041-1.362-1.022-2.244-.04-1.091 1.219zm6.558-1.429a.399.399 0 0 0 .011-.119c-.045-.594-1.599-1.427-2.139-1.083-.527.334-.562 1.013-.085 1.42.447.387 2.082.224 2.213-.218zm-17.744-.527c-.053-.695-1.156-1.22-1.759-.838-.583.37-.59.726-.009 1.28.683.65 1.829.364 1.768-.442zm5.797 5.443c-.033-.441-1.068-1.139-1.618-1.092-1.177.089-1.761 1.522-.927 2.236.517.444 2.595-.491 2.545-1.144zm-13.841-4.215c.333-.275.493-.52.465-.748-.029-.236-.242-.451-.637-.667-1.148-.637-2.16.753-1.169 1.598.42.361.725.324 1.341-.183zm26.049-49.574c.246-.478.364-.91.372-1.234.019-.716-.473-.937-1.136-.103-.635.789-.716 1.323-.277 1.76.44.442.633.366 1.041-.423zm-1.318-7.985c.006-.064-.005-.125-.011-.193a1.404 1.404 0 0 0-.138-.476c-.489-1.033-.486-1.027-1.522-.397-.875.534-1.021 1.206-.391 1.83.818.819 2.004.193 2.062-.764zm-3.765 4.39c.307.308.831.163.968-.266.076-.235.246-.668.383-.957.138-.291.193-.512.171-.66-.048-.322-.443-.269-.98.246-.674.649-.889 1.29-.542 1.637zm-1.721-4.818c.12-.277.431-.546.7-.593.655-.12.973-.563.991-1.021.022-.59-.448-1.212-1.309-1.212-.518 0-1.777 1.497-1.52 1.805.196.235.048.433-.596.781-.968.517-.931.451-.596 1.083.391.729 1.869.201 2.33-.843zm9.709 1.533c.708-.322 2.35.286 2.35.873 0 .456.526.596 1.052.274.355-.218.512-.154.862.308.322.422.716.587 1.5.63.803.047 1.099.165 1.234.531.097.263.344.624.554.797.207.173.319.473.244.669-.423 1.097 1.205 1.516 2.244.573.912-.822 1.735-.842 2.733-.072.495.386 1.069.756 1.276.839.571.235.744.047.744-.915 0-1.581-.304-1.835-1.955-1.647-.839.097-1.578.064-1.757-.076-.168-.131-.859-.386-1.531-.565-.702-.182-1.698-.711-2.35-1.251-.621-.515-1.365-.938-1.648-.938-.283 0-1.063-.338-1.743-.755-.903-.554-1.418-.728-1.916-.627-.44.087-.949-.048-1.455-.342-1.362-.828-2.49-.453-2.49.842-.002.628 1.327 1.179 2.052.852zm16.994 7.101c1.228 0 1.477.395.915 1.43-.288.52-.439 1.107-.352 1.337.216.562 1.183.514 1.829-.087.361-.336.512-.487.49-.635-.019-.12-.137-.235-.361-.456-.33-.333-.35-.506-.117-.875.453-.728.327-1.276-.459-2.138-.875-.96-2.476-1.066-2.646-.17-.05.266-.257.612-.467.766-.455.333.247.828 1.168.828zm-29.075-4.241a2.26 2.26 0 0 0 .17-.851c-.022-.728-.559-1.016-1.139-.308-.537.655-.607 1.511-.17 1.945.445.447.756.227 1.139-.786zm3.531 2.095c-.613-.087-1.31.758-1.31 1.598 0 .428.14.548.607.548.738 0 1.27-.769 1.287-1.39.012-.372-.162-.694-.584-.756zm9.263.977c-.756-.107-1.438.951-1.066 1.65.151.28.355.501.458.501.616 0 1.074-.795 1.094-1.416.015-.374-.131-.682-.486-.735zM116.243 79.366c1.908 1.092 3.665-.607 3.679-2.479a2.932 2.932 0 0 0-.881-2.115c-1.811-1.81-5.537.261-4.51 2.499.663 1.443.744 1.541 1.712 2.095zM92.901 191.6c0 .184.115.341.243.341.129 0 .499.291.82.635.322.347.847.766 1.17.94 1.239.663 3.573-.386 4.487-2.023l.638-1.139-.756-.668c-.887-.792-1.205-.826-1.989-.213-1.22.951-1.581.89-2.882-.448-1.396-1.435-1.273-1.396-2.285-.688-.431.299-.82.577-.87.607-.168.09.68 1.698 1.064 2.014.201.171.36.454.36.642zm48.195 29.002c-2.561-.979-3.531 1.323-1.108 2.613.458.244.959.37 1.108.289.786-.443 1.175-1.027 1.177-1.564.007-.541-.394-1.042-1.177-1.338zm-16.697-103.463c-1.158-1.43-1.533-8.841-.543-10.783.286-.557.624-1.432.756-1.947 2.003-7.943 6.15-11.364 11.337-9.348 2.096.817 2.846.809 3.956-.064 1.416-1.117 2.479-1.024 3.934.352.716.677 1.298 1.382 1.298 1.564 0 .179.221.468.49.635.266.168.486.501.486.747s.431 1.209.968 2.127c.537.92.979 1.824.979 2.023 0 .193.229.504.501.688.496.342 1.203 2.493 1.36 4.116.044.47.19 1.673.308 2.669.061.498.081 1.035.087 1.499.003.465-.011.857-.064 1.064a17.188 17.188 0 0 0-.33 1.852c-.199 1.645-1.354 6.113-1.808 6.994-.125.246-.193.991-.148 1.651.067 1.038-.016 1.304-.637 2.006-.395.453-.895 1.183-1.117 1.617-.223.439-.47.839-.554.906s-.414.509-.733.976c-.8 1.178-1.844 1.973-2.915 2.225-1.306.302-7.585.216-8.592-.117-2.803-.932-6.158-4.773-6.519-7.465-.072-.537-.282-1.102-.467-1.256-.185-.154-.33-.389-.33-.52 0-.129-.21-.529-.456-.885-.248-.355-.582-1.189-.747-1.858-.164-.668-.391-1.334-.5-1.468zm15.365-11.826c0 2.954.901 3.861 2.414 2.445.434-.403.627-.943.619-1.469-.014-.87-.574-1.673-1.489-1.723-.165 0-.422-.216-.565-.484-.576-1.081-.979-.574-.979 1.231zm-4.955 1.818c.286 2.056 1.531 2.202 2.065.246.333-1.231.487-2.232.456-2.988-.051-1.262-.61-1.855-1.66-1.735-.738.085-1.16 2.309-.861 4.477zm-6.625-2.126c.185.101.506.655.713 1.248.705 1.993 1.816 2.255 3.053.722.599-.747.831-1.295.892-2.129.025-.33.05-.607.042-.829v-.014c-.025-.948-.496-.996-2.775-.948l-1.732.047-.255.848c-.209.68-.201.906.062 1.055zm-1.575 5.551c.053 1.992.229 2.963 1.001 5.607 1.299 4.443 1.892 5.285 4.18 5.996 3.324 1.033 7.72 1.061 10.411.054 1.567-.588 2.446-1.164 2.446-1.598 0-.12.263-.574.584-.996 1.195-1.589 2.269-7.202 2.275-10.464 0-1.088-.132-1.905-.403-2.232-.618-.747-1.547-.495-2.213.59-.332.552-.937 1.153-1.34 1.343-.402.193-1.063.559-1.466.82-1.348.862-2.439.903-3.169.115-.524-.562-.713-.635-1.052-.403-1.704 1.164-2.963 1.463-3.467.817-.518-.66-1.466-.971-2.191-.722-.987.347-2.266.179-3.724-.509-1.709-.808-1.928-.623-1.872 1.582zm7.881 10.57c.63.12 1.226.308 1.318.403.394.408 3.483-.101 4.722-.775 2.376-1.296 3.845-3.83 3.839-5.775-.006-1.016-.408-1.864-1.306-2.288a31.685 31.685 0 0 1-1.404-.71c-.901-.487-2.113-.098-3.212 1.035-1.001 1.029-.923 1.035-2.479-.14-1.541-1.167-4.974-1.589-6.018-.747-2.124 1.717 1.239 8.379 4.54 8.997zm-50.925 41.709c.521.968.562.968 1.508.084.517-.481.75-.733.713-1.013-.028-.216-.232-.448-.574-.817-1.504-1.622-2.75-.304-1.647 1.746zm18.535-3.108c-.873 0-1.827 1.637-1.48 2.54.282.739 1.522.446 1.978-.467.075-.148.115-.361.117-.582.006-.668-.282-1.491-.615-1.491zm-13.463-1.262c-.635-.107-.839.973-.266 1.39.509.378 1.967.092 1.967-.383 0-.361-.841-.867-1.701-1.007zm6.9 3.254c-.596.081-.677 1.195-.137 1.849.302.361 1.08.408 1.287.072a.627.627 0 0 0 .064-.38c-.064-.646-.742-1.608-1.214-1.541zm12.338-9.423c-.33.856.156 1.958.965 2.221l.895.299c.552.185 1.024-1.298 1.011-2.339-.006-.476-.115-.85-.361-.948-.518-.195-2.356.361-2.51.767zm-2.769-7.233c-.004-.318-.159-.464-.487-.464-.289 0-.602-.26-.764-.621-.294-.646-.425-.693-1.043-.458-.596.232-.453.979.289 1.536.895.665 1.995.678 2.005.007zm.237 10.817c-.65.776-.594 1.273.254 1.99.926.781 1.833.495 2.084-.649.02-.087.031-.165.031-.246h.003c.046-1.218-1.566-2.06-2.372-1.095zm60.072-48.623c.022.755-.112 1.645-.414 2.652-.873 2.887-2.099 3.643-4.488 2.781-3.355-1.203-3.386-5.179-.053-7.263 2.881-1.799 4.879-.85 4.955 1.83zm-2.043 1.561a1.281 1.281 0 0 0-.137-.498c-.353-.761-1.198-.764-1.488 0-.12.319-.451.632-.733.703-.492.131-.526.926-.075 1.723.322.568 1.617.011 2.084-.895.244-.465.358-.75.35-1.018v-.015zm23.504 81.657c.079-.193.12-.414.126-.632 0-.067-.006-.14-.011-.21-.042-.618-.342-1.155-.711-1.032-.481.16-.738 1.326-.436 1.989.372.817.655.789 1.032-.115zm-35.149-72.499c1.175-3.556 5.554-4.586 8.147-1.911l1.189 1.223-.159 1.594c-.339 3.31-2.462 5.072-5.156 4.297-2.49-.716-4.599-3.441-4.021-5.203zm3.637 1.81c.148.179.191.395.107.479-.501.504.213.923 1.435.85 1.256-.072 1.292-.095 1.883-1.211.241-.459.327-.879.299-1.223-.092-1.035-1.212-1.421-2.255-.299-.327.352-.853.741-1.17.862-.444.172-.506.292-.299.542zm-25.031-37.547c1.052-1.796 3.273-4.443 3.934-4.669.269-.092.795-.409 1.161-.714.501-.417 1.111-.601 2.51-.736l1.861-.168 2.244 2.118c1.233 1.164 2.501 2.361 2.817 2.655 1.055.988 1.634 2.316 1.626 3.492-.003.534-.12 1.035-.38 1.452-1.676 2.717-3.694 3.285-9.879 2.798-1.343-.1-2.879-.307-3.416-.458a33.118 33.118 0 0 0-1.584-.38c-1.661-.331-2.145-3.255-.894-5.39zm10.836 3.509c.862-.151 1.614-.415 1.682-.588a.37.37 0 0 0 .019-.168c-.098-1.055-2.699-4.902-3.69-5.35-1.312-.602-3.881 1.483-5.35 4.337-.853 1.668 2.829 2.552 7.339 1.769zm15.676-10.411c.696.336 2.75.048 3.156-.458.269-.333.398-.867.395-1.416-.006-.909-.345-1.866-.904-2.065-.403-.14-.791-.47-.862-.73-.285-1.094-3 .515-3 1.776 0 .294-.156.75-.35 1.03-.357.509.228 1.211 1.565 1.863zm2.624 24.576c.582.336.668.316 1.245-.173.462-.389.641-.803.607-1.117-.056-.52-.691-.761-1.511-.179-.859.613-.973 1.097-.341 1.469zm148.947-6.989c-1.419 2.705-3.634 4.143-6.105 3.989-.711-.047-.716-.025.031 2.533 2.653 9.053-2.042 16.291-10.57 16.342-1.83.009-2.157.162-2.157.998 0 .814.473 1.937.809 1.937.126 0 .182.274.115.615-.064.342.011 1.027.182 1.522 1.975 5.774-6.745 13.656-13.858 12.503-2.341-.375-2.361-.361-1.508 1.522 1.556 3.447.523 5.845-3.565 8.256-2.591 1.525-6.821 2.132-8.539 1.212-.652-.352-.671-.193-.531 3.167l.117 3.052 2.244 2.191c3.621 3.556 5.297 5.081 6.785 6.18.769.568 1.612 1.443 1.871 1.945.26.498 1.531 1.98 2.818 3.288 1.53 1.55 2.518 2.767 2.839 3.517.271.632.957 1.925 1.542 2.873.584.949 1.359 2.605 1.723 3.679.364 1.071.747 2.068.85 2.205.549.716.703 4.818.202 5.42-.14.173-.339 1.164-.448 2.205-.249 2.414-1.925 6.37-3.635 8.581a62.876 62.876 0 0 0-1.788 2.454c-2.87 4.216-5.934 6.527-11.165 8.416-.873.311-2.426.957-3.456 1.432-1.029.478-2.859 1.2-4.073 1.609-1.214.403-2.851 1.055-3.626 1.444a20.241 20.241 0 0 1-5.072 1.743c-.671.135-2.045.471-3.052.744-3.114.848-9.826 1.763-12.932 1.715-4.681-.04-6.348.4-6.348 1.698 0 .254-.252.599-.554.756-.302.159-1.315 1.074-2.255 2.042-3.732 3.856-7.828 4.424-14.398 1.967-2.546-.948-3.144-1.144-4.521-1.458-.736-.162-1.947-.596-2.7-.957-.75-.358-1.452-.646-1.564-.646-.11 0-.384-.143-.596-.33-.496-.433-2.821-1.214-5.145-1.723-2.535-.554-4.362-1.061-7.563-2.104-2.294-.753-2.689-.788-2.689-.279 0 .248-.43 1.035-.968 1.757-1.111 1.488-1.089 1.362-.627 4.188.059.362.12.689.184.998-1.589 2.1-3.355 4.06-5.096 6.083a5.084 5.084 0 0 0-1.621.471c-4.617 2.314-9.398 3.534-14.078 3.607-1.679.022-3.212.1-3.414.156-2.275.647-19.842 1.306-22.089.829-.671-.14-2.818-.415-4.762-.602-14.742-1.43-26.157-3.341-29.895-5.019-.537-.241-2.02-.769-3.295-1.181-2.636-.845-4.832-1.706-5.372-2.087-.909-.64-3.792-1.84-6.194-2.675-.304-.249-.609-.497-.914-.741-.57-1.113-.914-2.295-1.093-3.527.257-1.335.46-2.677.607-4.022.179-.421.375-.962.653-1.709.499-1.343 1.069-2.627 1.265-2.854.509-.582.207-1.256-.892-1.99-2.359-1.558-5.881-5.615-5.881-6.781 0-.236-.853-2.714-1.894-5.478-.33-.878-.43-1.631-.349-2.593.145-1.771-.037-1.819-1.776-.543-.803.588-2.051 1.483-2.765 1.987a28.873 28.873 0 0 0-2.319 1.871c-1.024.954-3.562 2.683-4.924 3.36-.403.205-1.063.534-1.466.739-.403.196-.954.483-1.223.635-1.757.982-4.983 2.275-7.445 2.98a353.25 353.25 0 0 0-3.425.999c-.875.26-1.723.467-1.894.467-.33 0-3.937 1.114-4.933 1.522-.336.135-1.267.443-2.073.678-1.791.531-2.899.926-4.021 1.415-1.412.599-12.402.616-13.675 0-.518-.243-1.117-.456-1.329-.456-.213 0-.825-.218-1.352-.487-.526-.269-1.091-.49-1.253-.49-.47 0-5.617-3.548-6.457-4.443-2.876-3.091-5.35-7.24-6.306-10.584-1.726-6.051-2.227-11.544-1.34-14.898.282-1.063.666-2.694.853-3.64.378-1.899 4.53-10.484 5.688-11.768.693-.769 1.726-2.272 3.561-5.193 1.522-2.417 7.488-8.332 10.752-10.668 1.34-.957 3.148-2.294 4.02-2.975 5.369-4.191 10.215-6.983 17.45-10.038 1.074-.453 2.121-.965 2.331-1.136.324-.271 1.95-.932 7.187-2.918.537-.202 1.961-.697 3.17-1.102 1.208-.409 2.638-.935 3.178-1.17.54-.241 1.866-.683 2.935-.968 1.071-.288 2.487-.722 3.159-.971 2.294-.854 7.576-2.359 9.04-2.58.269-.044 1.421-.271 2.563-.492 1.142-.221 2.319-.443 2.616-.49.296-.044.949-.213 1.458-.38.508-.17 1.586-.448 2.392-.618 3.366-.716 4.706-1.058 5.976-1.52.738-.271 2.795-.959 4.575-1.522 1.776-.568 3.242-1.105 3.242-1.211 0-.112.188-.4.414-.627.389-.389.389-.453 0-1.13-.226-.395-.414-1.102-.414-1.575 0-.471-.218-1.592-.467-2.488a80.34 80.34 0 0 1-.736-2.84c-.473-1.995-.801-2.316-2.306-2.316-1.271 0-2.957-.562-5.148-1.704-.531-.274-1.082-.509-1.223-.509-.523-.019-1.819-1.382-2.893-3.053-.612-.948-1.295-1.886-1.522-2.073-.336-.28-.38-.619-.254-1.936.115-1.195.056-1.771-.224-2.297-.216-.409-.279-.817-.159-.977.115-.148.122-1.418.011-2.828-.12-1.522-.115-2.859.022-3.298.123-.403.299-2.107.384-3.783.084-1.678.263-3.354.403-3.727.191-.495.179-.758-.042-1.029-.165-.196-.232-.543-.148-.756.082-.213.026-.602-.117-.87-.461-.862-.943-3.058-1.044-4.764-.053-.915-.221-2.255-.372-2.966-.289-1.377-.191-5.05.193-7.49.126-.803.344-2.286.49-3.298.506-3.528 1.43-7.286 2.529-10.366.336-.94.901-2.532 1.256-3.539 1.575-4.485 4.938-9.449 8.357-12.327.915-.77 2.222-1.914 2.893-2.549.672-.638 1.544-1.343 1.947-1.566.4-.221.892-.509 1.094-.638.201-.126.971-.493 1.713-.82.744-.322 1.503-.769 1.682-.987.179-.216.453-.395.604-.395.151 0 1.046-.529 1.99-1.17.943-.638 2.476-1.472 3.413-1.846.937-.38 2.303-.968 3.041-1.309 2.86-1.329 5.94-2.046 11.231-2.63 1.813-.196 4.076-.49 5.03-.649 2.205-.361 7.071.097 8.391.789 2.988 1.57 6.471 3.159 6.922 3.159.292 0 1.335.543 2.32 1.212.982.671 1.942 1.223 2.137 1.223.196 0 .929.38 1.626.853.699.467 1.412.862 1.586.862.37 0 2.146 1.089 2.37 1.452.087.14.358.246.596.246.241 0 .624.227.862.493.238.263.842.596 1.329.741.486.148 1.374.464 1.978.716.604.246 1.978.635 3.053.856 1.074.227 2.227.515 2.563.641.336.126 1.108.319 1.713.439.604.115 1.917.377 2.924.582 1.007.201 2.652.489 3.659.649 1.007.154 2.381.395 3.053.52.671.123 1.883.297 2.689.384.806.087 1.679.279 1.947.425.724.389 3.212.596 10.06.851 3.38.126 6.267.305 6.413.395.143.087 2.927.193 6.178.241 5.234.072 9.098.38 9.708.755.112.073 1.01.16 1.99.213.979.059 2.252.286 2.839.493.588.21 1.36.369 1.713.369 1.595-.006 11.7 2.23 14.059 3.108 2.182.812 10.128 4.977 11.41 5.985.47.369.945.674 1.074.674.282 0 3.172 1.852 3.36 2.154.073.106.395.17.713.106.423-.081.943.188 1.902.968.725.593 1.897 1.382 2.605 1.768.837.45 2.994 2.392 6.136 5.486 2.669 2.627 5.71 5.598 6.765 6.602 1.491 1.425 6.558 6.64 9.719 10.008 5.112 5.448 8.808 7.798 13.911 8.802.8.16 1.793.54 2.199.842.409.305 1.55 1.013 2.543 1.595 4.996 2.93 6.103 7.446 3.197 12.991zm-205.966.574c-.03-.641-.17-1.427-.403-2.317-.195-.749-.358-2.031-.364-2.839-.003-.809-.182-2.132-.392-2.935-.213-.806-.366-1.738-.352-2.076.101-2.354.022-4.74-.16-4.924-.741-.742-4.364-.143-4.051.674a.735.735 0 0 1-.106.66c-.8.982-.923 5.1-.191 6.569.26.52.37 1.387.349 2.733-.039 2.98.44 3.861 3.265 5.998 1.024.775 1.735.741 2.179-.087.176-.32.256-.813.226-1.456zm5.669 6.795c.872 2.739 1.709 5.579 2.157 7.33 1.215 4.737 3.192 8.766 7.19 14.633 5.109 7.504 11.068 12.568 17.291 14.686 2.084.708 5.984.63 9.401-.193 6.34-1.531 9.073-3.033 10.984-5.988.559-.862 1.284-1.735 1.606-1.945.324-.213.584-.531.584-.693 0-.165.241-.509.524-.767.859-.778 1.748-2.482 1.595-3.069-.188-.719.464-1.415 1.329-1.415.552 0 .89-.274 1.713-1.382 4.199-5.683 6.27-12.551 8.379-27.791.218-1.578.308-4.376.297-7.422-.017-5.07-.311-10.811-.786-12.644-.324-1.248-.59-2.504-.596-2.806-.022-3.287-6.625-6.259-14.28-6.42-1.343-.031-2.829-.12-3.299-.205-.47-.087-3.536-.254-6.826-.375-3.713-.129-6.813-.37-8.178-.624-2.504-.473-5.708-1.359-5.87-1.62-.059-.095-.604-.408-1.212-.702-.607-.294-1.384-.904-1.723-1.346-.339-.445-.876-.867-1.2-.948-.655-.165-1.205-1.049-1.553-2.499-.125-.52-.392-1.609-.596-2.417a25.26 25.26 0 0 1-.523-2.795c-.311-2.784-1.561-1.796-4.423 3.531-.641 1.2-1.95 2.96-3.892 5.243a32.734 32.734 0 0 0-1.712 2.213c-.403.587-1.155 1.46-1.679 1.936a57.867 57.867 0 0 0-1.958 1.883c-.549.557-1.455 1.236-2.021 1.519-2.495 1.237-3.911 3.419-4.264 6.519-.405 3.561.991 18.361 1.902 20.152.185.361.443 1.352.566 2.2.121.847.599 2.744 1.073 4.221zm-25.351 67.794c-3.411-4.104-3.433-5.839-.118-11.314 1.083-1.791 2.247-3.139 6.041-6.986 2.582-2.621 4.7-4.852 4.7-4.958 0-.104 1.324-1.531 2.935-3.167 1.609-1.637 2.924-3.089 2.924-3.235 0-.143.193-.467.414-.711.738-.819.095-1.67-1.265-1.67-2.087 0-5.623 3.29-8.709 8.094-.361.559-.951 1.281-2.935 3.626-2.026 2.392-2.881 3.469-2.881 3.623 0 .101-.531.736-1.192 1.424-.658.694-1.265 1.483-1.352 1.749-.084.266-.307.534-.486.607-.182.067-.638.75-1.021 1.505-.386.761-.876 1.564-1.086 1.791-.405.433-1.2 2.647-1.211 3.38-.006.246-.176.655-.372.915-1.016 1.343.235 6.155 1.743 6.734.316.12.733.577.926 1.018.514 1.189 1.488 2.384 2.392 2.938 2.387 1.449 4.484 2.353 5.422 2.4.554.014 1.27.12 1.606.233.837.282 2.68.159 5.011-.347 3.719-.809 7.199-2.286 7.199-3.058 0-.104.68-.663 1.519-1.251 6.044-4.225 15.819-16.784 15.794-19.792-.003-.314-.104-.506-.33-.596-.408-.154-1.606.721-1.606 1.183 0 .12-.694 1.038-1.531 2.04a185.736 185.736 0 0 0-2.821 3.447c-.708.895-2.954 3.282-4.996 5.304-2.043 2.023-4.214 4.25-4.818 4.958-5.955 6.962-14.175 7.009-19.896.116zm5.923 2.806c1.829 1.262 3.287 1.463 5.805.809 1.117-.288 1.738-.587 1.788-.837a.21.21 0 0 0 0-.087c-.034-.458-.998-.655-1.958-.361-1.813.554-2.619.574-3.775.062-1.958-.865-3.291-.568-1.86.414zm28.616-4.952c0 .882 8.539 3.349 13.057 3.775 4.854.456 5.982.428 8.466-.238.487-.129 1.011-.389 1.17-.582.16-.193.638-.428 1.064-.52 1.55-.342 3.458-1.892 4.689-3.797 2.266-3.508 4.966-8.919 6.496-13.029 3.587-9.616 3.676-9.989 3.712-13.729.006-.89.017-1.698.011-2.286-.006-.587-.016-.948-.034-.948-.031 0-.711.641-1.508 1.43-.8.786-1.766 1.561-2.149 1.72a1.92 1.92 0 0 0-.968.999c-.151.4-.456.738-.671.738-.213 0-.381.095-.381.21 0 .118-.302.204-.671.204-.848 0-3.838.224-7.146.552-5.375.531-11.877-.504-13.208-2.107-.148-.179-.375-.327-.498-.327-.126 0-.632-.327-1.128-.713a15.16 15.16 0 0 0-2.001-1.276c-.607-.316-1.27-.716-1.465-.884-.199-.168-1.352-1.041-2.555-1.945-2.177-1.642-4.06-3.841-4.89-5.68-.213-.473-.702-1.18-1.086-1.584-.383-.405-1.105-1.508-1.606-2.445-.873-1.642-1.136-2.096-2.658-4.501-.822-1.298-1.105-1.091-1.575 1.142-.163.775-.402 1.902-.531 2.507a30.852 30.852 0 0 0-.35 2.076 60.64 60.64 0 0 1-.372 2.445c-.968 5.495-1.083 9.183-.33 10.498.311.539.685 1.578.839 2.313.372 1.771.386 1.782 2.616 1.723 2.697-.072 3.092.428 3.83 4.916.176 1.076.377 1.242 1.158.943 3.674-1.396 6.01.336 6.072 4.499.016 1.074.134 2.639.266 3.481.204 1.276.19 1.628-.138 2.123-.215.333-.402.756-.402.949 0 .195-.574 1.082-1.279 1.97-2.017 2.524-3.846 5.075-3.846 5.378zm-12.101-24.279c.14-.879.09-.985-.577-1.327-.397-.207-.803-.54-.915-.738-.26-.467-1.942.294-3.307 1.503-.504.442-1.019.809-1.147.809-.271 0-12.699 12.467-12.699 12.735 0 .101-.596.862-1.329 1.682-.73.822-1.409 1.732-1.499 2.02-.087.294-.33.728-.54.968-2.04 2.32-1.271 5.179 1.945 7.272 3.407 2.224 5.083 2.412 5.083.568 0-1.371.75-1.886 1.777-1.212.867.568 1.038 1.458.436 2.306-.602.837-.405 1.094.71.887a41.943 41.943 0 0 1 2.445-.352c3.713-.433 9.977-5.243 13.667-10.497a72.736 72.736 0 0 1 2.146-2.874c1.413-1.768 2.012-2.692 1.97-3.467-.028-.461-.288-.87-.736-1.382-.758-.864-.945-1.746-1.158-5.414-.042-.708-1.34-1.021-3.179-.766-2.621.365-3.468-.385-3.093-2.721zm-7.848-9.583c1.754-.042 3.744.853 4.614 2.076.554.775.828.851 1.044.297.081-.21.137-.703.137-1.089 0-1.049.96-6.55 1.382-7.932.655-2.138 1.491-5.322 1.798-6.824.163-.806.358-1.594.425-1.768a.335.335 0 0 0 .031-.157c-.014-.291-.761-.104-3.998.85-4.418 1.301-3.881.462-6.01 9.454-1.272 5.387-1.309 5.14.577 5.093zm-17.57 45.039c-3.217-3.254-5.923-7.28-5.923-8.819 0-.602-2.109.274-4.221 1.746-.929.646-2.667 1.536-4.446 2.272-.803.338-1.738.758-2.074.94-.336.182-1.648.557-2.924.837-1.276.28-3.421.741-4.764 1.035-1.343.289-2.614.613-2.828.722-1.259.635-6.136 1.463-8.763 1.511-3.508.039-3.903-.082-3.903-1.159 0-1.703 3.399-3.298 7.031-3.298 1.506-.003 4.043-.342 5.423-.722 2.283-.63 5.128-1.564 6.336-2.084.739-.316 2.113-.87 3.053-1.226 3.035-1.136 4.628-1.841 5.498-2.431.47-.322 1.785-1.069 2.926-1.651l2.073-1.055.042-1.455c.039-1.5.534-2.733 1.978-4.905 1.684-2.532 3.796-5.629 4.169-6.147 1.757-2.42 2.467-3.301 3.807-4.686a70.723 70.723 0 0 0 2.84-3.172c.725-.87 1.516-1.805 1.754-2.071 1.533-1.74 3.159-3.878 3.372-4.437.386-1.016 1.127-3.995 1.306-5.207.09-.607.372-1.757.618-2.566.243-.806.504-1.958.593-2.56.09-.607.769-2.316 1.5-3.808.733-1.497 1.329-2.784 1.329-2.851h.003c0-.246-3.315.059-4.734.434-.789.212-2.384.486-3.542.607-1.156.126-2.706.389-3.444.596-1.774.496-14.037 4.742-17.324 5.998-2.604.996-4.009 1.466-4.381 1.466-.204 0-.713.171-1.116.38-.403.213-1.62.761-2.722 1.203-1.864.758-2.644 1.253-4.924 3.192-1.097.935-2.862 1.95-3.763 2.157-.372.087-1.086.509-1.587.948-.937.817-2.196 1.69-3.752 2.566-.915.509-1.432.91-2.596 2.017-.361.344-1.192.89-1.839 1.212-.649.322-1.273.766-1.393.991-.12.223-.515.481-.873.573-.358.092-1.004.428-1.435.756-.431.327-.895.599-1.033.599-.134 0-.518.249-.85.549-.333.302-1.525 1.318-2.636 2.258-4.588 3.869-10.976 10.858-11.37 12.43-.087.342-.26.627-.383.627-.33 0-1.178 1.506-1.178 2.093 0 .286-.232.719-.501.96s-.479.663-.479.932c0 .274-.173.685-.383.915-1.271 1.407-2.731 16.798-1.766 18.622.163.311.148.534-.031.713-.433.434-.308 1.069.339 1.679.333.319.612.675.618.809.009.299 1.71 3.125 3.114 5.181 1.673 2.446 7.531 6.41 9.465 6.41.411 0 .867.125 1.01.269 1.097 1.094 7.934 1.099 11.549 0 1.276-.389 2.921-.876 3.659-1.086.738-.207 2.493-.719 3.903-1.127 1.407-.408 3.665-1.01 5.008-1.329 1.343-.322 2.966-.811 3.615-1.097.65-.28 1.265-.509 1.363-.509.241 0 8.295-4.396 9.059-4.944 1.164-.837 5.039-3.307 7.243-4.608 1.22-.722 3.139-1.858 4.264-2.529 1.122-.672 2.341-1.374 2.711-1.561.941-.487 1.02-.362-2.69-4.105zm100.399 41.248a1.13 1.13 0 0 0-.14-.534c-.162-.297-.397-.45-.562-.347-.157.098-.725.26-1.267.361-.54.104-1.488.286-2.093.414-1.399.299-6.119.372-14.762.204-10.035-.198-10.838-.184-12.825.19-3.411.641-5.35.708-7.157.257-1.321-.332-2.152-.38-4.02-.238-1.293.087-3.402.137-4.679.087-4.599-.173-9.658-.09-11.017.171-2.871.548-14.75-.292-17.655-1.248-3.198-1.055-4.762-1.296-4.762-.742 0 .221.14.428.307.475.168.045.711.213 1.212.378.501.157 1.443.383 2.084.495.641.115 2.694.596 4.575 1.064 1.877.473 4.454.982 5.73 1.141 1.276.157 3.03.437 3.903.616 2.845.582 4.457.842 8.827 1.458 2.367.333 5.165.789 6.223 1.007 3.727.769 11.703 1.312 16.929 1.15.873-.028 4.911-.112 8.976-.179 4.062-.067 7.484-.182 7.593-.246.107-.067 1.444-.344 2.977-.616 5.998-1.069 6.844-1.309 8.911-2.54 1.808-1.082 2.686-1.983 2.692-2.778zm1.264-9.909c.006-.053-.003-.092-.011-.14-.039-.201-.554-.736-1.159-1.18a107.947 107.947 0 0 1-2.616-2.02l-1.522-1.215-.85.512c-.638.38-.949.434-1.296.244-.324-.17-.638-.148-1.055.064-6.524 3.38-19.136-1.531-22.81-8.881a131.398 131.398 0 0 0-1.721-3.307c-1.007-1.829.246-3.288 2.339-2.72.47.126 1.237.264 1.701.264.814.039.837.07.862 1.054.042 1.715 3.187 5.758 5.775 7.423 3.757 2.417 9.907 3.413 12.218 1.978l.915-.562-.619-.907c-1.116-1.653-1.525-2.867-1.648-4.837-.064-1.058-.24-2.213-.383-2.574-.875-2.253 1.511-10.075 3.691-12.101.663-.615 3.76-2.165 5.764-2.884l1.309-.465-.138-5.011c-.084-2.753-.249-5.771-.372-6.712a74.516 74.516 0 0 1-.406-4.387c-.09-1.48-.366-3.735-.615-5.011-.252-1.276-.524-3.794-.607-5.604-.084-1.813-.241-4.171-.35-5.232-.112-1.063-.154-2.07-.087-2.246.067-.174.006-1.066-.137-1.978a49.633 49.633 0 0 1-.361-2.871c-.638-7.35-1.049-8.452-2.46-6.656-.602.764-.666.814-2.316.764-6.858-.134-7.118-10.346-.266-10.346 1.141 0 1.387-.285.872-1.021-.21-.299-.383-.968-.383-1.488 0-.923-2.152-4.563-2.702-4.563-.274 0-.607.554-2.351 3.906-1.569 3.016-2.227 4.183-4.826 8.539l-1.681 2.806.03 2.689c.023 1.478-.042 2.904-.159 3.173-.845 1.964-1.992 7.224-2.084 9.56-.036.923-.218 1.5-1.253 3.931-.188.442-.353 1.127-.353 1.511 0 .386-.196 1.17-.445 1.757-.251.585-.596 1.889-.766 2.893-.17 1.002-.509 2.157-.744 2.563-.235.403-.577 1.203-.744 1.774-.168.574-.448 1.152-.627 1.296-.179.148-.33.433-.33.629 0 .445-1.2 2.205-2.043 2.991-.35.322-.637.731-.637.915 0 .176-.221.523-.49.755-.269.227-.489.568-.489.764 0 .193-.546.979-1.212 1.743-.665.767-1.39 1.777-1.617 2.253-.724 1.528-4.202 3.828-7.305 4.842-2.988.971-13.785-.128-16.96-1.737-.471-.235-1.657-.683-2.639-.996-1.312-.42-2.202-.915-3.349-1.863-.859-.708-1.648-1.284-1.757-1.284-.191 0-2.686 2.568-6.038 6.233-5.458 5.953-9.608 8.281-14.263 8.013-1.469-.081-2.842-.039-3.189.095-.428.17-.898.132-1.564-.104-3.111-1.099-6.066-.05-5.134 1.819.218.442.425 1.659.486 2.848.171 3.159 1.726 6.653 3.565 8.01.38.279.738.683.809.89.587 1.838 6.2 4.795 8.633 4.555.893-.092 2.18-.213 2.86-.266 3.27-.263 9.406-5.159 12.464-9.954 1.321-2.068 2.887-3.908 3.637-4.264.904-.434 2.062-.255 2.062.307 0 .199.106.361.235.361 1.069 0-.529 4.328-2.392 6.488-.126.145-.425.64-.66 1.094-.232.453-1.113 1.525-1.967 2.381-.853.86-1.564 1.657-1.564 1.777 0 .313-1.945 2.171-2.275 2.171-.151 0-.674.361-1.158.8-1.488 1.329-1.802 1.544-3.543 2.499-.926.504-1.791.985-1.924 1.082-1.877 1.346-6.687 1.309-9.997-.087-1.223-.512-1.494-.274-1.967 1.704-.716 2.994.025 3.878 4.029 4.751.47.106 1.488.361 2.266.577.778.212 1.816.394 2.297.394.481 0 1.55.098 2.372.221.82.126 2.297.352 3.296.501.996.145 1.953.377 2.127.521.568.473 3.777.66 9.731.562 3.22-.05 6.18-.05 6.583-.05 2.034.1 5.612-.02 7.571-.258 7.602-.912 22.713-1.318 23.81-.638.196.115 4.116.21 8.774.162 4.63-.006 8.729-.053 9.103-.053.456 0 .98-.297 1.607-.915.512-.504 1.612-1.284 2.434-1.746 1.447-.805 3.07-2.515 3.159-3.275zm-11.686-81.237c-.241.383-.213.584.17 1.105.87 1.195 3.013 1.544 3.55.587.459-.822.672-1.645.68-2.364.028-1.826-1.225-2.968-2.817-1.653-.389.316-.915.655-1.158.741-.308.109-.392.311-.289.638.085.26.024.688-.136.946zm60.572 71.355c-.019-.28-.069-.467-.148-.529-.201-.168-.364-.616-.364-1.002 0-1.698-2.962-5.733-5.304-7.221-.375-.235-1.449-1.01-2.392-1.713-2.507-1.863-9.887-4.208-14.389-4.571-1.074-.087-2.778-.361-3.785-.619-2.258-.568-3.866-.769-4.042-.489-.073.12.179.294.554.375.375.082 1.013.252 1.416.372 2.213.663 5.461 1.432 6.06 1.432.377.006.903.126 1.169.271.269.14 1.486.361 2.703.483 1.214.126 2.699.448 3.307.714.605.269 1.256.489 1.447.489.369 0 2.036.848 3.614 1.83.537.333 1.486.881 2.107 1.214 1.455.778 4.603 4.168 4.603 4.952 0 .319.156.87.341 1.237 1.005 1.964.627 3.648-1.127 4.986-.433.333-1.208 1.32-1.723 2.202-1.444 2.467-3.139 3.461-5.464 3.201-.646-.073-2.003-.02-3.01.106-1.441.182-2.04.148-2.806-.126a27.61 27.61 0 0 0-1.458-.492c-.269-.076-.711-.33-.98-.562-.646-.557-1.81-1.117-4.029-1.945-2.708-1.01-3.514-1.497-4.244-2.513-.361-.501-.759-.915-.873-.915-.112 0-.66-.381-1.223-.848-1.2-1.004-1.928-1.071-4.773-.448-2.233.493-3.092.188-4.256-1.5-1.099-1.6-2.593-2.937-3.592-3.245-1.846-.557-3.867-1.055-4.586-1.117-2.389-.193-6.731-5.052-6.39-7.157.176-1.094 1.351-2.697 2.19-2.999a6.575 6.575 0 0 0 1.382-.733c.383-.274.87-.498 1.085-.498.216 0 .585-.098.817-.223.235-.129 1.055-.409 1.819-.616.766-.213 1.46-.495 1.544-.63.23-.372-.663-.279-1.48.148-.403.213-1.334.42-2.074.468-2.07.12-4.756 1.049-5.231 1.818-.084.14-.736.54-1.435.887-1.861.91-3.285 3.875-2.266 4.723.226.182.405.696.405 1.205.003 1.343 1.17 2.957 4.614 6.374 1.989 1.97 2.722 2.526 4.893 3.634 1.405.722 2.823 1.511 3.147 1.766.322.257.719.458.892.458.173 0 .644.283 1.044.616.398.336 1.531.94 2.518 1.352 1.835.766 2.543 1.088 5.33 2.403.873.414 2.356.923 3.296 1.127.94.201 2.977.798 4.518 1.343 1.545.537 3.682 1.265 4.754 1.601l4.161 1.334c2.515.809 5.114.943 7.092.38.66-.188 1.973-.473 2.913-.627 2.672-.442 4.742-1.832 6.062-4.07.739-1.262 1.637-5.859 1.648-7.789-.001-.106.005-.206-.001-.304zm-46.505-25.405c-.498 3.081-.573 3.002 2.426 2.927.929-.025 2.263.182 3.657.574 1.208.336 2.585.624 3.052.624.468.006 1.682.16 2.692.352 2.614.501 5.249.87 6.167.87.436 0 1.533.213 2.437.473.957.269 2.935.534 4.754.635 3.139.179 5.962.87 6.879 1.67.568.495 2.764 1.625 3.189 1.625.204.006.966.271 1.701.588 1.337.573 1.511.573 2.202 0 .202-.168 1.086-.518 1.959-.789 2.498-.769 8.309-3.436 9.496-4.35.593-.456 1.253-.828 1.466-.828.215 0 .808-.221 1.309-.49.501-.266 1.046-.487 1.223-.487 1.122 0 3.341-1.541 3.341-2.319 0-1.214-.809-1.497-5.467-1.955-4.843-.481-8.514-.991-10.824-1.511-1.036-.232-2.988-.458-4.328-.458-1.343-.014-2.768-.104-3.17-.202-.403-.095-1.508-.212-2.445-.263a87.698 87.698 0 0 1-3.053-.238c-.738-.072-2.492-.182-3.903-.254-4.196-.207-13.589-1.021-13.877-1.203-2.087-1.284-11.281.853-10.657 2.479.071.186-.03 1.327-.226 2.53zm.418 13.463c-.138.173-.381.722-.543 1.223-.163.504-.417.948-.574.948-.16.02-.459.037-.66.087-.201.023-.574.082-.831.082-.559.042.151 1.01.744 1.01.176 0 .45.251.607.554.156.302.299.559.319.607.019.028 1.337.433 2.924.915 3.408 1.03 3.744 1.243 5.042 3.21 1.256 1.902 1.947 2.238 3.872 1.838 3.333-.688 4.868-.288 6.869 1.791 1.435 1.488 2.546 2.132 6.082 3.539 1.41.563 2.692 1.122 2.84 1.246 1.145.945 3.251 1.069 7.635.467 2.342-.322 3.151-.811 4.032-2.454.392-.736.943-1.497 1.223-1.695.277-.196.828-.716 1.223-1.158.395-.439.865-.794 1.052-.794.151 0 .218-.241.213-.588-.006-.576-.201-1.471-.531-2.104-.873-1.679-6.22-5.652-8.656-6.435a53.166 53.166 0 0 1-2.84-1.021c-.828-.327-1.872-.596-2.316-.596-.448 0-1.704-.174-2.775-.389a94.896 94.896 0 0 0-3.053-.579c-1.299-.207-5.52-1.424-6.211-1.785-.266-.14-.817-.342-1.223-.448-2.325-.596-3.671-1.01-4.127-1.296-1.659-1.035-2.856-.708-3.709 1.021-.218.433-.552.784-.736.784-.4 0-1.639-1.866-1.446-2.179.269-.434-.355-.501-1.234-.135-.49.202-1.114.37-1.382.37-.319 0-.439.12-.35.352.073.193.207.744.297 1.223.148.781.252.862.938.862.668-.006 1.124.039 2.529.21.467.059.364.882-.201 1.601-.635.809-2.812.957-3.053.21-.28-.876-.677-1.531-.923-1.531-.766 0-1.547-1.503-1.01-1.95.862-.716.456-1.29-.789-1.099-3.654.543-6.569 4.566-4.07 5.609 1.186.498 1.329.473 1.329-.201 0-.314.216-.764.478-1.002.26-.235.501-.668.543-.951.106-.753 1.625-.867 2.252-.173.311.345.373.586.2.804zm75.437-30.988c-1.914-1.164-2.076-1.217-4.284-1.362-1.261-.081-2.946-.333-3.743-.554-.8-.221-1.95-.535-2.555-.688-.602-.157-1.315-.395-1.584-.543-.269-.148-1.483-.562-2.691-.923-1.206-.361-2.703-.94-3.327-1.268-.624-.327-1.413-.587-1.754-.587-.342 0-.694-.107-.778-.241-.084-.135-.556-.442-1.052-.683-3.755-1.818-10.573-5.988-10.816-6.603-.28-.708-2.734-1.97-3.817-1.97-1.801 0-2.033-.067-2.255-.646-.135-.35-.612-.691-1.371-.957-.646-.227-1.374-.515-1.606-.641a2.307 2.307 0 0 0-.873-.221c-.244 0-.543-.107-.669-.235-.128-.126-1.337-.512-2.68-.848-2.814-.716-4.569-1.309-6.465-2.194-.738-.344-1.559-.627-1.83-.627-.271 0-.727-.165-1.01-.36-.283-.199-1.46-.7-2.616-1.117-1.156-.42-2.507-1.035-3-1.374-.492-.336-1.788-1.049-2.871-1.572-3.169-1.542-6.088-3.195-7.243-4.124-.59-.478-1.354-1.055-1.69-1.276-.336-.227-1.097-.862-1.701-1.416-.605-.554-1.438-1.175-1.841-1.382-.402-.212-1.494-.99-2.434-1.745-2.373-1.908-3.301-2.546-3.478-2.376-.215.218-.056 2.376.213 2.876.123.229.324 1.824.456 3.542.314 4.052 1.421 11.018 1.872 11.74.423.674 1.058 4.384 1.161 6.762.039.938.199 2.306.35 3.042.151.736.338 2.993.414 5.011.512 13.275 1.057 14.831 4.851 14.011 1.724-.369 9.323-.68 18.323-.741 7.773-.059 8.976.039 14.398 1.136.94.193 2.806.526 4.146.736 1.343.207 5.181 1.03 8.519 1.841 8.125 1.961 8.621 2.02 13.676 1.465l2.658-.288.82.789c1.038 1.007 1.021 1.488-.054 2.339-.476.375-1.113 1.122-1.435 1.67-.862 1.458-3.786 4.334-5.551 5.473-.851.549-1.62 1.208-1.713 1.46-.257.691-1.192 1.203-2.532 1.371-.705.087-2.197.655-3.603 1.352-1.324.655-2.505 1.189-2.627 1.189-.123 0-1.131.428-2.233.948-1.105.521-2.212 1.002-2.448 1.083-.582.201-.529.52.129.809 2.856 1.267 4.269 2.666 5.433 5.363a93.684 93.684 0 0 0 1.766 3.696c1.114 2.213 1.124 2.286.733 2.947-.218.375-.526 1.659-.68 2.862-.154 1.2-.436 2.783-.638 3.52a68.353 68.353 0 0 0-.509 1.936l-.14.587 2.543-.14c1.393-.079 2.846-.26 3.22-.406.377-.143 1.861-.313 3.299-.383 2.403-.112 3.483-.251 6.709-.873.643-.12 1.569-.229 2.053-.229 3.368 0 11.703-3.486 16.664-6.966 5.173-3.635 5.73-4.275 8.231-9.51.448-.94.915-1.874 1.041-2.07 1.371-2.185 2.02-4.121 1.955-6.374h.003c-.05-1.745-.537-3.687-1.427-6.068-2-5.367-1.807-5.017-4.541-8.31-2.258-2.72-3.371-3.825-5.145-5.125a422.73 422.73 0 0 1-2.681-1.978 35.396 35.396 0 0 0-2.448-1.626c-.666-.4-2.104-1.273-3.197-1.936zm46.538-67.539c-.011-2.064-1.105-4.101-3.139-5.049-.895-.42-1.952-.996-2.35-1.276-.397-.282-1.93-1.004-3.413-1.617-4.37-1.811-11.69-6.396-13.429-8.413-.138-.154-.688-.607-1.225-.996-.534-.395-2.462-2.196-4.284-4.01a473.245 473.245 0 0 0-5.382-5.277 2992.965 2992.965 0 0 1-5.859-5.646c-2.096-2.026-4.292-3.984-4.883-4.35a18.024 18.024 0 0 1-1.933-1.424 35.593 35.593 0 0 0-1.958-1.556 52.61 52.61 0 0 1-2.552-2.04c-4.104-3.5-6.18-4.656-10.494-5.87-.94-.263-2.255-.789-2.927-1.17-.702-.397-1.95-.817-2.935-.982-.94-.154-2.644-.431-3.785-.615-1.141-.176-2.453-.443-2.924-.582-.993-.302-2.77-.577-8.178-1.264-2.149-.274-4.233-.594-4.635-.714-.761-.226-2.985-.403-7.563-.615a94.76 94.76 0 0 1-5.721-.501c-2.392-.299-3.164-.319-3.593-.087-.548.294-1.205.249-3.628-.274-.669-.148-1.872-.305-2.678-.352-1.508-.09-3.959-.434-6.104-.842-.671-.126-2.881-.283-4.924-.349-2.043-.065-3.833-.185-3.967-.266-.132-.082-.649-.168-1.158-.168-.509-.014-1.046-.115-1.181-.213-.134-.1-1.116-.361-2.19-.596-1.754-.386-5.034-1.569-7.871-2.84-.568-.254-1.122-.467-1.233-.467-.11 0-.713-.333-1.349-.736-.635-.4-1.374-.722-1.648-.722-.277 0-1.405-.405-2.501-.895a104.797 104.797 0 0 0-6.838-2.784c-1.049-.389-2.431-1.082-3.072-1.553-1.413-1.035-3.797-2.137-6.178-2.84-.973-.291-2.109-.671-2.51-.853-4.862-2.193-17.57-.506-25.13 3.34-7.008 3.568-14.106 9.42-15.706 12.942-3.022 6.656-3.663 8.173-4.679 11.125-.797 2.305-.652 2.487.658.85a37.173 37.173 0 0 1 1.488-1.757c.317-.33 1.097-1.256 1.724-2.048 5.162-6.539 6.95-8.352 10.592-10.764 1.368-.909 2.627-.872 2.627.073 0 .308-1.491 2.479-1.704 2.479-.101 0-1.634 1.424-3.414 3.167-1.776 1.745-3.31 3.181-3.402 3.181-.226 0-4.924 5.8-6.125 7.56a22.832 22.832 0 0 1-1.245 1.628c-.361.423-1.06 1.626-1.564 2.68-.504 1.055-1.116 2.197-1.348 2.533-1.209 1.737-1.545 3.693-1.374 7.879.223 5.416.453 5.511 2.532 1.147.607-1.276 1.698-3.581 2.434-5.125.736-1.541 1.642-3.187 2.012-3.66a11.37 11.37 0 0 0 1.136-1.829c.615-1.299 3.273-3.97 5.178-5.198 2.518-1.62 3.005-.775 1.074 1.883-.64.887-1.494 2.127-1.891 2.778-.4.643-1.654 2.412-2.798 3.911-2.75 3.612-4.062 5.665-5.38 8.463-.602 1.276-1.324 2.675-1.617 3.12-1.393 2.106-1.497 4.597-.235 5.645.352.289 2.275-1.584 4.009-3.906.993-1.323 2.253-2.573 5.904-5.827.968-.862 2.053-2.018 2.403-2.561.672-1.049 1.559-2.07 4.849-5.626 2.202-2.378 3.653-4.429 3.883-5.456.129-.585.985-2.515 1.531-3.456.554-.956 1.488-3.228 1.488-3.603 0-.238.364-.968.809-1.642.445-.668.96-1.578 1.139-2.017.176-.442.521-.915.764-1.044.243-.132.635-.562.873-.968 1.57-2.658 2.739.453 2.084 5.565-.389 3.022-.319 4.138.437 6.762.115.4.395 1.371.615 2.146.221.775.7 1.763 1.064 2.191.366.433.934 1.208 1.267 1.723 1.228 1.911 3.489 3.066 7.263 3.701 5.749.963 7.145 1.108 10.836 1.108 2.414 0 3.934.109 4.635.336.577.187 1.483.42 2.02.509 1.628.285 9.21 2.081 10.251 2.437 4.205 1.444 6.687 2.492 7.316 3.066.402.364 1.251.948 1.872 1.304.624.36 1.396.909 1.713 1.228 1.438 1.43 2.602 2.787 3.181 3.685.345.54 1.617 1.855 2.818 2.927 1.2 1.074 2.56 2.431 3.019 3.03.461.596 1.653 2.04 2.66 3.189 1.008 1.15 2.21 2.619 2.681 3.254.467.641 1.351 1.802 1.955 2.586.605.789 1.578 2.106 2.168 2.934.591.829 1.268 1.609 1.5 1.735.235.123.49.591.577 1.044.084.448.985 2.172 1.998 3.828a99.696 99.696 0 0 1 3.52 6.382c2.096 4.222 3.254 6.256 5.808 10.131 1.894 2.879 2.54 3.74 4.701 6.264.476.556 2.319 2.96 4.093 5.327 2.845 3.802 8.007 9.689 9.059 10.316.333.201 2.944 2.333 6.074 4.966a24.65 24.65 0 0 0 1.625 1.268c.308.207 1.206.87 1.99 1.466.783.599 1.925 1.34 2.532 1.648.604.313 1.253.674 1.455.797.831.526 7.286 3.52 8.424 3.914 1.978.688 5.59.64 7.252-.095 1.631-.722 1.995-1.147 1.796-2.043-.095-.436-.019-.85.213-1.158.864-1.142.196-3.399-1.446-4.848-1.265-1.117-3.844-3.682-4.701-4.678-.68-.794-.705-1.665-.062-2.311.98-.977 1.922-.54 4.731 2.224 5.483 5.392 13.469 5.084 15.004-.582.408-1.508-.339-2.966-3.072-6.021-1.995-2.23-2.034-3.687-.117-4.434.753-.294 2.991.621 4.731 1.936 1.642 1.237 3.327 1.987 4.393 1.987.448-.009 1.704.047 2.798.14l1.987.168 1.553-1.625c.856-.901 1.625-1.816 1.713-2.043.09-.223.414-1.016.713-1.757 1.035-2.54.386-6.656-1.511-9.644-3.052-4.81-1.883-6.339 2.882-3.763l2.308 1.256 1.872-.14c8.564-.613 10.211-4.415 5.805-13.441-.985-2.02-1.924-4.09-2.084-4.585-.756-2.37.736-3.808 2.722-2.639 2.456 1.45 4.748 1.679 6.021.607 1.35-1.137 1.993-2.765 1.985-4.371zM187.111 294.223c-1.78-3.345-2.527-11.209-1.241-13.096.749-1.105 4.384-4.567 5.285-5.04.499-.258 2.124-1.433 3.603-2.6 3.698-2.922 6.287-4.14 10.919-5.144 1.991-.431 4.025-.914 4.525-1.073.501-.162 1.576-.42 2.402-.577a47.74 47.74 0 0 0 2.514-.544c.555-.142 2.18-.358 3.611-.48 2.647-.231 6.757-.776 9.167-1.221 3.71-.679 7.088-.219 9.099 1.234.879.639 1.957 1.34 2.385 1.561 3.708 1.936 7.234 8.754 6.785 13.121-1.125 10.943-4.891 14.8-19.056 19.509-4.039 1.34-14.133 3.396-18.8 3.816-1.315.12-4.025.005-8.062-.326-3.343-.276-6.434-.493-6.878-.482-.527.01-.898-.129-1.07-.4a32.48 32.48 0 0 0-1.021-1.396c-1.274-1.675-3.627-5.295-3.602-5.534.014-.127-.24-.716-.565-1.328zm1.343-8.393c.103.252.152.682.123.961-.157 1.528 2.187 5.653 3.938 6.946.387.287.687.597.677.689-.065.629 1.822 1.43 4.422 1.903 1.514.271 2.786.536 2.825.589.158.19 4.929.203 6.479.013a41.933 41.933 0 0 1 2.728-.242c1.331-.058 4.671-.569 5.302-.825.249-.097 1.612-.407 3.02-.677 1.408-.26 2.951-.633 3.445-.841.493-.199 2.067-.741 3.489-1.188 5.782-1.83 14.216-6.141 15.333-7.846.187-.285.491-.507.672-.488.418.043 1.573-1.191 2.195-2.336a4.624 4.624 0 0 0 .561-1.909c.052-.692-.025-1.453-.243-2.314-.202-.795-.58-2.395-.842-3.569-.507-2.268-2.331-4.906-3.472-5.023-.256-.026-.726-.296-1.039-.594-.311-.304-.884-.586-1.271-.625-.39-.04-.747-.232-.802-.434-.128-.481-2.184-1.406-2.93-1.319-.322.04-1.041.092-1.583.104-2.528.075-3.794.209-5.018.553-1.423.405-1.816.458-4.281.469-.879.008-2.11.118-2.731.242-2.581.534-4.768.832-5.512.708-.835-.117-3.506.453-4.132.872-.2.142-.423.153-.498.064-.074-.095-.52.025-.988.253s-.998.381-1.166.316c-.692-.191-2.699.094-3.288.464-.347.22-.743.384-.882.37-.137-.014-.641.266-1.122.625-.48.352-.977.633-1.101.62-.68-.07-3.076 1.082-3.531 1.699-.284.387-1.241 1.127-2.126 1.643-1.442.84-2.404 1.573-5.212 4.029-.905.792-1.893 4.991-1.439 6.098zm6.014 1.088c-.224-.661.109-2.182.912-4.195.205-.519.532-1.418.718-2.001.418-1.296 1.214-2.013 2.452-2.215 1.053-.173 1.763-.845 1.856-1.745.181-1.761 2.611-3.067 5.218-2.799 1.648.161 2.078.031 3.615-1.074 1.218-.871 3.107-1.113 5.048-.623.896.224 1.755.436 1.908.452.153.021.881-.421 1.629-.963 1.706-1.248 3.43-1.574 5.421-1.049 1.26.333 1.354.317 1.597-.165.651-1.294 8.114-2.645 8.946-1.625.134.163.763.374 1.404.488.639.105 1.24.223 1.335.233.297.064 1.912 4.223 2.296 5.923.179.778.237 1.47.192 2.095-.075 1.033-.444 1.864-1.147 2.517-.872.816-1.995 2.467-2.053 3.032-.067.651-1.162 2.164-1.858 2.557-.362.205-1.07.621-1.569.927-.513.316-1.418.58-2.082.61-.647.028-1.407.139-1.685.251-.644.269-1.758.439-4.245.633-2.841.226-3.481.402-4.854 1.366-1.091.763-1.827 1.092-3.539 1.571-.278.079-.833.084-1.233.042-1.972-.248-3.527.188-5.677 1.573-1.982 1.3-2.354 1.417-2.943 1.154-.13-.056-.525-.2-.876-.318-.351-.112-1.095-.698-1.653-1.292-1.322-1.393-2.47-1.886-3.966-1.665-1.69.242-2.331.104-3.408-.747-.901-.711-1.134-1.095-1.759-2.948zm5.713 2.455c2.245.265 2.811.472 4.046 1.485 1.716 1.394 2.469 1.502 4.152.587 1.296-.71 4.62-1.654 5.496-1.564 1.486.153 3.823-.445 5.28-1.35 1.59-.992 3.927-1.672 6.105-1.769.674-.026 1.956-.339 2.839-.698.984-.402 2.161-.658 3.02-.677 1.974-.03 3.931-1.88 4.144-3.925.03-.295.365-.95.748-1.45.454-.591.744-1.552.865-2.587.2-1.723-.057-3.617-.798-4.19-.234-.185-.416-.524-.392-.757.057-.551-.376-.61-1-.15-.892.654-2.416.598-2.514-.09-.049-.32-.192-.596-.312-.609-.123-.013-.361-.18-.529-.383-.642-.792-4.223-.53-5.257.39-.92.828-1.013.83-3.548.51-2.027-.256-3.075.007-4.948 1.232-1.292.835-1.682.988-2.177.794-.697-.299-3.311-.56-4.189-.431-.334.047-1.332.676-2.227 1.397-1.522 1.227-2.191 1.557-2.138 1.051.012-.119-.338-.437-.775-.698-1.541-.938-4.313.065-4.473 1.616-.096.93-.915 1.653-2.532 2.251-1.485.545-1.895 1.054-1.736 2.139.051.354-.137 1.587-.422 2.738-.93 3.767-.32 4.709 3.272 5.138zm26.306-9.249c.331.234.32 1.079-.028 2.056-.225.629-.207.645.771.706.723.027 1.149-.23 1.146-.642 0-.188-.102-.398-.287-.629-.253-.307-.108-2.238.22-2.992.239-.546-.393-1.323-1.062-1.293-.638.025-1.291 2.427-.76 2.794zm-16.134.226c-1.272.091-1.693.827-1.002 1.767.439.6.782.548 1.248-.181.194-.303.564-.676.821-.824.171-.098.256-.196.275-.292.057-.289-.497-.529-1.342-.47zm-.853-1.053c.425-.038 1.04-.051 1.36-.018.334.034.67-.111.784-.347.11-.225.353-.475.539-.563.222-.109.349-.225.365-.325.03-.177-.209-.317-.672-.325-.392.007-.874-.177-1.063-.366-.702-.722-1.899.171-2.037 1.518-.045.435.057.492.724.426zm-8.367 5.803c.629-.729.604-1.341-.065-1.675-.748-.377-.703-1.045.068-.966.568.058 1.936-.639 1.974-1.007.029-.286-.997-1.599-1.276-1.627-1.508-.155-3.096 3.825-2.089 5.25.44.62.865.624 1.388.025zm2.713-5.076c.305.152.599.458.658.678.126.472.17.482.96.214.582-.196 1.746-1.634 1.698-2.047-.004-.048-.023-.05-.035-.071-.279-.344-1.788-.305-2.756.079-1.182.469-1.306.752-.525 1.147zm20.94-1.023l.756-.6-.627-.551c-1.674-1.454-3.425-.968-2.895.799.311 1.034 1.688 1.209 2.766.352zm-6.167.616c-.241.217-.4.589-.339.811.293 1.085 1.214.415 1.444-1.053.181-1.159.299-1.434.7-1.5.303-.045.472-.162.495-.349.031-.244-.178-.595-.618-1.051-1.515-1.565-3.198-.466-1.869 1.22.775.986.816 1.353.187 1.922zm-3.713-1.117c.346-.493.812-.949 1.035-1.008.217-.059.328-.146.345-.24.056-.3-.666-.684-1.484-.636-1.505.086-2.145 1.09-1.52 2.389.29.596 1.006.369 1.624-.505z"/></svg>