<svg xmlns="http://www.w3.org/2000/svg" viewBox="0 0 320 320"><path d="M273.686 144.204c-1.113-5.784-1.111-11.622-1.219-17.5-.519-28.358 2.689-56.678 2.105-85.026.652-5.817.903-11.665.125-17.321-1.319-9.589-10.37-10.68-18.359-10.629-13.155.084-26.279.428-39.445.179-27.065-.512-54.791-6.411-81.785-2.673-12.876 1.783-25.156 4.12-38.225 3.511-12.117-.565-24.844-2.436-36.766.613a1.684 1.684 0 0 0-.656.329c-1.356-.387-3.027.089-3.627 1.796-6.971 19.827-10.436 40.742-11.051 61.733-.684 23.374 2.569 46.667 4.07 69.949 1.486 23.047-1.617 45.784-1.154 68.788.141 6.979 1.845 13.029 8.991 15.435 7.678 2.585 16.081-.939 23.806-2.575 4.869 17.167 13.673 33.369 24.449 47.29 8.101 10.466 18.034 19.427 28.909 26.924 6.178 4.259 15.806 8.48 20.725.36 2.692-4.444 2.242-11.21 1.423-16.066-1.236-7.327-4.039-14.091-7.382-20.688-3.173-6.261-7.013-12.153-10.344-18.326-3.934-7.292-6.975-15.021-9.526-22.892-4.204-12.97-4.705-27.056-10.208-39.575a17.331 17.331 0 0 0-.931-1.799c-1.073-2.014-2.423-3.727-3.996-5.131-2.447-2.507-5.431-4.709-8.455-5.802 1.811-1.133 3.586-2.323 5.492-3.297 3.972-2.029 9.458-1.615 13.61-.435 1.163.331 2.194.86 3.138 1.514 1.092 1.477 1.964 3.197 2.688 4.579 5.343 10.203 8.182 20.608 18.275 27.387 7.399 4.97 17.584 3.878 20.77-5.277 3.386-9.73 3.147-22.268 1.192-32.991 3.795 7.081 8.152 14.72 11.369 22.518 1.096 5.469 2.231 10.873 2.926 16.395a2.507 2.507 0 0 0-.232.745c-.423 3.003-1.084 5.764-1.903 8.453-.06-.04-.12-.081-.185-.115-.823-.43-1.822-.579-2.718-.276-1.865.631-2.741 2.423-2.85 4.278-.098 1.681.724 3.345 2.139 4.249a101.09 101.09 0 0 0-1.228 2.32c-3.591 7.055-4.136 14.063-2.907 21.792 1.234 7.757 2.706 15.61 4.537 23.247 1.376 5.738 3.462 12.106 7.256 16.846.133.523.259 1.048.398 1.569.31 1.16 1.021 1.869 1.87 2.219.018.016.028.035.047.05 2.588 2.066 6.017.676 7.055-2.393 1.442-4.264.105-9.19-.993-13.381-3.536-13.505-10.091-25.569-11.502-39.641.406-.956.906-1.925 1.527-2.922 2.961-4.751 5.763-8.926 7.019-14.476.213-.94.382-1.883.522-2.828 2.033 1.313 4.704 1.121 6.854-.108 2.66-.949 3.559-3.063 3.825-5.471 1.925 1.643 4.22 2.691 6.362 1.28 2.715-1.789 3.406-4.281 3.291-6.995 2.498 1.605 5.369 2.424 6.768-.571 1.108-2.371 1.19-5.055.562-7.631 7.482-1.431 13.205-6.417 19.296-10.647 5.516-3.831 10.561-7.951 14.468-13.376a3.36 3.36 0 0 0 1.252-.684c2.606-2.217 4.978-4.186 8.553-4.191 2.67-.003 4.837-.047 7.264-1.26 3.077-1.538 3.924-5.389 4.246-8.452.444-4.229-.734-8.803-1.527-12.927zm-164.478 41.377a51.877 51.877 0 0 1 2.328 3.199c3.846 5.74 4.712 14.265 5.929 20.917 2.669 14.579 7.873 28.962 14.626 42.126 6.966 13.58 17.159 25.982 18.523 41.744.513 5.936-.263 12.579-7.448 10.299-5.756-1.826-11.172-6.891-15.651-10.679-21.203-17.933-35.621-43.01-42.35-69.775-3.209-12.763-4.52-29.949 3.669-39.93 1.395-.397 2.727-.73 3.873-1.026 6.598-1.704 12.027-.674 16.501 3.125zm47.42 15.116c-2.187-.469-4.472-1.805-6.017-2.817-4.397-2.88-7.24-7.879-9.544-12.523-1.491-3.45-2.881-7.006-4.612-10.148a43.83 43.83 0 0 0-1.516-2.854c-.743-10.594-6.109-20.265-7.726-30.609 5.447 13.111 20.926 23.448 34.55 19.55.246-.07.468-.172.706-.252.02.157.039.314.085.482 1.712 6.303 5.282 38.7-5.926 39.171zm19.164-122.716c-.894 3.12-1.921 7.047-4.748 8.959-4.551 3.076-5.123-6.938-5.347-8.911a2.228 2.228 0 0 0-.253-.819 5.985 5.985 0 0 0-.368-.835c-.856-1.593-3.672-1.785-4.47 0-1.185 2.652-3.122 9.255-6.999 8.711-3.1-.435-2.096-6.72-2.066-8.795.042-2.912-4.482-3.597-5.122-.693-.723 3.28-1.554 6.46-3.348 9.337-1.829 2.931-5.108 2.1-6.183-.828-.693-1.887-.641-4.092-.71-6.077-.096-2.78-4.372-3.575-4.995-.676a46.221 46.221 0 0 1-1.713 5.985c-.833 2.313-2.362 5.111-5.625 4.571-2.676-.443-3.542-3.94-3.715-6.056-.187-2.291-3.46-2.327-3.585 0-.306 5.656 3.156 10.765 9.173 10.613 3.234-.082 5.473-2.18 7.073-4.893 1.299 2.817 3.496 4.886 7.103 4.545 3.82-.361 6.328-2.45 8.065-5.259.883 1.399 2.22 2.534 4.267 3.238 4.553 1.565 7.717-1.591 9.965-5.313.848 4.65 3.557 8.323 9.481 7.521 2.928 10.236 2.923 20.323 3.582 30.921.007.119.031.225.051.333a114.358 114.358 0 0 1-1.034 5.687c-1.81 8.737-4.097 21.967-12.832 26.441-6.964 3.567-15.873-1.12-21.293-5.411-6.161-4.878-11.158-12.407-11.385-20.445-.036-1.267-1.032-1.79-1.949-1.634a1.756 1.756 0 0 0-.478-.128c-3.667-.386-5.229-3.279-5.233-6.713-.004-4.368 2.864-5.909 6.629-6.713 3.09-.66 2.098-4.946-.701-5.182-12.568-1.06-14.337 18.16-5.148 21.67-.797 6.211.053 12.122 1.575 17.926.273 1.558.555 3.112.835 4.66.592 3.275.895 6.862 1.543 10.333-2.927-1.027-5.836-1.163-8.774-.832-.153-.001-.309-.017-.462-.016-2.115.016-4.228.537-6.347.918-1.016-8.17-2.858-16.208-4.297-24.319-1.828-10.299-2.175-20.678-1.547-31.102.599-9.948 4.343-18.614 7.88-27.779 2.872-7.441 5.993-14.871 11.312-20.927 5.993-6.823 14.964-10.66 23.587-12.864 9.848-2.518 19.264.733 25.925 8.275 5.539 6.276 4.815 15.127 2.681 22.576zm35.66 119.887c-1.311-1.527-3.501.128-3.138 1.827.355 1.66.639 3.295.719 4.995-1.319 2.936-2.738 3.376-4.256 1.321a14.018 14.018 0 0 1-1.857-2.311c-1.04-1.504-3.612-1.056-3.586.971.016 1.298.041 2.59.004 3.887-.031 1.086-.274 1.716-.638 2.031a26 26 0 0 1-.82.243c-.877-.081-1.984-.943-2.845-1.892-.708-1.235-1.559-2.402-2.247-3.647-.42-5.366-1.728-10.732-3.642-15.983a79.81 79.81 0 0 0-1.165-3.992c2.945-2.075 14.764 2.095 17.259 2.872 3.039.947 6.099 2.155 8.564 4.217 2.068 1.73 2.633 4.483 2.785 7.009.253 4.208-4.66-.993-5.137-1.548zm38.675-32.49c-3.107 5.978-8.666 10.197-14.028 14.018-5.539 3.947-10.892 8.717-17.696 10.206a3.274 3.274 0 0 0-1.002.404c-1.098-1.465-2.42-2.727-3.889-3.634-4.91-3.03-10.732-4.782-16.345-5.946-3.209-.665-7.605-1.462-10.97-.264-1.558-4.218-3.29-8.426-4.899-12.756 12.183-5.008 34.379-13.007 31.773-28.77-1.629-9.855-16.307-15.304-26.663-15.119-1.778-.486-3.599-.775-5.379-.749 1.262-8.803 1.309-17.832-.646-26.421 12.974 2.473 26.301 1.833 38.91 6.376 12.748 4.592 22.368 14.468 29.091 25.953 6.341 10.832 7.613 25.407 1.743 36.702zM142.46 226.522c-1.495.685-3.006.716-4.516.073-1.197-.509-1.985-1.948-1.959-3.223.031-1.46.761-2.672 1.842-3.497.022-.027.04-.057.063-.083.839-.979 2.231-1.795 3.574-1.629 1.657.204 2.996 1.072 3.499 2.739.639 2.114-.482 4.695-2.503 5.62zm22.377-79.916c-1.919 2.159-5.25 4.058-8.234 4.013-3.362-.051-5.704-1.507-8.056-3.8-1.265-1.233.347-3.233 1.852-2.4 1.774.983 4.232 2.028 6.314 1.487 2.071-.539 3.524-1.854 5.297-2.964 2.34-1.464 4.529 1.75 2.827 3.664zm4.577-14.072c-.65 3.21-2.664 6.72-6.489 5.499-1.164-.372-1.715-1.475-2.804-.216-.465.537-.911 1.042-1.48 1.47-1.442 1.086-3.353 2.007-5.212 1.669-3.587-.652-5.004-3.834-3.838-7.131.724-2.046 3.538-1.213 3.202.883-.732 4.568 3.712.376 4.138-.081.395-.423.968-1.066 1.513-1.302 1.492-.647 2.685-.94 4.284-.568 1.203.28 1.644 1.117 1.986-.681.182-.958.37-1.859.292-2.849-.259-3.28-1.319-6.232-2.913-9.095-1.569-2.819 2.919-5.35 4.275-2.499 2.225 4.679 4.11 9.652 3.046 14.901zM148.3 116.297c-.534-.675-1.451-1.184-2.333-1.101a3.42 3.42 0 0 0-1.158.29c-.014.003-.028.005-.064.015-.401.113-.84.349-1.105.677-.538.668-.84 1.4-.6 2.271.235.853.85 1.317 1.63 1.63.204.082.422.111.643.116 1.059.433 2.228.032 2.987-.818.862-.963.77-2.107 0-3.08zm12.361-11.839c-.62-.63-1.487-.944-2.297-1.245-.804-.299-1.808.055-2.39.632-.441.437-.639.838-.864 1.401-.051.128-.087.257-.126.389.079-.266-.263 1.668-.033.372-.148.838-.03 1.632.597 2.26.509.509 1.416.852 2.144.63.253.095.52.16.802.171.751.028 1.452-.41 1.846-1.033l.066-.06c.083-.078.169-.153.255-.226.977-.821.832-2.446 0-3.291zM138.835 277.27c-4.503 2.703-8.707 4.905-12.132 9.041-1.264 1.526-3.936-.527-2.752-2.123 3.405-4.592 8.022-8.41 13.314-10.641 2.184-.922 3.483 2.574 1.57 3.723zm-14.836-1.859c-8.027-7.51-15.118-16.482-17.44-27.499-.564-2.674 3.227-3.726 4.086-1.126 3.375 10.206 7.798 18.832 15.241 26.739 1.181 1.254-.629 3.063-1.887 1.886zm1.504-17.232c-.209-.331-.416-.667-.624-1.001-.278.141-.547.298-.831.431-.995.467-2.167.288-2.759-.724-.544-.929-.239-2.231.724-2.759.281-.154.551-.327.827-.489-.522-1.008-1.006-2.034-1.38-3.104-.39-1.117.433-2.371 1.515-2.669 1.246-.343 2.219.423 2.669 1.515.289.701.638 1.37 1.009 2.028 1.926-.603 3.415 1.993 2.028 3.468.287.531.557 1.07.787 1.631.968 2.362-2.71 3.663-3.965 1.673zm8.412 5.008c-1.8.646-3.586 1.282-5.254 2.229-2.492 1.414-4.556-2.23-2.221-3.8 1.936-1.301 4.04-2.182 6.219-2.987 1.21-.446 2.587.488 2.907 1.651.361 1.314-.44 2.472-1.651 2.907zm2.794 5.098c-1.947 1.198-4.097 1.885-6.303 2.433-2.811.699-3.951-3.477-1.191-4.322 1.782-.545 3.532-1.191 5.171-2.087 2.608-1.426 4.851 2.42 2.323 3.976zm-26.501-3.685c-.716.716-1.878.879-2.753.355-1.873-1.122-3.209-2.839-3.262-5.09-.03-1.266 1.079-2.322 2.322-2.322 1.311 0 2.262 1.058 2.322 2.322l.001.054c.01.024.017.041.03.08.088.133.321.428.262.379.338.362.683.705 1.077 1.01.982.759.793 2.421.001 3.212zm-8.037-13.95c-.891.522-2.215.429-2.925-.377-1.249-1.419-1.537-3.142-1.162-4.962.268-1.3 1.779-2.035 2.995-1.7 1.399.385 1.888 1.682 1.7 2.995l.001-.009c.099-.687.042-.113.046.112.005.016.007.019.012.039.053.196.122.385.187.578.005.01.007.01.013.021.631 1.155.292 2.624-.867 3.303zm17.343-6.166c-.765 2.911-4.961 1.653-4.44-1.224.539-2.97 2.526-8.892-1.307-10.708-1.985-.941-4.065-1.046-6.209-1.218-2.793-.223-5.871-.29-8.551-1.198-5.335-1.808-7.757-5.583-8.137-11.123-.247-3.607 5.226-3.517 5.562 0 .847 8.882 11.885 6.303 18.144 8.42 7.474 2.527 6.53 10.992 4.938 17.051zm-17.497-21.932c-3.058-4.816-4.851-10.389-8.648-14.73-1.579-1.805.898-4.349 2.651-2.651 4.372 4.237 6.641 10.057 9.779 15.17 1.484 2.419-2.274 4.585-3.782 2.211zm5.016-7.847c-2.035 1.433-3.903-1.56-2.493-3.232 5.369-6.364-2.73-10.576-7.536-12.671-4.031-1.757-8.219-4.22-8.597-8.995-.185-2.343 3.28-3.871 4.799-1.988 2.405 2.981 4.326 4.681 7.884 6.295 2.85 1.293 5.716 2.581 7.587 5.21 3.62 5.088 3.722 11.604-1.644 15.381zm2.077-22.935c-.32 1.164-1.503 1.764-2.644 1.501-1.908-.439-3.697-1.318-5.396-2.276-2.455-1.384-.276-5.083 2.2-3.764 1.405.748 2.859 1.318 4.339 1.896 1.09.425 1.836 1.424 1.501 2.643zm-20.056 19.052c-1.325.364-2.386-.448-2.857-1.622-.934-2.328-1.924-5.092-.459-7.423 1.239-1.973 4.668-.718 3.872 1.633-.483 1.429.539 3.242 1.066 4.556.472 1.176-.506 2.549-1.622 2.856zm29.146 10.88l-.039.163c-.299 1.241-1.529 2.116-2.78 2.116s-2.481-.875-2.78-2.116l-.039-.163c-.443-1.839.872-3.7 2.819-3.7s3.263 1.861 2.819 3.7zm.793 53.461c.134 1.104-1.116 2.354-2.221 2.221l-.174-.021c-1.067-.129-1.983-.631-2.289-1.742a2.392 2.392 0 0 1 .61-2.309 2.396 2.396 0 0 1 2.876-.371c.789.462 1.071 1.189 1.175 2.049.009.057.016.115.023.173zm1.007 7.496c-3 0-3-4.91 0-4.91 5 .001 5 4.91 0 4.91zm36.539-93.092c-1.849.599-3.707 1.158-5.598 1.611-2.921.7-4.083-3.57-1.235-4.479 1.854-.591 3.656-1.331 5.528-1.866 3.062-.875 4.298 3.765 1.305 4.734zm1.369 6.006c-1.255.461-2.618.418-3.934.361-1.253-.054-2.302-1.006-2.302-2.302 0-1.297 1.049-2.247 2.302-2.302.463-.02.928-.041 1.389-.09.038-.014.563-.098.629-.109.221-.037.436-.081.653-.136 1.254-.315 2.571.39 2.919 1.658.366 1.327-.443 2.474-1.656 2.92zm49.504-15.674c-5.164-2.268-11.912-9.979-5.27-14.45 1.925-1.296 4.176 1.653 2.469 3.2-2.515 2.278 3.795 5.738 5.444 6.729 2.962 1.782.377 5.848-2.643 4.521zM218 174.766c-3 0-3-5.032 0-5.032 4 0 4 5.032 0 5.032zm2.034-9.122c0 1.451-1.118 2.27-2.434 2.434-.059.007-.114.018-.174.01-.678-.088-1.225-.212-1.729-.716a2.456 2.456 0 0 1-.716-1.729c0-.646.26-1.272.716-1.729.504-.504 1.051-.628 1.729-.716.059-.008.115.003.174.01 1.316.166 2.434.985 2.434 2.436zm13.559 10.882c-2.954 5.664-9.926 5.84-15.472 5.286-2.901-.29-2.92-4.256 0-4.523 2.165-.198 4.444-.041 6.561-.612 2.153-.581 3.265-1.792 4.799-3.323 2.161-2.157 5.468.573 4.112 3.172zm-.213-7.527c-1.362 2.112-4.458.737-3.966-1.672.461-2.257-4.555-5.248-5.974-6.426-1.895-1.572-3.782-3.179-4.949-5.386-2.832-5.356.385-10.702 4.783-13.791-1.085-1.406-2.124-2.903-3.437-4.22-1.157-1.161.005-3.607 1.705-2.928 3.808 1.52 5.53 5.957 9.65 6.696 3.434.616 2.012 6.136-1.457 5.284a9.151 9.151 0 0 1-2.191-.849c-2.085 2.062-5.347 4.548-3.433 7.411 1.542 2.307 3.912 3.912 5.879 5.825 2.718 2.642 5.862 6.224 3.39 10.056zm1.664-29.376c-4.911-11.686-15.475-18.293-28.223-18.08-2.374.04-2.225-3.31 0-3.585 13.585-1.683 30.158 5.877 33.664 20.165.894 3.642-4.073 4.755-5.441 1.5zm-17.511-9.573c-.65.65-1.733 1.002-2.63.695l-.065-.022c-1.127-.385-1.947-1.323-1.947-2.557 0-.542.163-.994.427-1.388l-.065.05.035-.053c.615-.945 1.898-1.686 3.053-1.242l.078.03c.843.324 1.634.902 1.81 1.858.179.971.031 1.902-.696 2.629zm-9.753-15.604c-2.447-3.123-2.929-7.279-2.201-11.097.46-2.411 4.571-1.874 4.302.582-.337 3.076.711 5.451 1.798 8.246.825 2.124-2.476 4.085-3.899 2.269zm4.953-2.07c-.718-1.763-.996-3.665-1.325-5.533-.232-1.317.335-2.64 1.715-3.02 1.21-.333 2.77.399 3.02 1.715.355 1.867.849 3.712 1.109 5.593.413 2.994-3.369 4.071-4.519 1.245zm10.267 1.75c-4 0-4-5.093 0-5.093 3 0 3 5.093 0 5.093zm10.801 9.064c-4.353-1.741-7.892-7.149-6.204-11.861.968-2.7 5.08-1.648 4.341 1.197-.687 2.645 1.789 4.852 3.777 6.121 2.269 1.448.807 5.632-1.914 4.543zm7.199 6.184c-3 0-3-4.645 0-4.645s3 4.645 0 4.645zm10.03 13.632c-.594 1.014-1.881 1.582-3.025 1.231-3.83-1.173-5.549-5.869-4.351-9.518.856-2.609 5.244-2.313 5.002.677-.141 1.748.189 3.02 1.413 3.945 1.163.878 1.765 2.293.961 3.665zm-3.53 10.6c-4.557.121-9.177.221-13.733.147-2.529-.041-2.907-3.531-.582-4.302 4.507-1.493 9.587-2.102 14.315-2.365 4.186-.232 4.208 6.408 0 6.52zm-1.7 7.291c-1.667.568-.728 3.744-.783 4.974-.101 2.278-1.335 3.796-3.077 5.165-2.684 2.109-6.529-1.529-3.832-3.832.415-.354 1.064-.782 1.335-1.272a.939.939 0 0 1 .134-.2 1.3 1.3 0 0 1-.008-.166c.001-1.191-.044-2.391.233-3.562.663-2.796 2.489-4.972 5.437-5.249 2.49-.233 2.694 3.416.561 4.142zm-31.533-.486c-1.464.41-2.935.787-4.384 1.253-1.226.395-2.576-.449-2.907-1.65-.253-.921.127-2.263 1.086-2.669 1.589-.673 3.187-1.375 4.873-1.766 1.329-.309 2.709.395 3.082 1.75.364 1.321-.435 2.714-1.75 3.082z"/></svg>