<svg xmlns="http://www.w3.org/2000/svg" viewBox="0 0 320 320"><path d="M155.906 134.462a3.875 3.875 0 0 1 1.002-1.133c.079-.096.146-.2.233-.287 1.395-1.395 3.457-1.485 5.033-.505-.003-.001-.005-.004-.008-.007l.019.011a.174.174 0 0 0 .022.015c.099.064.207.118.303.189.796.596.932.642 1.482 1.482.202.305.345.639.432 1.004.447 1.273-.006 2.559-.549 3.702-.571 1.197-2.176 2.07-3.481 1.996-1.013-.058-1.594-.207-2.488-.653-.187-.094-.368-.204-.554-.302-1.943-1.018-2.517-3.683-1.446-5.512zm-4.985 26.621c.155 1.204.299 2.161.932 3.234.692 1.172 1.737 1.947 3.014 2.375.823.275 1.628.16 2.451.008.853-.155 1.43-.691 2.083-1.197.845-.653 1.369-1.967 1.652-2.946.612-2.109-.719-4.381-2.814-4.957a3.9 3.9 0 0 0-1.501-.109 4.006 4.006 0 0 0-1.789-.439 4.05 4.05 0 0 0-2.848 1.181c-.674.674-1.305 1.855-1.18 2.85zm-4.548-10.134c1.631 1.081 3.912.762 5.279-.578.658-.647.86-1.167 1.189-2.01.08-.207.116-.43.138-.658.007-.019.009-.038.017-.06.392-.938.083-2.268-.407-3.103a4.05 4.05 0 0 0-2.41-1.854c-.16-.044-.325-.058-.488-.083a3.95 3.95 0 0 0-1.389-.262c-2.105 0-3.715 1.61-3.978 3.613-.075.397-.154.796-.152 1.205 0 1.631.884 2.917 2.201 3.79zm-9.979 11.801c.945.552 2.296.792 3.35.443 1.118-.371 1.842-.942 2.514-1.928l.023-.035a4.039 4.039 0 0 0 .783-2.364c0-.808-.251-1.595-.698-2.26-.196-.517-.49-1-.888-1.395-1.388-1.389-3.451-1.488-5.025-.511.012-.011.028-.02.039-.03-.02.016-.044.03-.063.044-.007.003-.011.008-.017.011-.437.302-.927.537-1.274.959-.683.817-1.312 1.845-1.227 2.973.062.797.177 1.659.684 2.319.56.728.982 1.295 1.799 1.774zm28.815-103.182c2.451.525 3.658 1.145 4.336-1.31.332-1.201 1.602-3.577-.653-4.511-.85-.351-3.491-1.164-3.491-1.164-2.959-.831-3.846 1.012-3.977 3.722-.131 2.714.86 2.635 3.785 3.263zm6.011 102.161c-.59.726-.952 1.644-.952 2.577 0 1.066.427 2.1 1.18 2.851.56.564 1.221.885 1.947 1.053-.019-.003-.034-.004-.049-.008.027.005.056.014.086.018.048.012.097.022.147.03.431.092.864.218 1.306.171 1.176-.12 1.065-.109 2.132-.579.628-.276 1.318-1.01 1.657-1.603.605-1.061.798-2.277.461-3.464-.2-.702-.449-.966-.752-1.508-1.077-1.912-3.643-2.542-5.515-1.444a3.917 3.917 0 0 0-1.648 1.906zm-5.385-13.545c0 .7.065 1.382.203 2.073.238 1.19 1.161 2.414 2.196 3.021 1.395.817 2.914.766 4.313.014.843-.45 1.453-1.175 1.453-1.987v.696h.478c.023 0 .054-.456.079-.509.335-.585.545-1.397.545-2.124 0-1.065-.428-2.183-1.181-2.937a4.005 4.005 0 0 0-.947-.713c-.743-.915-1.86-1.541-3.109-1.541-2.196 0-4.031 1.81-4.03 4.007zm-3.209-74.813c1.154.518 2.197.702 3.515.632 2.183-.114 2.939-1.386 3.124-3.452.18-1.969-.547-3.165-2.316-3.767l-1.805.242c-2.216-.056-4.302 1.425-4.332 3.722-.02 1.607.346 1.966 1.814 2.623zm-1.301 16.776c.965 1.06 2.419 1.174 3.756 1.514 2.224.566 3.979-.189 4.077-2.641.044-1.1.112-2.549-.407-3.539-.347-.669-1.145-1.134-1.81-1.482l-1.209-.403c-1.074 0-2.709-.34-3.628.215-.356.214-1.395 1.416-1.597 1.787-.222.408-.295.86-.201 1.423.174 1.003.339 2.377 1.019 3.126zm-77.31 108.218c-1.343-7.254-2.657-28.481 5.388-40.306 8.047-11.822 16.645-23.646 25.243-34.125 8.6-10.479 18.005-29.29 18.811-40.037.806-10.748 8.06-38.694 12.897-43.8 4.836-5.105 12.347-11.821 20.154-10.211 8.42 1.738 19.614 5.105 24.18 29.827 4.569 24.719 3.226 38.962 6.182 46.484 2.955 7.525 13.533 25.796 25.844 49.979 12.311 24.184 3.981 47.964-4.888 60.123-8.866 12.16-25.527 19.952-51.319 20.219-25.796.269-45.948 0-62.07-10.343-16.123-10.342-19.078-20.553-20.422-27.81zm134.742-.946c-8.273-5.163-29.54-12.002-66.551-14.197-31.048-1.84-52.538 8.225-61.04 13.139.058.177.101.354.158.532 7.071 21.796 19.352 29.446 58.798 30.591 39.444 1.149 48.371-4.205 55.07-9.558 4.8-3.837 10.55-12.798 13.565-20.507zm-128.696-9.345c6.997-4.035 23.755-10.423 60.609-11.474 42.361-1.213 62.4 9.559 69.242 14.436.279-1.14.447.004.492-.948.608-12.693-2.957-30.321-8.503-41.414-5.547-11.092-20.706-31.796-22.185-46.218-1.48-14.418-1.108-64.335-23.66-65.812-22.557-1.48-24.775 49.914-34.388 70.988-9.614 21.077-28.841 37.345-31.428 44-2.289 5.885-12.654 18.519-10.179 36.442zm72.953 89.56c-9.398-.335-11.824 4.299-11.554 7.254.269 2.955 2.417 7.254 11.554 7.254 9.136 0 10.209-4.297 10.209-7.254.001-2.955-2.688-6.983-10.209-7.254zm125.112-45.79c-2.875 13.196-28.464 31.134-36.37 33.027-4.303 1.03-7.922 11.166-18.58 18.409-8.93 6.068-25.166 9.335-28.071 10.961-14.904 8.352-29.109 18.371-50.026 15.137-20.583-3.178-41.76-22.982-64.616-24.756-12.102-.938-30.052-7.575-43.529-14.827-13.476-7.25-21.683-34.644-8.449-53.495 13.233-18.851 21.316-37.727 27.451-67.306 8.428-40.634 38.096-56.907 47.85-86.753 10.449-31.97 14.297-51.741 58.67-52.24 21.118-.237 37.484 19.654 42.234 45.772 5.206 28.629 18.893 53.4 34.576 83.163 6.222 11.805 4.057 32.482 11.285 46.653 10.998 21.555 29.193 38.832 27.575 46.255zM77.027 214.488c6.45 12.092 17.736 24.856 32.244 27.612 14.512 2.754 37.759 5.936 49.512 5.708 13.367-.26 46.416-.401 55.282-5.708 8.867-5.309 18.811-24.118 22.841-34.463 4.031-10.345 3.762-35.334 2.418-42.588-1.344-7.257-18.81-37.352-23.647-47.295-4.837-9.942-8.33-28.482-8.867-40.304-.536-11.824-9.403-41.869-18.003-47.805-8.599-5.936-37.348-18.565-51.588 3.199-14.24 21.767-14.239 61.266-28.482 75.238-14.241 13.972-32.515 35.738-33.991 55.354-1.479 19.614-4.166 38.962 2.281 51.052zm-30.093 19.197l24.183 11.034s-1.209-9.674-2.417-16.929c-1.21-7.256-2.016-20.154-2.016-20.154l-19.75 26.049zm27.197 31.186l-3.568-14.914L46 242.099v13.098l28.131 9.674zm94.526 3.224c-10.346-2.419-21.227.672-23.378 9.002-2.149 8.329-4.835 16.929 9.405 20.959 14.24 4.03 26.6-2.689 27.674-10.212 1.075-7.522-3.357-17.33-13.701-19.749zm72.548-59.651s-6.445 33.857-24.584 39.094c-18.139 5.241-93.509 8.061-111.646-.805-18.138-8.867-30.23-20.154-30.23-20.154s1.029 31.915 10.883 41.917c13.954 14.17 51.59 12.093 51.59 12.093s1.613-17.735 24.184-17.735c22.568 0 29.017 14.915 29.017 14.915s28.615 7.256 43.126-20.152c14.512-27.409 7.66-49.173 7.66-49.173zm28.213 25.795l-20.152 7.658-3.225 8.061 19.75-6.045 3.627-9.674zm2.419-7.254l-22.572-28.619s2.417 9.271 2.417 17.333c0 8.061-2.417 18.541-2.417 18.541l22.572-7.255z"/></svg>