<svg xmlns="http://www.w3.org/2000/svg" viewBox="0 0 320 320"><path d="M264.97 151.956c-3.908-7.524-11.044-12.308-19.732-10.663-8.355 1.582-16.477 7.285-20.354 14.925-.909 1.791 1.503 3.961 2.924 2.256.122-.147.252-.293.378-.439 11.895 3.819 26.167 8.842 36.249-1.481.736-.754.893-1.611.687-2.364.258-.661.263-1.435-.152-2.234zm-33.669 2.817c3.265-3.071 7.162-5.773 11.121-7.246-.872 1.401-1.425 2.978-1.418 4.538.022 4.986 5.904 5.66 9.451 3.999 2.409-1.128 1.313-5.466-1.392-5.138-.906.11-2.139.378-2.81.4-.001-.193.022-.335.152-.867.093-.381.217-.769.378-1.121.462-1.009 1.122-1.857 1.853-2.68a2.13 2.13 0 0 0 .225-.302c4.147.139 8.007 2.247 10.869 7.409-8.599 6.676-18.596 2.855-28.429 1.008zm1.014 11.065c.085 2.675.09 5.316.346 7.987.252 2.627-4.254 3.242-4.616.625-.421-3.044-.478-6.151.333-9.145.604-2.225 3.867-1.705 3.937.533zM236.97 172c0-2 .068-4.085.359-6.24.271-2 3.751-2.109 4.022-.109.292 2.155.359 4.349.359 6.349.001 4-4.74 4-4.74 0zm12.427-6.732c.753 2.338 1.167 5.067 1.097 7.516-.092 3.198-4.789 3.175-4.944 0-.112-2.304-.336-4.641-.369-6.945-.036-2.493 3.488-2.832 4.216-.571zm10.351 3.522c.051.987.079 1.964.071 2.952-.023 3.123-4.819 3.123-4.843 0a57.958 57.958 0 0 1 .092-3.361c.053-1.028.025-2.103.347-3.089.639-1.958 3.324-1.958 3.963 0 .363 1.106.311 2.344.37 3.498zm-26.106 14.759c-.052 2.284.014 4.635-.301 6.894-.324 2.321-4.347 2.323-4.67 0-.337-2.424-.214-5.138.475-7.503.714-2.452 4.556-2.018 4.496.609zm3.419-1.042c.179-2.936 4.378-2.936 4.558 0 .171 2.799.522 5.838-.052 8.601-.46 2.212-3.994 2.212-4.454 0-.574-2.763-.223-5.802-.052-8.601zm15.149 5.556c.199 2.806-4.118 3.278-4.816.652-.572-2.153-.944-4.668-.895-6.903.057-2.603 3.513-2.89 4.357-.59.778 2.125 1.194 4.592 1.354 6.841zm8.456-8.601a17.65 17.65 0 0 1 .593 6.17c-.261 3.184-4.682 3.183-4.944 0-.152-1.848-.023-3.704-.185-5.556-.233-2.663 3.841-3.049 4.536-.614zm-32.163 25.617c.004-2.509-.388-5.051-.013-7.543.328-2.175 3.97-2.136 4.336 0 .42 2.453.629 5.054.682 7.543.069 3.226-5.011 3.229-5.005 0zm8.333-7.292c.245-2.777 4.068-2.777 4.314 0 .202 2.292.466 4.595.119 6.878-.344 2.263-4.208 2.263-4.552 0-.347-2.284-.084-4.587.119-6.878zm13.917-2.394c.57 2.439 1.277 5.079.724 7.573-.539 2.432-4.241 2.357-4.827 0-.549-2.213-.525-4.647-.753-6.916-.283-2.8 4.23-3.335 4.856-.657zm10.996-.037c.102 1.968.214 3.94.02 5.903a2.637 2.637 0 0 1-5.27 0c-.193-1.964-.081-3.935.02-5.903.175-3.37 5.055-3.37 5.23 0zm-32.899 22.572c-.085-2.163-.035-4.369.305-6.509.347-2.185 4.048-2.185 4.395 0 .34 2.141.39 4.346.305 6.509-.126 3.226-4.878 3.226-5.005 0zm13.77-7.293c-.214 2.194-.097 4.4-.205 6.598-.15 3.068-4.613 3.069-4.761 0a28.25 28.25 0 0 1 .57-7.193c.515-2.45 4.642-1.926 4.396.595zm10.008 4.862c-.05 3.254-4.997 3.254-5.046 0-.028-1.857.059-3.702.153-5.556.154-3.055 4.587-3.055 4.741 0 .093 1.854.181 3.699.152 5.556zm8.038-6.517c.612 2.531.634 5.036-.151 7.533-.968 3.079-5.796 1.775-4.846-1.336.56-1.836.593-3.678.461-5.583-.182-2.622 3.93-3.121 4.536-.614zm-26.28 16.386c.438 2.799.036 5.699-.361 8.483-.186 1.304-1.822 1.999-2.966 1.684-1.386-.381-1.869-1.666-1.684-2.966.341-2.391.604-4.827 1.028-7.201.351-1.959 3.671-2 3.983 0zm7.948-1.535c.184 3.363.217 6.713-.083 10.071-.292 3.273-5.446 3.284-5.128 0 .325-3.351.426-6.711.612-10.071.164-2.962 4.436-2.963 4.599 0zm7.856-.25c.771 3.469.059 6.835-.488 10.281-.435 2.735-5.096 2.1-4.836-.654.262-2.778 1.406-5.627.988-8.431-.416-2.792 3.694-4.085 4.336-1.196zm10.069 1.987c.134 3.79-.926 7.209-2.437 10.639-1.302 2.956-5.585.397-4.322-2.526 1.107-2.564 2.195-5.309 2.425-8.113.227-2.758 4.235-2.824 4.334 0zm-28.484 15.379c.336 2.375.331 4.793-.171 7.142-.565 2.646-5.033 2.085-4.756-.644.219-2.159.306-4.352.61-6.498.305-2.146 4.013-2.147 4.317 0zm9.353 1.289c.06 1.959.226 3.947.081 5.903-.244 3.302-4.884 3.302-5.128 0-.144-1.956.021-3.944.081-5.903.1-3.2 4.867-3.2 4.966 0zm8.573-2.043c.463 3.296.024 6.429-.538 9.687-.501 2.908-5.436 2.242-5.156-.698.266-2.789 1.009-5.517.857-8.334-.147-2.743 4.449-3.417 4.837-.655zm7.981 3.222c1.085 2.626.11 5.927-.591 8.531-.858 3.191-5.899 1.808-4.944-1.363.36-1.195.738-2.4.997-3.623.25-1.181.295-2.36.496-3.546.153-.906 1.161-1.539 2.021-1.539 1.021.002 1.659.662 2.021 1.54zm-91.962-28.513c3.579-.457 7.509-.505 11.112-.334 3.427.162 3.444 5.214 0 5.331-3.796.129-7.879-.569-11.64-1.1-2.42-.342-1.468-3.642.528-3.897zM53.484 169.363c-2.455 6.232-7.785 5.348-11.253.382-4.787-6.854-5.33-15.214-4.862-23.354.154-2.688 3.428-3.523 4.924-1.334 2.291 3.352 5.472 7.258 5.217 11.577-.168 2.84-2.837 8.2 2.225 8.34.844.023 1.63.496 2.123 1.162 1.312.389 2.28 1.567 1.626 3.227zM153.699 61.406a409.186 409.186 0 0 0-1.709-4.731c2.004 1.431 4.079 2.787 5.942 4.389 2.027 1.743 3.97 3.503 5.827 5.36-2.605.702-4.976 2.113-7.629 2.697-.419-2.733-1.725-5.725-2.431-7.715zm132.732 72.916c-3.264-14.535-4.594-29.625-6.971-44.335-2.338-14.468-4.349-28.99-7.685-43.274a2.577 2.577 0 0 0-.554-1.116c.069-.192.115-.396.129-.607.326-5.152.24-11.922-3.502-15.964-3.307-3.573-8.926-4.427-11.968.162-3.042 4.588-6.762 16.266-6.587 24.742.006.308.008.675.009 1.067-3.133-4.808-6.583-9.354-10.19-13.252-.169-.182-2.634-2.29-3.569-2.626-.192-.197-.385-.391-.578-.587-2.963-4.797-8.197-9.419-13.683-9.753-2.095-.128-3.988.849-5.155 2.435-8.456-5.366-17.125-10.208-26.607-13.608-10.329-3.704-22.244-5.833-33.118-7.201-9.015-1.134-18.352.091-26.642 3.845-5.114 2.316-9.271 6.069-13.625 9.505-7.229-.355-11.988 4.689-15.883 10.288-6.918 3.889-13.685 8.875-17.03 15.639-3.675-.122-7.43.498-10.964 1.413-.021.003-.04.002-.061.006-3.455.674-6.345 2.451-8.992 4.71a1.448 1.448 0 0 0-.484.733c-.979.777-1.965 1.546-2.859 2.438-.224.224-.438.458-.652.693a43.183 43.183 0 0 0-5.009 5.705c-.116.158-.182.32-.21.48-6.067 8.379-9.984 18.268-11.918 28.412-1.292 6.774-1.533 13.946-1.598 20.823-.062 6.599 1.803 13.024 2.384 19.575-5.914-2.114-11.777-.964-13.914 6.095-2.238 7.394.412 16.6 2.742 23.655.576 1.743 2.538 7.766 3.998 11.697 1.46 3.931 9.236 16.185 19.337 13.84 1.259 3.568 4.349 11.647 3.104 14.43-5.49 6.415-13.622 10.132-16 18.965-1.709 6.348-.121 13.937.462 20.35a1738.33 1738.33 0 0 1 2.049 24.227c.887 11.545 3.126 25.074 14.374 30.945 4.222 2.204 9.115 2.953 13.687 4.091 5.693 1.417 10.741 4.612 16.531 5.642 9.514 1.693 14.868-5.43 17.07-13.433 12.195 10.14 29.372 13.476 44.756 14.462 8.815.565 18.236.671 26.862-1.428 9.676-2.355 17.82-8.762 27.143-12.053.064-.023.115-.057.175-.082 3.143 2.272 6.613 4.079 10.197 5.633 6.441 2.791 13.187 5.594 19.932 7.53 10.504 3.016 19.933-3.339 25.325-11.931 6.134-9.774 9.518-22.454 12.979-33.336 4.862-15.283 7.87-30.886 11.024-46.576 2.701-13.436 5.733-26.786 6.924-40.468 1.282-14.72-1.985-28.351-5.185-42.603zM261.198 31.96c1.913-3.277 4.97 1.657 5.662 3.49.931 2.465 1.115 5.266.996 7.934-1.796.298-3.427.926-4.954 1.83-1.014-4.151-1.983-8.253-2.332-12.548.24-.177.455-.409.628-.706zm-44.351 4.937c.413-2.338 2.821-2.841 4.783-2.95a1.772 1.772 0 0 0 1.004-.389c.217.129.466.209.732.212.264.003.525.041.788.051 2.041 1.309 3.628 3.682 4.983 5.492.931 1.244 1.954 2.4 3.002 3.533-2.305 1.835-5.225 3.537-8.174 4.192-1.219-.791-2.587-1.375-3.793-2.207a16.025 16.025 0 0 1-2.455-2.084c-.632-1.886-1.224-3.846-.87-5.85zm-22.067 8.707c1.467-1.219 3.258-2.014 5.242-2.313.974.194 1.934.465 2.855.725 1.179.333 2.337.745 3.487 1.182.195.265.398.524.589.792.289.406.676.708 1.105.876-.122.97-.287 2.045-.745 3.034-.949 2.049-2.674 4.1-4.475 5.1h-.001c-.078 0-.158-.018-.236-.006-2.312-2.201-4.908-4.187-7.643-5.953a2.083 2.083 0 0 0-.162-.696c-.355-.827-.278-1.783-.016-2.741zm-13.877 8.604c2.884-3.457 10.275.323 13.347 1.776.495.234.979.488 1.458.751-1.796 1.899-2.71 4.273-3.653 6.709-4.099-2.214-8.263-4.328-12.561-6.121a6.439 6.439 0 0 1 1.409-3.115zm-23.499 68.158c.416 5.404 6.152 16.065 10.047 23.871 2.342 4.696 4.869 9.257 7.781 13.625 2.901 4.351 6.586 8.049 9.034 12.711 1.973 3.758 1.061 9.088-1.824 12.109-1.558 1.632-4.184 2.586-6.467 2.234-3.682-.567-7.046-2.654-10.698-3.45-3.255-.709-6.056.232-9.103 1.27-.941.335-1.909.555-2.904.66-2.623-1.774-3.149-3.671-1.578-5.692 1.074-2.049 2.892-3.737 4.689-5.148 1.416-1.111-.387-3.177-1.849-2.397-3.843 2.049-7.14 4.999-8.094 9.389-.768 3.538 1.984 7.889 5.749 8.092 2.236.121 4.196-.476 6.288-1.221 3.4-1.211 5.92-1.111 9.348.055l.008.003c-.394.474-.633 1.065-.601 1.668.12 2.204 1.231 4.241 1.775 6.395.094.921.227 1.836.405 2.74.061.309.173.571.307.81-.605.085-1.206.234-1.835.327-4.855.719-9.152 5.484-13.831 6.153-2.671.382-5.343.015-7.669 2.784-1.29 1.536-1.028 6.278 2.535 6.278 3.562 0 3.832-3.019 3.895-3.987 1.341-.518 2.822-.72 4.247-1.051 10.368-.478 20.365-6.337 30.008.049 2.653 1.757 4.906-2.372 2.448-4.188-4.611-3.407-9.327-5.901-14.57-6.461.259-.423.411-.927.386-1.516-.064-1.566-.414-3.099-.862-4.599a89.566 89.566 0 0 1-.609-3.269c1.092.309 1.93.374 3.297.583 1.367.209 9.901 3.134 14.021 2.914.057.936.087 1.875.125 2.813-.078-.012-.154-.031-.233-.037-.815-.064-1.614-.03-2.431 0-1.247.046-2.289 1.006-2.289 2.289 0 1.283 1.043 2.243 2.289 2.289.817.03 1.616.064 2.431 0 .123-.01.241-.033.359-.057.055 3.504.043 6.996.055 10.427.032 9.529-.474 18.91-1.103 28.304-17.798 1.792-36.497 2.313-52.772-6.214a2.813 2.813 0 0 0-1.49-.33c-.123-6.788 1.124-12.97 3.54-19.83 2.985-8.478 3.87-17.043 3.948-25.979.086-9.799-.231-19.596-.629-29.385a1619.64 1619.64 0 0 0-.626-13.583c-.078-1.594-.13-3.367-1.262-4.383 1.094-.822 1.89-1.997 2.27-3.628 1.561-6.698-5.879-12.511-11.627-13.385-7.674-1.167-16.217 2.827-18.775 10.401-.404 1.195-.02 2.146.696 2.755.143.542.535 1.001 1.232 1.14.239.048.504.109.781.176-4.537 6.484-6.648 14.47-8.179 22.243-6.794-5.554-9.338-15.334-9.349-23.855-.013-10.217 4.649-19.079 14.71-22.089 1.505-.45 3.227-.905 5.085-1.381.316.362 10.912-2.608 10.229-2.69 3.35-.952 9.922-2.84 15.321-5.471 5.399-2.631 11.271-8.988 12.817-13.485 1.042-3.029 1.325-7.66 1.404-8.389 0 0 8.317-1.096 11.389-1.802 3.303-.759 12.963-3.962 12.963-3.962 2.128 3.201 4.254 6.41 5.895 9.825a41.688 41.688 0 0 1 2.118 5.369c-20.338 1.216-33.873 14.456-32.666 30.163zm31.631 4.783c-.008.084-.021.166-.015.252l-.013.205c-5.802 2.13-16.061 3.536-18.051 3.936-1.99.4-3.507.849-4.55 1.177-.685-1.449-1.346-2.906-1.933-4.391.149-.217.256-.475.305-.782.078-.299.185-.573.288-.85.983-2.046 4.225-4.262 8.033-5.933 2.657-.492 5.5-.341 7.868.281 3.611.948 6.187 3.235 8.068 6.105zm-52.547 9.086c-5.691 1.254-11.781-1.027-17.631-1.814 2.253-4.558 8.684-6.292 13.355-5.362 2.465.491 8.622 6.218 4.276 7.176zm8.432-48.633c-2.922.976-3.859-1.923-5.222-4.291 1.645-.862 3.456-1.392 5.263-1.817 1.274-.3 6.174-1.359 6.889.469 1.184 3.03-5.031 5.004-6.93 5.639zm-11.518-53.128c.344-3.512 3.494-6.956 6.838-6.955.414-.574 1.098-.977 2.083-.982 4.37-.023 7.752 3.28 8.205 7.557a7.825 7.825 0 0 1-1.144 4.976c-.488 1.502-1.536 2.788-3.131 3.417a185.83 185.83 0 0 1 3.296 7.833c.197.035.397.101.596.216 3.947 2.278 7.795 4.04 11.437 6.879 3.522 2.746 6.855 5.496 9.885 8.786.804.873.922 1.881.644 2.769-.74.39-1.484.775-2.253 1.107-1.948.839-3.899 1.634-5.773 2.615-3.678.25-7.665 1.5-10.965 2.885-.484-1.7-1.317-3.374-2.149-4.917-1.093-2.519-1.77-5.536-2.573-7.792a104.175 104.175 0 0 0-1.947-5.017 37.506 37.506 0 0 0-.716 2.097c-.579 1.921-.991 3.913-1.811 5.741a2.316 2.316 0 0 1-.723.906 29.65 29.65 0 0 0-1.121-.853 17.402 17.402 0 0 0-3.51-1.962c.517-4.029 3.027-8.222 5.559-11.31-1.478-3.343-2.976-6.677-4.289-10.073a5.395 5.395 0 0 1-2.696-1.559c-2.319-1.386-4.015-3.575-3.742-6.364zm.75 33.225c1.652.826 3.159 1.946 4.497 3.278.315.623.569 1.254.773 1.916-.391.201-.782.402-1.18.591-2.63 1.249-5.592 1.641-8.345 2.548a1.865 1.865 0 0 0-.838.549 8.696 8.696 0 0 1-1.369-1.243c-1.529-1.722-2.869-3.455-4.609-4.843 3.6-1.363 7.493-2.784 11.071-2.796zm-34.919-7.93c.064-.099.131-.196.199-.291l.081-.097a6.953 6.953 0 0 1 .796-.791c.022-.019.5-.398.177-.157.132-.098.249-.209.36-.325 1.546-.256 3.092-.481 4.638-.687.181.059.377.093.595.08 1.904-.117 3.146 1.398 4.455 2.564.218.356.422.718.61 1.082.867 1.677.569 2.879.094 4.207-2.565.647-5.097 1.432-7.455 2.504-1.115-2.791-2.612-5.764-4.6-7.995.016-.031.031-.064.05-.094zm-30.978-2.254c2.78-1.581 5.32-2.401 7.936-2.684 1.32 1.079 2.4 2.47 3.053 4.172.763 1.988-1.761 4.105-3.838 5.933a2.254 2.254 0 0 0-.787-.297c-2.234-.379-4.08-1.668-6.032-2.747a43.134 43.134 0 0 1-3.692-2.291 51.124 51.124 0 0 1 3.36-2.086zM55.219 183.828c-6.454 3.152-13.922-7.019-15.16-10.34s-2.748-7.892-3.384-9.929c-1.642-5.258-3.023-10.563-3.256-16.093-.107-2.545.105-5.183 1.399-7.424 1.754-3.035 6.579-2.113 9.307-1.575.074.015.146.018.218.022 1.527.794 3.799.088 3.798-2.169-.001-5.877-1.55-11.546-2.195-17.362-.77-6.949.049-14.701 1.046-21.598 1.836-12.708 7.811-24.232 15.106-34.616 1.048 1.041 2.245 1.943 3.461 2.789 1.595 1.11 3.261 2.247 5.056 3.042a106.178 106.178 0 0 0-3.701 4.239c-11.128 13.446-9.648 29.789-11.185 46.143-.325 3.453 5.039 3.412 5.372 0 1.329-13.614-.304-28.426 8.115-40.135 3.369-4.686 7.617-8.804 12.036-12.485 2.522-2.101 6.001-4.64 9.629-6.118.189.074.39.126.611.135 2.358.091 3.938 2.752 5.032 4.537 1.161 1.893 1.871 3.784 2.496 5.792-.455.353-.9.722-1.325 1.118a20.29 20.29 0 0 0-2.709 1.919c-7.984 6.73-14.243 17.223-18.529 26.647-1.301 2.86 2.36 5.014 4.199 2.454 5.863-8.161 9.53-17.429 17.135-24.348 5.742-5.225 13.772-5.006 21.049-6.727.136.207.325.397.582.556 2.913 1.805 3.935 5.398 6.328 7.749.027.027.059.051.086.077-1.748.568-3.494 1.191-5.105 1.939-13.31 2.945-26.795 10.477-32.727 21.618-1.399 2.629 2.258 5.822 4.296 3.316 10.489-12.893 26.869-21.142 43.555-22.085.243-.014.455-.066.654-.135 1.192 1.934 1.438 4.414 3.081 6.174 1.748 1.873 4.319 1.552 6.52.966a25.425 25.425 0 0 0 3.894-1.366c-3.19 7.85-15.212 11.431-22.32 13.692-8.672 2.758-19.01 3.684-26.226 9.63-15.546 12.81-10.025 44.069 6.585 53.347 1.533.856 3.713.126 4.133-1.681 2.09-8.995 3.483-18.127 7.457-26.538 4.881 1.436 11.522 3.376 16.579 3.001-.234 1-.125 3.231.376 4.724.096 1.933.187 3.866.278 5.799.185 3.929.346 7.858.493 11.788.291 7.819.442 15.643.466 23.468.022 7.202-.49 14.139-2.449 21.1-1.84 6.54-4.534 12.498-5.053 19.365-.964 12.772 4.756 25.423 1.457 38.125-1.528 5.884-6.584 9.09-12.419 9.301-4.488.162-8.212-1.766-11.553-4.383.123-.991.285-1.982.508-2.972 1.512-6.689 5.539-12.465 9.035-18.245 4.59-7.588 7.063-15.817 8.932-24.417 1.298-5.975 3.447-14.831-.34-20.333-2.567-3.729-6.62-3.075-10.062-1.03.62-2.189.997-4.456 1.302-6.707.042-.31.015-.597-.058-.858 2.838-4.025.161-10.021-5.094-11.901-2.022-.723-3.915-.463-5.659.416a7.851 7.851 0 0 0-.022-1.183c-.389-3.988-4.235-6.077-7.754-5.091-.231-1.227-.914-2.362-2.25-3.246-.706-.467-1.381-.462-1.933-.189-.261-.353-.684-.591-1.27-.575-4.197.115-13.426 5.34-13.901 10.289-6.276 3.871-12.153 6.891-16.213 12.39-1.114-4.312-2.097-8.636-3.85-12.779-.647-1.523-2.689-1.654-3.96-1.034zm61.214 25.765c-.001-.014-.007-.027-.009-.041 2.298-2.165 5.497-3.313 6.28.572.395 1.96.306 4.109.027 6.244-.891-.207-1.792-.078-2.686-.303-.865-.217-1.607-.766-2.246-1.364-.638-.597-1.102-1.364-1.391-2.185-.353-1.002.134-1.923.025-2.923zm-3.149-16.717c-.285 1.878-3.425 2.642-4.915 2.821-1.509.181-2.829-.102-3.953-.728a28.624 28.624 0 0 1 1.667-2.224c.824-.985 1.762-1.775 2.839-2.471 1.658-1.071 4.677.526 4.362 2.602zm-20.352-4.314a16.67 16.67 0 0 0 1.995-1.443c.914-.775 1.784-1.809 2.461-2.953.191.03.393.044.616.016 1.376-.166 3.692-1.185 3.276 1.069-.265 1.434-1.732 2.34-2.946 3.134-1.378.901-2.887 1.623-4.472 2.072-1.35.382-1.051.142-.878-1.352a1.29 1.29 0 0 0-.052-.543zm-1.851-4.767c-1.396.966-4.76 2.838-6.493 1.566.069-.166.155-.328.271-.524.603-1.023 1.613-1.875 2.492-2.651 1.621-1.429 3.753-3.024 5.824-3.844.033.143.075.285.136.422.368.827.901 1.281.477 2.209-.546 1.196-1.653 2.093-2.707 2.822zm13.274 78.768c-2.417 6.436-2.683 12.923-2.579 19.731.106 6.905.249 15.766-6.301 20.002-5.043 3.262-12.645-2.012-17.388-3.697-4.796-1.704-9.885-2.387-14.682-4.103-7.191-2.572-9.906-9.621-11.523-16.5-1.727-7.345-1.595-15.085-2.333-22.564-.843-8.547-1.69-17.116-2.084-25.697-.333-7.243 4.057-11.547 8.85-15.76-2.386 8.296-3.82 17.242-1.908 25.164.728 3.015 5.34 2.318 5.336-.722-.016-10.482 1.382-20.105 4.639-30.11 1.609-4.943 3.838-8.919 7.527-12.614 2.625-2.629 5.937-4.489 8.735-6.955.361.353.79.696 1.307 1.027 2.199 1.408 4.92 1.293 7.462.455-.031.168-.043.333-.06.499-14.931 7.262-21.015 30.083-20.243 45.267.188 3.689 5.437 3.651 5.697 0 1.117-15.67 4.65-30.482 16.187-41.573.356.216.756.403 1.244.527 1.943.494 4.064-.032 6.008-.89.041.101.074.213.117.312-1.436 2.593-2.539 5.135-3.255 6.843-2.824 6.729-5.126 13.587-6.841 20.682-1.839 7.609-2.846 15.228-6.821 22.12-1.736 3.01 2.837 5.663 4.638 2.711 4.048-6.631 5.439-14.214 7.085-21.7 1.91-8.687 4.967-16.987 8.519-25.123.145-.333.308-.647.462-.97 2.904 1.897 6.711 2.168 10.423.894-.805 2.311-1.784 4.534-2.761 6.823-.476 1.115-.139 2.173.527 2.864-5.219 7.604-6.546 16.531-9.669 25.025-.607 1.651 2.112 2.8 2.845 1.199 2.989-6.523 4.964-14.101 8.639-20.44.254.704.575 1.36.938 1.912 1.527 2.319 5.414 5.278 8.615 4.832l-.069.342c-1.742 8.792-4.278 17.282-8.88 25.019-2.948 4.957-6.361 9.73-8.403 15.168zm75.028 38.948c-7.928 2.942-17.047 2.684-25.392 2.476-16.104-.401-33.679-3.19-46.805-13.149a34.23 34.23 0 0 0 .214-1.976c.298-3.81.076-7.611.079-11.4 6.122 4.497 15.349 4.73 21.921 1.047 13.117-7.351 8.701-26.956 7.16-38.869 15.537 7.837 36.746 10.292 53.526 4.819-.34 4.856-.695 9.722-1.013 14.621-.756 11.649 3.042 23.89 11.013 32.479.04.043.083.081.123.123-7.079 2.988-13.605 7.149-20.826 9.829zM284.196 193.36c-2.564 15.794-5.385 31.646-8.975 47.241-3.303 14.349-7.847 28.288-12.614 42.203-3.958 11.555-11.595 24.964-25.95 21.744-6.815-1.529-13.848-4.925-20.244-7.704-6.967-3.027-12.912-7.675-16.968-14.138-8.137-12.964-4.852-28.148-3.709-42.396 1.523-19 2.931-39.208-.243-58.103-2.933-17.459-16.623-30.238-20.356-47.417-.017-.081-.047-.151-.073-.224 3.837-.505 7.663-1.099 11.38-2.078a3 3 0 0 0 1.086 1.466c1.489 1.105 2.399 4.375 3.145 5.995.964 2.095 1.872 4.215 3.07 6.189 1.556 2.564 5.337 1.408 5.474-1.482.727-15.388.771-31.359-1.701-46.603-2.064-12.727-9.687-23.442-16.446-34.072a11.188 11.188 0 0 1-1.235-2.662 759.666 759.666 0 0 1 12.216 7.09c1.322.785 2.694-.027 3.21-1.306 1.153-2.857 1.815-5.856 4.08-8.005 4.344 3.267 7.962 7.609 11.09 11.924 4.541 6.263 8.576 13.148 10.809 20.58 2.185 7.274.42 14.972 2.472 22.279.646 2.298 3.794 1.275 3.473-.957-.636-4.426.162-9.008.318-13.445.152-4.307-.823-8.595-2.165-12.655-2.524-7.634-7.27-14.761-12.052-21.155-2.207-2.951-4.653-5.685-7.35-8.134 3.024-1.912 6.219-5.159 7.264-8.734 2.324 2.328 4.399 4.892 6.797 7.198 4.021 3.865 8.19 7.697 11.864 11.898 7.104 8.124 9.837 20.981 11.396 31.372.296 1.975 3.257 1.371 3.337-.452.498-11.248-2.66-23.786-9.322-32.974-3.431-4.732-8.063-8.487-12.171-12.598-.195-.195-.385-.406-.577-.611 4.189-1.058 7.229-3.755 10.185-7.082 1.048 1.067 2.1 2.132 3.13 3.221 5.903 8.113 11.286 16.549 15.888 25.504 5.601 10.899 6.736 23.822 10.051 35.496.717 2.527 4.444 1.463 3.904-1.076-2.551-12.001-3.692-24.067-8.573-35.452a117.988 117.988 0 0 0-4.691-9.645c-.397-3.145.04-6.987.016-9.668-.049-5.343.676-10.075 2.602-14.644.338 3.48 1.149 6.925 2.457 10.095.602 1.46 2.324 2.172 3.589.947a12.593 12.593 0 0 1 3.524-2.405c.011.07.01.135.027.206 7.331 31.395 9.088 63.846 16.404 95.205 1.867 8.003 3.508 15.993 3.642 24.239.139 8.618-1.108 17.303-2.485 25.785zm-128.192 6.677c.667 1.139.269 2.648-.869 3.313-1.552.908-3.252 1.613-5.042 1.833-1.186.146-2.187-1.105-2.187-2.187 0-1.068.691-1.726 1.606-2.109 1.078-.452 2.142-.965 3.179-1.718 1.071-.777 2.696-.186 3.313.868zm-8.681-2.258c-.776-.776-.721-1.98 0-2.762 1.187-1.289 2.594-2.268 4.286-2.762 1.118-.326 2.323.383 2.628 1.492.301 1.095-.36 2.355-1.492 2.628-1.099.265-1.811.652-2.659 1.405-.796.705-1.977.785-2.763-.001zm16.096-3.085c.94-.203 1.899.12 2.401.977.444.758.401 1.986-.332 2.577-.878.707-1.777 1.132-2.876 1.383-.858.196-1.723.348-2.587.514-2.618.501-3.709-3.233-1.109-4.022 1.492-.453 2.987-1.102 4.503-1.429zm-5.812-1.722c-.578-.987-.261-2.395.774-2.951.855-.459 1.671-.945 2.62-1.181.907-.225 1.865.136 2.344.954.435.742.389 1.935-.325 2.515-.449.365-.876.701-1.403.945l-1.059.491c-1.066.495-2.315.311-2.951-.773zm26.703 3.773c0 1.202-1.032 2.314-2.269 2.269a5.852 5.852 0 0 1-.575-.054c.161.022-.995-.11-.888-.107-.051-.004-.101-.003-.152-.005-.065.017-.158.04-.218.065-1.133.473-2.472-.501-2.766-1.57-.243-.885.124-2.142 1.033-2.539.703-.307 1.409-.521 2.188-.46.46.036.916.123 1.378.133 1.237.024 2.269 1.012 2.269 2.268zM144.226 36.054c-.254.523-.718.903-1.254 1.127-.84.549-1.767.524-2.733.099-.542-.238-.857-.725-1.171-1.196-1.037-1.557.314-4.003 2.214-3.858l.658.05c.484 0 .961.116 1.374.395 1.111.657 1.566 2.038.912 3.383zM80.592 265.961c-1.842-4.571-9.145-7.854-13.608-5.212a2.13 2.13 0 0 0-.707.685c-3.505 2.195-4.658 5.849-2.8 9.689 1.746 3.607 6.127 6.326 10.153 5.919 4.953-.502 8.864-6.362 6.962-11.081zm-7.674 7.331c-4.318.241-8.856-5.186-6.022-8.611.339.224.753.355 1.243.332 3.072-.147 6.609-1.101 8.616 2.092 1.554 2.473-1.229 6.042-3.837 6.187z"/></svg>