<svg xmlns="http://www.w3.org/2000/svg" viewBox="0 0 320 320"><path fill-rule="evenodd" d="M203.705 151.674c-2.859-4.988-1.16-11.801 2.459-15.882 3.615-4.079 12.905-7.419 23.235-9.258 10.907-1.939 19.382-1.847 25.825.159 6.444 2.008 4.779 4.778-1.213 5.25-4.434.347-13.355 1.158-22.574 3.849-8.743 2.552-12.932 5.332-14.444 8.791-2.378 5.439 4.155 10.627 6.451 11.637 7.07 3.106 4.383 6.308-.52 5.701-5.945-.738-16.364-5.259-19.219-10.247zm-33.439 11.945c-.149 24.735-.427 55.273.021 64.189 2.65 52.737 50.673 58.331 61.349 15.56-4.74 0-10.621 3.147-16.447 5.19-5.513 1.931-9.696-12.919-2.178-17.079 8.759-4.849 21.153-16.615 32.668-21.332 11.514-4.72 13.772-.91 16.242 4.098 3.238 6.57 16.505 29.435 19.42 37.515 4.281 11.845-6.554 19.092-12.2 16.481-5.649-2.612-10.644-12.399-12.043-18.928 0 28.205-35.068 57.788-58.17 57.823-23.108.036-40.375-20.25-42.54-22.824-4.748-5.638-6.702-4.813-11.77 1.076-4.3 4.999-18.886 22.652-40.937 21.89-29.14-1.005-54.529-23.698-57.561-57.867-1.798 4.674-4.865 11.066-7.556 14.339-2.688 3.275-18.185 3.622-16.473-6.493 1.71-10.116 14.965-35.977 19.375-44.774 4.275-8.526 6.309-10.165 13.513-5.597 8.223 5.215 34.158 21.726 38.086 27.752 3.927 6.029 1.061 15.322-4.835 13.858-5.898-1.459-9.242-3.945-15.299-5.245 7.06 46.883 60.509 35.245 60.236-17.224-.074-14.169-.041-42.73-.099-64.121-15.41-.028-31.013.531-40.656 1.421-12.39 1.136-36.654 13.317-54.396 13.317-13.97 0-28.014-15.109-28.014-30.443 0-12.951 16.404-25.241 28.274-25.241 17 0 39.787 6.289 54.135 7.837 8.773.948 24.531 1.211 40.381.931-.249-18.862-.59-44.969-.597-48.794-.008-4.704-15.648-13.716-17.207-33.967-1.557-20.253 16.664-34.579 35.939-34.265s30.101 17.308 31.074 32.32c.975 15.008-11.812 30.303-12.208 34.958-.313 3.681.214 26.296.448 47.74 7.019-1.252 14.331-5.099 23.96-11.905 9.765-6.903 20.951-15.336 54.628-15.921 24.457-.421 61.019 18.207 61.172 42.249.153 24.121-30.075 41.359-59.54 43.82-23.475 1.964-43.009-3.633-62.297-15.781-6.529-4.108-12.255-5.75-17.898-6.563zM139.2 45.605c.109 6.179 4.485 10.812 10.834 10.804 6.349-.011 10.812-4.486 10.566-11.542-.246-7.053-7.971-11.197-12.342-10.995-4.373.205-9.167 5.556-9.058 11.733zm17.702 33.883c-.101-8.06-3.487 6.929-6.809 6.929s-6.702-12.802-6.702-7.224c0 2.191-.05 23.743-.09 50.269 5.138-.17 10.113-.395 14.688-.672-.471-25.441-1.048-46.193-1.087-49.302zm3.678 154.775c0-11.375-1.983-25.638-1.983-49.292 0-7.203-.119-22.368-.119-22.368l-15.216-.587s-.01 15.715-.01 23.184c0 25.173-.384 38.159-.384 50.286 0 9.763 6.328-11.774 8.705-11.774 2.376.001 9.007 20.977 9.007 10.551zm13.01-82.668c12.578.724 24.195 11.279 31.683 14.705 7.491 3.426 18.017 8.097 39.783 7.745 26.418-.429 51.901-17.765 51.365-31.025-.544-13.495-28.462-29.473-54.111-29.058-14.902.24-28.286 3.937-37.282 9.87-7.751 5.114-21.783 14.973-31.907 15.123-9.956.153-66.496.814-80.663-.232-10.523-.776-42.632-5.259-50.762-6.04-8.13-.787-18.333 7.143-19.546 14.301-1.232 7.154 9.534 16.295 18.023 17.12 8.503.82 40.864-11.405 51.465-11.727 14.314-.427 69.381-1.509 81.952-.782z"/></svg>