<svg xmlns="http://www.w3.org/2000/svg" viewBox="0 0 320 320"><path d="M160 51v12a6 6 0 0 1-6 6h-12a6 6 0 0 1-6-6V51a6 6 0 0 0-6-6h-12a6 6 0 0 0-6 6v12a6 6 0 0 1-6 6H94a6 6 0 0 1-6-6V51a6 6 0 0 0-6-6H70a6 6 0 0 0-6 6v12a6 6 0 0 1-6 6H46a6 6 0 0 0-6 6v12a6 6 0 0 0 6 6h12a6 6 0 0 1 6 6v12a6 6 0 0 1-6 6H46a6 6 0 0 0-6 6v12a6 6 0 0 0 6 6h12a6 6 0 0 1 6 6v12a6 6 0 0 1-6 6H46a6 6 0 0 0-6 6v108a6 6 0 0 0 6 6h228a6 6 0 0 0 6-6V51a6 6 0 0 0-6-6H166a6 6 0 0 0-6 6zM94 93h12a6 6 0 0 1 6 6v12a6 6 0 0 1-6 6H94a6 6 0 0 1-6-6V99a6 6 0 0 1 6-6zm-6 66v-12a6 6 0 0 1 6-6h12a6 6 0 0 1 6 6v12a6 6 0 0 1-6 6H94a6 6 0 0 1-6-6zm66 6h-12a6 6 0 0 1-6-6v-12a6 6 0 0 1 6-6h12a6 6 0 0 1 6 6v12a6 6 0 0 1-6 6zm0-48h-12a6 6 0 0 1-6-6V99a6 6 0 0 1 6-6h12a6 6 0 0 1 6 6v12a6 6 0 0 1-6 6zm96-24h-12a6 6 0 0 0-6 6v156a6 6 0 0 1-6 6h-12a6 6 0 0 1-6-6V99a6 6 0 0 0-6-6h-12a6 6 0 0 1-6-6V75a6 6 0 0 1 6-6h60a6 6 0 0 1 6 6v12a6 6 0 0 1-6 6z"/></svg>