<svg xmlns="http://www.w3.org/2000/svg" viewBox="0 0 320 320"><path d="M149.366 197.375c1.136 4.229 2.098 8.846 1.816 13.081-7.029 3.135-14.174 10.532-13.75 18.454.405 7.575 8.7 8.985 14.159 5.894 5.136 5.087 16.585 4.831 21.767-1.482 6.621.585 11.547-4.027 11.162-10.92-.484-8.669-9.03-12.385-16.27-14.263-3.344-.867-4.765 4.311-1.423 5.161 4.249 1.081 8.904 2.361 11.432 6.246 2.409 3.701.792 7.47-2.576 8.944.239-1.082.349-2.252.302-3.518-.129-3.465-5.517-3.479-5.391 0 .174 4.833-3.304 7.871-7.962 8.327-5.587.548-8.203-2.777-9.91-7.542-.551-1.538-2.936-1.792-3.372 0-.521 2.142-.433 4.016.095 5.626-4.603 2.337-8.418-1.093-6.13-6.488 2.179-5.14 7.346-8.435 11.2-12.195.672-.656.587-1.672.088-2.336 2.463-11.744-2.986-27.325-10.248-36.12a1.23 1.23 0 0 0-.035-.039c.066-.147.118-.307.139-.49.311-2.632 1.249-5.829.045-8.361-1.48-3.112-4.381-4.592-7.262-6.246-7.122-4.09-14.558-9.019-22.963-9.939-6.631-.726-10.77 5.351-14.572 9.833-4.703 5.544-8.089 9.861-8.352 17.319-.86 2.072-.592 4.434-.071 6.625.104.438.321.753.597.963.513 3.271 2.511 6.353 6.631 8.825 5.21 3.126 11.732 3.569 17.643 3.606 10.721.066 21.406 1.181 32.129 1.246.414 0 .772-.077 1.082-.211zm-47.185-16.391c1.289-1.271 2.582-2.521 3.943-3.653.131 3.046 1.856 5.768 4.491 7.427-3.182-.671-6.213-1.822-8.434-3.774zm7.383-6.09c1.985-1.15 4.174-1.959 6.72-2.192a19.765 19.765 0 0 1 4.393.098c.05.153.122.307.241.462 1.436 1.862 2.313 3.804 1.585 6.151-.724 2.336-3.525 3.336-5.702 3.407-4.348.141-8.018-3.777-7.237-7.926zm11.479 10.728c-.218.003-.446.003-.671.003a9.888 9.888 0 0 0 4.386-3.912c1.517-2.526 1.296-5.413.139-7.933 3.872 1.285 7.472 3.496 10.857 5.915-4.724 2.484-8.872 5.852-14.711 5.927zm72.355-21.12c-10.417-1.488-18.31 6.276-23.215 14.479a2.52 2.52 0 0 0-.314.832c-.488.752-.269 2.018.783 2.314.172.048.339.103.509.153.317.169.664.273 1.02.306 8.602 2.709 15.868 7.234 25.285 4.517 4.498-1.298 15.851-5.601 14.224-12.162-1.526-6.152-12.889-9.666-18.292-10.439zm-4.574 5.079a2.156 2.156 0 0 0-.543.369c-.734.704-.744 1.515-.698 2.438.004.075-.017.274-.029.4l-.073.236c-.026.046-.049.093-.076.138-.771-1.685-3.206-1.433-3.341.55-.171 2.499 1.9 4.294 4.327 3.865 2.364-.418 3.752-2.783 3.9-5.012.045-.682-.105-1.485-.453-2.079a2.33 2.33 0 0 0-1.741-1.122 18.573 18.573 0 0 1 2.666-.17c.322.004.789.058 1.35.153-.084.403-.028.861.245 1.351 3.87 6.922-12.747 11.338-12.785 2.286 2.109-1.643 4.504-2.831 7.251-3.403zm18.004 8.19c-3.08 3.639-9.898 5.452-14.471 5.98-5.809.671-11.35-2.278-17.029-3.751 1.016-1.527 2.105-2.963 3.29-4.26 2.108 10.253 22.963 6.997 19.678-5.37 5.06 1.539 11.075 4.398 8.532 7.401zm-86.487-2.694c.715 4.931-5.865 7.655-8.905 3.733-.635-.82-.803-1.891 0-2.693.577-.577 1.603-.771 2.308-.298.238.16.473.304.735.422-.083-.037.44.069.132.059.143.005.201.017.217.031.029-.01.054-.02.101-.035a20.2 20.2 0 0 0 .075-.024c.171-.106.271-.229.374-.418.013-.072.194-.541.186-.516.087-.302.222-.579.403-.832.997-1.552 4.054-1.636 4.374.571zm66.146 82.533c-4.393-2.95-9.817-3.828-14.712-5.643-3.897-1.445-6.231-.431-9.586 1.607-4.378 2.66-6.928-2.516-10.979-1.449-4.138 1.091-7.262 4.163-10.768 6.601-1.864.551-3.67 1.227-5.3 2.293a2.435 2.435 0 0 0-.773.795c-.787.679-.664 2.165.233 2.564.45.557 1.146.911 1.943.825.144.207.358.384.653.498 4.56 1.755 6.895 6.653 11.413 8.611 4.045 1.752 9.642.067 13.753-.624 5.109-.859 11.279.894 16.069-1.301 4.79-2.195 6.195-6.301 8.57-10.66.319-.585.314-1.153.119-1.635.455-.78.342-1.826-.635-2.482zm-13.227 12.777c-4.271.301-8.488-.02-12.784.42-4.842.495-9.72 1.392-13.735-1.922-2.278-1.881-4.229-3.834-6.826-4.956 3.349-1.103 6.973-1.432 10.275-2.781 2.539-1.037 4.291-2.172 6.949-.745 1.185.636 2.939.987 4.255.556 1.04-.341 1.92-.69 2.768-1.408 2.607-2.21 5.014-1.501 8.07-.623 3.467.997 7.041 2.105 10.666 2.243-2.113 4.658-3.273 8.767-9.638 9.216zm47.157-104.478c-.494 1.156-2.155 1.126-2.945.38-7.069-6.674-15.473-8.981-24.673-5.649-7.235 2.62-14.121 5.948-21.98 4.537-1.462-.262-1.569-1.715-.88-2.649.03-.633.323-1.261.999-1.704 7.001-4.596 14.135-9.235 21.94-12.368 5.124-2.057 8.622-2.504 13.742-.263 5.948 2.603 17.211 9.728 13.797 17.716zm36.988-19.928c-5.146-6.951-13.246-3.465-20.326-2.927.02-.335.035-.671.056-1.006 1.171-18.477 6.227-36.853 5.784-55.399-.194-8.141-2.287-16.211-4.104-24.109-1.845-8.018-4.41-15.993-8.598-23.113-.444-.754-1.086-1.109-1.754-1.185-6.428-8.79-15.528-15.786-25.446-20.388-23.794-11.04-51.171-8.812-76.003-3.238-12.166 2.731-23.253 6.707-32.915 14.791-9.506 7.953-16.97 19.085-22.686 29.968-5.788 11.019-9.217 23.383-8.55 35.878.396 7.406 1.792 14.808 2.362 22.218.571 7.409.85 14.844 1.148 22.269-14.507 9.226-2.246 33.392-2.459 46.565-.117 7.234.231 14.85 3.239 21.535 3.019 6.712 9.569 7.846 15.487 4.918.598 5.121 1.391 10.227 2.671 15.303 1.593 6.316 3.326 12.731 5.93 18.717 3.01 6.919 7.549 12.547 12.382 18.275 8.823 10.458 18.036 21.071 28.063 30.402 8.618 8.02 18.389 13.597 30.281 14.457 9.652.698 18.613-2.92 26.041-8.861 7.732-6.183 13.36-14.965 18.752-23.129 6.541-9.906 13.09-19.264 17.438-30.398 3.038-7.779 6.314-15.672 8.673-23.681.88-2.988 1.523-6.038 2.009-9.116 7.485-6.784 10.405-14.359 13.127-23.969 1.516-5.351 6.111-8.56 8.546-13.378 1.592-3.149 2.447-6.66 3.139-10.096 1.356-6.733 2.042-15.455-2.287-21.303zM69.957 201.932c-1.562-5.701-1.498-11.853-1.362-17.717.153-6.634-2.285-13.511-3.429-19.992-1.185-6.716-2.734-16.951 4.249-21.066.176-.104.322-.221.453-.345 4.628 4.147 4.466 9.928 5.353 15.832 1.181 7.864 2.588 15.682 3.995 23.508 1.606 8.939 2.115 17.918 3.018 26.861-6.689 2.086-10.384-.173-12.277-7.081zm162.491-25.718c-.167 14.912.439 30.34-3.133 44.921-1.601 6.535-4.456 12.728-6.755 19.034-2.589 7.102-5.243 14.144-9.208 20.613-5.613 9.158-11.837 18.458-18.457 26.918-6.353 8.119-14.289 14.933-24.624 17.002-13.324 2.667-25.474-4.244-35.001-12.827-10.159-9.152-19.191-20.023-28.117-30.348-5.727-6.624-10.3-13.095-13.25-21.389-2.593-7.289-4.525-14.889-6.085-22.46-1.576-7.646-1.616-15.476-2.214-23.232-.521-6.753-1.994-13.436-3.29-20.091-.425-8.464-2.494-17.492-.768-25.804.768-3.7 4.544-4.156 6.514-6.83 1.731-2.35 1.799-5.069 1.286-7.87-.629-3.436-1.67-6.775-2.352-10.201-1.049-5.269 1.005-8.321 5.556-10.628 3.381-1.714 7.135-2.764 10.716-3.976 4.494-1.521 8.157-2.988 13.013-1.881 3.771.86 7.324 2.775 10.912 4.171 4.54 1.766 9.557 2.595 14.296 3.683 9.122 2.093 17.628.808 26.615-1.306 8.607-2.024 16.2-6.025 23.834-10.347a135.87 135.87 0 0 0 2.692-1.561c3.329-1.741 6.525-3.733 9.707-5.757 1.604.717 3.189 1.486 4.797 2.217 2.732 1.242 5.618 2.005 8.424 3.042a41.874 41.874 0 0 1-1.661 6.94c-1.964 5.879-4.421 11.632-4.662 17.91-.208 5.417 3.789 9.42 7.341 12.981 4.757 4.769 10.632 8.955 14.112 14.831-.16 7.392-.154 14.793-.238 22.245zm21.627-5.405c-1.83 6.694-7.31 10.857-9.936 17.131-1.861 4.445-2.182 9.256-4.277 13.666-1.139 2.399-2.599 4.615-4.185 6.741.251-2.63.428-5.266.557-7.891.855-17.395-.078-34.846.594-52.232 6.371-.616 15.035-4.65 18.029 3.136 2.285 5.944.835 13.535-.782 19.449zm-184.294.342c-.887-6.097-2.266-12.824-1.091-18.947.431-2.246 3.57-1.5 3.741.506.497 5.846 3.016 11.87 2.434 17.752-.264 2.671-4.633 3.791-5.084.689zm9.091 26.702c1.445 1.327 1.202 3.575.338 5.14-.871 1.577-3.095 1.567-4.14.326a2.442 2.442 0 0 1-.979-1.062 2.59 2.59 0 0 1-.847-.852c-.348-.594-.338-1.159-.237-1.814.181-1.179 1.581-2.234 2.718-2.479 1.154-.249 2.255-.078 3.147.741zm170.459-43.771c1.367 6.824-.904 13.823-4.16 19.766-1.468 2.68-6.176.816-5.016-2.115 1.132-2.861 2.262-5.765 3.021-8.752.746-2.939.933-5.953 1.597-8.899.503-2.231 4.098-2.295 4.558 0zM137.943 256.276a80.925 80.925 0 0 0-4.575 2.624c-1.84 1.141-3.366-1.636-1.666-2.85 1.423-1.017 2.849-2.108 4.427-2.877 2.064-1.005 3.875 2.004 1.814 3.103zm-8.04-5.684c1.664-2.011 4.004-3.017 6.385-3.926 2.233-.852 3.345 2.934.997 3.617-1.889.549-3.711 1.133-5.117 2.575-1.468 1.504-3.559-.704-2.265-2.266zm11.217.554c1.166-2.106 3.289-3.457 5.236-4.766.836-.563 2.041-.164 2.526.662.549.937.147 1.931-.662 2.526-1.409 1.035-3.263 1.737-4.266 3.235-1.169 1.745-3.868.211-2.834-1.657zm.245-5.506c-1.561.956-3.467-1.401-1.988-2.577 1.77-1.408 3.654-2.524 5.7-3.485 2.503-1.175 4.028 2.461 1.468 3.481a34.167 34.167 0 0 0-5.18 2.581zm10.492.49c1.424-.66 2.845-1.166 4.432-1.188 1.108-.015 2.032.935 2.032 2.032 0 1.119-.924 2.017-2.032 2.032-1.168.016-1.865.129-3.01.499-1.972.635-3.331-2.49-1.422-3.375zm-3.099-3.166c-.198-.72.1-1.767.848-2.085 1.721-.73 3.332-1.101 5.199-.78 1.045.18 1.617 1.447 1.358 2.391-.301 1.096-1.348 1.537-2.391 1.357-.937-.161-1.865.101-2.743.406-.951.33-2.017-.368-2.271-1.289zm21.792 3.414c1.033.156 1.589 1.44 1.337 2.355-.294 1.069-1.33 1.528-2.355 1.337-1.411-.263-2.811-.584-4.219-.863-.961-.19-1.5-1.319-1.255-2.211.285-1.035 1.241-1.39 2.211-1.255 1.428.199 2.854.422 4.281.637zm.241-2.594c-1.637-.143-3.34-.501-4.968-.13-2.511.571-3.556-3.154-1.065-3.861 2.16-.613 4.402-.482 6.581-.056 2.271.442 1.767 4.249-.548 4.047zm10.036 3.5c1.075.219 1.681 1.473 1.405 2.475-.316 1.148-1.392 1.571-2.475 1.405-1.647-.253-3.166-.866-4.687-1.529-1.999-.872-.562-4.239 1.483-3.517 1.395.493 2.825.871 4.274 1.166zm-.884-1.68c-1.268-.604-2.764-.766-4.151-.82-2.65-.103-2.664-4.066 0-4.122 2.21-.046 4.335.247 6.35 1.18 1.077.499 1.338 2.03.781 2.98-.637 1.088-1.908 1.293-2.98.782zm9.777 9.202c-1.621-.48-3.252-.516-4.927-.349-2.219.221-2.726-3.533-.527-3.895 2.217-.365 4.4-.433 6.602.081 2.704.631 1.531 4.956-1.148 4.163zm2.324-5.492c-1.939-.222-3.789-.74-5.751-.848-2.559-.14-2.577-3.89 0-3.985 2.273-.084 4.706.004 6.806.938 1.86.827.975 4.127-1.055 3.895z"/></svg>