<svg version="1.2" xmlns="http://www.w3.org/2000/svg" viewBox="0 0 320 320"><path d="M169.191 50.247c-1.218-3.129-2.221-6.311-4.369-8.961-1.682-2.075 1.172-5.059 2.984-2.984a24.864 24.864 0 0 1 5.514 10.807c.621 2.741-3.143 3.671-4.129 1.138zm12.269-4.406c-1.951-3.678-4.417-8.017-8.362-9.858-1.486-.693-3.326 1.229-1.88 2.436 3.168 2.644 5.018 5.748 6.777 9.447 1.102 2.315 4.686.277 3.465-2.025zm-14.354-12.655c-.944-4.044-3.947-8.11-6.662-11.172-1.645-1.855-4.786.576-3.427 2.644 1.106 1.683 2.24 3.326 3.235 5.081.964 1.699 1.651 3.547 2.676 5.208 1.38 2.234 4.767.765 4.178-1.761zm6.547-4.192c-1.699-4.214-4.384-7.798-8.549-9.815-2.065-1-3.858 1.953-1.816 3.108 3.07 1.736 5.11 4.541 6.277 7.835.916 2.586 5.098 1.378 4.088-1.128zm6.383 217.698a585.615 585.615 0 0 0-6.096-5.906c-1.679-1.605-4.15.866-2.545 2.545a575.535 575.535 0 0 0 5.906 6.096c1.751 1.78 4.514-.983 2.735-2.735zm13.744 5.672c-1.948-1.198-3.91-2.377-5.589-3.943-1.869-1.745-4.602.969-2.808 2.808 1.995 2.045 4.245 3.638 6.883 4.727 2.124.876 3.339-2.47 1.514-3.592zm-47.563 33.86c-.872 1.45-1.456 3.026-2.189 4.547-.497 1.031-.292 2.26.753 2.872.94.551 2.358.268 2.872-.753.839-1.668 1.567-3.377 2.25-5.112.86-2.187-2.546-3.451-3.686-1.554zm6.243 3.01c-1.322-.364-2.397.447-2.862 1.625-.567 1.437-1.267 2.814-2.147 4.085-1.43 2.066 1.939 4.684 3.492 2.694 1.351-1.731 2.302-3.519 3.142-5.543.487-1.172-.517-2.556-1.625-2.861zm-12.108 5.112c-1.611.678-3.168 1.271-4.908 1.51-2.9.399-2.471 4.785.459 4.527 2.375-.209 4.594-.792 6.642-2.023 2.263-1.36.186-5.015-2.193-4.014zm6.561 7.053c-.676-1.272-2.149-1.594-3.4-1.038-1.424.634-2.914 1.046-4.417 1.448-2.899.777-1.939 5.076 1.016 4.542 1.986-.359 3.888-.787 5.763-1.552 1.27-.519 1.631-2.284 1.038-3.4zm-15.899 3.689a44.395 44.395 0 0 1-4.942.353c-2.934.048-2.934 4.505 0 4.55 1.869.029 3.721.014 5.547-.434.979-.241 1.67-1.203 1.67-2.194.001-1.121-1.041-2.434-2.275-2.275zm-1.67-7.517c-1.818.073-3.645.129-5.431.697-1.519.484-1.18 4.279.366 4.144 1.69-.148 3.374-.151 5.065-.084 2.001.079 2.001-4.837 0-4.757zm-11.015 5.145c-.34-.159-.661-.344-.987-.53-.192-.109-.34-.22-.686-.489-.649-.504-.848-.725-1.329-1.439-.667-.99-2.122-1.17-3.063-.486-1.009.734-1.129 2.055-.486 3.063 1.078 1.688 2.813 3.217 4.722 3.868 1.131.386 2.371.087 2.907-1.079.503-1.092.003-2.404-1.078-2.908zm2.729-7.138c-.897-1.443-2.004-2.742-2.833-4.231-.625-1.121-2.135-1.485-3.226-.846-1.178.69-1.397 2.065-.846 3.226.82 1.726 1.913 3.299 3.185 4.72 1.807 2.018 5.131-.599 3.72-2.869zm-9.79-2.423c-.896-2.185-1.555-4.453-2.335-6.68-.953-2.722-4.878-1.648-4.309 1.18a35.665 35.665 0 0 0 2.323 7.336c1.066 2.437 5.332.627 4.321-1.836zm5.116-7.61c-.14-.344-.208-.709-.282-1.073l-.003-.018-.016-.158c-.018-.194-.028-.39-.039-.585-.074-1.266-1.002-2.327-2.327-2.327-1.323 0-2.254 1.061-2.327 2.327-.074 1.297.007 2.499.608 3.682.483.951 1.719 1.375 2.709 1.103 1.152-.316 2.17-1.737 1.677-2.951zm-10.497-12.981c-1.238-.34-2.653.407-2.964 1.683-.445 1.825-.484 3.714-.511 5.582-.048 3.201 5.01 3.201 4.964 0-.02-1.425-.104-2.9.195-4.301.272-1.283-.364-2.601-1.684-2.964zm-5.936 15.798c-2.714-.027-5.409.085-8.119-.146-2.462-.21-3.04 3.965-.586 4.327 2.88.424 5.792.666 8.704.638 3.109-.029 3.109-4.787.001-4.819zm-9.159-2.093a26.32 26.32 0 0 0 8.73-.795c2.308-.606 1.377-4.514-.965-4.072-2.553.482-5.048.267-7.621.339-2.564.072-2.716 4.333-.144 4.528zm-4.643 1.717a147.672 147.672 0 0 0-7.837-2.918c-2.429-.822-3.99 2.938-1.737 4.121 2.634 1.382 5.427 2.674 8.233 3.664 1.298.458 2.759-.507 3.104-1.762.396-1.443-.488-2.591-1.763-3.105zm-9.774-6.27c2.563 1.48 5.132 2.676 8.03 3.323 2.45.547 3.378-3.594.991-4.294-2.238-.657-4.213-1.763-6.155-3.032-2.685-1.755-5.579 2.436-2.866 4.003zm-3.958-.398c-1.243-2.215-3.084-3.982-4.432-6.125-1.068-1.699-4.928.629-4.02 2.468 1.206 2.442 2.937 4.46 4.511 6.642 1.417 1.965 5.092-.934 3.941-2.985zm3.484-9.561l-.101-.12c-.059-.086-.117-.172-.179-.256a5.841 5.841 0 0 1-.412-.694l-.034-.072c-.034-.091-.068-.182-.099-.275-.119-.342-.212-.694-.306-1.044-.344-1.284-1.727-2.056-3.002-1.705-1.314.361-2.014 1.709-1.705 3.002.416 1.738 1.063 3.362 2.4 4.6.971.899 2.474.963 3.437 0 .989-.987.865-2.434.001-3.436zm-7.685-3.025c.559-1.238.368-2.671-.894-3.41-1.125-.659-2.788-.312-3.41.894-.664 1.286-1.061 2.624-1.026 4.082.033 1.347 1.1 2.472 2.472 2.472 1.416 0 2.381-1.128 2.472-2.472.004-.056.004-.081.006-.114l.012-.059c.038-.202.096-.401.146-.601.048-.192.099-.381.156-.571.046-.151.375-.904.066-.221zm-1.549-10.981c-1.283-2.139-2.628-4.229-4.442-5.961-.872-.833-2.135-1.086-3.121-.245-.914.779-1.033 2.21-.245 3.121 1.502 1.737 2.734 3.664 3.995 5.577 1.434 2.175 5.147-.267 3.813-2.492zm.991-4.194c1.346 1.849 2.914 3.889 4.817 5.196 2.388 1.639 4.876-1.314 2.889-3.409-1.363-1.437-2.569-2.956-3.834-4.481-1.91-2.302-5.688.199-3.872 2.694zm-8.112-7.899c-.991-1.854-1.981-3.631-1.956-5.787.01-.855-.85-1.592-1.63-1.719-1.106-.18-2 .579-2.243 1.616-.65 2.782.586 5.624 1.95 7.989 1.257 2.179 5.068.124 3.879-2.099zm7.741-1.197c-1.03-1.363-2.015-2.749-1.865-4.521.207-2.444-3.864-3-4.286-.58-.543 3.113.716 5.457 2.643 7.807 1.601 1.955 5.035-.685 3.508-2.706zm6.197-3.374c-.834-2.39-4.725-1.075-4.199 1.34.516 2.37 1.761 4.566 3.338 6.391 1.671 1.932 5.108-.175 3.829-2.497-.972-1.764-2.297-3.31-2.968-5.234zm-20.582-16.004c-1.057 2.486-1.53 5.101-1.218 7.798.397 3.434 5.134 2.794 4.672-.632-.254-1.885.088-3.673.497-5.5.508-2.274-2.952-4.016-3.951-1.666zm8.708-1.479c-1.879 2.627-1.884 5.799-1.41 8.862.415 2.687 5.057 2.061 4.753-.643-.228-2.029-.364-4.045.621-5.901 1.411-2.657-2.263-4.696-3.964-2.318zm8.554 10.936c.085 1.269 1.312 2.223 2.551 2.102 1.38-.135 2.071-1.278 2.102-2.551.044-1.79.286-3.602.857-5.304.948-2.821-2.789-4.656-4.243-1.96-1.275 2.365-1.444 5.077-1.267 7.713zm-12.93-22.137c-1.618 1.621-3.129 3.732-3.458 6.049-.19 1.344.307 2.671 1.741 3.066 1.338.368 2.669-.443 3.066-1.741.449-1.467 1.1-2.685 2.19-3.835 2.219-2.339-1.253-5.83-3.539-3.539zm13.176-1.996c-1.192-.698-2.404-.17-3.169.831-1.36 1.779-2.108 3.867-2.123 6.111-.02 3.053 4.586 3.024 4.716 0 .059-1.375.64-2.648 1.407-3.773.713-1.044.201-2.564-.831-3.169zm2.22 9.59c-.179 1.186.479 2.351 1.705 2.608 1.132.238 2.419-.519 2.608-1.705.075-.47.153-.938.25-1.404.048-.229.109-.454.171-.678.021-.076.29-.864.161-.532.424-1.093.198-2.318-.928-2.897-1.089-.561-2.3-.081-2.897.928-.664 1.122-.877 2.408-1.07 3.68zm4.459-7.886c1.483.037 2.388-1.093 2.575-2.449-.067.482.069-.22.081-.266.053-.198.129-.392.201-.586-.085.265.109-.195.205-.36.049-.052.097-.104.148-.153 1.018-1.015 1.102-2.668.094-3.728-.98-1.031-2.7-1.099-3.728-.094-1.393 1.363-2.122 3.105-2.024 5.06.068 1.367 1.003 2.539 2.448 2.576zm189.873 18.983c-4.24 10.58-12.02 18.147-23.236 18.722-.068.748-.464 1.451-1.25 1.927-4 2.424-7.599 5.553-10.642 9.111-1.758 2.055-2.964 5.081-5.121 6.756-1.575 1.222-3.62 1.301-5.722.821a2.075 2.075 0 0 1-.669.178c-6.734.627-13.426.545-20.081-.81-12.036-2.451-30.281-9.133-41.25-19.914-4.478 6.509-6.104 16.503-8.73 25.62.46.162.881.442 1.191.872 5.163 7.15 19.147 8.617 27.106 9.401 5.168.509 10.401.849 15.59.456 3.677-.278 6.64-1.565 10.105-2.342 2.568-.575 5.686 2.377 3.784 4.922-2.746 3.674-8.674 4.121-12.911 4.427-6.622.478-13.293.09-19.851-.917-8.296-1.274-21.479-3.533-26.795-11.36-3.193 8.55-8.168 15.337-18.768 16.014-9.695.618-11.218-7.468-10.073-16.216-5.408.546-10.602-2.096-10.396-8.376.039-1.202.19-2.393.429-3.566a1.655 1.655 0 0 1-.473-.25 1.968 1.968 0 0 1-.775.168c-3.721.084-6.287-1.258-8.025-3.426-.255.497-.754.895-1.506.986-12.316 1.487-15.956-12.655-14.903-22.264 1.146-10.462 6.439-21.011 14.535-28.062a2.517 2.517 0 0 1-1.27-.548c-4.422-3.56-10.102-4.445-12.018-10.419-2.003-6.245 1.982-15.169 5.058-20.431 3.293-5.633 6.993-9.473 13.226-11.64 4.126-1.435 7.7-3.789 11.709-5.453 1.961-.814 3.915-1.64 5.867-2.472-3.603-4.217-8.626-6.857-12.675-10.645-4.232-3.959-8.346-8.042-12.439-12.146-.671 1.017-1.504 1.954-2.037 2.605-2.409 2.941-6.35 5.033-8.227 8.355-6.892 12.199.99 29.241-9.139 40.323-.528.578-1.575.899-2.326.615-4.464-1.689-2.09 4.417-1.452 6.633.198.687.028 1.703-.573 2.168-3.692 2.854-7.835 4.728-12.198 6.25-.682 2.113-3.921 3.21-5.318.711-8.809-15.746-3.054-34.694 4.774-49.695-.274-1.16-.709-2.371-1.343-3.67-1.725-3.533-2.813-7.119-2.321-11.107.821-6.661 2.993-13.527 5.898-19.602 1.805-3.775 4.903-9.856 10.017-9.1 5.632.832 9.668 7.272 13.538 10.853 3.736 3.457 9.62 5.338 11.461 10.511 5.399 4.879 10.694 9.87 16.304 14.513 4.093 3.388 9.331 5.53 12.228 10.165.079.126.138.254.187.383 1.009-.438 2.02-.87 3.027-1.313 8.307-3.657 17-6.073 25.586-8.951 8.924-2.991 17.374-7.382 26.434-9.956 15.194-4.317 31.56-10.885 39.226-25.726-.092-.403-.275-.716-.605-.87-1.081-.505-2.944.252-3.986.574-3.286 1.015-6.625 2.416-10.099 2.606-7.355.401-10.678-4.926-9.896-11.645.219-1.884 2.014-8.64.323-10.103-.814-.705-1.927-.595-3.124-.067-.135 1.147-1.12 2.246-2.574 1.889-.087-.021-.172-.047-.259-.069-1.883 1.514-3.579 3.362-4.276 4.116-5.409 5.85-12.1 13.623-20.637 8.643-3.028-1.766-.176-6.601 2.735-4.679 6.237 4.118 11.228-3.713 16.864-9.636-10.794-3.576-20.842-9.2-32.066-11.561a1.378 1.378 0 0 1-.428-.173c-4.684 1.446-11.038 2.779-14.833 6.14 3.356 9.989 4.719 20.858 4.803 31.337.022 2.815-4.355 2.814-4.364 0-.046-13.312-2.081-26.021-7.359-37.193a15.935 15.935 0 0 1-9.274 2.4c-4.256 8.887-1.836 20.816-1.73 30.205.035 3.095-4.779 3.093-4.799 0-.058-9.506-2.202-21.968 2.545-30.886-2.09-.62-4.153-1.649-6.109-3.097-16.297-12.068 5.175-37.169 17.303-27.528-2.342-9.478 2.571-22.289 8.903-30.67a8.147 8.147 0 0 1 .475-3.468c-9.448-7.749-24.032-7.819-35.468-5.663-11.506 2.17-22.986 6.591-29.912 16.572-12.964 18.686-12.218 47.846 6.355 62.684 1.538 1.229-.509 3.878-2.105 2.729-21.619-15.56-22.009-49.514-6.577-69.532 8.436-10.943 21.856-15.695 35.123-17.538 11.863-1.648 25.619-.762 35.385 6.787 3.14-2.523 8.047-2.766 11.319-.262 2.64 2.021 3.884 4.706 3.522 7.457 6.391 10.458 10.822 22.175 11.201 34.525 2.974-8.394 22.391-5.632 27.738-2.101 4.299 2.839 6.965 7.045 8.149 11.696.534-.087 1.097.102 1.556.474 1.76 1.428 3.193 3.165 4.611 4.92.291.36.468.783.496 1.206a18.14 18.14 0 0 1 2.71 4.791c.758 2.002 1.206 3.954 1.628 5.955 10.558-9.596 19.591-23.484 7.775-36.234-10.539-11.373-25.188-18.188-40.13-11.489-2.887 1.294-5.348-2.62-2.526-4.322 15.903-9.596 37.344.883 47.452 14.455 3.747 5.03 5.311 10.12 5.238 15.033 1.736-.288 3.752-.015 5.116.152 4.011.491 8.123 1.046 11.939 2.431 1.44.523 2.159 1.761 1.858 3.273-1.493 7.501-4.506 14.419-9.635 20.063 5.296 4.974 7.315 14.106 7.459 20.7.052 2.415-.097 5.015-.435 7.705 5.545 2.254 6.205 7.699 6.923 13.092.177.011.358.033.547.081 4.984 1.258 10.139 3.872 11.416 9.327 1.28 5.473-.009 11.064-.357 16.573-.025.403-.15.733-.331 1.004 1.223 2.082 1.947 4.413 1.815 7.006-.17 3.343-1.191 6.174-2.64 8.792 4.342 7.061 1.131 15.591-2.74 22.773 9.897 7.122 9.266 24.445 5.225 34.531zM110.289 70.54a114.643 114.643 0 0 0 8.798-1.851 59.63 59.63 0 0 0-5.627-5.235c-1.632 2.079-2.785 4.583-3.171 7.086zm1.843 7.59c2.303-1.62 4.501-3.583 6.585-5.709-2.756.682-5.566 1.177-8.472 1.368.225 1.563.826 3.048 1.887 4.341zm7.37-1.649c-1.419 1.425-2.932 2.764-4.615 3.956a15.426 15.426 0 0 0 4.481 1.775c.006-1.916.059-3.825.134-5.731zm.435-12.245a90.416 90.416 0 0 0-.097-5.38c-.001-.017.003-.032.003-.049-1.43.44-2.805 1.217-4.046 2.243a48.9 48.9 0 0 1 4.14 3.186zm11.766-10.139c7.779-5.268 19.009-3.367 28.312 1.757-.685-9.259-3.749-17.898-7.549-26.301-1.521 1.605-3.297 2.277-5.054 2.247-2.393.599-5.008.245-7.239-1.266a8.98 8.98 0 0 1-.636-.482c-4.634 7.041-7.676 16.065-7.834 24.045zm-3.556 11.844a86.244 86.244 0 0 0 4.996-1.975 6.245 6.245 0 0 0-1.999-1.851c-.007.009-.011.018-.019.028a132.267 132.267 0 0 0-2.978 3.798zm-5.074-7.499c.488 2.604.781 5.267.944 7.95a92.037 92.037 0 0 0 4.088-5.624c-.04-.038-.093-.066-.129-.106-1.563-1.391-3.233-2.074-4.903-2.22zm5.023 22.445a58.891 58.891 0 0 0-3.983-6.212 125.51 125.51 0 0 1-.503 7.758c1.581-.193 3.1-.701 4.486-1.546zm4.409-4.687c1.413-2.515 2.291-5.92 1.88-8.874-2.847.974-5.656 2.005-8.478 2.956a54.9 54.9 0 0 1 5.414 7.677c.421-.543.823-1.118 1.184-1.759zm39.919-4.005c-6.494-10.323-28.443-22.581-39.255-13.062 5.827 4.952 7.024 12.856 2.403 19.824a19.902 19.902 0 0 1-2.227 2.776 67.15 67.15 0 0 1 2.057 4.614c3.111-3 9.182-4.566 12.281-5.624 8.268-2.822 16.587-5.406 24.741-8.528zm22.997-7.43c-.144.169-.32.321-.545.439-1.363.714-.957 2.642-1.566 3.823-.697 1.349-1.001 1.706-2.08 2.811-2.27 2.326-6.199 1.44-8.34 3.991-1.708 2.036-2.804 4.823-5.08 6.348-1.908 1.279-5.963 2.164-7.039 4.228 5.608 2.202 11.159 4.621 16.929 6.307 1.296-.995 2.64-1.763 4.052-2.175-.245-.785-.12-1.678.629-2.439 5.308-5.396 7.638-16.618 3.04-23.333zm-92.695 146.032c.396-.255.786-.52 1.191-.759.341-1.101.77-2.208 1.248-3.373 3.736-9.111 7.253-21.741 19.891-17.156 8.63 3.131 16.206-.924 22.783-6.515-3.344-2.981-6.95-5.749-9.154-9.568-3.245 2.075-6.628 3.934-10.312 5.002-5.208 1.509-10.927 2.946-15.359 6.219-4.909 3.626-9.571 9.362-11.203 15.344-1.126 4.126-.704 7.661.915 10.806zm49.129-31.482c1.944-1.889 3.792-3.813 5.541-5.594 3.944-4.015 7.96-8.857 13.121-11.35 5.846-2.824 12.986-3.909 18.199-7.868 2.786-2.116 5.048-4.742 7.231-7.45-3.86 2.308-7.912 4.303-12.178 5.895-13.233 4.938-27.061 8.307-38.898 16.322-.909.615-1.824 1.243-2.743 1.87 2.805 3.09 6.458 5.481 9.727 8.175zm4.856 66.147c-5.845-6.762-8.774-14.967-5.948-24.591 3.591-12.229 12.463-24.55 21.568-33.324 5.569-5.367 12.137-9.441 17.898-14.587 5.301-4.734 9.984-10.104 15.229-14.863 2.327-2.112 4.61-3.92 7.668-4.785 3.03-.857 5.95-.12 8.891-1.669a33.16 33.16 0 0 0 11.627-10.213c6.329-8.983 10.306-20.121 9.728-31.22-.286-5.496-1.553-12.113-5.49-16.29-6.476-6.871-11.753-.982-18.859.189-3.188.525-8.214 1.006-9.712-2.691-2.154-5.316-1.489-10.666-6.215-14.981a2.524 2.524 0 0 1-.418-.499c-.277 5.372-2.269 10.731-5.785 14.842 6.181 2.427 3.726 10.833 3.301 15.897-.854 10.181 10.405 3.844 15.956 3.035 8.649-1.26 8.8 7.017 6.371 13.326-2.149 5.583-6.655 10.351-10.942 14.378a133.728 133.728 0 0 0-12.889 13.925c-4.286 5.325-9.091 9.104-15.54 11.506-6.567 2.446-12.166 4.509-17.244 9.512-3.39 3.341-6.76 7.022-10.326 10.491 1.26 1.43 2.34 3.005 3.102 4.837 1.196 2.875-3.458 4.676-4.933 2.08-.645-1.135-1.419-2.17-2.265-3.149-3.715 3.204-7.704 5.997-12.191 7.823-5.532 2.251-10.074 2.129-15.675.294-8.78-2.878-9.872 6.147-12.164 12.263-1.008 2.69-3.147 6.484-1.431 9.289a28.532 28.532 0 0 0 7.753 8.304c5.708 4.063 11.982 6.961 18.433 9.638 2.635 1.094 1.722 5.023-1.204 4.368-8.849-1.983-18.157-5.801-24.802-12.162-2.092-2.003-4.96-4.802-6.262-7.793-.51-.439-.986-.892-1.44-1.354-6.992 6.094-12.363 14.409-13.372 23.717-.896 8.268-.446 18.692 9.736 19.756-2.729-6.114-1.706-15.479-.73-21.064.435-2.492 4.731-1.921 4.428.599-.753 6.268-3.409 21.35 5.455 22.9-.367-3.223.545-6.513 1.498-9.612.68-2.21 4.13-1.277 3.47.957-.686 2.322-1.521 4.689-1.622 7.082 1.193-2.671 2.809-5.165 4.661-7.375 1.879-2.241 4.878.937 3.159 3.159-2.343 3.028-4.316 6.932-5.057 10.7-.994 5.053 1.209 6.948 6.081 7.24 1.167-5.87 3.208-11.571 4.486-14.703.853-2.091 4.244-1.278 3.47.957-2.733 7.893-11.023 34.56 6.301 27.796 17.075-6.667 9.834-32.639 22.218-43.91.006-.011.017-.016.028-.025zm55.886 18.939l-.102-.067c-5.95-4.026-10.917-9.102-16.324-13.784-6.979-6.044-14.047-11.989-21.059-17.995-2.498-2.139 1.096-5.642 3.583-3.583 10.762 8.91 21.093 18.413 31.918 27.217.242.197.488.394.733.591 3.158-9.812-.367-18.858-2.543-28.597a2.437 2.437 0 0 1-.029-.968 70.374 70.374 0 0 1-3.164-2.714c-11.04-10.125-21.741-20.056-34.491-27.983-5.65 6.543-10.344 13.935-13.918 21.783-7.087 15.565 5.916 28.185 18.587 34.99 11.635 6.247 23.894 9.797 36.809 11.11zm46.663-63.493l-.312.527c-5.754 9.672-13.681 14.902-25.212 14.4-3.07-.134-3.033-4.528 0-4.736 4.012-.276 8.288-.322 11.928-2.252a2.698 2.698 0 0 1-.373-1.381c-.04-2.547-.623-5.064-.766-7.586-4.497 4.24-9.809 7.402-17.037 8.545-2.176.344-3.115-2.976-.918-3.331 12.845-2.076 18.982-10.701 26.005-20.683 2.432-3.456 5.821-6.891 8.109-10.679-.032-.653.356-1.273.888-1.616a16.75 16.75 0 0 0 1.036-2.543c2.099-6.85-1.56-11.554-7.053-15.058-1.417 3.119-3.363 5.935-5.473 8.73-2.873 3.806-5.47 8.098-8.866 11.477-3.911 3.891-8.559 6.074-13.298 8.78-5.604 3.199-10.26 6.87-15.117 11.063-3.419 2.952-6.931 5.585-11.319 6.865-2.704.789-3.861-3.638-1.149-4.168 4.9-.958 8.513-4.342 12.106-7.593 3.197-2.892 6.507-5.325 10.261-7.479 4.461-2.56 9.833-4.727 13.522-8.388 2.676-2.655 4.654-5.741 6.812-8.805 5.037-7.154 11.727-14.257 8.482-23.602-1.246-3.588-1.941-7.088-2.12-10.882-.16-3.398-.325-6.732-2.886-8.822-2.925 15.544-12.062 32.725-27.475 35.581-2.455.455-4.782-.201-7.055 1.405a28.61 28.61 0 0 0-4.398 3.837c-2.316 2.469-4.599 4.951-7.013 7.328-5.136 5.057-10.424 10.016-16.219 14.321a81.552 81.552 0 0 0-10.114 8.927c13.577 6.56 24.517 17.16 35.475 27.311 9.855 9.129 22.487 15.036 31.48 25.066 10.195-1.518 17.673-6.929 20.946-17.203 3.146-9.869 2.821-18.968-2.877-27.356zm-.681-9.249a2.19 2.19 0 0 1-.08.52c-.021.073-.047.144-.069.217a49.562 49.562 0 0 0 1.822-3.811 57.045 57.045 0 0 1-1.673 3.074zM144.362 35.662c-.849 2.585-1.114 5.311-.89 8.015.252 3.051 4.482 3.049 4.736 0 .19-2.271.062-4.567.522-6.811.586-2.857-3.453-3.989-4.368-1.204zm-14.774 116.42c-4.229-7.435-13.336-11.586-19.575-17.132-9.035-8.032-17.743-16.419-26.953-24.256-1.528-1.301-3.751.87-2.223 2.223 8.544 7.571 16.668 15.59 24.981 23.409 2.944 2.769 5.882 5.427 9.157 7.795 4.057 2.932 8.518 5.583 11.112 10.008 1.322 2.253 4.795.229 3.501-2.047zm4.712-7.911c-17.611-13.745-29.971-32.932-47.841-46.4-1.759-1.326-4.076 1.682-2.356 3.054 17.479 13.939 29.777 33.164 47.59 46.725 1.94 1.475 4.526-1.882 2.607-3.379zm-28.953-42.635c-4.008-5.393-8.612-10.365-14.267-14.055-2.199-1.434-4.087 1.981-2.025 3.465 5.068 3.648 8.923 8.465 12.898 13.21 1.569 1.872 4.858-.651 3.394-2.62zm2.662-11.556c-3.404-3.359-7.06-6.428-10.845-9.349-1.951-1.506-4.51 1.832-2.632 3.411 3.51 2.95 6.829 6.103 10.069 9.346 2.198 2.2 5.622-1.223 3.408-3.408zm36.351 48.72c-5.891-6.402-13.491-10.89-19.325-17.386-1.524-1.697-4.547.586-3.183 2.456 5.207 7.145 12.852 12.172 19.115 18.323 2.217 2.178 5.482-1.122 3.393-3.393zm-12.069-26.642c-2.232-3.343-5.437-5.477-8.647-7.785-.968-.696-2.427-.17-2.985.783-.659 1.125-.157 2.261.783 2.985 2.487 1.917 5.035 3.75 6.885 6.334 1.695 2.369 5.627.174 3.964-2.317zm18.544 18.318c-1.307-.941-2.571-2.37-3.972-3.378-1.865-1.342-4.226 1.722-2.456 3.183 1.352 1.117 2.407 2.538 3.759 3.654.925.764 2.206.909 3.115 0 1.076-1.076.691-2.641-.446-3.459zm3.775-8.128c-1.079-2.195-2.991-3.893-5.072-5.129-1.14-.677-2.66-.264-3.325.872-.688 1.175-.244 2.616.872 3.325.785.498 1.07.724 1.768 1.412.29.286.554.598.812.913.099.13.481.612.539.684-.036-.045.497.621.282.335.78 1.039 2.047 1.572 3.269.857 1.181-.694 1.429-2.101.855-3.269zm-24.289-26.34c-1.534-1.229-2.838-2.696-4.423-3.869-.873-.646-2.254-.332-2.97.383-.868.868-1.043 2.628 0 3.466 1.54 1.237 2.753 2.784 4.348 3.967.895.664 2.312.34 3.045-.393.888-.889 1.07-2.696 0-3.554z"/></svg>