<svg xmlns="http://www.w3.org/2000/svg" viewBox="0 0 100 100"><path d="M67.6 19.1H32.4c-1.4 0-2.5 1.1-2.5 2.5v10.9c0 7.6 4.2 14.2 10.4 17.6-6.2 3.4-10.4 10-10.4 17.6v10.8c0 .3.1.7.2 1 .3.6.7 1.1 1.4 1.4.3.1.6.2 1 .2h35.2c.3 0 .7-.1 1-.2.6-.3 1.1-.7 1.4-1.4.1-.3.2-.6.2-1V67.7c0-7.6-4.2-14.2-10.4-17.6 6.2-3.4 10.4-10 10.4-17.6V21.6c-.2-1.4-1.3-2.5-2.7-2.5zm-32.7 5h30.2v8.4c0 1.3-.2 2.6-.5 3.8-3.8-4-9-6.3-14.6-6.3s-10.8 2.4-14.6 6.3c-.3-1.2-.5-2.5-.5-3.8v-8.4zM50 64.4L61.6 76H38.4L50 64.4zm-2.5-11.6v7L34.9 72.4v-4.7c0-7.5 5.5-13.7 12.6-14.9zm17.6 14.9v4.7L52.5 59.8v-7c7.1 1.2 12.6 7.4 12.6 14.9zM50 47.6c-5 0-9.5-2.5-12.2-6.3C40.6 37.4 45.1 35 50 35s9.4 2.4 12.2 6.3c-2.7 3.8-7.2 6.3-12.2 6.3z"/></svg>