<svg xmlns="http://www.w3.org/2000/svg" viewBox="0 0 640 640">
	<path d="M257.069,302.93c1.86,1.86,2.931,4.44,2.931,7.07s-1.07,5.21-2.931,7.069C255.21,318.93,252.63,320,250,320 s-5.21-1.07-7.07-2.931c-1.86-1.859-2.93-4.439-2.93-7.069s1.069-5.21,2.93-7.07S247.37,300,250,300S255.21,301.069,257.069,302.93z M190,380c-1.311,0-2.601,0.54-3.54,1.47c-0.931,0.93-1.46,2.21-1.46,3.53c0,1.319,0.529,2.609,1.46,3.54 c0.939,0.93,2.22,1.46,3.54,1.46c1.319,0,2.6-0.53,3.54-1.46c0.93-0.931,1.46-2.221,1.46-3.54c0-1.311-0.53-2.601-1.46-3.53 C192.6,380.54,191.31,380,190,380z M190,400.02c-1.32,0-2.601,0.53-3.54,1.46c-0.931,0.931-1.46,2.221-1.46,3.54 c0,1.32,0.529,2.601,1.46,3.53c0.939,0.93,2.22,1.47,3.54,1.47c1.319,0,2.6-0.54,3.54-1.47c0.93-0.93,1.46-2.22,1.46-3.53 c0-1.319-0.53-2.609-1.46-3.54C192.6,400.55,191.319,400.02,190,400.02z M169.989,390.01c-1.319,0-2.609,0.53-3.539,1.46 c-0.931,0.93-1.461,2.22-1.461,3.54s0.53,2.61,1.461,3.54c0.93,0.93,2.22,1.46,3.539,1.46c1.311,0,2.601-0.53,3.53-1.46 c0.931-0.94,1.47-2.22,1.47-3.54s-0.539-2.61-1.47-3.54C172.59,390.54,171.3,390.01,169.989,390.01z M445,350 c-1.32,0-2.61,0.54-3.54,1.47c-0.931,0.93-1.46,2.22-1.46,3.53c0,1.319,0.529,2.609,1.46,3.54c0.93,0.93,2.22,1.46,3.54,1.46 c1.31,0,2.6-0.53,3.529-1.46c0.931-0.931,1.471-2.221,1.471-3.54c0-1.311-0.54-2.601-1.471-3.53C447.6,350.54,446.31,350,445,350z M445,370c-1.32,0-2.61,0.54-3.54,1.47c-0.931,0.92-1.46,2.21-1.46,3.53c0,1.319,0.529,2.609,1.46,3.54 c0.93,0.93,2.22,1.46,3.54,1.46c1.31,0,2.6-0.53,3.529-1.46c0.931-0.931,1.471-2.221,1.471-3.54c0-1.311-0.54-2.601-1.471-3.53 C447.609,370.54,446.319,370,445,370z M425,360c-1.32,0-2.61,0.54-3.54,1.47c-0.931,0.93-1.46,2.22-1.46,3.53 c0,1.319,0.529,2.609,1.46,3.54c0.93,0.93,2.22,1.46,3.54,1.46c1.31,0,2.6-0.53,3.529-1.46c0.931-0.931,1.471-2.221,1.471-3.54 c0-1.32-0.54-2.601-1.471-3.53C427.6,360.54,426.319,360,425,360z M355,300c-2.63,0-5.21,1.069-7.07,2.93S345,307.37,345,310 s1.069,5.21,2.93,7.069c1.86,1.86,4.43,2.931,7.07,2.931c2.63,0,5.21-1.07,7.069-2.931C363.93,315.21,365,312.63,365,310 s-1.07-5.21-2.931-7.07C360.2,301.069,357.63,300,355,300z M350.79,364.874c-4.329-0.848-8.539,1.979-9.388,6.314 C338.476,386.145,325.271,397,310.006,397c-15.265,0-28.469-10.855-31.396-25.812c-0.848-4.336-5.057-7.163-9.387-6.314 c-4.336,0.848-7.163,5.051-6.315,9.387C267.301,396.708,287.108,413,310.006,413c22.898,0,42.706-16.292,47.099-38.739 C357.953,369.925,355.126,365.722,350.79,364.874z M542.997,419.994c0,20.953-17.047,38-38,38H453.01v67.009c0,4.418-3.582,8-8,8 h-60c-4.418,0-8-3.582-8-8s3.582-8,8-8h52v-59.009H208.007v67.009c0,4.418-3.582,8-8,8h-60c-4.418,0-8-3.582-8-8s3.582-8,8-8h52 v-59.009h-22c-37.495,0-68-30.505-68-68c0-21.044,9.848-40.839,26.212-53.623c-27.541-34.282-37.143-79.252-25.663-122.098 c16.141-60.237,70.92-102.307,133.212-102.307c11.211,0,22.453,1.385,33.416,4.117c0.753,0.181,1.566,0.389,2.38,0.605 c25.292,6.777,46.425,22.993,59.514,45.663l26.937,46.656c15.021-11.023,33.149-17.003,51.986-17.003c48.523,0,88,39.477,88,88 c0,8.205-1.122,16.266-3.345,24.065c9.287,2.666,17.721,7.849,24.377,15.091c9.006,9.799,13.965,22.528,13.965,35.844 c0,11.453-3.638,22.358-10.252,31.346C534.892,392.733,542.997,405.449,542.997,419.994z M526.997,419.994 c0-10.883-7.838-19.974-18.427-21.69l-8.073,2.163c-0.693,0.186-1.39,0.274-2.075,0.274c-3.532,0-6.765-2.357-7.723-5.932 c-1.144-4.268,1.39-8.654,5.657-9.798l7.934-2.126c8.09-7.046,12.707-17.116,12.707-27.88c0-18.46-13.269-33.76-31.235-36.537 l-6.336,3.658c-1.26,0.728-2.636,1.073-3.992,1.073c-2.766,0-5.454-1.435-6.936-4.001c-2.21-3.826-0.898-8.719,2.928-10.928 l6.197-3.578c2.896-7.912,4.377-16.202,4.377-24.688c0-39.701-32.299-72-72-72c-17.376,0-34.005,6.234-47.096,17.576l-1.316,4.912 c-0.958,3.573-4.19,5.931-7.723,5.931c-0.686,0-1.382-0.089-2.076-0.274c-4.268-1.144-6.8-5.53-5.656-9.799l1.083-4.043 l-29.997-51.955c-10.951-18.969-28.634-32.537-49.79-38.206c-0.68-0.182-1.367-0.356-2.055-0.522 c-9.759-2.432-19.7-3.657-29.607-3.657c-55.063,0-103.487,37.193-117.757,90.447c-10.557,39.4-0.94,80.833,25.712,111.555h11.408 c4.418,0,8,3.582,8,8s-3.582,8-8,8h-12.772c-15.07,9.49-24.352,26.169-24.352,44.025c0,28.673,23.327,52,52,52h334.99 C517.128,441.994,526.997,432.125,526.997,419.994z"/>
</svg>
