<svg xmlns="http://www.w3.org/2000/svg" viewBox="0 0 320 320">
    <path d="M120.872,250.893c0.269-0.323,0.185-0.582-0.515-1.544c-0.933-1.283-0.878-1.719,0.272-2.134
    c1.39-0.501,2.371,0.444,1.997,1.921c-0.138,0.55-0.084,0.935,0.145,1.183c0.202,0.221,0.285,0.486,0.265,0.746l-0.001,0.008
    c-0.025,0.336-0.228,0.67-0.598,0.951c-0.699,0.528-1.441,0.435-1.686-0.224C120.614,251.438,120.641,251.173,120.872,250.893z
     M116.057,253.221c0.619,0.805,1.852-0.09,2.05-1.136c0.012-0.051,0.018-0.105,0.021-0.158c0.013-0.182-0.002-0.367-0.065-0.548
    c-0.119-0.321-0.273-0.75-0.336-0.957c-0.172-0.556-0.471-0.601-1.184-0.205c-0.638,0.367-0.647,0.388-0.305,1.094
    c0.267,0.561,0.272,0.823,0.018,1.227C116.076,252.82,115.987,253.131,116.057,253.221z M82.949,252.835
    c0.511,2.165,0.97,2.94,2.29,3.777c1.793,1.141,2.632,1.136,6.042-0.023l2.988-1.021l3.173,0.336
    c3.092,0.322,3.228,0.366,4.877,1.321c3.519,2.047,4.712,2.18,7.351,0.879c1.751-0.866,1.804-0.879,3.792-0.615
    c1.334,0.177,2.556,0.181,3.615,0c0.879-0.154,2.08-0.23,2.679-0.151c2.058,0.273,4.714-0.301,5.468-1.175
    c0.256-0.298,1.005-0.705,1.662-0.895c1.967-0.574,2.951-1.265,3.076-2.234l0.002-0.014c0.037-0.322-0.015-0.674-0.161-1.06
    c-0.111-0.291-0.219-1.158-0.239-1.922c-0.021-0.759-0.048-1.807-0.068-2.314c-0.023-0.638,0.112-1.078,0.428-1.442
    c0.804-0.935-0.009-2.38-1.44-2.57c-0.888-0.118-0.997,4.373-0.176,7.075c0.699,2.302,0.408,2.777-1.952,3.227
    c-0.903,0.171-1.883,0.478-2.181,0.676c-0.298,0.2-1.054,0.478-1.678,0.604c-0.626,0.126-1.49,0.294-1.907,0.376
    c-1.571,0.331-5.627,0.524-7.027,0.339c-1.609-0.213-2.188-0.101-4.395,0.854c-1.817,0.786-3.489,0.531-5.974-0.9
    c-1.823-1.049-5.01-1.702-7.808-1.622c-2.107,0.054-2.496,0.134-5.001,1.146c-3.317,1.344-5.976-0.208-5.766-3.369
    c0.049-0.707-0.075-1.754-0.269-2.333c-0.796-2.363-0.858-2.256,2.192-3.506c0.373-0.156,1.261-0.566,1.968-0.921
    c1.688-0.835,2.748-0.951,5.964-0.646c2.472,0.237,2.808,0.218,4.476-0.363c2.082-0.715,3.032-0.665,4.335,0.236
    c1.11,0.763,2.257,0.819,3.179,0.14c1.016-0.743,2.157-0.937,4.092-0.68c1.001,0.133,1.835,0.151,1.85,0.032
    c0.115-0.868,3.795-0.829,4.541,0.057c1.071,1.265,1.824,1.486,2.895,0.821c0.417-0.255,1.251-0.542,1.853-0.632
    c0.602-0.092,1.243-0.204,1.43-0.253c0.583-0.137,1.21,0.988,1.084,1.936c-0.14,1.054,0.31,0.899,1.237-0.434
    c1.65-2.377-1.222-4.384-4.164-2.911c-1.427,0.714-2.271,0.675-3.081-0.132c-1.422-1.411-3.197-1.731-5.102-0.922
    c-1.022,0.432-1.73,0.532-3.236,0.463c-1.64-0.082-2.134,0.005-3.296,0.568l-1.366,0.679l-1.714-0.504
    c-1.897-0.548-3.088-0.46-4.653,0.315c-1.066,0.528-2.747,0.534-4.307,0.016c-0.854-0.283-1.498-0.36-2.133-0.235
    c-2.539,0.445-3.234,0.641-3.854,1.058c-0.369,0.247-1.078,0.551-1.568,0.67c-3.442,0.822-5.331,3.214-4.615,5.837
    C82.49,250.934,82.753,251.996,82.949,252.835z M124.451,248.658c-0.206,0.681-0.155,0.877,0.331,1.297
    c0.428,0.367,0.543,0.698,0.463,1.295c-0.058,0.438-0.038,0.884,0.039,0.981c0.371,0.481,1.552,0.045,1.638-0.609
    c0.035-0.263-0.189-1.109-0.495-1.866c-0.306-0.76-0.526-1.611-0.488-1.899C126.1,246.653,124.851,247.323,124.451,248.658z
     M118,247.459c0.051-0.126,0.081-0.229,0.096-0.323c0.051-0.276-0.045-0.444-0.321-0.641c-0.989-0.713-1.921,0.267-1.447,1.524
    C116.679,248.949,117.517,248.676,118,247.459z M111.649,251.025c0.051,0.405,0.253,0.581,0.742,0.646
    c0.515,0.068,0.897-0.299,0.982-0.773c0.049-0.284-0.01-0.608-0.203-0.896c-0.232-0.336-0.234-0.554-0.019-0.753
    c0.441-0.408,0.273-1.976-0.232-2.145c-1.068-0.353-1.55,0.986-0.765,2.134c0.299,0.426,0.287,0.503-0.121,0.853
    C111.76,250.318,111.609,250.69,111.649,251.025z M107.113,254.737c0.677,0.347,1.747-0.601,1.885-1.339
    c0.009-0.047,0.006-0.092,0.007-0.14c0.001-0.176-0.056-0.338-0.197-0.452c-0.13-0.105-0.07-0.433,0.145-0.861
    c0.55-1.087-0.281-2.012-1.111-1.243c-0.28,0.257-0.291,0.529-0.074,1.373c0.256,1.02,0.247,1.072-0.297,1.519
    C106.825,254.12,106.695,254.52,107.113,254.737z M109.4,247.936c0.011-0.064,0.009-0.137,0.015-0.204
    c0.051-1.45-1.508-1.103-1.725,0.384c-0.051,0.343-0.012,0.712,0.065,0.816C108.234,249.557,109.245,248.889,109.4,247.936z
     M104.954,248.54c0.254-0.432,0.393-0.687,0.427-0.88c0.034-0.191-0.026-0.314-0.17-0.503c-0.736-0.964-1.848-0.177-1.835,1.301
    C103.39,249.886,104.135,249.928,104.954,248.54z M94.257,248.621c0.231,0.305,0.992,0.289,1.237-0.02
    c0.131-0.163,0.555-0.446,0.953-0.63c0.464-0.221,0.7-0.404,0.718-0.65c0.021-0.243-0.175-0.552-0.583-1.017
    c-0.804-0.919-1.144-0.987-1.882-0.382c-0.637,0.528-0.721,0.751-0.372,1.034c0.135,0.111,0.149,0.492,0.026,0.853
    C94.233,248.167,94.185,248.53,94.257,248.621z M100.495,246.406c-0.616-0.082-2.033,0.433-1.915,0.697
    c0.049,0.114,0.099,0.507,0.117,0.885c0.018,0.375,0.145,0.86,0.276,1.067c0.347,0.554,0.526,0.505,1.352-0.326
    c0.515-0.516,0.787-1.061,0.823-1.5C101.181,246.793,100.964,246.468,100.495,246.406z M81.217,241.076
    c0.259-0.101,0.817-0.4,1.245-0.667c0.9-0.567,3.527-1.545,4.819-1.8c0.487-0.096,2.336-0.484,4.105-0.859
    c3.41-0.728,4.26-0.821,8.558-0.886c1.493-0.02,3.116-0.132,3.607-0.25c0.49-0.118,1.47-0.208,2.17-0.192
    c0.702,0.009,1.7-0.09,2.222-0.236c0.518-0.14,1.278-0.214,1.694-0.159c0.412,0.06,2.47,0.166,4.581,0.234
    c2.91,0.084,4.357,0.236,5.957,0.623c2.244,0.531,4.178,0.782,6.552,0.82c4.585,0.074,8.38,3.913,8.713,8.812
    c0.044,0.666,0.229,2.336,0.408,3.714c0.185,1.413,0.241,2.16,0.158,2.939l-0.003,0.02c-0.01,0.111-0.024,0.219-0.044,0.335
    c-0.047,0.307-0.109,0.629-0.2,1.015c-0.23,0.985-0.501,2.223-0.599,2.751c-0.101,0.531-0.711,1.785-1.346,2.785
    c-0.634,0.997-1.382,2.273-1.662,2.834c-0.691,1.384-1.77,2.576-2.931,3.246c-1.279,0.745-4.346,2.207-4.567,2.178
    c-0.1-0.013-0.897,0.211-1.774,0.504c-0.877,0.291-1.708,0.515-1.847,0.497c-0.136-0.018-1.525,0.371-3.085,0.853
    c-1.558,0.487-3.212,0.982-3.664,1.111c-0.455,0.135-1.517,0.203-2.359,0.15c-0.843-0.05-2.143-0.053-2.895-0.005
    c-2.624,0.146-4.953-0.104-6.768-0.748c-0.954-0.338-1.801-0.592-1.888-0.549c-0.743,0.327-4.839-0.055-7.089-0.664
    c-1.818-0.489-3.092-0.686-4.697-0.741c-3.876-0.119-4.131-0.153-6.293-0.769c-1.167-0.33-2.435-0.752-2.826-0.933
    c-0.389-0.179-1.526-0.498-2.51-0.717c-2.651-0.586-3.152-0.897-4.268-2.615c-2.155-3.325-2.415-4.903-1.258-7.73
    c0.41-1.004,0.834-2.495,0.94-3.299c0.11-0.827,0.401-1.75,0.655-2.114c0.249-0.349,0.484-0.901,0.527-1.226
    c0.123-0.927,0.855-2.004,1.986-2.912c0.575-0.463,1.487-1.338,2.027-1.942C79.082,242.786,80.694,241.275,81.217,241.076z
     M77.634,257.907c0.682,0.285,3.986,0.946,9.187,1.83c1.852,0.316,3.765,0.742,4.242,0.935c0.472,0.224,1.136,0.346,1.471,0.308
    c0.333-0.041,0.663,0.048,0.735,0.204c0.157,0.348,4.719,0.959,8.601,1.14c7.283,0.333,8.048,0.313,9.876-0.218
    c0.493-0.143,1.782-0.326,2.877-0.415c1.095-0.083,2.257-0.268,2.576-0.415c0.319-0.146,0.729-0.259,0.9-0.236
    c0.175,0.023,0.729-0.155,1.233-0.404c0.505-0.254,1.357-0.489,1.902-0.51c5.217-0.225,10.194-1.646,10.37-2.971
    c0.03-0.225,0.329-0.544,0.661-0.709c0.859-0.411,1.39-1.67,1.549-3.333c0.158-1.659-0.052-3.718-0.68-5.71
    c-0.179-0.566-0.347-1.316-0.368-1.669c-0.079-1.17-1.933-4.642-2.633-4.918c-1.584-0.633-18.461-2.425-20.689-2.198
    c-0.206,0.021-0.834,0.092-1.386,0.169c-0.552,0.076-1.445,0.173-1.989,0.213c-2.448,0.155-4.503,0.501-6.296,1.04
    c-0.423,0.127-1.652,0.241-2.738,0.258c-1.086,0.017-2.718,0.187-3.623,0.378c-1.72,0.365-4.039,0.723-6.791,1.064
    c-3.432,0.428-3.766,0.567-3.896,1.546c-0.094,0.71-0.29,0.972-1.072,1.444C78.573,246.587,75.4,256.979,77.634,257.907z
     M88.141,250.181c0.211,0.028,0.541-0.123,0.741-0.328c0.41-0.431,1.358,0.059,1.957,1.01c0.399,0.631,1.124,0.465,1.438-0.329
    c0.046-0.115,0.074-0.221,0.084-0.319c0.039-0.291-0.09-0.531-0.427-0.88c-0.563-0.585-0.705-1.46-0.225-1.396
    c0.535,0.071,0.289-0.65-0.347-1.02c-0.904-0.523-1.883-0.382-2.264,0.321c-0.333,0.616-0.618,0.66-1.259,0.197
    c-1.165-0.835-3.406,1.358-2.306,2.262c0.107,0.088,0.228,0.491,0.254,0.912c0.029,0.416,0.352,1.117,0.717,1.552l0.657,0.795
    l-0.531,0.683c-0.428,0.544-0.478,0.747-0.27,1.076c0.311,0.504,0.793,0.402,1.255-0.251c0.496-0.696,0.593-2.896,0.16-3.464
    C87.381,250.49,87.553,250.103,88.141,250.181z M142.902,289.33c0.257-1.023-0.288-1.445-1.081-0.841
    c-0.389,0.296-0.443,0.499-0.286,0.863c0.139,0.321,0.107,0.629-0.089,0.93c-0.326,0.503-0.494,1.769-0.267,2.041
    c0.307,0.363,1.191,0.235,1.944-0.277l0.772-0.533l-0.595-0.679C142.797,290.276,142.728,290.028,142.902,289.33z M147.713,289.106
    c-0.101-0.008-0.646-0.166-1.221-0.331c-1.97-0.553-2.843,1.109-1.167,2.221c0.79,0.524,0.884,0.504,1.195-0.147
    c0.156-0.321,0.522-0.706,0.81-0.85c0.314-0.162,0.537-0.447,0.566-0.658C147.914,289.218,147.852,289.123,147.713,289.106z
     M139.433,291.515c-0.228-0.1-0.584-0.332-0.791-0.516c-0.951-0.833-2.212,0.833-1.403,1.859c0.368,0.466,1.584,0.597,2.028,0.224
    c0.227-0.194,0.37-0.53,0.403-0.856C139.703,291.905,139.631,291.599,139.433,291.515z M118.786,289.295
    c-1.045,0.409-1.152,0.754-0.334,1.064c0.888,0.33,1.511,0.363,1.849,0.076c0.245-0.206,0.362-0.422,0.372-0.606
    C120.703,289.269,119.811,288.899,118.786,289.295z M122.017,291.243c-1.064-0.437-2.349,1.35-1.667,2.322
    c0.44,0.638,1.028,0.46,1.552-0.462c0.327-0.576,0.498-0.977,0.514-1.271C122.433,291.54,122.305,291.363,122.017,291.243z
     M168.433,283.332c1.098,1.794,1.572,3.544,1.437,5.245c-0.121,1.503-0.718,2.964-1.798,4.361c-0.376,0.491-0.906,1.488-1.178,2.22
    c-1.493,3.973-12.016,10.079-17.739,10.289c-1.076,0.039-2.534,0.189-3.24,0.326c-0.702,0.135-2.724,0.439-4.496,0.675
    c-3.144,0.424-3.692,0.532-4.723,0.844c-0.94,0.283-5.185,0.521-7.882,0.443c-1.479-0.04-3.953-0.032-5.508,0.02
    c-4.567,0.157-5.492,0.139-5.986-0.13c-0.258-0.137-1.188-0.333-2.057-0.406c-4.356-0.422-7.109-2.577-8.252-6.447
    c-0.355-1.192-0.918-2.607-1.272-3.139c-2.651-3.963-2.639-8.816,0.047-10.965c1.46-1.172,3.709-2.732,3.909-2.715
    c0.086,0.007,1.287-0.523,2.66-1.192c3.218-1.568,7.379-3.349,7.761-3.317c0.165,0.014,1.046-0.255,1.948-0.594
    c4.361-1.649,4.348-1.65,19.428-0.919c3.954,0.189,6.837,0.258,7.943,0.202c9.558-0.516,16.365,0.48,17.417,2.517
    C167.085,281.099,167.801,282.307,168.433,283.332z M164.907,287.314c0.134-1.392-0.065-2.908-0.629-4.439l-0.731-1.951
    l-3.473-0.194c-3.755-0.22-6.559-0.136-8.924,0.275c-1.988,0.332-10.117-0.023-12.707-0.569c-1.6-0.337-2.071-0.345-2.678-0.099
    c-1.376,0.566-2.222,0.538-3.735-0.12c-1.816-0.785-2.705-0.865-4.559-0.383c-0.813,0.212-1.931,0.427-2.475,0.488
    c-2.182,0.232-6.229,1.315-8.142,2.174c-1.115,0.501-2.092,0.902-2.167,0.896c-0.076-0.006-0.623,0.265-1.213,0.602
    c-0.593,0.337-1.5,0.767-2.024,0.962c-3.071,1.137-5.587,5.277-5.077,8.366c0.954,5.813,7.825,9.345,15.497,7.96
    c0.872-0.154,1.828-0.405,2.128-0.566c0.3-0.162,1.365-0.301,2.373-0.303c1.011-0.002,2.432-0.112,3.148-0.246
    c0.717-0.139,2.328-0.273,3.58-0.297c4.933-0.104,6.23-0.164,6.935-0.368c0.403-0.118,1.017-0.234,1.367-0.258
    c0.712-0.047,2.891-0.254,4.206-0.405c0.476-0.053,1.156-0.226,1.505-0.362c0.349-0.139,1.135-0.275,1.745-0.325
    c1.41-0.103,7.199-1.84,7.903-2.365c0.294-0.217,1.01-0.491,1.587-0.605c0.785-0.153,1.365-0.534,2.323-1.492
    c0.705-0.699,1.658-1.573,2.108-1.957C164.013,290.69,164.736,289.108,164.907,287.314z M154.766,289.376
    c-0.01,0.181-0.026,0.374-0.048,0.574c-0.157,1.624-3.403,3.898-4.854,3.399c-0.331-0.112-0.665-0.042-0.867,0.163
    c-0.182,0.187-0.516,0.319-0.741,0.3c-0.223-0.019-0.532,0.076-0.689,0.209c-0.157,0.136-1.022,0.266-1.915,0.297
    c-0.932,0.037-2.33,0.332-3.289,0.684c-0.922,0.344-2.134,0.638-2.691,0.65c-0.56,0.015-1.642,0.157-2.396,0.31
    c-2.12,0.439-2.626,0.45-3.526,0.071c-1.48-0.633-6.133-1.22-7.54-0.957c-0.684,0.131-1.522,0.271-1.863,0.315
    c-0.34,0.039-1.912,0.578-3.494,1.189c-3.073,1.188-4.29,1.369-5.295,0.793c-3.099-1.774-5.222-6.74-3.486-8.149
    c0.654-0.532,3.094-1.84,4.289-2.295c2.425-0.925,2.92-1.204,2.958-1.655c0.052-0.622,1.734-1.418,2.465-1.168
    c0.314,0.108,0.908,0.054,1.347-0.128c0.427-0.172,0.931-0.25,1.111-0.162c0.448,0.217,3.503-0.25,4.443-0.674
    c0.627-0.282,1.552-0.263,5.144-0.009c3.886,0.302,4.573,0.284,6.123-0.089c2.238-0.541,3.335-0.396,5.217,0.661
    c2.646,1.489,3.708,1.845,6.18,2.002C154.177,285.895,154.934,286.644,154.766,289.376z M153.858,289.524
    c0.034-0.909-0.855-1.717-2.513-2.11c-1.624-0.386-3.925-1.169-4.648-1.587c-0.192-0.114-1.027-0.602-1.862-1.094
    c-2.004-1.182-3.25-1.287-5.584-0.47c-1.574,0.55-1.868,0.581-2.776,0.288c-1.81-0.581-5.574-0.62-7.603-0.075
    c-0.995,0.271-2.199,0.545-2.676,0.607c-2.076,0.28-3.147,0.555-3.678,0.971c-0.316,0.249-1.462,0.689-2.559,0.972
    c-1.096,0.282-2.515,0.76-3.141,1.058c-0.626,0.301-1.346,0.516-1.611,0.493c-2.325-0.196-3.774,2.973-2.325,5.074
    c1.976,2.876,3.744,3.364,7.166,1.959c1.053-0.431,2.053-0.875,2.228-0.986c0.172-0.109,1.23-0.475,2.351-0.816
    c3.112-0.94,6.065-0.739,9.921,0.686c1.321,0.493,1.454,0.504,2.92,0.164c0.849-0.201,2.316-0.434,3.267-0.52
    c0.95-0.083,2.288-0.299,2.975-0.482c0.689-0.189,1.702-0.374,2.244-0.409c1.892-0.133,6.291-1.527,7.073-2.247
    C153.567,290.505,153.84,290.003,153.858,289.524z M214.97,243.311c0.397,1.909,0.626,3.257,0.71,4.295
    c0.104,1.334-0.041,2.155-0.425,2.967c-0.346,0.731-0.871,2.09-1.158,3.009c-0.982,3.138-2.552,4.517-7.336,6.488
    c-9.411,3.871-15.496,5.916-18.981,6.354c-0.867,0.111-2.285,0.353-3.146,0.548c-2.603,0.593-4.246,0.873-4.414,0.731
    c-0.088-0.075-2.435,0.011-5.222,0.174c-4.826,0.294-10.909,0.341-11.382,0.099c-0.123-0.064-0.799-0.167-1.501-0.229
    c-2.461-0.214-4.129-0.536-4.634-0.908c-0.279-0.206-0.824-0.541-1.218-0.749c-1.628-0.855-2.566-1.937-5.133-5.956
    c-1.149-1.796-1.85-5.884-1.286-7.515c0.179-0.524,0.407-1.437,0.509-2.014c0.099-0.58,0.281-1.068,0.398-1.077
    c0.114-0.009,0.599-0.868,1.071-1.902c0.471-1.038,0.951-1.963,1.081-2.054c0.128-0.097,0.216-0.378,0.195-0.643
    c-0.088-1.161,3.614-5.092,5.736-6.09c2.736-1.293,7.585-2.621,9.881-2.714c0.402-0.016,1.486-0.203,2.412-0.419
    c0.927-0.211,3.589-0.629,5.923-0.927c2.331-0.298,5.657-0.736,7.369-0.986c1.713-0.253,4.39-0.496,5.953-0.527
    c1.563-0.032,3.595-0.211,4.523-0.408C205.245,230.637,213.188,234.771,214.97,243.311z M193.967,238.054
    c-1.073,1.246-4.045,2.891-5.404,2.994c-0.669,0.051-2.171,0.861-2.707,1.452c-0.489,0.542-1.779,0.365-2.629-0.367
    c-1.494-1.282-2.354-1.48-3.431-0.806c-1.776,1.114-3.306,1.502-4.175,1.075c-1.007-0.513-2.902-0.383-3.703,0.233
    c-0.671,0.514-2.066,0.685-2.517,0.298c-0.372-0.325-1.74,0.208-2.63,1.019c-0.302,0.275-0.935,0.52-1.397,0.555
    c-0.622,0.047-0.799,0.153-0.686,0.391c0.187,0.395-0.376,1.403-0.798,1.435c-0.966,0.073-0.854,1.426,0.142,1.717
    c1.159,0.341,1.031,1.617-0.171,1.708c-0.464,0.035-0.624-0.152-0.963-1.153l-0.4-1.196l-0.981,1.121
    c-1.774,2.029-0.79,3.536,2.607,4.002c1.296,0.183,1.55,0.719,1.367,2.823c-0.073,0.805,0.03,1.019,0.662,1.588
    c0.864,0.776,0.701,0.763,2.795,0.116c0.905-0.276,1.762-0.672,1.906-0.877c0.145-0.204,0.406-0.384,0.576-0.397
    c0.173-0.013,0.943-0.437,1.709-0.949c4.721-3.165,9.657-4.05,12.08-2.177c2.871,2.223,6.097,1.956,8.646-0.73
    c1.902-2.002,2.766-2.477,5.03-2.601c2.003-0.124,2.9-0.495,4.176-1.723c0.351-0.341,1.056-0.759,1.573-0.944
    c1.104-0.384,1.552-1.045,1.496-1.612c-0.088-0.734-1.023-1.311-2.5-0.933c-2.395,0.6-3.426-0.087-3.024-2.026
    c0.425-2.025,0.067-2.775-1.306-2.749c-0.555,0.014-1.062-0.284-2.078-1.245C195.617,236.567,195.254,236.561,193.967,238.054z
     M212.729,242.732c-0.135-1.036-0.954-1.993-2.957-4.105c-3.38-3.562-4.004-3.809-10.494-4.203
    c-0.902-0.052-2.382,0.619-2.348,1.076c0.075,0.993,2.216,2.172,3.147,1.728c0.978-0.453,1.513,0.16,2.186,2.513
    c0.321,1.121,0.631,2.169,0.69,2.327c0.057,0.155,0.534,0.313,1.051,0.355c3.384,0.293,4.268,2.785,1.746,4.893
    c-0.615,0.516-1.525,1.356-2.024,1.882c-1.749,1.837-3.331,2.579-4.736,2.214c-1.771-0.455-2.226-0.353-2.925,0.68
    c-0.338,0.503-1.032,1.232-1.54,1.633c-0.508,0.4-1.073,0.951-1.26,1.215c-1.143,1.605-6.618,1.26-8.336-0.52
    c-0.609-0.625-2.738-0.987-4.205-0.714c-3.109,0.585-5.245,1.203-5.436,1.577c-0.067,0.126-0.3,0.233-0.526,0.25
    c-0.226,0.017-0.935,0.498-1.573,1.048c-1.648,1.427-3,2.164-4.866,2.642c-1.979,0.506-2.146,0.419-3.307-1.724
    c-0.79-1.449-0.91-2.158-0.561-3.175c0.115-0.343-0.224-0.558-1.749-1.127c-3.508-1.307-4.173-4.038-1.565-6.419
    c0.347-0.315,0.615-0.731,0.601-0.926c-0.061-0.803,2.447-3.466,3.326-3.533c0.451-0.034,1.354-0.377,2.001-0.769
    c1.043-0.634,1.308-0.688,2.44-0.567c1.329,0.138,1.508,0.093,2.813-0.609c1.119-0.601,1.678-0.596,3.319,0.034l1.416,0.544
    l1.7-1.075c2.065-1.33,2.812-1.364,4.725-0.146c1.409,0.892,1.83,0.967,2.946,0.489c0.378-0.163,1.444-0.46,2.372-0.663
    c1.579-0.341,1.754-0.441,2.714-1.609c0.565-0.691,1.371-1.482,1.786-1.749c2.023-1.299-1.677-1.716-5.293-0.602
    c-0.921,0.286-2.271,0.66-2.999,0.825c-0.725,0.167-1.97,0.483-2.761,0.703c-0.791,0.22-2.087,0.487-2.89,0.548
    c-0.802,0.084-2.164,0.294-3.025,0.465c-0.96,0.188-2.142,0.25-3.05,0.156c-1.635-0.168-3.234,0.128-10.021,1.869
    c-0.462,0.122-1.043,0.422-1.292,0.679c-0.25,0.249-0.994,0.799-1.658,1.22c-2.082,1.328-4.448,4.325-5.448,6.898
    c-0.3,0.775-0.775,1.695-1.05,2.052c-0.98,1.278-1.135,1.792-1.121,3.756c0.012,1.867,0.052,2.019,0.677,2.594
    c0.362,0.337,0.86,0.875,1.104,1.204c0.359,0.484,0.942,0.698,2.992,1.095c1.401,0.275,2.688,0.588,2.86,0.701
    c1.35,0.896,6.254,0.815,13.878-0.244c1.2-0.164,3.308-0.599,4.693-0.973c4.606-1.239,6.835-1.692,8.925-1.851
    c2.146-0.149,5.359-1.03,7.96-2.184c0.744-0.326,1.533-0.54,1.754-0.475c0.589,0.177,6.062-0.758,7.728-1.319
    c3.324-1.122,5.696-3.923,7.077-8.355C212.643,244.003,212.81,243.357,212.729,242.732z M199.651,247.055
    c0.4,0.988,2.739-0.107,2.571-1.135c-0.01-0.05-0.018-0.063-0.03-0.096c-0.453-1.388-1.224-1.45-2.102-0.157
    C199.673,246.282,199.523,246.737,199.651,247.055z M190.442,245.833c-0.305-0.025-0.566-0.132-0.574-0.232
    c-0.008-0.106-0.245-0.42-0.533-0.706c-0.352-0.353-0.492-0.718-0.426-1.107c0.074-0.426,0.003-0.581-0.267-0.561
    c-0.204,0.015-0.557-0.025-0.773-0.09c-0.265-0.078-0.454,0.083-0.573,0.482c-0.098,0.333-0.336,0.754-0.537,0.949
    c-0.587,0.57-0.388,1.497,0.36,1.623c0.361,0.065,0.751-0.01,0.891-0.194c0.836-0.969,1.311-0.296,0.883,1.243
    c-0.152,0.55-0.259,1.134-0.253,1.288c0.015,0.426,2.003-0.04,2.346-0.549c0.179-0.266,0.233-0.626,0.204-0.977
    C191.143,246.416,190.851,245.861,190.442,245.833z M193.103,245.922c0.56,0.608,0.903,0.689,1.574,0.366
    c0.257-0.121,0.366-0.311,0.332-0.544c-0.045-0.303-0.323-0.666-0.815-1.041C192.832,243.681,191.95,244.663,193.103,245.922z
     M199.661,244.493c0.01-0.051,0.014-0.079,0.011-0.119c-0.045-0.594-1.599-1.427-2.139-1.083c-0.527,0.334-0.562,1.013-0.085,1.42
    C197.895,245.098,199.53,244.935,199.661,244.493z M181.917,243.966c-0.053-0.695-1.156-1.22-1.759-0.838
    c-0.583,0.37-0.59,0.726-0.009,1.28C180.832,245.058,181.978,244.772,181.917,243.966z M187.714,249.409
    c-0.033-0.441-1.068-1.139-1.618-1.092c-1.177,0.089-1.761,1.522-0.927,2.236C185.686,250.997,187.764,250.062,187.714,249.409z
     M173.873,245.194c0.333-0.275,0.493-0.52,0.465-0.748c-0.029-0.236-0.242-0.451-0.637-0.667c-1.148-0.637-2.16,0.753-1.169,1.598
    C172.952,245.738,173.257,245.701,173.873,245.194z M199.922,195.62c0.246-0.478,0.364-0.91,0.372-1.234
    c0.019-0.716-0.473-0.937-1.136-0.103c-0.635,0.789-0.716,1.323-0.277,1.76C199.321,196.485,199.514,196.409,199.922,195.62z
     M198.604,187.635c0.006-0.064-0.005-0.125-0.011-0.193c-0.014-0.154-0.062-0.319-0.138-0.476c-0.489-1.033-0.486-1.027-1.522-0.397
    c-0.875,0.534-1.021,1.206-0.391,1.83C197.36,189.218,198.546,188.592,198.604,187.635z M194.839,192.025
    c0.307,0.308,0.831,0.163,0.968-0.266c0.076-0.235,0.246-0.668,0.383-0.957c0.138-0.291,0.193-0.512,0.171-0.66
    c-0.048-0.322-0.443-0.269-0.98,0.246C194.707,191.037,194.492,191.678,194.839,192.025z M193.118,187.207
    c0.12-0.277,0.431-0.546,0.7-0.593c0.655-0.12,0.973-0.563,0.991-1.021c0.022-0.59-0.448-1.212-1.309-1.212
    c-0.518,0-1.777,1.497-1.52,1.805c0.196,0.235,0.048,0.433-0.596,0.781c-0.968,0.517-0.931,0.451-0.596,1.083
    C191.179,188.779,192.657,188.251,193.118,187.207z M202.827,188.74c0.708-0.322,2.35,0.286,2.35,0.873
    c0,0.456,0.526,0.596,1.052,0.274c0.355-0.218,0.512-0.154,0.862,0.308c0.322,0.422,0.716,0.587,1.5,0.63
    c0.803,0.047,1.099,0.165,1.234,0.531c0.097,0.263,0.344,0.624,0.554,0.797c0.207,0.173,0.319,0.473,0.244,0.669
    c-0.423,1.097,1.205,1.516,2.244,0.573c0.912-0.822,1.735-0.842,2.733-0.072c0.495,0.386,1.069,0.756,1.276,0.839
    c0.571,0.235,0.744,0.047,0.744-0.915c0-1.581-0.304-1.835-1.955-1.647c-0.839,0.097-1.578,0.064-1.757-0.076
    c-0.168-0.131-0.859-0.386-1.531-0.565c-0.702-0.182-1.698-0.711-2.35-1.251c-0.621-0.515-1.365-0.938-1.648-0.938
    c-0.283,0-1.063-0.338-1.743-0.755c-0.903-0.554-1.418-0.728-1.916-0.627c-0.44,0.087-0.949-0.048-1.455-0.342
    c-1.362-0.828-2.49-0.453-2.49,0.842C200.773,188.516,202.102,189.067,202.827,188.74z M219.821,195.841
    c1.228,0,1.477,0.395,0.915,1.43c-0.288,0.52-0.439,1.107-0.352,1.337c0.216,0.562,1.183,0.514,1.829-0.087
    c0.361-0.336,0.512-0.487,0.49-0.635c-0.019-0.12-0.137-0.235-0.361-0.456c-0.33-0.333-0.35-0.506-0.117-0.875
    c0.453-0.728,0.327-1.276-0.459-2.138c-0.875-0.96-2.476-1.066-2.646-0.17c-0.05,0.266-0.257,0.612-0.467,0.766
    C218.198,195.346,218.9,195.841,219.821,195.841z M190.746,191.6c0.123-0.322,0.176-0.607,0.17-0.851
    c-0.022-0.728-0.559-1.016-1.139-0.308c-0.537,0.655-0.607,1.511-0.17,1.945C190.052,192.833,190.363,192.613,190.746,191.6z
     M194.277,193.695c-0.613-0.087-1.31,0.758-1.31,1.598c0,0.428,0.14,0.548,0.607,0.548c0.738,0,1.27-0.769,1.287-1.39
    C194.873,194.079,194.699,193.757,194.277,193.695z M203.54,194.672c-0.756-0.107-1.438,0.951-1.066,1.65
    c0.151,0.28,0.355,0.501,0.458,0.501c0.616,0,1.074-0.795,1.094-1.416C204.041,195.033,203.895,194.725,203.54,194.672z
     M116.243,79.366c1.908,1.092,3.665-0.607,3.679-2.479c0.006-0.727-0.257-1.488-0.881-2.115c-1.811-1.81-5.537,0.261-4.51,2.499
    C115.194,78.714,115.275,78.812,116.243,79.366z M92.901,191.6c0,0.184,0.115,0.341,0.243,0.341c0.129,0,0.499,0.291,0.82,0.635
    c0.322,0.347,0.847,0.766,1.17,0.94c1.239,0.663,3.573-0.386,4.487-2.023l0.638-1.139l-0.756-0.668
    c-0.887-0.792-1.205-0.826-1.989-0.213c-1.22,0.951-1.581,0.89-2.882-0.448c-1.396-1.435-1.273-1.396-2.285-0.688
    c-0.431,0.299-0.82,0.577-0.87,0.607c-0.168,0.09,0.68,1.698,1.064,2.014C92.742,191.129,92.901,191.412,92.901,191.6z
     M141.096,220.602c-2.561-0.979-3.531,1.323-1.108,2.613c0.458,0.244,0.959,0.37,1.108,0.289c0.786-0.443,1.175-1.027,1.177-1.564
    C142.28,221.399,141.879,220.898,141.096,220.602z M124.399,117.139c-1.158-1.43-1.533-8.841-0.543-10.783
    c0.286-0.557,0.624-1.432,0.756-1.947c2.003-7.943,6.15-11.364,11.337-9.348c2.096,0.817,2.846,0.809,3.956-0.064
    c1.416-1.117,2.479-1.024,3.934,0.352c0.716,0.677,1.298,1.382,1.298,1.564c0,0.179,0.221,0.468,0.49,0.635
    c0.266,0.168,0.486,0.501,0.486,0.747s0.431,1.209,0.968,2.127c0.537,0.92,0.979,1.824,0.979,2.023c0,0.193,0.229,0.504,0.501,0.688
    c0.496,0.342,1.203,2.493,1.36,4.116c0.044,0.47,0.19,1.673,0.308,2.669c0.061,0.498,0.081,1.035,0.087,1.499
    c0.003,0.465-0.011,0.857-0.064,1.064c-0.107,0.414-0.258,1.245-0.33,1.852c-0.199,1.645-1.354,6.113-1.808,6.994
    c-0.125,0.246-0.193,0.991-0.148,1.651c0.067,1.038-0.016,1.304-0.637,2.006c-0.395,0.453-0.895,1.183-1.117,1.617
    c-0.223,0.439-0.47,0.839-0.554,0.906s-0.414,0.509-0.733,0.976c-0.8,1.178-1.844,1.973-2.915,2.225
    c-1.306,0.302-7.585,0.216-8.592-0.117c-2.803-0.932-6.158-4.773-6.519-7.465c-0.072-0.537-0.282-1.102-0.467-1.256
    c-0.185-0.154-0.33-0.389-0.33-0.52c0-0.129-0.21-0.529-0.456-0.885c-0.248-0.355-0.582-1.189-0.747-1.858
    C124.735,117.939,124.508,117.273,124.399,117.139z M139.764,105.313c0,2.954,0.901,3.861,2.414,2.445
    c0.434-0.403,0.627-0.943,0.619-1.469c-0.014-0.87-0.574-1.673-1.489-1.723c-0.165,0-0.422-0.216-0.565-0.484
    C140.167,103.001,139.764,103.508,139.764,105.313z M134.809,107.131c0.286,2.056,1.531,2.202,2.065,0.246
    c0.333-1.231,0.487-2.232,0.456-2.988c-0.051-1.262-0.61-1.855-1.66-1.735C134.932,102.739,134.51,104.963,134.809,107.131z
     M128.184,105.005c0.185,0.101,0.506,0.655,0.713,1.248c0.705,1.993,1.816,2.255,3.053,0.722c0.599-0.747,0.831-1.295,0.892-2.129
    c0.025-0.33,0.05-0.607,0.042-0.829v-0.014c-0.025-0.948-0.496-0.996-2.775-0.948l-1.732,0.047l-0.255,0.848
    C127.913,104.63,127.921,104.856,128.184,105.005z M126.609,110.556c0.053,1.992,0.229,2.963,1.001,5.607
    c1.299,4.443,1.892,5.285,4.18,5.996c3.324,1.033,7.72,1.061,10.411,0.054c1.567-0.588,2.446-1.164,2.446-1.598
    c0-0.12,0.263-0.574,0.584-0.996c1.195-1.589,2.269-7.202,2.275-10.464c0-1.088-0.132-1.905-0.403-2.232
    c-0.618-0.747-1.547-0.495-2.213,0.59c-0.332,0.552-0.937,1.153-1.34,1.343c-0.402,0.193-1.063,0.559-1.466,0.82
    c-1.348,0.862-2.439,0.903-3.169,0.115c-0.524-0.562-0.713-0.635-1.052-0.403c-1.704,1.164-2.963,1.463-3.467,0.817
    c-0.518-0.66-1.466-0.971-2.191-0.722c-0.987,0.347-2.266,0.179-3.724-0.509C126.772,108.166,126.553,108.351,126.609,110.556z
     M134.49,121.126c0.63,0.12,1.226,0.308,1.318,0.403c0.394,0.408,3.483-0.101,4.722-0.775c2.376-1.296,3.845-3.83,3.839-5.775
    c-0.006-1.016-0.408-1.864-1.306-2.288c-0.403-0.188-1.033-0.509-1.404-0.71c-0.901-0.487-2.113-0.098-3.212,1.035
    c-1.001,1.029-0.923,1.035-2.479-0.14c-1.541-1.167-4.974-1.589-6.018-0.747C127.826,113.846,131.189,120.508,134.49,121.126z
     M83.565,162.835c0.521,0.968,0.562,0.968,1.508,0.084c0.517-0.481,0.75-0.733,0.713-1.013c-0.028-0.216-0.232-0.448-0.574-0.817
    C83.708,159.467,82.462,160.785,83.565,162.835z M102.1,159.727c-0.873,0-1.827,1.637-1.48,2.54
    c0.282,0.739,1.522,0.446,1.978-0.467c0.075-0.148,0.115-0.361,0.117-0.582C102.721,160.55,102.433,159.727,102.1,159.727z
     M88.637,158.465c-0.635-0.107-0.839,0.973-0.266,1.39c0.509,0.378,1.967,0.092,1.967-0.383
    C90.338,159.111,89.497,158.605,88.637,158.465z M95.537,161.719c-0.596,0.081-0.677,1.195-0.137,1.849
    c0.302,0.361,1.08,0.408,1.287,0.072c0.059-0.097,0.078-0.232,0.064-0.38C96.687,162.614,96.009,161.652,95.537,161.719z
     M107.875,152.296c-0.33,0.856,0.156,1.958,0.965,2.221c0.437,0.145,0.839,0.28,0.895,0.299c0.552,0.185,1.024-1.298,1.011-2.339
    c-0.006-0.476-0.115-0.85-0.361-0.948C109.867,151.334,108.029,151.89,107.875,152.296z M105.106,145.063
    c-0.004-0.318-0.159-0.464-0.487-0.464c-0.289,0-0.602-0.26-0.764-0.621c-0.294-0.646-0.425-0.693-1.043-0.458
    c-0.596,0.232-0.453,0.979,0.289,1.536C103.996,145.721,105.096,145.734,105.106,145.063z M105.343,155.88
    c-0.65,0.776-0.594,1.273,0.254,1.99c0.926,0.781,1.833,0.495,2.084-0.649c0.02-0.087,0.031-0.165,0.031-0.246h0.003
    C107.761,155.757,106.149,154.915,105.343,155.88z M165.415,107.257c0.022,0.755-0.112,1.645-0.414,2.652
    c-0.873,2.887-2.099,3.643-4.488,2.781c-3.355-1.203-3.386-5.179-0.053-7.263C163.341,103.628,165.339,104.577,165.415,107.257z
     M163.372,108.818c-0.003-0.159-0.056-0.319-0.137-0.498c-0.353-0.761-1.198-0.764-1.488,0c-0.12,0.319-0.451,0.632-0.733,0.703
    c-0.492,0.131-0.526,0.926-0.075,1.723c0.322,0.568,1.617,0.011,2.084-0.895c0.244-0.465,0.358-0.75,0.35-1.018V108.818z
     M186.876,190.475c0.079-0.193,0.12-0.414,0.126-0.632c0-0.067-0.006-0.14-0.011-0.21c-0.042-0.618-0.342-1.155-0.711-1.032
    c-0.481,0.16-0.738,1.326-0.436,1.989C186.216,191.407,186.499,191.379,186.876,190.475z M151.727,117.976
    c1.175-3.556,5.554-4.586,8.147-1.911l1.189,1.223l-0.159,1.594c-0.339,3.31-2.462,5.072-5.156,4.297
    C153.258,122.463,151.149,119.738,151.727,117.976z M155.364,119.786c0.148,0.179,0.191,0.395,0.107,0.479
    c-0.501,0.504,0.213,0.923,1.435,0.85c1.256-0.072,1.292-0.095,1.883-1.211c0.241-0.459,0.327-0.879,0.299-1.223
    c-0.092-1.035-1.212-1.421-2.255-0.299c-0.327,0.352-0.853,0.741-1.17,0.862C155.219,119.416,155.157,119.536,155.364,119.786z
     M130.333,82.239c1.052-1.796,3.273-4.443,3.934-4.669c0.269-0.092,0.795-0.409,1.161-0.714c0.501-0.417,1.111-0.601,2.51-0.736
    l1.861-0.168l2.244,2.118c1.233,1.164,2.501,2.361,2.817,2.655c1.055,0.988,1.634,2.316,1.626,3.492
    c-0.003,0.534-0.12,1.035-0.38,1.452c-1.676,2.717-3.694,3.285-9.879,2.798c-1.343-0.1-2.879-0.307-3.416-0.458
    c-0.534-0.143-1.245-0.311-1.584-0.38C129.566,87.298,129.082,84.374,130.333,82.239z M141.169,85.748
    c0.862-0.151,1.614-0.415,1.682-0.588c0.014-0.044,0.028-0.098,0.019-0.168c-0.098-1.055-2.699-4.902-3.69-5.35
    c-1.312-0.602-3.881,1.483-5.35,4.337C132.977,85.647,136.659,86.531,141.169,85.748z M156.845,75.337
    c0.696,0.336,2.75,0.048,3.156-0.458c0.269-0.333,0.398-0.867,0.395-1.416c-0.006-0.909-0.345-1.866-0.904-2.065
    c-0.403-0.14-0.791-0.47-0.862-0.73c-0.285-1.094-3,0.515-3,1.776c0,0.294-0.156,0.75-0.35,1.03
    C154.923,73.983,155.508,74.685,156.845,75.337z M159.469,99.913c0.582,0.336,0.668,0.316,1.245-0.173
    c0.462-0.389,0.641-0.803,0.607-1.117c-0.056-0.52-0.691-0.761-1.511-0.179C158.951,99.057,158.837,99.541,159.469,99.913z
     M308.416,92.924c-1.419,2.705-3.634,4.143-6.105,3.989c-0.711-0.047-0.716-0.025,0.031,2.533
    c2.653,9.053-2.042,16.291-10.57,16.342c-1.83,0.009-2.157,0.162-2.157,0.998c0,0.814,0.473,1.937,0.809,1.937
    c0.126,0,0.182,0.274,0.115,0.615c-0.064,0.342,0.011,1.027,0.182,1.522c1.975,5.774-6.745,13.656-13.858,12.503
    c-2.341-0.375-2.361-0.361-1.508,1.522c1.556,3.447,0.523,5.845-3.565,8.256c-2.591,1.525-6.821,2.132-8.539,1.212
    c-0.652-0.352-0.671-0.193-0.531,3.167l0.117,3.052l2.244,2.191c3.621,3.556,5.297,5.081,6.785,6.18
    c0.769,0.568,1.612,1.443,1.871,1.945c0.26,0.498,1.531,1.98,2.818,3.288c1.53,1.55,2.518,2.767,2.839,3.517
    c0.271,0.632,0.957,1.925,1.542,2.873c0.584,0.949,1.359,2.605,1.723,3.679c0.364,1.071,0.747,2.068,0.85,2.205
    c0.549,0.716,0.703,4.818,0.202,5.42c-0.14,0.173-0.339,1.164-0.448,2.205c-0.249,2.414-1.925,6.37-3.635,8.581
    c-0.478,0.616-1.283,1.718-1.788,2.454c-2.87,4.216-5.934,6.527-11.165,8.416c-0.873,0.311-2.426,0.957-3.456,1.432
    c-1.029,0.478-2.859,1.2-4.073,1.609c-1.214,0.403-2.851,1.055-3.626,1.444c-1.617,0.809-3.318,1.39-5.072,1.743
    c-0.671,0.135-2.045,0.471-3.052,0.744c-3.114,0.848-9.826,1.763-12.932,1.715c-4.681-0.04-6.348,0.4-6.348,1.698
    c0,0.254-0.252,0.599-0.554,0.756c-0.302,0.159-1.315,1.074-2.255,2.042c-3.732,3.856-7.828,4.424-14.398,1.967
    c-2.546-0.948-3.144-1.144-4.521-1.458c-0.736-0.162-1.947-0.596-2.7-0.957c-0.75-0.358-1.452-0.646-1.564-0.646
    c-0.11,0-0.384-0.143-0.596-0.33c-0.496-0.433-2.821-1.214-5.145-1.723c-2.535-0.554-4.362-1.061-7.563-2.104
    c-2.294-0.753-2.689-0.788-2.689-0.279c0,0.248-0.43,1.035-0.968,1.757c-1.111,1.488-1.089,1.362-0.627,4.188
    c0.059,0.362,0.12,0.689,0.184,0.998c-1.589,2.1-3.355,4.06-5.096,6.083c-0.59,0.077-1.137,0.229-1.621,0.471
    c-4.617,2.314-9.398,3.534-14.078,3.607c-1.679,0.022-3.212,0.1-3.414,0.156c-2.275,0.647-19.842,1.306-22.089,0.829
    c-0.671-0.14-2.818-0.415-4.762-0.602c-14.742-1.43-26.157-3.341-29.895-5.019c-0.537-0.241-2.02-0.769-3.295-1.181
    c-2.636-0.845-4.832-1.706-5.372-2.087c-0.909-0.64-3.792-1.84-6.194-2.675c-0.304-0.249-0.609-0.497-0.914-0.741
    c-0.57-1.113-0.914-2.295-1.093-3.527c0.257-1.335,0.46-2.677,0.607-4.022c0.179-0.421,0.375-0.962,0.653-1.709
    c0.499-1.343,1.069-2.627,1.265-2.854c0.509-0.582,0.207-1.256-0.892-1.99c-2.359-1.558-5.881-5.615-5.881-6.781
    c0-0.236-0.853-2.714-1.894-5.478c-0.33-0.878-0.43-1.631-0.349-2.593c0.145-1.771-0.037-1.819-1.776-0.543
    c-0.803,0.588-2.051,1.483-2.765,1.987c-0.716,0.512-1.76,1.354-2.319,1.871c-1.024,0.954-3.562,2.683-4.924,3.36
    c-0.403,0.205-1.063,0.534-1.466,0.739c-0.403,0.196-0.954,0.483-1.223,0.635c-1.757,0.982-4.983,2.275-7.445,2.98
    c-1.008,0.289-2.549,0.736-3.425,0.999c-0.875,0.26-1.723,0.467-1.894,0.467c-0.33,0-3.937,1.114-4.933,1.522
    c-0.336,0.135-1.267,0.443-2.073,0.678c-1.791,0.531-2.899,0.926-4.021,1.415c-1.412,0.599-12.402,0.616-13.675,0
    c-0.518-0.243-1.117-0.456-1.329-0.456c-0.213,0-0.825-0.218-1.352-0.487c-0.526-0.269-1.091-0.49-1.253-0.49
    c-0.47,0-5.617-3.548-6.457-4.443c-2.876-3.091-5.35-7.24-6.306-10.584c-1.726-6.051-2.227-11.544-1.34-14.898
    c0.282-1.063,0.666-2.694,0.853-3.64c0.378-1.899,4.53-10.484,5.688-11.768c0.693-0.769,1.726-2.272,3.561-5.193
    c1.522-2.417,7.488-8.332,10.752-10.668c1.34-0.957,3.148-2.294,4.02-2.975c5.369-4.191,10.215-6.983,17.45-10.038
    c1.074-0.453,2.121-0.965,2.331-1.136c0.324-0.271,1.95-0.932,7.187-2.918c0.537-0.202,1.961-0.697,3.17-1.102
    c1.208-0.409,2.638-0.935,3.178-1.17c0.54-0.241,1.866-0.683,2.935-0.968c1.071-0.288,2.487-0.722,3.159-0.971
    c2.294-0.854,7.576-2.359,9.04-2.58c0.269-0.044,1.421-0.271,2.563-0.492c1.142-0.221,2.319-0.443,2.616-0.49
    c0.296-0.044,0.949-0.213,1.458-0.38c0.508-0.17,1.586-0.448,2.392-0.618c3.366-0.716,4.706-1.058,5.976-1.52
    c0.738-0.271,2.795-0.959,4.575-1.522c1.776-0.568,3.242-1.105,3.242-1.211c0-0.112,0.188-0.4,0.414-0.627
    c0.389-0.389,0.389-0.453,0-1.13c-0.226-0.395-0.414-1.102-0.414-1.575c0-0.471-0.218-1.592-0.467-2.488
    c-0.252-0.892-0.577-2.165-0.736-2.84c-0.473-1.995-0.801-2.316-2.306-2.316c-1.271,0-2.957-0.562-5.148-1.704
    c-0.531-0.274-1.082-0.509-1.223-0.509c-0.523-0.019-1.819-1.382-2.893-3.053c-0.612-0.948-1.295-1.886-1.522-2.073
    c-0.336-0.28-0.38-0.619-0.254-1.936c0.115-1.195,0.056-1.771-0.224-2.297c-0.216-0.409-0.279-0.817-0.159-0.977
    c0.115-0.148,0.122-1.418,0.011-2.828c-0.12-1.522-0.115-2.859,0.022-3.298c0.123-0.403,0.299-2.107,0.384-3.783
    c0.084-1.678,0.263-3.354,0.403-3.727c0.191-0.495,0.179-0.758-0.042-1.029c-0.165-0.196-0.232-0.543-0.148-0.756
    c0.082-0.213,0.026-0.602-0.117-0.87c-0.461-0.862-0.943-3.058-1.044-4.764c-0.053-0.915-0.221-2.255-0.372-2.966
    c-0.289-1.377-0.191-5.05,0.193-7.49c0.126-0.803,0.344-2.286,0.49-3.298c0.506-3.528,1.43-7.286,2.529-10.366
    c0.336-0.94,0.901-2.532,1.256-3.539c1.575-4.485,4.938-9.449,8.357-12.327c0.915-0.77,2.222-1.914,2.893-2.549
    c0.672-0.638,1.544-1.343,1.947-1.566c0.4-0.221,0.892-0.509,1.094-0.638c0.201-0.126,0.971-0.493,1.713-0.82
    c0.744-0.322,1.503-0.769,1.682-0.987c0.179-0.216,0.453-0.395,0.604-0.395c0.151,0,1.046-0.529,1.99-1.17
    c0.943-0.638,2.476-1.472,3.413-1.846c0.937-0.38,2.303-0.968,3.041-1.309c2.86-1.329,5.94-2.046,11.231-2.63
    c1.813-0.196,4.076-0.49,5.03-0.649c2.205-0.361,7.071,0.097,8.391,0.789c2.988,1.57,6.471,3.159,6.922,3.159
    c0.292,0,1.335,0.543,2.32,1.212c0.982,0.671,1.942,1.223,2.137,1.223c0.196,0,0.929,0.38,1.626,0.853
    c0.699,0.467,1.412,0.862,1.586,0.862c0.37,0,2.146,1.089,2.37,1.452c0.087,0.14,0.358,0.246,0.596,0.246
    c0.241,0,0.624,0.227,0.862,0.493c0.238,0.263,0.842,0.596,1.329,0.741c0.486,0.148,1.374,0.464,1.978,0.716
    c0.604,0.246,1.978,0.635,3.053,0.856c1.074,0.227,2.227,0.515,2.563,0.641c0.336,0.126,1.108,0.319,1.713,0.439
    c0.604,0.115,1.917,0.377,2.924,0.582c1.007,0.201,2.652,0.489,3.659,0.649c1.007,0.154,2.381,0.395,3.053,0.52
    c0.671,0.123,1.883,0.297,2.689,0.384c0.806,0.087,1.679,0.279,1.947,0.425c0.724,0.389,3.212,0.596,10.06,0.851
    c3.38,0.126,6.267,0.305,6.413,0.395c0.143,0.087,2.927,0.193,6.178,0.241c5.234,0.072,9.098,0.38,9.708,0.755
    c0.112,0.073,1.01,0.16,1.99,0.213c0.979,0.059,2.252,0.286,2.839,0.493c0.588,0.21,1.36,0.369,1.713,0.369
    c1.595-0.006,11.7,2.23,14.059,3.108c2.182,0.812,10.128,4.977,11.41,5.985c0.47,0.369,0.945,0.674,1.074,0.674
    c0.282,0,3.172,1.852,3.36,2.154c0.073,0.106,0.395,0.17,0.713,0.106c0.423-0.081,0.943,0.188,1.902,0.968
    c0.725,0.593,1.897,1.382,2.605,1.768c0.837,0.45,2.994,2.392,6.136,5.486c2.669,2.627,5.71,5.598,6.765,6.602
    c1.491,1.425,6.558,6.64,9.719,10.008c5.112,5.448,8.808,7.798,13.911,8.802c0.8,0.16,1.793,0.54,2.199,0.842
    c0.409,0.305,1.55,1.013,2.543,1.595C310.215,82.863,311.322,87.379,308.416,92.924z M102.45,93.498
    c-0.03-0.641-0.17-1.427-0.403-2.317c-0.195-0.749-0.358-2.031-0.364-2.839c-0.003-0.809-0.182-2.132-0.392-2.935
    c-0.213-0.806-0.366-1.738-0.352-2.076c0.101-2.354,0.022-4.74-0.16-4.924c-0.741-0.742-4.364-0.143-4.051,0.674
    c0.076,0.193,0.031,0.492-0.106,0.66c-0.8,0.982-0.923,5.1-0.191,6.569c0.26,0.52,0.37,1.387,0.349,2.733
    c-0.039,2.98,0.44,3.861,3.265,5.998c1.024,0.775,1.735,0.741,2.179-0.087C102.4,94.634,102.48,94.141,102.45,93.498z
     M108.119,100.293c0.872,2.739,1.709,5.579,2.157,7.33c1.215,4.737,3.192,8.766,7.19,14.633
    c5.109,7.504,11.068,12.568,17.291,14.686c2.084,0.708,5.984,0.63,9.401-0.193c6.34-1.531,9.073-3.033,10.984-5.988
    c0.559-0.862,1.284-1.735,1.606-1.945c0.324-0.213,0.584-0.531,0.584-0.693c0-0.165,0.241-0.509,0.524-0.767
    c0.859-0.778,1.748-2.482,1.595-3.069c-0.188-0.719,0.464-1.415,1.329-1.415c0.552,0,0.89-0.274,1.713-1.382
    c4.199-5.683,6.27-12.551,8.379-27.791c0.218-1.578,0.308-4.376,0.297-7.422c-0.017-5.07-0.311-10.811-0.786-12.644
    c-0.324-1.248-0.59-2.504-0.596-2.806c-0.022-3.287-6.625-6.259-14.28-6.42c-1.343-0.031-2.829-0.12-3.299-0.205
    c-0.47-0.087-3.536-0.254-6.826-0.375c-3.713-0.129-6.813-0.37-8.178-0.624c-2.504-0.473-5.708-1.359-5.87-1.62
    c-0.059-0.095-0.604-0.408-1.212-0.702c-0.607-0.294-1.384-0.904-1.723-1.346c-0.339-0.445-0.876-0.867-1.2-0.948
    c-0.655-0.165-1.205-1.049-1.553-2.499c-0.125-0.52-0.392-1.609-0.596-2.417c-0.204-0.803-0.439-2.053-0.523-2.795
    c-0.311-2.784-1.561-1.796-4.423,3.531c-0.641,1.2-1.95,2.96-3.892,5.243c-0.537,0.63-1.309,1.626-1.712,2.213
    c-0.403,0.587-1.155,1.46-1.679,1.936c-0.526,0.476-1.407,1.324-1.958,1.883c-0.549,0.557-1.455,1.236-2.021,1.519
    c-2.495,1.237-3.911,3.419-4.264,6.519c-0.405,3.561,0.991,18.361,1.902,20.152c0.185,0.361,0.443,1.352,0.566,2.2
    C107.167,96.919,107.645,98.816,108.119,100.293z M82.768,168.087c-3.411-4.104-3.433-5.839-0.118-11.314
    c1.083-1.791,2.247-3.139,6.041-6.986c2.582-2.621,4.7-4.852,4.7-4.958c0-0.104,1.324-1.531,2.935-3.167
    c1.609-1.637,2.924-3.089,2.924-3.235c0-0.143,0.193-0.467,0.414-0.711c0.738-0.819,0.095-1.67-1.265-1.67
    c-2.087,0-5.623,3.29-8.709,8.094c-0.361,0.559-0.951,1.281-2.935,3.626c-2.026,2.392-2.881,3.469-2.881,3.623
    c0,0.101-0.531,0.736-1.192,1.424c-0.658,0.694-1.265,1.483-1.352,1.749c-0.084,0.266-0.307,0.534-0.486,0.607
    c-0.182,0.067-0.638,0.75-1.021,1.505c-0.386,0.761-0.876,1.564-1.086,1.791c-0.405,0.433-1.2,2.647-1.211,3.38
    c-0.006,0.246-0.176,0.655-0.372,0.915c-1.016,1.343,0.235,6.155,1.743,6.734c0.316,0.12,0.733,0.577,0.926,1.018
    c0.514,1.189,1.488,2.384,2.392,2.938c2.387,1.449,4.484,2.353,5.422,2.4c0.554,0.014,1.27,0.12,1.606,0.233
    c0.837,0.282,2.68,0.159,5.011-0.347c3.719-0.809,7.199-2.286,7.199-3.058c0-0.104,0.68-0.663,1.519-1.251
    c6.044-4.225,15.819-16.784,15.794-19.792c-0.003-0.314-0.104-0.506-0.33-0.596c-0.408-0.154-1.606,0.721-1.606,1.183
    c0,0.12-0.694,1.038-1.531,2.04c-0.839,1.001-2.109,2.545-2.821,3.447c-0.708,0.895-2.954,3.282-4.996,5.304
    c-2.043,2.023-4.214,4.25-4.818,4.958C96.709,174.933,88.489,174.98,82.768,168.087z M88.691,170.893
    c1.829,1.262,3.287,1.463,5.805,0.809c1.117-0.288,1.738-0.587,1.788-0.837c0.006-0.034,0.006-0.039,0-0.087
    c-0.034-0.458-0.998-0.655-1.958-0.361c-1.813,0.554-2.619,0.574-3.775,0.062C88.593,169.614,87.26,169.911,88.691,170.893z
     M117.307,165.941c0,0.882,8.539,3.349,13.057,3.775c4.854,0.456,5.982,0.428,8.466-0.238c0.487-0.129,1.011-0.389,1.17-0.582
    c0.16-0.193,0.638-0.428,1.064-0.52c1.55-0.342,3.458-1.892,4.689-3.797c2.266-3.508,4.966-8.919,6.496-13.029
    c3.587-9.616,3.676-9.989,3.712-13.729c0.006-0.89,0.017-1.698,0.011-2.286c-0.006-0.587-0.016-0.948-0.034-0.948
    c-0.031,0-0.711,0.641-1.508,1.43c-0.8,0.786-1.766,1.561-2.149,1.72c-0.403,0.168-0.811,0.585-0.968,0.999
    c-0.151,0.4-0.456,0.738-0.671,0.738c-0.213,0-0.381,0.095-0.381,0.21c0,0.118-0.302,0.204-0.671,0.204
    c-0.848,0-3.838,0.224-7.146,0.552c-5.375,0.531-11.877-0.504-13.208-2.107c-0.148-0.179-0.375-0.327-0.498-0.327
    c-0.126,0-0.632-0.327-1.128-0.713c-0.495-0.389-1.393-0.962-2.001-1.276c-0.607-0.316-1.27-0.716-1.465-0.884
    c-0.199-0.168-1.352-1.041-2.555-1.945c-2.177-1.642-4.06-3.841-4.89-5.68c-0.213-0.473-0.702-1.18-1.086-1.584
    c-0.383-0.405-1.105-1.508-1.606-2.445c-0.873-1.642-1.136-2.096-2.658-4.501c-0.822-1.298-1.105-1.091-1.575,1.142
    c-0.163,0.775-0.402,1.902-0.531,2.507c-0.126,0.602-0.283,1.536-0.35,2.076c-0.067,0.534-0.23,1.64-0.372,2.445
    c-0.968,5.495-1.083,9.183-0.33,10.498c0.311,0.539,0.685,1.578,0.839,2.313c0.372,1.771,0.386,1.782,2.616,1.723
    c2.697-0.072,3.092,0.428,3.83,4.916c0.176,1.076,0.377,1.242,1.158,0.943c3.674-1.396,6.01,0.336,6.072,4.499
    c0.016,1.074,0.134,2.639,0.266,3.481c0.204,1.276,0.19,1.628-0.138,2.123c-0.215,0.333-0.402,0.756-0.402,0.949
    c0,0.195-0.574,1.082-1.279,1.97C119.136,163.087,117.307,165.638,117.307,165.941z M105.206,141.662
    c0.14-0.879,0.09-0.985-0.577-1.327c-0.397-0.207-0.803-0.54-0.915-0.738c-0.26-0.467-1.942,0.294-3.307,1.503
    c-0.504,0.442-1.019,0.809-1.147,0.809c-0.271,0-12.699,12.467-12.699,12.735c0,0.101-0.596,0.862-1.329,1.682
    c-0.73,0.822-1.409,1.732-1.499,2.02c-0.087,0.294-0.33,0.728-0.54,0.968c-2.04,2.32-1.271,5.179,1.945,7.272
    c3.407,2.224,5.083,2.412,5.083,0.568c0-1.371,0.75-1.886,1.777-1.212c0.867,0.568,1.038,1.458,0.436,2.306
    c-0.602,0.837-0.405,1.094,0.71,0.887c0.471-0.092,1.576-0.251,2.445-0.352c3.713-0.433,9.977-5.243,13.667-10.497
    c0.604-0.862,1.573-2.152,2.146-2.874c1.413-1.768,2.012-2.692,1.97-3.467c-0.028-0.461-0.288-0.87-0.736-1.382
    c-0.758-0.864-0.945-1.746-1.158-5.414c-0.042-0.708-1.34-1.021-3.179-0.766C105.678,144.748,104.831,143.998,105.206,141.662z
     M97.358,132.079c1.754-0.042,3.744,0.853,4.614,2.076c0.554,0.775,0.828,0.851,1.044,0.297c0.081-0.21,0.137-0.703,0.137-1.089
    c0-1.049,0.96-6.55,1.382-7.932c0.655-2.138,1.491-5.322,1.798-6.824c0.163-0.806,0.358-1.594,0.425-1.768
    c0.022-0.056,0.037-0.11,0.031-0.157c-0.014-0.291-0.761-0.104-3.998,0.85c-4.418,1.301-3.881,0.462-6.01,9.454
    C95.509,132.373,95.472,132.126,97.358,132.079z M79.788,177.118c-3.217-3.254-5.923-7.28-5.923-8.819
    c0-0.602-2.109,0.274-4.221,1.746c-0.929,0.646-2.667,1.536-4.446,2.272c-0.803,0.338-1.738,0.758-2.074,0.94
    c-0.336,0.182-1.648,0.557-2.924,0.837c-1.276,0.28-3.421,0.741-4.764,1.035c-1.343,0.289-2.614,0.613-2.828,0.722
    c-1.259,0.635-6.136,1.463-8.763,1.511c-3.508,0.039-3.903-0.082-3.903-1.159c0-1.703,3.399-3.298,7.031-3.298
    c1.506-0.003,4.043-0.342,5.423-0.722c2.283-0.63,5.128-1.564,6.336-2.084c0.739-0.316,2.113-0.87,3.053-1.226
    c3.035-1.136,4.628-1.841,5.498-2.431c0.47-0.322,1.785-1.069,2.926-1.651l2.073-1.055l0.042-1.455
    c0.039-1.5,0.534-2.733,1.978-4.905c1.684-2.532,3.796-5.629,4.169-6.147c1.757-2.42,2.467-3.301,3.807-4.686
    c0.839-0.872,2.113-2.297,2.84-3.172c0.725-0.87,1.516-1.805,1.754-2.071c1.533-1.74,3.159-3.878,3.372-4.437
    c0.386-1.016,1.127-3.995,1.306-5.207c0.09-0.607,0.372-1.757,0.618-2.566c0.243-0.806,0.504-1.958,0.593-2.56
    c0.09-0.607,0.769-2.316,1.5-3.808c0.733-1.497,1.329-2.784,1.329-2.851h0.003c0-0.246-3.315,0.059-4.734,0.434
    c-0.789,0.212-2.384,0.486-3.542,0.607c-1.156,0.126-2.706,0.389-3.444,0.596c-1.774,0.496-14.037,4.742-17.324,5.998
    c-2.604,0.996-4.009,1.466-4.381,1.466c-0.204,0-0.713,0.171-1.116,0.38c-0.403,0.213-1.62,0.761-2.722,1.203
    c-1.864,0.758-2.644,1.253-4.924,3.192c-1.097,0.935-2.862,1.95-3.763,2.157c-0.372,0.087-1.086,0.509-1.587,0.948
    c-0.937,0.817-2.196,1.69-3.752,2.566c-0.915,0.509-1.432,0.91-2.596,2.017c-0.361,0.344-1.192,0.89-1.839,1.212
    c-0.649,0.322-1.273,0.766-1.393,0.991c-0.12,0.223-0.515,0.481-0.873,0.573c-0.358,0.092-1.004,0.428-1.435,0.756
    c-0.431,0.327-0.895,0.599-1.033,0.599c-0.134,0-0.518,0.249-0.85,0.549c-0.333,0.302-1.525,1.318-2.636,2.258
    c-4.588,3.869-10.976,10.858-11.37,12.43c-0.087,0.342-0.26,0.627-0.383,0.627c-0.33,0-1.178,1.506-1.178,2.093
    c0,0.286-0.232,0.719-0.501,0.96c-0.269,0.241-0.479,0.663-0.479,0.932c0,0.274-0.173,0.685-0.383,0.915
    c-1.271,1.407-2.731,16.798-1.766,18.622c0.163,0.311,0.148,0.534-0.031,0.713c-0.433,0.434-0.308,1.069,0.339,1.679
    c0.333,0.319,0.612,0.675,0.618,0.809c0.009,0.299,1.71,3.125,3.114,5.181c1.673,2.446,7.531,6.41,9.465,6.41
    c0.411,0,0.867,0.125,1.01,0.269c1.097,1.094,7.934,1.099,11.549,0c1.276-0.389,2.921-0.876,3.659-1.086
    c0.738-0.207,2.493-0.719,3.903-1.127c1.407-0.408,3.665-1.01,5.008-1.329c1.343-0.322,2.966-0.811,3.615-1.097
    c0.65-0.28,1.265-0.509,1.363-0.509c0.241,0,8.295-4.396,9.059-4.944c1.164-0.837,5.039-3.307,7.243-4.608
    c1.22-0.722,3.139-1.858,4.264-2.529c1.122-0.672,2.341-1.374,2.711-1.561C83.419,180.736,83.498,180.861,79.788,177.118z
     M180.187,218.366c0-0.182-0.048-0.361-0.14-0.534c-0.162-0.297-0.397-0.45-0.562-0.347c-0.157,0.098-0.725,0.26-1.267,0.361
    c-0.54,0.104-1.488,0.286-2.093,0.414c-1.399,0.299-6.119,0.372-14.762,0.204c-10.035-0.198-10.838-0.184-12.825,0.19
    c-3.411,0.641-5.35,0.708-7.157,0.257c-1.321-0.332-2.152-0.38-4.02-0.238c-1.293,0.087-3.402,0.137-4.679,0.087
    c-4.599-0.173-9.658-0.09-11.017,0.171c-2.871,0.548-14.75-0.292-17.655-1.248c-3.198-1.055-4.762-1.296-4.762-0.742
    c0,0.221,0.14,0.428,0.307,0.475c0.168,0.045,0.711,0.213,1.212,0.378c0.501,0.157,1.443,0.383,2.084,0.495
    c0.641,0.115,2.694,0.596,4.575,1.064c1.877,0.473,4.454,0.982,5.73,1.141c1.276,0.157,3.03,0.437,3.903,0.616
    c2.845,0.582,4.457,0.842,8.827,1.458c2.367,0.333,5.165,0.789,6.223,1.007c3.727,0.769,11.703,1.312,16.929,1.15
    c0.873-0.028,4.911-0.112,8.976-0.179c4.062-0.067,7.484-0.182,7.593-0.246c0.107-0.067,1.444-0.344,2.977-0.616
    c5.998-1.069,6.844-1.309,8.911-2.54C179.303,220.062,180.181,219.161,180.187,218.366z M181.451,208.457
    c0.006-0.053-0.003-0.092-0.011-0.14c-0.039-0.201-0.554-0.736-1.159-1.18c-0.604-0.448-1.782-1.352-2.616-2.02l-1.522-1.215
    l-0.85,0.512c-0.638,0.38-0.949,0.434-1.296,0.244c-0.324-0.17-0.638-0.148-1.055,0.064c-6.524,3.38-19.136-1.531-22.81-8.881
    c-0.571-1.141-1.349-2.624-1.721-3.307c-1.007-1.829,0.246-3.288,2.339-2.72c0.47,0.126,1.237,0.264,1.701,0.264
    c0.814,0.039,0.837,0.07,0.862,1.054c0.042,1.715,3.187,5.758,5.775,7.423c3.757,2.417,9.907,3.413,12.218,1.978l0.915-0.562
    l-0.619-0.907c-1.116-1.653-1.525-2.867-1.648-4.837c-0.064-1.058-0.24-2.213-0.383-2.574c-0.875-2.253,1.511-10.075,3.691-12.101
    c0.663-0.615,3.76-2.165,5.764-2.884l1.309-0.465l-0.138-5.011c-0.084-2.753-0.249-5.771-0.372-6.712
    c-0.126-0.937-0.317-2.915-0.406-4.387c-0.09-1.48-0.366-3.735-0.615-5.011c-0.252-1.276-0.524-3.794-0.607-5.604
    c-0.084-1.813-0.241-4.171-0.35-5.232c-0.112-1.063-0.154-2.07-0.087-2.246c0.067-0.174,0.006-1.066-0.137-1.978
    c-0.143-0.912-0.305-2.202-0.361-2.871c-0.638-7.35-1.049-8.452-2.46-6.656c-0.602,0.764-0.666,0.814-2.316,0.764
    c-6.858-0.134-7.118-10.346-0.266-10.346c1.141,0,1.387-0.285,0.872-1.021c-0.21-0.299-0.383-0.968-0.383-1.488
    c0-0.923-2.152-4.563-2.702-4.563c-0.274,0-0.607,0.554-2.351,3.906c-1.569,3.016-2.227,4.183-4.826,8.539l-1.681,2.806l0.03,2.689
    c0.023,1.478-0.042,2.904-0.159,3.173c-0.845,1.964-1.992,7.224-2.084,9.56c-0.036,0.923-0.218,1.5-1.253,3.931
    c-0.188,0.442-0.353,1.127-0.353,1.511c0,0.386-0.196,1.17-0.445,1.757c-0.251,0.585-0.596,1.889-0.766,2.893
    c-0.17,1.002-0.509,2.157-0.744,2.563c-0.235,0.403-0.577,1.203-0.744,1.774c-0.168,0.574-0.448,1.152-0.627,1.296
    c-0.179,0.148-0.33,0.433-0.33,0.629c0,0.445-1.2,2.205-2.043,2.991c-0.35,0.322-0.637,0.731-0.637,0.915
    c0,0.176-0.221,0.523-0.49,0.755c-0.269,0.227-0.489,0.568-0.489,0.764c0,0.193-0.546,0.979-1.212,1.743
    c-0.665,0.767-1.39,1.777-1.617,2.253c-0.724,1.528-4.202,3.828-7.305,4.842c-2.988,0.971-13.785-0.128-16.96-1.737
    c-0.471-0.235-1.657-0.683-2.639-0.996c-1.312-0.42-2.202-0.915-3.349-1.863c-0.859-0.708-1.648-1.284-1.757-1.284
    c-0.191,0-2.686,2.568-6.038,6.233c-5.458,5.953-9.608,8.281-14.263,8.013c-1.469-0.081-2.842-0.039-3.189,0.095
    c-0.428,0.17-0.898,0.132-1.564-0.104c-3.111-1.099-6.066-0.05-5.134,1.819c0.218,0.442,0.425,1.659,0.486,2.848
    c0.171,3.159,1.726,6.653,3.565,8.01c0.38,0.279,0.738,0.683,0.809,0.89c0.587,1.838,6.2,4.795,8.633,4.555
    c0.893-0.092,2.18-0.213,2.86-0.266c3.27-0.263,9.406-5.159,12.464-9.954c1.321-2.068,2.887-3.908,3.637-4.264
    c0.904-0.434,2.062-0.255,2.062,0.307c0,0.199,0.106,0.361,0.235,0.361c1.069,0-0.529,4.328-2.392,6.488
    c-0.126,0.145-0.425,0.64-0.66,1.094c-0.232,0.453-1.113,1.525-1.967,2.381c-0.853,0.86-1.564,1.657-1.564,1.777
    c0,0.313-1.945,2.171-2.275,2.171c-0.151,0-0.674,0.361-1.158,0.8c-1.488,1.329-1.802,1.544-3.543,2.499
    c-0.926,0.504-1.791,0.985-1.924,1.082c-1.877,1.346-6.687,1.309-9.997-0.087c-1.223-0.512-1.494-0.274-1.967,1.704
    c-0.716,2.994,0.025,3.878,4.029,4.751c0.47,0.106,1.488,0.361,2.266,0.577c0.778,0.212,1.816,0.394,2.297,0.394
    c0.481,0,1.55,0.098,2.372,0.221c0.82,0.126,2.297,0.352,3.296,0.501c0.996,0.145,1.953,0.377,2.127,0.521
    c0.568,0.473,3.777,0.66,9.731,0.562c3.22-0.05,6.18-0.05,6.583-0.05c2.034,0.1,5.612-0.02,7.571-0.258
    c7.602-0.912,22.713-1.318,23.81-0.638c0.196,0.115,4.116,0.21,8.774,0.162c4.63-0.006,8.729-0.053,9.103-0.053
    c0.456,0,0.98-0.297,1.607-0.915c0.512-0.504,1.612-1.284,2.434-1.746C179.739,210.927,181.362,209.217,181.451,208.457z
     M169.765,127.22c-0.241,0.383-0.213,0.584,0.17,1.105c0.87,1.195,3.013,1.544,3.55,0.587c0.459-0.822,0.672-1.645,0.68-2.364
    c0.028-1.826-1.225-2.968-2.817-1.653c-0.389,0.316-0.915,0.655-1.158,0.741c-0.308,0.109-0.392,0.311-0.289,0.638
    C169.986,126.534,169.925,126.962,169.765,127.22z M230.337,198.575c-0.019-0.28-0.069-0.467-0.148-0.529
    c-0.201-0.168-0.364-0.616-0.364-1.002c0-1.698-2.962-5.733-5.304-7.221c-0.375-0.235-1.449-1.01-2.392-1.713
    c-2.507-1.863-9.887-4.208-14.389-4.571c-1.074-0.087-2.778-0.361-3.785-0.619c-2.258-0.568-3.866-0.769-4.042-0.489
    c-0.073,0.12,0.179,0.294,0.554,0.375c0.375,0.082,1.013,0.252,1.416,0.372c2.213,0.663,5.461,1.432,6.06,1.432
    c0.377,0.006,0.903,0.126,1.169,0.271c0.269,0.14,1.486,0.361,2.703,0.483c1.214,0.126,2.699,0.448,3.307,0.714
    c0.605,0.269,1.256,0.489,1.447,0.489c0.369,0,2.036,0.848,3.614,1.83c0.537,0.333,1.486,0.881,2.107,1.214
    c1.455,0.778,4.603,4.168,4.603,4.952c0,0.319,0.156,0.87,0.341,1.237c1.005,1.964,0.627,3.648-1.127,4.986
    c-0.433,0.333-1.208,1.32-1.723,2.202c-1.444,2.467-3.139,3.461-5.464,3.201c-0.646-0.073-2.003-0.02-3.01,0.106
    c-1.441,0.182-2.04,0.148-2.806-0.126c-0.537-0.198-1.189-0.414-1.458-0.492c-0.269-0.076-0.711-0.33-0.98-0.562
    c-0.646-0.557-1.81-1.117-4.029-1.945c-2.708-1.01-3.514-1.497-4.244-2.513c-0.361-0.501-0.759-0.915-0.873-0.915
    c-0.112,0-0.66-0.381-1.223-0.848c-1.2-1.004-1.928-1.071-4.773-0.448c-2.233,0.493-3.092,0.188-4.256-1.5
    c-1.099-1.6-2.593-2.937-3.592-3.245c-1.846-0.557-3.867-1.055-4.586-1.117c-2.389-0.193-6.731-5.052-6.39-7.157
    c0.176-1.094,1.351-2.697,2.19-2.999c0.375-0.132,0.999-0.456,1.382-0.733c0.383-0.274,0.87-0.498,1.085-0.498
    c0.216,0,0.585-0.098,0.817-0.223c0.235-0.129,1.055-0.409,1.819-0.616c0.766-0.213,1.46-0.495,1.544-0.63
    c0.23-0.372-0.663-0.279-1.48,0.148c-0.403,0.213-1.334,0.42-2.074,0.468c-2.07,0.12-4.756,1.049-5.231,1.818
    c-0.084,0.14-0.736,0.54-1.435,0.887c-1.861,0.91-3.285,3.875-2.266,4.723c0.226,0.182,0.405,0.696,0.405,1.205
    c0.003,1.343,1.17,2.957,4.614,6.374c1.989,1.97,2.722,2.526,4.893,3.634c1.405,0.722,2.823,1.511,3.147,1.766
    c0.322,0.257,0.719,0.458,0.892,0.458c0.173,0,0.644,0.283,1.044,0.616c0.398,0.336,1.531,0.94,2.518,1.352
    c1.835,0.766,2.543,1.088,5.33,2.403c0.873,0.414,2.356,0.923,3.296,1.127c0.94,0.201,2.977,0.798,4.518,1.343
    c1.545,0.537,3.682,1.265,4.754,1.601c1.074,0.344,2.952,0.946,4.161,1.334c2.515,0.809,5.114,0.943,7.092,0.38
    c0.66-0.188,1.973-0.473,2.913-0.627c2.672-0.442,4.742-1.832,6.062-4.07c0.739-1.262,1.637-5.859,1.648-7.789
    C230.337,198.773,230.343,198.673,230.337,198.575z M183.832,173.17c-0.498,3.081-0.573,3.002,2.426,2.927
    c0.929-0.025,2.263,0.182,3.657,0.574c1.208,0.336,2.585,0.624,3.052,0.624c0.468,0.006,1.682,0.16,2.692,0.352
    c2.614,0.501,5.249,0.87,6.167,0.87c0.436,0,1.533,0.213,2.437,0.473c0.957,0.269,2.935,0.534,4.754,0.635
    c3.139,0.179,5.962,0.87,6.879,1.67c0.568,0.495,2.764,1.625,3.189,1.625c0.204,0.006,0.966,0.271,1.701,0.588
    c1.337,0.573,1.511,0.573,2.202,0c0.202-0.168,1.086-0.518,1.959-0.789c2.498-0.769,8.309-3.436,9.496-4.35
    c0.593-0.456,1.253-0.828,1.466-0.828c0.215,0,0.808-0.221,1.309-0.49c0.501-0.266,1.046-0.487,1.223-0.487
    c1.122,0,3.341-1.541,3.341-2.319c0-1.214-0.809-1.497-5.467-1.955c-4.843-0.481-8.514-0.991-10.824-1.511
    c-1.036-0.232-2.988-0.458-4.328-0.458c-1.343-0.014-2.768-0.104-3.17-0.202c-0.403-0.095-1.508-0.212-2.445-0.263
    c-0.94-0.053-2.314-0.165-3.053-0.238c-0.738-0.072-2.492-0.182-3.903-0.254c-4.196-0.207-13.589-1.021-13.877-1.203
    c-2.087-1.284-11.281,0.853-10.657,2.479C184.129,170.826,184.028,171.967,183.832,173.17z M184.25,186.633
    c-0.138,0.173-0.381,0.722-0.543,1.223c-0.163,0.504-0.417,0.948-0.574,0.948c-0.16,0.02-0.459,0.037-0.66,0.087
    c-0.201,0.023-0.574,0.082-0.831,0.082c-0.559,0.042,0.151,1.01,0.744,1.01c0.176,0,0.45,0.251,0.607,0.554
    c0.156,0.302,0.299,0.559,0.319,0.607c0.019,0.028,1.337,0.433,2.924,0.915c3.408,1.03,3.744,1.243,5.042,3.21
    c1.256,1.902,1.947,2.238,3.872,1.838c3.333-0.688,4.868-0.288,6.869,1.791c1.435,1.488,2.546,2.132,6.082,3.539
    c1.41,0.563,2.692,1.122,2.84,1.246c1.145,0.945,3.251,1.069,7.635,0.467c2.342-0.322,3.151-0.811,4.032-2.454
    c0.392-0.736,0.943-1.497,1.223-1.695c0.277-0.196,0.828-0.716,1.223-1.158c0.395-0.439,0.865-0.794,1.052-0.794
    c0.151,0,0.218-0.241,0.213-0.588c-0.006-0.576-0.201-1.471-0.531-2.104c-0.873-1.679-6.22-5.652-8.656-6.435
    c-0.738-0.235-2.012-0.693-2.84-1.021c-0.828-0.327-1.872-0.596-2.316-0.596c-0.448,0-1.704-0.174-2.775-0.389
    c-1.074-0.224-2.448-0.478-3.053-0.579c-1.299-0.207-5.52-1.424-6.211-1.785c-0.266-0.14-0.817-0.342-1.223-0.448
    c-2.325-0.596-3.671-1.01-4.127-1.296c-1.659-1.035-2.856-0.708-3.709,1.021c-0.218,0.433-0.552,0.784-0.736,0.784
    c-0.4,0-1.639-1.866-1.446-2.179c0.269-0.434-0.355-0.501-1.234-0.135c-0.49,0.202-1.114,0.37-1.382,0.37
    c-0.319,0-0.439,0.12-0.35,0.352c0.073,0.193,0.207,0.744,0.297,1.223c0.148,0.781,0.252,0.862,0.938,0.862
    c0.668-0.006,1.124,0.039,2.529,0.21c0.467,0.059,0.364,0.882-0.201,1.601c-0.635,0.809-2.812,0.957-3.053,0.21
    c-0.28-0.876-0.677-1.531-0.923-1.531c-0.766,0-1.547-1.503-1.01-1.95c0.862-0.716,0.456-1.29-0.789-1.099
    c-3.654,0.543-6.569,4.566-4.07,5.609c1.186,0.498,1.329,0.473,1.329-0.201c0-0.314,0.216-0.764,0.478-1.002
    c0.26-0.235,0.501-0.668,0.543-0.951c0.106-0.753,1.625-0.867,2.252-0.173C184.361,186.174,184.423,186.415,184.25,186.633z
     M259.687,155.645c-1.914-1.164-2.076-1.217-4.284-1.362c-1.261-0.081-2.946-0.333-3.743-0.554c-0.8-0.221-1.95-0.535-2.555-0.688
    c-0.602-0.157-1.315-0.395-1.584-0.543c-0.269-0.148-1.483-0.562-2.691-0.923c-1.206-0.361-2.703-0.94-3.327-1.268
    c-0.624-0.327-1.413-0.587-1.754-0.587c-0.342,0-0.694-0.107-0.778-0.241c-0.084-0.135-0.556-0.442-1.052-0.683
    c-3.755-1.818-10.573-5.988-10.816-6.603c-0.28-0.708-2.734-1.97-3.817-1.97c-1.801,0-2.033-0.067-2.255-0.646
    c-0.135-0.35-0.612-0.691-1.371-0.957c-0.646-0.227-1.374-0.515-1.606-0.641c-0.235-0.12-0.63-0.221-0.873-0.221
    c-0.244,0-0.543-0.107-0.669-0.235c-0.128-0.126-1.337-0.512-2.68-0.848c-2.814-0.716-4.569-1.309-6.465-2.194
    c-0.738-0.344-1.559-0.627-1.83-0.627c-0.271,0-0.727-0.165-1.01-0.36c-0.283-0.199-1.46-0.7-2.616-1.117
    c-1.156-0.42-2.507-1.035-3-1.374c-0.492-0.336-1.788-1.049-2.871-1.572c-3.169-1.542-6.088-3.195-7.243-4.124
    c-0.59-0.478-1.354-1.055-1.69-1.276c-0.336-0.227-1.097-0.862-1.701-1.416c-0.605-0.554-1.438-1.175-1.841-1.382
    c-0.402-0.212-1.494-0.99-2.434-1.745c-2.373-1.908-3.301-2.546-3.478-2.376c-0.215,0.218-0.056,2.376,0.213,2.876
    c0.123,0.229,0.324,1.824,0.456,3.542c0.314,4.052,1.421,11.018,1.872,11.74c0.423,0.674,1.058,4.384,1.161,6.762
    c0.039,0.938,0.199,2.306,0.35,3.042c0.151,0.736,0.338,2.993,0.414,5.011c0.512,13.275,1.057,14.831,4.851,14.011
    c1.724-0.369,9.323-0.68,18.323-0.741c7.773-0.059,8.976,0.039,14.398,1.136c0.94,0.193,2.806,0.526,4.146,0.736
    c1.343,0.207,5.181,1.03,8.519,1.841c8.125,1.961,8.621,2.02,13.676,1.465l2.658-0.288l0.82,0.789
    c1.038,1.007,1.021,1.488-0.054,2.339c-0.476,0.375-1.113,1.122-1.435,1.67c-0.862,1.458-3.786,4.334-5.551,5.473
    c-0.851,0.549-1.62,1.208-1.713,1.46c-0.257,0.691-1.192,1.203-2.532,1.371c-0.705,0.087-2.197,0.655-3.603,1.352
    c-1.324,0.655-2.505,1.189-2.627,1.189c-0.123,0-1.131,0.428-2.233,0.948c-1.105,0.521-2.212,1.002-2.448,1.083
    c-0.582,0.201-0.529,0.52,0.129,0.809c2.856,1.267,4.269,2.666,5.433,5.363c0.345,0.789,1.139,2.454,1.766,3.696
    c1.114,2.213,1.124,2.286,0.733,2.947c-0.218,0.375-0.526,1.659-0.68,2.862c-0.154,1.2-0.436,2.783-0.638,3.52
    c-0.201,0.736-0.436,1.612-0.509,1.936l-0.14,0.587l2.543-0.14c1.393-0.079,2.846-0.26,3.22-0.406
    c0.377-0.143,1.861-0.313,3.299-0.383c2.403-0.112,3.483-0.251,6.709-0.873c0.643-0.12,1.569-0.229,2.053-0.229
    c3.368,0,11.703-3.486,16.664-6.966c5.173-3.635,5.73-4.275,8.231-9.51c0.448-0.94,0.915-1.874,1.041-2.07
    c1.371-2.185,2.02-4.121,1.955-6.374h0.003c-0.05-1.745-0.537-3.687-1.427-6.068c-2-5.367-1.807-5.017-4.541-8.31
    c-2.258-2.72-3.371-3.825-5.145-5.125c-0.806-0.588-2.009-1.478-2.681-1.978c-0.671-0.495-1.776-1.228-2.448-1.626
    C262.218,157.181,260.78,156.308,259.687,155.645z M306.225,88.106c-0.011-2.064-1.105-4.101-3.139-5.049
    c-0.895-0.42-1.952-0.996-2.35-1.276c-0.397-0.282-1.93-1.004-3.413-1.617c-4.37-1.811-11.69-6.396-13.429-8.413
    c-0.138-0.154-0.688-0.607-1.225-0.996c-0.534-0.395-2.462-2.196-4.284-4.01c-1.824-1.816-4.249-4.194-5.382-5.277
    c-1.131-1.083-3.763-3.623-5.859-5.646c-2.096-2.026-4.292-3.984-4.883-4.35c-0.587-0.367-1.458-1.007-1.933-1.424
    c-0.478-0.42-1.362-1.117-1.958-1.556c-0.596-0.434-1.746-1.352-2.552-2.04c-4.104-3.5-6.18-4.656-10.494-5.87
    c-0.94-0.263-2.255-0.789-2.927-1.17c-0.702-0.397-1.95-0.817-2.935-0.982c-0.94-0.154-2.644-0.431-3.785-0.615
    c-1.141-0.176-2.453-0.443-2.924-0.582c-0.993-0.302-2.77-0.577-8.178-1.264c-2.149-0.274-4.233-0.594-4.635-0.714
    c-0.761-0.226-2.985-0.403-7.563-0.615c-1.475-0.073-4.045-0.294-5.721-0.501c-2.392-0.299-3.164-0.319-3.593-0.087
    c-0.548,0.294-1.205,0.249-3.628-0.274c-0.669-0.148-1.872-0.305-2.678-0.352c-1.508-0.09-3.959-0.434-6.104-0.842
    c-0.671-0.126-2.881-0.283-4.924-0.349c-2.043-0.065-3.833-0.185-3.967-0.266c-0.132-0.082-0.649-0.168-1.158-0.168
    c-0.509-0.014-1.046-0.115-1.181-0.213c-0.134-0.1-1.116-0.361-2.19-0.596c-1.754-0.386-5.034-1.569-7.871-2.84
    c-0.568-0.254-1.122-0.467-1.233-0.467c-0.11,0-0.713-0.333-1.349-0.736c-0.635-0.4-1.374-0.722-1.648-0.722
    c-0.277,0-1.405-0.405-2.501-0.895c-2.56-1.136-4.457-1.908-6.838-2.784c-1.049-0.389-2.431-1.082-3.072-1.553
    c-1.413-1.035-3.797-2.137-6.178-2.84c-0.973-0.291-2.109-0.671-2.51-0.853c-4.862-2.193-17.57-0.506-25.13,3.34
    c-7.008,3.568-14.106,9.42-15.706,12.942c-3.022,6.656-3.663,8.173-4.679,11.125c-0.797,2.305-0.652,2.487,0.658,0.85
    c0.509-0.637,1.175-1.424,1.488-1.757c0.317-0.33,1.097-1.256,1.724-2.048c5.162-6.539,6.95-8.352,10.592-10.764
    c1.368-0.909,2.627-0.872,2.627,0.073c0,0.308-1.491,2.479-1.704,2.479c-0.101,0-1.634,1.424-3.414,3.167
    c-1.776,1.745-3.31,3.181-3.402,3.181c-0.226,0-4.924,5.8-6.125,7.56c-0.322,0.473-0.884,1.205-1.245,1.628
    c-0.361,0.423-1.06,1.626-1.564,2.68c-0.504,1.055-1.116,2.197-1.348,2.533c-1.209,1.737-1.545,3.693-1.374,7.879
    c0.223,5.416,0.453,5.511,2.532,1.147c0.607-1.276,1.698-3.581,2.434-5.125c0.736-1.541,1.642-3.187,2.012-3.66
    c0.367-0.467,0.884-1.289,1.136-1.829c0.615-1.299,3.273-3.97,5.178-5.198c2.518-1.62,3.005-0.775,1.074,1.883
    c-0.64,0.887-1.494,2.127-1.891,2.778c-0.4,0.643-1.654,2.412-2.798,3.911c-2.75,3.612-4.062,5.665-5.38,8.463
    c-0.602,1.276-1.324,2.675-1.617,3.12c-1.393,2.106-1.497,4.597-0.235,5.645c0.352,0.289,2.275-1.584,4.009-3.906
    c0.993-1.323,2.253-2.573,5.904-5.827c0.968-0.862,2.053-2.018,2.403-2.561c0.672-1.049,1.559-2.07,4.849-5.626
    c2.202-2.378,3.653-4.429,3.883-5.456c0.129-0.585,0.985-2.515,1.531-3.456c0.554-0.956,1.488-3.228,1.488-3.603
    c0-0.238,0.364-0.968,0.809-1.642c0.445-0.668,0.96-1.578,1.139-2.017c0.176-0.442,0.521-0.915,0.764-1.044
    c0.243-0.132,0.635-0.562,0.873-0.968c1.57-2.658,2.739,0.453,2.084,5.565c-0.389,3.022-0.319,4.138,0.437,6.762
    c0.115,0.4,0.395,1.371,0.615,2.146c0.221,0.775,0.7,1.763,1.064,2.191c0.366,0.433,0.934,1.208,1.267,1.723
    c1.228,1.911,3.489,3.066,7.263,3.701c5.749,0.963,7.145,1.108,10.836,1.108c2.414,0,3.934,0.109,4.635,0.336
    c0.577,0.187,1.483,0.42,2.02,0.509c1.628,0.285,9.21,2.081,10.251,2.437c4.205,1.444,6.687,2.492,7.316,3.066
    c0.402,0.364,1.251,0.948,1.872,1.304c0.624,0.36,1.396,0.909,1.713,1.228c1.438,1.43,2.602,2.787,3.181,3.685
    c0.345,0.54,1.617,1.855,2.818,2.927c1.2,1.074,2.56,2.431,3.019,3.03c0.461,0.596,1.653,2.04,2.66,3.189
    c1.008,1.15,2.21,2.619,2.681,3.254c0.467,0.641,1.351,1.802,1.955,2.586c0.605,0.789,1.578,2.106,2.168,2.934
    c0.591,0.829,1.268,1.609,1.5,1.735c0.235,0.123,0.49,0.591,0.577,1.044c0.084,0.448,0.985,2.172,1.998,3.828
    c1.013,1.657,2.599,4.524,3.52,6.382c2.096,4.222,3.254,6.256,5.808,10.131c1.894,2.879,2.54,3.74,4.701,6.264
    c0.476,0.556,2.319,2.96,4.093,5.327c2.845,3.802,8.007,9.689,9.059,10.316c0.333,0.201,2.944,2.333,6.074,4.966
    c0.582,0.493,1.318,1.061,1.625,1.268c0.308,0.207,1.206,0.87,1.99,1.466c0.783,0.599,1.925,1.34,2.532,1.648
    c0.604,0.313,1.253,0.674,1.455,0.797c0.831,0.526,7.286,3.52,8.424,3.914c1.978,0.688,5.59,0.64,7.252-0.095
    c1.631-0.722,1.995-1.147,1.796-2.043c-0.095-0.436-0.019-0.85,0.213-1.158c0.864-1.142,0.196-3.399-1.446-4.848
    c-1.265-1.117-3.844-3.682-4.701-4.678c-0.68-0.794-0.705-1.665-0.062-2.311c0.98-0.977,1.922-0.54,4.731,2.224
    c5.483,5.392,13.469,5.084,15.004-0.582c0.408-1.508-0.339-2.966-3.072-6.021c-1.995-2.23-2.034-3.687-0.117-4.434
    c0.753-0.294,2.991,0.621,4.731,1.936c1.642,1.237,3.327,1.987,4.393,1.987c0.448-0.009,1.704,0.047,2.798,0.14l1.987,0.168
    l1.553-1.625c0.856-0.901,1.625-1.816,1.713-2.043c0.09-0.223,0.414-1.016,0.713-1.757c1.035-2.54,0.386-6.656-1.511-9.644
    c-3.052-4.81-1.883-6.339,2.882-3.763l2.308,1.256l1.872-0.14c8.564-0.613,10.211-4.415,5.805-13.441
    c-0.985-2.02-1.924-4.09-2.084-4.585c-0.756-2.37,0.736-3.808,2.722-2.639c2.456,1.45,4.748,1.679,6.021,0.607
    C305.59,91.34,306.233,89.712,306.225,88.106z M187.111,294.223c-1.78-3.345-2.527-11.209-1.241-13.096
    c0.749-1.105,4.384-4.567,5.285-5.04c0.499-0.258,2.124-1.433,3.603-2.6c3.698-2.922,6.287-4.14,10.919-5.144
    c1.991-0.431,4.025-0.914,4.525-1.073c0.501-0.162,1.576-0.42,2.402-0.577c0.823-0.157,1.959-0.398,2.514-0.544
    c0.555-0.142,2.18-0.358,3.611-0.48c2.647-0.231,6.757-0.776,9.167-1.221c3.71-0.679,7.088-0.219,9.099,1.234
    c0.879,0.639,1.957,1.34,2.385,1.561c3.708,1.936,7.234,8.754,6.785,13.121c-1.125,10.943-4.891,14.8-19.056,19.509
    c-4.039,1.34-14.133,3.396-18.8,3.816c-1.315,0.12-4.025,0.005-8.062-0.326c-3.343-0.276-6.434-0.493-6.878-0.482
    c-0.527,0.01-0.898-0.129-1.07-0.4c-0.143-0.223-0.605-0.85-1.021-1.396c-1.274-1.675-3.627-5.295-3.602-5.534
    C187.69,295.424,187.436,294.835,187.111,294.223z M188.454,285.83c0.103,0.252,0.152,0.682,0.123,0.961
    c-0.157,1.528,2.187,5.653,3.938,6.946c0.387,0.287,0.687,0.597,0.677,0.689c-0.065,0.629,1.822,1.43,4.422,1.903
    c1.514,0.271,2.786,0.536,2.825,0.589c0.158,0.19,4.929,0.203,6.479,0.013c0.886-0.108,2.118-0.218,2.728-0.242
    c1.331-0.058,4.671-0.569,5.302-0.825c0.249-0.097,1.612-0.407,3.02-0.677c1.408-0.26,2.951-0.633,3.445-0.841
    c0.493-0.199,2.067-0.741,3.489-1.188c5.782-1.83,14.216-6.141,15.333-7.846c0.187-0.285,0.491-0.507,0.672-0.488
    c0.418,0.043,1.573-1.191,2.195-2.336c0.326-0.602,0.511-1.222,0.561-1.909c0.052-0.692-0.025-1.453-0.243-2.314
    c-0.202-0.795-0.58-2.395-0.842-3.569c-0.507-2.268-2.331-4.906-3.472-5.023c-0.256-0.026-0.726-0.296-1.039-0.594
    c-0.311-0.304-0.884-0.586-1.271-0.625c-0.39-0.04-0.747-0.232-0.802-0.434c-0.128-0.481-2.184-1.406-2.93-1.319
    c-0.322,0.04-1.041,0.092-1.583,0.104c-2.528,0.075-3.794,0.209-5.018,0.553c-1.423,0.405-1.816,0.458-4.281,0.469
    c-0.879,0.008-2.11,0.118-2.731,0.242c-2.581,0.534-4.768,0.832-5.512,0.708c-0.835-0.117-3.506,0.453-4.132,0.872
    c-0.2,0.142-0.423,0.153-0.498,0.064c-0.074-0.095-0.52,0.025-0.988,0.253s-0.998,0.381-1.166,0.316
    c-0.692-0.191-2.699,0.094-3.288,0.464c-0.347,0.22-0.743,0.384-0.882,0.37c-0.137-0.014-0.641,0.266-1.122,0.625
    c-0.48,0.352-0.977,0.633-1.101,0.62c-0.68-0.07-3.076,1.082-3.531,1.699c-0.284,0.387-1.241,1.127-2.126,1.643
    c-1.442,0.84-2.404,1.573-5.212,4.029C188.988,280.524,188,284.723,188.454,285.83z M194.468,286.918
    c-0.224-0.661,0.109-2.182,0.912-4.195c0.205-0.519,0.532-1.418,0.718-2.001c0.418-1.296,1.214-2.013,2.452-2.215
    c1.053-0.173,1.763-0.845,1.856-1.745c0.181-1.761,2.611-3.067,5.218-2.799c1.648,0.161,2.078,0.031,3.615-1.074
    c1.218-0.871,3.107-1.113,5.048-0.623c0.896,0.224,1.755,0.436,1.908,0.452c0.153,0.021,0.881-0.421,1.629-0.963
    c1.706-1.248,3.43-1.574,5.421-1.049c1.26,0.333,1.354,0.317,1.597-0.165c0.651-1.294,8.114-2.645,8.946-1.625
    c0.134,0.163,0.763,0.374,1.404,0.488c0.639,0.105,1.24,0.223,1.335,0.233c0.297,0.064,1.912,4.223,2.296,5.923
    c0.179,0.778,0.237,1.47,0.192,2.095c-0.075,1.033-0.444,1.864-1.147,2.517c-0.872,0.816-1.995,2.467-2.053,3.032
    c-0.067,0.651-1.162,2.164-1.858,2.557c-0.362,0.205-1.07,0.621-1.569,0.927c-0.513,0.316-1.418,0.58-2.082,0.61
    c-0.647,0.028-1.407,0.139-1.685,0.251c-0.644,0.269-1.758,0.439-4.245,0.633c-2.841,0.226-3.481,0.402-4.854,1.366
    c-1.091,0.763-1.827,1.092-3.539,1.571c-0.278,0.079-0.833,0.084-1.233,0.042c-1.972-0.248-3.527,0.188-5.677,1.573
    c-1.982,1.3-2.354,1.417-2.943,1.154c-0.13-0.056-0.525-0.2-0.876-0.318c-0.351-0.112-1.095-0.698-1.653-1.292
    c-1.322-1.393-2.47-1.886-3.966-1.665c-1.69,0.242-2.331,0.104-3.408-0.747C195.326,289.155,195.093,288.771,194.468,286.918z
     M200.181,289.373c2.245,0.265,2.811,0.472,4.046,1.485c1.716,1.394,2.469,1.502,4.152,0.587c1.296-0.71,4.62-1.654,5.496-1.564
    c1.486,0.153,3.823-0.445,5.28-1.35c1.59-0.992,3.927-1.672,6.105-1.769c0.674-0.026,1.956-0.339,2.839-0.698
    c0.984-0.402,2.161-0.658,3.02-0.677c1.974-0.03,3.931-1.88,4.144-3.925c0.03-0.295,0.365-0.95,0.748-1.45
    c0.454-0.591,0.744-1.552,0.865-2.587c0.2-1.723-0.057-3.617-0.798-4.19c-0.234-0.185-0.416-0.524-0.392-0.757
    c0.057-0.551-0.376-0.61-1-0.15c-0.892,0.654-2.416,0.598-2.514-0.09c-0.049-0.32-0.192-0.596-0.312-0.609
    c-0.123-0.013-0.361-0.18-0.529-0.383c-0.642-0.792-4.223-0.53-5.257,0.39c-0.92,0.828-1.013,0.83-3.548,0.51
    c-2.027-0.256-3.075,0.007-4.948,1.232c-1.292,0.835-1.682,0.988-2.177,0.794c-0.697-0.299-3.311-0.56-4.189-0.431
    c-0.334,0.047-1.332,0.676-2.227,1.397c-1.522,1.227-2.191,1.557-2.138,1.051c0.012-0.119-0.338-0.437-0.775-0.698
    c-1.541-0.938-4.313,0.065-4.473,1.616c-0.096,0.93-0.915,1.653-2.532,2.251c-1.485,0.545-1.895,1.054-1.736,2.139
    c0.051,0.354-0.137,1.587-0.422,2.738C195.979,288.002,196.589,288.944,200.181,289.373z M226.487,280.124
    c0.331,0.234,0.32,1.079-0.028,2.056c-0.225,0.629-0.207,0.645,0.771,0.706c0.723,0.027,1.149-0.23,1.146-0.642
    c0-0.188-0.102-0.398-0.287-0.629c-0.253-0.307-0.108-2.238,0.22-2.992c0.239-0.546-0.393-1.323-1.062-1.293
    C226.609,277.355,225.956,279.757,226.487,280.124z M210.353,280.35c-1.272,0.091-1.693,0.827-1.002,1.767
    c0.439,0.6,0.782,0.548,1.248-0.181c0.194-0.303,0.564-0.676,0.821-0.824c0.171-0.098,0.256-0.196,0.275-0.292
    C211.752,280.531,211.198,280.291,210.353,280.35z M209.5,279.297c0.425-0.038,1.04-0.051,1.36-0.018
    c0.334,0.034,0.67-0.111,0.784-0.347c0.11-0.225,0.353-0.475,0.539-0.563c0.222-0.109,0.349-0.225,0.365-0.325
    c0.03-0.177-0.209-0.317-0.672-0.325c-0.392,0.007-0.874-0.177-1.063-0.366c-0.702-0.722-1.899,0.171-2.037,1.518
    C208.731,279.306,208.833,279.363,209.5,279.297z M201.133,285.1c0.629-0.729,0.604-1.341-0.065-1.675
    c-0.748-0.377-0.703-1.045,0.068-0.966c0.568,0.058,1.936-0.639,1.974-1.007c0.029-0.286-0.997-1.599-1.276-1.627
    c-1.508-0.155-3.096,3.825-2.089,5.25C200.185,285.695,200.61,285.699,201.133,285.1z M203.846,280.024
    c0.305,0.152,0.599,0.458,0.658,0.678c0.126,0.472,0.17,0.482,0.96,0.214c0.582-0.196,1.746-1.634,1.698-2.047
    c-0.004-0.048-0.023-0.05-0.035-0.071c-0.279-0.344-1.788-0.305-2.756,0.079C203.189,279.346,203.065,279.629,203.846,280.024z
     M224.786,279.001l0.756-0.6l-0.627-0.551c-1.674-1.454-3.425-0.968-2.895,0.799C222.331,279.683,223.708,279.858,224.786,279.001z
     M218.619,279.617c-0.241,0.217-0.4,0.589-0.339,0.811c0.293,1.085,1.214,0.415,1.444-1.053c0.181-1.159,0.299-1.434,0.7-1.5
    c0.303-0.045,0.472-0.162,0.495-0.349c0.031-0.244-0.178-0.595-0.618-1.051c-1.515-1.565-3.198-0.466-1.869,1.22
    C219.207,278.681,219.248,279.048,218.619,279.617z M214.906,278.5c0.346-0.493,0.812-0.949,1.035-1.008
    c0.217-0.059,0.328-0.146,0.345-0.24c0.056-0.3-0.666-0.684-1.484-0.636c-1.505,0.086-2.145,1.09-1.52,2.389
    C213.572,279.601,214.288,279.374,214.906,278.5z"/>
</svg>