<svg version="1.1" xmlns="http://www.w3.org/2000/svg" viewBox="0 0 320 320">
    <path d="M203.976,10c-2.199,12.47-0.193,28.928-8.128,36.864c-7.935,7.935-21.706,4.619-35.849,7.112 c2.199-12.47,0.193-28.928,8.128-36.864C176.063,9.177,189.834,12.493,203.976,10z M241.208,226.002 c0,47.102-35.67,83.998-81.208,83.998s-81.208-36.896-81.208-83.998c0-18.424,6.915-33.117,14.924-50.13 c8.451-17.957,18.968-40.304,26.463-77.193c3.889-19.142,20.264-32.511,39.821-32.511s35.932,13.369,39.821,32.511 c7.495,36.889,18.014,59.236,26.465,77.193C234.293,192.885,241.208,207.578,241.208,226.002z M220.889,226.002 c0-30.145-26.187-50.464-40.98-123.277c-1.657-8.155-8.852-16.238-19.909-16.238s-18.252,8.083-19.909,16.238 c-14.793,72.813-40.98,93.133-40.98,123.277c0,36.909,27.223,63.678,60.889,63.678S220.889,262.911,220.889,226.002z"/>
</svg>