<svg xmlns="http://www.w3.org/2000/svg" viewBox="0 0 320 320">
    <path d="M126.282,166.963c5.412-0.001,10.795,0.028,16.156,0.839c1.713,0.259,1.287,3.057-0.405,2.991
    c-5.268-0.206-10.473-1.112-15.751-1.184C124.577,169.585,124.574,166.963,126.282,166.963z M140.369,214.159
    c2.067,0.513,2.82-2.435,0.867-3.145c-5.072-1.844-10.527-3.142-15.939-2.458c-1.647,0.208-1.729,2.78,0,2.646
    C130.675,210.785,135.276,212.896,140.369,214.159z M163.621,230.465c-11.743,5.034-25.317,6.982-38.012,5.617
    c-8.966-0.964-17.064-5.418-18.332-15.116c-0.807-6.167-0.051-12.504-0.65-18.74c-0.638-6.652-1.332-13.4-0.365-20.059
    c1.212-8.346,2.004-19.9,8.839-25.816c-1.094-1.671-1.492-3.681-0.661-6.223c1.445-4.419,4.167-7.22,7.378-10.454
    c3.883-3.911,7.856-9.578,8.98-15.198c-0.77-0.571-1.65-1.086-2.601-1.539c0.138,3.892-4.046,6.14-7.661,5.679
    c-3.836-0.489-6.225-3.382-6.081-6.958c-2.321,0.791-4.239,2.25-5.291,4.547c-0.302,0.659-1.25,0.585-1.653,0.096
    c-0.276-0.078-0.504-0.276-0.549-0.602c-1.817-13.086,11.611-24.232,23.523-17.129c1.361-4.337,2.407-8.659,3.297-13.195
    c0.253-1.287,2.311-0.981,2.266,0.307c-0.111,3.221,0.221,6.568-0.293,9.759c-0.311,1.932-0.817,3.843-1.201,5.763
    c1.746-0.277,3.509-0.462,5.263-0.401c1.769,0.062,1.76,2.653,0,2.738c-1.896,0.091-3.774,0.143-5.654,0.317
    c-0.029,0.479-0.038,0.952-0.016,1.414c2.228-0.198,4.573,0.381,6.508,1.372c1.407,0.72,0.82,3.298-0.838,3.096
    c-1.793-0.218-3.453-1.007-5.194-1.047c0.589,2.997,1.269,5.85-0.621,9.121c-0.046,0.079-0.111,0.127-0.168,0.189
    c-1.058,4.385-3.665,8.661-6.832,11.939c-1.38,5.372-4.288,12.658-2.167,17.906c0.48,1.187-1.397,2.29-2.185,1.272
    c-3.228-4.165-1.518-10.576,0.453-15.855c-0.065,0.044-0.128,0.093-0.193,0.136c-5.259,3.506-9.68,10.323-2.644,14.747
    c2.794,1.757,5.756,3.294,8.358,5.334c0.781,0.613-0.258,1.959-1.063,1.377c-2.856-2.068-7.554-3.797-10.604-6.435
    c-5.23,5.947-6.123,15.347-7.337,22.842c-1.032,6.374-0.383,12.791,0.37,19.16c0.635,5.378,0.714,11.026,1.729,16.337
    c1.954,10.228,9.517,13.07,19.151,14.064c11.008,1.136,21.021-0.371,31.731-2.78C163.993,227.734,165.057,229.849,163.621,230.465z
     M126.17,122.12c-0.479-0.166-0.972-0.311-1.469-0.445c0.007,0.965-0.28,1.957-1.065,2.576c-0.798,0.63-1.636,0.898-2.648,0.699
    c-0.988-0.194-1.363-1.605-0.663-2.297c-0.001-0.006-0.002-0.006-0.003-0.012c-0.031-0.091-0.039-0.122-0.036-0.119
    c-0.051-0.123-0.108-0.244-0.152-0.37c-0.142-0.397-0.128-0.809-0.017-1.197c-1.264-0.054-2.516,0.013-3.706,0.223
    c-0.39,3,1.652,5.358,4.832,5.351C124.31,126.521,125.732,124.967,126.17,122.12z M130.688,121.846
    c-1.094-3.275-2.532-6.426-1.224-10.15c0.142-0.406,0.26-0.808,0.396-1.212c-0.055-0.011-0.104-0.004-0.161-0.025
    c-2.893-1.071-6.009-1.725-8.934-1.332c-0.902,2.439-2.597,4.628-3.685,6.997c-0.323,0.703-0.656,1.4-1.032,2.058
    C120.966,117.771,126.858,119.47,130.688,121.846z M173.247,193.149c-0.281-1.255-0.765-2.477-1.336-3.676
    c1.478-0.833,0.667-4.001-1.589-3.013c-0.615-1.097-1.23-2.178-1.757-3.244c-2.536-5.139-4.563-10.479-6.544-15.848
    c-2.743-7.432-5.72-16.406-12.337-21.303c-0.031-0.023-0.064-0.036-0.095-0.056c-0.317-0.457-0.635-0.9-0.947-1.31
    c-1.05-1.379-3.398-0.127-2.391,1.397c0.401,0.606,0.834,1.225,1.272,1.855c0.067,0.165,0.173,0.322,0.319,0.464
    c1.961,2.855,3.857,5.973,3.062,9.479c-1.087,4.795-6.565,2.704-10.326,1.128c0.046-0.401-0.073-0.819-0.434-1.154
    c-0.691-0.642-1.451-0.999-2.365-1.204c-1.034-0.232-1.639-0.319-2.745-0.15c-0.75,0.115-1.385,0.886-1.575,1.575
    c-0.084,0.306-0.08,0.594-0.039,0.873c-0.355,0.611-0.421,1.36,0.056,2.074c1.102,1.646,2.708,1.808,4.507,1.493
    c0.623-0.109,0.917-0.532,0.984-1.017c0.045-0.061,0.093-0.12,0.131-0.185c0.135-0.231,0.21-0.5,0.252-0.777
    c4.133,2.175,9.624,5.042,12.878,0.252c0.996-1.466,1.365-3.091,1.327-4.759c2.505,4.612,4.202,9.784,5.957,14.563
    c1.384,3.768,2.987,7.422,4.65,11.046c-4.557-1.426-9.151-2.864-13.748-4.125c-3.718-1.02-7.73-2.421-11.37-0.575
    c-0.795,0.403-1.155,1.049-1.219,1.735c-1.095-0.044-2.194-0.083-3.306-0.113c-0.212-0.006-0.43-0.011-0.644-0.016
    c-0.107-0.068-0.224-0.127-0.367-0.165c-6.489-1.712-11.69-0.74-17.02,2.345c-2.206,0.987-4.213,2.38-5.868,4.376
    c-0.395,0.477,0.103,1.244,0.69,0.894c7.965-4.754,16.988-4.143,25.911-3.961c5.168,0.105,10.079,0.139,15.208,1.025
    c4.471,0.773,8.571,1.65,13.1,1.546c0.504,1.079,1.01,2.158,1.515,3.237c-3.343,1.265-6.871,2.221-10.115,3.748
    c-5.335,2.51-10.275,4.504-16.19,5.063c-11.326,1.07-18.817-6.337-28.967-9.376c-1.202-0.36-1.703,1.497-0.515,1.869
    c5.331,1.671,9.886,4.886,14.887,7.283c4.078,1.955,8.461,2.536,12.936,2.516c4.451-0.02,9.024-1.016,13.096-2.775
    c4.352-1.88,10.386-6.084,15.656-6.64c0.312,0.67,0.624,1.34,0.932,2.012c0.182,12.141,7.37,21.912,10.165,33.507
    c0.476,1.973,3.341,1.115,2.996-0.826c-1.661-9.351-6.412-17.851-8.762-26.987c2.739,2.403,5.66,4.602,7.432,7.881
    c1.102,2.039,4.258,0.206,3.108-1.817C181.171,198.855,176.917,196.5,173.247,193.149z M114.126,139.699
    c5.642-1.961,9.239-6.536,13.191-10.74c0.68-0.723-0.364-1.767-1.088-1.088c-3.964,3.722-8.327,6.804-13.253,9.1
    C111.443,137.686,112.536,140.251,114.126,139.699z M107.587,145.916c0.119-0.694,0.027-1.346-0.493-1.866
    c-0.611-0.611-1.578-0.733-2.324-0.3c-0.031,0.018-0.062,0.036-0.093,0.054c-0.335,0.194-0.582,0.498-0.738,0.844
    c-0.203,0.289-0.33,0.628-0.33,0.996c0,0.833,0.547,1.415,1.287,1.691C105.894,147.707,107.397,147.02,107.587,145.916z
     M120.375,129.138c-2.167,0.156-4.318,0.314-6.478,0.567c-1.934,0.227-3.854,0.243-5.659,1.007
    c-1.237,0.524-0.952,2.769,0.386,2.952c3.966,0.544,8.68-1.027,12.255-2.663C121.78,130.589,121.341,129.069,120.375,129.138z
     M188.237,145.723c6.243,10.938,16.291,18.786,18.951,31.602c0.364,1.753,3.323,1.376,3.142-0.425
    c-1.309-13.079-13.737-21.933-20.977-31.829C188.871,144.413,187.815,144.984,188.237,145.723z M218.091,155.083
    c-0.83,2.053-0.78,4.142-0.716,6.312c0.064,2.178,3.354,2.185,3.384,0c0.025-1.832-0.228-3.718,0.269-5.502
    C221.569,153.952,218.807,153.313,218.091,155.083z M291.453,291.955c-0.151,0.355-0.318,0.694-0.499,1.02
    c-0.748,3.415-0.195,6.796-2.428,9.736c-1.627,2.142-4.158,3.457-6.563,4.51c-6.302,2.76-13.877,3.128-20.625,2.54
    c-9.893-0.862-19.41-3.616-29.021-5.968c-9.596-2.349-19.305-4.604-28.607-7.971c-0.131-0.048-0.235-0.117-0.327-0.193
    c-3.079,1.663-6.165,3.307-9.327,4.792c-2.766,1.3-5.653,2.743-8.609,3.555c-3.085,0.848-6.273,1.101-9.358,1.949
    c-0.859,0.236-1.617,0.122-2.232-0.207c-9.123,2.16-19.008,2.261-28.25,1.292c-9.035-0.947-17.702-3.218-24.257-9.856
    c-7.556-7.652-14.513-16.059-20.13-25.251c-1.032-1.689-1.978-3.392-2.869-5.106c-5.364-0.056-10.746,1.535-15.895,2.864
    c-5.124,1.322-10.354,2.129-15.494,3.376c-10.959,2.66-19.819,9.404-30.397,12.887c-1.53,0.504-2.761-0.81-2.9-2.209
    c-0.411-4.141-0.485-8.321-0.139-12.468c-0.604-0.412-1.029-1.081-1.038-1.97c-0.106-10.602-0.251-20.551-2.808-30.888
    c-1.613-6.52-4.024-14.414-1.536-21.01c2.423-6.426,9.56-9.221,15.706-10.713c5.91-1.434,11.595-2.655,17.312-4.583
    c-1.618-4.2-2.594-8.615-2.601-13.024c-0.014-9.268,1.875-19.835,7.514-27.45c2.758-3.725,6.053-6.289,9.679-8.349
    c-2.686-4.745-2.682-10.722-2.16-16.006c0.594-6.011,1.338-12.276,2.935-18.102c4.287-15.647,13.579-29.168,18.579-44.504
    c3.904-11.975,4.473-27.769,14.456-36.782c3.809-3.439,8.448-5.095,12.54-1.326c3.167-6.525,9.743-9.964,16.597-13.126
    c11.253-5.192,22.069-11.347,34.565-13.012c23.194-3.091,39.651,12.429,58.004,23.784c4.277,2.646,9.205,4.623,12.264,8.8
    c2.948,4.025,4.272,8.564,5.225,13.404c0.384,1.951,0.751,3.91,1.114,5.871c3.367,7.761,8.071,14.876,12.399,22.118
    c4.143,6.931,7.413,14.229,9.969,21.889c2.954,8.854,6.1,17.277,10.038,25.754c3.284,7.068,5.475,13.745,6.569,21.487
    c1.924,13.617,4.204,27.841-2.489,40.626c-0.019,0.037-0.041,0.073-0.06,0.11c8.159,16.288,6.22,34.331,5.644,52.002
    c-0.308,9.441-0.771,19.076,0.208,28.486C292.725,280.224,293.685,286.696,291.453,291.955z M137.001,45.936
    c0.443,0,0.889,0.007,1.34,0.025c7.593,0.297,15.097,1.049,22.68,1.424c7.105,0.352,14.331,0.506,21.322,1.957
    c11.026,2.289,19.732,8.17,26.758,16.929c6.845,8.534,13.597,18.1,18.916,27.664c3.135,5.636,5.656,11.579,7.712,17.687
    c2.125-0.903,4.173-1.9,6.194-2.994c-2.229-5.568-3.965-11.289-6.358-16.816c-2.19-5.056-4.339-10.119-5.581-15.505
    c-0.343-1.484,1.901-2.112,2.284-0.63c1.636,6.331,4.666,11.986,7.508,17.829c2.068,4.252,3.528,8.894,5.651,13.113
    c0.972-0.594,1.946-1.212,2.933-1.807c-0.385-1.159-0.773-2.317-1.162-3.474c-3.137-9.333-6.76-19.039-6.243-29.038
    c0.067-1.289,1.931-1.288,2,0c0.567,10.715,4.738,20.677,8.748,30.688c0.77-0.361,1.556-0.683,2.363-0.939
    c0.84-0.266,1.552-0.106,2.092,0.282c-0.828-1.75-1.637-3.508-2.402-5.286c-4.636-10.771-6.529-22.398-8.685-33.85
    c-0.957-5.08-1.469-11.016-4.278-15.501c-2.677-4.276-6.69-5.972-10.812-8.521c-15.741-9.738-32.048-25.702-51.989-24.148
    c-5.448,0.425-10.645,1.718-15.702,3.468c-0.046,0.294-0.167,0.582-0.379,0.836c-1.047,1.256-2.156,2.449-3.283,3.623
    c8.491-0.861,17.816-0.035,24.324,3.567c2.696,1.492,0.756,5.186-1.979,4.695c-9.252-1.66-18.91-4.211-28.331-2.201
    c-0.493,0.503-0.992,1-1.476,1.513c-1.647,1.746-3.161,3.597-4.67,5.45c1.609-0.214,3.185-0.396,4.66-0.551
    c17.361-1.82,35.3,0.306,51.923,5.61c3.495,1.115,2.042,6.083-1.497,5.429c-15.794-2.918-31.375-6.535-47.573-5.266
    c-3.853,0.302-8.451,0.428-12.946,1.061C139.94,43.422,138.538,44.761,137.001,45.936z M118.967,55.837
    c-7.983,7.26-10.933,17.753-10.93,28.277c0.001,5.617-1.396,10.679-3.172,15.916c0.346-0.052,0.734-0.022,1.164,0.125
    c2.639,0.9,23.002-1.972,21.443,3.348c-0.132,0.45-0.652,0.667-1.062,0.432c-6.013-3.439-14.595,0.671-21.047,1.145
    c-0.898,0.066-1.525-0.27-1.914-0.792c-0.844,2.789-1.339,5.49-0.812,8.656c0.419,2.515,0.601,4.698,0.049,7.205
    c-0.117,0.53-0.506,0.821-0.947,0.905c-2.425,9.682-9.009,18.981-8.487,29.162c0.553,10.786,3.085,21.801,4.862,32.448
    c0.853,5.11,1.715,10.292,1.796,15.485c0.079,5.1-0.39,10.226-0.1,15.322c0.545,9.557,4.636,17.313,11.569,23.787
    c3.008,2.809,6.587,5.352,9.218,8.521c2.448,2.948,4.404,7.014,8.58,7.66c2.309,0.357,4.744,0.62,7.125,1.037
    c-1.662-1.693-3.446-3.277-5.229-4.839c-1.043-0.913,0.38-2.786,1.491-1.933c2.945,2.259,5.411,4.784,7.579,7.645
    c2.636,0.775,5.062,1.948,6.987,3.928c-2.464-5.667-5.954-10.488-9.146-15.88c-0.88-1.486,1.296-3.27,2.44-1.883
    c3.777,4.581,6.964,10.262,8.361,16.181c3.528-8.747,11.95-16.46,21.89-15.21c2.399,0.302,4.685,1.145,6.979,1.407
    c-0.67-0.851-1.303-1.739-1.998-2.539c-1.264-1.455-2.596-2.78-4.203-3.858c-1.273-0.854-0.14-2.857,1.211-2.072
    c1.845,1.071,3.485,2.423,4.965,3.956c1.323,1.37,2.801,2.69,4.005,4.167c0.427-0.142,0.856-0.315,1.288-0.545
    c0.155-0.083,0.309-0.171,0.464-0.257c-0.11-0.169-0.192-0.367-0.192-0.625c0.003-11.72,10.756-18.679,19.344-24.715
    c12.11-8.511,16.418-22.508,18.944-36.427c0.265-1.46,2.764-1.13,2.599,0.352c-1.287,11.553-5.632,24.865-14.01,33.287
    c-8.312,8.356-23.462,13.434-24.489,26.855c1.325-0.778,2.671-1.53,4.093-2.017c3.499-1.197,7.144-1.081,9.8,1.821
    c0.529,0.578,1.536,2.022,2.736,3.462c4.156-12.156,12.79-21.92,17.385-33.817c2.3-5.956,3.673-12.099,5.065-18.313
    c1.493-6.666,3.916-13.094,4.804-19.893c0.11-0.84,1.333-0.899,1.354,0c0.147,6.521-1.09,12.774-2.169,19.173
    c-1.154,6.84-2.266,13.708-4.871,20.186c-4.852,12.068-13.208,22.382-17.076,34.892c-0.155,0.5-0.419,0.872-0.739,1.15
    c0.961,0.461,1.879,0.47,2.638-0.326c1.806-1.895,2.987-4.328,4.378-6.524c2.282-3.601,4.695-7.113,7.532-10.305
    c5.09-5.727,13.821-12.374,21.337-6.646c3.603,2.746,6.344,7.473,9.262,10.95c2.596,3.093,5.301,6.338,7.258,9.926
    c4.681-2.942,10.99-3.731,13.979-8.868c3.145-5.404,1.761-10.526-0.688-15.449c-0.16-0.133-0.304-0.306-0.416-0.534
    c-1.348-2.733-4.047-5.268-4.639-8.293c-4.687,1.665-9.754,2.093-14.893,0.735c-5.025-1.328-2.897-9.051,2.143-7.772
    c14.568,3.696,26.906-11.613,29.34-24.409c1.264-6.645,0.755-13.027,0.102-19.694c-0.655-6.689-0.571-13.876-3.19-20.177
    c-2.973-7.154-6.597-14.092-8.962-21.488c-2.093-6.545-3.574-13.262-6.024-19.699c-3.305-8.683-8.704-16.482-12.847-24.779
    c1.647,7.832,3.71,15.551,7.086,22.855c5.281,11.428,11.684,22.393,13.838,34.969c1.082,6.315,1.874,12.707,2.746,19.052
    c0.746,5.436,0.997,10.359-1.172,15.488c-0.977,2.311-4.247,0.563-3.824-1.612c1.305-6.707,0.183-12.818-0.845-19.464
    c-0.892-5.766-1.271-11.597-2.77-17.262c-2.258-8.531-6.294-16.314-10.103-24.209c-0.008,0.827-0.361,1.66-1.173,2.194
    c-0.727,0.478-1.498,0.959-2.304,1.435c3.273,8.566,5.958,17.268,5.722,26.606c-0.056,2.195-3.536,2.845-3.958,0.536
    c-1.079-5.906-1.663-11.843-3.215-17.664c-0.67-2.514-1.417-5.005-2.197-7.485c-1.332,0.671-2.716,1.308-4.123,1.885
    c5.106,8.916,4.882,20.167,5.633,30.112c0.172,2.272-3.609,2.798-3.988,0.54c-1.638-9.738-0.656-20.336-5.095-29.382
    c-1.955,0.636-3.912,1.127-5.798,1.398c1.585,5.136,2.868,10.369,3.926,15.621c2.791,13.863,5.217,28.05,4.828,42.239
    c-0.314,11.445,0.21,23.347-8.698,31.854c-1.95,1.862-4.886-1.062-2.959-2.958c5.36-5.273,6.794-11.853,7.037-19.147
    c0.235-7.056,0.503-14.133-0.025-21.182c-0.713-9.519-2.212-19.123-4.299-28.537c-0.1-0.042-0.201-0.095-0.302-0.165
    c-2.069-1.426-4.284-2.475-6.838-2.493c-1.432-0.01-1.331-1.976,0-2.154c2.151-0.286,4.258,0.061,6.224,0.849
    c-0.161-0.667-0.331-1.33-0.496-1.995c-1.7-0.597-3.419-1.224-5.235-1.023c-1.625,0.179-1.918-2.43-0.38-2.81
    c1.575-0.389,3.122-0.282,4.642,0.053c-0.19-0.713-0.376-1.429-0.573-2.139c-0.217,0.034-0.452,0.035-0.709-0.013
    c-0.823-0.154-1.635-0.399-2.463-0.517c-0.663-0.094-1.329-0.024-1.993-0.067c-1.8-0.116-2.18-2.578-0.425-3.142
    c1.367-0.44,3.017-0.383,4.493-0.046c-0.177-0.592-0.36-1.183-0.544-1.774c-0.263,0.128-0.581,0.157-0.939,0.022
    c-0.996-0.375-2.001-0.906-3.078-0.981c-1.706-0.119-1.741-2.646,0-2.677c1.036-0.018,2.065,0.182,3.019,0.569
    c-0.25-0.739-0.514-1.472-0.779-2.206c-0.268,0.242-0.643,0.361-1.091,0.224c-0.558-0.171-1.011-0.439-1.533-0.685
    c-0.467-0.219-0.98-0.336-1.373-0.714c-0.596-0.573-0.299-1.61,0.482-1.825c0.631-0.174,1.409,0.034,2.03,0.224
    c0.179,0.055,0.347,0.116,0.508,0.184c-0.925-2.362-1.933-4.69-3.081-6.95c-2.631-5.185-5.947-9.825-9.123-14.673
    c-5.979-9.127-11.893-19.523-21.051-25.874c-12.435-8.624-28.041-7.508-42.434-9.349C142.122,49.039,128.223,47.419,118.967,55.837z
     M81.102,150.601c2.512-1.11,5.123-2.136,7.784-3.248c0.047-0.02,0.092-0.028,0.139-0.043c0.051-0.667,0.115-1.333,0.203-1.997
    c1.203-9.144,7.347-17.142,10.711-25.54c0.046-0.114,0.112-0.199,0.178-0.285c0.073-3.221-1.121-6.226-1.134-9.413
    c-0.013-2.955,0.806-5.606,1.767-8.388c2.208-6.397,3.738-12.065,3.905-18.882c0.327-13.303,6.089-26.092,16.526-32.538
    c-0.241-0.314-0.368-0.738-0.276-1.252c0.483-2.693,0.354-7.146-2.619-8.55c-2.446-1.155-4.97,2.292-6.245,3.93
    c-3.477,4.47-5.418,9.839-6.873,15.255c-2.712,10.091-5.191,19.742-9.615,29.274c-5.268,11.349-11.681,22.644-14.084,35.055
    C79.994,131.597,76.852,143.419,81.102,150.601z M96.336,262.708c-1.477-3.168-2.805-6.375-4.102-9.617
    c-0.388,0.27-0.876,0.439-1.475,0.438c-19.003-0.041-37.449,9.638-54.186,17.723c0.526,3.115,1.087,6.233,1.423,9.371
    c10.089-3.612,18.792-9.818,29.557-12.061C76.993,266.597,86.655,263.458,96.336,262.708z M154.953,301.981
    c-1.234-7.666-7.034-13.373-9.694-20.59c-1.288-3.493-1.614-6.837-0.961-10.509c0.226-1.269,0.646-2.82,0.653-4.282
    c-0.273-0.116-0.542-0.275-0.796-0.513c-2.251-2.103-6.112-1.357-8.918-1.85c-3.078-0.541-6.085-1.56-8.969-2.753
    c-5.62-2.324-11.474-4.56-16.146-8.565c-8.819-7.559-14.469-18.21-18.812-28.818c-9.2-22.475-14.44-49.062-3.161-71.635
    c-6.372,4.879-14.009,7.11-18.139,14.938c-4.158,7.881-6.321,18.17-4.369,27.003c2.162,9.781,7.541,16.737,13.99,24.094
    c5.576,6.362,10.313,13.384,13.529,21.239c3.885,9.488,6.787,18.981,12.187,27.819c5.088,8.327,11.018,16.114,17.794,23.144
    c6.782,7.037,14.177,10.105,23.931,10.838C149.659,301.737,152.297,301.896,154.953,301.981z M191.415,283.38
    c5.776-6.562,11.239-13.378,16.774-20.142c5.82-7.112,11.829-14.067,17.199-21.536c2.198-3.057,4.243-6.022,5.848-9.433
    c0.603-1.281,1.21-2.528,1.901-3.719c-6.848,1.969-12.689,10.287-16.674,15.404c-3.184,4.089-9.425,12.148-14.449,5.427
    c-1.637-2.19-3.738-6.276-6.703-6.894c-3.04-0.635-5.482,1.429-7.798,3.037c-3.36,2.333-7.066,3.737-11.215,2.916
    c-6.666-1.319-12.141-2.585-17.716,2.451c-3.825,3.455-6.954,7.599-8.717,12.477c-0.016,0.044-0.044,0.069-0.063,0.11
    c0.805,2.61,0.162,5.482-0.076,8.139c-0.408,4.541,1.037,8.33,3.347,12.19c3.55,5.932,7.147,11.382,8.109,18.214
    c3.98-0.092,7.943-0.439,11.786-1.177c0.199-0.23,0.427-0.447,0.713-0.63C180.47,295.872,186.113,289.402,191.415,283.38z
     M209.37,285.639c11.085-5.134,22.915-9.258,33.604-15.182c4.504-2.496,11.406-6.344,12.857-11.771
    c1.259-4.707-0.764-9.318-3.284-13.255c-2.555-3.992-5.506-7.785-8.707-11.281c-1.632-1.782-3.489-4.284-5.823-5.415
    c-2.226,2.837-3.163,6.377-5.134,9.397c-2.274,3.485-4.792,6.814-7.314,10.123c-5.029,6.597-10.491,12.845-15.754,19.252
    c-5.543,6.748-11.034,13.556-16.815,20.103c-2.658,3.01-5.168,6.27-7.792,9.415c2.381-0.728,4.75-1.598,7.171-2.821
    C198.045,291.342,203.608,288.308,209.37,285.639z M285.5,301.811c1.577-1.621,2.077-3.439,2.306-5.377
    c-2.876,1.975-6.693,2.454-10.296,1.316c-3.083-0.974-6.144-2.761-9.361-3.223c-3.598-0.517-7.296,0.985-10.933,0.866
    c-6.496-0.212-13.747-2.499-19.977-4.394c-4.067-1.237-9.007-2.701-11.724-6.198c-3.857,1.708-7.697,3.408-11.424,5.214
    c-2.8,1.356-5.545,2.824-8.284,4.303c15.565,3.885,31.179,8.53,46.968,11.315c7.467,1.317,15.641,2.265,23.127,0.467
    C279.164,305.318,283.073,304.306,285.5,301.811z M210.099,131.205c-2.427-0.843-4.763-1.932-7.174-2.82
    c-1.386-0.51-2.356,1.782-1.008,2.39c2.469,1.112,4.794,2.478,7.413,3.219C211.143,134.506,211.842,131.811,210.099,131.205z
     M183.242,191.204c-1.599-1.134-3.314,1.305-2.032,2.633c2.672,2.766,4.716,5.741,6.803,8.953c1.464,2.253,4.593,0.309,3.533-2.065
    C189.8,196.814,186.706,193.659,183.242,191.204z M196.227,192.095c-0.316-1.095-1.464-1.766-2.573-1.461
    c-1.121,0.308-1.733,1.467-1.461,2.573c0.248,1.009,0.677,1.961,0.925,2.97c0.28,1.14,1.541,1.809,2.649,1.504
    c1.121-0.308,1.829-1.522,1.504-2.649C196.982,194.032,196.515,193.096,196.227,192.095z M148.597,72.837
    c-11.108,3.843-30.019,3.784-34.079,17.419c-0.36,1.208,1.47,1.688,1.869,0.515c4.352-12.807,22.984-11.001,33.158-15.685
    C150.814,74.502,149.908,72.384,148.597,72.837z M122.684,186.007c-0.249,1.133-0.259,2.29-0.248,3.445
    c0.004,0.397,0.221,0.647,0.498,0.77c0.063,0.2,0.191,0.391,0.405,0.545c1.389,1,4.41,1.985,6.315,1.222
    c4.345,1.595,9.427,2.134,14.16,1.378c0.504,0.036,1.002-0.052,1.469-0.281c1.357-0.301,2.673-0.715,3.923-1.247
    c1.35,0.139,2.781,0.046,3.835-0.695c0.324,0.036,0.645,0.077,0.958,0.154c0.475,0.117,0.956-0.044,1.271-0.382
    c1.002,0.159,2.157-0.676,1.767-1.869c-0.017-0.045-0.026-0.092-0.039-0.138c0,0,0,0,0,0c0.051,0.155,0.045-0.087,0.012-0.045
    c0.019-0.081,0.039-0.161,0.065-0.24c0.029-0.059,0.218-0.564,0.121-0.334c0.285-0.675,0.307-1.381-0.25-1.939
    c-0.582-0.582-1.693-0.661-2.262,0c-0.452,0.524-0.723,1.138-0.812,1.775c0.007,0.134,0.003,0.268-0.019,0.399
    c-0.001,0.073-0.014,0.146-0.011,0.22c-0.015-0.001-0.03-0.001-0.044-0.001c-0.177,0.571-0.651,1.038-1.428,1.038
    c-0.175,0-0.327-0.032-0.47-0.077c-0.157,0.047-0.325,0.081-0.515,0.081c-0.108,0-0.202-0.021-0.3-0.037
    c0.018-0.094,0.028-0.192,0.023-0.298c-0.021-0.455-0.039-1.034-0.087-1.402c-0.075-0.576-0.077-1.125-0.336-1.657
    c-0.377-0.773-1.669-0.774-2.045,0c-0.069,0.141-0.123,0.289-0.169,0.44c-0.02,0.024-0.045,0.034-0.064,0.06
    c-0.557,0.766-0.5,1.661-0.452,2.559c0.006,0.108,0.044,0.19,0.069,0.283c-0.027-0.002-0.057-0.004-0.084-0.006
    c-0.283-0.018-0.497,0.096-0.649,0.27c-0.136,0.012-0.252,0.05-0.351,0.106c-0.168-0.104-0.358-0.183-0.6-0.191
    c-0.125-0.004-0.249-0.012-0.374-0.017c-0.426-0.232-0.952-0.288-1.428-0.066c-1.017-0.053-2.033-0.09-3.053-0.065
    c0.122-1.008,0.334-1.994,0.348-3.021c0.023-1.647-2.531-1.645-2.553,0c-0.01,0.756-0.073,1.505-0.098,2.258
    c-0.647-0.087-1.278,0.091-1.936,0.137c-0.7,0.049-1.406,0.005-2.104-0.041c-0.183-0.012-0.335,0.023-0.471,0.079
    c-0.107-0.171-0.254-0.305-0.415-0.42l0.009-1.028c0.01-1.091-1.702-1.091-1.692,0l0.008,0.948c-0.55,0.221-0.971,0.445-1.549,0.051
    c-0.062-0.042-0.134-0.058-0.203-0.083c-0.31-0.344-0.747-0.554-1.214-0.523c0.004-0.05,0.022-0.093,0.02-0.147
    c-0.031-0.743-0.102-1.468-0.077-2.215c0.056-1.687-2.674-1.686-2.615,0c0.033,0.958,0.055,1.954,0.571,2.79
    c0.153,0.247,0.38,0.399,0.628,0.475c-0.083,0.07-0.168,0.135-0.261,0.19c-0.296,0.175-0.805,0.087-1.126,0.076
    c-0.853-0.031-1.682-0.296-2.529-0.302c0.011-0.836,0.042-1.674,0.238-2.49C124.743,185.338,122.939,184.848,122.684,186.007z
     M208.73,144.767c1.69-0.132,2.268-2.712,0.421-3.112c-2.718-0.588-4.357-1.479-6.001-3.752c-1.406-1.942-2.689-3.866-4.736-5.195
    c-0.962-0.625-2.103,0.835-1.23,1.594C201.253,137.841,201.822,145.306,208.73,144.767z M195.44,126.939
    c-0.11,1.296-1.19,1.827-2.114,1.612c0.032,1.182-1.563,2.304-2.676,1.21c-1.065-1.047-2.194-1.981-3.372-2.799
    c-0.525,4.801-5.454,8.242-10.173,6.21c-4.114-1.772-5.376-6.155-4.083-10.086c-1.048,0.108-2.098,0.292-3.144,0.573
    c-1.479,1.016-2.589,2.118-3.821,3.677c-0.192,0.243-0.458,0.393-0.748,0.481c1.179,6.343,10.391,7.908,14.23,12.316
    c1.323,1.52-0.431,4.238-2.274,2.947c-5.886-4.12-15.376-7.622-14.583-16.193c-0.434-0.057-0.796-0.355-0.729-0.933
    C163.964,108.582,197.046,108.057,195.44,126.939z M185.478,125.835c-1.097-0.626-2.23-1.143-3.387-1.568
    c0.749,1.285,0.857,3.038,0.131,4.403c-0.453,0.851-1.629,1.353-2.554,1.039c-0.425-0.145-0.668-0.275-0.998-0.582
    c-0.762-0.709-0.82-1.863-0.354-2.74c0.141-0.266,0.316-0.516,0.453-0.784c-0.002-0.048,0.151-0.505,0.171-0.599
    c0.006-0.03,0.01-0.043,0.015-0.063c0-0.002-0.001-0.007-0.001-0.009c-0.106-0.132-0.287-0.274-0.434-0.374
    c-0.481-0.328-0.599-0.881-0.438-1.33c-1.142-0.176-2.295-0.266-3.456-0.241c-0.071,2.46,0.785,5.613,3.097,6.733
    c3.396,1.646,6.691-0.119,7.645-3.663C185.393,125.97,185.438,125.906,185.478,125.835z M177.055,116.425
    c0.273,0.333,0.349,0.797,0.018,1.298c-0.89,1.345-1.978,2.43-3.206,3.368c6.357-0.781,12.894,1.411,18.113,5.746
    C191.123,118.275,184.016,115.294,177.055,116.425z M101.178,152.723c-0.304-0.001-0.608,0.054-0.903,0.122
    c-0.031,0.007-0.062,0.013-0.092,0.02c-0.08,0.011-0.151,0.02-0.264,0.036c-0.175,0.061-0.346,0.129-0.511,0.211
    c-0.726,0.112-1.349,0.664-1.546,1.378c-0.251,0.911,0.303,2.191,1.332,2.346c0.02,0.003,0.024,0.002,0.039,0.004
    c0.003,0.002,0.004,0.002,0.007,0.004c0.415,0.22,0.853,0.382,1.329,0.388c1.046,0.013,1.815-0.62,2.358-1.458
    C103.78,154.46,102.658,152.729,101.178,152.723z M172.22,288.143c-1.009,3.157-4.079,5.006-7.233,3.39
    c-2.766-1.417-4.618-4.731-3.603-7.802c0.024-0.072,0.065-0.126,0.102-0.185c0.194-3.182,3.421-4.992,6.582-3.652
    C171.237,281.237,173.313,284.722,172.22,288.143z M167.262,283.23c-1.741-0.573-1.669,0.122-1.963,1.734
    c-0.171,0.935-1.01,1.389-1.852,1.381c0.38,1.02,1.064,1.893,2.151,2.434c1.385,0.689,2.996,0.611,3.436-1.123
    C169.431,286.093,169.081,283.828,167.262,283.23z M159.357,270.363c-1.082-1.056-1.847-2.362-2.115-3.857
    c-0.275-1.533,0.212-2.855,0.571-4.314c-0.188-0.722-0.026-1.503,0.715-2.1c2.932-2.362,7.944-2.81,10.509,0.491
    c2.447,3.151,1.859,7.403-1.104,10.071C165.484,272.857,161.682,272.631,159.357,270.363z M165.265,267.986
    c0.961-0.924,2.384-3.582,0.741-4.627c-1.586-1.009-3.043-0.316-4.534,0.549c-0.498,0.289-1.017,0.351-1.507,0.267
    C158.943,266.584,163.168,270.002,165.265,267.986z M152.862,120.293c0.354,10.396,8.507,17.837,13.779,26.113
    c1.163,1.825,4.545,0.641,3.655-1.541c-3.628-8.899-12.474-15.259-14.049-25.03C155.934,117.898,152.797,118.381,152.862,120.293z
     M98.896,148.416c0.832-0.262,1.133-0.912,1.417-1.662c0.336-0.887-0.512-1.742-1.35-1.772c-0.017-0.001-0.034-0.001-0.051-0.002
    c-0.409-0.103-0.831-0.025-1.208,0.182c-0.05,0.023-0.104,0.036-0.153,0.062c-0.118,0.091-0.236,0.182-0.353,0.273
    c-0.015,0.015-0.017,0.018-0.027,0.028c-0.019,0.017-0.043,0.029-0.061,0.047c-0.665,0.675-0.653,1.751,0,2.427
    C97.57,148.476,98.276,148.611,98.896,148.416z M156.355,107.636c4.803-1.481,9.056-2.555,14.136-2.141
    c4.789,0.39,9.521,2.213,13.995,3.843c1.494,0.544,2.488-1.85,1.079-2.558c-9.734-4.888-20.852-9.581-31.485-4.541
    C151.026,103.685,153.193,108.611,156.355,107.636z M143.832,100.643c-0.494,2.153,2.865,3.055,3.293,0.908
    c0.616-3.092,1.165-6.556,4.205-8.145c1.556-0.813,0.188-3.101-1.366-2.338C146.042,92.994,144.749,96.647,143.832,100.643z
     M124.702,63.577c0.793,0.54,1.96,0.312,2.61-0.337c0.647-0.647,0.797-1.644,0.407-2.46c0-0.016,0.008-0.031,0.008-0.048
    c0-0.695-0.51-1.507-1.242-1.632c-1.09-0.185-2.021,0.036-2.694,0.969c-0.265,0.367-0.392,0.887-0.344,1.336
    C123.549,62.357,123.881,63.018,124.702,63.577z M123.029,70.46c0.089,0.659,0.623,1.337,1.207,1.637
    c1.555,0.796,3.774-0.065,4.158-1.853c0.186-0.867,0.015-1.736-0.629-2.38c-0.712-0.712-1.854-0.918-2.763-0.481
    c-0.782,0.023-1.73,0.606-1.849,1.441c-0.007,0.052-0.015,0.104-0.022,0.156l0.055-0.095
    C122.99,69.357,122.945,69.835,123.029,70.46z M118.306,75.353c0.721-0.198,1.232-0.688,1.514-1.305
    c0.231-0.338,0.374-0.736,0.374-1.188c0-0.856-0.493-1.462-1.169-1.78c-0.051-0.035-0.092-0.081-0.146-0.112
    c-0.554-0.325-1.23-0.412-1.849-0.242c-1.26,0.347-2.023,1.691-1.676,2.952C115.7,74.938,117.045,75.7,118.306,75.353z
     M182.314,84.605c1.854,0.99,3.523,2.213,5.097,3.601c1.226,1.081,3.032-0.763,1.784-1.784c-1.785-1.459-3.655-2.771-5.732-3.783
    C182.156,82.003,181.009,83.908,182.314,84.605z M182.091,91.949c2.051,1.427,4.148,2.773,6.102,4.335
    c1.18,0.943,2.862-0.633,1.697-1.697c-2.004-1.83-4.409-3.092-6.696-4.525C181.985,89.305,180.951,91.156,182.091,91.949z
     M180.534,96.925c2.762,1.09,5.235,2.606,7.596,4.397c0.837,0.635,1.763-0.857,0.838-1.434c-2.568-1.602-5.302-2.957-8.156-3.971
    C180.169,95.687,179.919,96.682,180.534,96.925z"/>
</svg>