<svg xmlns="http://www.w3.org/2000/svg" viewBox="0 0 320 320">
    <path d="M277.734,188.775c-4.75-17.702-28.897-18.41-40.851-28.899c-0.011-0.01-0.023-0.015-0.035-0.025
	c5.852-11.452,8.701-23.259,9.68-36.289c1.187-15.802,1.723-31.545,3.273-47.336c1.375-14.01,2.3-28.043,3.465-42.067
	c0.559-6.726,2.223-18.848-4.965-22.917c-5.358-3.033-12.997,0.179-18.057,2.289c-15.923,6.64-29.566,17.483-45.121,24.762
	c-11.461,5.364-23.514,8.251-33.747,15.665c-1.018-7.641-3.435-14.736-9.082-20.95c-4.602-5.064-13.478-14.159-21.268-12.267
	c-3.765,0.915-5.618,4.012-6.556,7.559c-0.912,3.448,0.834,6.611,3.019,9.404c-0.278,0.108-0.553,0.252-0.816,0.469
	c-11.315,9.378-23.206,17.104-37.574,20.732c-9.53,2.406-19.597,4.24-27.546,10.397c-10.11,7.83-6.445,23.75-7.384,34.742
	c-0.602,7.052-3.602,13.416-2.642,20.615c1.75,13.121,13.376,22.856,27.816,27.518c1.643,11.176,2.614,22.364,4.057,33.613
	c1.205,9.389,1.74,22.225,7.995,29.927c7.734,9.523,20.225,14.294,30.506,20.908c-7.029,3.429-14.57,7.052-22.365,6.415
	c0.095-1.199,1.676-6.922-0.208-7.847c-5.174-2.54-10.371-3.629-15.611-0.734c-4.979,2.75-7.293,9.068-8.287,14.3
	c-1.593,8.387-0.276,17.874,1.641,26.097c1.781,7.635,8.786,23.972,9.076,25.189c1.114,4.676,4.557,7.322,8.892,8.966
	c4.945,1.876,10.885,0.676,15.887-0.293c7.479-1.449,14.709-4.315,21.808-7.002c14.473-5.478,28.873-10.732,42.972-17.158
	c15.483-7.056,30.864-13.268,47.172-18.187c14.284-4.309,29.04-7.741,43.1-12.703c12.776-4.509,13.105-19.37,16.011-30.562
	C274.944,211.727,280.97,200.834,277.734,188.775z M241.717,101.489c-0.858,15.589-0.387,31.28-5.547,46.242
	c-4.367,12.666-13.321,23.221-17.954,35.824c-2.075,5.646-3.003,11.637-3.03,17.635c-2.199,0.456-4.401,0.9-6.606,1.316
	c-5.328,1.006-10.603,2.551-15.823,4.294c-0.15-4.994-0.78-9.937-1.589-14.863c5.454-2.647,9.168-8.153,12.215-13.216
	c4.802-7.978,8.265-16.694,11.915-25.232c4.361-10.202,9.733-19.898,15.013-29.644c4.387-8.097,7.392-17.094,11.596-25.312
	C241.845,99.518,241.771,100.503,241.717,101.489z M246.571,17.534c0.15,0.226,0.287,0.468,0.393,0.744
	c1.84,4.762,0.919,10.932,0.541,15.881c-0.453,5.917-0.872,11.831-1.32,17.748c-0.81,10.696-2.056,21.369-3.084,32.054
	c-1.974,3.241-11.006,24.578-15.836,33.707c-5.246,9.915-10.934,19.622-15.458,29.901c-3.302,7.502-6.316,15.118-9.847,22.521
	c-2.875,6.028-6.309,13.032-11.528,17.593c-1.626-9.008-3.563-17.991-3.99-27.154c0.096-1.114,0.237-2.223,0.413-3.33
	c4.042-11.368,9.76-21.911,15.028-32.721c0.784,3.075,2.379,5.736,5.472,6.978c6.892,2.766,10.962-9.67,12.202-13.82
	c3.084-10.326,11.162-32.563-0.371-40.576c4.044-9.635,9.224-18.687,14.001-28.069c2.573-5.054,5.116-10.116,6.854-15.523
	C241.784,28.042,243.048,22.139,246.571,17.534z M212.79,80.056c-3.604,10.125-6.275,20.429-9.981,30.45
	c-3.089-2.037-5.386-3.522-6.614-7.236c-1.202-3.638-0.65-7.622,0.43-11.205c2.242-7.438,8.539-12.933,16.227-12.175
	C212.832,79.945,212.81,80,212.79,80.056z M215.668,86.623c0.418-1.342,0.871-2.665,1.343-3.978
	c5.216,7.103,1.482,19.104-0.586,26.769c-1.391,5.157-2.667,10.739-5.536,15.278c-3.144,4.973-4.981-2.4-5.752-7.235
	C209.427,107.445,212.425,97.049,215.668,86.623z M186.313,44.137c6.808-2.717,13.071-7.015,19.331-10.767
	c0.39-0.234,0.957-0.589,1.662-1.033c0.001,0.007,0,0.012,0.001,0.019c1.726,11.352-3.604,20.369-13.547,25.907
	c-10.29,5.731-21.645,4.051-28.783-5.342c-0.054-0.071-0.112-0.127-0.169-0.188C171.744,49.375,179.228,46.964,186.313,44.137z
	 M152.02,68.202c0.044-0.207,0.068-0.428,0.068-0.666c-0.002-2.17-0.034-4.312-0.121-6.425c2.999-2.722,6.319-4.938,9.826-6.843
	c0.032,0.141,0.075,0.284,0.14,0.432c12.387,28.242,59.76,3.083,50.585-23.781c-0.197-0.577-0.499-1.003-0.855-1.313
	c8.36-5.177,22.551-13.469,30.269-13.816c-5.388,8.027-6.958,18.582-11.14,27.207c-5.304,10.938-11.676,21.338-16.28,32.581
	c-10.617-3.435-19.557,4.279-23.298,14.002c-3.372,8.765-1.52,23.64,9.515,26.032c0.026,0.006,0.05,0.005,0.075,0.01
	c-0.561,1.348-1.14,2.692-1.757,4.026c-5.55,12.007-12.079,23.623-15.633,36.442c-11.644-2.596-23.14-5.858-34.352-9.918
	c-0.004-0.239-0.004-0.477-0.008-0.716c0.096-0.185,0.177-0.387,0.232-0.62c2.341-9.909,10.723-32.21-5.745-34.498
	c-12.254-1.703-27.313,6.963-36.425,14.684c-4.381-2.944-8.688-6.03-12.963-9.249c14.107-4.552,28.08-9.293,41.159-16.609
	c6.628-3.707,13.447-8.599,16.89-15.57C154.411,79.119,156.046,72.101,152.02,68.202z M143.837,143.334
	c-0.075,0.299-0.091,0.578-0.081,0.846c-2.9-1.128-5.786-2.293-8.641-3.538c-8.754-3.819-16.877-8.382-24.708-13.45
	c8.079-5.766,18.84-10.656,28.496-11.832C154.808,113.422,145.892,135.171,143.837,143.334z M144.001,149.726
	c-1.011,4.74-2.702,9.654-6.691,12.566c-5.127,3.744-12.051,0.618-16.844-2.05c-11.242-6.259-10.663-16.361-10.723-27.09
	c7.353,4.594,15.22,8.441,22.826,11.847C136.333,146.684,140.149,148.253,144.001,149.726z M123.866,25.924
	c6.31,1.175,11.964,7.701,15.914,12.323c6.536,7.648,6.545,18.128,6.535,27.762c-3.8,0.192-7.195,3.201-7.529,6.541
	c-6.6-6.939-6-18.331-9.715-26.833c-2.051-4.694-5.157-8.096-8.114-12.182C118.881,30.666,119.352,25.083,123.866,25.924z
	 M50.358,130.752c-0.292,0.364-0.545,0.72-0.772,1.072c-2.321-3.69-3.476-7.627-3.215-12.377c0.203-3.68,1.465-7.25,2.246-10.823
	c0.742-3.393,0.906-6.927,1.036-10.384c0.246-6.521-0.605-13.628,1.491-19.911c1.474-4.418,6.329-6.991,10.263-8.78
	c8.33-3.787,17.725-4.677,26.361-7.556c12.282-4.096,22.849-11.839,32.724-19.997c0.137-0.113,0.246-0.233,0.351-0.354
	c0.127,0.147,0.256,0.296,0.377,0.44c8.858,10.531,4.572,29.246,18.629,35.98c5.469,2.62,6.823-0.839,5.522-2.705
	c-0.488-0.699-1.852-2.145-1.088-3.002c0.745-0.835,2.365-1.08,3.359-0.636c5.012,2.243-2.163,12.82-4.119,14.927
	c-10.128,10.909-27.401,16.16-41.019,21.17c-9.373,3.449-19.185,5.549-28.602,8.879C65.679,119.601,55.947,123.782,50.358,130.752z
	 M74.696,150.753c-0.82-4.055-1.774-8.081-2.52-12.152c-0.706-3.855-0.447-12.4-0.107-14.888c4.062-1.841,7.435-3.19,8.272-3.467
	c3.286-1.09,6.578-2.148,9.866-3.204c4.549,5.204,9.961,9.696,15.799,13.663c-0.942,6.341-1.864,12.823-0.57,19.131
	c1.626,7.929,8.388,13.135,15.213,16.583c6.109,3.086,13.308,4.223,19.366,0.499c5.212-3.204,7.686-9.466,9.028-15.34
	c10.659,3.803,21.585,6.879,32.614,9.37c-0.084,9.31,1.911,18.387,3.859,27.476c0.054,0.251-0.386,0.761-0.676,0.838
	c-7.986,2.121-15.784,0.489-23.676-1.417c-8.468-2.044-16.838-4.276-25.351-6.136c-21.016-4.591-41.704-11.763-59.891-23.4
	C75.587,155.782,75.203,153.26,74.696,150.753z M86.881,213.832c-6.442-6.312-6.6-18.444-7.898-26.779
	c-1.214-7.799-1.645-15.697-2.451-23.546c16.903,12.762,37.092,19.492,57.643,24.135c9.486,2.143,18.855,4.669,28.325,6.872
	c7.473,1.738,17.068,3.819,24.343,0.304c0.877,4.415,1.63,8.846,2.007,13.322c-4.125,1.449-8.214,2.969-12.264,4.398
	c-10.964,3.869-22.03,7.151-33.113,10.631c-9.003,2.826-17.429,6.778-25.935,10.764C107.685,226.842,95.612,222.387,86.881,213.832z
	 M78.303,291.17c-0.771-2.148-1.666-4.261-2.635-6.367c-3.58-7.777-5.275-15.918-5.735-24.444
	c-0.522-9.678,2.097-27.343,15.089-21.312c-1.079,11.435-4.852,22.501-0.295,33.702c1.021,2.511,6.121,12.029,6.958,18.245
	c-2.246-3.319-6.468-4.767-11.129-1.878C79.706,289.644,78.948,290.349,78.303,291.17z M270.154,209.397
	c-1.741,5.775-3.905,11.324-5.202,17.232c-1.359,6.191-1.991,13.933-6.509,18.751c-3.491,3.723-10.375,4.227-15.015,5.609
	c-7.588,2.262-15.149,4.613-22.75,6.834c-13.84,4.044-27.618,8.261-40.93,13.842c-13.994,5.867-27.463,12.863-41.612,18.397
	c-12.068,4.72-24.423,9.816-37,12.988c-5.638,1.422-12.062,2.644-17.324-0.47c-3.701-2.19-3.203-7.435,0.194-9.624
	c3.64-2.345,4.748,2.736,4.125,5.129c-0.456,1.753,1.253,3.864,3.154,3.154c9.322-3.486,4.777-15.446,2.213-22.133
	c-1.607-4.192-3.968-8.356-4.859-12.783c-1.276-6.344-0.243-12.831,0.499-19.293c8.3,1.366,16.513-1.968,24.028-5.235
	c10.018-4.354,19.707-9.216,30.107-12.655c11.583-3.83,23.35-6.934,34.876-10.991c10.857-3.821,21.888-8.066,33.224-10.236
	c11.893-2.276,23.741-5.095,35.245-8.891c6.3-2.079,18.827-5.657,22.955-12.712C273.697,192.706,272.699,200.953,270.154,209.397z
	 M204,92.755c-2,0-2-3.98,0-3.98C208,88.775,208,92.755,204,92.755z M182,49.802c3,0,3,3.794,0,3.794
	C180,53.596,180,49.802,182,49.802z M196,44.937c3,0,3,4.021,0,4.021C194,48.958,194,44.937,196,44.937z M126,127.969
	c-3,0-3-4.722,0-4.722S129,127.969,126,127.969z M136,135.412c-2,0-2-4.826,0-4.826C139,130.586,139,135.412,136,135.412z
	 M137,123.707c-2,0-2-3.588,0-3.588S139,123.707,137,123.707z M120.683,144.613c0,1.307-1.203,2.796-2.629,2.629
	c-0.176-0.021-0.352-0.041-0.528-0.062c-1.39-0.163-2.567-1.045-2.567-2.567c0-1.523,1.178-2.405,2.567-2.567
	c0.176-0.021,0.352-0.041,0.528-0.062C119.481,141.817,120.683,143.306,120.683,144.613z M123,156.209c-2,0-2-4.186,0-4.186
	C126,152.023,126,156.209,123,156.209z M133,149.651c3,0,3,3.65,0,3.65S130,149.651,133,149.651z M88,179.858c3,0,3,4.475,0,4.475
	C86,184.333,86,179.858,88,179.858z M89,195.885c-2,0-2-4.351,0-4.351C92,191.534,92,195.885,89,195.885z M93.581,208.032
	c0.346-0.577,0.164-0.338,0.115-0.034c-0.325,2.027-3.751,2.027-4.076,0c-0.049-0.304-0.231-0.542,0.115,0.034
	c-0.872-1.454,0.249-3.351,1.923-3.351C93.332,204.681,94.453,206.578,93.581,208.032z M103,216.536c-2,0-2-4.475,0-4.475
	C106,212.061,106,216.536,103,216.536z M102.216,202.986c-0.965,0-2.184-0.727-2.327-1.771c-0.023-0.17-0.046-0.339-0.07-0.509
	c-0.125-0.912-0.051-1.728,0.639-2.418c0.464-0.464,1.101-0.728,1.757-0.728c0.876,0,1.703,0.475,2.146,1.231
	c0.372,0.634,0.346,1.218,0.251,1.915c-0.023,0.17-0.046,0.339-0.07,0.509C104.4,202.259,103.181,202.986,102.216,202.986z
	 M101,185.333c3,0,3,4.083,0,4.083C99,189.416,99,185.333,101,185.333z M114,196.011c-3,0-3-3.547,0-3.547S117,196.011,114,196.011z
	 M117,205.126c3,0,3,4.619,0,4.619C115,209.746,115,205.126,117,205.126z M117,222.768c-2,0-2-4.269,0-4.269
	C120,218.5,120,222.768,117,222.768z M130,216.474c-2,0-2-4.351,0-4.351C134,212.123,134,216.474,130,216.474z M130,197.321
	c4,0,4,4.392,0,4.392C128,201.713,128,197.321,130,197.321z M142.918,201.101c0.014-0.176,0.028-0.352,0.041-0.528
	c0.108-1.384,1.077-2.547,2.547-2.547c1.47,0,2.439,1.163,2.547,2.547c0.014,0.176,0.028,0.352,0.041,0.528
	c0.11,1.408-1.261,2.588-2.588,2.588C144.178,203.689,142.808,202.509,142.918,201.101z M148.256,210.926
	c0.356,0.139,0.669,0.311,0.945,0.52c1.344,0.829,1.344,2.764,0,3.594c-0.276,0.209-0.589,0.381-0.945,0.52
	c-1.482,0.58-3.041-0.878-3.041-2.317C145.215,211.805,146.775,210.347,148.256,210.926z M163,204.008c3,0,3,4.743,0,4.743
	C161,208.752,161,204.008,163,204.008z M173.795,204.796c0-0.528,0.202-1.061,0.538-1.482c0.462-1.094,1.838-1.757,2.981-1.442
	c1.295,0.356,2.109,1.755,1.736,3.057c-0.478,1.664-1.933,2.362-3.544,2.114C174.498,206.888,173.795,205.741,173.795,204.796z
	 M206,195.906c-2,0-2-4.392,0-4.392C210,191.514,210,195.906,206,195.906z M213,179.873c-2,0-2-4.001,0-4.001
	C216,175.872,216,179.873,213,179.873z M220.588,165.133c-1.493,0.826-3.544-0.166-3.544-2.043c0-1.877,2.052-2.869,3.544-2.043
	C222.536,161.698,222.536,164.483,220.588,165.133z M227,149.874c-3,0-3-4.186,0-4.186S230,149.874,227,149.874z M233,132.397
	c3,0,3,4.372,0,4.372C231,136.769,231,132.397,233,132.397z M116.689,72.357c-16.491,8.511-33.005,18.302-51.473,21.741
	c-2.278,0.424-3.227-2.804-0.965-3.5c17.625-5.424,33.605-14.133,49.888-22.604C117.027,66.493,119.584,70.864,116.689,72.357z
	 M238.294,226.822c-10.037,5.368-20.698,9.386-31.468,13.014c-10.547,3.553-21.037,7.394-31.634,10.779
	c-21.921,7.004-44.637,11.088-66.614,17.956c-2.224,0.695-3.778-2.832-1.605-3.807c20.657-9.265,43.45-12.173,64.874-19.123
	c10.598-3.438,21.104-7.217,31.665-10.775c10.902-3.672,21.702-7.594,31.868-13.031
	C238.661,220.081,241.578,225.066,238.294,226.822z"/>
</svg>
