<svg xmlns="http://www.w3.org/2000/svg" viewBox="0 0 320 320">
    <path fill-rule="evenodd" d="M157.925,27.92c1.306-0.048,1.062,1.531,0.512,2.814c-0.65,1.517-1.595,3.779-2.388,5.031
	c-0.356,0.561-1.235,1.026-1.877,1.705c-0.689,0.732-1.071,1.706-1.705,2.218c-1.285,1.034-4.075,2.32-6.054,2.558
	c-0.992,0.12-1.894-0.011-2.814,0.256c-2.344,0.681-4.259,2.431-6.14,3.411c-2.761,1.439-5.477,2.561-7.845,4.349
	c-1.311,0.992-2.146,2.506-3.325,2.73c-1.309,0.248-3.021-0.55-3.156-1.28c-0.138-0.746,1.372-3.038,1.876-3.923
	c3.287-5.759,7.527-9.552,14.582-11.682c3.38-1.02,6.313-2.534,9.126-4.009c2.814-1.474,5.87-3.321,8.868-4.177
	C157.681,27.892,157.823,27.923,157.925,27.92z M174.64,131.188c-0.188,4.062-0.518,9.407-0.596,13.473
	c-0.041,2.057-0.438,5.764,0.17,6.736c1.072,1.717,4.546,0.469,4.945-1.023c0.325-1.21,0.387-2.621,0.597-3.753
	c0.678-3.656,0.739-9.085,0.768-12.791c0.03-3.755,1.777-12.021-2.9-11.001C174.393,123.536,174.81,127.537,174.64,131.188z
	 M115.287,130.419c-0.301,3.501-0.464,9.96-0.852,14.242c-0.263,2.91-1.679,6.518,0.938,7.505c4.184,1.577,3.807-2.7,4.093-5.714
	c0.487-5.135,0.628-9.822,0.853-14.752c0.139-3.023,0.374-8.11-2.472-7.931C114.561,123.975,115.569,127.156,115.287,130.419z
	 M148.29,129.568c1.798-0.471,2.435,4.347,2.558,6.056c0.422,5.881,0.262,12.292-0.34,18.589
	c-0.516,5.394-0.708,14.868,2.132,16.629c0.443,0.274,2.064,0.692,2.899,0.852c2.616,0.501,7.869,1.123,8.784,3.24
	c1.37,3.169-4.615,2.973-7.163,3.24c-5.666,0.595-11.093,1.135-16.799,0.938c-2.665-0.093-6.077,0.4-8.186-0.426
	c-1.183-0.464-2.924-2.728-2.132-4.265c0.574-1.117,3.594-1.127,5.2-1.449c1.837-0.37,4.715-1.61,5.629-3.07
	c0.958-1.531,0.767-3.372,1.193-5.202c1.481-6.351,1.749-14.126,2.302-21.745c0.349-4.791,1.106-11.16,3.753-13.303
	C148.186,129.6,148.18,129.596,148.29,129.568z M139.676,136.473c-0.695,6.73-0.753,14.6-1.535,21.831
	c-0.242,2.245-0.089,5.276-0.767,7.078c-1.62,4.304-8.982,2.89-10.831,6.907c-2.147,4.667,2.34,8.68,5.884,9.38
	c7.212,1.427,17.423,0.538,24.645-0.256c4.349-0.477,10.609-0.101,11.257-3.582c0.889-4.78-3.263-7.475-6.054-8.612
	c-2.108-0.858-5.521-0.982-6.141-2.302c-0.739-1.576,0.182-5.473,0.342-7.419c0.29-3.54,0.411-6.323,0.682-9.977
	c0.441-5.933,0.668-12.975-1.109-17.312c-0.566-1.38-2.181-4.667-3.326-5.456c-1.171-0.809-3.833-1.109-5.286-0.938
	C141.948,126.46,140.216,131.249,139.676,136.473z M105.481,169.136c2.443,0.57,3.157-4.224,0.428-3.668
	C104.455,165.765,103.842,168.752,105.481,169.136z M177.027,171.779c1.588-0.203,1.173-3.662-0.853-2.984
	C174.595,169.323,175.421,171.984,177.027,171.779z M113.156,173.143c2.25,0.335,3.278-4.201,0.767-3.923
	C112.409,169.388,111.292,172.866,113.156,173.143z M185.129,173.826c0.943-0.944,0.204-3.208-1.365-2.814
	C181.196,171.655,183.238,175.717,185.129,173.826z M105.652,175.19c-0.259,3.055,4.511,1.85,3.24-0.768
	c-0.162-0.331-0.637-0.608-1.451-0.511C106.557,174.017,105.719,174.394,105.652,175.19z M176.857,178.601
	c2.59,1.783,4.332-3.453,1.023-2.728C176.949,176.076,175.594,177.732,176.857,178.601z M156.831,215.495
	c-0.87,6.155-5.711,8.632-12.963,8.612c-6.727-0.017-12.715-2.142-16.287-5.713c-1.082-1.082-2.452-3.45-2.302-5.031
	C132.308,218.465,148.254,220.829,156.831,215.495z M132.273,206.03c0.831-0.368,3.949,0.021,4.179,0.681
	c1.009,2.898-5.798,3.111-4.691-0.255C131.829,206.25,131.99,206.154,132.273,206.03z M144.637,205.774
	c2.348,0.591-0.452,3.994-1.876,3.326c-1.13,0.216-3.487-0.89-2.302-2.559C140.992,205.791,143.17,205.745,144.637,205.774z
	 M125.194,205.432c0.485-0.148,3.204,0.091,3.498,0.598c0.407,0.701-0.743,2.233-1.281,2.388
	C125.717,208.906,123.472,205.962,125.194,205.432z M148.298,205.87c0.328-0.566,2.151-0.924,2.83-0.544
	c0.499,1.518-0.024,2.972-2.142,2.154C148.609,207.028,148.01,206.368,148.298,205.87z M156.831,203.727
	c2.683,0.034-0.018,3.854-2.132,3.156c-0.516-0.189-0.886-1.386-0.511-2.133C154.455,204.219,155.752,203.704,156.831,203.727z
	 M150.94,194.371c1.268-0.235,3.809,1.377,6.118,1.84c2.096,0.421,5.79,0.282,6.759,1.723c0.488,0.724,1.532,2.698,0.563,3.195
	c-1.549,0.794-3.588-0.497-5.425-0.633c-2.668-0.197-6.582,1.183-9.085,1.814c-5.738,1.445-11.961,1.03-18.961,0.734
	c-3.713-0.155-7.579-0.692-10.489-0.937c-0.829-0.07-1.919,0.263-2.047-0.342c-0.321-1.515,3.84-0.425,4.435-0.34
	c4.273,0.605,8.792-1.548,11.596-3.327c0.813-0.515,1.736-1.644,2.729-1.619c0.808,0.02,2.17,1.853,2.644,2.302
	c0.642,0.609,1.766,1.98,2.899,1.962C145.376,200.699,147.748,194.961,150.94,194.371z M142.591,196.822
	c-0.947-0.025-1.807-1.482-2.388-1.961c-0.723-0.598-1.733-1.479-2.814-1.621c-3.084-0.409-4.867,1.883-7.163,2.984
	c-2.049,0.984-4.594,2.463-7.079,2.73c-1.441,0.155-3.299-0.435-4.775-0.256c-1.37,0.165-3.494,1.642-3.667,2.642
	c-0.657,3.806,3.263,3.804,4.349,5.544c0.328,0.526,0.215,1.247,0.426,2.046c2.199,8.294,8.51,16.166,18.505,17.482
	c3.339,0.44,7.55,1.104,11.001,0.17c8.353-2.26,12.066-8.223,14.07-16.884c0.369-1.598,0.162-4.177,1.023-5.116
	c0.692-0.756,2.616-0.735,3.156-1.877c1.009-2.136-0.214-5.236-1.195-6.225c-2.483-2.503-6.056-1.967-10.527-3.191
	c-1.402-0.384-3.907-2.072-5.513-1.818C147.016,191.942,144.682,196.873,142.591,196.822z M294.878,241.023
	c-0.377,5.743-2.248,10.903-6.054,13.39c-6.147,4.021-15.456,3.267-25.154,3.837c-2.939,0.173-5.79,0.816-8.786,0.936
	c-12.245,0.49-24.674,0.329-37.35,0.682c-6.794,0.189-11.499-0.753-15.01-4.264c-4.871-4.871-3.456-16.1-3.24-25.073
	c0.072-2.999,0.705-6.754,0.173-9.376c-0.235-1.158-4.92-2.304-6.054-2.9c-0.998-0.524-4.649-3.253-5.628-2.559
	c-0.345,0.243-0.111,3.16-0.173,4.436c-0.224,4.698-0.365,9.314-0.595,13.9c-0.152,3.029-1.313,6.905-1.109,10.058
	c0.075,1.138,1.871,2.687,2.814,3.668c1.001,1.044,1.648,2.503,2.559,3.415c3.955,3.955,7.518,8.194,11.513,12.19
	c0.975,0.975,1.968,1.991,2.894,3.073c1.822,2.127,2.995,3.355,4.605,5.881c0.608,0.956,1.508,2.023,1.709,2.901
	c1.11,4.848-3.405,8.816-10.15,7.591c-0.635-0.115-1.663-0.857-2.305-0.513c-0.429,0.228-0.522,1.622-0.682,2.131
	c-0.749,2.362-2.51,4.39-4.946,4.691c-1.588,0.195-3.028-1.093-4.35-0.595c-0.467,0.176-0.55,1.541-0.849,2.299
	c-1.021,2.594-3.877,5.189-7.76,4.096c-0.653-0.184-1.708-0.951-2.217-0.687c-0.68,0.35-0.847,2.497-1.283,3.24
	c-1.455,2.482-5.103,3.529-8.868,2.305c-0.684-0.221-1.908-1.22-2.554-1.022c-0.634,0.194-1.071,2.218-1.536,2.813
	c-1.372,1.757-3.949,2.514-6.91,2.386c-1.534-0.066-3.772-1.981-4.604-1.704c-0.81,0.269-1.822,3.312-2.981,4.09
	c-1.324,0.886-3.698,1.746-5.974,0.941c-0.62-0.219-1.943-1.471-2.559-1.281c-0.66,0.203-1.219,2.206-1.79,2.645
	c-2.31,1.78-6.496,1.805-8.695,0.087c-0.616-0.483-1.254-1.602-1.791-1.624c-0.68-0.027-1.646,1.217-2.472,1.624
	c-2.174,1.068-4.578,0.636-6.315-0.428c-0.592-0.363-1.528-1.442-2.132-1.451c-1.071-0.014-2.027,1.162-3.154,1.277
	c-2.489,0.255-4.646-0.908-5.714-2.213c-0.386-0.473-0.896-1.9-1.531-1.964c-1.031-0.104-1.989,1.481-3.582,1.704
	c-1.586,0.224-2.943-0.297-3.755-0.848c-0.736-0.502-0.989-1.742-1.877-1.709c-0.578,0.021-1.241,0.953-1.532,1.109
	c-2.481,1.339-5.904,0.812-7.336-1.023c-0.513-0.657-0.833-2.314-1.618-2.559c-0.558-0.174-1.627,0.376-2.219,0.428
	c-2.614,0.228-4.26-0.693-5.372-2.219c-0.34-0.466-0.623-1.653-1.196-1.791c-0.682-0.162-1.497,0.49-2.132,0.515
	c-2.558,0.1-4.858-0.967-5.881-2.559c-0.48-0.747-0.951-3.018-1.791-3.327c-0.712-0.263-1.652,0.44-2.474,0.428
	c-1.825-0.031-3.14-1.539-3.923-2.814c-0.47-0.765-0.892-2.34-1.536-2.559c-0.326-0.113-1.299,0.197-2.132,0.173
	c-1.083-0.031-2.609-0.409-3.495-0.768c-3.953-1.606-4.707-3.643-3.837-7.672c0.698-3.222,4.069-7.532,6.223-10.064
	c5.106-6.005,9.604-11.722,15.35-17.227c1.279-1.225,2.39-2.915,3.581-4.604c0.959-1.36,3.872-2.639,4.183-3.922
	c0.535-2.206-0.097-5.562,0.081-8.187c0.474-6.96,0.839-12.843,0.854-20.121c0.246-6.383,0.194-10.495,0.428-15.436
	c0.062-3.107,0.78-8.442-2.646-8.442c-3.453,0-4.92-0.366-6.649-2.391c-0.435-0.511-2.216-2.969-2.732-2.641
	c-0.607,0.386-0.428,5.387-0.508,6.482c-0.463,6.261-4.397,10.967-3.073,17.309c0.39,1.868,2.355,2.81,1.964,5.286
	c-0.166,1.045-1.52,1.867-2.306,2.219c-5.249,2.348-10.251-2.378-11.848-5.887c-1.884-4.715,2.524-13.53,1.531-20.463
	c0.156-4.968,0.092-11.221-0.428-15.523c-2.571,2.981-5.197,6.485-8.526,9.129c-0.713,0.564-2.953,2.295-4.177,1.363
	c-0.975-0.743,0.111-5.265,0.428-6.569c0.544-2.243,1.431-3.879,1.877-5.714c1.062-4.36,0.222-9.911-0.428-13.894
	c-1.168-7.151-3.745-14.94-1.964-22.941c0.872-3.937,1.06-3.971-3.17-5.21c-3.084-0.905-9.062-7.381-9.074-10.935
	c-3.449-1.615-5.791-4.901-6.179-8.663c-0.771-7.46,2.322-13.268,6.855-16.169c1.615-1.03,0.329-1.383-0.128-1.906
	c-0.905-0.865-1.68-1.846-1.69-2.739c-0.011-1.162,1.39-2.401,2.559-2.559c3.91-0.529,8.524,0.302,10.659-2.299
	c4.125-5.024,1.462-13.287,0.768-20.214c-0.836-8.359,1.773-13.645,5.795-18.163c7.917-8.895,15.793-15.941,29.336-19.36
	c0.815-0.206,1.791-1.967,2.559-2.894c2.454-2.961,5.203-5.237,8.701-7.163c3.198-1.763,7.256-3.247,10.399-5.461
	c0.795-0.56,2.325-2.082,3.16-2.299c0.506-0.131,1.026-0.179,1.574-0.185c0.915-0.007,1.906,0.099,3.029,0.099
	c1.245,0,4.107-0.266,4.345,0.341c0.485,1.235-2.618,2.711-3.067,2.981c-1.259,0.756-2.424,1.818-3.409,2.559
	c-2.458,1.85-5.396,2.634-8.273,3.754c-2.891,1.127-5.354,2.559-7.591,4.432c-3.052,2.552-5.595,4.891-6.737,9.296
	c-0.162,0.622-0.912,2.897-0.167,3.414c0.581,0.402,3.426-1.759,4.177-2.132c3.2-1.587,5.533-2.552,8.1-4.691
	c0.827-0.689,2.504-2.793,3.668-2.732c1.137,0.059,1.566,1.676,1.449,2.732c-0.204,1.85-2.932,4.622-4.176,5.969
	c-1.661,1.797-4.3,2.61-6.229,3.835c-4.345,2.764-8.636,4.906-12.282,7.846c-1.238,0.999-4.659,5.577-3.495,7.764
	c0.636,1.196,2.261,2.161,3.755,2.814c1.211,0.531,4.189,1.272,3.923,2.727c-0.556,3.035-6.082,0.578-7.76,1.363
	c-2.472,1.159-4.29,3.792-6.054,5.801c-4.751,5.408-11.682,15.394-7.083,25.327c1.65,3.562,0.495,5.721-0.936,8.867
	c-2.195,4.828-4.425,13.443-1.277,19.36c1.358,2.551,2.009,5.832,4.432,7.331c-1.514-5.788-1.846-14.339-0.255-20.889
	c0.343-1.413,1.346-5.358,2.647-5.373c1.034-0.011,3.028,3.726,2.812,5.2c-0.461,3.165,1.202,7.256,1.532,11.259
	c0.16,1.961-0.345,6.075,0.513,6.563c0.839,0.477,3.382,0.016,3.582-0.428c0.191-0.425-0.747-2.023-0.941-2.554
	c-4.782-13.058-1.31-31.504,5.887-39.909c0.381-0.446,1.348-1.795,2.044-1.536c0.834,0.31,0.239,2.926,0.087,3.922
	c-0.215,1.403-0.312,3.209-0.595,4.432c-0.153,0.659-0.566,1.23-0.682,2.05c-0.682,4.805-0.583,11.235-1.023,16.628
	c-0.324,3.961,0.066,8.642,1.278,11.936c0.079,0.214,1.054,3.062,1.618,2.899c0.674-0.194,0.384-2.05,0.513-2.981
	c0.968-6.988,1.49-14.862,4.01-19.874c2.271-4.518,5.572-8.186,10.145-10.399c0.982-0.475,4.663-1.162,4.946-1.877
	c0.291-0.737-0.78-3.056-1.023-4.177c-1.732-7.934-0.381-15.087,4.181-19.699c1.219-1.231,7.366-4.426,8.782-0.856
	c0.892,2.251-0.041,6.475-0.342,8.614c-0.354,2.531-0.225,6.059,1.11,8.018c2.654,3.892,7.705,2.158,10.659-0.173
	c3.266-2.578,5.193-5.255,6.822-9.041c2.845-6.614,6.313-15.845,16.031-15.771c0.601,0.004,1.371-0.055,1.531,0.508
	c0.079,0.279-1.192,2.707-1.443,2.9c-4.421,3.377-7.734,7.099-9.897,12.11c-2.279,5.282-5.041,9.116-9.549,12.449
	c-4.369,3.231-11.231,4.799-16.033,0.514c-4.113-3.671-4.916-9.252-3.75-17.054c-6.386,4.681-4.29,17.697-0.681,23.363
	c1.946,3.056,5.567,5.286,10.232,5.286c4.964,0,9.005-1.307,12.618-2.812c10.295-4.291,19.162-12.318,23.281-23.283
	c0.705-1.875,1.605-3.783,2.645-5.113c1.104-1.408,2.614-2.272,3.923-3.754c2.339-2.648,4.007-6.967,5.368-10.486
	c1.469-3.792,2.685-7.893,4.01-11.768c1.345-3.936,2.645-9.064,1.877-13.819c-0.338-2.088-1.189-4.311-1.618-6.308
	c-0.334-1.56-3.743-5.728-1.791-7.077c0.532-0.369,4.107-0.725,5.027,0c0.194,0.152,0.518,1.431,0.768,1.877
	c1.774,3.157,3.651,4.46,3.582,9.463c-0.02,1.408,0.173,4.087,0.768,4.35c0.512,0.225,2.839-1.493,3.668-1.878
	c3.615-1.676,9.597-2.389,14.067-1.109c5.922,1.695,9.136,5.32,10.747,11.173c-3.65-1.6-5.582-4.093-9.551-4.858
	c-8.259-1.594-14.081,4.764-17.395,10.399c-0.807,1.373-1.577,3.021-2.646,4.524c-0.474,0.667-3.107,4.305-1.79,5.199
	c0.642,0.436,2.471-0.027,3.836,0c3.726,0.075,7.562,1.091,9.637,2.814c0.85,0.706,1.258,1.892,1.964,2.559
	c0.456,0.429,3.261,1.398,2.9,2.899c-0.474,1.974-5.554-0.553-6.054-0.768c-1.885-0.81-3.945-2.186-5.887-2.046
	c-4.936,0.357-11.97,3.036-12.536,7.846c-0.734,6.237,6.558,4.452,11.601,4.691c3.513,0.167,7.486,0.308,10.144,1.11
	c8.065,2.431,14.126,9.502,15.436,18.758c0.46,3.25-0.125,6.993,0.515,10.492c1.308,7.147-0.926,13.683-1.283,20.462
	c4.637-2.45,7.667-6.376,10.578-10.913c1.289-2.007,2.783-4.118,4.004-6.737c0.948-2.034,3.11-5.748,2.9-8.186
	c-0.198-2.319-1.408-4.865-2.64-6.141c-1.051-1.088-6.931-3.292-4.01-5.204c2.99-1.957,5.391-2.188,6.991-5.368
	c1.241-2.468,2.524-6.067,2.986-9.382c0.895-6.419-4.283-7.763-8.1-10.149c-0.945-0.591-3.284-1.788-3.414-2.982
	c-0.45-4.136,2.244-8.589,3.836-11.172c4.186-6.789,1.363-18.365-2.212-23.536c-1.991-2.879-4.46-4.96-6.229-8.528
	c1.761,0.08,4.59-0.711,6.142,0c0.414,0.19,0.625,0.875,1.109,1.363c1.2,1.21,3.153,1.863,4.177,3.242
	c0.805,1.08,1.94,2.535,2.473,3.582c1.434,2.814,3.664,5.383,4.604,8.446c1.009,3.282,2.182,6.317,3.409,9.631
	c1.156,3.123,2.755,5.743,3.841,9.213c1.026,3.281,1.916,6.559,3.668,9.378c4.635,7.454,7.876,21.043,4.259,31.3
	c-0.506,1.434-1.193,3.053-1.873,4.685c-0.515,1.238-2.247,3.004-2.217,4.264c0.028,1.249,1.597,2.17,1.964,3.5
	c2.845,10.332-1.163,22.304-4.097,31.041c-1.513,4.504-3.152,9.092-5.199,13.472c-1.56,3.34-2.773,6.526-3.755,10.232
	c-0.25,0.947-0.495,3.771-0.255,4.008c0.58,0.571,3.513,0.035,4.605,0c11.139-0.349,22.266-0.633,32.745-1.109
	c13.426-0.611,25.533-0.903,27.118,11.255c0.387,2.974,0.173,5.974,0.34,9.041c0.328,5.981,0.86,11.813,0,18.077
	c-0.41,2.983,0.024,6.237,0.087,9.294C294.543,216.75,295.642,229.358,294.878,241.023z M39.735,92.475
	c2.63,1.754,7.803,4.062,12.704,4.003c1.155-0.013,3.384-0.418,3.668-1.19c0.667-1.807-1.227-3.903-1.617-5.286
	c-1.593-5.643,0.504-12.677,2.554-16.545c2.787-5.262,6.14-10.481,10.658-13.304c0.667-0.418,2.993-1.085,3.16-1.792
	c0.121-0.508-0.868-1.559-1.109-2.045c-2.791-5.635,1.588-10.884,5.113-13.472c0.84-0.617,2.55-1.078,2.818-2.046
	c0.214-0.765,0-3.236,0-3.841c0-1.176,0.263-3.24-0.59-3.274c-0.121-0.004-0.266,0.032-0.438,0.12
	c-4.046,2.042-7.861,4.002-11.509,6.227c-5.368,3.277-10.056,9.043-13.305,14.837c-1.849,3.296-2.59,6.986-2.219,11.513
	c0.405,4.922,3.004,10.9,1.451,16.199C49.496,87.967,45.823,91.514,39.735,92.475z M48.856,122.406
	c3.712-5.034,1.774-15.664,4.518-21.404c-4.955-0.039-9.247-0.715-12.981-2.144c-2.309-0.889-3.464,0.097-5.539,1.88
	c-2.037,2.039-5.304,5.995-3.955,10.907c0.737,2.681,3.629,4.702,7.353,4.513c2.672-0.137,6.602-1.87,5.535-5.221
	c-0.266-0.834-1.137-1.877-2.457-1.9c-1.79-0.031-2.693,1.894-3.078,2.847c-0.249,0.618-0.239,1.593-0.709,1.898
	c-1.382,0.9-4.03-0.391-4.269-1.423c-0.425-1.84,1.02-4.997,1.818-6.244c1.065-1.666,4.046-3.421,7.035-3.402
	c2.782,0.015,6.007,2.141,6.745,4.404c0.577,1.761,0.319,4.747-0.308,6.103c-1.552,3.363-5.649,6.733-10.253,7.682
	c0.837,1.773,2.59,4.415,5.7,5.539C47.276,127.623,47.18,124.825,48.856,122.406z M58.407,131.784
	c-0.101-0.643-2.395-4.435-3.155-4.345c-0.654,0.076-2.48,4.243-2.9,5.026c-1.281,2.386-2.268,5.031-2.728,8.019
	c-1.166,7.582,2.57,15.146,3.415,22.087c2.568-5.871,1.821-16.844,3.576-23.536C57.173,136.908,58.743,133.917,58.407,131.784z
	 M62.335,163.424c-1.808,2.203-1.421,6.672-1.536,10.399c-0.227,7.215,0.796,14.679,0.681,21.919
	c-0.089,5.546-5.158,11.111-1.451,15.858c0.316,0.405,2.799,2.713,3.75,1.196c0.315-0.502-0.362-1.995-0.508-2.814
	c-1.338-7.503,2.057-12.336,2.386-20.127C66.048,180.55,65.725,169.454,62.335,163.424z M81.175,132.21
	c-0.625-1.484-5.721-2.185-7.878-2.147c-0.145,0.001-0.274,0.007-0.39,0.016c-6.027,0.471-9.641,3.534-9.128,10.572
	c0.542,7.429,1.573,14.619,3.923,21.237c2.44,6.869,3.249,13.352,6.482,18.759c0.668,1.114,2.717,3.914,4.01,3.841
	c2.679-0.153,1.234-5.19,0.85-6.822c-0.359-1.527-1.033-3.057-1.363-4.605c-0.418-1.947-0.148-5.126-0.937-6.996
	c-0.27-0.641-1.159-0.931-1.622-1.531c-0.442-0.571-0.761-1.449-1.277-2.133c-0.677-0.894-1.693-1.563-2.219-2.559
	c-1.266-2.399-1.383-6.851,0.26-9.468c0.805-1.281,3.094-3.025,4.43-3.582c0.903-0.375,2.347-0.37,2.901-1.109
	c0.453-0.605,1.116-3.685,0.768-4.432c-0.638-1.37-5.235-1.228-7.338-1.023c-1.098,0.108-2.77,1.048-3.582,0.682
	c-0.494-0.224-1.013-1.739-0.935-2.386c0.285-2.406,5.327-3.343,8.273-3.16c1.168,0.073,3.062,1.221,4.177,0.601
	C81.203,135.619,81.515,133.022,81.175,132.21z M77.68,149.351c-0.94,0.024-2.13,1.038-2.474,1.536
	c-1.054,1.531-0.666,7.729,1.283,7.332c0.554-0.114,1.019-3.041,1.276-4.177C78.083,152.642,78.864,149.32,77.68,149.351z
	 M225.719,135.364c-0.913,3.886-2.229,7.77-0.768,11.34c3.855-9.085,8.132-19.468,10.405-30.271
	c0.916-4.356,2.977-10.891,1.282-15.35c-0.965-2.54-4.615-2.827-2.733-6.817c2.249-4.767,5.725-9.811,6.229-16.459
	c0.217-2.868-0.167-5.548-0.515-8.36c-0.198-1.601-0.73-4.248-1.363-5.881c-0.839-2.168-2.63-3.769-3.836-5.546
	c-2.126-3.13-2.769-6.615-4.183-10.658c-0.494-1.414-0.772-4.702-2.132-5.033c-0.025-0.004-0.049-0.007-0.076-0.004
	c-0.819,0.084-2.465,4.255-3.078,5.377c-0.649,1.186-1.427,2.001-1.873,3.154c-1.743,4.512,2.409,4.02,5.027,5.459
	c1.87,1.027,4.17,3.782,4.778,6.141c1.529,5.938-1.268,13.103-3.582,16.799c-0.719,1.147-3.159,2.801-3.154,4.004
	c0,0.643,1.048,1.542,1.363,2.132c2.156,4.032,1.366,8.992-0.173,12.964c-0.656,1.691-2.064,3.706-1.873,4.945
	c0.166,1.071,1.978,2.298,2.386,3.073c0.4,0.756,0.826,1.728,0.937,2.727c0.312,2.817,0.83,5.163,1.021,7.504
	C230.428,124.135,227.127,129.372,225.719,135.364z M211.224,121.21c0.018,0.716,1.38,2.07,1.873,2.901
	c2.763,4.672,1.663,12.358,1.963,18.591c1.822-1.921,3.966-4.584,4.86-7.337c1.854-5.716,3.847-12.197,3.328-19.693
	c-0.06-0.878-1.058-6.295-1.814-6.233c-0.049,0.003-0.103,0.035-0.15,0.092c-2.343,2.734-4.544,6.285-7.499,8.781
	C213.019,118.955,211.2,120.231,211.224,121.21z M219.237,154.383c-0.281-1.072-0.543-2.734-0.595-3.923
	c-0.034-0.781-0.005-2.068-0.502-2.088c-0.115-0.004-0.256,0.059-0.433,0.211c-2.527,2.158-4.645,5.483-4.436,10.064
	c1.172,0.121,2.14-0.179,3.581-0.342c0.787-0.087,3.251-0.093,3.495-0.595C220.73,156.918,219.447,155.183,219.237,154.383z
	 M204.742,131.101c0.59-0.553,3.161-1.949,3.582-0.428c0.162,0.585-0.419,2.066-0.683,2.9c-0.505,1.598-2.355,3.723-2.044,5.373
	c0.305,1.634,3.161,2.483,3.154,4.35c0.598-3.664,0.964-10.647,0.594-15.436c-0.093-1.215-0.447-3.426-1.282-3.837
	c-0.187-0.092-0.428-0.121-0.692-0.109c-0.794,0.04-1.769,0.457-1.949,0.704C204.361,126.082,205.069,129.38,204.742,131.101z
	 M203.633,147.393c0.849-1.034,1.116-3.959,0-4.951C203.204,143.561,202.847,146.396,203.633,147.393z M203.806,165.637
	c4.941-3.555,4.355-12.947,4.771-20.549h-0.168c-0.28,0.219-0.549,0.48-0.681,0.854c-0.841,2.376-0.962,4.867-2.647,6.649
	c-0.675,0.716-1.501,1.109-1.704,1.791C202.549,157.181,204.06,162.41,203.806,165.637z M83.907,173.996
	c1.28,4.515,1.605,9.203,2.9,13.732c2.043,7.15,3.905,14.051,6.817,20.296c1.131,2.424,1.567,5.507,2.647,7.758
	c2.205,4.603,5.395,9.048,8.1,12.705c5.875,7.945,15.632,12.115,27.972,13.645c6.385,0.792,12.974-0.193,19.1-1.023
	c5.831-0.789,11.639-2.291,15.349-5.459c1.67-1.425,3.267-3.875,4.605-5.8c3.558-5.119,6.758-10.414,9.977-16.033
	c0.529-0.923,1.742-2.423,1.704-3.581c-0.032-1.034-1.098-1.814-1.617-2.473c-1.922-2.438-3.26-4.742-4.265-8.013
	c-0.851-2.779-2.94-11.882,1.11-12.709c2.609-0.533,4.518,2.381,6.395,3.668c1.147,0.785,3.198,2.427,4.605,2.219
	c1.549-0.229,3.406-5.195,4.176-7.164c2.215-5.663,4.277-11.021,5.286-17.395c1.602-10.113-0.643-22.089,0.26-32.404
	c0.601-6.852,1.448-13.641,2.472-20.214c0.498-3.184,1.372-6.576,1.365-9.977c-0.01-3.347-0.543-7.024-0.937-10.399
	c-0.901-7.706-1.352-13.233-4.944-17.741c-3.527-4.426-10.413-4.336-18.25-4.091c-5.753,0.18-9.604-1.504-12.964-3.923
	c-0.559-0.401-2.128-2.594-3.063-2.592c-0.062,0-0.122,0.011-0.179,0.032c-1.017,0.378-1.553,3.475-1.959,4.432
	c-1.874,4.428-4.298,7.244-7.418,10.491c-4.097,4.265-7.824,7.65-13.392,10.572c-5.06,2.658-9.943,6.137-17.482,6.482
	c-6.177,0.284-10.543-0.812-14.067-3.495c-0.87-0.66-2.555-2.673-3.841-2.813c-6.617-0.718-10.351,5.015-12.363,9.462
	c-1.752,3.872-2.14,8.784-3.069,13.559c-1.887,9.71-2.725,19.491-3.841,29.423c-0.539,4.798-2.475,9.084-2.727,13.9
	C82.077,164.668,82.604,169.404,83.907,173.996z M201.247,192.16c0.173-3.951,0.453-7.999-0.087-11.682h-0.173
	c-1.107,1.435-1.432,4.096-2.386,6.136c-0.768,1.646-4.327,5.77-3.408,7.933c0.269,0.636,4.501,2.267,5.713,1.363
	C201.393,195.545,201.201,193.215,201.247,192.16z M87.061,215.951c-0.633,9.649-0.916,20.324-0.937,29.763
	c-0.001,1.168-0.73,4.395-0.086,5.031c0.506,0.501,2.507,0.046,3.409,0.428c1.058,0.446,2.164,1.635,2.646,2.553
	c0.335,0.64,0.612,2.68,1.363,2.9c0.891,0.262,2.438-0.723,4.177-0.508c1.078,0.134,2.518,0.703,3.328,1.276
	c0.632,0.449,1,1.938,2.044,1.964c0.864,0.023,1.431-1.062,2.392-1.282c2.969-0.678,5.642,0.77,7.159,1.964
	c0.667,0.525,1.648,2.341,2.305,2.386c0.681,0.045,1.625-0.933,2.305-1.11c1.795-0.466,4.122-0.032,5.541,0.682
	c0.701,0.353,1.249,1.311,1.959,1.282c0.637-0.025,1.684-1.136,2.219-1.363c2.344-0.999,5.171-0.296,6.91,0.595
	c0.684,0.351,1.828,1.461,2.385,1.451c0.815-0.016,2.513-2.025,3.755-2.474c1.511-0.543,3.488-0.659,5.033-0.259
	c0.92,0.238,2.641,2.108,3.235,2.05c0.722-0.069,1.339-1.738,1.878-2.217c1.266-1.131,3.63-2.184,6.227-1.959
	c1.141,0.099,2.823,1.032,3.923,0.596c0.677-0.27,0.883-1.387,1.363-2.046c0.695-0.954,2.268-2.202,4.009-2.392
	c1.389-0.151,2.831,0.573,4.01,0.255c0.934-0.252,1.178-1.611,1.704-2.386c1.179-1.738,3.089-3.356,5.628-3.668
	c0.568-0.07,2.225,0.082,2.559-0.168c0.644-0.481,0.533-4.246,0.595-5.541c0.316-6.682,1.103-12.93,1.109-19.533
	c-5.88,6.41-8.002,13.382-16.119,17.228c-3.586,1.7-8.405,3.08-13.131,3.581c-8.317,0.882-16.359,1.84-24.559,0.422
	c-7.367-1.272-15.072-4.256-20.214-7.925c-1.782-1.273-4.173-2.666-5.368-4.01c-2.8-3.154-4.756-7.704-7.336-11.427
	c-1.617-2.331-3.668-5.157-4.351-8.018c-0.45-1.89-1.076-2.733-1.704-4.178c-0.163-0.375-0.49-1.512-0.768-1.531
	c-0.093-0.005-0.18,0.111-0.255,0.422C86.897,210.896,87.215,213.605,87.061,215.951z M185.469,250.405
	c-0.471,0.138-0.429,1.369-0.595,2.046c-0.457,1.874-0.907,4.922-2.559,5.286c-4.463,0.982-1.722-4.515-4.436-4.778
	c-1.122-0.108-2.469,1.394-2.982,2.219c-0.681,1.096-1.566,3.086-1.704,4.859c-0.12,1.539,0.088,3.14-0.856,3.415
	c-3.384,0.978-2.631-4.982-4.177-5.373c-2.32-0.59-4.208,3.275-4.777,4.778c-0.622,1.642,0.146,5.559-2.132,5.539
	c-3.305-0.027-0.979-7.096-5.461-5.967c-2.409,0.607-4.113,2.974-5.026,5.113c-0.564,1.322-0.651,3.3-1.624,3.501
	c-4.2,0.868-3.497-6.561-5.627-6.91c-0.932-0.152-2.142,0.77-2.647,1.196c-1.286,1.085-2.893,3.108-3.322,4.518
	c-0.338,1.113-0.149,1.809-0.768,2.046c-0.806,0.307-2.244-0.469-2.727-1.11c-1.048-1.392-0.629-4.272-1.449-5.368
	c-1.142-1.522-4.058-0.557-5.206,0.342c-0.846,0.661-1.62,1.846-1.791,2.894c-0.204,1.244,0.11,2.039-0.34,2.477
	c-0.94,0.915-2.696-0.016-3.155-1.027c-0.869-1.918,0.457-5.148-1.196-5.795c-1.066-0.418-2.333,0.163-2.727,0.34
	c-0.735,0.332-1.856,1.334-2.299,2.3c-0.598,1.303-0.619,3.183-2.559,2.986c-3.351-0.338-0.917-4.979-2.392-7.591
	c-1.677-2.97-5.833-0.92-6.817,1.363c-0.751,1.742,0.045,1.711-0.941,2.559c-0.75,0.644-2.399,0.522-2.901-0.167
	c-1.489-2.047,0.052-6.388-1.959-6.91c-3.879-1.007-3.529,5.023-5.459,5.2c-2.529,0.232-2.327-2.917-2.219-4.432
	c0.176-2.427-1.216-5.365-3.748-5.119c-2.33,0.228-1.446,4.993-4.01,4.865c-0.815-0.041-1.974-1.019-2.219-1.451
	c-1.542-2.736,1.535-7.115,0.087-9.469c-1.107,0.838-2.956,2.971-4.183,4.35c-3.938,4.425-7.653,8.886-11.681,13.304
	c-3.126,3.429-6.316,7.765-7.933,12.277c-0.242,0.675-0.943,1.497-0.85,2.559c0.195,2.216,3.702,1.234,5.119,0.596
	c1.379-0.622,2.371-1.957,3.75-1.791c1.325,0.159,2.043,1.38,2.046,2.305c0.003,1.242-3.655,5.648-1.618,6.737
	c1.329,0.711,3.17-0.862,4.177-1.536c1.188-0.796,4.402-2.964,5.031-0.768c0.601,2.092-2.579,4.504-1.449,6.822
	c1.226,2.517,5.641-0.404,6.735-1.451c0.712-0.681,1.193-2.226,2.386-2.131c3.332,0.263-0.388,6.555,1.196,7.678
	c1.238,0.876,3.194-1.548,4.01-2.046c0.587-0.357,1.22-0.538,1.449-0.687c0.433-0.283,0.916-1.218,1.618-1.19
	c0.94,0.038,1.635,1.386,1.791,2.386c0.132,0.854-1.237,5.081-0.082,5.545c0.69,0.277,1.987-0.695,2.386-1.027
	c1.074-0.895,2.198-3.389,4.09-3.236c2.538,0.204,0.937,5.074,3.154,5.453c2.572,0.442,3.945-4.122,6.141-4.09
	c2.993,0.044,1.752,6.355,4.777,6.396c1.333,0.017,2.407-1.112,3.154-1.964c0.756-0.864,3.188-4.46,4.177-1.791
	c0.867,2.337-0.613,4.972,2.132,5.204c1.451,0.122,3.422-1.567,4.096-2.305c0.976-1.067,1.579-3.513,2.901-3.668
	c2.3-0.27,2.391,2.989,3.748,4.524c1.293,1.459,3.879,1.09,4.865-0.342c0.86-1.249,0.64-5.525,2.472-5.799
	c3.401-0.51,1.904,6.05,4.945,6.222c2.129,0.121,3.596-2.761,4.177-4.431c0.815-2.35,0.345-4.446,2.385-4.351
	c1.844,0.086,2.825,4.096,4.605,4.604c5.304,1.517,4.217-5.359,5.546-7.758c2.167-3.91,4.562,2.327,5.8,3.328
	c0.813,0.657,2.97,1.545,4.518,0.85c1.635-0.736,3.184-5.068,2.814-7.332c-0.094-0.571-1.058-1.672-0.856-2.386
	c0.21-0.74,2.096-0.786,2.9-0.428c1.587,0.709,2.915,5.511,6.056,4.86c1.574-0.328,2.607-4.635,2.05-7.164
	c-0.184-0.837-1.573-1.334-1.451-2.299c0.121-0.937,2.056-1.267,2.814-1.11c2.44,0.508,3.581,5.455,6.823,4.519
	c2.471-0.715,2.103-5.96,1.277-8.273c-0.229-0.643-0.993-1.15-0.935-1.873c0.103-1.321,2.061-1.415,3.067-1.027
	c2.323,0.892,3.565,4.322,6.822,4.522c2.526,0.156,5.043-1.304,4.263-4.182c-0.672-2.486-3.589-4.675-5.286-6.564
	c-5.152-5.733-10.567-10.946-15.691-16.972C186.971,251.808,185.931,250.27,185.469,250.405z M290.7,224.737
	c0.166-6.884-0.076-13.562-0.682-20.469c-0.574-6.556,0.252-13.811,0.255-20.722c0-3.54-0.377-6.61-0.601-10.146
	c-0.222-3.525-0.356-7.058-1.618-9.209c-1.679-2.863-6.111-3.435-10.578-3.413c-1.03,0.004-2.065,0.039-3.067,0.085
	c-15.996,0.745-30.706,0.629-45.448,1.278c-3.875,0.17-7.72-0.435-11.173,0.173c-3.295,0.58-5.777,2.075-7.592,4.35
	c-4.529,5.674-3.277,15.948-3.836,25.067c-0.099,1.596-0.12,3.738-0.595,5.119c-1.623,4.708-10.326,2.602-14.582,1.618
	c-3.861-0.893-6.385-2.861-9.722-4.177c-0.045,9.643,6.856,13.846,13.217,17.141c2.251,1.166,5.007,1.925,6.997,3.322
	c1.024,0.72,2.831,2.178,3.154,3.581c0.591,2.566-0.029,6.184-0.087,9.296c-0.053,2.824-0.027,6.098,0.255,9.041
	c0.48,5.022-0.436,10.627,0.935,14.668c1.635,4.812,10.06,4.673,16.119,4.09c12.593-1.207,25.627,0.068,37.949-1.276
	c2.95-0.322,6.222-0.613,9.378-0.513c3.181,0.098,6.525,0.595,9.555,0.259c5.382-0.598,9.962-3.668,11.428-8.868
	C291.977,239.298,290.544,231.191,290.7,224.737z"/>
</svg>