<svg xmlns="http://www.w3.org/2000/svg" viewBox="0 0 320 320">
    <g>
        <path d="M221.689,147.076c-0.096,0.002-0.209,0.009-0.337,0.019c-1.585,0.096-2.257,0.469-2.257,1.246
            c0,0.065-0.195,0.486-0.433,0.939c-0.24,0.452-0.406,0.815-0.368,0.815c0.036,0-0.101,0.337-0.305,0.743
            c-0.205,0.406-0.375,0.791-0.375,0.866c0,0.075-0.282,0.724-0.621,1.436c-0.339,0.713-0.613,1.335-0.613,1.391
            c0,0.055-0.079,0.262-0.176,0.459c-0.414,0.859-0.931,2.139-0.931,2.295c0,0.257-0.464,1.506-0.731,1.973
            c-0.13,0.226-0.296,0.616-0.373,0.859c-0.079,0.246-0.334,0.662-0.57,0.926c-0.236,0.265-0.426,0.536-0.426,0.607
            c0,0.07-0.224,0.426-0.493,0.784c-0.27,0.358-0.524,0.847-0.568,1.099c-0.043,0.251-0.173,0.599-0.291,0.768
            c-0.118,0.171-0.25,0.484-0.291,0.693c-0.082,0.419-0.784,1.983-1.022,2.276c-0.195,0.24-0.69,1.532-1.035,2.709
            c-0.431,1.467-0.871,2.702-1.306,3.642c-0.221,0.479-0.779,1.814-1.234,2.969c-0.455,1.155-0.9,2.271-0.991,2.476
            c-0.089,0.205-0.305,0.729-0.483,1.171c-0.178,0.44-0.46,1.006-0.628,1.261c-0.168,0.253-0.303,0.506-0.303,0.563
            c0,0.055-0.207,0.705-0.452,1.449c-0.248,0.743-0.493,1.578-0.544,1.85c-0.053,0.269-0.32,1.273-0.594,2.223
            c-0.277,0.95-0.503,1.85-0.505,1.999c-0.002,0.149-0.058,0.299-0.118,0.337c-0.058,0.036-0.14,0.329-0.185,0.645
            c-0.087,0.563-0.127,0.683-0.421,1.248c-0.079,0.152-0.149,0.409-0.149,0.57c0,0.159-0.163,0.613-0.363,1.016
            c-0.83,1.669-0.871,1.83-0.871,3.367c-0.002,2.213,0.258,5.083,0.457,5.083c0.092,0,0.163-0.108,0.163-0.245
            c0-0.138,0.051-0.354,0.116-0.472c0.289-0.522,1.732-3.921,2.218-5.24c0.25-0.675,0.645-1.581,1.551-3.491
            c0.659-1.388,1.27-2.918,1.785-4.474c0.264-0.799,0.536-1.59,0.608-1.759c0.876-2.11,2.333-6.088,3.647-9.947
            c1.766-5.192,2.788-7.961,3.246-8.827c0.161-0.306,0.291-0.621,0.291-0.705c0-0.081,0.142-0.474,0.318-0.866
            c0.176-0.392,0.428-0.967,0.563-1.273c0.132-0.305,0.325-0.714,0.419-0.919c0.096-0.205,0.561-1.542,1.035-2.969
            c1.181-3.546,1.121-3.363,1.508-4.26c0.19-0.443,0.38-0.957,0.426-1.145c0.045-0.188,0.135-0.371,0.195-0.407
            c0.06-0.039,0.104-0.151,0.104-0.252c0-0.103,0.5-1.261,1.111-2.574c0.611-1.314,1.111-2.428,1.111-2.471
            c0-0.043,0.226-0.531,0.498-1.085C222.298,147.236,222.365,147.056,221.689,147.076z"/>
        <path d="M204.274,97.416c-0.017-0.387-0.659-0.929-1.061-0.95c-0.026,0-0.053,0.005-0.077,0.008
            c-0.026,0.002-0.043,0.009-0.065,0.019c-0.207,0.086-0.986,0.168-1.72,0.187c-0.734,0.02-1.371,0.044-1.422,0.053
            c-0.163,0.029-0.111,2.298,0.058,2.529c0.183,0.248,5.699,0.397,5.555,0.146c-0.041-0.069-0.339-0.524-0.666-1.008
            C204.548,97.916,204.277,97.476,204.274,97.416z"/>
        <path d="M197.562,79.486c0.041,0.56,0.137,0.868,0.361,1.161c0.168,0.222,0.298,0.441,0.298,0.486c0,0.046,0.171,0.286,0.376,0.543
            c0.204,0.258,0.368,0.505,0.368,0.549c0,0.046,0.111,0.231,0.245,0.414c0.228,0.31,0.51,0.803,1.073,1.883
            c0.125,0.236,0.272,0.462,0.318,0.498c0.144,0.109,2.136,3.462,2.601,4.376c0.649,1.282,0.741,1.444,1.111,1.927
            c0.187,0.246,0.337,0.486,0.337,0.537c0,0.053,0.154,0.328,0.342,0.609c0.188,0.282,0.445,0.762,0.577,1.068
            c0.13,0.305,0.39,0.719,0.568,0.924c0.402,0.454,0.69,0.938,0.751,1.215c0.024,0.115,0.332,0.582,0.686,1.041
            c0.907,1.179,3.265,4.443,3.594,4.988c0.154,0.247,0.332,0.473,0.382,0.497c0.05,0.022,0.353,0.46,0.685,0.97
            c0.332,0.511,0.645,0.955,0.693,0.989c0.046,0.034,0.178,0.243,0.296,0.472c0.118,0.228,0.375,0.596,0.57,0.808
            c0.698,0.767,1.111,1.277,1.111,1.391c0,0.062,0.154,0.279,0.356,0.471c0.426,0.41,0.428,0.414,1.501-0.664
            c0.375-0.38,0.998-0.964,1.388-1.294c0.63-0.53,0.7-0.618,0.558-0.809c-0.089-0.118-0.344-0.464-0.563-0.762
            c-0.219-0.298-0.524-0.727-0.681-0.95c-0.154-0.226-0.59-0.813-0.962-1.314c-0.373-0.5-0.765-1.039-0.866-1.19
            c-0.103-0.15-0.298-0.411-0.44-0.587c-0.349-0.434-1.655-2.351-1.655-2.425c0-0.094-2.052-3.113-2.774-4.08
            c-0.563-0.753-1.509-2.113-2.658-3.83c-0.183-0.272-0.934-1.395-1.674-2.502c-0.743-1.107-1.523-2.28-1.727-2.606
            c-0.204-0.324-0.784-1.166-1.299-1.876c-1.467-2.013-2.298-3.33-3.635-5.767c-0.479-0.876-0.669-1.212-0.919-1.217
            c-0.149-0.002-0.329,0.113-0.594,0.306c-0.969,0.699-1.352,2.03-0.835,2.87C197.466,78.67,197.531,79.065,197.562,79.486z"/>
        <path d="M229.01,100.403c0.763-0.043,1.565-0.118,1.82-0.154l0.425-0.072v-1.893c0-1.141-0.011-1.903-0.083-1.903
            c-0.065,0-0.161,0.096-0.228,0.214c-0.111,0.2-0.629,0.739-1.731,1.778c-0.238,0.227-0.604,0.662-0.816,0.97
            c-0.214,0.311-0.471,0.643-0.58,0.731C227.398,100.42,227.614,100.485,229.01,100.403z"/>
        <path d="M241.503,122.159c0.313-0.665,0.568-1.234,0.568-1.261c0-0.029,0.19-0.453,0.421-0.953c0.231-0.498,0.592-1.35,0.801-1.893
            c0.212-0.544,0.433-1.075,0.498-1.177c0.224-0.339,0.14-0.375-0.885-0.37c-0.561,0.005-1.21-0.015-1.448-0.043
            c-2.093-0.263-4.59-0.342-5.153-0.164c-0.597,0.19-1.042,0.274-2.199,0.395c-0.339,0.035-0.712,0.094-0.828,0.13
            c-0.491,0.156-1.287-0.766-1.256-1.637c0.012-3.096-0.599-6.265-0.756-9.363l-0.007-2.716l-0.491-0.161
            c-0.522-0.173-1.338-0.132-2.341,0.103c-0.397,0.092-1.066,0.109-1.857,0.058c-1.181-0.077-1.239-0.067-1.415,0.195
            c-0.103,0.15-0.353,0.416-0.558,0.594c-0.659,0.575-1.177,1.167-1.177,1.353c0,0.327-0.589,0.962-1.352,1.448
            c-0.411,0.262-0.748,0.517-0.748,0.563c0,0.043-0.421,0.397-0.933,0.789c-0.51,0.392-0.996,0.806-1.078,0.924
            c-0.137,0.195-0.674,0.575-2.654,1.874c-0.38,0.253-0.748,0.431-0.813,0.39c-0.065-0.041-0.313-0.075-0.544-0.065
            c-0.346,0.012-0.515-0.082-0.957-0.536c-0.296-0.306-0.573-0.551-0.628-0.551c-0.166,0-0.787-0.652-0.787-0.828
            c0-0.091-0.392-0.558-0.868-1.027c-0.474-0.468-0.866-0.878-0.866-0.911c0-0.036-0.274-0.414-0.613-0.842
            c-0.339-0.426-1.196-1.605-1.896-2.625l-1.268-1.855l-2.035-0.014c-1.116-0.008-2.557-0.06-3.202-0.116
            c-0.645-0.057-1.32-0.099-1.524-0.103l-0.353-0.014v1.333c0,0.732,0.016,1.325,0.062,1.325c0.048,0,0.117,0.267,0.16,0.589
            c0.043,0.323,0.205,1.364,0.364,2.314c0.161,0.95,0.323,2.009,0.369,2.348c0.053,0.409,0.225,0.83,0.516,1.253
            c0.585,0.859,0.517,1.275-0.383,2.238c-1.438,1.544-2.62,2.718-2.942,2.923c-0.188,0.12-0.351,0.279-0.356,0.356
            c-0.007,0.13-0.883,0.881-1.54,1.314c-0.426,0.281-2.071,1.681-3.257,2.766c-0.585,0.537-1.311,1.145-1.617,1.352
            c-0.789,0.536-2.471,2.057-2.471,2.238c0,0.084,0.217,0.347,0.471,0.582c0.255,0.236,0.801,0.777,1.222,1.215
            c0.421,0.438,1.314,1.345,1.98,2.006l1.208,1.203l4.754,0.058c2.615,0.033,5.088,0.086,5.497,0.115
            c0.406,0.029,1.354,0.066,2.1,0.077c0.748,0.015,1.72,0.077,2.16,0.13c0.442,0.056,1.027,0.123,1.301,0.157
            c0.746,0.089,4.311,0.681,5.36,0.892c0.505,0.101,1.648,0.246,2.536,0.31c2.569,0.186,3.161,0.238,4.08,0.368
            c1.518,0.216,1.939,0.245,4.08,0.31c1.155,0.033,2.62,0.086,3.265,0.11c4.397,0.166,5.256,0.164,5.588-0.007
            c0.231-0.121,0.606-0.157,1.196-0.116l0.854,0.05l0.277-0.704c0.397-0.992,1.278-2.721,1.754-3.448
            c0.587-0.897,0.845-1.373,1.177-2.134C240.454,124.386,240.808,123.628,241.503,122.159z"/>
        <path d="M249.237,115.904c-0.267,0.01-0.544,0.044-0.746,0.099c-0.351,0.097-1.434,1.769-1.804,2.794
            c-0.12,0.339-0.286,0.669-0.368,0.736c-0.082,0.069-0.238,0.382-0.356,0.7c-0.116,0.317-0.31,0.683-0.426,0.808
            c-0.116,0.123-0.291,0.39-0.395,0.595c-0.103,0.204-0.245,0.478-0.318,0.613c-0.072,0.138-0.205,0.475-0.291,0.743
            c-0.087,0.273-0.37,0.85-0.632,1.282c-0.262,0.431-0.479,0.854-0.479,0.936c0,0.084-0.527,1.198-1.183,2.485
            c-0.655,1.285-1.359,2.67-1.559,3.077c-0.2,0.409-0.493,0.91-0.645,1.112c-0.154,0.204-0.325,0.503-0.375,0.666
            c-0.053,0.165-0.187,0.459-0.306,0.654c-0.202,0.334-0.205,0.4,0.014,1.184c0.125,0.452,0.342,1.455,0.484,2.237
            c0.142,0.782,0.344,1.53,0.44,1.667c0.096,0.137,0.173,0.476,0.176,0.751c0.003,0.274,0.113,0.748,0.253,1.054
            c0.318,0.702,0.736,2.233,0.736,2.711c0,0.199,0.058,0.397,0.135,0.445c0.099,0.06,0.111,0.332,0.041,0.904
            c-0.245,1.961-0.024,3.299,1.085,6.501c0.142,0.406,0.303,0.931,0.356,1.169c0.269,1.205,0.847,3.352,0.962,3.57
            c0.169,0.313,0.82,3.063,0.938,3.958c0.05,0.371,0.183,0.902,0.298,1.176c0.116,0.277,0.282,0.835,0.368,1.242
            c0.087,0.409,0.257,0.964,0.382,1.236c0.125,0.272,0.325,0.998,0.438,1.61c0.195,1.039,1.025,4.058,1.306,4.746
            c0.07,0.17,0.202,0.703,0.291,1.176c0.091,0.477,0.366,1.694,0.608,2.704c0.243,1.01,0.447,1.92,0.447,2.018
            c0,0.231,0.996,1.518,1.177,1.518c0.091,0,0.043-0.416-0.149-1.215c-0.161-0.661-0.378-1.556-0.479-1.999
            c-0.101-0.44-0.207-1.003-0.245-1.241c-0.038-0.238-0.18-1.013-0.317-1.725c-0.137-0.714-0.255-1.52-0.258-1.792
            c-0.005-0.272-0.053-0.546-0.103-0.613c-0.053-0.07-0.128-0.65-0.176-1.295c-0.048-0.645-0.166-1.537-0.258-1.98
            c-0.272-1.291-0.419-2.343-0.486-3.419c-0.063-0.972-0.241-2.364-0.382-3.002c-0.087-0.399-0.258-1.588-0.794-5.497
            c-0.065-0.474-0.178-1.557-0.253-2.404c-0.074-0.849-0.224-1.83-0.325-2.18c-0.098-0.348-0.163-0.685-0.147-0.743
            c0.014-0.06-0.039-0.416-0.118-0.789c-0.079-0.375-0.26-1.622-0.399-2.776s-0.313-2.468-0.375-2.909
            c-0.154-1.058-0.224-1.638-0.305-2.47c-0.036-0.378-0.12-0.989-0.188-1.356c-0.065-0.371-0.204-1.203-0.31-1.843
            c-0.103-0.642-0.303-1.58-0.438-2.083c-0.243-0.905-0.243-0.924-0.007-1.43c0.493-1.056,1.6-3.743,1.812-4.397
            c0.118-0.374,0.515-1.321,0.871-2.103c0.358-0.78,0.845-1.995,1.08-2.71c0.238-0.712,0.743-2.081,1.126-3.031
            c1.157-2.877,1.429-3.592,1.429-3.746C250.096,115.935,249.68,115.889,249.237,115.904z"/>
        <path d="M266.044,33.397c0.048-8.606-0.053-11.433-0.433-11.64c-1.965-0.173-3.933-0.223-5.904-0.214
            c-4.335,0.025-8.678,0.344-13.005,0.291c-3.351,0.037-7.357,0.38-10.669,0.188c-0.282,0.469-0.503,0.876-0.447,1.474
            c-0.395,6.243-0.539,11.913-0.854,18.171c-0.036,0.104-0.096,0.316-0.135,0.486c-0.212,0.917-1.771,0.95-4.302,0.867
            c-8.808-0.119-15.543,0.081-24.354,0.271c-7.948,0.007-7.556,0.067-8.93-0.881l-0.794-0.556l-0.44-15.255
            c0.053-1.256,0.065-2.783,0.031-3.394l-0.065-1.112l-0.606,0.019c-8.548,0.368-18.144,1.314-26.74,0.679
            c-12.662-0.156-22.357-0.092-26.054,0.168c-5.699,0.347-11.389,0.871-17.104,0.705c-9.068-0.108-14.197-0.101-16.858,0.012
            c-4.202,0.18-4.628,0.19-10.212,0.265c-9.259,0.14-18.536,0.404-27.759,1.171c-2.459,0.231-5.708,0.354-11.362,0.433
            c-5.038,0.07-4.932,0.063-5.142,0.467c-0.663,1.285-0.847,6.046-0.271,7.222c0.088,0.18,0.114,0.924,0.072,2.161
            c-0.058,1.674,0.043,4.443,0.207,5.658c0.351,2.63,0.478,8.726,0.257,12.378c-0.106,1.776-0.075,1.838,0.739,1.571
            c6.339-0.06,14.879,0.199,14.879,0.199l68.664-1.617c0,0,10.478,0.062,10.68,0.103c1.175,0.236,18.997,0.024,22.668-0.272
            c1.73-0.137,5.136-0.259,9.59-0.335c1.641-0.028,3.084-0.091,3.202-0.137c0.387-0.149,2.935,0.219,4.436,0.64
            c1.412,0.397,3.099,0.847,6.245,1.655c15.866,4.538,31.268,9.082,47.105,13.865c5.747,1.824,10.287,3.276,17.718,5.665
            c3.844,1.237,6.24,1.812,6.264,1.812c0.087,0,0.19-1.637,0.176-2.712C266.831,60.429,266.809,46.893,266.044,33.397z"/>
        <path d="M261.899,139.608c-0.026-0.041-0.087-2.966-0.13-6.629h0.007c-0.045-3.663-0.106-12.986-0.137-20.865
            c-0.031-7.879-0.084-15.32-0.116-16.544c-0.036-1.35,0.015-3.344,0.13-5.079c0.238-3.612,0.291-10.128,0.089-10.476
            c-0.103-0.18-0.621-0.389-1.965-0.777c-5.971-1.811-11.863-3.899-17.829-5.708c-9.852-2.437-19.448-6.002-29.338-8.324
            c-1.934-0.443-4.253-1.141-7.65-2.295c-6.462-2.186-12.924-4.39-19.484-6.264c-0.229-0.068-0.45-0.099-0.666-0.103
            c-0.65-0.022-1.263,0.173-1.98,0.29c-0.941,0.092-0.897,0.005-0.671,1.261c0.098,0.546,0.197,3.494,0.264,8.083
            c0.005,0.272-0.026,0.869-0.07,1.326c-0.053,0.535-0.034,0.973,0.063,1.234c0.137,0.371,0.284,10.472,0.248,16.776
            c-0.002,0.305,0,1.301,0,2.217c0,0.917-0.029,2.921-0.06,4.449c-0.137,6.856-0.183,10.708-0.166,14.266
            c0.007,2.105,0.014,4.439,0.019,5.187c0.009,2.565-0.137,8.399-0.214,8.586c-0.205,0.504-0.298,12.88-0.156,20.591
            c0.05,2.596,0.087,7.152,0.079,10.126c-0.029,9.183-0.005,14.93,0.065,17.507c0.111,4.21,0.185,6.719,0.258,8.709
            c0.072,1.984,0.209,13.061,0.214,17.285c0.002,1.326-0.041,4.128-0.099,6.236c-0.055,2.105-0.094,5.134-0.082,6.732
            c0.01,1.595,0.012,4.046,0.005,5.439c-0.019,4.155-0.005,4.893,0.084,7.345c0.048,1.291,0.067,2.708,0.053,3.149
            c-0.053,1.599-0.043,2.788,0.05,10.807c0.092,7.712,0.108,11.561,0.058,12.538c-0.012,0.239,0.029,1.429,0.084,2.652
            c0.123,2.596,0.139,4.229,0.079,7.287c-0.026,1.224-0.005,2.761,0.043,3.416c0.053,0.688,0.034,1.212-0.031,1.253
            c-0.065,0.04-0.084,1.474-0.053,3.44c0.058,3.43,0.055,3.736,0.019,5.477c-0.01,0.544-0.01,1.013,0,1.047
            c0.012,0.033,0.015,1.703,0,3.704c-0.01,2.004,0.041,5.091,0.111,6.856c0.07,1.766,0.156,4.24,0.2,5.498
            c0.205,5.266,0.034,10.527,0.183,15.796c0,0.789,0.05,0.785,1.208-0.096c0.524-0.397,1.203-0.876,1.509-1.072
            c0.305-0.198,0.587-0.39,0.621-0.429c0.034-0.036,0.45-0.346,0.924-0.678c1.032-0.72,1.617-1.134,2.528-1.798
            c11.868-8.672,23.153-17.923,34.52-27.218c7.732-6.058,15.904-12.354,22.4-18.58c2.233-2.221,4.552-4.34,6.972-6.357
            c0.313-0.37,3.565-3.592,4.429-4.19c0.813-0.657,0.936-1.415,0.931-2.192c0.077-3.553,0.529-6.977,0.582-10.554
            c0.034-1.287,0.094-2.477,0.13-2.651c0.034-0.171,0.087-0.917,0.123-1.656c0.036-0.739,0.108-1.407,0.154-1.479
            c0.045-0.075,0.087-1.051,0.103-2.175c0.034-2.257,0.173-6.922,0.24-8.088c0.06-1.056,0.212-4.403,0.253-5.505
            c0.137-3.755,0.231-6.623,0.354-11.083c0.034-1.173,0.092-2.18,0.123-2.23c0.197-0.32,0.318-17.937,0.149-21.449
            c-0.159-3.313-0.168-6.719-0.026-6.772c0.099-0.036,0.089-0.118-0.012-0.291c-0.077-0.132-0.115-0.426-0.089-0.651
            c0.034-0.304,0.171-7.679,0.173-9.39c0-0.104-0.003-1.604-0.012-3.337c-0.024-3.664,0.12-13.359,0.2-13.438
            C261.923,139.718,261.923,139.652,261.899,139.608z M255.625,113.176c-0.065,0.305-0.202,0.666-0.315,0.8
            c-0.346,0.416-0.539,0.816-0.763,1.597c-0.12,0.414-0.353,1.027-0.524,1.367c-0.171,0.339-0.438,0.979-0.589,1.422
            c-0.152,0.44-0.489,1.241-0.751,1.785c-0.262,0.544-0.698,1.653-0.977,2.463c-0.666,1.936-2.083,5.049-2.495,5.502
            c-0.18,0.199-0.421,0.632-0.544,0.957c-0.12,0.327-0.308,0.729-0.414,0.893c-0.103,0.166-0.195,0.354-0.2,0.429
            c-0.005,0.072-0.046,0.221-0.091,0.322c-0.099,0.217-0.65,1.682-0.919,2.437c-0.166,0.474-0.166,0.558,0.014,0.939
            c0.111,0.233,0.229,0.786,0.265,1.214c0.034,0.431,0.116,0.948,0.176,1.152c0.058,0.204,0.204,0.809,0.322,1.352
            c0.118,0.544,0.284,1.289,0.375,1.655c0.092,0.366,0.137,0.801,0.096,0.962c-0.041,0.161-0.022,0.356,0.046,0.441
            c0.067,0.084,0.19,0.545,0.272,1.022c0.082,0.474,0.224,1.032,0.31,1.235c0.178,0.415,0.626,3,0.751,4.32
            c0.043,0.474,0.135,0.97,0.2,1.092c0.14,0.262,0.849,5.61,1.035,7.799c0.024,0.271,0.108,0.828,0.18,1.234
            c0.327,1.833,0.727,4.883,0.984,7.412c0.077,0.746,0.197,1.67,0.26,2.042c0.06,0.373,0.135,0.844,0.166,1.049
            c0.034,0.202,0.096,1.151,0.137,2.101c0.041,0.95,0.147,2.008,0.238,2.348c0.094,0.339,0.262,1.39,0.375,2.341
            c0.116,0.95,0.26,1.859,0.325,2.018c0.76,1.913,0.83,5.072,0.123,5.567c-1.297,0.907-2.99,0.01-4.896-2.593
            c-0.137-0.185-0.772-0.943-1.417-1.686c-0.645-0.746-1.424-1.699-1.727-2.122c-0.301-0.424-0.647-0.888-0.768-1.03
            c-0.123-0.14-0.226-0.289-0.226-0.334c0-0.048-0.113-0.219-0.253-0.383c-0.139-0.163-0.363-0.424-0.498-0.582
            c-0.135-0.156-0.356-0.503-0.493-0.763c-0.135-0.26-0.356-0.57-0.491-0.693c-0.132-0.12-0.233-0.313-0.233-0.433
            c0-0.118-0.503-0.727-1.111-1.352c-0.609-0.623-1.48-1.557-1.939-2.074c-0.462-0.517-0.998-1.1-1.183-1.294
            c-0.188-0.195-0.337-0.395-0.337-0.445c0-0.051-0.368-0.481-0.816-0.953c-0.445-0.469-1.053-1.188-1.352-1.597
            c-0.296-0.406-0.64-0.842-0.763-0.974c-0.12-0.135-0.44-0.559-0.705-0.931c-0.262-0.375-0.51-0.709-0.556-0.746
            c-0.046-0.034-0.515-0.65-1.042-1.364c-0.524-0.712-1.022-1.371-1.104-1.474c-0.084-0.101-0.286-0.409-0.452-0.679
            c-0.166-0.269-0.387-0.571-0.493-0.679c-0.18-0.187-0.637-0.772-2.03-2.593c-0.337-0.443-0.669-0.825-0.724-0.847
            c-0.055-0.022-0.096-0.097-0.096-0.162c0-0.068-0.245-0.435-0.551-0.823c-0.303-0.385-0.785-0.998-1.073-1.364l-0.524-0.666
            l-1.008,2.038c-0.553,1.123-1.046,2.199-1.092,2.393c-0.077,0.33-0.563,1.566-1.073,2.721c-0.125,0.282-0.26,0.674-0.305,0.867
            c-0.043,0.195-0.214,0.733-0.387,1.209c-0.171,0.477-0.52,1.485-0.777,2.237c-0.287,0.852-0.662,1.651-0.974,2.103
            c-0.279,0.4-0.505,0.814-0.505,0.917c0,0.25-0.95,2.492-1.643,3.887c-0.303,0.611-0.705,1.496-0.893,1.972
            c-0.187,0.474-0.39,0.929-0.452,1.008c-0.116,0.146-0.344,0.724-0.919,2.321c-0.481,1.343-1.051,2.719-1.157,2.788
            c-0.053,0.033-0.216,0.392-0.356,0.801c-0.137,0.406-0.419,1.152-0.633,1.662c-0.214,0.508-0.411,1.01-0.433,1.111
            c-0.148,0.664-0.736,2.053-1.209,2.963c-0.061,0.038-0.113,0.095-0.143,0.177c-0.033,0.089-0.067,0.177-0.1,0.266
            c-0.128,0.216-0.236,0.365-0.306,0.411c-0.065,0.041-0.154,0.291-0.202,0.548l-0.089,0.467l0.069-0.036
            c-0.734,1.916-1.505,3.816-2.451,5.64c-0.601,1.158-1.175,2.29-1.538,3.489c-0.115,0.299-0.239,0.523-0.29,0.523
            c-0.055,0-0.103,0.07-0.103,0.15c0,0.192-1.593,3.478-1.727,3.563c-0.058,0.036-0.197,0.315-0.303,0.613
            c-0.106,0.301-0.267,0.633-0.356,0.739c-0.231,0.272-0.998,1.718-1.183,2.23c-0.217,0.594-0.484,1.205-0.782,1.792
            c-1.203,2.351-2.026,4.124-2.271,4.915c-0.315,1.022-0.594,1.197-1.908,1.162l-1.027-0.031l-0.092-0.369
            c-0.24-0.966-0.508-2.444-0.606-3.394c-0.06-0.577-0.156-1.275-0.221-1.546c-0.063-0.272-0.154-1.102-0.2-1.85
            c-0.045-0.746-0.106-1.584-0.135-1.856c-0.058-0.522-0.106-1.691-0.241-5.995c-0.045-1.46-0.106-2.747-0.13-2.87
            c-0.038-0.212-0.204-3.132-0.2-3.544c0.003-0.104-0.046-0.385-0.103-0.621c-0.058-0.238-0.145-1.099-0.188-1.915
            c-0.043-0.816-0.12-1.84-0.18-2.283c-0.063-0.442-0.12-1.419-0.123-2.165c-0.003-0.748-0.053-1.72-0.118-2.16
            c-0.115-0.816-0.349-4.946-0.426-7.528c-0.024-0.782-0.108-1.98-0.18-2.658c-0.075-0.679-0.19-2.127-0.26-3.214
            c-0.137-2.129-0.192-2.752-0.298-3.329c-0.036-0.204-0.158-1.682-0.264-3.279c-0.19-2.899-0.258-3.363-0.84-5.529
            c-0.32-1.186-0.553-2.723-0.655-4.359l-0.05-0.931l0.958-0.977c0.529-0.539,1.236-1.342,1.571-1.785
            c0.688-0.91,1.251-1.561,2.341-2.716c0.416-0.44,1.203-1.304,1.746-1.913c0.541-0.611,1.138-1.253,1.326-1.436l0.334-0.337
            l-0.342-0.341c-0.19-0.195-0.756-0.693-1.249-1.099c-0.493-0.41-2.083-1.906-3.529-3.333c-1.448-1.426-3.484-3.433-4.527-4.455
            c-2.096-2.05-2.73-2.738-4.352-4.662c-0.329-0.39-0.732-0.741-0.893-0.782c-0.366-0.091-0.363-0.122,0.026-0.9
            c0.457-0.909,5.807-6.236,7.636-7.597c0.27-0.199,1.376-1.237,2.459-2.302l1.965-1.939l-0.072-0.719
            c-0.041-0.397-0.161-2.038-0.264-3.633c-0.104-1.597-0.219-3.069-0.258-3.271c-0.568-2.863-0.666-3.488-0.686-4.689
            c-0.014-0.746-0.07-1.724-0.123-2.167c-0.055-0.44-0.151-1.523-0.229-2.405c-0.074-0.883-0.353-2.769-0.621-4.196
            c-0.433-2.331-0.488-2.856-0.548-5.206c-0.067-2.692-0.224-4.858-0.44-6.156c-0.796-4.778-0.693-5.208,1.701-6.647
            c1.99-1.195,2.976-1.689,3.582-1.708c0.277-0.007,0.479,0.084,0.659,0.253c0.154,0.141,0.356,0.26,0.455,0.26
            c0.464,0,1.913,1.898,3.582,4.694c1.581,2.644,3.597,5.574,4.59,6.666c0.279,0.305,0.597,0.719,0.7,0.911
            c0.101,0.195,0.474,0.775,0.832,1.295c0.361,0.52,0.784,1.201,0.938,1.506c0.154,0.306,0.323,0.575,0.368,0.609
            c0.104,0.075,1.864,2.452,2.478,3.344c0.238,0.347,0.606,0.859,0.828,1.143c0.219,0.284,0.406,0.654,0.406,0.815
            c0.003,0.161,0.142,0.459,0.318,0.674c0.508,0.613,1.403,2.095,1.403,2.321c0,0.113,0.055,0.229,0.118,0.25
            c0.06,0.024,0.51,0.65,1.001,1.398c0.493,0.748,1.006,1.511,1.133,1.694c0.125,0.185,0.226,0.44,0.226,0.57
            c0,0.127,0.139,0.416,0.31,0.647c0.168,0.231,0.428,0.676,0.575,0.981c0.147,0.306,0.375,0.715,0.517,0.919
            c0.142,0.205,0.274,0.405,0.291,0.434c0.063,0.103,0.796-0.7,1.54-1.668c2.105-2.745,2.981-3.824,4.169-5.182
            c0.714-0.813,1.602-1.901,1.973-2.411c0.37-0.51,0.818-1.094,0.991-1.299c0.171-0.207,0.481-0.589,0.686-0.854
            c0.202-0.266,0.789-0.964,1.299-1.546c0.51-0.58,1.09-1.273,1.292-1.545c1.542-2.072,3.938-4.015,4.942-4.015
            c0.921,0,1.54,1.227,1.597,3.135c0.048,1.571,0.154,2.731,0.318,3.531c0.063,0.306,0.116,0.83,0.116,1.169
            c0.002,0.342,0.024,0.818,0.053,1.056c0.029,0.236,0.145,1.239,0.25,2.223c0.108,0.987,0.236,2.122,0.286,2.529
            c0.075,0.62,0.101,4.193,0.039,5.251c-0.043,0.736,0.019,5.776,0.077,6.084c0.07,0.383,0.657,0.464,1.525,0.214
            c1.458-0.418,7.807-0.416,9.637,0.007c0.303,0.07,0.94,0.178,1.414,0.238c0.476,0.06,0.883,0.168,0.907,0.241
            c0.024,0.072,0.099,0.128,0.161,0.128c0.248,0,1.326,0.815,1.39,1.049C255.8,111.735,255.767,112.536,255.625,113.176z"/>
        <path d="M163.586,102.556c-3.397,0.002-8.844-0.096-9.448-0.173c-0.716-0.091-1.527-0.142-2.251-0.142
            c-0.722-0.002-1.357,0.038-1.726,0.128c-0.44,0.11-1.551,0.216-2.567,0.248c-0.986,0.029-2.458,0.118-3.271,0.193
            c-0.815,0.077-1.898,0.151-2.405,0.168c-0.511,0.017-1.011,0.067-1.114,0.103c-0.332,0.123-2.092,0.337-2.774,0.337
            c-0.784,0-0.849,0.12-0.808,1.636c0.04,1.458-0.01,3.893-0.111,5.276c-0.05,0.714-0.067,2.388-0.039,3.712
            c0.082,3.613,0.056,4.98-0.077,5.458c-0.075,0.267-0.069,0.508,0,0.633c0.073,0.129,0.061,0.531-0.026,1.094
            c-0.25,1.624-0.274,2.161-0.133,3.194c0.165,1.234-0.15,1.054,2.114,1.143c2.189,0.089,3.253,0.159,4.998,0.325
            c0.679,0.063,2.096,0.178,3.15,0.253c1.051,0.073,2.225,0.198,2.597,0.27c0.376,0.072,0.95,0.125,1.287,0.118
            c0.337-0.007,1.083,0.039,1.663,0.103c0.993,0.109,1.999,0.173,4.869,0.31c0.669,0.032,1.53,0.08,1.915,0.116
            c0.628,0.06,1.855,0.132,6.621,0.524c0.816,0.067,1.612,0.083,1.766,0.083h0.284l-0.07-1.59c-0.036-0.9-0.053-3.291-0.046-5.328
            c0.007-2.038-0.014-3.892-0.019-4.131c-0.06-3.392,0.284-6.82,0.468-10.154v-3.751l-1.004-0.077
            C166.868,102.593,165.147,102.556,163.586,102.556z"/>
        <path d="M199.332,40.226c9.934,0.612,21.248-0.736,31.383-0.356l0.479-0.077l0.693-11.519c0.118-5.567,0.219-10.953,0.012-16.561
            c-0.034-0.472-0.063-0.944-0.084-1.415l-2.353-0.123c-2.466-0.125-4.951-0.176-7.443-0.176c-7.482-0.002-15.051,0.433-22.446,0.536
            l-0.491,0.077l0.019,3.022C199.188,22.443,198.924,31.58,199.332,40.226z"/>
        <path d="M134.026,56.968c-0.043-0.043-3.782-0.157-3.782-0.157l-57.677,1.715c0,0-3.13,0.055-3.173,0.058
            c-0.045,0.002-0.007,0.284,0.084,0.628c0.231,0.882,0.294,1.744,0.376,5.122c0.038,1.628,0.094,3.156,0.123,3.395
            c0.067,0.58,0.164,7.063,0.238,16.236c0.033,4.145,0.086,8.702,0.123,10.128c0.037,1.427,0.096,6.233,0.13,10.682
            c0.067,8.976,0.088,9.431,0.517,16.549c0.026,0.441,0.067,1.55,0.104,2.463c0.035,0.917,0.091,1.838,0.123,2.043
            c0.096,0.656,0.162,1.671,0.245,4.14c0.047,1.324,0.106,2.74,0.138,3.149c0.029,0.407,0.077,1.355,0.108,2.101
            c0.032,0.747,0.086,1.741,0.118,2.217c0.031,0.479,0.092,1.901,0.127,3.156c0.039,1.258,0.095,3.121,0.131,4.141
            c0.039,1.017,0.092,2.569,0.118,3.452c0.024,0.883,0.081,2.466,0.122,3.517c0.075,1.937,0.113,3.551,0.25,9.26
            c0.043,1.732,0.116,3.236,0.148,3.337c0.034,0.103,0.082,2.358,0.111,5.006c0.046,4.114,0.13,6.325,0.486,12.9
            c0.026,0.51,0.104,1.795,0.173,2.846c0.071,1.054,0.154,2.887,0.188,4.075c0.037,1.189,0.091,2.519,0.123,2.961
            c0.09,1.208,0.3,5.553,0.299,6.118c-0.002,0.758,0.253,6.563,0.33,7.467c0.035,0.443,0.072,2.502,0.077,4.574
            c0.005,2.071,0.006,5.29,0.014,7.156c0.018,6.767,0.015,7.53,0.005,11.298c-0.014,5.365,0.008,5.937,0.149,5.937
            c0.108,0,3.267-1.933,5.057-3.091c0.339-0.219,1.013-0.65,1.487-0.958c0.477-0.308,1.167-0.714,1.54-0.904
            c0.374-0.189,1.202-0.704,1.842-1.137c0.64-0.433,1.502-0.958,1.916-1.165c0.411-0.209,1.234-0.7,1.83-1.099
            c0.595-0.399,1.353-0.892,1.675-1.087c1.224-0.733,2.82-1.761,3.175-2.05c0.453-0.368,2.009-1.397,2.346-1.551
            c0.334-0.154,0.68-0.381,0.977-0.64c0.135-0.118,0.303-0.215,0.375-0.215c0.072-0.003,0.364-0.18,0.648-0.399
            c0.284-0.221,0.996-0.705,1.579-1.068c0.582-0.363,1.054-0.702,1.054-0.755c0-0.053,0.221-0.183,0.49-0.291
            c0.272-0.109,0.607-0.318,0.751-0.459c0.145-0.145,0.527-0.38,0.839-0.518c0.316-0.14,0.64-0.322,0.732-0.414
            c0.094-0.093,0.25-0.168,0.348-0.168c0.099,0,0.397-0.143,0.666-0.31c0.27-0.172,0.531-0.31,0.571-0.31
            c0.039,0,0.323-0.176,0.64-0.395c0.318-0.218,1.059-0.635,1.635-0.919c0.578-0.284,1.386-0.76,1.805-1.065
            c0.416-0.308,1.104-0.734,1.532-0.946c0.427-0.211,1.279-0.731,1.895-1.15c0.618-0.421,1.823-1.222,2.671-1.785
            c0.849-0.563,1.632-1.083,1.733-1.152c0.322-0.222,1.641-0.977,2.219-1.268c0.306-0.152,0.611-0.33,0.678-0.399
            c0.067-0.073,0.334-0.203,0.597-0.292c1.022-0.346,4.003-2.174,5.663-3.474c0.525-0.409,1.754-1.28,2.723-1.939
            c0.97-0.659,1.898-1.325,2.068-1.475c1.054-0.917,1.646-1.376,1.947-1.533c1.721-0.887,1.928-1.28,1.747-3.221
            c-0.079-0.838-0.162-2.221-0.177-3.07c-0.014-0.849-0.064-1.907-0.107-2.348c-0.047-0.443-0.111-2.659-0.15-4.934
            c-0.117-6.647-0.204-9.96-0.355-13.773c-0.231-5.844-0.267-10.467-0.2-26.054c0.007-1.768,0.005-5.548-0.014-8.401
            c-0.017-2.853,0.004-5.719,0.053-6.363c0.197-2.646,0.231-3.43,0.283-7.036c0.153-10.134,0.188-11.738,0.265-12.597
            c0.045-0.51,0.09-1.371,0.103-1.915c0.015-0.541,0.034-1.02,0.045-1.054c0.013-0.034,0.032-1.137,0.039-2.463
            c0.008-1.323,0.079-3.327,0.162-4.448c0.107-1.468,0.137-4.807,0.091-11.918c-0.085-13.246-0.022-26.045,0.13-26.203
            c0.053-0.056-0.005-2.729-0.091-4.061C134.146,57.648,134.069,57.011,134.026,56.968z"/>
        <path d="M71.274,221.913c-0.009-2.037-0.04-3.895-0.064-4.133c-0.024-0.238-0.082-3.33-0.13-6.86
            c-0.111-8.367-0.135-9.241-0.284-10.857c-0.111-1.187-0.295-4.364-0.284-4.889c0.036-1.583,0.01-3.5-0.06-3.608
            c-0.092-0.149-0.116-0.544-0.227-4.475c-0.069-2.499-0.085-2.841-0.314-5.937c-0.071-0.951-0.162-2.856-0.203-4.249
            c-0.038-1.391-0.091-3.175-0.115-3.957c-0.024-0.779-0.082-2.918-0.116-4.751c-0.035-1.836-0.078-3.722-0.11-4.199
            c-0.031-0.476-0.122-2.369-0.196-4.203c-0.069-1.834-0.192-4.864-0.271-6.732c-0.077-1.869-0.152-5.148-0.173-7.289
            c-0.022-2.138-0.071-4.667-0.104-5.62c-0.06-1.575-0.159-5.78-0.241-9.887c-0.017-0.888-0.075-1.672-0.123-1.752
            c-0.531-7.201-0.57-16.417-1.189-23.622c-0.003-4.402-0.136-26.278-0.168-27.529c-0.045-1.737-0.193-5.73-0.279-7.681
            c-0.034-0.795-0.111-1.619-0.174-1.839c-0.062-0.219-0.115-1.323-0.117-2.451c-0.002-1.128-0.005-2.526-0.005-3.103
            c-0.003-0.994-0.053-1.762-0.195-2.909l-0.058-0.518l-4.463-0.137c-0.399-0.004-0.387,0.103-0.238,0.498
            c0.623,2.896,0.118,5.827,0.568,8.75c0.337,13.27,1.285,26.687,1.487,40.01c0.043,7.838,0.09,10.241,0.252,12.164
            c0.477,7.417-0.04,9.435,0.537,16.852c0.056,1.018,0.114,2.75,0.124,3.847c0.011,1.098,0.072,2.314,0.136,2.704
            c1.396,18.065,1.678,42.317,2.464,60.515c-0.03,2.881,0.087,10.503,0.196,12.474c0.026,0.51,0.085,1.903,0.128,3.091
            c0.334,6.272-0.032,12.529,0.784,18.753c0.072,0.358,0.113,0.337,1.454-0.537c2.071-1.35,2.247-1.357,2.36-3.149
            c0.081-1.272-0.156-3.039-0.464-7.534C71.339,226.316,71.284,223.951,71.274,221.913z"/>
        <path d="M168.501,96.983c-0.118-0.005-2.17-0.024-4.547-0.051c-4.049-0.044-5.23-0.074-9.447-0.241
            c-3.563-0.137-6.618-0.214-9.938-0.25c-1.904-0.021-4.213-0.074-5.129-0.118c-0.52-0.024-0.903-0.051-1.184-0.046
            c-0.844,0.017-0.781,0.311-0.835,1.747l-0.05,1.59l0.322-0.064c0.18-0.034,0.777-0.145,1.321-0.246
            c0.544-0.101,1.368-0.173,1.842-0.161c0.472,0.015,1.396-0.055,2.042-0.154c1.425-0.221,6.564-0.235,8.157-0.019
            c0.577,0.077,2.963,0.166,5.309,0.193c5.247,0.06,10.246,0.168,11.367,0.253l0.842,0.072l0.05-0.85
            c0.024-0.462,0.05-1.02,0.065-1.241C168.707,97.091,168.667,96.99,168.501,96.983z"/>
        <path d="M234.673,103.296c-0.116,1.546,0.214,9.719,0.39,9.661c0.051-0.016,0.674-0.026,1.388-0.026
            c1.285,0,1.301-0.009,1.244-0.284c-0.034-0.154-0.087-0.521-0.125-0.827c-0.185-1.538-0.318-4.105-0.296-5.873
            c0.012-1.087-0.041-3.059-0.123-4.386c-0.082-1.323-0.183-3.045-0.221-3.827c-0.036-0.782-0.173-2.362-0.303-3.517
            c-0.13-1.155-0.238-2.384-0.238-2.723c-0.003-0.496-0.026-0.746-0.149-0.77c-0.017-0.003-0.034-0.003-0.053,0
            c-0.13,0.031-0.344,0.242-0.671,0.616c-0.371,0.418-0.741,0.827-0.828,0.916c-0.344,0.346-0.452,2.526-0.253,5.026
            C234.574,99.042,234.719,102.684,234.673,103.296z"/>
        <path d="M179.151,299.414c-0.079-4.232-0.168-6.676-0.31-8.328c-0.058-0.677-0.089-1.271-0.065-1.311
            c0.026-0.044,0.003-0.767-0.058-1.612c-0.06-0.845-0.145-2.479-0.188-3.633c-0.043-1.155-0.101-2.482-0.13-2.95
            c-0.077-1.338-0.074-5.499,0.007-9.402c0.079-3.774,0.173-10.428,0.168-12.101c-0.005-1.914-0.082-7.292-0.111-7.597
            c-0.015-0.17,0.005-0.727,0.045-1.234c0.041-0.51,0.104-2.429,0.142-4.263c0.041-1.833,0.13-3.675,0.195-4.087
            c0.063-0.411,0.113-1.658,0.116-2.774c0.002-1.117,0.005-2.11,0.007-2.211c0.003-0.101-0.026-1.629-0.072-3.395
            c-0.043-1.766-0.079-3.269-0.077-3.337c0.017-0.601-0.012-2.249-0.046-2.846c-0.089-1.622-0.183-9.043-0.173-13.891
            c0.005-2.82-0.007-5.785-0.027-6.601c-0.063-2.649-0.05-4.052,0.046-5.75c0.132-2.368,0.255-6.291,0.231-7.528
            c-0.01-0.577-0.045-3.05-0.077-5.497c-0.031-2.444-0.063-4.563-0.07-4.701c-0.007-0.134-0.01-0.964,0-1.848
            c0.029-3.151-0.176-11.097-0.291-11.292c-0.113-0.185-0.298-9.621-0.214-10.877c0.026-0.372,0.038-1.869,0.026-3.329
            c-0.012-1.46,0.012-3.635,0.05-4.826c0.039-1.189,0.087-3.515,0.103-5.179c0.019-1.662,0.067-3.079,0.111-3.149
            c0.043-0.068,0.034-0.363-0.019-0.652c-0.053-0.289-0.05-0.524,0-0.524c0.05,0,0.034-0.267-0.026-0.588
            c-0.06-0.322-0.096-0.832-0.084-1.14c0.015-0.306-0.041-2.309-0.123-4.448c-0.154-4.039-0.082-9.993,0.149-12.589
            c0.13-1.456,0.25-5.697,0.219-7.6c-0.072-4.578-0.045-17.547,0.039-18.546c0.053-0.621,0.103-1.646,0.118-2.283
            c0.041-1.913,0.205-6.298,0.258-6.958c0.029-0.339,0.082-1.013,0.13-1.486c0.116-1.143,0.075-8.468-0.05-9.145
            c-0.055-0.291-0.116-0.962-0.13-1.494c-0.015-0.531-0.053-1.142-0.084-1.344c-0.142-0.905-0.305-9.489-0.245-13.037
            c0.036-2.149,0.034-4.196-0.007-4.547l-0.077-0.64l-2.237,0.065c-0.95,0.029-1.901,0.068-2.853,0.07l-0.024,4.972
            c-0.014,2.735-0.053,10.667-0.084,17.629c-0.034,6.962-0.106,14.213-0.156,16.114c-0.05,1.903-0.092,7.768-0.096,13.032
            c-0.012,9.577-0.132,12.724-0.544,13.85c-0.058,0.159-0.113,2.155-0.123,4.432c-0.019,3.998-0.05,4.79-0.2,6.11
            c-0.07,0.602-0.291,4.569-0.286,5.064c0.002,0.135-0.039,1.583-0.089,3.214c-0.05,1.628-0.089,3.014-0.092,3.084
            c-0.003,0.067,0.024,0.739,0.065,1.487c0.243,11.261-0.075,22.318-0.46,33.341c0.029,2.175,0.077,5.362,0.111,7.095
            c0.091,4.86,0.079,10.337-0.026,13.243c-0.123,3.397-0.123,10.378,0,13.309c0.147,3.477,0.231,4.992,0.279,5.069
            c0.024,0.038,0.055,0.82,0.07,1.734c0.014,0.912,0.072,2.028,0.13,2.471c0.058,0.44,0.135,1.19,0.161,1.679
            c0.027,0.491,0.07,0.936,0.103,0.992c0.034,0.053,0.103,1.208,0.149,2.567c0.045,1.356,0.123,3.086,0.176,3.834
            c0.12,1.725,0.055,6.674-0.099,7.36c-0.063,0.286-0.116,1.14-0.108,1.893c0.012,1.65-0.091,3.139-0.414,5.937
            c-0.255,2.197-0.263,2.895-0.176,10.371c0.048,4.203,0.2,7.645,0.433,9.513c0.067,0.548,0.123,1.527,0.123,2.175
            c0,0.645,0.055,1.477,0.123,1.848c0.07,0.372,0.156,1.927,0.188,3.454c0.031,1.526,0.089,2.964,0.13,3.2
            c0.041,0.238,0.096,1.357,0.116,2.478c0.074,3.921,0.187,6.969,0.298,7.896c0.279,2.707,0.406,5.418,0.337,8.141
            c-0.063,3.934-0.096,7.425,0.219,11.336c0.147,1.008-0.253,4.037,0.977,2.808c0.955-0.903,2.933-2.363,4.314-3.183
            c0.565-0.354,0.724-0.494,0.517-1.112C179.283,304.147,179.23,303.593,179.151,299.414z"/>
    </g>
</svg>