<svg xmlns="http://www.w3.org/2000/svg" viewBox="0 0 320 320">
    <path d="M286.98,149.769c-2.697-8.207-6.73-16.083-11.088-23.52c-3.266-5.568-7.065-10.947-11.546-15.642 c7.695-8.11,13.223-18.091,16.909-28.644c2.176-6.226,3.722-12.69,4.587-19.225c0.82-6.205,1.089-12.427-0.791-18.464 c-1.449-4.655-4.251-8.647-7.755-11.925c0.906-2.563,1.545-5.247,2.101-7.831c0.884-4.117,1.397-8.297,1.934-12.468 c0.195-1.511-1.47-2.583-2.987-1.77c-1.814,0.973-6.152,3.542-9.501,5.528c-1.567,0.929-6.637,4.394-7.714,5.279 c-2.192-1.284-4.454-2.446-6.817-3.417c-7.531-3.09-15.542-3.95-23.503-2.189c-6.057,1.341-11.377,4.185-15.785,8.537 c-3.798,3.752-6.35,8.708-8.255,13.637c-1.415,3.661-2.509,7.439-3.53,11.232c-5.698,1.133-11.231,1.971-16.988,0.449 c-0.811-0.215-2.396-0.844-3.459-1.318c-1.485-0.661-2.909-1.447-4.306-2.275c-2.919-1.727-5.635-3.8-8.393-5.766 c-11.169-7.961-23.22-15.359-36.637-18.745c-6.407-1.619-13.279-2.116-19.768-0.69c-5.976,1.312-11.405,4.095-16.071,8.037 c-8.762,7.4-14.163,17.66-21.019,26.663c-1.351,1.774-2.772,3.493-4.274,5.139c-0.333,0.363-0.673,0.72-1.015,1.074 c0.034-0.041-0.077,0.06-0.337,0.304c-0.335,0.302-0.676,0.596-1.017,0.889c-1.119,0.966-2.277,1.885-3.451,2.78 c-4.565,3.477-9.726,6.464-14.593,9.219c-4.76,2.697-9.651,5.281-14.03,8.582c-4.301,3.246-8.274,7.429-9.395,12.863 c-0.265,1.29,0.615,2.975,1.893,3.393C40.8,102.897,52.15,99.3,61.659,94.78c0.103-0.049,0.204-0.1,0.308-0.151 c0.077,0.845,0.374,1.681,0.855,2.441c0.914,1.443,2.789,2.175,4.392,2.452c3.458,0.598,7.214-0.235,10.495-1.308 c1.425-0.466,2.819-1.012,4.185-1.62c-0.274,2.437,0.264,4.777,2.157,6.68c2.068,2.077,5.447,2.217,8.158,1.747 c3.501-0.608,6.851-2.023,9.992-3.643c0.479-0.246,0.953-0.498,1.425-0.752c0.478,2.496,2.007,4.747,4.406,5.835 c3.256,1.479,7.345,0.323,10.52-0.787c3.194-1.118,6.236-2.813,9.162-4.575c-0.462,2.742,0.033,5.685,2.607,7.289 c2.94,1.831,6.705,1.33,9.896,0.513c3.499-0.897,6.999-2.299,10.273-4.069c-0.074,0.162-0.15,0.326-0.222,0.488 c-3.19,7.237-4.866,14.891-6.632,22.56c-0.903,3.927-1.521,7.922-2.424,11.853c-0.731,3.183-1.927,6.254-3.413,9.157 c-2.782,5.428-7.037,9.968-11.733,13.797c-5.21,4.25-11.033,7.826-16.892,11.106c-7.587,4.25-15.382,8.11-23.111,12.092 c-7.294,3.76-14.443,7.748-21.509,11.915c-5.302,3.124-10.677,7.003-13.892,12.353c-0.679,1.135-1.113,2.434-1.324,3.735 c-0.184,1.147,0.501,2.578,1.655,2.964c3.671,1.236,7.289,0.627,10.928-0.415c3.483-0.996,6.889-2.345,10.332-3.483 c7.869-2.6,15.072-6.809,22.169-11.015c3.666-2.174,7.447-4.082,11.306-5.886c3.93-1.839,7.481-3.846,11.904-6.324 c4.423-2.479,5.658-3.612,8.866-5.202c1.279-0.634,2.642-1.017,4.068-1.097c0.153-0.009,0.708,0.099,0.735,0.107 c0.053,0.02,0.229,0.121,0.322,0.175c0.025,0.019,0.05,0.04,0.075,0.061c0.019,0.026,0.049,0.063,0.09,0.112 c0.017,0.023,0.03,0.04,0.045,0.057c0.011,0.029,0.026,0.065,0.05,0.111c0.021,0.049,0.118,0.364,0.138,0.4 c0.072,0.365,0.097,0.739,0.108,1.11c-0.014-0.278-0.041,0.428-0.041,0.448c-0.026,0.27-0.069,0.535-0.114,0.8 c-0.121,0.738-0.205,0.995-0.392,1.556c-1.026,3.088-2.892,5.541-4.584,8.387c-4.425,7.439-8.799,14.908-12.925,22.519 c-4.118,7.594-7.949,15.346-11.342,23.294c-1.375,3.221-3.017,6.324-4.473,9.51c-2.079,4.547-3.954,9.197-5.221,14.042 c-0.94,3.604-1.731,8.472,0.835,11.622c5.673,6.959,12.776-5.565,15.22-9.533c4.912-7.973,9.177-16.347,13.318-24.739 c5.152-10.437,10.733-20.674,16.879-30.562c3.129-5.031,10.405-15.207,10.405-15.207s15.098-1.088,27.319-4.098 c4.856-1.196,9.609-3.247,14.148-5.288c3.164-1.424,6.317-2.989,9.218-4.912c-0.881,5.405-0.243,10.973,3.951,14.315 c-4.528,7.893-8.973,16.568-5.204,25.291c0.941,2.18,2.546,4.11,4.184,5.829c-0.67,1.39-1.297,2.803-1.881,4.228 c-1.493,3.66-2.759,7.623-2.945,11.597c-0.129,2.749,0.288,5.686,2.159,7.836c1.324,1.522,3.127,2.335,5.04,2.567 c-1.126,3.695-1.909,7.375-2.273,11.234c-0.405,4.297-0.526,8.695,0.603,12.891c0.512,1.898,1.507,3.7,3.023,4.981 c1.015,0.86,2.138,1.215,3.296,1.183c-0.395,1.044-0.8,2.086-1.152,3.133c-1.018,3.015-1.941,6.088-2.545,9.215 c-0.819,4.263-0.698,9.953,4.047,11.867c3.677,1.483,7.029-1.141,9.373-3.709c2.911-3.186,4.985-7.24,6.943-11.051 c3.792-7.369,6.767-15.091,10.028-22.699c0.182-0.423,0.366-0.845,0.563-1.263c0.047-0.1,0.096-0.194,0.145-0.291 c0.253-0.39,0.511-0.776,0.769-1.16c2.204-3.295,4.628-6.442,7.141-9.507c5.051-6.156,10.551-11.925,15.906-17.814 c10.644-11.707,20.256-21.959,26.396-42.46C293.468,181.19,292.283,165.907,286.98,149.769z M109.939,29.757 c1.346-0.657,2.744-1.2,4.167-1.669c1.407-0.461,2.209-0.633,3.915-0.916c1.638-0.273,3.301-0.396,4.962-0.435 c2.511-0.062,6.168,0.419,9.133,1.078c3.103,0.691,6.033,1.7,9.155,2.949c3.196,1.28,6.304,2.786,9.344,4.398 c4.418,2.347,8.613,4.971,12.78,7.743c4.537,3.02,8.939,6.257,13.737,8.865c3.959,2.152,8.434,3.794,12.979,3.898 c4.075,0.095,8.117-0.72,11.915-2.177c-0.089,0.342-0.181,0.681-0.27,1.023c-0.571,2.154-1.087,4.329-1.827,6.426 c-14.843-1.067-29.694-2.221-43.511-8.218c-5.057-2.197-9.242-5.058-13.844-8.118c-4.945-3.289-9.945-6.542-15.221-9.282 c-5.215-2.706-10.959-4.852-16.899-4.99c-0.573-0.013-1.141,0.002-1.708,0.032C109.139,30.155,109.538,29.951,109.939,29.757z M81.428,63.733c0.181-0.681,1.745-4.392,2.841-5.858c2.219-2.976,4.315-6.045,6.456-9.073c3.121-4.411,6.383-8.774,10.202-12.609 c0.088-0.086,0.392-0.383,0.45-0.438c0.011-0.009,0.023-0.02,0.032-0.028c2.949-1.059,6.05-1.509,9.365-1.165 c5.295,0.553,10.295,2.937,14.886,5.504c9.925,5.546,18.513,13.354,28.948,18.009c13.354,5.957,27.771,7.49,42.171,8.618 c-0.635,0.771-1.324,1.479-2.031,2.083c-4.403,3.751-10.166,5.608-15.517,7.987c-2.523,1.123-5.002,2.348-7.383,3.727 c-3.918,2.269-6.119,2.86-10.174,2.112c0.1,0.009-0.321-0.112-0.4-0.143c-0.076-0.034-0.129-0.054-0.163-0.064 c-0.016-0.01-0.03-0.02-0.051-0.033c-0.156-0.096-0.302-0.213-0.441-0.334c0.18,0.145-0.206-0.245-0.238-0.287 c-0.136-0.182-0.197-0.413-0.252-0.758c-0.097-0.597-0.019-1.232,0.045-1.826c0.06-0.562,0.934-2.885,1.582-3.675 c1.224-1.491,2.434-2.991,3.778-4.36c2.302-2.348-1.479-6.119-3.97-4.08c-2.247,1.836-4.2,4.031-6.173,6.15 c-2.661,2.857-4.465,4.964-7.349,7.255c-0.632,0.5-1.278,0.981-1.948,1.428c-0.238,0.161-0.485,0.311-0.734,0.458 c0.339-0.208-0.566,0.274-0.715,0.341c-0.274,0.123-0.555,0.228-0.835,0.327c-0.021,0.007-0.04,0.012-0.061,0.019 c0.017-0.013-0.315,0.074-0.424,0.094c-0.263,0.046-0.531,0.059-0.798,0.084c-0.005-0.001-0.008,0.001-0.01,0.001 c-0.125-0.01-0.252-0.026-0.377-0.044c-0.052-0.007-0.097-0.014-0.134-0.019c-0.019-0.008-0.045-0.019-0.084-0.032 c-0.161-0.079-0.214-0.096-0.164-0.059c-0.231-0.157-0.44-0.344-0.644-0.53c-0.231-0.21-0.538-1.01-0.641-1.46 c-0.399-1.77,0.019-3.67,0.338-5.422c0.055-0.294,1.757-2.01,2.622-2.67c2.681-2.038,5.171-4.319,7.385-6.725 c2.025-2.2-1.391-5.704-3.645-3.744c-1.965,1.712-4.058,3.304-6.112,4.907c-2.889,2.252-5.781,4.452-8.965,6.281 c-0.075,0.045-0.127,0.076-0.16,0.094c-0.157,0.089-0.317,0.175-0.476,0.262c-0.401,0.217-0.81,0.422-1.219,0.619 c-0.705,0.343-1.43,0.645-2.167,0.907c-0.086,0.031-0.173,0.059-0.258,0.087c-0.379,0.045-0.716,0.154-1.029,0.304 c-0.089,0.023-0.25,0.066-0.302,0.076c-0.34,0.073-0.681,0.118-1.026,0.153c-0.064,0.004-0.128,0.007-0.192,0.011 c-0.048-0.002-0.248-0.002-0.323-0.008c-0.243-0.019-0.482-0.066-0.718-0.12c-0.015-0.005-0.027-0.009-0.046-0.017 c-0.138-0.048-0.273-0.11-0.406-0.172c-0.038-0.018-0.064-0.032-0.085-0.045c-0.076-0.051-0.15-0.105-0.22-0.161 c-0.098-0.075-0.188-0.159-0.277-0.242c0.175,0.159-0.129-0.163-0.163-0.206c-0.443-0.555-0.642-0.918-0.889-1.602 c-0.322-0.89,0.011-3.646,0.369-4.092c1.455-1.797,2.812-3.667,4.104-5.492c2.12-2.99-2.243-6.5-4.471-3.551 c-1.531,2.027-3.084,4.044-4.74,5.969c-1.001,1.168-2.059,2.276-3.14,3.369c-0.622,0.631-0.596,0.607-1.34,1.274 c-0.625,0.562-1.281,1.087-1.955,1.586c-0.286,0.213-0.584,0.413-0.881,0.612c-0.067,0.044-0.621,0.375-0.633,0.389 c-0.527,0.285-1.076,0.526-1.638,0.734c-0.257,0.093-0.521,0.171-0.783,0.248c0.422-0.13-0.394,0.058-0.515,0.076 c-0.098,0.014-0.607,0.027-0.629,0.039c-0.228-0.017-0.451-0.054-0.676-0.096c0.277,0.047-0.431-0.143-0.548-0.19 c-0.079-0.032-0.639-0.352-0.578-0.3c-0.657-0.441-1.23-1.007-1.731-1.616c-1.226-1.496-1.285-3.484-0.741-5.269 c0.126-0.418,1.463-2.901,2.256-3.82c2.378-2.753,4.623-5.644,7.036-8.306c1.95-2.152-1.41-5.641-3.559-3.656 c-5.021,4.632-8.906,10.596-14.001,14.806c-1.374,1.135-2.59,1.965-3.939,2.591c-0.296,0.138-0.601,0.254-0.905,0.373 c-0.121,0.049-0.809,0.255-0.83,0.274c-0.333,0.077-0.675,0.127-1.015,0.164c-0.079,0.006-0.161,0.01-0.243,0.016 c0.042-0.009-0.383-0.001-0.443-0.005c-0.298-0.022-0.593-0.074-0.886-0.134c-0.032-0.01-0.061-0.016-0.086-0.022 c-0.211-0.068-0.414-0.15-0.618-0.235c-0.832-0.349-1.588-0.878-2.273-1.458C80.819,66.81,81.033,65.218,81.428,63.733z M60.273,88.527c-2.444,1.212-4.949,2.3-7.505,3.25c-1.183,0.439-2.383,0.836-3.591,1.203c-1.235,0.374-1.973,0.557-3.408,0.862 c-2.273,0.476-4.588,0.749-6.911,0.773c0.11-0.007-0.531-0.028-0.579-0.029c-0.295-0.014-0.587-0.041-0.88-0.065 c-0.456-0.04-0.908-0.102-1.362-0.169c0.026-0.039,0.055-0.081,0.086-0.125c0.836-1.239,1.932-2.398,2.837-3.222 c2.294-2.078,4.92-3.787,7.58-5.354c0.224-0.133,0.451-0.263,0.677-0.39c-0.022,0.015,0.513-0.289,0.546-0.307 c0.735-0.41,1.47-0.819,2.208-1.226c1.661-0.914,3.333-1.811,5.003-2.713c3.314-1.785,6.62-3.597,9.847-5.539 c4.553-2.741,8.786-5.828,12.54-9.505c-0.072,1.123,0.105,2.248,0.641,3.323c0.953,1.903,2.729,3.454,4.629,4.402 C75.791,79.551,68.144,84.629,60.273,88.527z M77.125,92.012c-1.197,0.516-2.389,1.005-3.633,1.393 c-0.249,0.076-0.497,0.144-0.748,0.215c0.088-0.031-0.766,0.182-0.902,0.213c-0.741,0.163-1.486,0.307-2.238,0.41 c-0.323,0.045-0.647,0.075-0.973,0.102c-0.156,0.011-0.314,0.018-0.472,0.024c-0.035,0-0.061,0.004-0.089,0.005 c-0.033-0.002-0.07-0.005-0.118-0.007c-0.287-0.011-0.571-0.049-0.856-0.077c-0.135-0.014-0.267-0.143-0.4-0.167 C66.652,94.118,66.62,94,66.593,94c0,0,0,0-0.002,0c-0.065,0-0.215,0.003-0.326-0.056c0.029-0.011-0.158-0.168-0.091-0.001 c-0.004-0.006-0.011,0.018-0.016,0.012c-0.12-0.205-0.018,0.031-0.066-0.236c-0.069-0.372-0.072-0.728-0.153-1.102 c8.241-4.375,16.028-9.845,22.892-16.094c0.731-0.666,4.098-3.583,5.391-4.364c1.252-0.759,2.425-1.607,3.537-2.526 c-0.232,0.915-0.295,1.887-0.146,2.94c0.223,1.596,1.118,3.158,2.26,4.414c-1.33,0.933-2.562,2.037-3.817,3.034 c-1.99,1.579-4.007,3.121-6.069,4.606C85.935,87.538,81.706,90.032,77.125,92.012z M102.498,94.224 c-0.411,0.248-0.825,0.491-1.242,0.73c-0.044,0.027-0.083,0.046-0.111,0.065c-0.011,0.006-0.017,0.01-0.028,0.016 c-0.206,0.113-0.41,0.228-0.616,0.34c-0.864,0.475-1.739,0.928-2.623,1.362c-1.543,0.758-3.105,1.471-4.727,2.04 c-0.347,0.12-0.7,0.232-1.055,0.339c-0.072,0.023-0.143,0.04-0.214,0.061c-0.082,0.024-0.185,0.05-0.242,0.062 c-0.627,0.149-1.265,0.253-1.906,0.316c-0.293,0.029-0.586,0.056-0.879,0.067c-0.018,0.002-0.028,0.004-0.044,0.004 c-0.045-0.004-0.1-0.009-0.175-0.015c-0.261-0.019-0.519-0.059-0.775-0.108c-0.01-0.004-0.022-0.006-0.032-0.007 c-0.072-0.028-0.147-0.056-0.219-0.084c-0.194-0.076-0.383-0.156-0.571-0.246c-0.074-0.051-0.147-0.105-0.218-0.16 c-0.059-0.046-0.1-0.078-0.135-0.103c-0.015-0.017-0.03-0.037-0.052-0.061c-0.148-0.171-0.276-0.359-0.398-0.549 c0.034,0.03-0.243-0.496-0.298-0.628c-0.122-0.296-0.251-0.588-0.365-0.886c-0.212-0.555-0.386-1.132-0.532-1.708 c2.405-1.261,4.73-2.683,6.988-4.171c2.364-1.556,4.651-3.232,6.908-4.94c2.316-1.753,10.925-6.217,12.789-7.135 c2.756-1.358,5.176-3.271,7.362-5.463c0.06,1.126,0.32,2.286,0.579,3.172c0.393,1.351,1.393,2.455,2.56,3.217 c-0.26,0.224-0.52,0.448-0.783,0.672c-2.821,2.393-5.728,4.685-8.699,6.89C109.436,89.768,106.031,92.1,102.498,94.224z M121.028,97.997c-0.044,0.024-0.262,0.15-0.373,0.213c-0.157,0.087-0.314,0.173-0.468,0.26c-0.426,0.233-0.856,0.458-1.286,0.681 c-0.895,0.46-1.808,0.875-2.724,1.289c-0.777,0.35-1.572,0.663-2.38,0.938c-0.136,0.047-0.762,0.226-0.869,0.261 c-0.346,0.082-0.696,0.152-1.046,0.208c-0.342,0.055-0.686,0.085-1.032,0.106c-0.038,0.002-0.102,0.003-0.163,0.005 c-0.093-0.006-0.186-0.014-0.281-0.022c-0.303-0.026-0.606-0.066-0.905-0.122c-0.025-0.004-0.062-0.011-0.098-0.022 c-0.13-0.046-0.26-0.098-0.386-0.151c-0.043-0.019-0.083-0.04-0.123-0.061c-0.056-0.036-0.182-0.112-0.237-0.153 c-0.057-0.041-0.11-0.084-0.162-0.127c-0.044-0.044-0.163-0.158-0.208-0.212c-0.538-0.652-0.537-0.733-0.891-1.714 c-0.093-0.254-0.169-0.506-0.244-0.762c2.026-1.211,4.01-2.489,5.963-3.81c3.785-2.565,7.456-5.305,11.016-8.173 c1.386-1.118,2.764-2.247,4.085-3.442c0.492-0.447,0.98-0.902,1.462-1.363c0.55-0.53,2.932-2.514,3.567-2.791 c1.103-0.484,2.196-1.022,3.273-1.601c-1.141,3.249-1.019,6.746,1.406,9.402c-2.398,1.14-4.549,2.871-6.691,4.401 C127.914,93.601,124.549,95.935,121.028,97.997z M148.779,98.362c-2.775,1.54-5.635,2.95-8.61,4.063 c-0.707,0.267-1.428,0.506-2.145,0.748c-0.341,0.114-0.685,0.217-1.031,0.317c-0.153,0.039-0.305,0.076-0.459,0.109 c-0.623,0.142-1.255,0.236-1.892,0.29c-0.1,0.009-0.356,0.01-0.526,0.011c-0.238-0.016-0.475-0.045-0.71-0.086 c-0.03-0.004-0.05-0.007-0.075-0.011c-0.022-0.008-0.043-0.016-0.072-0.028c-0.101-0.037-0.202-0.079-0.299-0.124 c-0.028-0.019-0.085-0.06-0.152-0.105c0.045-0.029-0.361-0.505-0.307-0.318c-0.081-0.176-0.152-0.354-0.215-0.535 c-0.006-0.013-0.009-0.024-0.013-0.035c-0.032-0.149-0.056-0.299-0.08-0.45c-0.133-0.828-0.202-1.676-0.211-2.517 c-0.003-0.403,0.15-1.335,0.407-1.503c2.252-1.465,4.459-3.001,6.654-4.55c0.924-0.649,1.777-1.371,2.656-2.077 c0.858-0.686,6.104-3.608,8.089-4.764c2.338-1.359,4.417-3.205,6.36-5.15c0.072,2.213,1.245,4.314,3.331,5.486 c0.765,0.429,1.583,0.7,2.418,0.832c-1.624,1.608-3.131,3.34-4.519,5.167c-0.54,0.709-2.557,2.177-3.099,2.462 C152.462,96.55,150.577,97.364,148.779,98.362z M203.266,174.122c-0.352,0.763-1.02,2.437-1.02,2.437s-4.659,3-8.523,4.854 c-2.332,1.117-9.704,4.445-12.156,5.271c-5.249,1.768-12.455,3.016-15.034,3.431c-5.435,0.877-10.932,0.981-11.952,1.142 c4.007-4.918,8.288-9.607,12.908-13.964c5.479-5.162,11.449-9.853,17.567-14.232c5.59-4.003,11.438-7.682,17.669-10.598 c-1.265,6.694-1.224,13.586,1.085,20.098c0.029,0.08,0.061,0.158,0.096,0.234C203.687,173.234,203.472,173.675,203.266,174.122z M276.807,16.372c-0.618,3.44-1.354,6.858-2.383,10.194c-0.274,0.889-0.576,1.796-0.905,2.702c-0.734-0.523-1.487-1.021-2.251-1.492 c-0.458-0.286-0.935-0.554-1.415-0.815c-1.269-0.944-2.554-1.87-3.858-2.766C269.659,21.683,273.303,19.108,276.807,16.372z M245.894,47.904c1.693-1.794,4.3-1.84,6.581-1.643c2.554,0.22,5.05,0.81,7.622,0.817c2.136,0.003,4.254-0.417,6.222-1.256 c3.768-1.607,6.447-4.717,8.506-8.149c0.151,0.186,0.306,0.378,0.462,0.578c3.16,4.017,4.799,8.535,5.107,13.745 c0.155,2.61-0.191,5.868-0.506,8.748c-0.346,3.172-0.887,6.322-1.566,9.441c-2.844,13.073-8.806,26.462-18.065,36.511 c-2.572-2.245-5.262-4.35-7.775-6.666c-2.231-2.055-4.439-4.377-5.505-7.267c-1.038-2.812-0.132-5.945,0.818-8.641 c1.145-3.246,2.526-6.422,3.019-9.855c0.553-3.875-0.439-7.7-2.535-10.97c-1.576-2.455-3.733-4.606-4.803-7.354 C242.373,53.114,243.944,49.97,245.894,47.904z M215.996,134.114c1.175-2.108,2.443-4.191,3.783-6.24 c0.441,0.98,0.974,1.893,1.555,2.673c1.517,2.049,3.878,3.517,6.388,3.9c-1.271,1.431-2.443,2.944-3.441,4.606 c-0.668,1.114-10.209,15.284-13.377,21.161c-1.154,2.139-2.286,4.292-3.489,6.404C205.647,155.416,210.667,143.675,215.996,134.114z M208.188,175.032c0.979-1.974,1.708-3.054,2.809-4.884c1.642-2.729,3.173-5.519,4.69-8.319c2.317-4.267,4.681-8.518,7.548-12.427 c1.33,3.079,4.392,5.435,7.335,6.927c-1.62,2.243-3.289,5.429-4.357,7.048c-1.065,1.62-4.203,4.424-5.444,6.013 c-1.619,2.073-3.028,4.308-4.383,6.558c-2.967,4.927-5.604,10.033-8.289,15.117c-0.577,1.094-1.205,2.208-1.856,3.344 C202.509,188.642,205.311,180.822,208.188,175.032z M202.644,211.174c1.883-5.538,5.212-10.467,8.055-15.534 c2.669-4.757,5.17-9.604,7.912-14.32c1.353-2.324,2.779-4.607,4.325-6.807c0.614-0.873,1.26-1.724,1.933-2.553 c0.045,0.126,0.088,0.253,0.144,0.378c1.007,2.336,3.121,3.365,5.413,3.609c-1.098,1.924-1.865,4.012-2.089,6.292 c-0.141,1.452-0.133,2.939,0.005,4.421c-6.607,12.815-14.917,24.581-22.25,36.973c-0.571,0.963-1.117,1.944-1.638,2.937 C201.284,221.963,200.811,216.559,202.644,211.174z M206.909,251.38c-0.105-0.03-0.204-0.062-0.293-0.093 c-0.375-0.124-0.734-0.29-1.083-0.471c-0.024-0.011-0.04-0.018-0.057-0.028c-0.023-0.016-0.053-0.035-0.097-0.065 c-0.192-0.129-0.371-0.279-0.553-0.424c-0.135-0.105-0.264-0.213-0.392-0.325c-0.011-0.009-0.018-0.015-0.027-0.024 c-0.011-0.014-0.022-0.026-0.037-0.041c-0.181-0.206-0.336-0.433-0.485-0.667c0.092,0.12-0.247-0.545-0.302-0.689 c-0.035-0.091-0.062-0.184-0.093-0.274c0.032,0.078-0.098-0.399-0.116-0.498c-0.125-0.667-0.174-1.356-0.188-2.037 c0.004-0.045,0.007-0.351,0.008-0.41c0.01-0.209,0.026-0.414,0.043-0.622c0.039-0.504,0.105-1.004,0.181-1.5 c0.137-0.903,0.335-1.795,0.555-2.679c0.184-0.739,0.42-1.506,0.782-2.583c1.219-3.603,2.768-7.087,4.545-10.446 c0.33-0.625,0.672-1.242,1.023-1.856c0.129-0.227,0.262-0.452,0.393-0.676c0.01-0.014,0.02-0.03,0.026-0.042 c0.271-0.443,0.537-0.889,0.809-1.334c2.073-3.427,4.188-6.826,6.297-10.231c4.128-6.673,8.243-13.37,11.992-20.264 c0.247,0.649,0.519,1.286,0.821,1.904c1.155,2.37,2.872,4.613,5.146,5.751c-0.367,0.353-0.734,0.706-1.095,1.063 c-2.158,2.14-4.496,4.435-6.116,7.028c-1.298,2.081-2.019,4.469-2.293,6.919c-1.157,1.29-1.938,2.942-2.826,4.423 c-0.935,1.562-1.885,3.117-2.829,4.676c-1.896,3.128-3.786,6.263-5.61,9.432C211.882,239.771,209.058,245.438,206.909,251.38z M211.518,281.904c-0.182-0.112-0.346-0.26-0.775-0.481c-0.019-0.01-0.031-0.017-0.047-0.025c-0.007-0.006-0.014-0.01-0.023-0.016 c-0.071-0.051-0.142-0.106-0.208-0.161c-0.056-0.054-0.157-0.147-0.195-0.195c-0.119-0.141-0.221-0.298-0.323-0.452 c0.207,0.306-0.232-0.489-0.301-0.661c-0.073-0.18-0.381-1.276-0.225-0.643c-0.027-0.111-0.097-0.389-0.15-0.597 c0,0.002,0.001,0.004,0.001,0.005c-0.105-0.414-0.067-0.264-0.001-0.005c-0.052-0.201-0.093-0.405-0.137-0.608 c-0.105-0.504-0.177-1.016-0.241-1.527c-0.117-0.942-0.161-1.893-0.208-2.841c-0.026-0.493-0.037-0.986-0.042-1.479 c-0.001-0.043-0.001-0.314-0.001-0.439c0.006-0.27,0.011-0.541,0.019-0.811c0.058-1.971,0.238-3.938,0.486-5.892 c1.487-11.8,6.84-22.738,12.768-32.91c1.379-2.363,2.791-4.709,4.196-7.058c0.26-0.434,0.517-0.869,0.774-1.304 c0.961,3.673,2.972,7.09,6.487,8.819c0.531,0.261,1.055,0.475,1.584,0.642c-6.021,6.542-10.156,14.4-13.768,22.459 c-1.901,4.243-3.83,8.436-5.42,12.812c-1.598,4.393-2.968,8.863-4.246,13.357C211.521,281.896,211.521,281.899,211.518,281.904z M242.456,253.103c-2.579,3.013-5.055,6.115-7.38,9.331c-1.37,1.893-2.868,3.826-3.849,5.96c-1.304,2.83-2.411,5.757-3.612,8.632 c-1.797,4.298-3.659,8.572-5.702,12.759c-1.021,2.095-2.097,4.164-3.251,6.19c-0.084,0.145-0.478,0.806-0.586,0.996 c-0.225,0.366-0.452,0.731-0.685,1.091c-0.541,0.843-1.123,1.654-1.715,2.462c-0.478,0.652-0.979,1.282-1.521,1.882 c-0.094,0.106-0.192,0.206-0.29,0.306c-0.265,0.243-0.545,0.465-0.835,0.679c-0.071,0.053-0.146,0.101-0.219,0.151 c-0.019,0.007-0.037,0.012-0.056,0.02c-0.03-0.037-0.062-0.082-0.107-0.139c-0.037-0.046-0.087-0.121-0.133-0.189 c-0.029-0.095-0.103-0.326-0.12-0.423c-0.061-0.338-0.082-0.686-0.101-1.031c-0.003-0.071-0.007-0.125-0.009-0.169 c0.001-0.043,0.004-0.096,0.005-0.159c0.011-0.308,0.037-0.616,0.063-0.921c0.054-0.664,0.153-1.322,0.259-1.976 c0.25-1.554,0.621-3.09,1.02-4.609c0.797-3.024,1.978-6.308,3.013-9.425c0.869-2.608,1.455-5.326,2.236-7.962 c0.899-3.03,1.881-6.043,2.967-9.011c4.025-10.994,8.71-22.149,16.626-30.943c0.372,2.134,1.114,4.202,2.243,6.092 c1.448,2.425,3.963,4.15,6.695,4.791C245.737,249.343,244.077,251.21,242.456,253.103z M273.08,216.572 c-6.377,10.189-14.664,18.914-22.776,27.748c-0.872-0.162-1.721-0.423-2.491-0.766c-1.594-0.712-2.707-2.133-3.443-3.526 c-1.884-3.567-1.827-8.134-0.57-11.794c2.028-5.913,5.886-11.314,9.672-16.213c4.154-5.379,8.79-10.369,13.538-15.222 c0.947-0.97,0.574-2.709-0.402-3.484c-1.136-0.902-2.543-0.566-3.482,0.403c-5.038,5.194-9.921,10.55-14.28,16.336 c-2.224,2.952-4.261,6.04-6.098,9.248c-1.581,2.763-3.043,5.674-3.869,8.76c-0.319,1.184-0.524,2.391-0.621,3.607 c-1.451-0.362-2.891-0.947-3.856-2.109c-1.119-1.343-2.008-3.318-2.396-4.811c-0.262-1.006-0.588-2.015-0.728-3.044 c-0.174-1.294-0.279-2.335-0.279-3.314c0-0.024,0-0.052,0-0.091c0,0.03,0,0.061,0,0.091c0,0.293,0.129-0.427,0.131-0.443 c0.008-0.255,0.085-0.51,0.106-0.763c0.039-0.501,0.132-0.996,0.21-1.492c0.076-0.478,0.19-0.951,0.305-1.421 c0.009-0.042,0.025-0.076,0.032-0.105c0.01-0.037,0.027-0.075,0.045-0.133c0.087-0.287,0.194-0.568,0.3-0.85 c0.154-0.401,0.339-0.791,0.538-1.173c0.022-0.045,0.039-0.078,0.054-0.106c0.006-0.009,0.01-0.014,0.017-0.026 c0.105-0.167,0.224-0.325,0.34-0.484c1.047-1.407,2.246-2.716,3.442-3.998c2.27-2.429,4.741-4.659,7.221-6.87 c5.143-4.581,10.421-9.08,14.708-14.505c0.668-0.847,1.298-1.723,1.904-2.615c0.821-1.208,0.771-2.81-0.433-3.768 c-1.081-0.859-2.946-0.775-3.77,0.433c-3.789,5.57-8.774,10.093-13.75,14.571c-1.248,1.125-2.494,2.252-3.728,3.391 c-2.069-1.134-3.182-3.635-3.898-5.879c-0.981-3.073-1.226-6.773-0.821-9.838c0.051-0.373,0.121-0.743,0.199-1.112 c0.007-0.032,0.017-0.064,0.024-0.095c0.021-0.078,0.08-0.295,0.107-0.375c0.259-0.769,0.669-1.491,1.104-2.174 c1.32-2.075,3.009-3.948,4.781-5.649c1.921-1.845,3.968-3.558,5.976-5.306c0.984-0.853,1.954-1.721,2.907-2.609 c1.061-0.989,2.291-2.005,3.094-3.229c0.705-1.065,0.855-2.352,0.048-3.428c-0.892-1.189-2.743-1.527-3.932-0.561 c-1.061,0.862-1.949,1.937-2.945,2.877c-1.046,0.989-2.127,1.94-3.208,2.888c-2.286,2.008-4.565,4.012-6.717,6.164 c-0.78,0.778-1.54,1.587-2.256,2.431c-0.218-0.039-0.437-0.083-0.653-0.131c-0.039-0.008-0.335-0.086-0.384-0.095 c-0.109-0.033-0.216-0.069-0.325-0.102c-0.311-0.098-0.616-0.192-0.918-0.316c-0.136-0.057-0.269-0.122-0.401-0.189 c0,0-0.003,0-0.002-0.003c-0.019-0.01-0.032-0.022-0.055-0.038c-0.092-0.064-0.179-0.134-0.262-0.207 c-0.043-0.052-0.086-0.106-0.126-0.163c-0.033-0.088-0.006-0.192-0.033-0.272c-0.025-0.181,0.023-0.36,0.023-0.54 c0-0.013,0-0.02,0-0.033c0-0.043-0.053-0.09-0.049-0.153c0.027-0.28,0.046-0.559,0.103-0.835c0.02-0.083,0.026-0.166,0.045-0.25 c0.009-0.027,0.007-0.049,0.014-0.068c0.116-0.371,0.262-0.727,0.4-1.091c0.258-0.688,0.566-1.354,0.896-2.011 c0.177-0.355,0.366-0.703,0.557-1.051c0.099-0.178,0.2-0.357,0.304-0.534c0.048-0.084,0.081-0.146,0.108-0.187 c0.011-0.021,0.027-0.047,0.05-0.084c3.749-6.144,8.704-11.58,13.624-16.799c0.869-0.923,1.786-1.803,2.565-2.805 c1.94-2.496-1.466-6.26-3.95-4.057c-1.788,1.585-3.38,3.401-4.991,5.166c-2.431,2.667-4.785,5.413-7.009,8.259 c-1.28-1.133-2.535-2.255-3.556-3.643c-0.802-1.093-1.302-2.277-1.439-3.288c-0.029-0.202-0.038-0.408-0.047-0.615 c0.021,0.383,0.045-0.455,0.058-0.567c0.04-0.316,0.112-0.625,0.186-0.932c0.021-0.076,0.036-0.129,0.047-0.168 c0.031-0.094,0.06-0.192,0.094-0.286c0.526-1.555,0.929-2.088,1.808-3.288c3.907-5.338,9.257-9.023,13.697-14.029 c2.465-2.778-2.053-6.323-4.497-3.569c-2.411,2.718-4.827,4.837-7.5,7.4c-0.114,0.108-0.226,0.216-0.338,0.324 c-0.084-0.03-0.167-0.057-0.254-0.082c-1.056-0.29-2.088-0.427-3.018-1.052c-1.022-0.688-1.692-1.359-2.353-2.376 c-0.509-0.785-0.796-1.916-0.962-2.852c-0.234-1.324,0.006-2.085-0.083-3.38c3.151-4.178,6.563-8.173,10.083-11.918 c0.493-0.523,0.995-1.039,1.507-1.552c8.232,5.654,12.859,14.56,16.113,23.885c1.796,5.141,3.283,10.382,5.089,15.521 c1.898,5.401,4.244,10.592,7.1,15.555c3.639,6.326,8.195,12.074,11.919,18.352c1.657,2.794,3.227,6.072,4.325,9.314 c0.62,1.832,1.03,3.779,1.326,5.766C280.035,203.292,277.047,210.231,273.08,216.572z M284.263,183.488 c-2.586-5.482-6.139-10.635-9.398-15.417c-3.283-4.808-6.344-9.572-8.89-14.751c-2.391-4.861-4.143-10.008-5.891-15.126 c-2.348-6.882-4.896-13.768-8.638-20.033c-3.183-5.329-7.588-9.716-12.893-12.81c1.023-0.914,2.087-1.798,3.211-2.644 c1.102-0.829,2.29-1.569,3.378-2.108c0.022-0.012,0.044-0.022,0.068-0.031c1.681,2.06,3.677,3.931,5.656,5.676 c1.781,1.57,4.516,3.808,5.4,4.644c0.882,0.836,3.069,2.864,3.864,3.755c0.797,0.895,4.287,5.164,6.136,7.816 c4.874,6.982,8.671,14.702,11.988,22.526c3.283,7.753,5.28,15.997,6.053,24.378C284.74,174.059,284.716,178.793,284.263,183.488z M249.165,55.536c-0.136-1.32,0.523-2.797,1.58-3.701c0.744-0.9,1.738-1.595,2.952-1.677c1.293-0.089,2.761,0.511,3.431,1.678 c1.352,2.355,1.066,5.28-1.465,6.695C253.343,59.828,249.458,58.331,249.165,55.536z"/>
</svg>