<svg xmlns="http://www.w3.org/2000/svg" viewBox="0 0 320 320">
    <path d="M204.197,86.558c-1.749-0.211-3.398-0.495-4.871-1.518c-1.703-1.182-3.737,1.489-2.205,2.858
        c0.488,0.436,1.012,0.818,1.561,1.156c-0.33,1.052,0.217,2.419,1.651,2.419c0.819,0,1.344-0.45,1.587-1.029
        c0.558,0.152,1.127,0.271,1.703,0.354C206.732,91.248,207.309,86.934,204.197,86.558z"/>
    <path d="M170.705,77.21c-0.337,0.85-0.297,1.836,0.181,2.651c0.269,0.455,0.631,0.817,1.086,1.086
        c0.767,0.449,1.488,0.43,2.333,0.305c0.039-0.004,0.077-0.011,0.115-0.022c0.645-0.149,1.25-0.613,1.629-1.193
        c1.085,0.425,2.21,0.734,3.412,0.879c2.485,0.298,2.966-3.769,0.585-4.321c-2.051-0.475-3.975-1.194-5.872-2.101
        c-1.482-0.709-3.035-1.806-4.713-1.876c-1.489-0.062-2.052,1.779-1.148,2.773C168.948,76.091,169.807,76.677,170.705,77.21z"/>
    <path d="M181.6,96.623c-0.407-0.05-0.814-0.19-1.195-0.293c-1.408-0.38-6.197-2.096-6.157-3.93
        c0.044-2.022-2.495-2.392-3.525-0.955c-3.92,5.47,9.165,12.989,13.556,10.186c2.854-1.822,3.958-5.791,5.03-8.794
        c1.374-3.853,2.926-8.034,3.519-12.095c0.399-2.733-3.477-5.043-4.885-2.059c-2.224,4.714-3.047,10.127-4.923,15.007
        C182.629,94.707,182.151,95.686,181.6,96.623z"/>
    <path d="M170.069,36.811c0.033,0.007,0.066,0.014,0.099,0.022c1.493,0.326,2.854-0.431,3.329-1.89
        c0.09-0.277,0.142-0.573,0.108-0.863c-0.113-0.844-0.123-0.921-0.033-0.232c-0.024-0.268-0.062-0.534-0.114-0.797
        c-0.414-2.182-3.582-2.356-4.581-0.644c-0.473,0.489-0.763,1.111-0.763,1.837C168.115,35.38,168.921,36.561,170.069,36.811z"/>
    <path d="M175,42.538c3,0,3-4.482,0-4.482C173,38.056,173,42.538,175,42.538z"/>
    <path d="M172.078,67.416c2.68,2.163,5.344,4.706,8.435,6.261c2.395,1.205,4.4-2.167,2.106-3.604
        c-2.826-1.769-5.435-3.855-8.261-5.612C172.571,63.351,170.397,66.059,172.078,67.416z"/>
    <path d="M171,49.544c3,0,3-4.811,0-4.811C167,44.733,167,49.544,171,49.544z"/>
    <path d="M157.139,108.899c-0.185,1.047,0.267,2.101,1.364,2.403c1.071,0.295,2.062-0.357,2.402-1.364
        c0.072-0.214,0.149-0.426,0.226-0.638c0.007-0.015,0.011-0.022,0.021-0.041c0.01-0.018,0.011-0.024,0.017-0.038
        c0.716-0.798,0.752-2.019-0.028-2.799c-0.744-0.744-2.101-0.81-2.835,0C157.668,107.128,157.304,107.966,157.139,108.899z"/>
    <path d="M154.03,62.833c1.64,1.543,3.879-0.766,2.442-2.442c-1.471-1.717-0.972-2.251,0.405-3.617
        c1.395-1.384,2.57-3.333,1.371-5.245c-1.124-1.793-4.345-1.204-4.195,1.136c0.015,0.23-0.02,0.416-0.03,0.483
        c-0.076,0.125-0.128,0.149-0.357,0.414c-0.643,0.742-1.305,1.474-1.739,2.363C150.632,58.576,152.071,60.99,154.03,62.833z"/>
    <path d="M162.409,96.059c1.237,0.038,2.459,0.229,3.684,0.392c0.872,0.116,1.729-0.701,1.943-1.479
        c0.265-0.963-0.32-2.313-1.407-2.478c-1.402-0.213-2.799-0.395-4.22-0.382C159.858,92.135,159.87,95.981,162.409,96.059z"/>
    <path d="M165,45.128c3,0,3-4.4,0-4.4C163,40.728,163,45.128,165,45.128z"/>
    <path d="M177.728,111.977c-0.978,0.573-1.167,1.704-0.711,2.617c0.211,0.877,0.904,1.556,1.882,1.556
        c1.086,0,1.908-0.885,1.943-1.943c0.018-0.536-0.108-1.077-0.414-1.522C179.82,111.801,178.708,111.403,177.728,111.977z"/>
    <path d="M200.715,83.708c1.923,0.372,3.893,0.757,5.85,0.876c3.139,0.191,3.17-4.984,0-4.893c-1.623,0.047-3.264-0.133-4.878-0.284
        c-1.18-0.11-3.029-0.6-4.302-0.138c-0.582,0.048-1.124,0.39-1.314,1.127c-0.126,0.491-0.019,0.927,0.22,1.297
        C196.89,83.182,199.38,83.45,200.715,83.708z"/>
    <path d="M207.567,253.669c-8.356-1.766-17.061-1.66-25.522-2.789c-4.025-0.537-8.042-1.073-12.11-0.942
        c-3.766,0.121-7.344,0.691-11.033-0.377c-2.151-0.622-3.024,2.2-1.426,3.382c4.709,3.483,13.245,2.241,18.787,2.856
        c9.874,1.095,20.037,1.671,29.829,3.223C209.551,259.57,211.119,254.419,207.567,253.669z"/>
    <path d="M249,248.909c-2,0-2,4.872,0,4.872C253,253.781,253,248.909,249,248.909z"/>
    <path d="M271.922,250.067c-0.396-1.204-1.421-2.075-2.726-2.075c-1.305,0-2.33,0.872-2.726,2.075
        c-0.026,0.08-0.053,0.161-0.079,0.241c-0.596,1.813,0.984,3.682,2.805,3.682c1.821,0,3.401-1.87,2.805-3.682
        C271.975,250.228,271.948,250.148,271.922,250.067z"/>
    <path d="M286.829,239.33c-0.638-1.284-1.437-2.202-2.35-2.851c5.427-5.949,3.455-17.576-5.394-18.06
        c0.582-2.655,0.848-5.409,1.008-7.936c0.764-12.11-1.479-24.475-5.174-35.964c-3.909-12.154-10.802-22.333-17.311-33.174
        c-6.734-11.215-17.521-24.949-16.777-38.681c0.921-0.625,1.81-1.327,2.662-2.134c5.536-5.248,0.163-9.655-5.145-10.94
        c0.404-2.748,0.549-5.527,1.009-8.277c0.685-4.094,2.717-7.806,4.24-11.631c1.918-4.816,1.341-8.028-0.748-12.504
        c-1.325-2.839-5.801-9.013-9.5-9.469c1.86-7.522-0.414-16.478-5.538-22.065c-2.978-3.248-7.275-5.298-11.112-7.303
        c-4.558-2.382-8.881-4.99-13.732-6.761c-8.214-2.998-16.031-1.316-23.899,1.584c-4.582,1.689-12.713,4.227-13.254,10.027
        c-0.084,0.896,0.346,1.599,0.987,2.038c-5.116,4.837-8.188,11.848-12.566,17.472c-0.013,0.017-0.021,0.035-0.033,0.052
        c-1.566-0.146-3.061,0.132-4.236,1.042c-3.367,2.608-3.55,8.442-4.031,12.336c-0.221,1.787-0.479,3.762-0.603,5.761
        c-0.724,3.039-0.694,6.155,1.593,8.422c-5.551,4.918-10.496,10.261-14.905,16.275c-1.375,1.875-2.864,3.648-4.411,5.369
        c-3.912,2.434-7.331,5.586-10.638,8.831c-0.297,0.262-0.601,0.516-0.895,0.781c-0.308,0.212-0.619,0.42-0.93,0.627
        c-3.149,0.587-6.485,0.465-9.65,0.625c-5.997,0.303-11.941,0.27-17.945,0.28c-9.268,0.015-18.613,1.701-25.902,7.8
        c-13.051,10.921-16.738,28.894-20.998,44.526c-1.744,6.397-4.234,12.534-6.175,18.87c-1.55,5.059-4.196,12.597-0.502,17.279
        c0.784,0.993,2.134,1.547,3.616,1.878c-2.086,5.057-1.834,13.433-1.938,16.496c-0.436,12.743,1.353,24.621,7.455,36.009
        c7.183,13.404,19.009,25.433,31.714,33.646c2.803,1.812,5.761,3.444,8.801,4.917c1.124,6.624,3.086,13.718,8.386,18.112
        c5.306,4.399,12.754,5.214,19.345,5.949c9.649,1.075,18.957,1.999,28.671,0.971c9.401-0.995,18.548-3.811,27.74-5.894
        c10.28-2.33,20.754-2.193,31.174-3.409c6.923-0.808,14.875-0.156,21.284-3.338c13.658-6.782,5.521-18.904,0.486-28.785
        c1.207-4.091,2.499-8.159,3.587-12.283c8.931,8.646,19.614,8.717,31.892,8.151c9.304-0.429,28.47,3.174,30.627-9.775
        C287.525,249.927,288.85,243.397,286.829,239.33z M87.504,279.265c-12.823-6.134-23.015-15.273-32.036-26.135
        c-8.812-10.61-13.974-22.848-14.422-36.664c-0.142-4.383-0.014-8.76,0.145-13.141c0.055-1.527-0.159-6.687,0.753-9.338
        c0.374,0.028,0.724,0.055,1.04,0.086c4.47,0.438,8.977,0.529,13.454,0.936c6.65,0.604,13.305,1.407,19.901,2.44
        c3.244,0.508,6.396,0.845,9.561,0.521c0.032,0.337,0.073,0.671,0.114,1.005c-0.63,7.164-1.247,14.099-2.961,21.133
        c-4.004-4.562-8.427-8.77-13.179-12.593c-3.174-2.554-7.715,1.949-4.506,4.507c13.153,10.484,22.678,23.194,29.27,38.622
        c2.653,6.209,5.861,12.042,11.361,16.184c2.435,1.833,6.228,4.984,9.494,5.271c-1.087,5.809-0.493,12.417,0.314,17.682
        C107.198,284.911,96.33,283.487,87.504,279.265z M240.732,96.763c-0.384,0.779-1.008,1.421-1.738,1.972
        c-0.046-0.208-0.117-0.415-0.24-0.619c-0.719-1.186-1.359-2.325-1.617-3.593C239.056,94.569,241.642,94.916,240.732,96.763z
         M218.302,61.288c0.914-0.907,2.386-1.609,3.514-1.415c1.908,0.329,2.541,2.485,2.891,4.165c0.575,2.761,4.933,1.597,4.242-1.17
        c-0.656-2.626-2.023-5.144-4.404-6.398c0.464-0.267,0.818-0.748,0.872-1.438c0.178-2.273,2.188-1.493,2.958,0.042
        c1.254,2.501,4.996,0.304,3.746-2.189c-0.091-0.181-0.206-0.346-0.315-0.516c0.093-0.078,0.181-0.164,0.256-0.269
        c1.707-2.387,7.324,10.012,7.687,11.616c0.801,3.54-3.452,9.509-4.727,12.885c-1.438,3.811-2.269,9.384-1.746,13.43
        c0.015,0.115,0.045,0.223,0.075,0.331c-0.069,0.114-0.126,0.233-0.177,0.356c-3.295,0.27-6.454,1.363-9.559,2.535
        c-1.887,0.712-3.832,1.281-5.688,2.023c0.05-0.221,0.066-0.457,0.029-0.702c-0.388-2.585-0.77-5.134-0.852-7.752
        c-0.103-3.273,2.238-6.286,3.895-8.918c2.109-3.35,3.441-6.701,2.721-10.646c-0.433-2.371-4.464-2.437-4.837,0
        c-0.15,0.98-0.397,1.875-0.679,2.739C216.075,67.41,215.574,63.995,218.302,61.288z M212.295,104.838
        c0.927,1.507,2.525,2.344,4.243,2.803c0,0.008-0.002,0.015-0.002,0.023c-0.002,2.258,0.076,4.505,0.204,6.745
        c-6.171-1.419-12.511-1.986-18.843-2.217c3.985-3.795,7.978-7.61,11.359-11.953c1.315-1.689,3.014-4.007,4.447-6.495
        c0.337,0.718,0.707,1.435,1.115,2.156c0.152,0.268,0.335,0.46,0.532,0.6c-0.781,0.444-1.533,0.948-2.234,1.555
        C211.095,99.809,210.974,102.689,212.295,104.838z M216.3,101.237c1.165-1.39,3.798-2.187,5.414-3.011
        c3.141-1.602,7.239-3.132,11.027-3.772c0.057,2.261,0.987,4.373,2.416,6.235c-0.343,0.126-0.677,0.244-0.992,0.352
        c-3.906,1.336-8.118,1.787-12.171,2.475C221.299,103.635,214.106,103.854,216.3,101.237z M149.487,57.726
        c0.228-2.455,0.574-4.909,1.077-7.323c0.25-1.202,0.643-3.296,1.856-3.796c2.264-0.933,7.41,1.903,8.197,3.833
        c0.725,1.779,3.467,1.149,2.954-0.814c-0.576-2.202-2.853-4.421-5.515-5.735c5.34-6.169,9.019-15.355,16.844-18.369
        c0.269,0.463,0.408,1.099,0.344,1.968c-0.13,1.772-0.005,3.148,0.661,4.774c1.745,4.257,6.527,5.033,5.059,10.443
        c-1.214,4.475,1.956,8.952,6.562,8.962c1.859,0.004,3.718-0.853,5.427-1.479c3.745-1.37,1.35,3.212,0.605,5.43
        c-0.781,2.323-1.511,5.231-0.18,7.503c1.39,2.372,3.604,2.596,5.935,2.487c1.384,3.559,5.017,5.059,7.908,3.66
        c1.763,3.484,4.663,6.391,7.34,2.33c0.614,0.762,1.309,1.469,2.057,2.103c-1.249,2.398-2.712,4.666-3.764,7.438
        c-0.369,0.97-0.625,1.918-0.785,2.85c-0.146,0.296-0.239,0.641-0.256,1.041c-0.19,4.574-5.346,10.871-8.113,14.19
        c-3.114,3.735-6.878,6.931-10.342,10.331c-7.636,7.496-15.174,11.853-26.21,10.128c-20.534-3.211-17.449-29.913-16.043-45.406
        c0.215-0.333,0.43-0.665,0.62-1.013c0.144-0.263,0.209-0.549,0.214-0.832c2.285,0.006,4.496-1.145,5.784-3.402
        c1.332-2.334-1.78-4.735-3.697-2.853c-1.493,1.466-2.555,1.909-4.284,0.384c-0.514-0.453-0.749-1.112-0.849-1.842
        c0.101,0.031,0.201,0.061,0.302,0.092C149.082,62.45,149.27,60.062,149.487,57.726z M146.303,78.865
        c-1.9,10.404-2.462,20.565,1.935,30.838c3.587,8.383,9.679,13.672,18.787,15.078c2.125,0.328,4.152,0.443,6.101,0.373
        c-2.474,5.715-4.383,11.236-11.998,12.01c-6.196,0.63-12.551-1.021-18.289-3.202c-11.702-4.449-20.946-13.714-24.23-25.761
        C127.866,98.488,137.892,89.352,146.303,78.865z M141.281,294.498c-1.741,0.584-3.947,1.268-6.198,1.638
        c-6.133,2.8-12.863,1.799-14.427-5.826c-1.411-6.877-1.277-14.529,0.807-21.236c2.109-6.788,10.128-7.145,16.072-6.301
        c-0.3,1.326-0.617,2.646-0.933,3.966c-1.634,0.081-3.254,0.181-4.815,0.225c-0.132,0.095-0.287,0.173-0.482,0.219
        c-0.062,0.015-0.115,0.043-0.174,0.062c-0.865,0.06-1.715,0.248-2.532,0.641c-0.034,0.003-0.068,0.006-0.101,0.009
        c-2.177,0.203-2.19,3.206,0,3.392c0.231,0.02,0.464,0.03,0.695,0.047c3.635,0.856,7.339,0.839,11.235,0.8
        c3.005-0.03,6.352,0.722,8.559,2.45c0.092,0.07,0.192,0.122,0.275,0.208c0.024,0.025,0.044,0.05,0.067,0.075
        c0.081,0.071,0.174,0.133,0.251,0.207c-0.016,0.006-0.032,0.012-0.049,0.018C156.233,282.488,149.281,291.815,141.281,294.498z
         M221.32,237.296c-0.166,3.825-0.492,7.595-1.188,11.364c-1.151,6.236-3.134,12.305-4.901,18.394
        c-0.275,0.445-0.432,0.962-0.435,1.515c-0.04,0.142-0.082,0.283-0.122,0.425c-0.928,3.312-1.63,6.663-2.36,10.021
        c-0.916,4.21-4.583,3.318-8.116,3.31c-8.146-0.017-16.294-0.156-24.435,0.163c-7.832,0.307-15.592,0.708-23.327-0.689
        c1.096-4.526-1.857-9.659-5.343-12.425c-2.464-1.955-5.694-2.586-9.145-2.717c2.005-7.537,3.316-15.253,5.319-22.793
        c2.107-7.934,5.052-15.613,7.451-23.457c1.513,0.085,2.999,0.347,4.489,0.589c4.367,1.221,8.611,3.138,12.902,4.459
        c6.671,2.054,13.877,2.711,20.795,3.389c5.54,0.543,11.205,0.701,16.784,1.251c1.606,0.513,3.401,0.574,5.218,0.667
        c0.354,0.056,0.711,0.102,1.064,0.164C220.083,231.651,221.494,233.301,221.32,237.296z M215.055,218.96
        c-4.773-6.787-4.64-16.565-3.865-24.456c0.539-5.494,1.688-10.882,4.217-15.82c1.674-3.268,4.326-5.824,7.023-8.327
        c0.289,7.727,0.689,15.441,2.308,23.026c0.741,3.471,5.778,1.942,5.234-1.443c-1.449-9.008-1.757-18.084-2.213-27.156
        c0.3-0.764,0.219-1.557-0.117-2.23c-0.253-4.692-0.573-9.381-1.14-14.057c-1.64-13.516-4.519-26.849-6.162-40.363
        c4.039,0.055,8.631-1.243,12.544-2.134c1.317-0.3,2.56-0.684,3.752-1.148c-0.693,8.753,3.073,16.645,7.477,24.29
        c5.673,9.849,11.664,19.478,17.475,29.238c9.979,16.759,16.305,40.929,11.731,60.298c-2.686,11.371-19.715,7.938-28.38,7.987
        C234.8,226.723,221.743,228.47,215.055,218.96z M281.641,249.766c-0.164,1.95-0.149,4.081-1.073,5.856
        c-1.061,2.039-6.588,2.295-8.332,2.471c-5.819,0.587-11.793,0.13-17.644,0.447c-10.811,0.586-20.83,0.597-29.22-7.198
        c0.084-0.39,0.173-0.778,0.25-1.169c0.514-2.581,0.77-5.175,0.948-7.782c9.871,2.998,19.632,3.485,29.959,1.688
        c5.875-1.022,11.796-1.711,17.674-2.703c2.35-0.397,7.347-2.291,7.83,1.811C282.285,245.333,281.82,247.628,281.641,249.766z
         M281.352,234.554c-0.185,0.207-0.31,0.423-0.389,0.642c-2.185-0.273-4.616,0.105-6.972,0.499
        c-7.856,1.314-15.811,2.677-23.714,3.622c-8.011,0.957-15.797-0.296-23.374-2.778c0.067-1.695,0.03-3.516-0.564-5.035
        c1.604,0.33,3.248,0.568,4.918,0.715c6.214,0.547,12.501-0.156,18.73,0.055c6.39,0.216,12.652,0.099,18.893-1.42
        c4.225-1.029,6.818-3.75,8.448-7.154c0.097,0.011,0.187,0.031,0.291,0.034c2.542,0.064,4.287,0.754,5.252,3.273
        C283.86,229.595,283.163,232.526,281.352,234.554z"/>
    <path d="M173.589,110.905c-0.985-0.577-2.471-0.281-3.01,0.789c-0.669,1.328-1.079,2.771-0.898,4.268
        c0.148,1.229,0.921,2.272,2.272,2.272c1.593,0,2.428-1.442,2.191-2.876c0.024,0.228,0.024,0.204,0.002-0.073
        c-0.013-0.184,0.002-0.369,0.014-0.553c0.011,0.072,0.091-0.415,0.097-0.435c-0.01,0.038,0.251-0.668,0.123-0.383
        C174.87,112.821,174.704,111.558,173.589,110.905z"/>
    <path d="M187.988,105.363c-0.287-0.46-0.601-0.903-0.91-1.348c-0.626-0.9-1.753-1.311-2.757-0.723
        c-0.986,0.578-1.223,1.779-0.723,2.757c0.452,0.884,0.921,1.771,1.324,2.678c0.378,0.85,1.546,1.198,2.38,0.968
        c1.027-0.282,1.883-1.518,1.472-2.592C188.549,106.518,188.322,105.898,187.988,105.363z"/>
    <path d="M164.007,103.289c3.994,2.263,8.65,5.662,13.233,6.441c2.501,0.425,4.523-3.167,1.861-4.415
        c-2.139-1.003-4.433-1.652-6.606-2.595c-2.321-1.007-4.593-2.167-6.991-2.982C163.39,99.019,162.117,102.218,164.007,103.289z"/>
    <path d="M166.093,108.369c-1.222-0.336-2.266,0.41-2.681,1.522c-0.421,1.129-0.577,2.361-0.584,3.562
        c-0.006,1.177,0.987,2.159,2.159,2.159c1.193,0,2.137-0.982,2.159-2.159c0.004-0.226,0.014-0.45,0.029-0.675
        c0.005-0.072,0.007-0.114,0.008-0.152c0.007-0.037,0.015-0.081,0.027-0.153c0.082-0.488,0.226-0.962,0.404-1.423
        C168.046,109.941,167.151,108.66,166.093,108.369z"/>
</svg>