<svg xmlns="http://www.w3.org/2000/svg" viewBox="0 0 320 320">
    <path d="M82.581,36.736c1.337-2.605,2.759-5.143,4.212-7.651c3.822-2.132,7.729-4.077,11.703-5.864
    c-7.344,14.752-10.671,31.122-16.819,46.994c-6.575,16.972-15.146,32.777-26.373,47.138c-13.547,17.32-28.76,33.935-45.14,49.025
    c-0.14-3.274-0.208-6.554-0.134-9.841c22.545-18.896,44.786-41.668,54.566-68.813C70.682,70.823,74.333,52.807,82.581,36.736z
     M17.222,114.092C33.937,91.848,49.004,68.493,63.79,44.887c-6.294,5.265-12.179,11.126-17.625,17.494
    c-6.483,10.176-13.125,20.24-20.061,30.095C22.539,99.538,19.59,106.765,17.222,114.092z M75.218,121.259
    c21.599-35.025,43.729-71.656,61.275-109.399c-2.54,0.403-5.067,0.864-7.582,1.399C113.032,47.984,91.988,80.67,73.136,113.725
    c-15.165,26.574-40.384,44.42-61.855,65.704c0.464,3.561,1.056,7.104,1.777,10.619c8.278-7.614,16.941-14.868,25.054-22.335
    C53.039,153.973,64.596,138.479,75.218,121.259z M216.827,299.011c3.681-1.506,7.308-3.152,10.873-4.948
    c0.891-5.461,1.691-10.94,2.68-16.386c3.645-20.124,12.289-36.855,23.333-53.909c14.725-22.75,27.246-49.041,34.065-75.383
    c0.489-1.875,1.447-6.609-1.911-3.577c-49.505,44.734-81.482,99.645-99.003,162.951c3.235-0.589,6.447-1.286,9.633-2.086
    c0.104-0.373,0.25-0.733,0.342-1.106c6.178-26.638,15.335-53.793,28.235-77.939c11.08-20.735,29.853-39.411,47.447-55.503
    c-9.066,28.15-26.727,51.64-40.073,77.911C224.165,265.348,220.27,282.015,216.827,299.011z M274.378,215.572
    c-10.549,24.555-22.631,48.671-35.457,72.243c4.926-3.039,9.676-6.404,14.255-10.03c13.443-24.69,26.037-49.942,37.411-75.59
    c6.825-15.393,13.083-31.027,19.414-46.631c-0.214-6.872-0.879-13.71-2.021-20.46C296.123,161.642,285.855,188.872,274.378,215.572z
     M275.22,124.008c-16.636,25.664-36.348,48.179-54.773,72.487c-19.554,25.792-35.012,54.165-45.182,84.899
    c-3.01,9.086-5.372,18.768-7.668,28.605c3.309-0.171,6.618-0.412,9.902-0.8c1.056-4.062,2.112-8.118,3.193-12.15
    c10.445-39.105,24.578-72.255,50.152-103.887c17.429-21.572,33.998-42.764,49.108-66.11c5.726-8.848,11.85-17.396,18.095-25.853
    c-0.836-1.967-1.734-3.916-2.656-5.849C288.425,104.718,281.588,114.186,275.22,124.008z M289.976,235.155
    c5.116-8.869,9.219-18.044,12.357-27.39c-11.783,16.627-21.709,34.194-30.665,52.653
    C278.499,252.796,284.659,244.372,289.976,235.155z M23.516,222.273c7.381-11.765,15.513-25.032,22.008-37.291
    c2.015-3.805,3.559-10.262-2.082-4.828c-8.37,8.057-17.881,16.215-26.495,25.023c0.946,3.011,2.003,5.986,3.138,8.936
    c0.122-0.125,0.244-0.254,0.373-0.379c1.423-1.405,2.869-2.788,4.292-4.19c-1.288,2.144-2.631,4.251-3.944,6.377
    C21.66,218.058,22.563,220.174,23.516,222.273z M87.3,291.342c8.602-16.337,16.459-33.14,26.568-48.542
    c9.805-14.944,23.382-27.228,35.14-40.571c10.574-11.988,19.689-24.821,28.461-38.152c15.702-23.874,30.647-48.631,42.716-74.564
    c8.614-18.505,12.1-38.583,17.002-58.114c-0.715-0.431-1.404-0.889-2.131-1.307c-1.3-0.748-2.613-1.429-3.925-2.135
    c-5.244,19.598-7.985,39.857-15.928,58.633c-11.27,26.632-27.899,51.539-44.138,75.343c-17.881,26.205-43.333,46.066-59.834,73.407
    c-10.421,17.268-18.98,35.578-28.736,53.215c0.849,0.513,1.667,1.051,2.527,1.549C85.774,290.536,86.543,290.921,87.3,291.342z
     M256.246,86.589c-1.947,3.592-4.029,8.216-2.375,9.218c2.216,1.341,7.112-6.337,8.999-9.446c0.427-0.687,0.848-1.375,1.245-2.08
    c3.852-6.459,7.863-12.955,11.85-19.507c-1.984-2.419-4.047-4.786-6.196-7.089C264.86,67.03,260.385,76.644,256.246,86.589z
     M124.423,267.254c20.165-26.391,44.676-49.093,64.419-75.807c10.775-14.568,19.816-30.306,27.661-46.615
    c9.255-19.244,14.206-40.04,22.191-59.776c5.415-13.38,12.759-25.731,19.7-38.314c-1.416-1.225-2.833-2.443-4.298-3.622
    c-6.85,12.684-14.163,25.127-20.048,38.36c-8.84,19.858-13.779,41.161-22.625,60.937c-8.535,19.067-21.746,35.877-35.579,51.362
    c-29.175,32.664-56.446,65.676-77.898,102.968c1.691,0.77,3.394,1.484,5.097,2.187C109.552,287.909,116.744,277.296,124.423,267.254
    z M283.871,81.974c0.653-1.213,1.337-2.403,2.009-3.604c-1.337-2.058-2.723-4.089-4.163-6.087
    c-2.161,3.454-4.298,6.921-6.343,10.457c-9.499,16.425-17.845,33.492-27.228,49.984c-9.615,16.914-21.941,32.059-34.022,47.239
    c-21.032,26.43-40.811,53.496-55.231,84.191c-6.801,14.486-11.044,30.013-16.502,45.036c3.126,0.37,6.251,0.614,9.383,0.785
    c6.544-12.715,10.897-26.449,15.403-39.994c13.113-39.417,38.65-70.059,63.784-102.259C251.9,140.883,267.76,111.85,283.871,81.974z
     M151.248,34.705c5.269-8.234,10.702-16.383,16.135-24.534c-1.984-0.094-3.962-0.156-5.946-0.171
    c-21.959,33.617-44.669,66.703-62.282,103.047c-16.154,33.351-28.705,68.627-47.71,100.543
    c-5.488,9.223-11.642,18.178-18.107,26.895c0.989,1.561,1.984,3.118,3.028,4.646c23.894-34.283,43.162-70.624,60.347-109.543
    C112.342,100.189,130.4,67.271,151.248,34.705z M122.14,304.222c-0.147,0.336-0.311,0.669-0.458,1.005
    c1.856,0.492,3.712,0.977,5.58,1.396c4.414-9.697,8.834-19.83,12.448-29.341c1.533-4.031,2.259-10.616-2.662-4.532
    c-7.717,9.529-16.709,19.351-24.475,29.781c2.924,0.977,5.867,1.836,8.821,2.627C121.646,304.845,121.89,304.533,122.14,304.222z
     M121.792,128.003c17.875-41.668,48.668-76.311,74.651-113.532c-3.119-0.782-6.251-1.481-9.389-2.055
    c-21.269,29.179-43.784,57.586-59.987,89.881c-11.367,22.665-19.914,46.741-29.114,70.331
    c-11.843,30.373-32.557,57.998-54.168,82.373c2.289,2.804,4.682,5.534,7.185,8.182c16.642-20.918,31.202-43.451,43.131-67.426
    C104.943,173.947,112.201,150.375,121.792,128.003z M170.296,142.049c17.954-24.961,31.507-51.444,41.623-80.468
    c4.212-12.079,7.369-25.001,10.854-37.826c-3.547-1.64-7.13-3.118-10.745-4.459c-4.902,14.706-8.48,30.038-12.948,44.511
    c-10.586,34.295-25.354,64.434-46.983,93.13c-17.338,23.01-37.148,44.013-56.33,65.456c-13.748,15.372-25.598,31.742-36.513,48.906
    c1.697,1.533,3.437,3.03,5.214,4.496C94.045,226.857,136.926,188.442,170.296,142.049z M194.984,44.17
    c-2.497,11.792-5.501,23.428-10.146,34.552c-0.159,0.492-0.379,1.032-0.684,1.652c-0.525,1.213-1.172,2.422-1.88,3.616
    c-13.803,26.962-31.135,51.337-50.939,74.265c-0.763,0.886-10.488,10.656-8.388,4.16c7.283-22.558,15.678-45.711,28.815-65.579
    c10.024-15.152,20.995-29.723,32.142-44.062C184.557,51.936,195.588,41.299,194.984,44.17z M175.43,73.108
    c-4.524,6.069-8.938,12.216-13.101,18.514c-8.492,12.837-14.078,28.031-18.992,42.917c9.737-12.754,18.302-26.162,25.555-40.791
    C171.749,87.19,173.757,80.154,175.43,73.108z"/>
</svg>
