<svg xmlns="http://www.w3.org/2000/svg" viewBox="0 0 320 320">
    <path d="M186.229,223.252l-10.177-26.32c5.393-35.787,10.837-72.398,14.298-96.938c26.502-4.277,41.665-12.534,42.509-13.002
    l-7.037-12.696c-0.172,0.094-12.174,6.555-33.388,10.572c0.711-5.338,1.209-9.374,1.442-11.77c0.462-4.761,0.629-9.353,0.542-13.755
    c22.467-4.519,33.91-11.963,34.583-12.411l-8.018-12.1c-0.137,0.09-9.451,6.006-27.962,9.952
    c-1.877-10.286-5.568-18.799-10.914-24.689C176.028,13.396,167.986,10,158.203,10c-9.789,0-17.838,3.401-23.921,10.107
    c-5.923,6.53-9.814,16.271-11.45,28.076c-13.85,0.405-23.262,2.133-29.385,8.196c-4.243,4.2-6.305,9.939-6.305,17.545
    c0,8.086,2.848,15.023,8.236,20.063c6.108,5.713,15.23,8.678,26.567,8.677c1.454,0,2.948-0.054,4.472-0.153
    c3.473,24.484,8.73,59.826,13.94,94.412l-10.18,26.328l-21.375-97.46l-14.178,3.11l26.539,121.009
    c0.686,3.128,3.341,5.437,6.535,5.681c3.187,0.239,6.169-1.633,7.323-4.619l9.71-25.112c6.834,45.077,12.617,82.638,12.754,83.525
    c0.054,0.354,0.359,0.615,0.717,0.615c0.359,0,0.663-0.261,0.717-0.615c0.137-0.887,5.922-38.443,12.757-83.517l9.706,25.104
    c1.087,2.812,3.788,4.64,6.766,4.64c0.184,0,0.371-0.007,0.557-0.021c3.194-0.245,5.849-2.554,6.535-5.681l26.542-121.009
    l-14.178-3.11L186.229,223.252z M192.43,72.957c-0.238,2.454-0.722,6.643-1.462,12.182C181.856,86.781,170,87.952,159,87.998V62.757
    c13-0.046,24.547-1.321,34.011-3.133C193.084,63.891,192.879,68.342,192.43,72.957z M135.358,21.082
    c5.796-6.39,13.482-9.631,22.845-9.631c9.357,0,17.037,3.236,22.829,9.618c5.177,5.704,8.753,13.982,10.574,24.01
    c-9.044,1.831-20.171,3.17-33.404,3.17c-5.435,0-10.502-0.051-15.21-0.099c-6.973-0.071-13.163-0.127-18.694-0.004
    C125.909,36.747,129.663,27.36,135.358,21.082z M105.293,83.385c-2.447-2.289-3.636-5.384-3.636-9.462
    c0-5.248,1.507-6.739,2.002-7.229c2.657-2.629,9.266-3.621,18.311-3.954c0.039,3.358,0.212,6.808,0.559,10.358
    c0.279,2.853,0.935,8.038,1.877,14.97C115.748,88.463,108.977,86.829,105.293,83.385z M123.975,72.957
    c-0.345-3.522-0.516-6.942-0.555-10.267c5.7-0.163,12.045-0.098,19.188-0.024c4.54,0.045,8.392,0.093,14.392,0.098v79.1
    c0,0.401,0.599,0.726,1,0.726s1-0.325,1-0.726v-39.349c11-0.038,21.085-0.932,29.886-2.28c-3.38,23.942-8.637,59.202-13.872,93.967
    l-10.033-25.926c-1.08-2.797-3.775-4.64-6.773-4.64c-2.998,0-5.691,1.844-6.771,4.64l-10.021,25.916
    C133.3,140.294,125.172,85.206,123.975,72.957z M158.203,304.501c-1.805-11.744-6.787-44.217-12.417-81.369l12.417-32.114
    l12.42,32.123C164.992,260.289,160.008,292.758,158.203,304.501z"/>
</svg>