<svg xmlns="http://www.w3.org/2000/svg" viewBox="0 0 320 320">
    <path d="M289.272,157.846c0-10.617-1.287-20.938-3.713-30.817c-1.31-10.845-4.281-22.481-9.002-35.346
    c-14.61-43.643-5.417-58.14,0.077-66.802c2.226-3.511,4.149-6.543,2.961-10.134C278.582,11.686,274.928,10,269.309,10
    c-7.054,0-18.028,2.731-26.645,8.832c-9.365,6.631-16.347,15.452-21.283,25.277c-18.272-9.901-39.18-15.535-61.381-15.535
    c-71.28,0-129.272,57.991-129.272,129.271c0,51.36,30.118,95.802,73.611,116.641c2.271,5.735,4.346,9.941,4.551,10.355
    c0.269,0.539,0.759,0.935,1.344,1.082c0.067,0.017,0.441,0.109,1.073,0.245l-1.725,0.59c-0.653,0.224-1.15,0.758-1.327,1.425
    l-4.343,16.396c-0.252,0.949,0.202,1.946,1.083,2.379c0.252,0.125,6.341,3.04,20.94,3.041l0.76-0.003
    c6.493-0.044,18.987-1.565,19.517-1.63c1.041-0.128,1.821-1.016,1.813-2.066l-0.12-14.869c-0.002-0.218-0.038-0.433-0.108-0.64
    c-0.522-1.554-1.009-2.98-1.472-4.307c0.114-0.025,0.229-0.05,0.335-0.074c4.387,0.454,8.834,0.706,13.339,0.706
    c8.923,0,17.632-0.927,26.05-2.658l-0.09,11.115c-0.008,1.049,0.772,1.938,1.814,2.065c0.505,0.061,12.443,1.512,18.649,1.555
    l0.724,0.002c13.964,0,19.8-2.79,20.042-2.909c0.882-0.434,1.336-1.431,1.084-2.381l-4.148-15.643
    c-0.177-0.666-0.675-1.201-1.328-1.424l-7.029-2.402C259.203,253.578,289.272,209.165,289.272,157.846z M245.048,22.202
    c7.835-5.547,18.068-8.073,24.26-8.073c3.96,0,6.052,0.962,6.367,1.916c0.549,1.66-0.433,3.322-2.529,6.626
    c-5.501,8.673-15.739,24.818-0.486,70.379c17.799,48.507,10.89,82.694-23.103,114.313c-7.718,7.179-17.996,12.439-29.193,15.21
    l5.639-5.155c8.128-2.872,15.498-7.133,21.315-12.544c4.87-4.53,9.137-8.874,12.855-13.874H258v-3h-4v-4h-4v-3.805l-3.682,0.257
    L246.217,177h-0.65c0.001-5-0.411-9.492-1.546-13.592c-2.349-8.479-10.146-17.267-18.604-24.59
    c1.186-9.868-1.775-18.178-4.523-25.803c-1.681-4.667-3.269-9.105-3.953-13.722C211.648,63.557,227.244,34.809,245.048,22.202z
     M193.308,269.404c-5.096,0-14.475-0.737-17.818-1.014l-14.44-33.278c1.162-0.045,2.308-0.097,3.427-0.163l3.452,6.99l11.104-5.485
    l-1.387-2.808c8.448-1.191,14.899-2.815,19.039-4.057l13.05,38.915C205.665,268.829,197.814,269.404,193.308,269.404z
     M142.497,230.592l11.107-17.656l8.882,17.982c-2.634,0.129-5.384,0.201-8.244,0.201
    C150.16,231.119,146.235,230.923,142.497,230.592z M79.806,190.602c-0.501-0.276-1.128-0.091-1.401,0.41l-4.239,7.752
    c-0.044,0.08-0.057,0.166-0.078,0.25c-1.016-0.677-2.073-1.443-3.134-2.316c0.089-0.078,0.171-0.166,0.231-0.276l4.239-7.753
    c0.274-0.5,0.09-1.127-0.411-1.4c-0.499-0.275-1.127-0.091-1.4,0.41l-4.194,7.671c-0.934-0.865-1.845-1.815-2.707-2.845l3.92-7.169
    c0.274-0.5,0.09-1.127-0.41-1.4c-0.501-0.276-1.128-0.091-1.401,0.41l-3.489,6.381c-1.048-1.481-1.976-3.105-2.702-4.886
    c0.237-1.184,1.895-4.687,3.563-7.776l4.655-0.343c1.132-0.083,1.985-1.065,1.908-2.198c-0.077-1.133-1.07-2.004-2.187-1.92
    c0,0-1.458,0.091-2.915,0.188c-0.734,0.049-1.467,0.1-2.018,0.142c-0.224,0.018-0.507,0.039-0.807,0.091l-0.057,0.005
    c-0.013,0,0.328,0.001,0.315,0.003C65.06,174.035,62,174.363,61,174.363V174c0,0-0.744,0-0.762,0c0.181-1,1.103-3.189,1.767-3.642
    l6.646-0.989c8.351,0.071,17.106,1.61,19.278,11.903l-8.657,20.669c-0.932-0.441-2.167-1.068-3.552-1.9
    c0.1-0.082,0.191-0.172,0.257-0.293l4.239-7.75C80.49,191.499,80.306,190.875,79.806,190.602z M92.106,181.159
    c-2.843-15.704-17.876-15.809-23.597-15.849c-0.102-0.002-0.199,0.009-0.298,0.022c0.087-0.355,0.165-0.703,0.265-1.065
    c5.098-18.402,40.669-39.278,42.829-40.53c0.34-0.142,1.616-0.656,3.673-1.3l27.194,40.843l-19.627,28.027
    c-0.616-0.116-1.146-0.222-1.598-0.315c-2.643-6.007-6.909-17.381-8.512-31.192c-0.126-1.086-1.245-1.885-2.33-1.823
    c-1.092,0.063-2.105,0.968-2.105,2.061v2.822l-10.2,10.36c-0.097,0.097-0.104,0.204-0.18,0.317l-5.552,8.412
    C92.123,181.69,92.154,181.424,92.106,181.159z M112.173,73.537l-3.687-18.459l18.629,7.461c0.454,0.182,0.957,0.197,1.42,0.042
    c6.318-2.108,13.757-3.223,21.512-3.223c7.756,0,15.195,1.115,21.513,3.223c0.462,0.155,0.964,0.141,1.421-0.042l18.627-7.461
    l-3.686,18.458c-0.138,0.691,0.086,1.404,0.594,1.893c6.189,5.944,8.86,11.762,8.165,17.789
    c-1.682,14.599-23.469,27.536-36.486,35.267l-2.339,1.392c-2.139,1.278-4.912,1.981-7.809,1.981c-2.895,0-5.669-0.703-7.807-1.981
    l-0.732-0.436c-13.422-8.016-38.407-22.938-39.301-38.045c-0.328-5.541,2.768-10.863,9.201-15.821
    C112.03,75.097,112.326,74.307,112.173,73.537z M240.041,164.267c3.13,11.301,0.167,27.894-1.051,33.705
    c-1.868-0.556-3.622-1.11-5.281-1.659l1.013-3.747c0.061-0.228,0.084-0.466,0.066-0.701c-0.581-7.291-5.855-11.306-14.854-11.306
    c-3.105,0-6.447,0.489-9.682,1.276l0.899-6.887c0.083-0.635-0.235-1.273-0.689-1.726L200,162.861v-2.822
    c0-1.093-0.752-1.998-1.844-2.061c-1.087-0.053-1.993,0.737-2.118,1.823c-1.598,13.769-4.488,25.161-6.245,31.276
    c-5.771,0.984-19.569,3.003-35.532,3.003c-3.603,0-7.003-0.105-10.167-0.275l49.518-71.511c2.253,0.77,3.503,1.386,3.505,1.386
    C197.492,123.895,234.811,145.384,240.041,164.267z M197.196,178.575c2.536-1.482,5.089-3.211,7.609-5.273l2.12,2.12l-0.059,0.451
    c-3.526,2.887-7.106,5.15-10.623,6.996C196.56,181.516,196.879,180.08,197.196,178.575z M198.285,173.035
    c0.313-1.718,0.615-3.503,0.901-5.352l2.695,2.695C200.689,171.339,199.489,172.22,198.285,173.035z M190.63,203.499l7.931,21.138
    c-3.412,1.165-11.355,3.556-22.853,5.086l-11.601-23.487C175.713,205.707,185.299,204.375,190.63,203.499z M218.076,219.071
    l-1.534-1.175c-0.38-0.313-0.787-0.656-1.226-1.036l5.276-4.861c0.419-0.386,0.445-1.039,0.059-1.458
    c-0.385-0.418-1.038-0.443-1.458-0.059l-5.373,4.95c-0.017,0.016-0.024,0.038-0.04,0.055c-0.846-0.781-1.756-1.665-2.704-2.641
    l5.288-4.872c0.419-0.386,0.445-1.039,0.059-1.458c-0.386-0.419-1.038-0.444-1.458-0.059l-5.304,4.888
    c-0.808-0.882-1.634-1.83-2.466-2.841l4.942-4.554c0.419-0.386,0.445-1.039,0.059-1.458c-0.386-0.418-1.038-0.444-1.458-0.059
    l-4.835,4.455c-0.772-0.997-1.542-2.044-2.299-3.15c0.495-0.525,1.273-1.238,1.846-1.763c2.622-2.404,5.1-4.673,3.76-7.024
    c-0.872-1.532-2.889-2.214-6.542-2.214c-0.911,0-1.746,0.044-2.318,0.085c-0.477-0.56-1.038-1.587-1.143-2.182
    c4.589-2.934,13.506-5.951,20.725-5.951c2.469,0,9.908-0.001,10.706,7.164l-5.649,20.9L218.076,219.071z M110.228,223.828
    c-1.389-0.477-2.551-0.905-3.45-1.251l12.635-19.253c2.508,0.495,6.397,1.174,11.419,1.774l-14.069,20.598
    C114.272,225.097,112.068,224.438,110.228,223.828z M120.756,121.071c6.459,4.638,13.206,8.672,18.636,11.915l0.731,0.436
    c0.466,0.279,0.961,0.528,1.467,0.764l10.103,15.5l-6.979,9.965l-25.469-38.253C119.729,121.295,120.233,121.185,120.756,121.071z
     M154.309,146c-0.035,0-0.092,0-0.126,0l-6.357-9.912c0.733,0.076,1.474,0.012,2.221,0.012c3.632,0,7.157-0.967,9.926-2.622
    l2.329-1.415c0.479-0.285,0.968-0.365,1.462-0.659L154.309,146z M157.522,148.558l0.16-0.245c0.01-0.016,0.023-0.029,0.033-0.045
    l14.571-22.311c2.973-1.891,5.996-3.921,8.913-6.083c1.52,0.27,3.037,0.569,4.531,0.872c1.136,0.231,2.292,0.465,3.455,0.685
    l-49.895,72.053c-4.867-0.389-9.007-0.914-12.243-1.41L157.522,148.558z M135.492,205.594c2.395,0.225,4.984,0.421,7.74,0.571
    l-14.2,22.573c-2.93-0.549-5.65-1.156-8.135-1.775L135.492,205.594z M203.033,224.78l-1.23-3.281
    c0.18,0.002,0.358,0.012,0.538,0.012c3.702,0,7.391-0.309,11.016-0.884c1.771,1.488,3.051,2.401,3.516,2.723
    C212.344,224.245,207.699,224.737,203.033,224.78z M34.856,157.846C34.856,88.842,90.996,32.703,160,32.703
    c21.571,0,41.879,5.493,59.613,15.144c-7.371,16.758-9.143,35.907-6.756,52.02c0.744,5.024,2.477,9.834,4.153,14.486
    c2.477,6.875,4.87,13.546,4.583,21.151c-10.861-8.748-21.636-14.954-22.52-15.458c-0.237-0.12-5.089-2.54-13.104-3.928
    c7.707-6.486,13.841-13.998,14.812-22.427c0.807-7.006-2.084-13.878-8.594-20.439l4.214-21.102c0.149-0.743-0.122-1.507-0.704-1.991
    c-0.583-0.484-1.382-0.61-2.087-0.329l-21.47,8.6c-6.571-2.094-14.191-3.199-22.094-3.199c-7.901,0-15.521,1.105-22.093,3.199
    l-21.471-8.6c-0.704-0.283-1.504-0.156-2.087,0.329c-0.583,0.484-0.853,1.249-0.705,1.991l4.186,20.959
    c-6.893,5.633-10.185,11.863-9.791,18.532c0.566,9.563,8.539,18.442,18.099,25.993c-4.086,1.149-6.449,2.192-6.634,2.274
    c-0.065,0.029-0.129,0.106-0.19,0.141c-1.597,0.911-39.175,22.575-44.859,43.093c-0.274,0.988-0.5,1.948-0.695,2.888l-2.572,0.41
    c-3.196,0.509-5.045,5.516-5.14,8.058c-0.11,2.946,1.77,3.623,2.349,3.76c0.435,0.103,1.005,0.149,1.849,0.149c0,0,0,0,0.001,0
    c0.332,0,0.689-0.008,1.053-0.02c-3.441,6.711-2.943,7.988-2.686,8.644c5.353,13.717,20.361,19.354,20.997,19.588
    c0.234,0.086,0.474,0.126,0.71,0.126c0.809,0,1.574-0.479,1.904-1.266l6.628-15.812c1.821-0.516,3.039-0.924,3.178-0.971
    c0.432-0.147,0.802-0.433,1.055-0.812l7.892-11.89l8.413-8.412c2.375,12.779,6.526,22.645,8.699,27.23l-0.449,1.804l-0.732,2.929
    l-15.004,22.862c-0.01,0.015-0.014,0.031-0.023,0.046c-0.07,0.113-0.133,0.229-0.179,0.351c-0.021,0.056-0.029,0.115-0.045,0.172
    c-0.024,0.084-0.054,0.168-0.067,0.254c-0.01,0.067-0.006,0.135-0.009,0.203c-0.004,0.079-0.015,0.158-0.01,0.237
    c0.005,0.08,0.026,0.159,0.041,0.239c0.012,0.065,0.015,0.131,0.034,0.196c0,0.001,0.001,0.002,0.001,0.003
    c0.001,0.002,0.001,0.004,0.001,0.007c0.021,0.074,0.058,0.14,0.087,0.21c0.027,0.066,0.048,0.135,0.081,0.197
    c0.033,0.06,0.077,0.112,0.115,0.169c0.044,0.066,0.084,0.135,0.135,0.195c0.043,0.05,0.096,0.091,0.144,0.137
    c0.058,0.056,0.112,0.116,0.177,0.165c0.055,0.042,0.119,0.072,0.179,0.108c0.065,0.039,0.125,0.085,0.194,0.117
    c0.003,0.001,0.015,0.007,0.019,0.009c0,0,0,0,0.001,0c0.001,0,0.004,0.002,0.005,0.002c0.183,0.084,1.52,0.692,3.738,1.506
    c-4.059,6.678-7.338,13.607-8.193,19.548c-0.893,6.209,1.266,14.835,3.857,22.338C62.232,247.908,34.856,206.023,34.856,157.846z
     M102.462,247.065c0.8-5.56,4.069-12.253,8.099-18.742c4.034,1.327,9.509,2.887,16.095,4.191l-1.643,2.611l10.483,6.595l4.533-7.206
    c1.375,0.14,2.776,0.264,4.205,0.367c-4.273,6.639-7.936,13.891-8.547,19.939c-0.865,8.582,6.123,22.212,9.208,27.745
    c-2.816,0.578-7.836,1.358-14.463,1.358c-8.913,0-15.853-1.282-18.268-1.794C110.066,277.713,100.932,257.706,102.462,247.065z
     M143.781,291.795l0.102,12.689c-3.756,0.428-12.39,1.352-17.215,1.386l-0.732,0.003c-0.399,0-0.781-0.005-1.167-0.01l1.722-6.88
    c0.139-0.553-0.198-1.114-0.75-1.252c-0.553-0.14-1.114,0.196-1.252,0.75l-1.836,7.337c-1.168-0.039-2.262-0.099-3.289-0.173
    l1.993-7.958c0.139-0.553-0.198-1.114-0.75-1.252c-0.552-0.138-1.114,0.197-1.252,0.75l-2.073,8.279
    c-1.185-0.119-2.259-0.257-3.23-0.406l2.17-8.668c0.138-0.553-0.198-1.114-0.751-1.252c-0.55-0.138-1.113,0.197-1.252,0.75
    l-2.207,8.817c-1.579-0.308-2.784-0.626-3.626-0.886l3.579-13.512l8.158-2.79c2.954,0.305,6.438,0.534,10.312,0.534
    c4.799,0,8.782-0.382,11.795-0.825C142.703,288.599,143.213,290.105,143.781,291.795z M149.653,282.558
    c-1.391-2.36-10.736-18.605-9.857-27.324c0.595-5.903,4.675-13.383,9.212-20.088c1.714,0.065,3.46,0.101,5.237,0.101
    c0.795,0,1.577-0.008,2.355-0.018l15.593,35.936c0.301,0.694,0.959,1.168,1.713,1.235c0.31,0.027,4.735,0.413,9.635,0.727l2.127,7.2
    c-8.289,1.736-16.871,2.663-25.668,2.663C156.516,282.99,153.066,282.839,149.653,282.558z M223.798,293.142
    c-0.79,0.24-1.895,0.529-3.327,0.809l-2.086-8.323c-0.138-0.553-0.698-0.887-1.252-0.75c-0.553,0.138-0.889,0.698-0.75,1.252
    l2.049,8.172c-0.903,0.137-1.898,0.265-2.993,0.376l-1.959-7.813c-0.138-0.553-0.7-0.887-1.252-0.75
    c-0.553,0.138-0.889,0.698-0.75,1.252l1.878,7.49c-0.955,0.068-1.967,0.123-3.048,0.16l-1.734-6.915
    c-0.138-0.553-0.698-0.888-1.252-0.75c-0.553,0.138-0.889,0.698-0.75,1.252l1.619,6.457c-0.346,0.004-0.688,0.009-1.045,0.009
    l-0.695-0.002c-4.567-0.032-12.72-0.899-16.348-1.311l0.099-12.335c0.002-0.203-0.027-0.406-0.085-0.601l-2.199-7.446
    c1.977,0.095,3.855,0.157,5.389,0.157c3.58,0,9.033-0.338,13.25-0.644l0.946,2.337c0.225,0.554,0.679,0.985,1.246,1.178
    l11.668,3.987L223.798,293.142z M214.579,270.426c0.01-0.248-0.012-0.497-0.093-0.738l-13.678-40.789
    c0.519,0.011,1.036,0.024,1.56,0.024c19.112,0,37.338-6.756,50.002-18.537c18.552-17.258,29.25-35.477,32.706-55.699
    c0.008-0.046,0.013-0.093,0.021-0.139c0.029,1.096,0.047,2.195,0.047,3.298C285.144,207.292,256.308,250.113,214.579,270.426z
     M226.995,50.226l-0.396,0.271c5.181-11.246,12.542-20.064,20.358-25.598c4.99-3.532,12.056-6.281,18.44-7.173
    c1.373-0.191,2.677-0.289,3.878-0.289c0.592,0,1.149,0.024,1.655,0.072c0.412,0.039,0.827,0.103,1.234,0.189
    c0.032,0.007,0.064,0.014,0.094,0.021c-0.363,0.745-0.968,1.714-1.23,2.134l-0.627,0.993c-1.712,2.701-4.057,6.401-5.912,11.506
    c-2.593,7.134-3.571,15.428-2.966,24.972l-1.891,1.287l-2.096-2.999l-2.999,2.096l-2.068-2.999l-2.907,2l-0.073,0.064l-0.048,0.032
    l-1.737-2.967L245,55.902V56h-0.654l-2.032-2.983L239.315,55H239v-0.065l-1.955-2.967l-2.888,2.096l-2.049-2.967l-2.959,2.064
    l-0.028-0.032l-0.03,0.032L226.995,50.226z M220.187,98.794c-1.038-7.008-1.233-13.726-0.761-20.091l3.087-1.483l1.58,3.29
    l3.322-1.548l1.58,3.29l3.29-1.58l1.548,3.29l3.322-1.613l1.548,3.257l3.355-1.516l1.517,3.225l3.356-1.516l1.52,3.193l3.362-1.451
    l1.731,3.225L257,89.217V89h-0.302l1.548,3.35l3.225-1.404l1.58,3.296l3.29-1.593l1.613,3.283l1.899-0.925
    c7.484,20.644,10.244,37.803,8.57,53.451l-2.536,1.229l-1.613-3.322l-3.29,1.58l-1.58-3.29l-3.29,1.58l-1.58-3.322l-3.29,1.613
    l-1.613-3.29l-3.29,1.58l-1.548-3.225l-3.322,1.484l-1.548-3.257l-2.903,2.064l-1.935-3.773l-3.29,1.58l-1.58-3.322l-3.29,1.58
    l-1.613-3.257l-3.29,1.58l-1.58-3.322l-1.533,0.736c-0.136-2.296-0.454-4.614-0.958-6.966c-1.011-4.719-2.553-9.001-4.044-13.143
    C222.312,107.135,220.801,102.94,220.187,98.794z M132.662,114.591c0,0,0.002,0,0.007,0c-0.001,0-0.003,0.002-0.004,0.003
    C132.664,114.594,132.662,114.591,132.662,114.591z M143.397,111.298c0-3.677,2.977-6.659,6.65-6.659s6.65,2.981,6.65,6.659
    c0,3.677-2.977,6.659-6.65,6.659S143.397,114.976,143.397,111.298z M184.104,73.937l-8.709-6.941l11.369-6.373L184.104,73.937z
     M163.794,120.224c1.309,2.649-2.84,5.542-5.388,7.041c-0.477,0.28-0.986,0.483-1.509,0.65c-0.378-0.893-1.312-1.903-1.312-1.903
    s-1.338,1.441-1.454,2.402c-0.343,0.025-0.686,0.043-1.032,0.052c-0.437-0.765-1.111-1.491-1.111-1.491s-0.68,0.733-1.117,1.502
    c-0.228-0.002-0.457-0.004-0.681-0.004c-0.224,0-0.453,0.002-0.681,0.004c-0.437-0.768-1.117-1.502-1.117-1.502
    s-0.674,0.727-1.111,1.491c-0.345-0.009-0.689-0.027-1.032-0.052c-0.116-0.961-1.454-2.402-1.454-2.402s-0.935,1.009-1.312,1.903
    c-0.523-0.167-1.033-0.37-1.509-0.65c-2.548-1.499-6.697-4.392-5.388-7.041c0.707-1.43,2.016-1.85,3.615-1.805
    c-0.182,1.66,3.032,4.502,3.032,4.502s1.434-2.105,1.81-3.611c0.527,0.133,1.055,0.262,1.58,0.384
    c0.318,0.93,1.389,2.075,1.389,2.075s0.751-0.803,1.182-1.61c0.34,0.036,0.674,0.061,0.998,0.064
    c0.324,0.004,0.661-0.016,1.003-0.048c0.432,0.801,1.173,1.593,1.173,1.593s1.036-1.112,1.371-2.034
    c0.533-0.122,1.071-0.253,1.608-0.389c0.39,1.504,1.8,3.575,1.8,3.575s3.18-2.814,3.032-4.477
    C161.777,118.391,163.09,118.8,163.794,120.224z M110,91h5v5h5v4h4v4h4v5h4.314c0,0,11.124-8.878,17.733-8.878
    c6.608,0,17.733,8.878,17.733,8.878H172v-5h5v-4h5v-4h4v-5h4v-4.117c0,0-22.193-9.189-26.626-9.189s-13.313,8.878-13.313,8.878
    s-8.947-8.878-13.381-8.878c-4.433,0-26.68,9.189-26.68,9.189V91z M160.957,93.122c0.293,1.757,1.338,3.1,3.794,3.148
    c0.958-0.024,1.666-0.407,2.355-1.098c0.711-0.713,1.103-1.661,1.101-2.669c0-0.455-0.094-0.886-0.241-1.29l1.445-0.391
    c0.177,0.526,0.295,1.07,0.295,1.655c0.001,1.416-0.545,2.868-1.538,3.865c-0.994,0.997-2.316,1.659-3.723,1.659h-0.004
    c-2.561,0-4.587-1.953-5.055-4.382L160.957,93.122z M130.751,90.842l1.475,0.378c-0.142,0.396-0.144,0.816-0.144,1.26
    c0.002,2.04,1.347,3.692,3.816,3.736c0.957-0.022,1.698-0.402,2.383-1.089c0.553-0.554,0.903-1.254,1.031-2.012l1.449,0.375
    c-0.197,1.01-0.686,2.089-1.427,2.832c-0.984,0.988-2.296,1.679-3.691,1.679h-0.005c-2.875,0-5.195-2.487-5.197-5.367
    C130.439,92.055,130.578,91.363,130.751,90.842z"/>
</svg>