<svg xmlns="http://www.w3.org/2000/svg" viewBox="0 0 320 320">
    <path d="M295.371,126.655c-14.04-23.155-35.604-43.755-58.64-57.868c-23.984-14.694-52.461-19.388-80.19-16.979
    c-24.37,2.117-53.764,8.299-69.635,28.644c-7.639,6.225-16.753,10.753-26.651,11.708c-9.347,0.902-18.23,1.165-26.087,6.968
    c-10.424,7.698-19.641,23.561-12.468,35.577c-0.536,0.186-1.077,0.498-1.619,0.966c-1.113,0.961-1.674,2.409-1.888,4.059
    c-1.426-1.157-5.944,0.771-5.569,6.146c0.915,13.115,2.983,17.563,10.482,28.219c7.94,11.283,13.659,23.998,23.409,33.968
    c4.411,4.511,9.732,8.198,15.342,11.401c3.093,3.065,5.743,6.634,9.051,9.487c4.746,4.094,10.767,6.934,16.509,9.316
    c12.174,5.051,24.261,9.031,37.483,6.068c6.503-1.457,11.7-5.884,17.992-7.548c2.79-0.738,6.16,0.055,8.946,0.426
    c3.059,0.407,6.072,0.134,9.088-0.4c6.666-1.181,11.656-7.104,18.453-7.227c6.241-0.113,12.483,5.995,17.603,9.027
    c-1.755,4.44,0.354,9.662,5.109,10.651c0.152,0.893,0.5,1.846,1.129,2.868c2.262,3.674,5.904,4.631,9.47,3.971
    c0.028,1.604,0.699,3.215,2.316,4.687c1.977,1.801,4.191,2.143,6.257,1.597c0.446,1.045,1.372,1.902,3.025,2.38
    c2.894,0.837,5.598,0.169,7.827-1.342c0.305,1.603,1.017,3.056,2.432,4.104c3.041,2.251,7.177,1.06,10.37-0.183
    c9.316-3.628,21.427-11.401,26.221-20.347c2.902-5.415,1.366-11.384-1.369-16.48c-1.813-3.377-4.122-6.511-6.591-9.552
    c7.274,0.526,15.217-1.521,21.155-4.3c9.282-4.344,16.293-12.799,20.625-21.892C315.752,172.11,307.652,146.908,295.371,126.655z
     M47.617,99.316c8.152-1.957,16.276-1.145,24.3-4.025c2.995-1.075,5.898-2.445,8.664-4.057c-4.631,11.007-5.567,23.772-5.998,35.391
    c-0.326,8.777,0.288,17.176,2.398,25.699c0.228,0.922,0.469,1.842,0.714,2.762c-2.163,2.825-6.718,1.938-10.042,2.09
    c-6.095-6.141-12.518-12.119-17.965-18.734c-4.711-5.722-9.461-13.297-17.685-13.641c-3.312-0.139-3.834,1.904-3.268,4.385
    c-1.213-0.169-2.465,0.11-3.712,1.057C20.537,117.532,36.523,101.98,47.617,99.316z M160.225,213.011
    c-8.426,4.955-18.286,3.59-26.88-0.046c3.907-9.767,5.361-21.25,5.829-31.069c0.451-2.198,0.946-4.378,2.013-6.362
    c2.161-4.017,5.315-0.242,5.22,2.807c-0.081,2.611-0.629,5.149-0.495,7.773c0.15,2.935,4.368,2.922,4.545,0
    c0.119-1.96,0.875-3.786,1.747-5.521c1.075-2.14,4.576-5.44,5.077-0.924c0.231,2.083-0.047,4.168-0.36,6.248
    c-0.352,1.526-0.525,3.056-0.549,4.373c-0.184,2.9,4.302,2.875,4.497,0c0.095-1.392,0.434-2.7,0.809-4.039
    c0.562-2.009,2.294-5.441,2.563-1.367c0.211,3.193-0.51,6.392-0.188,9.581c0.308,3.049,4.576,3.117,4.79,0
    c0.211-3.081,1.396-5.386,3.585-7.192c0.772,1.562,1.567,3.111,2.394,4.643C172.573,200.602,168.13,208.362,160.225,213.011z
     M300.669,190.133c-2.676,6.958-7.334,13.182-13.224,17.742c-14.582,5.33-28.463-0.329-40.855-8.383
    c-0.033-0.022-0.068-0.033-0.101-0.052c-9.446-13.873-17.891-28.432-27.544-42.168c-2.488-3.541-8.359-0.164-5.844,3.416
    c8.906,12.674,16.918,25.94,25.778,38.645c4.029,5.777,8.251,11.403,12.735,16.835c0.337,0.408,0.688,0.805,1.034,1.207
    c0.141,0.227,0.314,0.444,0.545,0.636c4.58,5.23,9.688,10.011,13.02,16.19c5.976,11.08-6.491,18.892-14.509,24.132
    c-3.268,2.136-6.721,4.147-10.455,5.333c-5.205,1.654-5.062-2.357-4.232-6.495c0.59-2.941-3.34-3.932-4.416-1.217
    c-0.871,2.198-2.381,3.698-4.61,4.449c-2.059,0.693-2.43,0.057-2.12-0.924c0.9-0.972,1.644-2.093,2.148-3.264
    c0.989-2.298-1.86-5.196-3.787-2.922c-0.787,0.929-1.647,2.199-2.295,3.563c-0.671,0.634-1.508,1.015-2.591,0.855
    c-2.997-0.442-1.765-2.991-0.366-4.533c0.474-0.374,0.931-0.764,1.345-1.183c1.855-1.878-0.683-5.448-2.903-3.762
    c-0.162,0.123-0.319,0.255-0.477,0.385c-0.003-0.003-0.005-0.007-0.008-0.01c-0.032,0.033-0.066,0.064-0.098,0.096
    c-0.361,0.301-0.708,0.618-1.039,0.95c-2.092,1.739-4.514,2.649-7.193,1.189c-1.232-0.672-1.732-1.338-1.759-1.941
    c1.847-0.628,3.63-1.748,5.189-2.753c1.897-1.223,1.338-4.76-1.233-4.553c-2.811,0.226-5.587,1.285-7.253,3.025
    c-3.572,0.546-1.847-4.943,0.131-6.254c2.798-1.854,5.296-3.13,6.122-6.642c1.338-5.694-7.524-13.617-10.742-17.453
    c-3.183-3.795-6.63-7.327-9.938-11.01c-4.429-4.931-7.655-11.035-10.697-16.885c-6.082-11.697-9.837-24.177-10.299-37.363
    c-0.347-9.902-0.579-21.024,3.477-30.274c4.902-11.181,16.239-13.21,27.09-11.213c5.555,1.022,10.896,3.116,16.328,4.628
    c6.713,1.869,13.26,4.071,19.493,7.215c10.24,5.166,16.667,15.685,26.055,22.13c2.538,1.742,5.681-2.306,3.298-4.274
    c-4.826-3.986-8.573-8.897-12.708-13.551c-4.671-5.257-9.914-9.266-16.245-12.328c-6.265-3.031-13.062-4.84-19.778-6.547
    c-5.986-1.521-12.125-3.216-18.266-3.97c-8.664-1.064-17.576,0.362-24,6.061c-9.301,6.385-13.568,17.356-14.808,28.831
    c-0.383,3.541-0.386,7.15-0.172,10.762c-0.079,4.9-0.623,9.67-4.315,13.453c-2.997,3.071-13.128,5.563-15.654,1.05
    c-0.071-0.126-0.156-0.231-0.248-0.326c-2.022-11.266-5.264-22.616-5.933-33.818c1.596,1.433,3.739,1.72,5.948-0.527
    c1.581-1.609,2.169-3.756,2.154-6.074c0.266,0.154,0.542,0.299,0.827,0.431c4.961,2.296,8.489-1.95,8.723-6.566
    c0.38-7.492-13.057-18.492-18.285-9.794c-0.377,0.628-0.47,1.245-0.375,1.81c-8.925,17.447-0.241,40.619,2.62,58.564
    c0.782,4.903,1.028,9.911,0.87,14.923c-0.164,3.018-0.26,6.244-0.763,9.536c-0.474,3.734-1.135,7.432-1.934,11.051
    c-2.495,11.295-7.103,24.137-19.01,28.132c-10.79,3.62-21.92-1.227-31.683-5.539c-10.406-4.596-21.001-10.001-29.493-17.679
    c-9.317-8.424-14.905-20.479-21.595-30.9c-3.347-5.215-7.106-9.965-9.797-15.588c-2.23-4.658-3.513-8.31-2.888-9.748
    s1.507-1.456,2.486,1.029c1.639,4.159,5.175,2.369,4.467-0.379c-0.168-0.653-0.367-1.302-0.592-1.941
    c-0.502-1.843-0.823-3.697-0.903-5.652c-0.202-4.973,2.167-2.294,3.954,0.122c0.452,0.664,0.889,1.251,1.253,1.706
    c1.483,1.851,4.663-0.607,3.286-2.536c-0.49-0.686-1.076-1.506-1.73-2.333c-0.494-0.751-0.932-1.553-1.229-2.388
    c0.07-0.524-0.033-1.08-0.36-1.605c-0.035-0.398-0.036-0.801,0.024-1.207c0.256-1.749,5.008,3.556,5.217,3.815
    c1.498,1.856,4.714-0.623,3.309-2.553c-0.546-0.75-3.946-5.961-2.761-5.708c3.782,0.806,6.372,3.975,8.762,6.761
    c5.114,5.957,10.251,11.49,15.74,17.118c12.22,12.531,23.441,25.904,37.954,35.925c2.332,1.61,4.523-2.192,2.212-3.784
    c-3.656-2.519-7.094-5.28-10.409-8.179c-0.5-0.712-0.994-1.45-1.475-2.212c-0.158-13.026-6.377-25.424-6.703-38.525
    c-0.368-14.741,0.254-31.229,6.483-44.848c1.419-3.102,3.161-5.898,5.153-8.44c0.324-0.323,0.659-0.635,0.973-0.967
    c0.267-0.282,0.446-0.578,0.555-0.876c12.643-14.414,34.021-19.711,52.339-22.822c29.329-4.982,59.791-1.371,85.961,13.19
    c24.715,13.752,46.994,36.499,61.179,60.835C302.4,149.908,308.183,170.596,300.669,190.133z M131.819,118.063
    c0.184-2.15,0.495-4.292,0.975-6.425c0.982,1.947,1.714,4.003,2.222,6.148c0.383,1.617,0.554,3.602-0.147,5.157
    c-1.153,2.56-2.771-3.15-2.708-3.884C132.198,118.633,132.056,118.299,131.819,118.063z M135.686,107.739
    c0.129-0.158,0.248-0.34,0.351-0.546c1.421-2.837,7.967,3.851,8.506,5.795c0.278,1.003,0.483,4.084-1.452,3.821
    c-1.521-0.206-2.763-1.788-3.624-2.91c-1.247-1.624-2.206-3.443-3.23-5.217C136.053,108.353,135.869,108.038,135.686,107.739z
     M70.1,137.062c-0.397,3.209-4.807,3.32-5.076,0c-0.263-3.258-2.176-6.761-5.42-7.946c-3.446-1.259-4.571,0.632-4.544,4.032
    c0.022,2.779-3.933,2.641-4.219,0c-0.64-5.894,3.329-11.158,9.674-9.066C65.819,125.831,70.833,131.131,70.1,137.062z M34,122.865
    c-4,0-4-5.524,0-5.524C37,117.34,37,122.865,34,122.865z M44,125.521c-3,0-3-5.096,0-5.096C48,120.425,48,125.521,44,125.521z
     M42.842,111.735c-0.016-0.142-0.041-0.287-0.082-0.436c-0.357-1.296-1.945-2.423-3.31-1.879c-0.233,0.092-0.465,0.19-0.695,0.29
    c-1.312,0.494-2.363,2.133-1.809,3.521c0.22,0.552,0.396,1.074,0.883,1.458c0.549,0.433,0.902,0.636,1.575,0.87
    c1.203,0.419,2.618-0.264,3.234-1.316C43.053,113.535,43.14,112.549,42.842,111.735z M54,119.925c-3,0-3-4.342,0-4.342
    C56,115.583,56,119.925,54,119.925z M52.965,109.321c-0.247-0.658-0.409-1.005-0.873-1.535c-0.102-0.122-0.217-0.23-0.341-0.329
    c-0.552-0.577-1.287-0.94-2.192-0.94c-1.737,0-3.123,1.433-3.149,3.149c-0.008,0.513,0.097,0.998,0.297,1.454
    c0.407,1.332,1.677,2.329,3.113,2.329c0.862,0,1.697-0.346,2.306-0.955C52.891,111.728,53.363,110.383,52.965,109.321z
     M57.647,106.058c-1.941,0-3.253-1.856-2.811-3.69c0.02-0.082,0.039-0.163,0.059-0.245c0.296-1.229,1.514-2.095,2.752-2.095
    c1.238,0,2.456,0.866,2.752,2.095c0.02,0.082,0.039,0.163,0.059,0.245C60.9,104.202,59.588,106.058,57.647,106.058z M61,112.997
    c-3,0-3-5.096,0-5.096S64,112.997,61,112.997z M65,122.282c-3,0-3-5.402,0-5.402S68,122.282,65,122.282z M70,114.633
    c-3,0-3-5.239,0-5.239C74,109.395,74,114.633,70,114.633z M68,105.989c-3,0-3-4.648,0-4.648S71,105.989,68,105.989z M185,182.906
    c-4,0-4-5.585,0-5.585S189,182.906,185,182.906z M194.79,190.792c-0.023,0.168-0.046,0.335-0.069,0.503
    c-0.166,1.213-1.582,2.058-2.703,2.058s-2.537-0.845-2.703-2.058c-0.023-0.168-0.046-0.335-0.069-0.503
    c-0.144-1.055-0.059-1.999,0.739-2.796c0.537-0.537,1.273-0.842,2.032-0.842c1.014,0,1.97,0.549,2.482,1.424
    C194.93,189.311,194.9,189.986,194.79,190.792z M201.36,197.817c-0.975-1.385-2.888-1.829-4.178-0.538
    c-0.497,0.497-0.779,1.178-0.779,1.881c0,0.623,0.222,1.129,0.563,1.565c0.367,0.907,1.42,1.515,2.358,1.515
    c1.039,0,2.294-0.771,2.467-1.878C201.936,199.435,201.92,198.612,201.36,197.817z M206.627,210.094
    c-0.052,0.028-0.099,0.064-0.153,0.088c-1.142,0.554-2.446,0.502-3.384-0.437c-0.931-0.931-1.002-2.25-0.437-3.384
    c0.33-0.661,1.144-1.396,1.924-1.532c0.738-0.128,1.006-0.1,1.746,0.007c1.2,0.174,2.035,1.557,2.035,2.673
    C208.359,208.546,207.659,209.738,206.627,210.094z M214.802,198.076c-0.342,1.242-1.443,1.989-2.693,2.05
    c-0.296,0.022-0.589-0.009-0.88-0.094c0.748,0.1,0.652,0.087-0.289-0.039c-0.502-0.138-1.058-0.488-1.426-0.856
    c-0.858-0.858-0.961-1.912-0.792-3.043c0.124-0.827,1.066-1.754,1.886-1.886c0.875-0.141,1.674-0.136,2.459,0.323
    c0.253,0.174,0.493,0.364,0.72,0.57c0.053,0.07,0.098,0.129,0.142,0.187c0.006,0.005,0.011,0.011,0.017,0.016
    c-0.003-0.002-0.006-0.003-0.009-0.005c0.391,0.513,0.41,0.529,0.056,0.05C214.723,196.022,215.101,196.987,214.802,198.076z
     M213.994,195.349c-0.016-0.015-0.031-0.03-0.048-0.045c0.009,0.005,0.017,0.01,0.026,0.015
    C213.981,195.331,213.986,195.338,213.994,195.349z M202.278,191.259c0.752,0.076,0.675,0.059-0.232-0.053
    c-0.221-0.093-0.442-0.187-0.663-0.28c-0.273-0.118-0.535-0.346-0.737-0.529c-0.391-0.356-0.675-0.819-0.816-1.33
    c-0.169-0.613-0.076-0.973,0.011-1.586c0.116-0.817,1.077-1.778,1.894-1.894c0.614-0.087,0.973-0.18,1.586-0.011
    c0.511,0.141,0.974,0.424,1.33,0.816c0.184,0.202,0.411,0.465,0.529,0.737c0.251,0.433,0.377,0.9,0.379,1.401
    c-0.016-0.169-0.031-0.337-0.047-0.506C206.161,189.857,204.111,191.908,202.278,191.259z M197.732,176.982
    c-0.01,0.087-0.02,0.174-0.031,0.261c-0.091,0.777-0.249,1.415-0.824,1.989c-0.525,0.525-1.246,0.824-1.989,0.824
    s-1.464-0.299-1.989-0.824c-0.575-0.575-0.733-1.212-0.824-1.989c-0.01-0.087-0.02-0.174-0.031-0.261
    c-0.181-1.543,1.43-2.844,2.844-2.844S197.913,175.439,197.732,176.982z M180,168.449c-2,0-2-4.851,0-4.851
    C183,163.598,183,168.449,180,168.449z M190,168.981c-3,0-3-4.872,0-4.872C194,164.11,194,168.981,190,168.981z M178,158.488
    c-3,0-3-5.279,0-5.279C182,153.208,182,158.488,178,158.488z M228,201.217c-3,0-3-5.157,0-5.157C232,196.06,232,201.217,228,201.217
    z M235.581,209.08c-0.35,1.272-1.541,2.177-2.86,2.177c-1.617,0-2.966-1.349-2.966-2.966c0-0.367,0.077-0.75,0.219-1.111
    c0.249-1.196,1.604-2.024,2.747-2.024c1.134,0,2.476,0.817,2.739,1.998C235.701,207.77,235.75,208.467,235.581,209.08z
     M222.468,185.07c0,1.567-1.272,2.733-2.793,2.793c-0.087,0.003-0.174,0.007-0.261,0.01c-1.528,0.06-2.803-1.32-2.803-2.803
    c0-1.483,1.275-2.862,2.803-2.803c0.087,0.003,0.174,0.007,0.261,0.01C221.196,182.337,222.468,183.503,222.468,185.07z
     M208,123.745c-3,0-3-5.198,0-5.198C212,118.547,212,123.745,208,123.745z M225,126.827c-3,0-3-4.056,0-4.056
    C227,122.771,227,126.827,225,126.827z M233,132.545c-3,0-3-5.055,0-5.055C237,127.49,237,132.545,233,132.545z M219.327,130.8
    c0,0.981-0.532,1.907-1.378,2.403c-0.683,0.4-1.388,0.427-2.144,0.28c-0.166-0.032-0.325-0.077-0.487-0.128
    c-2.526-0.788-2.526-4.322,0-5.111c0.162-0.051,0.32-0.096,0.487-0.128c0.997-0.193,1.964-0.027,2.707,0.716
    C219.032,129.352,219.327,130.065,219.327,130.8z M228,140.658c-4,0-4-5.626,0-5.626C231,135.032,231,140.658,228,140.658z
     M240,141.123c-4,0-4-6.034,0-6.034C243,135.089,243,141.123,240,141.123z M250,145.682c-3,0-3-5.239,0-5.239
    S253,145.682,250,145.682z M242,152.022c-3,0-3-4.872,0-4.872C246,147.15,246,152.022,242,152.022z M272,200.626
    c-3,0-3-3.975,0-3.975C274,196.651,274,200.626,272,200.626z M264,191.457c-2,0-2-4.423,0-4.423
    C267,187.033,267,191.457,264,191.457z M277.365,175.678c-0.014,0.174-0.027,0.348-0.041,0.522
    c-0.099,1.268-0.987,2.334-2.334,2.334s-2.235-1.066-2.334-2.334c-0.014-0.174-0.027-0.348-0.041-0.522
    c-0.101-1.292,1.157-2.375,2.375-2.375S277.466,174.385,277.365,175.678z M294.819,183.701c-1.52,0-2.548-1.453-2.201-2.89
    c0.039-0.163,0.079-0.326,0.118-0.489c0.498-2.067,3.669-2.067,4.167,0c0.039,0.163,0.079,0.326,0.118,0.489
    C297.367,182.247,296.34,183.701,294.819,183.701z M289,197.904c-2,0-2-3.751,0-3.751C292,194.154,292,197.904,289,197.904z
     M289,171.403c-2,0-2-3.975,0-3.975C293,167.428,293,171.403,289,171.403z M143.648,76.158c-0.47-0.753-1.281-1.266-2.247-1.266
    c-0.708,0-1.395,0.285-1.895,0.785c-0.735,0.735-0.842,1.632-0.689,2.608c0.221,1.42,1.709,2.48,3.107,2.439
    c1.432-0.042,2.63-1.164,2.63-2.63C144.552,77.266,144.195,76.612,143.648,76.158z M140.661,67.093c0,1.318-1.191,2.748-2.609,2.609
    c-0.174-0.017-0.348-0.034-0.522-0.051c-1.387-0.135-2.558-1.061-2.558-2.558c0-1.497,1.171-2.423,2.558-2.558
    c0.174-0.017,0.348-0.034,0.522-0.051C139.47,64.345,140.661,65.775,140.661,67.093z M156,68.529c-3,0-3-4.872,0-4.872
    C160,63.657,160,68.529,156,68.529z M144,154.048c-2,0-2-4.749,0-4.749C147,149.299,147,154.048,144,154.048z M148.863,143.657
    c0.004-0.007,0.008-0.014,0.012-0.021c-0.028,0.096-0.046,0.195-0.054,0.295c-0.138,0.988-1.286,1.676-2.201,1.676
    s-2.063-0.688-2.201-1.676c-0.008-0.1-0.027-0.198-0.054-0.295c0.004,0.007,0.008,0.014,0.012,0.021
    c-0.136-0.431-0.185-0.889-0.223-1.377c-0.106-1.342,1.202-2.466,2.466-2.466s2.572,1.124,2.466,2.466
    C149.047,142.768,148.999,143.226,148.863,143.657z M95,170.021c-2,0-2-4.342,0-4.342C98,165.679,98,170.021,95,170.021z M95,157.68
    c-2,0-2-4.709,0-4.709C98,152.972,98,157.68,95,157.68z M94.621,136.369c-0.319,0.242-0.986,0.76-0.499,0.378
    c-0.55,0.43-1.044,0.734-1.773,0.734c-0.662,0-1.305-0.266-1.773-0.734c-0.468-0.468-0.734-1.111-0.734-1.773
    c0-0.727,0.303-1.225,0.734-1.773c0.838-1.064,1.945-1.778,3.338-1.809c1.383-0.03,2.538,1.177,2.538,2.538
    C96.452,134.951,95.701,136.18,94.621,136.369z M105,145.678c-3,0-3-4.709,0-4.709S108,145.678,105,145.678z M116,151.418
    c-2,0-2-4.709,0-4.709C119,146.71,119,151.418,116,151.418z M117,177.602c-3,0-3-4.892,0-4.892C121,172.71,121,177.602,117,177.602z
     M45.926,167.85c0,1.328-1.2,2.769-2.63,2.63c-0.174-0.017-0.348-0.034-0.522-0.051c-1.398-0.137-2.579-1.07-2.579-2.579
    c0-1.509,1.18-2.442,2.579-2.579c0.174-0.017,0.348-0.034,0.522-0.051C44.726,165.081,45.926,166.522,45.926,167.85z M52,176.252
    c-2,0-2-4.281,0-4.281C55,171.972,55,176.252,52,176.252z M62.851,183.27c-0.011,0.003-0.02,0.006-0.044,0.011
    c0.037-0.011,0.059-0.017,0.063-0.017C62.864,183.266,62.857,183.268,62.851,183.27z M62.87,183.264
    c0.003,0-0.006,0.002-0.019,0.006c-0.215,0.071-0.424,0.176-0.62,0.316c0.255-0.184,0.472-0.273,0.576-0.305
    c-0.035,0.008-0.08,0.016-0.146,0.026c-0.245,0.038-0.477,0.18-0.698,0.296c-1.5,0.795-1.5,3.183,0,3.978
    c0.204,0.108,0.366,0.177,0.622,0.269c0.264,0.094,0.271,0.086,0.164,0.022c1.495,0.571,3.355-0.502,3.355-2.28
    C66.104,183.861,64.343,182.794,62.87,183.264z M84.277,185.592c-0.01,0.174-0.02,0.348-0.031,0.522
    c-0.074,1.27-1.005,2.334-2.334,2.334c-1.329,0-2.26-1.064-2.334-2.334c-0.01-0.174-0.02-0.348-0.031-0.522
    c-0.075-1.288,1.133-2.365,2.365-2.365C83.144,183.228,84.352,184.304,84.277,185.592z M63,168.455c-2,0-2-4.342,0-4.342
    C66,164.114,66,168.455,63,168.455z M49.816,185.592c0.137,1.273-1.17,2.344-2.344,2.344s-2.481-1.071-2.344-2.344
    c0.037-0.348,0.075-0.696,0.112-1.044c0.13-1.209,0.917-2.232,2.232-2.232s2.102,1.023,2.232,2.232
    C49.741,184.897,49.778,185.244,49.816,185.592z M80,201.178c-2,0-2-4.036,0-4.036C83,197.142,83,201.178,80,201.178z"/>
</svg>