<svg xmlns="http://www.w3.org/2000/svg" viewBox="0 0 320 320">
    <path d="M164.323,68.122l-81.835,81.835V68.122H164.323z M97.535,165.005h81.842V83.169L97.535,165.005z M82.487,301.831
	c10.903,4.273,23.734,7.255,38.755,8.169V184.379H82.487V301.831z M140.616,310c15.021-0.914,27.858-3.896,38.755-8.169
	l0.007-117.453h-38.762V310z M256.88,10H43.733c0,0-6.772,6.341-12.078,16.969c-5.314,10.627-7.289,21.779-7.289,21.779v193.766
	c0,0,8.35,29.222,38.748,49.308V48.748h135.638v243.074c30.404-20.086,38.755-49.308,38.755-49.308v-58.135L218.132,48.748h19.374
	l19.374,135.631c0,0,38.755-19.374,38.755-87.182C295.634,29.374,256.88,10,256.88,10z"/>
</svg>