<svg xmlns="http://www.w3.org/2000/svg" viewBox="0 0 320 320">
    <path d="M10,127.819c3.312,0,6.624,0,10.338,0c0.254-3.632,0.48-6.861,0.736-10.528c3.275,0,6.334,0,10.03,0
    c0.208-3.639,0.392-6.865,0.599-10.503c31.927,0,63.712,0,96.293,0c0,64.28,0,128.471,0,192.663c-14.303,0-28.605,0-42.908,0
    c0-46.369,0-92.738,0-139.124c-11.151,0-21.341,0-32.259,0c0,39.273,0,78.227,0,117.67c-14.761,0-28.796,0-42.83,0
    C10,227.937,10,177.878,10,127.819z M138.723,20.55c0,3.477,0,6.954,0,10.865c-3.984,0-7.031,0-10.347,0c0,21.557,0,42.642,0,63.944
    c3.577,0.226,6.793,0.429,10.678,0.675c0,53.772,0,107.015,0,160.142c14.484,0,28.248,0,42.703,0c0-53.616,0-106.87,0-160.264
    c3.903-0.231,7.118-0.42,10.272-0.607c0-21.59,0-42.507,0-63.689c-3.531-0.248-6.759-0.476-10.397-0.732c0-3.708,0-7.022,0-10.336
    C167.329,20.55,153.026,20.55,138.723,20.55z M267.54,170.633c0,3.321,0,6.641,0,10.914c-3.948,0-7.431,0-10.914,0l0.187-0.187
    c0,3.313,0,6.626,0,10.377c-7.172,0-13.937,0-21.641,0c0-3.439,0-6.908,0-10.377l0.187,0.187c-3.321,0-6.641,0-10.914,0
    c0-3.948,0-7.431,0-10.914l0.187,0.187c-3.313,0-6.626,0-10.377,0c0-7.173,0-13.935,0-21.641c3.438,0,6.908,0,10.377,0l-0.187,0.187
    c0-3.321,0-6.641,0-10.914c3.948,0,7.431,0,10.914,0l-0.187,0.187c0-3.312,0-6.624,0-10.377c7.172,0,13.937,0,21.641,0
    c0,3.439,0,6.908,0,10.377l-0.187-0.187c3.32,0,6.641,0,10.914,0c0,3.948,0,7.431,0,10.914l-0.184-0.197c14.203,0,28.406,0,42.465,0
    c0-14.73,0-28.654,0-42.435c-39.322,0-78.109,0-117.027,0c0,57.19,0,114.009,0,170.752c39.385,0,78.331,0,117.205,0
    c0-14.277,0-28.042,0-42.531c-24.999,0-49.654,0-74.217,0c0-7.517,0-14.295,0-21.541c25.005,0,49.497,0,74.132,0
    c0-14.421,0-28.343,0-42.584c-14.477,0-28.518,0-42.558,0L267.54,170.633z M267.54,149.367c-3.322,0-6.645,0-10.914,0
    c0-3.948,0-7.431,0-10.914l0.187,0.187c-7.214,0-14.427,0-21.641,0l0.187-0.187c0,3.322,0,6.645,0,10.914c-3.948,0-7.431,0-10.914,0
    l0.187-0.187c0,7.214,0,14.427,0,21.641l-0.187-0.187c3.322,0,6.645,0,10.914,0c0,3.948,0,7.431,0,10.914l-0.187-0.187
    c7.214,0,14.427,0,21.641,0l-0.187,0.187c0-3.322,0-6.645,0-10.914c3.948,0,7.431,0,10.914,0c0,0-0.184,0.197-0.184,0.197
    c0-7.22,0-14.44,0-21.661L267.54,149.367z"/>
</svg>