<svg xmlns="http://www.w3.org/2000/svg" viewBox="0 0 320 320">
    <path d="M284.188,104.442c-1.238,9.479,1.816,21.762,0.926,34.258c-0.499,6.854-2.653,13.867-2.787,20.373
	c-0.124,6.319,1.505,11.891,0.926,17.587c-1.086,10.814-7.921,27.565-16.661,29.63c-4.316,1.023-9.621-2.599-13.884-0.926
	c-4.236,7.04-2.911,16.074-5.563,23.15c-3.071,8.224-9.079,13.982-13.885,19.447c-15.834,3.178-18.868-6.435-26.853-11.116
	c-3.925,22.616-0.72,52.37-15.736,63.887c-12.79-0.481-21.655-4.895-25.927-13.884c-8.473,6.72-7.414,22.838-20.373,23.15
	c-5.029,0.116-12.879-5.26-15.736-9.266c-9.425-13.19-5.411-40.693-8.339-59.259c-5.447-0.178-8.099,6.551-14.81,7.414
	c-8.509,1.086-19.75-2.234-21.299-6.488c-1.54-4.245-9.087-24.85-8.331-42.588c-11.704,1.513-25.704,4.415-31.481-8.331
	c-0.757-1.664-3.346-13.751-3.703-15.745c-3.515-19.367,0.943-48.027-3.702-66.664c-0.997-3.996-4.255-7.316-4.628-10.182
	c-1.095-8.286,4.967-16.43,2.777-23.15c6.88-10.405,31.08-33.715,44.903-43.345c13.822-9.621,38.441-16.092,54.168-18.691
	c8.99-1.486,21.156-3.703,34.258-3.703c20.96,0,41.583,5.403,54.631,10.182c19.518,7.165,54.684,23.711,60.175,57.408
	C288.628,83.251,289.59,98.141,284.188,104.442z M257.335,102.591c11.116,2.252,21.628-6.391,19.438-19.448
	c-3.418-0.677-4.317-4.673-8.331-5.554c-9.043-1.976-23.061,4.45-24.075,9.257C243.014,93.273,250.152,101.14,257.335,102.591z
	 M272.145,127.593c-0.054-0.57-0.134-1.095-0.926-0.926c-0.053-0.57-0.134-1.095-0.926-0.926
	c-4.192,5.678-10.405,9.345-16.661,12.959c0.801,17.276-6.435,44.387,7.405,50.928c5.457-1.388,8.314-6.266,9.257-12.042
	C272.572,163.675,270.382,142.403,272.145,127.593z M264.74,64.631c-1.201-6.319-7.841-8.909-12.033-12.042
	c-4.681-3.489-27.138-20.026-70.376-24.993c-15.593-1.379-28.757-1.673-41.663-0.926c-34.471,1.985-64.466,24.841-82.409,42.589
	c2.563,2.376,6.115,3.765,9.266,5.554c1.842-5.18,19.065-18.798,24.067-22.225c2.563-1.744,7.004-4.032,11.116-5.554
	c18.798-6.96,43.452-13.466,68.516-11.108c17.684,1.664,38.619,9.15,53.011,15.327c6.871,2.946,20.916,16.911,25.687,18.931
	C254.193,67.061,260.53,65.29,264.74,64.631z M262.888,114.625c-3.818-0.97-7.165-0.365-12.042-1.851
	c-7.494,6.817-15.621,8.704-25.918,12.042c-10.396,3.365-18.353,6.132-28.704,8.331c-5.207,1.104-10.796,3.151-15.745,3.703
	c-15.771,1.754-37.996-0.703-49.994-4.628c-0.926-0.303-14.321-4.682-18.522-6.48c-6.23-2.679-11.989-6.533-18.513-9.266
	c-7.379-3.08-15.113-7.636-23.15-8.331c-0.525-1.353-4.361,1.744-4.628,3.703c9.675,10.226,23.64,14,37.035,20.373
	c6.043,2.875,12.256,5.465,18.513,7.405c13.458,4.174,25.153,7.236,52.237,9.283c27.075,2.056,57.024-12.986,57.024-12.986
	s10.227-7.654,15.737-11.108C251.737,121.353,259.008,120.125,262.888,114.625z M225.854,238.697
	c17.516-17.846,16.154-60.656,15.736-90.74c-12.096-1.344-21.637,6.355-31.481,10.191c2.021,26.692,6.996,72.343,8.331,76.846
	C219.784,239.498,221.973,238.875,225.854,238.697z M239.739,103.517c-1.228-4.121-3.48-5.136-3.703-10.182
	c-0.258-5.937,2.661-11.464,4.628-16.671c-14.392-6.283-24.966-16.395-39.811-22.224c-18.059-2.652-37.756-7.45-58.334-4.628
	c-18.13,2.492-37.8,10.414-50.928,19.448c-4.548,3.133-15.238,12.051-16.662,16.662c-1.023,3.311,0.516,7.165,0,11.116
	c6.132,2.252,11.081,6.791,17.587,10.182c6.569,3.418,11.304,6.248,18.833,9.007c3.462,1.273,18.949,6.827,23.435,7.717
	c7.806,1.531,15.86,1.896,23.479,2.724c13.618,1.478,30.502-1.478,39.812-4.628C215.235,116.218,227.064,108.626,239.739,103.517z
	 M197.15,160.925c-0.614,0-1.238,0-1.851,0c-8.98,2.083-15.985,1.095-25.001,3.702c-1.211,34.881-2.787,80.754,4.628,110.178
	c1.496,5.937,2.279,14.811,10.182,14.819c5.305-8.304,6.212-20.115,7.414-31.48C195.931,225.871,194.026,191.097,197.15,160.925z
	 M155.478,261.847c1.611-28.205,3.249-68.747,2.786-95.368c-6.96-1.611-14.223-2.99-24.076-3.703
	c0.036,1.273-0.436,2.03-0.926,2.777c-0.276,13.965-0.196,27.689-0.926,39.812c-1.077,17.721-1.655,39.002-0.926,55.556
	c0.587,13.422,2.964,28.152,13.885,32.407C157.908,289.625,154.615,277.156,155.478,261.847z M111.964,223.886
	c6.035-20.925,5.732-49.593,6.48-69.441c-10.209-4.299-20.613-8.402-31.481-12.042c0,0.926,0,1.851,0,2.777
	c3.898,23.96,1.246,55.762,4.628,77.781c0.934,6.061,4.548,16.617,10.191,16.662C108.262,239.676,110.7,228.257,111.964,223.886z
	 M64.747,190.554c8.785-12.505,6.488-36.1,8.331-55.556c-6.052-3.818-11.66-8.099-18.522-11.108
	c-0.926,3.641-1.816,8.224-1.851,12.959C52.563,154.846,55.135,183.523,64.747,190.554z M61.97,103.517
	c0.578-5.278,3.925-7.797,3.703-13.885c-4.842-4.682-8.331-14.374-17.596-9.265c-2.652,4.45-4.361,9.835-7.405,13.893
	C44.08,101.345,51.61,106.053,61.97,103.517z M199.927,59.077c-8.963,9.079-20.498,16.929-35.184,18.513
	c-16.048,1.727-27.583-2.821-38.886-6.479c-7.966-2.572-17.169-7.619-24.076-1.851c-0.543,8.82,1.273,22.607,3.703,31.481
	c12.069,5.563,27.707,16.661,46.291,18.513c19.706,1.976,40.782-3.151,50.928-8.331c9.773-11.17,12.55-42.571-0.926-51.845
	C201.164,59.077,200.541,59.077,199.927,59.077z"/>
</svg>