<svg xmlns="http://www.w3.org/2000/svg" viewBox="0 0 320 320">
    <path d="M203.254,58.143c0.782-2.666,2.518-16.557-1.126-30.139c-0.502-2.777-13.247-17.985-6.836-18.004
    c5.194-0.015,6.165,1.277,9.293,5.699c9.856,13.933,13.662,32.458,14.487,45.555c0.924,14.611-16.095,37.181-39.909,45.432
    c0,0,1.244-8.051-1.712-15.156c-2.959-7.106-7.035-9.327-6.987-9.135C170.464,82.395,200.443,67.739,203.254,58.143z
     M154.187,90.813c0,0-6.231-12.349-19.001-8.405c-12.77,3.944-7.662,35.115,31.96,48.228
    C188.635,97.594,165.37,71.565,154.187,90.813z M130.053,67.608c14.296,10.271,24.782,14.938,30.015,8.685
    c5.012-5.987,1.065-12.808-1.894-15.936c-0.718-0.758,4.271-5.562,2.582-6.329c-8.474-3.848-11.638-5.793-15.733-8.27
    C130.118,36.74,119.326,59.902,130.053,67.608z M113.423,171.836c-3.984,18.792,4.519,36.53,3.104,48.635
    c-1.86,15.925-7.042,43.134-11.136,57.183c-4.014,13.773-5.59,28.105-3.714,30.239c3.972,4.52,8.514,2.622,13.062-14.157
    c4.751-17.538,23.787-43.823,29.981-63.287c10.447-32.833,10.558-75.214,10.558-75.214
    C130.425,145.302,117.401,153.081,113.423,171.836z M215.419,186.624c-5.504-17.44-55.947-30.163-55.947-30.163
    s-0.738,11.744-1.068,15.657c-0.345,4.098-1.638,16.389-1.638,16.389s30.451,9.623,30.738,18.075
    c0.236,6.856-11.626,42.724-16.125,56.055c-1.048,3.115,0.495,5.218,3.873,5.481c10.719,0.836,33.202,3.02,35.78-1.753
    c2.579-4.773-24.074-7.844-22.53-10.405C200.921,235.312,220.923,204.064,215.419,186.624z M130.557,142.831
    c12.194,11.688,68.669,10.155,78.738,1.647c9.816-8.295,7.888-11.728,1.726-10.74c-8.845,1.42-18.505,6.131-18.505,6.131
    c-18.202-5.052-31.85-6.329-41.23-11.537c-25.229-14.009-29.169-35.269-25.4-42.381C96.587,85.95,102.005,115.464,130.557,142.831z"
    />
</svg>