<svg xmlns="http://www.w3.org/2000/svg" viewBox="0 0 320 320">
    <path d="M307.277,106.428c-3.892-3.371-78.903-82.38-89.942-91.703c-4.644-3.922-6.056-4.714-12.771-4.724 c-24.016-0.036-88.846,0.965-94.425,1.221c-5.579,0.256-8.158,1.332-11.5,4.336S33.247,84.945,24.864,94.412 c-3.85,4.349-7.967,8.109-12.085,12.183c-1.49,1.474-4.282,4.476-1.774,9.879c2.508,5.403,84.15,184.284,85.468,186.603 s2.293,4.727,8.176,5.022c5.625,0.282,108.597,1.823,110.687,1.896s3.467-0.822,5.621-3.401c2.155-2.58,8.189-12.849,11.532-19.435 c4.443-8.757,68.761-155.762,75.29-169.561C310.478,111.895,311.168,109.799,307.277,106.428z M240.287,177.133 c-2.174,3.025-3.989,6.39-6.34,9.281c-3.127,3.845-6.602,1.797-10.12,0.12c-2.226-7.023-4.933-13.906-4.23-21.945 c0.355-4.059,0.136-15.026-5.65-16.148c-16.119-3.125-6.881,51.593-27.928,52.284c-2.26-5.712-6.167-13.744-12.461-18.943 c-4.764-3.935-13.417-7.847-20.442-7.239c-0.359-5.32-3.512-10.65-8.473-13.665c-3.556-2.161-6.8,3.361-3.258,5.506 c5.39,3.264,9.19,17.087-2.352,15.209c-3.122-0.508-7.504-2.164-10.648-0.884c-4.21,1.714-10.231,8.079-13.784-0.423 c-1.69-4.044,0.178-10.726,0.84-14.887c2.462-15.486,6.359-29.232,14.837-42.345c2.702,0.022,5.855-0.156,8.557-0.127 c-1.633,8.115,5.245,25.51,13.759,30.63c10.197,6.132,22.334,7.941,33.307-0.312c8.062-6.063,13.091-18.397,13.505-30.524 c5.003,0.273,10.717,0.021,15.692,0.736c-1.177,4.082,4.811,7.35,6.666,3.178c2.957-6.648,10.85-18.256,19.845-14.241 c7.094,3.166,9.725,13.469,11.328,20.175c2.134,8.929,2.667,18.378-1.163,26.882C248.905,165.813,244.344,171.487,240.287,177.133z M163.177,143.734c3.165,2.222,7.226,1.39,9.354-0.292c2.222-1.757,1.085-5.581-1.964-6.253c-2.006-0.442-1.499-2.687,1.117-2.138 c1.883,0.396,7.887,2.79,10.776,5.354c-1.751,3.593-4.459,6.513-8.731,7.907c-9.303,3.035-16.758-1.941-20.936-9.174 c2.374-1.331,4.515-2.668,6.732-3.519C160,138.325,159.302,141.012,163.177,143.734z M167.993,128.231 c-5.729-0.401-12.106,2.497-16.897,5.853c-1.371-3.44-2.032-6.105-2.064-10.603c12.212-0.047,24.405-0.846,36.634-0.838 c-0.14,3.577-0.375,8.25-1.235,12.019C180.367,130.868,173.097,128.588,167.993,128.231z M184.49,111.248 c-14.131-0.212-28.296,1.003-42.402,1.648c-13.481,0.616-26.935,0.102-40.415,0.371c-4.451,0.089-8.036-0.07-13.31,0.118 c-1.232-13.971-1.057-29.571,8.57-40.393c15.034-16.901,25.775,1.15,36.118-2.156c21.989-7.028,59.059-13.09,78.105-4.345 c8.006,3.676,15.612,8.189,22.527,13.622c3.01,2.365,5.716,5.069,7.744,8.304c2.607,4.156-1.037,11.499-2.826,16.296 c-5.964-0.299-13.298,2.324-19.347,9.939C218.822,114.559,196.701,111.432,184.49,111.248z M122.612,122.989 c-2.802,3.853-4.261,6.001-5.931,10.759c-6.433-4.84-14.471-6.014-22.663-4.64c-3.51,0.589-9.181,3.599-12.781,7.184 c-1.237-3.202-1.451-8.511-1.275-12.563C82.527,123.427,116.515,122.993,122.612,122.989z M85.092,140.425 c1.803-2.025,3.971-3.724,6.618-4.684c-0.184,2.474,0.682,5.666,2.549,7.235c3.445,2.894,7.088,2.635,9.895,0.286 c1.578-1.321,2.229-5.417-1.282-5.867c-3.23-0.413-1.454-2.806,0.225-2.746c4.374,0.157,8.363,2.747,11.45,5.917 c-1.232,6.741-19.846,13.975-29.899,0.422c-0.008-0.011-0.015-0.023-0.023-0.035C84.773,140.785,84.928,140.609,85.092,140.425z M111.191,154.862c-2.756,12.058-4.944,26.424-0.787,30.494c-4.8,2.636-8.615,7.979-11.214,12.259 c-0.008,0.013-0.016,0.028-0.024,0.041c-2.987-6.213-9.325-11.188-12.013-16.631c-1.705-3.452-2.193-7.651-2.792-11.054 c-0.788-4.473-0.992-14.269-0.369-17.418C91.357,157.129,104.525,159.168,111.191,154.862z M114.418,205.632 c3.816,13.831,45.301,5.215,43.218-8.191c-0.051-0.331,5.65,3.066,9.518,6.412c-1.28,16.06-17.529,10.24-29.126,11.774 c-5.263,0.696-10.458,2.826-15.687,3.742c-2.982,0.522-6.191,0.783-9.179,0.202c-3.119-0.607-5.59-2.687-6.109-5.224 C108.531,211.646,113.916,205.933,114.418,205.632z M119.283,203.218c5.229-2.122,13.633-4.463,19.031-5.367 c3.801-0.636,8.487-1.132,13.207-0.935C153.648,204.754,123.892,211.526,119.283,203.218z M50.929,184.796 c-7.522-16.238-23.978-53.218-32.211-69.807c-0.855-1.722-1.472-3.619,0.138-5.08c5.583-5.062,9.592-9.621,14.655-15.15 c8.442-9.219,17.352-18.01,25.76-27.256c1.375-1.512,15.382-15.787,16.743-17.311c-2.633,7.966-2.219,17.678-2.219,21.333 c0,13.229-0.428,18.286,7.993,20.533c-0.62,5.702-0.348,16.408-0.187,21.786c-0.946,0.084-4.001,0.153-7.391,0.448 c-3.39,0.295-3.972,1.692-3.377,12.355c0.55,9.853,2.755,16.33,7.509,21.635c-1.352,4.562-0.922,16.64-0.36,22.542 c0.401,4.207,7.119,32.032,8.216,41.244c0.109,0.912,0.225,1.811,0.342,2.71c-4.772,2.145-14.594,4.649-18.044,6.133 C66.75,218.009,59.886,204.131,50.929,184.796z M104.282,299.866c-3.516-7.28-10.497-20.517-13.99-27.779 c-5.162-10.73-13.227-34.158-19.491-44.14c1.935-0.468,7.984-2.958,9.888-3.454c2.355-0.613,4.738-1.269,7.008-2.174 c1.005,5.525,2.386,10.902,4.526,16.365c4.294,10.959,11.147,19.621,21.207,24.326c0.17,4.772,2.56,10.314,3.769,13.897 c2.837,8.405,6.59,16.457,9.892,24.685c-1.565-0.116-19.09-0.204-20.644-0.238C105.854,301.34,104.525,300.369,104.282,299.866z M191.047,303.181c-7.834-0.004-15.67,0.106-23.506,0.157c-7.944,0.051-29.033-0.659-31.662-0.921 c-0.046-0.213-0.093-0.426-0.18-0.652c-3.225-8.31-6.916-16.435-10.304-24.68c-1.533-3.729-2.887-7.537-4.085-11.385 c0.51,0.117,1.011,0.247,1.535,0.348c16.39,3.144,33.803,6.809,50.551,5.3c9.505-0.856,17.603-4.979,24.599-10.709 c-1.145,5.28-2.317,10.555-3.423,15.844C192.912,284.408,190.122,294.574,191.047,303.181z M243.249,247.534 c-3.535,8.095-11.442,25.651-15.376,33.564c-3.164,6.363-7.293,12.783-9.915,19.515c-0.939,2.412-1.911,3.19-3.909,3.086 c-5.437-0.283-10.877-0.422-16.318-0.482c2.294-7.872,2.748-16.867,4.373-24.682c1.949-9.373,4.17-18.685,6.074-28.065 c1.888-2.235,3.684-4.543,5.385-6.881c9.972-13.71,16.135-31.894,12.187-48.684c5.69,2.103,10.75-1.108,15.151-6.002 c3.226,2.884,7.479,4.784,11.273,6.717c3.889,1.981,7.899,3.758,12,5.278c-0.511,1.312-0.926,2.664-1.526,3.938 C254.416,222.324,251.613,228.383,243.249,247.534z M283.258,155.308c-5.274,12.575-10.799,25.051-15.938,37.68 c-4.265-1.642-8.485-3.361-12.634-5.285c-3.08-1.429-6.385-3.589-8.643-5.514c2.747-3.943,4.456-7.05,6.531-10.152 c8.639-12.912,9.868-24.813,7.06-39.665c-1.387-7.336-3.594-21.229-14.756-26.19c12.609-24.391,2.929-39.506,3.101-49.403 c12.572,12.85,40.232,43.542,52.201,55.049c0.621,0.597,0.563,1.577,0.284,2.248C294.681,127.962,288.921,141.805,283.258,155.308z M240.331,157.334c-4.978,6.284-19.749,4.344-12.939-0.515c4.378-3.123,5.283-4.953,3.292-9.809 c-1.143-2.789-2.364-5.598-2.67-8.623c-0.491-4.842,1.537-13.867,7.991-13.916c6.411-0.049,9.594,6.763,10.682,12.065 C248.307,144.422,245.143,151.26,240.331,157.334z M142.658,279.704c0,2.171-1.834,3.982-4.032,3.982 c-2.198,0-4.032-1.811-4.032-3.982c0-2.171,1.834-3.982,4.032-3.982C140.824,275.722,142.658,277.533,142.658,279.704z M146.592,295.807c-0.479,0.106-0.964,0.152-1.452,0.172c-2.024,0.08-3.714-1.729-3.714-3.668c0-1.939,1.69-3.748,3.714-3.668 c0.488,0.019,0.973,0.066,1.452,0.172C150.107,289.591,150.107,295.029,146.592,295.807z M155.178,283.85 c-0.356,0.24-0.747,0.34-1.149,0.438c-2.16,0.524-4.346-1.019-4.346-3.27c0-2.231,2.189-3.821,4.346-3.27 c1.006,0.257,1.775,0.78,2.329,1.658C157.355,280.988,156.623,282.874,155.178,283.85z M164.831,291.047 c-1.328-1.015-2.455-1.392-4.114-1.047c-2.311,0.482-3.457,3.789-1.867,5.541c0.829,1.433,2.519,2.289,4.297,1.807 c1.283-0.349,2.313-1.366,2.666-2.633C166.138,293.545,165.869,291.84,164.831,291.047z M168.404,284.461 c-4.501,0-4.501-6.894,0-6.894S172.905,284.461,168.404,284.461z M177.577,297.831c-5.152,0-5.152-7.891,0-7.891 C182.729,289.94,182.729,297.831,177.577,297.831z M183.576,282.433l-0.001,0.001c0.002-0.001,0.003-0.002,0.005-0.004 C183.579,282.431,183.577,282.432,183.576,282.433z M183.427,276.888c-0.043-0.034-0.081-0.074-0.127-0.106 c0.096,0.059,0.191,0.123,0.279,0.196C183.53,276.947,183.478,276.918,183.427,276.888z M184.771,282.434 c-1.044,0.975-2.911,0.983-4.074,0.31c-1.084-0.627-1.765-1.798-1.765-3.04c0-1.566,1.088-2.979,2.617-3.395 c0.907-0.246,2.114-0.099,2.948,0.473c-0.538-0.327-1.104-0.44-0.586-0.242c0.253,0.097,0.488,0.217,0.713,0.347 c0.134,0.106,0.287,0.194,0.393,0.327c-0.068-0.085-0.151-0.164-0.24-0.237c0.939,0.596,1.573,1.502,1.573,2.726 s-0.634,2.13-1.573,2.726c0.089-0.073,0.172-0.151,0.24-0.237c-0.072,0.09-0.16,0.161-0.243,0.239 c-0.266,0.169-0.554,0.317-0.862,0.435C183.302,283.101,184.19,282.905,184.771,282.434z M233.943,98.44 c-5.235,0-5.235-8.018,0-8.018C239.178,90.422,239.178,98.44,233.943,98.44z M226.141,100.293c0,2.241-1.894,4.112-4.163,4.112 s-4.163-1.87-4.163-4.112s1.894-4.112,4.163-4.112S226.141,98.051,226.141,100.293z M228.181,86.421 c0,2.337-1.975,4.288-4.341,4.288c-2.367,0-4.341-1.951-4.341-4.288s1.975-4.288,4.341-4.288 C226.206,82.133,228.181,84.084,228.181,86.421z M214.046,92.199c0,2.171-1.834,3.982-4.032,3.982c-2.198,0-4.032-1.811-4.032-3.982 c0-2.171,1.834-3.982,4.032-3.982C212.212,88.216,214.046,90.028,214.046,92.199z M212.54,82.009c-5.212,0-5.212-7.983,0-7.983 S217.752,82.009,212.54,82.009z"/>
</svg>