<svg xmlns="http://www.w3.org/2000/svg" viewBox="0 0 320 320">
    <path d="M136.657,248.528c0.794,0.794,1.343,1.732,1.343,2.91v42.168c0,1.18-0.55,2.28-1.343,3.073S134.742,298,133.56,298h-10.649
    c-2.041,0-3.966-0.548-5.75-1.321c-1.796-0.781-3.371-1.984-4.692-3.305c-1.321-1.321-2.418-2.9-3.199-4.696
    c-0.774-1.784-1.271-3.681-1.271-5.722V247h8v35.957c0,1.805,0.821,3.615,2.083,4.878c1.262,1.261,3.023,2.166,4.828,2.166h5.887
    H130v-1.156v-37.406c0-1.178,0.127-2.117,0.92-2.91c0.802-0.802,1.462-1.157,2.64-1.157
    C134.742,247.37,135.863,247.734,136.657,248.528z M91.591,226.104c-1.097,0-1.802,0.384-2.639,1.191
    c-0.835,0.804-0.952,1.633-0.952,2.811V298h8v-67.894c0-1.18-0.525-2.042-1.328-2.844C93.878,226.468,92.772,226.104,91.591,226.104
    z M74.75,256.333c0.773,1.78,1.25,3.746,1.25,5.788v21.266c0,2.04-0.478,3.938-1.253,5.722c-0.78,1.796-1.917,3.342-3.238,4.663
    c-1.321,1.321-2.872,2.361-4.67,3.142c-1.784,0.773-3.693,1.157-5.735,1.157c-2.041,0-3.997-0.385-5.78-1.157
    c-1.796-0.781-3.394-1.821-4.715-3.142c-1.315-1.315-2.428-2.859-3.212-4.663c-0.778-1.792-1.397-3.692-1.397-5.722v-21.266
    c0-2.032,0.621-3.998,1.397-5.788c0.784-1.807,2.001-3.349,3.315-4.663c1.316-1.315,2.858-2.325,4.663-3.109
    c1.793-0.779,3.725-1.191,5.755-1.191c2.03,0,3.927,0.411,5.722,1.191c1.807,0.783,3.349,1.792,4.663,3.109
    C72.836,252.99,73.97,254.534,74.75,256.333z M68,262.121c0-1.809-0.74-3.435-2.002-4.696c-1.261-1.261-2.939-1.918-4.747-1.918
    c-1.806,0-3.313,0.657-4.575,1.918c-1.262,1.261-1.676,2.888-1.676,4.696v21.266c0,1.805,0.45,3.4,1.712,4.663
    c1.262,1.261,2.686,1.951,4.49,1.951c1.808,0,3.473-0.69,4.735-1.951C67.2,286.787,68,285.191,68,283.386V262.121z M35.268,277.136
    c-1.047-1.825-2.431-3.168-4.2-4.46L21.179,266h-0.033c-1.353-1-2.146-2.898-2.146-4.574v-0.066c0-1.759,0-3.245,2-4.366v-0.066
    c1-1.149,2.756-1.629,4.356-1.323c0.016,0-0.052-0.002-0.038,0c1.673,0.25,3.033,1.211,3.9,2.712
    c0.552,0.978,1.255,1.672,2.363,1.949c1.123,0.281,2.074-0.267,3.058-0.267h0.033c1.044-1,1.613-1.488,1.885-2.578
    c0.281-1.125,0.19-2.124-0.364-3.108c-1.08-1.825-2.475-3.315-4.167-4.464c-1.691-1.149-3.563-1.895-5.589-2.232
    c-0.536-0.087-1.019-0.182-1.521-0.207c-0.385-0.019-0.779-0.018-1.158-0.004c-1.135,0.039-2.21,0.219-3.307,0.56
    c-1.964,0.61-3.732,1.584-5.292,2.942c-1.551,1.418-2.694,3.065-3.473,4.994c-0.777,1.924-1.095,3.925-0.959,6.019
    c0.134,2.098,0.711,4.037,1.72,5.821c1.013,1.79,2.307,3.276,4.002,4.498l10.054,6.912c1.461,0.974,2.308,2.557,2.464,4.498
    c0.159,1.887-0.968,3.531-1.968,4.729v0.033c-1,1.22-3.103,1.79-4.845,1.488c-0.015-0.002-0.026,0-0.042,0
    c-1.864-0.246-3.329-1.352-4.204-2.977c-0.01-0.021-0.058-0.015-0.068-0.033c-0.457-0.81-0.739-1.24-0.96-1.587l-6.88,3.77
    c0.18,0.453,0.407,1.112,0.86,1.918c1.087,1.904,2.452,3.452,4.167,4.63c1.719,1.178,3.651,1.941,5.821,2.282
    c2.175,0.337,4.262,0.209,6.284-0.397c2.019-0.606,3.798-1.652,5.358-3.076c1.626-1.49,2.795-3.167,3.572-5.126
    c0.777-1.96,1.096-4.049,0.959-6.218C36.886,280.92,36.312,278.953,35.268,277.136z M170.404,73H228v134h23V73h41.013
    c6.136,0,11.112-4.847,11.112-10.983c0-6.136-4.977-11.017-11.112-11.017H187.932C182.039,58,176.199,66,170.404,73z
     M108.326,116.17l-0.595-0.695l-19.282-22.06l-9.26,12.865l25.301,29.567c0.85,0.994,2.783,2.352,5.49,2.183
    c1.567-0.098,3.069-1.13,4.266-2.315c1.197-1.185,1.975-2.461,2.394-3.01C141.559,99.99,166,68.29,191,36.828v-0.033
    c2-2.208,3.126-4.625,3.196-6.879c0.07-2.254-0.793-4.38-2.851-6.152c-1.542-1.327-3.036-1.851-4.551-1.852
    c-0.504-0.001-1.016,0.018-1.515,0.132c-1.993,0.46-3.942,1.84-5.553,3.836l-70.873,89.595L108.326,116.17z M230.785,256.333
    c0.773,1.78,1.215,3.746,1.215,5.788v21.266c0,2.04-0.443,3.938-1.218,5.722c-0.78,1.796-1.948,3.342-3.269,4.663
    c-1.321,1.321-2.873,2.361-4.67,3.142c-1.784,0.773-3.694,1.157-5.736,1.157c-2.041,0-3.966-0.385-5.75-1.157
    c-1.796-0.781-3.399-1.821-4.72-3.142c-1.315-1.315-2.437-2.859-3.222-4.663c-0.778-1.792-1.416-3.692-1.416-5.722v-21.266
    c0-2.032,0.64-3.998,1.416-5.788c0.784-1.807,2.02-3.349,3.334-4.663c1.316-1.315,2.858-2.325,4.663-3.109
    c1.793-0.779,3.692-1.191,5.722-1.191c2.03,0,3.927,0.411,5.722,1.191c1.807,0.783,3.349,1.792,4.663,3.109
    C228.841,252.99,230.005,254.534,230.785,256.333z M224,262.121c0-1.809-0.754-3.435-2.016-4.696
    c-1.261-1.261-2.921-1.918-4.728-1.918c-1.806,0-3.282,0.657-4.544,1.918S211,260.312,211,262.121v21.266
    c0,1.805,0.481,3.4,1.743,4.663c1.262,1.261,2.651,1.951,4.455,1.951c1.808,0,3.464-0.69,4.726-1.951
    c1.262-1.263,2.076-2.859,2.076-4.663V262.121z M186.543,230.338c-1.46,0-2.588,0.471-3.605,1.488
    c-1.01,1.009-1.488,2.21-1.488,3.671c0,1.459,0.471,2.588,1.488,3.605c1.017,1.017,2.145,1.455,3.605,1.455
    c1.458,0,2.627-0.446,3.638-1.455c1.018-1.017,1.488-2.146,1.488-3.605c0-1.461-0.478-2.662-1.488-3.671
    C189.17,230.815,188.001,230.338,186.543,230.338z M309.971,283.089c-0.134-2.168-0.71-4.136-1.753-5.953
    c-1.048-1.825-2.464-3.168-4.233-4.46L294.096,266h-0.033c-1.353-1-2.063-2.898-2.063-4.574v-0.066c0-1.759,0-3.245,2-4.366v-0.066
    c1-1.149,2.715-1.629,4.315-1.323c0.015,0-0.073-0.002-0.059,0c1.673,0.25,3.023,1.211,3.89,2.712
    c0.551,0.978,1.282,1.672,2.391,1.949c1.123,0.281,2.036-0.267,3.02-0.267h0.033c1.044-1,1.645-1.488,1.918-2.578
    c0.281-1.125,0.19-2.124-0.364-3.108c-1.081-1.825-2.476-3.315-4.167-4.464c-1.691-1.149-3.564-1.895-5.589-2.232
    c-0.536-0.087-1.053-0.182-1.554-0.207c-0.384-0.019-0.746-0.018-1.124-0.004c-1.135,0.039-2.243,0.219-3.34,0.56
    c-1.964,0.61-3.699,1.584-5.258,2.942c-1.552,1.418-2.694,3.065-3.473,4.994c-0.777,1.924-1.129,3.925-0.992,6.019
    c0.134,2.098,0.711,4.037,1.72,5.821c1.013,1.79,2.34,3.276,4.035,4.498l10.021,6.912c1.461,0.974,2.349,2.557,2.505,4.498
    c0.158,1.887-0.926,3.531-1.926,4.729v0.033c-2,1.22-3.111,1.79-4.854,1.488c-0.015-0.002-0.081,0-0.095,0
    c-1.865-0.246-3.339-1.352-4.215-2.977c-0.01-0.021-0.03-0.015-0.04-0.033c-0.457-0.81-0.775-1.24-0.996-1.587l-6.881,3.77
    c0.18,0.453,0.439,1.112,0.892,1.918c1.087,1.904,2.418,3.452,4.134,4.63c1.718,1.178,3.65,1.941,5.821,2.282
    c2.173,0.337,4.294,0.209,6.317-0.397c2.02-0.606,3.798-1.652,5.358-3.076c1.626-1.49,2.761-3.167,3.539-5.126
    C309.756,287.347,310.108,285.257,309.971,283.089z M268.961,252.133c-1.321-1.321-2.867-2.279-4.663-3.059
    c-1.784-0.775-3.715-1.074-5.755-1.074h-10.616c-1.18,0-2.046,0.28-2.84,1.074c-0.802,0.802-1.087,1.583-1.087,2.761V298h8v-41.336
    V256h0.722h5.821c1.806,0,3.356,0.64,4.618,1.903c1.262,1.261,1.839,2.808,1.839,4.615v31.552c0,1.18,0.433,2.04,1.236,2.844
    c0.794,0.794,1.772,1.157,2.95,1.157c1.1,0,1.887-0.376,2.734-1.191c0.835-0.804,1.08-1.635,1.08-2.811v-31.552
    c0-2.042-0.253-3.938-1.027-5.722C271.192,254.997,270.282,253.453,268.961,252.133z M169.445,248h-5.887H163v-0.928v-16.966
    c0-1.18-0.44-2.042-1.243-2.844c-0.794-0.794-1.772-1.158-2.953-1.158c-1.178,0-1.96,0.356-2.762,1.158
    c-0.802,0.802-1.042,1.664-1.042,2.844v16.966V248h-1.001H146v8h7.999H155v0.664V298h8v-41.336V256h0.558h5.887
    c1.18,0,2.042-0.404,2.844-1.206c0.794-0.794,1.158-1.754,1.158-2.935c0-1.178-0.355-1.971-1.158-2.773
    C171.487,248.282,170.626,248,169.445,248z M149.601,99.898c1.66,4.674,2.58,9.718,2.58,14.982c0,24.624-19.76,44.318-44.384,44.318
    c-24.623,0-44.384-19.694-44.384-44.318c0-24.624,19.76-44.384,44.384-44.384c8.629,0,16.656,2.404,23.449,6.615l13.725-17.363
    c-10.628-7.211-23.57-11.443-37.317-11.443C71.036,48.304,41,78.262,41,114.88V207h22v-40.989v-1.621l1.43,1.058
    c11.635,9.945,26.822,15.941,43.247,15.941c36.618,0,66.569-29.892,66.569-66.51c0-12.604-3.52-24.421-9.66-34.495
    C159.568,86.85,154.603,93.374,149.601,99.898z M186.543,247.37c-1.18,0-1.828,0.353-2.631,1.157
    c-0.794,0.794-0.912,1.732-0.912,2.91V298h8v-46.562c0-1.178-0.558-2.117-1.352-2.91S187.721,247.37,186.543,247.37z"/>
</svg>