<svg xmlns="http://www.w3.org/2000/svg" viewBox="0 0 320 320">
    <path d="M283.797,205.434c-11.615,23.473-18.835,18.83-14.795,2.508C301.89,75.063,242.837,59.884,207.855,88.921
	c-7.945-35.013-39.953-37.645-63.39-18.77c6.542-61.885-76.594-52.649-131.475,76.129c-14.002,32.86,25.08,53.96,36.45,29.177
	c21.191-46.188,33.528-82.373,44.374-71.527c12.731,12.731-18.494,87.28-21.792,142.802c-3.615,60.858,47.825,42.022,46.112,12.68
	c-2.532-43.395,3.99-87.364,20.368-122.697c11.237-25.422,25.696-26.595,33.15-16.62c-13.582,16.403-22.913,41.533-26.988,72.813
	c-12.498,95.931,89.019,112.616,70.817-55.559c17.66-8.038,27.767,11.027,19.742,46.449
	c-21.739,95.945,34.913,115.867,69.719,53.877C320.628,209.74,295.921,180.931,283.797,205.434z M188.856,176.532
	c-1.859,47.577-19.479,50.353-14.491,3.203c3.258-21.184,11.687-28.169,11.687-28.169S189.3,165.204,188.856,176.532z"/>
</svg>