<svg version="1.2" xmlns="http://www.w3.org/2000/svg" viewBox="0 0 320 320">
    <path d="M169.191,50.247c-1.218-3.129-2.221-6.311-4.369-8.961c-1.682-2.075,1.172-5.059,2.984-2.984 c2.689,3.081,4.61,6.816,5.514,10.807C173.941,51.85,170.177,52.78,169.191,50.247z M181.46,45.841 c-1.951-3.678-4.417-8.017-8.362-9.858c-1.486-0.693-3.326,1.229-1.88,2.436c3.168,2.644,5.018,5.748,6.777,9.447 C179.097,50.181,182.681,48.143,181.46,45.841z M167.106,33.186c-0.944-4.044-3.947-8.11-6.662-11.172 c-1.645-1.855-4.786,0.576-3.427,2.644c1.106,1.683,2.24,3.326,3.235,5.081c0.964,1.699,1.651,3.547,2.676,5.208 C164.308,37.181,167.695,35.712,167.106,33.186z M173.653,28.994c-1.699-4.214-4.384-7.798-8.549-9.815 c-2.065-1-3.858,1.953-1.816,3.108c3.07,1.736,5.11,4.541,6.277,7.835C170.481,32.708,174.663,31.5,173.653,28.994z M180.036,246.692c-2.017-1.985-4.05-3.95-6.096-5.906c-1.679-1.605-4.15,0.866-2.545,2.545c1.955,2.046,3.921,4.079,5.906,6.096 C179.052,251.207,181.815,248.444,180.036,246.692z M193.78,252.364c-1.948-1.198-3.91-2.377-5.589-3.943 c-1.869-1.745-4.602,0.969-2.808,2.808c1.995,2.045,4.245,3.638,6.883,4.727C194.39,256.832,195.605,253.486,193.78,252.364z M146.217,286.224c-0.872,1.45-1.456,3.026-2.189,4.547c-0.497,1.031-0.292,2.26,0.753,2.872c0.94,0.551,2.358,0.268,2.872-0.753 c0.839-1.668,1.567-3.377,2.25-5.112C150.763,285.591,147.357,284.327,146.217,286.224z M152.46,289.234 c-1.322-0.364-2.397,0.447-2.862,1.625c-0.567,1.437-1.267,2.814-2.147,4.085c-1.43,2.066,1.939,4.684,3.492,2.694 c1.351-1.731,2.302-3.519,3.142-5.543C154.572,290.923,153.568,289.539,152.46,289.234z M140.352,294.346 c-1.611,0.678-3.168,1.271-4.908,1.51c-2.9,0.399-2.471,4.785,0.459,4.527c2.375-0.209,4.594-0.792,6.642-2.023 C144.808,297,142.731,293.345,140.352,294.346z M146.913,301.399c-0.676-1.272-2.149-1.594-3.4-1.038 c-1.424,0.634-2.914,1.046-4.417,1.448c-2.899,0.777-1.939,5.076,1.016,4.542c1.986-0.359,3.888-0.787,5.763-1.552 C147.145,304.28,147.506,302.515,146.913,301.399z M131.014,305.088c-1.645,0.211-3.284,0.326-4.942,0.353 c-2.934,0.048-2.934,4.505,0,4.55c1.869,0.029,3.721,0.014,5.547-0.434c0.979-0.241,1.67-1.203,1.67-2.194 C133.29,306.242,132.248,304.929,131.014,305.088z M129.344,297.571c-1.818,0.073-3.645,0.129-5.431,0.697 c-1.519,0.484-1.18,4.279,0.366,4.144c1.69-0.148,3.374-0.151,5.065-0.084C131.345,302.407,131.345,297.491,129.344,297.571z M118.329,302.716c-0.34-0.159-0.661-0.344-0.987-0.53c-0.192-0.109-0.34-0.22-0.686-0.489c-0.649-0.504-0.848-0.725-1.329-1.439 c-0.667-0.99-2.122-1.17-3.063-0.486c-1.009,0.734-1.129,2.055-0.486,3.063c1.078,1.688,2.813,3.217,4.722,3.868 c1.131,0.386,2.371,0.087,2.907-1.079C119.91,304.532,119.41,303.22,118.329,302.716z M121.058,295.578 c-0.897-1.443-2.004-2.742-2.833-4.231c-0.625-1.121-2.135-1.485-3.226-0.846c-1.178,0.69-1.397,2.065-0.846,3.226 c0.82,1.726,1.913,3.299,3.185,4.72C119.145,300.465,122.469,297.848,121.058,295.578z M111.268,293.155 c-0.896-2.185-1.555-4.453-2.335-6.68c-0.953-2.722-4.878-1.648-4.309,1.18c0.513,2.552,1.281,4.952,2.323,7.336 C108.013,297.428,112.279,295.618,111.268,293.155z M116.384,285.545c-0.14-0.344-0.208-0.709-0.282-1.073 c-0.001-0.009-0.002-0.01-0.003-0.018c-0.005-0.052-0.011-0.105-0.016-0.158c-0.018-0.194-0.028-0.39-0.039-0.585 c-0.074-1.266-1.002-2.327-2.327-2.327c-1.323,0-2.254,1.061-2.327,2.327c-0.074,1.297,0.007,2.499,0.608,3.682 c0.483,0.951,1.719,1.375,2.709,1.103C115.859,288.18,116.877,286.759,116.384,285.545z M105.887,272.564 c-1.238-0.34-2.653,0.407-2.964,1.683c-0.445,1.825-0.484,3.714-0.511,5.582c-0.048,3.201,5.01,3.201,4.964,0 c-0.02-1.425-0.104-2.9,0.195-4.301C107.843,274.245,107.207,272.927,105.887,272.564z M99.951,288.362 c-2.714-0.027-5.409,0.085-8.119-0.146c-2.462-0.21-3.04,3.965-0.586,4.327c2.88,0.424,5.792,0.666,8.704,0.638 C103.059,293.152,103.059,288.394,99.951,288.362z M90.792,286.269c2.953,0.224,5.866-0.043,8.73-0.795 c2.308-0.606,1.377-4.514-0.965-4.072c-2.553,0.482-5.048,0.267-7.621,0.339C88.372,281.813,88.22,286.074,90.792,286.269z M86.149,287.986c-2.572-1.038-5.21-2.028-7.837-2.918c-2.429-0.822-3.99,2.938-1.737,4.121c2.634,1.382,5.427,2.674,8.233,3.664 c1.298,0.458,2.759-0.507,3.104-1.762C88.308,289.648,87.424,288.5,86.149,287.986z M76.375,281.716 c2.563,1.48,5.132,2.676,8.03,3.323c2.45,0.547,3.378-3.594,0.991-4.294c-2.238-0.657-4.213-1.763-6.155-3.032 C76.556,275.958,73.662,280.149,76.375,281.716z M72.417,281.318c-1.243-2.215-3.084-3.982-4.432-6.125 c-1.068-1.699-4.928,0.629-4.02,2.468c1.206,2.442,2.937,4.46,4.511,6.642C69.893,286.268,73.568,283.369,72.417,281.318z M75.901,271.757c-0.044-0.052-0.076-0.09-0.101-0.12c-0.059-0.086-0.117-0.172-0.179-0.256c-0.157-0.22-0.287-0.455-0.412-0.694 c-0.015-0.032-0.023-0.048-0.034-0.072c-0.034-0.091-0.068-0.182-0.099-0.275c-0.119-0.342-0.212-0.694-0.306-1.044 c-0.344-1.284-1.727-2.056-3.002-1.705c-1.314,0.361-2.014,1.709-1.705,3.002c0.416,1.738,1.063,3.362,2.4,4.6 c0.971,0.899,2.474,0.963,3.437,0C76.889,274.206,76.765,272.759,75.901,271.757z M68.216,268.732 c0.559-1.238,0.368-2.671-0.894-3.41c-1.125-0.659-2.788-0.312-3.41,0.894c-0.664,1.286-1.061,2.624-1.026,4.082 c0.033,1.347,1.1,2.472,2.472,2.472c1.416,0,2.381-1.128,2.472-2.472c0.004-0.056,0.004-0.081,0.006-0.114 c0.004-0.022,0.007-0.03,0.012-0.059c0.038-0.202,0.096-0.401,0.146-0.601c0.048-0.192,0.099-0.381,0.156-0.571 C68.196,268.802,68.525,268.049,68.216,268.732z M66.667,257.751c-1.283-2.139-2.628-4.229-4.442-5.961 c-0.872-0.833-2.135-1.086-3.121-0.245c-0.914,0.779-1.033,2.21-0.245,3.121c1.502,1.737,2.734,3.664,3.995,5.577 C64.288,262.418,68.001,259.976,66.667,257.751z M67.658,253.557c1.346,1.849,2.914,3.889,4.817,5.196 c2.388,1.639,4.876-1.314,2.889-3.409c-1.363-1.437-2.569-2.956-3.834-4.481C69.62,248.561,65.842,251.062,67.658,253.557z M59.546,245.658c-0.991-1.854-1.981-3.631-1.956-5.787c0.01-0.855-0.85-1.592-1.63-1.719c-1.106-0.18-2,0.579-2.243,1.616 c-0.65,2.782,0.586,5.624,1.95,7.989C56.924,249.936,60.735,247.881,59.546,245.658z M67.287,244.461 c-1.03-1.363-2.015-2.749-1.865-4.521c0.207-2.444-3.864-3-4.286-0.58c-0.543,3.113,0.716,5.457,2.643,7.807 C65.38,249.122,68.814,246.482,67.287,244.461z M73.484,241.087c-0.834-2.39-4.725-1.075-4.199,1.34 c0.516,2.37,1.761,4.566,3.338,6.391c1.671,1.932,5.108-0.175,3.829-2.497C75.48,244.557,74.155,243.011,73.484,241.087z M52.902,225.083c-1.057,2.486-1.53,5.101-1.218,7.798c0.397,3.434,5.134,2.794,4.672-0.632c-0.254-1.885,0.088-3.673,0.497-5.5 C57.361,224.475,53.901,222.733,52.902,225.083z M61.61,223.604c-1.879,2.627-1.884,5.799-1.41,8.862 c0.415,2.687,5.057,2.061,4.753-0.643c-0.228-2.029-0.364-4.045,0.621-5.901C66.985,223.265,63.311,221.226,61.61,223.604z M70.164,234.54c0.085,1.269,1.312,2.223,2.551,2.102c1.38-0.135,2.071-1.278,2.102-2.551c0.044-1.79,0.286-3.602,0.857-5.304 c0.948-2.821-2.789-4.656-4.243-1.96C70.156,229.192,69.987,231.904,70.164,234.54z M57.234,212.403 c-1.618,1.621-3.129,3.732-3.458,6.049c-0.19,1.344,0.307,2.671,1.741,3.066c1.338,0.368,2.669-0.443,3.066-1.741 c0.449-1.467,1.1-2.685,2.19-3.835C62.992,213.603,59.52,210.112,57.234,212.403z M70.41,210.407 c-1.192-0.698-2.404-0.17-3.169,0.831c-1.36,1.779-2.108,3.867-2.123,6.111c-0.02,3.053,4.586,3.024,4.716,0 c0.059-1.375,0.64-2.648,1.407-3.773C71.954,212.532,71.442,211.012,70.41,210.407z M72.63,219.997 c-0.179,1.186,0.479,2.351,1.705,2.608c1.132,0.238,2.419-0.519,2.608-1.705c0.075-0.47,0.153-0.938,0.25-1.404 c0.048-0.229,0.109-0.454,0.171-0.678c0.021-0.076,0.29-0.864,0.161-0.532c0.424-1.093,0.198-2.318-0.928-2.897 c-1.089-0.561-2.3-0.081-2.897,0.928C73.036,217.439,72.823,218.725,72.63,219.997z M77.089,212.111 c1.483,0.037,2.388-1.093,2.575-2.449c-0.067,0.482,0.069-0.22,0.081-0.266c0.053-0.198,0.129-0.392,0.201-0.586 c-0.085,0.265,0.109-0.195,0.205-0.36c0.049-0.052,0.097-0.104,0.148-0.153c1.018-1.015,1.102-2.668,0.094-3.728 c-0.98-1.031-2.7-1.099-3.728-0.094c-1.393,1.363-2.122,3.105-2.024,5.06C74.709,210.902,75.644,212.074,77.089,212.111z M266.962,231.094c-4.24,10.58-12.02,18.147-23.236,18.722c-0.068,0.748-0.464,1.451-1.25,1.927c-4,2.424-7.599,5.553-10.642,9.111 c-1.758,2.055-2.964,5.081-5.121,6.756c-1.575,1.222-3.62,1.301-5.722,0.821c-0.198,0.089-0.418,0.155-0.669,0.178 c-6.734,0.627-13.426,0.545-20.081-0.81c-12.036-2.451-30.281-9.133-41.25-19.914c-4.478,6.509-6.104,16.503-8.73,25.62 c0.46,0.162,0.881,0.442,1.191,0.872c5.163,7.15,19.147,8.617,27.106,9.401c5.168,0.509,10.401,0.849,15.59,0.456 c3.677-0.278,6.64-1.565,10.105-2.342c2.568-0.575,5.686,2.377,3.784,4.922c-2.746,3.674-8.674,4.121-12.911,4.427 c-6.622,0.478-13.293,0.09-19.851-0.917c-8.296-1.274-21.479-3.533-26.795-11.36c-3.193,8.55-8.168,15.337-18.768,16.014 c-9.695,0.618-11.218-7.468-10.073-16.216c-5.408,0.546-10.602-2.096-10.396-8.376c0.039-1.202,0.19-2.393,0.429-3.566 c-0.169-0.054-0.326-0.142-0.473-0.25c-0.218,0.099-0.475,0.161-0.775,0.168c-3.721,0.084-6.287-1.258-8.025-3.426 c-0.255,0.497-0.754,0.895-1.506,0.986c-12.316,1.487-15.956-12.655-14.903-22.264c1.146-10.462,6.439-21.011,14.535-28.062 c-0.431-0.057-0.864-0.221-1.27-0.548c-4.422-3.56-10.102-4.445-12.018-10.419c-2.003-6.245,1.982-15.169,5.058-20.431 c3.293-5.633,6.993-9.473,13.226-11.64c4.126-1.435,7.7-3.789,11.709-5.453c1.961-0.814,3.915-1.64,5.867-2.472 c-3.603-4.217-8.626-6.857-12.675-10.645c-4.232-3.959-8.346-8.042-12.439-12.146c-0.671,1.017-1.504,1.954-2.037,2.605 c-2.409,2.941-6.35,5.033-8.227,8.355c-6.892,12.199,0.99,29.241-9.139,40.323c-0.528,0.578-1.575,0.899-2.326,0.615 c-4.464-1.689-2.09,4.417-1.452,6.633c0.198,0.687,0.028,1.703-0.573,2.168c-3.692,2.854-7.835,4.728-12.198,6.25 c-0.682,2.113-3.921,3.21-5.318,0.711c-8.809-15.746-3.054-34.694,4.774-49.695c-0.274-1.16-0.709-2.371-1.343-3.67 c-1.725-3.533-2.813-7.119-2.321-11.107c0.821-6.661,2.993-13.527,5.898-19.602c1.805-3.775,4.903-9.856,10.017-9.1 c5.632,0.832,9.668,7.272,13.538,10.853c3.736,3.457,9.62,5.338,11.461,10.511c5.399,4.879,10.694,9.87,16.304,14.513 c4.093,3.388,9.331,5.53,12.228,10.165c0.079,0.126,0.138,0.254,0.187,0.383c1.009-0.438,2.02-0.87,3.027-1.313 c8.307-3.657,17-6.073,25.586-8.951c8.924-2.991,17.374-7.382,26.434-9.956c15.194-4.317,31.56-10.885,39.226-25.726 c-0.092-0.403-0.275-0.716-0.605-0.87c-1.081-0.505-2.944,0.252-3.986,0.574c-3.286,1.015-6.625,2.416-10.099,2.606 c-7.355,0.401-10.678-4.926-9.896-11.645c0.219-1.884,2.014-8.64,0.323-10.103c-0.814-0.705-1.927-0.595-3.124-0.067 c-0.135,1.147-1.12,2.246-2.574,1.889c-0.087-0.021-0.172-0.047-0.259-0.069c-1.883,1.514-3.579,3.362-4.276,4.116 c-5.409,5.85-12.1,13.623-20.637,8.643c-3.028-1.766-0.176-6.601,2.735-4.679c6.237,4.118,11.228-3.713,16.864-9.636 c-10.794-3.576-20.842-9.2-32.066-11.561c-0.163-0.034-0.302-0.098-0.428-0.173c-4.684,1.446-11.038,2.779-14.833,6.14 c3.356,9.989,4.719,20.858,4.803,31.337c0.022,2.815-4.355,2.814-4.364,0c-0.046-13.312-2.081-26.021-7.359-37.193 c-2.826,1.756-6.02,2.563-9.274,2.4c-4.256,8.887-1.836,20.816-1.73,30.205c0.035,3.095-4.779,3.093-4.799,0 c-0.058-9.506-2.202-21.968,2.545-30.886c-2.09-0.62-4.153-1.649-6.109-3.097c-16.297-12.068,5.175-37.169,17.303-27.528 c-2.342-9.478,2.571-22.289,8.903-30.67c-0.101-1.151,0.066-2.331,0.475-3.468c-9.448-7.749-24.032-7.819-35.468-5.663 c-11.506,2.17-22.986,6.591-29.912,16.572c-12.964,18.686-12.218,47.846,6.355,62.684c1.538,1.229-0.509,3.878-2.105,2.729 C54.513,82.21,54.123,48.256,69.555,28.238c8.436-10.943,21.856-15.695,35.123-17.538c11.863-1.648,25.619-0.762,35.385,6.787 c3.14-2.523,8.047-2.766,11.319-0.262c2.64,2.021,3.884,4.706,3.522,7.457c6.391,10.458,10.822,22.175,11.201,34.525 c2.974-8.394,22.391-5.632,27.738-2.101c4.299,2.839,6.965,7.045,8.149,11.696c0.534-0.087,1.097,0.102,1.556,0.474 c1.76,1.428,3.193,3.165,4.611,4.92c0.291,0.36,0.468,0.783,0.496,1.206c1.124,1.437,2.037,3.014,2.71,4.791 c0.758,2.002,1.206,3.954,1.628,5.955c10.558-9.596,19.591-23.484,7.775-36.234c-10.539-11.373-25.188-18.188-40.13-11.489 c-2.887,1.294-5.348-2.62-2.526-4.322c15.903-9.596,37.344,0.883,47.452,14.455c3.747,5.03,5.311,10.12,5.238,15.033 c1.736-0.288,3.752-0.015,5.116,0.152c4.011,0.491,8.123,1.046,11.939,2.431c1.44,0.523,2.159,1.761,1.858,3.273 c-1.493,7.501-4.506,14.419-9.635,20.063c5.296,4.974,7.315,14.106,7.459,20.7c0.052,2.415-0.097,5.015-0.435,7.705 c5.545,2.254,6.205,7.699,6.923,13.092c0.177,0.011,0.358,0.033,0.547,0.081c4.984,1.258,10.139,3.872,11.416,9.327 c1.28,5.473-0.009,11.064-0.357,16.573c-0.025,0.403-0.15,0.733-0.331,1.004c1.223,2.082,1.947,4.413,1.815,7.006 c-0.17,3.343-1.191,6.174-2.64,8.792c4.342,7.061,1.131,15.591-2.74,22.773C271.634,203.685,271.003,221.008,266.962,231.094z M110.289,70.54c2.941-0.503,5.882-1.113,8.798-1.851c-1.73-1.821-3.587-3.577-5.627-5.235 C111.828,65.533,110.675,68.037,110.289,70.54z M112.132,78.13c2.303-1.62,4.501-3.583,6.585-5.709 c-2.756,0.682-5.566,1.177-8.472,1.368C110.47,75.352,111.071,76.837,112.132,78.13z M119.502,76.481 c-1.419,1.425-2.932,2.764-4.615,3.956c1.458,0.853,2.97,1.444,4.481,1.775C119.374,80.296,119.427,78.387,119.502,76.481z M119.937,64.236c0.015-1.788-0.005-3.58-0.097-5.38c-0.001-0.017,0.003-0.032,0.003-0.049c-1.43,0.44-2.805,1.217-4.046,2.243 C117.254,62.049,118.628,63.116,119.937,64.236z M131.703,54.097c7.779-5.268,19.009-3.367,28.312,1.757 c-0.685-9.259-3.749-17.898-7.549-26.301c-1.521,1.605-3.297,2.277-5.054,2.247c-2.393,0.599-5.008,0.245-7.239-1.266 c-0.225-0.153-0.433-0.316-0.636-0.482C134.903,37.093,131.861,46.117,131.703,54.097z M128.147,65.941 c1.69-0.606,3.354-1.268,4.996-1.975c-0.505-0.727-1.159-1.36-1.999-1.851c-0.007,0.009-0.011,0.018-0.019,0.028 C130.1,63.393,129.117,64.666,128.147,65.941z M123.073,58.442c0.488,2.604,0.781,5.267,0.944,7.95 c1.473-1.873,2.846-3.771,4.088-5.624c-0.04-0.038-0.093-0.066-0.129-0.106C126.413,59.271,124.743,58.588,123.073,58.442z M128.096,80.887c-1.187-2.14-2.518-4.21-3.983-6.212c-0.086,2.61-0.26,5.208-0.503,7.758 C125.191,82.24,126.71,81.732,128.096,80.887z M132.505,76.2c1.413-2.515,2.291-5.92,1.88-8.874 c-2.847,0.974-5.656,2.005-8.478,2.956c2.023,2.409,3.837,4.969,5.414,7.677C131.742,77.416,132.144,76.841,132.505,76.2z M172.424,72.195c-6.494-10.323-28.443-22.581-39.255-13.062c5.827,4.952,7.024,12.856,2.403,19.824 c-0.681,1.026-1.43,1.945-2.227,2.776c0.742,1.507,1.427,3.047,2.057,4.614c3.111-3,9.182-4.566,12.281-5.624 C155.951,77.901,164.27,75.317,172.424,72.195z M195.421,64.765c-0.144,0.169-0.32,0.321-0.545,0.439 c-1.363,0.714-0.957,2.642-1.566,3.823c-0.697,1.349-1.001,1.706-2.08,2.811c-2.27,2.326-6.199,1.44-8.34,3.991 c-1.708,2.036-2.804,4.823-5.08,6.348c-1.908,1.279-5.963,2.164-7.039,4.228c5.608,2.202,11.159,4.621,16.929,6.307 c1.296-0.995,2.64-1.763,4.052-2.175c-0.245-0.785-0.12-1.678,0.629-2.439C197.689,82.702,200.019,71.48,195.421,64.765z M102.726,210.797c0.396-0.255,0.786-0.52,1.191-0.759c0.341-1.101,0.77-2.208,1.248-3.373c3.736-9.111,7.253-21.741,19.891-17.156 c8.63,3.131,16.206-0.924,22.783-6.515c-3.344-2.981-6.95-5.749-9.154-9.568c-3.245,2.075-6.628,3.934-10.312,5.002 c-5.208,1.509-10.927,2.946-15.359,6.219c-4.909,3.626-9.571,9.362-11.203,15.344C100.685,204.117,101.107,207.652,102.726,210.797z M151.855,179.315c1.944-1.889,3.792-3.813,5.541-5.594c3.944-4.015,7.96-8.857,13.121-11.35c5.846-2.824,12.986-3.909,18.199-7.868 c2.786-2.116,5.048-4.742,7.231-7.45c-3.86,2.308-7.912,4.303-12.178,5.895c-13.233,4.938-27.061,8.307-38.898,16.322 c-0.909,0.615-1.824,1.243-2.743,1.87C144.933,174.23,148.586,176.621,151.855,179.315z M156.711,245.462 c-5.845-6.762-8.774-14.967-5.948-24.591c3.591-12.229,12.463-24.55,21.568-33.324c5.569-5.367,12.137-9.441,17.898-14.587 c5.301-4.734,9.984-10.104,15.229-14.863c2.327-2.112,4.61-3.92,7.668-4.785c3.03-0.857,5.95-0.12,8.891-1.669 c4.611-2.428,8.618-5.943,11.627-10.213c6.329-8.983,10.306-20.121,9.728-31.22c-0.286-5.496-1.553-12.113-5.49-16.29 c-6.476-6.871-11.753-0.982-18.859,0.189c-3.188,0.525-8.214,1.006-9.712-2.691c-2.154-5.316-1.489-10.666-6.215-14.981 c-0.175-0.16-0.307-0.328-0.418-0.499c-0.277,5.372-2.269,10.731-5.785,14.842c6.181,2.427,3.726,10.833,3.301,15.897 c-0.854,10.181,10.405,3.844,15.956,3.035c8.649-1.26,8.8,7.017,6.371,13.326c-2.149,5.583-6.655,10.351-10.942,14.378 c-4.717,4.431-8.829,8.881-12.889,13.925c-4.286,5.325-9.091,9.104-15.54,11.506c-6.567,2.446-12.166,4.509-17.244,9.512 c-3.39,3.341-6.76,7.022-10.326,10.491c1.26,1.43,2.34,3.005,3.102,4.837c1.196,2.875-3.458,4.676-4.933,2.08 c-0.645-1.135-1.419-2.17-2.265-3.149c-3.715,3.204-7.704,5.997-12.191,7.823c-5.532,2.251-10.074,2.129-15.675,0.294 c-8.78-2.878-9.872,6.147-12.164,12.263c-1.008,2.69-3.147,6.484-1.431,9.289c1.981,3.239,4.649,6.094,7.753,8.304 c5.708,4.063,11.982,6.961,18.433,9.638c2.635,1.094,1.722,5.023-1.204,4.368c-8.849-1.983-18.157-5.801-24.802-12.162 c-2.092-2.003-4.96-4.802-6.262-7.793c-0.51-0.439-0.986-0.892-1.44-1.354c-6.992,6.094-12.363,14.409-13.372,23.717 c-0.896,8.268-0.446,18.692,9.736,19.756c-2.729-6.114-1.706-15.479-0.73-21.064c0.435-2.492,4.731-1.921,4.428,0.599 c-0.753,6.268-3.409,21.35,5.455,22.9c-0.367-3.223,0.545-6.513,1.498-9.612c0.68-2.21,4.13-1.277,3.47,0.957 c-0.686,2.322-1.521,4.689-1.622,7.082c1.193-2.671,2.809-5.165,4.661-7.375c1.879-2.241,4.878,0.937,3.159,3.159 c-2.343,3.028-4.316,6.932-5.057,10.7c-0.994,5.053,1.209,6.948,6.081,7.24c1.167-5.87,3.208-11.571,4.486-14.703 c0.853-2.091,4.244-1.278,3.47,0.957c-2.733,7.893-11.023,34.56,6.301,27.796c17.075-6.667,9.834-32.639,22.218-43.91 C156.689,245.476,156.7,245.471,156.711,245.462z M212.597,264.401c-0.033-0.022-0.07-0.046-0.102-0.067 c-5.95-4.026-10.917-9.102-16.324-13.784c-6.979-6.044-14.047-11.989-21.059-17.995c-2.498-2.139,1.096-5.642,3.583-3.583 c10.762,8.91,21.093,18.413,31.918,27.217c0.242,0.197,0.488,0.394,0.733,0.591c3.158-9.812-0.367-18.858-2.543-28.597 c-0.078-0.35-0.082-0.673-0.029-0.968c-1.078-0.877-2.139-1.774-3.164-2.714c-11.04-10.125-21.741-20.056-34.491-27.983 c-5.65,6.543-10.344,13.935-13.918,21.783c-7.087,15.565,5.916,28.185,18.587,34.99 C187.423,259.538,199.682,263.088,212.597,264.401z M259.26,200.908c-0.105,0.176-0.209,0.353-0.312,0.527 c-5.754,9.672-13.681,14.902-25.212,14.4c-3.07-0.134-3.033-4.528,0-4.736c4.012-0.276,8.288-0.322,11.928-2.252 c-0.221-0.367-0.365-0.82-0.373-1.381c-0.04-2.547-0.623-5.064-0.766-7.586c-4.497,4.24-9.809,7.402-17.037,8.545 c-2.176,0.344-3.115-2.976-0.918-3.331c12.845-2.076,18.982-10.701,26.005-20.683c2.432-3.456,5.821-6.891,8.109-10.679 c-0.032-0.653,0.356-1.273,0.888-1.616c0.413-0.829,0.769-1.674,1.036-2.543c2.099-6.85-1.56-11.554-7.053-15.058 c-1.417,3.119-3.363,5.935-5.473,8.73c-2.873,3.806-5.47,8.098-8.866,11.477c-3.911,3.891-8.559,6.074-13.298,8.78 c-5.604,3.199-10.26,6.87-15.117,11.063c-3.419,2.952-6.931,5.585-11.319,6.865c-2.704,0.789-3.861-3.638-1.149-4.168 c4.9-0.958,8.513-4.342,12.106-7.593c3.197-2.892,6.507-5.325,10.261-7.479c4.461-2.56,9.833-4.727,13.522-8.388 c2.676-2.655,4.654-5.741,6.812-8.805c5.037-7.154,11.727-14.257,8.482-23.602c-1.246-3.588-1.941-7.088-2.12-10.882 c-0.16-3.398-0.325-6.732-2.886-8.822c-2.925,15.544-12.062,32.725-27.475,35.581c-2.455,0.455-4.782-0.201-7.055,1.405 c-1.615,1.142-3.049,2.399-4.398,3.837c-2.316,2.469-4.599,4.951-7.013,7.328c-5.136,5.057-10.424,10.016-16.219,14.321 c-3.612,2.683-6.989,5.68-10.114,8.927c13.577,6.56,24.517,17.16,35.475,27.311c9.855,9.129,22.487,15.036,31.48,25.066 c10.195-1.518,17.673-6.929,20.946-17.203C265.283,218.395,264.958,209.296,259.26,200.908z M258.579,191.659 c-0.008,0.17-0.028,0.342-0.08,0.52c-0.021,0.073-0.047,0.144-0.069,0.217c0.651-1.235,1.273-2.511,1.822-3.811 C259.724,189.626,259.17,190.652,258.579,191.659z M144.362,35.662c-0.849,2.585-1.114,5.311-0.89,8.015 c0.252,3.051,4.482,3.049,4.736,0c0.19-2.271,0.062-4.567,0.522-6.811C149.316,34.009,145.277,32.877,144.362,35.662z M129.588,152.082c-4.229-7.435-13.336-11.586-19.575-17.132c-9.035-8.032-17.743-16.419-26.953-24.256 c-1.528-1.301-3.751,0.87-2.223,2.223c8.544,7.571,16.668,15.59,24.981,23.409c2.944,2.769,5.882,5.427,9.157,7.795 c4.057,2.932,8.518,5.583,11.112,10.008C127.409,156.382,130.882,154.358,129.588,152.082z M134.3,144.171 c-17.611-13.745-29.971-32.932-47.841-46.4c-1.759-1.326-4.076,1.682-2.356,3.054c17.479,13.939,29.777,33.164,47.59,46.725 C133.633,149.025,136.219,145.668,134.3,144.171z M105.347,101.536c-4.008-5.393-8.612-10.365-14.267-14.055 c-2.199-1.434-4.087,1.981-2.025,3.465c5.068,3.648,8.923,8.465,12.898,13.21C103.522,106.028,106.811,103.505,105.347,101.536z M108.009,89.98c-3.404-3.359-7.06-6.428-10.845-9.349c-1.951-1.506-4.51,1.832-2.632,3.411c3.51,2.95,6.829,6.103,10.069,9.346 C106.799,95.588,110.223,92.165,108.009,89.98z M144.36,138.7c-5.891-6.402-13.491-10.89-19.325-17.386 c-1.524-1.697-4.547,0.586-3.183,2.456c5.207,7.145,12.852,12.172,19.115,18.323C143.184,144.271,146.449,140.971,144.36,138.7z M132.291,112.058c-2.232-3.343-5.437-5.477-8.647-7.785c-0.968-0.696-2.427-0.17-2.985,0.783c-0.659,1.125-0.157,2.261,0.783,2.985 c2.487,1.917,5.035,3.75,6.885,6.334C130.022,116.744,133.954,114.549,132.291,112.058z M150.835,130.376 c-1.307-0.941-2.571-2.37-3.972-3.378c-1.865-1.342-4.226,1.722-2.456,3.183c1.352,1.117,2.407,2.538,3.759,3.654 c0.925,0.764,2.206,0.909,3.115,0C152.357,132.759,151.972,131.194,150.835,130.376z M154.61,122.248 c-1.079-2.195-2.991-3.893-5.072-5.129c-1.14-0.677-2.66-0.264-3.325,0.872c-0.688,1.175-0.244,2.616,0.872,3.325 c0.785,0.498,1.07,0.724,1.768,1.412c0.29,0.286,0.554,0.598,0.812,0.913c0.099,0.13,0.481,0.612,0.539,0.684 c-0.036-0.045,0.497,0.621,0.282,0.335c0.78,1.039,2.047,1.572,3.269,0.857C154.936,124.823,155.184,123.416,154.61,122.248z M130.321,95.908c-1.534-1.229-2.838-2.696-4.423-3.869c-0.873-0.646-2.254-0.332-2.97,0.383c-0.868,0.868-1.043,2.628,0,3.466 c1.54,1.237,2.753,2.784,4.348,3.967c0.895,0.664,2.312,0.34,3.045-0.393C131.209,98.573,131.391,96.766,130.321,95.908z"/>
</svg>
