<svg xmlns="http://www.w3.org/2000/svg" viewBox="0 0 320 320">
    <path d="M245.702,94.264c-12.73-12.192-28.693-18.637-46.167-18.638c-0.002,0-0.004,0-0.006,0c-19.477,0-37.271,4.148-51.611,16.858 c-12.11,10.734-19.335,26.354-22.658,34.061c-0.402-4.69-1.411-22.873,3.172-38.396c2.105-7.138,8.12-18.017,13.039-26.148 c5.773-9.541,8.722-13.791,10.296-16.789c1.753-3.339,1.931-5.854,0.256-8.899c-4.086-7.431-19.064-18.336-26.193-22.616 c-3.995-2.399-8.246-4.005-11.82-3.649c-4.253,0.424-6.778,2.269-10.218,4.827c-9.889,7.354-22.137,20.978-32.964,39.878 c-8.545,14.92-15.62,32.502-15.62,56.24c0,28.659,8.414,55.553,23.107,75.514c10.165,13.812,27.35,24.653,39.854,29.902 c0.166,3.332,1.249,10.754,1.836,14.312c3.081,18.699,10.653,47.563,27.212,69.994c0.329,0.445,6.666,9.283,14.259,9.283 c7.646,0,32.734-14.505,35.136-16.155c2.402-1.651,5.713-3.988,6.913-9.989c0.948-4.742-1.178-8.209-2.761-11.742 c-2.602-5.809-10.999-20.807-13.198-26.087c-3.89-9.34-5.677-17.956-5.817-22.202c23.842-2.357,46.36-11.078,60.875-24.761 c14.422-13.59,22.088-31.579,22.17-52.023C264.889,123.435,254.963,103.136,245.702,94.264z M159.438,232.322 c5.821,2.657,10.797,6.98,12.68,10.373c1.585,2.858,3.178,6.819,4.505,9.776c2.288,5.098,5.109,11.182,8.298,16.491 c4.243,7.916,6.855,10.14,2.761,14.233c-3.533,3.533-12.414,7.312-17.02,7.744c-8.786,0.825-9.162-1.943-17.114-16.384 c-6.313-11.464-10.678-23.269-14.087-37.758c-1.718-7.3-2.32-11.378-2.241-12.208C142.765,225.425,151.274,228.594,159.438,232.322z M200.978,89.696c24.346,5.275,44.722,32.875,45.423,61.527c0.396,16.184-5.199,30.529-17.116,40.532 c-9.21,7.729-23.098,14.437-33.839,16.943c-8.539,1.992-23.176,3.478-30.988,2.65c-5.556-0.589-10.693-1.299-15.54-2.07 c-15.415-2.453-29.842-9.453-41.849-18.539c-22.894-21.668-33.112-52.153-29.743-89.732c0.376-4.306,3.026-16.355,4.565-21.394 c5.253-16.788,13.813-31.185,23.277-43.766c0.983-1.306,3.662-4.634,6.35-6.826c2.619-2.132,4.817-2.457,6.999-1.556 c2.52,1.04,5.668,2.405,9.079,4.722c2.172,1.476,5.135,4.317,7.498,6.682c1.957,1.957,1.976,3.865-0.135,6.837 c-5.892,8.296-18.073,27.397-22.544,46.259c-4.133,17.434-4.561,35.601,0.931,50.326c5.23,14.023,12.414,22.031,23.447,28.119 c7.924,4.373,23.156,6.64,29.055,6.64c14.495,0,28.752-1.913,38.507-9.485c7.061-5.482,12.226-12.563,11.126-25.158 c-0.882-10.106-5.122-15.71-11.958-17.233c-8.621-1.92-18.785,1.499-23.664,5.968c-15.702,14.381-15.693,28.831-15.693,32.128 c-6.563,0.77-13.958-1.189-20.011-5.528c-2.787-1.998-5.045-4.347-6.724-6.915c-0.204-5.566,0.464-15.353,3.393-22.336 c6.814-16.252,18.503-26.493,29.033-32.847C177.18,91.225,190.512,87.429,200.978,89.696z M188.089,142.216 c5.169-5.603,10.255-1.92,11.762-0.375c2.34,2.395,2.107,6.336-0.46,10.424c-3.346,5.323-8.734,9.018-20.516,10.434 C178.875,159.217,182.991,147.742,188.089,142.216z"/>
</svg>