<svg xmlns="http://www.w3.org/2000/svg" viewBox="0 0 320 320">
    <path d="M264.97,151.956c-3.908-7.524-11.044-12.308-19.732-10.663c-8.355,1.582-16.477,7.285-20.354,14.925
	c-0.909,1.791,1.503,3.961,2.924,2.256c0.122-0.147,0.252-0.293,0.378-0.439c11.895,3.819,26.167,8.842,36.249-1.481
	c0.736-0.754,0.893-1.611,0.687-2.364C265.38,153.529,265.385,152.755,264.97,151.956z M231.301,154.773
	c3.265-3.071,7.162-5.773,11.121-7.246c-0.872,1.401-1.425,2.978-1.418,4.538c0.022,4.986,5.904,5.66,9.451,3.999
	c2.409-1.128,1.313-5.466-1.392-5.138c-0.906,0.11-2.139,0.378-2.81,0.4c-0.001-0.193,0.022-0.335,0.152-0.867
	c0.093-0.381,0.217-0.769,0.378-1.121c0.462-1.009,1.122-1.857,1.853-2.68c0.087-0.098,0.162-0.199,0.225-0.302
	c4.147,0.139,8.007,2.247,10.869,7.409C251.131,160.441,241.134,156.62,231.301,154.773z M232.315,165.838
	c0.085,2.675,0.09,5.316,0.346,7.987c0.252,2.627-4.254,3.242-4.616,0.625c-0.421-3.044-0.478-6.151,0.333-9.145
	C228.982,163.08,232.245,163.6,232.315,165.838z M236.97,172c0-2,0.068-4.085,0.359-6.24c0.271-2,3.751-2.109,4.022-0.109
	c0.292,2.155,0.359,4.349,0.359,6.349C241.711,176,236.97,176,236.97,172z M249.397,165.268c0.753,2.338,1.167,5.067,1.097,7.516
	c-0.092,3.198-4.789,3.175-4.944,0c-0.112-2.304-0.336-4.641-0.369-6.945C245.145,163.346,248.669,163.007,249.397,165.268z
	 M259.748,168.79c0.051,0.987,0.079,1.964,0.071,2.952c-0.023,3.123-4.819,3.123-4.843,0c-0.008-1.125,0.035-2.238,0.092-3.361
	c0.053-1.028,0.025-2.103,0.347-3.089c0.639-1.958,3.324-1.958,3.963,0C259.741,166.398,259.689,167.636,259.748,168.79z
	 M233.642,183.549c-0.052,2.284,0.014,4.635-0.301,6.894c-0.324,2.321-4.347,2.323-4.67,0c-0.337-2.424-0.214-5.138,0.475-7.503
	C229.86,180.488,233.702,180.922,233.642,183.549z M237.061,182.507c0.179-2.936,4.378-2.936,4.558,0
	c0.171,2.799,0.522,5.838-0.052,8.601c-0.46,2.212-3.994,2.212-4.454,0C236.539,188.345,236.89,185.306,237.061,182.507z
	 M252.21,188.063c0.199,2.806-4.118,3.278-4.816,0.652c-0.572-2.153-0.944-4.668-0.895-6.903c0.057-2.603,3.513-2.89,4.357-0.59
	C251.634,183.347,252.05,185.814,252.21,188.063z M260.666,179.462c0.562,1.968,0.759,4.133,0.593,6.17
	c-0.261,3.184-4.682,3.183-4.944,0c-0.152-1.848-0.023-3.704-0.185-5.556C255.897,177.413,259.971,177.027,260.666,179.462z
	 M228.503,205.079c0.004-2.509-0.388-5.051-0.013-7.543c0.328-2.175,3.97-2.136,4.336,0c0.42,2.453,0.629,5.054,0.682,7.543
	C233.577,208.305,228.497,208.308,228.503,205.079z M236.836,197.787c0.245-2.777,4.068-2.777,4.314,0
	c0.202,2.292,0.466,4.595,0.119,6.878c-0.344,2.263-4.208,2.263-4.552,0C236.37,202.381,236.633,200.078,236.836,197.787z
	 M250.753,195.393c0.57,2.439,1.277,5.079,0.724,7.573c-0.539,2.432-4.241,2.357-4.827,0c-0.549-2.213-0.525-4.647-0.753-6.916
	C245.614,193.25,250.127,192.715,250.753,195.393z M261.749,195.356c0.102,1.968,0.214,3.94,0.02,5.903
	c-0.334,3.391-4.936,3.391-5.27,0c-0.193-1.964-0.081-3.935,0.02-5.903C256.694,191.986,261.574,191.986,261.749,195.356z
	 M228.85,217.928c-0.085-2.163-0.035-4.369,0.305-6.509c0.347-2.185,4.048-2.185,4.395,0c0.34,2.141,0.39,4.346,0.305,6.509
	C233.729,221.154,228.977,221.154,228.85,217.928z M242.62,210.635c-0.214,2.194-0.097,4.4-0.205,6.598
	c-0.15,3.068-4.613,3.069-4.761,0c-0.117-2.415,0.072-4.826,0.57-7.193C238.739,207.59,242.866,208.114,242.62,210.635z
	 M252.628,215.497c-0.05,3.254-4.997,3.254-5.046,0c-0.028-1.857,0.059-3.702,0.153-5.556c0.154-3.055,4.587-3.055,4.741,0
	C252.569,211.795,252.657,213.64,252.628,215.497z M260.666,208.98c0.612,2.531,0.634,5.036-0.151,7.533
	c-0.968,3.079-5.796,1.775-4.846-1.336c0.56-1.836,0.593-3.678,0.461-5.583C255.948,206.972,260.06,206.473,260.666,208.98z
	 M234.386,225.366c0.438,2.799,0.036,5.699-0.361,8.483c-0.186,1.304-1.822,1.999-2.966,1.684c-1.386-0.381-1.869-1.666-1.684-2.966
	c0.341-2.391,0.604-4.827,1.028-7.201C230.754,223.407,234.074,223.366,234.386,225.366z M242.334,223.831
	c0.184,3.363,0.217,6.713-0.083,10.071c-0.292,3.273-5.446,3.284-5.128,0c0.325-3.351,0.426-6.711,0.612-10.071
	C237.899,220.869,242.171,220.868,242.334,223.831z M250.19,223.581c0.771,3.469,0.059,6.835-0.488,10.281
	c-0.435,2.735-5.096,2.1-4.836-0.654c0.262-2.778,1.406-5.627,0.988-8.431C245.438,221.985,249.548,220.692,250.19,223.581z
	 M260.259,225.568c0.134,3.79-0.926,7.209-2.437,10.639c-1.302,2.956-5.585,0.397-4.322-2.526c1.107-2.564,2.195-5.309,2.425-8.113
	C256.152,222.81,260.16,222.744,260.259,225.568z M231.775,240.947c0.336,2.375,0.331,4.793-0.171,7.142
	c-0.565,2.646-5.033,2.085-4.756-0.644c0.219-2.159,0.306-4.352,0.61-6.498C227.763,238.801,231.471,238.8,231.775,240.947z
	 M241.128,242.236c0.06,1.959,0.226,3.947,0.081,5.903c-0.244,3.302-4.884,3.302-5.128,0c-0.144-1.956,0.021-3.944,0.081-5.903
	C236.262,239.036,241.029,239.036,241.128,242.236z M249.701,240.193c0.463,3.296,0.024,6.429-0.538,9.687
	c-0.501,2.908-5.436,2.242-5.156-0.698c0.266-2.789,1.009-5.517,0.857-8.334C244.717,238.105,249.313,237.431,249.701,240.193z
	 M257.682,243.415c1.085,2.626,0.11,5.927-0.591,8.531c-0.858,3.191-5.899,1.808-4.944-1.363c0.36-1.195,0.738-2.4,0.997-3.623
	c0.25-1.181,0.295-2.36,0.496-3.546c0.153-0.906,1.161-1.539,2.021-1.539C256.682,241.877,257.32,242.537,257.682,243.415z
	 M165.72,214.902c3.579-0.457,7.509-0.505,11.112-0.334c3.427,0.162,3.444,5.214,0,5.331c-3.796,0.129-7.879-0.569-11.64-1.1
	C162.772,218.457,163.724,215.157,165.72,214.902z M53.484,169.363c-2.455,6.232-7.785,5.348-11.253,0.382
	c-4.787-6.854-5.33-15.214-4.862-23.354c0.154-2.688,3.428-3.523,4.924-1.334c2.291,3.352,5.472,7.258,5.217,11.577
	c-0.168,2.84-2.837,8.2,2.225,8.34c0.844,0.023,1.63,0.496,2.123,1.162C53.17,166.525,54.138,167.703,53.484,169.363z
	 M153.699,61.406c-0.559-1.575-1.127-3.153-1.709-4.731c2.004,1.431,4.079,2.787,5.942,4.389c2.027,1.743,3.97,3.503,5.827,5.36
	c-2.605,0.702-4.976,2.113-7.629,2.697C155.711,66.388,154.405,63.396,153.699,61.406z M286.431,134.322
	c-3.264-14.535-4.594-29.625-6.971-44.335c-2.338-14.468-4.349-28.99-7.685-43.274c-0.108-0.464-0.306-0.827-0.554-1.116
	c0.069-0.192,0.115-0.396,0.129-0.607c0.326-5.152,0.24-11.922-3.502-15.964c-3.307-3.573-8.926-4.427-11.968,0.162
	c-3.042,4.588-6.762,16.266-6.587,24.742c0.006,0.308,0.008,0.675,0.009,1.067c-3.133-4.808-6.583-9.354-10.19-13.252
	c-0.169-0.182-2.634-2.29-3.569-2.626c-0.192-0.197-0.385-0.391-0.578-0.587c-2.963-4.797-8.197-9.419-13.683-9.753
	c-2.095-0.128-3.988,0.849-5.155,2.435c-8.456-5.366-17.125-10.208-26.607-13.608c-10.329-3.704-22.244-5.833-33.118-7.201
	c-9.015-1.134-18.352,0.091-26.642,3.845c-5.114,2.316-9.271,6.069-13.625,9.505c-7.229-0.355-11.988,4.689-15.883,10.288
	c-6.918,3.889-13.685,8.875-17.03,15.639c-3.675-0.122-7.43,0.498-10.964,1.413c-0.021,0.003-0.04,0.002-0.061,0.006
	c-3.455,0.674-6.345,2.451-8.992,4.71c-0.267,0.227-0.416,0.479-0.484,0.733c-0.979,0.777-1.965,1.546-2.859,2.438
	c-0.224,0.224-0.438,0.458-0.652,0.693c-1.82,1.738-3.503,3.649-5.009,5.705c-0.116,0.158-0.182,0.32-0.21,0.48
	c-6.067,8.379-9.984,18.268-11.918,28.412c-1.292,6.774-1.533,13.946-1.598,20.823c-0.062,6.599,1.803,13.024,2.384,19.575
	c-5.914-2.114-11.777-0.964-13.914,6.095c-2.238,7.394,0.412,16.6,2.742,23.655c0.576,1.743,2.538,7.766,3.998,11.697
	c1.46,3.931,9.236,16.185,19.337,13.84c1.259,3.568,4.349,11.647,3.104,14.43c-5.49,6.415-13.622,10.132-16,18.965
	c-1.709,6.348-0.121,13.937,0.462,20.35c0.734,8.075,1.428,16.143,2.049,24.227c0.887,11.545,3.126,25.074,14.374,30.945
	c4.222,2.204,9.115,2.953,13.687,4.091c5.693,1.417,10.741,4.612,16.531,5.642c9.514,1.693,14.868-5.43,17.07-13.433
	c12.195,10.14,29.372,13.476,44.756,14.462c8.815,0.565,18.236,0.671,26.862-1.428c9.676-2.355,17.82-8.762,27.143-12.053
	c0.064-0.023,0.115-0.057,0.175-0.082c3.143,2.272,6.613,4.079,10.197,5.633c6.441,2.791,13.187,5.594,19.932,7.53
	c10.504,3.016,19.933-3.339,25.325-11.931c6.134-9.774,9.518-22.454,12.979-33.336c4.862-15.283,7.87-30.886,11.024-46.576
	c2.701-13.436,5.733-26.786,6.924-40.468C292.898,162.205,289.631,148.574,286.431,134.322z M261.198,31.96
	c1.913-3.277,4.97,1.657,5.662,3.49c0.931,2.465,1.115,5.266,0.996,7.934c-1.796,0.298-3.427,0.926-4.954,1.83
	c-1.014-4.151-1.983-8.253-2.332-12.548C260.81,32.489,261.025,32.257,261.198,31.96z M216.847,36.897
	c0.413-2.338,2.821-2.841,4.783-2.95c0.391-0.022,0.725-0.171,1.004-0.389c0.217,0.129,0.466,0.209,0.732,0.212
	c0.264,0.003,0.525,0.041,0.788,0.051c2.041,1.309,3.628,3.682,4.983,5.492c0.931,1.244,1.954,2.4,3.002,3.533
	c-2.305,1.835-5.225,3.537-8.174,4.192c-1.219-0.791-2.587-1.375-3.793-2.207c-0.874-0.603-1.709-1.306-2.455-2.084
	C217.085,40.861,216.493,38.901,216.847,36.897z M194.78,45.604c1.467-1.219,3.258-2.014,5.242-2.313
	c0.974,0.194,1.934,0.465,2.855,0.725c1.179,0.333,2.337,0.745,3.487,1.182c0.195,0.265,0.398,0.524,0.589,0.792
	c0.289,0.406,0.676,0.708,1.105,0.876c-0.122,0.97-0.287,2.045-0.745,3.034c-0.949,2.049-2.674,4.1-4.475,5.1h-0.001
	c-0.078,0-0.158-0.018-0.236-0.006c-2.312-2.201-4.908-4.187-7.643-5.953c-0.014-0.223-0.061-0.462-0.162-0.696
	C194.441,47.518,194.518,46.562,194.78,45.604z M180.903,54.208c2.884-3.457,10.275,0.323,13.347,1.776
	c0.495,0.234,0.979,0.488,1.458,0.751c-1.796,1.899-2.71,4.273-3.653,6.709c-4.099-2.214-8.263-4.328-12.561-6.121
	C179.679,56.21,180.122,55.144,180.903,54.208z M157.404,122.366c0.416,5.404,6.152,16.065,10.047,23.871
	c2.342,4.696,4.869,9.257,7.781,13.625c2.901,4.351,6.586,8.049,9.034,12.711c1.973,3.758,1.061,9.088-1.824,12.109
	c-1.558,1.632-4.184,2.586-6.467,2.234c-3.682-0.567-7.046-2.654-10.698-3.45c-3.255-0.709-6.056,0.232-9.103,1.27
	c-0.941,0.335-1.909,0.555-2.904,0.66c-2.623-1.774-3.149-3.671-1.578-5.692c1.074-2.049,2.892-3.737,4.689-5.148
	c1.416-1.111-0.387-3.177-1.849-2.397c-3.843,2.049-7.14,4.999-8.094,9.389c-0.768,3.538,1.984,7.889,5.749,8.092
	c2.236,0.121,4.196-0.476,6.288-1.221c3.4-1.211,5.92-1.111,9.348,0.055c0.003,0.001,0.005,0.002,0.008,0.003
	c-0.394,0.474-0.633,1.065-0.601,1.668c0.12,2.204,1.231,4.241,1.775,6.395c0.094,0.921,0.227,1.836,0.405,2.74
	c0.061,0.309,0.173,0.571,0.307,0.81c-0.605,0.085-1.206,0.234-1.835,0.327c-4.855,0.719-9.152,5.484-13.831,6.153
	c-2.671,0.382-5.343,0.015-7.669,2.784c-1.29,1.536-1.028,6.278,2.535,6.278c3.562,0,3.832-3.019,3.895-3.987
	c1.341-0.518,2.822-0.72,4.247-1.051c10.368-0.478,20.365-6.337,30.008,0.049c2.653,1.757,4.906-2.372,2.448-4.188
	c-4.611-3.407-9.327-5.901-14.57-6.461c0.259-0.423,0.411-0.927,0.386-1.516c-0.064-1.566-0.414-3.099-0.862-4.599
	c-0.219-1.086-0.43-2.173-0.609-3.269c1.092,0.309,1.93,0.374,3.297,0.583c1.367,0.209,9.901,3.134,14.021,2.914
	c0.057,0.936,0.087,1.875,0.125,2.813c-0.078-0.012-0.154-0.031-0.233-0.037c-0.815-0.064-1.614-0.03-2.431,0
	c-1.247,0.046-2.289,1.006-2.289,2.289c0,1.283,1.043,2.243,2.289,2.289c0.817,0.03,1.616,0.064,2.431,0
	c0.123-0.01,0.241-0.033,0.359-0.057c0.055,3.504,0.043,6.996,0.055,10.427c0.032,9.529-0.474,18.91-1.103,28.304
	c-17.798,1.792-36.497,2.313-52.772-6.214c-0.516-0.27-1.018-0.357-1.49-0.33c-0.123-6.788,1.124-12.97,3.54-19.83
	c2.985-8.478,3.87-17.043,3.948-25.979c0.086-9.799-0.231-19.596-0.629-29.385c-0.184-4.529-0.404-9.056-0.626-13.583
	c-0.078-1.594-0.13-3.367-1.262-4.383c1.094-0.822,1.89-1.997,2.27-3.628c1.561-6.698-5.879-12.511-11.627-13.385
	c-7.674-1.167-16.217,2.827-18.775,10.401c-0.404,1.195-0.02,2.146,0.696,2.755c0.143,0.542,0.535,1.001,1.232,1.14
	c0.239,0.048,0.504,0.109,0.781,0.176c-4.537,6.484-6.648,14.47-8.179,22.243c-6.794-5.554-9.338-15.334-9.349-23.855
	c-0.013-10.217,4.649-19.079,14.71-22.089c1.505-0.45,3.227-0.905,5.085-1.381c0.316,0.362,10.912-2.608,10.229-2.69
	c3.35-0.952,9.922-2.84,15.321-5.471c5.399-2.631,11.271-8.988,12.817-13.485c1.042-3.029,1.325-7.66,1.404-8.389
	c0,0,8.317-1.096,11.389-1.802c3.303-0.759,12.963-3.962,12.963-3.962c2.128,3.201,4.254,6.41,5.895,9.825
	c0.844,1.758,1.537,3.551,2.118,5.369C169.732,93.419,156.197,106.659,157.404,122.366z M189.035,127.149
	c-0.008,0.084-0.021,0.166-0.015,0.252c-0.004,0.068-0.008,0.137-0.013,0.205c-5.802,2.13-16.061,3.536-18.051,3.936
	c-1.99,0.4-3.507,0.849-4.55,1.177c-0.685-1.449-1.346-2.906-1.933-4.391c0.149-0.217,0.256-0.475,0.305-0.782
	c0.078-0.299,0.185-0.573,0.288-0.85c0.983-2.046,4.225-4.262,8.033-5.933c2.657-0.492,5.5-0.341,7.868,0.281
	C184.578,121.992,187.154,124.279,189.035,127.149z M136.488,136.235c-5.691,1.254-11.781-1.027-17.631-1.814
	c2.253-4.558,8.684-6.292,13.355-5.362C134.677,129.55,140.834,135.277,136.488,136.235z M144.92,87.602
	c-2.922,0.976-3.859-1.923-5.222-4.291c1.645-0.862,3.456-1.392,5.263-1.817c1.274-0.3,6.174-1.359,6.889,0.469
	C153.034,84.993,146.819,86.967,144.92,87.602z M133.402,34.474c0.344-3.512,3.494-6.956,6.838-6.955
	c0.414-0.574,1.098-0.977,2.083-0.982c4.37-0.023,7.752,3.28,8.205,7.557c0.19,1.794-0.245,3.54-1.144,4.976
	c-0.488,1.502-1.536,2.788-3.131,3.417c1.164,2.578,2.249,5.199,3.296,7.833c0.197,0.035,0.397,0.101,0.596,0.216
	c3.947,2.278,7.795,4.04,11.437,6.879c3.522,2.746,6.855,5.496,9.885,8.786c0.804,0.873,0.922,1.881,0.644,2.769
	c-0.74,0.39-1.484,0.775-2.253,1.107c-1.948,0.839-3.899,1.634-5.773,2.615c-3.678,0.25-7.665,1.5-10.965,2.885
	c-0.484-1.7-1.317-3.374-2.149-4.917c-1.093-2.519-1.77-5.536-2.573-7.792c-0.601-1.69-1.259-3.359-1.947-5.017
	c-0.255,0.693-0.502,1.389-0.716,2.097c-0.579,1.921-0.991,3.913-1.811,5.741c-0.174,0.388-0.428,0.681-0.723,0.906
	c-0.381-0.305-0.761-0.592-1.121-0.853c-1.1-0.799-2.274-1.443-3.51-1.962c0.517-4.029,3.027-8.222,5.559-11.31
	c-1.478-3.343-2.976-6.677-4.289-10.073c-1.112-0.273-2.012-0.827-2.696-1.559C134.825,39.452,133.129,37.263,133.402,34.474z
	 M134.152,67.699c1.652,0.826,3.159,1.946,4.497,3.278c0.315,0.623,0.569,1.254,0.773,1.916c-0.391,0.201-0.782,0.402-1.18,0.591
	c-2.63,1.249-5.592,1.641-8.345,2.548c-0.362,0.119-0.633,0.315-0.838,0.549c-0.475-0.349-0.933-0.752-1.369-1.243
	c-1.529-1.722-2.869-3.455-4.609-4.843C126.681,69.132,130.574,67.711,134.152,67.699z M99.233,59.769
	c0.064-0.099,0.131-0.196,0.199-0.291c0.02-0.024,0.034-0.041,0.081-0.097c0.16-0.192,0.338-0.368,0.517-0.541
	c0.091-0.086,0.184-0.169,0.279-0.25c0.022-0.019,0.5-0.398,0.177-0.157c0.132-0.098,0.249-0.209,0.36-0.325
	c1.546-0.256,3.092-0.481,4.638-0.687c0.181,0.059,0.377,0.093,0.595,0.08c1.904-0.117,3.146,1.398,4.455,2.564
	c0.218,0.356,0.422,0.718,0.61,1.082c0.867,1.677,0.569,2.879,0.094,4.207c-2.565,0.647-5.097,1.432-7.455,2.504
	c-1.115-2.791-2.612-5.764-4.6-7.995C99.199,59.832,99.214,59.799,99.233,59.769z M68.255,57.515c2.78-1.581,5.32-2.401,7.936-2.684
	c1.32,1.079,2.4,2.47,3.053,4.172c0.763,1.988-1.761,4.105-3.838,5.933c-0.224-0.132-0.474-0.244-0.787-0.297
	c-2.234-0.379-4.08-1.668-6.032-2.747c-1.284-0.709-2.506-1.471-3.692-2.291C65.98,58.868,67.099,58.172,68.255,57.515z
	 M55.219,183.828c-6.454,3.152-13.922-7.019-15.16-10.34s-2.748-7.892-3.384-9.929c-1.642-5.258-3.023-10.563-3.256-16.093
	c-0.107-2.545,0.105-5.183,1.399-7.424c1.754-3.035,6.579-2.113,9.307-1.575c0.074,0.015,0.146,0.018,0.218,0.022
	c1.527,0.794,3.799,0.088,3.798-2.169c-0.001-5.877-1.55-11.546-2.195-17.362c-0.77-6.949,0.049-14.701,1.046-21.598
	c1.836-12.708,7.811-24.232,15.106-34.616c1.048,1.041,2.245,1.943,3.461,2.789c1.595,1.11,3.261,2.247,5.056,3.042
	c-1.312,1.424-2.555,2.854-3.701,4.239c-11.128,13.446-9.648,29.789-11.185,46.143c-0.325,3.453,5.039,3.412,5.372,0
	c1.329-13.614-0.304-28.426,8.115-40.135c3.369-4.686,7.617-8.804,12.036-12.485c2.522-2.101,6.001-4.64,9.629-6.118
	c0.189,0.074,0.39,0.126,0.611,0.135c2.358,0.091,3.938,2.752,5.032,4.537c1.161,1.893,1.871,3.784,2.496,5.792
	c-0.455,0.353-0.9,0.722-1.325,1.118c-0.94,0.56-1.847,1.192-2.709,1.919c-7.984,6.73-14.243,17.223-18.529,26.647
	c-1.301,2.86,2.36,5.014,4.199,2.454c5.863-8.161,9.53-17.429,17.135-24.348c5.742-5.225,13.772-5.006,21.049-6.727
	c0.136,0.207,0.325,0.397,0.582,0.556c2.913,1.805,3.935,5.398,6.328,7.749c0.027,0.027,0.059,0.051,0.086,0.077
	c-1.748,0.568-3.494,1.191-5.105,1.939c-13.31,2.945-26.795,10.477-32.727,21.618c-1.399,2.629,2.258,5.822,4.296,3.316
	c10.489-12.893,26.869-21.142,43.555-22.085c0.243-0.014,0.455-0.066,0.654-0.135c1.192,1.934,1.438,4.414,3.081,6.174
	c1.748,1.873,4.319,1.552,6.52,0.966c1.288-0.343,2.623-0.792,3.894-1.366c-3.19,7.85-15.212,11.431-22.32,13.692
	c-8.672,2.758-19.01,3.684-26.226,9.63c-15.546,12.81-10.025,44.069,6.585,53.347c1.533,0.856,3.713,0.126,4.133-1.681
	c2.09-8.995,3.483-18.127,7.457-26.538c4.881,1.436,11.522,3.376,16.579,3.001c-0.234,1-0.125,3.231,0.376,4.724
	c0.096,1.933,0.187,3.866,0.278,5.799c0.185,3.929,0.346,7.858,0.493,11.788c0.291,7.819,0.442,15.643,0.466,23.468
	c0.022,7.202-0.49,14.139-2.449,21.1c-1.84,6.54-4.534,12.498-5.053,19.365c-0.964,12.772,4.756,25.423,1.457,38.125
	c-1.528,5.884-6.584,9.09-12.419,9.301c-4.488,0.162-8.212-1.766-11.553-4.383c0.123-0.991,0.285-1.982,0.508-2.972
	c1.512-6.689,5.539-12.465,9.035-18.245c4.59-7.588,7.063-15.817,8.932-24.417c1.298-5.975,3.447-14.831-0.34-20.333
	c-2.567-3.729-6.62-3.075-10.062-1.03c0.62-2.189,0.997-4.456,1.302-6.707c0.042-0.31,0.015-0.597-0.058-0.858
	c2.838-4.025,0.161-10.021-5.094-11.901c-2.022-0.723-3.915-0.463-5.659,0.416c0.021-0.382,0.017-0.775-0.022-1.183
	c-0.389-3.988-4.235-6.077-7.754-5.091c-0.231-1.227-0.914-2.362-2.25-3.246c-0.706-0.467-1.381-0.462-1.933-0.189
	c-0.261-0.353-0.684-0.591-1.27-0.575c-4.197,0.115-13.426,5.34-13.901,10.289c-6.276,3.871-12.153,6.891-16.213,12.39
	c-1.114-4.312-2.097-8.636-3.85-12.779C58.532,183.339,56.49,183.208,55.219,183.828z M116.433,209.593
	c-0.001-0.014-0.007-0.027-0.009-0.041c2.298-2.165,5.497-3.313,6.28,0.572c0.395,1.96,0.306,4.109,0.027,6.244
	c-0.891-0.207-1.792-0.078-2.686-0.303c-0.865-0.217-1.607-0.766-2.246-1.364c-0.638-0.597-1.102-1.364-1.391-2.185
	C116.055,211.514,116.542,210.593,116.433,209.593z M113.284,192.876c-0.285,1.878-3.425,2.642-4.915,2.821
	c-1.509,0.181-2.829-0.102-3.953-0.728c0.517-0.755,1.06-1.499,1.667-2.224c0.824-0.985,1.762-1.775,2.839-2.471
	C110.58,189.203,113.599,190.8,113.284,192.876z M92.932,188.562c0.731-0.453,1.406-0.943,1.995-1.443
	c0.914-0.775,1.784-1.809,2.461-2.953c0.191,0.03,0.393,0.044,0.616,0.016c1.376-0.166,3.692-1.185,3.276,1.069
	c-0.265,1.434-1.732,2.34-2.946,3.134c-1.378,0.901-2.887,1.623-4.472,2.072c-1.35,0.382-1.051,0.142-0.878-1.352
	C93.006,188.908,92.985,188.727,92.932,188.562z M91.081,183.795c-1.396,0.966-4.76,2.838-6.493,1.566
	c0.069-0.166,0.155-0.328,0.271-0.524c0.603-1.023,1.613-1.875,2.492-2.651c1.621-1.429,3.753-3.024,5.824-3.844
	c0.033,0.143,0.075,0.285,0.136,0.422c0.368,0.827,0.901,1.281,0.477,2.209C93.242,182.169,92.135,183.066,91.081,183.795z
	 M104.355,262.563c-2.417,6.436-2.683,12.923-2.579,19.731c0.106,6.905,0.249,15.766-6.301,20.002
	c-5.043,3.262-12.645-2.012-17.388-3.697c-4.796-1.704-9.885-2.387-14.682-4.103c-7.191-2.572-9.906-9.621-11.523-16.5
	c-1.727-7.345-1.595-15.085-2.333-22.564c-0.843-8.547-1.69-17.116-2.084-25.697c-0.333-7.243,4.057-11.547,8.85-15.76
	c-2.386,8.296-3.82,17.242-1.908,25.164c0.728,3.015,5.34,2.318,5.336-0.722c-0.016-10.482,1.382-20.105,4.639-30.11
	c1.609-4.943,3.838-8.919,7.527-12.614c2.625-2.629,5.937-4.489,8.735-6.955c0.361,0.353,0.79,0.696,1.307,1.027
	c2.199,1.408,4.92,1.293,7.462,0.455c-0.031,0.168-0.043,0.333-0.06,0.499c-14.931,7.262-21.015,30.083-20.243,45.267
	c0.188,3.689,5.437,3.651,5.697,0c1.117-15.67,4.65-30.482,16.187-41.573c0.356,0.216,0.756,0.403,1.244,0.527
	c1.943,0.494,4.064-0.032,6.008-0.89c0.041,0.101,0.074,0.213,0.117,0.312c-1.436,2.593-2.539,5.135-3.255,6.843
	c-2.824,6.729-5.126,13.587-6.841,20.682c-1.839,7.609-2.846,15.228-6.821,22.12c-1.736,3.01,2.837,5.663,4.638,2.711
	c4.048-6.631,5.439-14.214,7.085-21.7c1.91-8.687,4.967-16.987,8.519-25.123c0.145-0.333,0.308-0.647,0.462-0.97
	c2.904,1.897,6.711,2.168,10.423,0.894c-0.805,2.311-1.784,4.534-2.761,6.823c-0.476,1.115-0.139,2.173,0.527,2.864
	c-5.219,7.604-6.546,16.531-9.669,25.025c-0.607,1.651,2.112,2.8,2.845,1.199c2.989-6.523,4.964-14.101,8.639-20.44
	c0.254,0.704,0.575,1.36,0.938,1.912c1.527,2.319,5.414,5.278,8.615,4.832c-0.023,0.113-0.047,0.231-0.069,0.342
	c-1.742,8.792-4.278,17.282-8.88,25.019C109.81,252.352,106.397,257.125,104.355,262.563z M179.383,301.511
	c-7.928,2.942-17.047,2.684-25.392,2.476c-16.104-0.401-33.679-3.19-46.805-13.149c0.091-0.664,0.163-1.324,0.214-1.976
	c0.298-3.81,0.076-7.611,0.079-11.4c6.122,4.497,15.349,4.73,21.921,1.047c13.117-7.351,8.701-26.956,7.16-38.869
	c15.537,7.837,36.746,10.292,53.526,4.819c-0.34,4.856-0.695,9.722-1.013,14.621c-0.756,11.649,3.042,23.89,11.013,32.479
	c0.04,0.043,0.083,0.081,0.123,0.123C193.13,294.67,186.604,298.831,179.383,301.511z M284.196,193.36
	c-2.564,15.794-5.385,31.646-8.975,47.241c-3.303,14.349-7.847,28.288-12.614,42.203c-3.958,11.555-11.595,24.964-25.95,21.744
	c-6.815-1.529-13.848-4.925-20.244-7.704c-6.967-3.027-12.912-7.675-16.968-14.138c-8.137-12.964-4.852-28.148-3.709-42.396
	c1.523-19,2.931-39.208-0.243-58.103c-2.933-17.459-16.623-30.238-20.356-47.417c-0.017-0.081-0.047-0.151-0.073-0.224
	c3.837-0.505,7.663-1.099,11.38-2.078c0.182,0.544,0.532,1.055,1.086,1.466c1.489,1.105,2.399,4.375,3.145,5.995
	c0.964,2.095,1.872,4.215,3.07,6.189c1.556,2.564,5.337,1.408,5.474-1.482c0.727-15.388,0.771-31.359-1.701-46.603
	c-2.064-12.727-9.687-23.442-16.446-34.072c-0.52-0.817-0.942-1.722-1.235-2.662c4.092,2.327,8.164,4.685,12.216,7.09
	c1.322,0.785,2.694-0.027,3.21-1.306c1.153-2.857,1.815-5.856,4.08-8.005c4.344,3.267,7.962,7.609,11.09,11.924
	c4.541,6.263,8.576,13.148,10.809,20.58c2.185,7.274,0.42,14.972,2.472,22.279c0.646,2.298,3.794,1.275,3.473-0.957
	c-0.636-4.426,0.162-9.008,0.318-13.445c0.152-4.307-0.823-8.595-2.165-12.655c-2.524-7.634-7.27-14.761-12.052-21.155
	c-2.207-2.951-4.653-5.685-7.35-8.134c3.024-1.912,6.219-5.159,7.264-8.734c2.324,2.328,4.399,4.892,6.797,7.198
	c4.021,3.865,8.19,7.697,11.864,11.898c7.104,8.124,9.837,20.981,11.396,31.372c0.296,1.975,3.257,1.371,3.337-0.452
	c0.498-11.248-2.66-23.786-9.322-32.974c-3.431-4.732-8.063-8.487-12.171-12.598c-0.195-0.195-0.385-0.406-0.577-0.611
	c4.189-1.058,7.229-3.755,10.185-7.082c1.048,1.067,2.1,2.132,3.13,3.221c5.903,8.113,11.286,16.549,15.888,25.504
	c5.601,10.899,6.736,23.822,10.051,35.496c0.717,2.527,4.444,1.463,3.904-1.076c-2.551-12.001-3.692-24.067-8.573-35.452
	c-1.356-3.162-2.939-6.412-4.691-9.645c-0.397-3.145,0.04-6.987,0.016-9.668c-0.049-5.343,0.676-10.075,2.602-14.644
	c0.338,3.48,1.149,6.925,2.457,10.095c0.602,1.46,2.324,2.172,3.589,0.947c1.096-1.062,2.262-1.817,3.524-2.405
	c0.011,0.07,0.01,0.135,0.027,0.206c7.331,31.395,9.088,63.846,16.404,95.205c1.867,8.003,3.508,15.993,3.642,24.239
	C286.82,176.193,285.573,184.878,284.196,193.36z M156.004,200.037c0.667,1.139,0.269,2.648-0.869,3.313
	c-1.552,0.908-3.252,1.613-5.042,1.833c-1.186,0.146-2.187-1.105-2.187-2.187c0-1.068,0.691-1.726,1.606-2.109
	c1.078-0.452,2.142-0.965,3.179-1.718C153.762,198.392,155.387,198.983,156.004,200.037z M147.323,197.779
	c-0.776-0.776-0.721-1.98,0-2.762c1.187-1.289,2.594-2.268,4.286-2.762c1.118-0.326,2.323,0.383,2.628,1.492
	c0.301,1.095-0.36,2.355-1.492,2.628c-1.099,0.265-1.811,0.652-2.659,1.405C149.29,198.485,148.109,198.565,147.323,197.779z
	 M163.419,194.694c0.94-0.203,1.899,0.12,2.401,0.977c0.444,0.758,0.401,1.986-0.332,2.577c-0.878,0.707-1.777,1.132-2.876,1.383
	c-0.858,0.196-1.723,0.348-2.587,0.514c-2.618,0.501-3.709-3.233-1.109-4.022C160.408,195.67,161.903,195.021,163.419,194.694z
	 M157.607,192.972c-0.578-0.987-0.261-2.395,0.774-2.951c0.855-0.459,1.671-0.945,2.62-1.181c0.907-0.225,1.865,0.136,2.344,0.954
	c0.435,0.742,0.389,1.935-0.325,2.515c-0.449,0.365-0.876,0.701-1.403,0.945c-0.353,0.164-0.706,0.327-1.059,0.491
	C159.492,194.24,158.243,194.056,157.607,192.972z M184.31,196.745c0,1.202-1.032,2.314-2.269,2.269
	c-0.193-0.007-0.383-0.028-0.575-0.054c0.161,0.022-0.995-0.11-0.888-0.107c-0.051-0.004-0.101-0.003-0.152-0.005
	c-0.065,0.017-0.158,0.04-0.218,0.065c-1.133,0.473-2.472-0.501-2.766-1.57c-0.243-0.885,0.124-2.142,1.033-2.539
	c0.703-0.307,1.409-0.521,2.188-0.46c0.46,0.036,0.916,0.123,1.378,0.133C183.278,194.501,184.31,195.489,184.31,196.745z
	 M144.226,36.054c-0.254,0.523-0.718,0.903-1.254,1.127c-0.84,0.549-1.767,0.524-2.733,0.099c-0.542-0.238-0.857-0.725-1.171-1.196
	c-1.037-1.557,0.314-4.003,2.214-3.858c0.219,0.017,0.438,0.033,0.658,0.05c0.484,0,0.961,0.116,1.374,0.395
	C144.425,33.328,144.88,34.709,144.226,36.054z M80.592,265.961c-1.842-4.571-9.145-7.854-13.608-5.212
	c-0.304,0.18-0.534,0.418-0.707,0.685c-3.505,2.195-4.658,5.849-2.8,9.689c1.746,3.607,6.127,6.326,10.153,5.919
	C78.583,276.54,82.494,270.68,80.592,265.961z M72.918,273.292c-4.318,0.241-8.856-5.186-6.022-8.611
	c0.339,0.224,0.753,0.355,1.243,0.332c3.072-0.147,6.609-1.101,8.616,2.092C78.309,269.578,75.526,273.147,72.918,273.292z"/>
</svg>
