<svg xmlns="http://www.w3.org/2000/svg" viewBox="0 0 320 320">
    <path d="M301.176,10h-94.118c-0.096,0-0.189,0.011-0.285,0.014c-0.109,0.004-0.217,0.009-0.326,0.016
	c-0.359,0.025-0.713,0.066-1.058,0.132c-0.022,0.004-0.044,0.006-0.065,0.01c-0.386,0.077-0.76,0.185-1.126,0.31
	c-0.073,0.025-0.145,0.052-0.217,0.079c-0.343,0.128-0.677,0.272-0.997,0.439c-0.026,0.014-0.054,0.024-0.08,0.038
	c-0.342,0.183-0.666,0.392-0.98,0.617c-0.072,0.052-0.142,0.105-0.212,0.159c-0.313,0.239-0.616,0.491-0.894,0.769
	c0,0,0-0.059,0-0.059L109.287,104H18.824C13.95,104,10,108.068,10,112.941v94.118v94.118c0,3.569,2.15,6.786,5.447,8.151
	c1.092,0.453,2.238,0.672,3.375,0.672c2.296,0,4.553-0.837,6.241-2.525L116.597,216h90.462c4.873,0,8.941-4.068,8.941-8.941V122
	h85.176c4.873,0,8.824-4.186,8.824-9.059V18.824C310,13.95,306.05,10,301.176,10z M198,40.126V104h-63.757L198,40.126z M91.639,122
	L59.82,153.879L28,185.757V122H91.639z M28,210.714l76-76.471v69.161l-76,76.471V210.714z M198,198h-76v-76h76V198z M292,104h-76V28
	h76V104z"/>
</svg>