<svg xmlns="http://www.w3.org/2000/svg" viewBox="0 0 320 320">
    <path d="M136.783,77.396c-1.131-0.201-2,0.218-2.517,0.884c-6.266-0.734-11.929,2.222-13.08,9.017
    c-1.222,7.216,5.731,11.011,11.938,11.18c5.503,0.15,10.462-3.66,11.709-8.988C146.105,84.054,142.257,78.369,136.783,77.396z
     M246.635,142.036c5.897-16.345,5.955-34.427-2.07-51.358c-7.298-15.396-20.297-27.137-35.609-34.268
    c-7.898-3.678-16.094-5.436-24.727-6.117c-7.16-0.565-14.319-1.078-21.145,1.201c-1.873-4.695-4.152-9.194-6.406-13.746
    c-4.644-9.375-10.213-23.399-22.705-23.23c-2.95-4.657-14.197-4.785-17.979-4.361c-8.223,0.922-17.355,5.047-20.568,13.173
    c-0.318,0.803-0.128,1.524,0.313,2.077c-5.707,8.753-10.55,16.832-11.003,27.646c-0.142,3.385,0.184,6.714,0.773,10.008
    c-11.126,5.505-22.687,12.172-30.213,22.262c-3.909,5.241-6.643,11.107-9.236,17.079c-2.689,6.194-5.932,12.24-8.12,18.629
    c-4.298,12.553-2.654,26.423,4.185,37.678c6.356,10.461,15.556,20.445,26.437,26.163c2.263,1.189,4.614,2.28,7.022,3.289
    c0.577,0.658,1.328,0.897,2.064,0.842c9.256,3.649,19.275,6.132,28.72,8.081c6.799,1.403,13.792,2.326,20.82,2.922
    c1.872,7.001,4.829,13.844,7.222,20.669c2.706,7.72,4.787,15.84,7.981,23.366c3.587,8.45,9.602,15.442,17.709,19.019
    c0.957,4.724,2.665,9.251,4.599,13.658c2.058,4.689,3.966,9.568,7.917,12.992c0.773,0.67,1.595,1.218,2.45,1.676
    c-2.966,1.102-5.068,2.987-3.848,6.054c2.146,5.395,7.734,4.761,13.035,2.998c-1.753,3.656-2.031,8.034,2.144,9.323
    c5.033,1.554,9.136-4.784,10.605-9.785c2.827,3.785,7.821,8.347,11.689,5.318c2.809-2.2,2.524-6.515,0.649-9.171
    c-0.099-0.14-0.218-0.27-0.325-0.406c2.707-0.109,5.292-0.812,7.344-2.717c4.716-4.38,0.552-8.794-4.087-10.14
    c0.453-0.744,0.849-1.555,1.159-2.462c1.469-4.298,0.004-9.912-0.495-14.284c-0.523-4.588-1.25-9.167-2.824-13.512
    c2.418-2.483,4.487-5.304,5.554-8.401c2.512-7.286-0.827-13.514-0.431-20.791c6.187-1.29,12.12-3.994,17.389-7.798
    c11.933-8.616,20.436-21.709,22.253-36.383C256.337,167.421,255.939,150.822,246.635,142.036z M250.337,162.816
    c-0.051,0-0.099-0.011-0.151-0.007c-1.926,0.155-4.151,0.531-6.046,1.41c-0.191-1.272-0.462-2.536-0.775-3.793
    c1.775-1.615,4.061-2.592,5.91-4.142C249.796,158.393,250.134,160.595,250.337,162.816z M248.207,152.86
    c-0.581-0.061-1.185,0.146-1.681,0.55c-1.434,1.171-2.92,2.174-4.227,3.416c-0.322-0.909-0.672-1.812-1.068-2.705
    c-0.027-0.061-0.062-0.107-0.092-0.163c1.338-2.356,2.55-4.771,3.63-7.233C246.249,148.508,247.358,150.599,248.207,152.86z
     M238.447,90.769c0.117,0.138,0.239,0.251,0.363,0.352c6.755,12.722,8.232,26.628,5.444,39.974c-6.09-1.472-11.636,0.261-14.2,6.706
    c-2.196,5.521-1.059,14.578,2.909,19.186c-0.873,1.265-1.786,2.511-2.74,3.734c-9.217,11.801-21.329,20.376-34.79,26.004
    c1.9-14.834,0.733-33.163-11.949-42.141c14.607-9.196,25.575-25.299,25.851-42.652c0.046-2.874-0.398-5.476-1.225-7.818
    c0.307-0.392,0.468-0.924,0.343-1.569c-1.081-5.591,7.656-7.078,11.576-7.75C226.603,83.665,234.04,85.588,238.447,90.769z
     M175.694,202.561c-0.675-1.188-1.262-2.427-1.74-3.72c2.562-0.472,5.104-1.018,7.619-1.653
    C179.399,198.642,177.475,200.785,175.694,202.561z M185.834,199.187c0.152-0.11,0.274-0.238,0.383-0.373
    c0.853,0.911,1.744,1.772,2.663,2.593c-1.148,1.009-2.097,2.389-2.998,3.509c-1.322,1.643-2.618,3.31-4.155,4.76
    c-0.05,0.047-0.084,0.095-0.126,0.143c-1.517-1.376-2.901-2.883-4.107-4.514c1.176-0.884,2.309-1.816,3.445-2.754
    C182.491,201.266,184.223,200.357,185.834,199.187z M184.18,211.935c1.62-1.295,3.002-2.798,4.369-4.352
    c1.09-1.238,2.404-2.369,3.485-3.632c1.299,0.94,2.644,1.79,4.026,2.541c-2.403,2.568-3.906,6.256-6.336,8.678
    c-0.043,0.043-0.073,0.088-0.11,0.132C187.718,214.329,185.888,213.21,184.18,211.935z M196.391,212.825
    c1.206-1.57,2.573-2.941,3.867-4.402c0.938,0.355,1.89,0.655,2.849,0.917c-1.522,3.027-2.855,6.333-3.296,9.576
    c-0.692-0.141-1.384-0.301-2.074-0.483c-1.622-0.427-3.24-0.975-4.832-1.619C194.211,215.615,195.303,214.242,196.391,212.825z
     M188.134,195.297c1.223-0.393,2.441-0.801,3.649-1.238c0.905,0.136,1.826-0.12,2.376-0.89c3.145-1.224,6.227-2.618,9.25-4.155
    c0.375,5.405,2.094,11.194,3.57,16.386c-1.097-0.126-2.208-0.315-3.335-0.572C197.426,203.409,192.651,199.512,188.134,195.297z
     M115.109,135.442c-1.622-4.606-3.646-9.029-5.668-13.467c-1.065-2.338-2.058-4.706-3.008-7.092
    c1.099,0.172,2.204,0.278,3.149,0.448c3.136,0.563,6.261,0.932,9.43,1.258c7.026,0.722,14.09,0.528,21.015-0.889
    c6.691-1.369,13.099-5.021,18.708-8.775c2.46-1.646,4.723-3.577,6.888-5.587c1.981-1.839,3.482-4.081,5.181-6.155
    c2.586,7.82,5.075,15.655,7.521,23.543c0.995,3.208,2.187,6.361,3.304,9.528c0.554,1.571,1.099,3.146,1.624,4.727
    c0.404,1.215,0.501,3.884,0.965,1.84c-0.186,0.819-0.025,1.521,0.327,2.081c-5.536,4.429-11.838,7.094-19.068,9.126
    c-13.934,3.916-28.91,7.038-43.523,5.914c-0.393-0.999-0.845-1.956-1.361-2.876c-0.107-0.787-0.542-1.452-1.143-1.866
    c-0.251-0.385-0.503-0.77-0.769-1.151c-0.014-0.02-0.031-0.034-0.045-0.053c-0.316-0.941-0.555-1.95-0.76-2.531
    C116.936,140.794,116.048,138.11,115.109,135.442z M115.24,151.116c-3.714-0.646-7.391-1.605-11.005-2.942
    c-7.889-2.92-16.047-9.595-16.874-18.456c-0.798-8.55,6.092-14.566,11.283-20.491c1.618,4.648,3.386,9.248,5.338,13.797
    c2.672,6.226,5.384,12.315,7.489,18.768C112.262,144.216,113.209,148.753,115.24,151.116z M185.503,121.816
    c-0.54-1.54-1.073-3.083-1.575-4.636c-1.964-6.072-3.496-12.274-5.536-18.334c-1.6-4.753-3.347-9.459-5.013-14.191
    c6.748-1.608,14.191-1.118,20.544,1.708c8.484,3.774,10.876,11.915,9.391,20.596c-0.91,5.318-3.177,10.418-6.101,15.11
    C193.441,121.171,189.351,121.465,185.503,121.816z M194.043,126.686c-1.403,1.874-2.881,3.664-4.382,5.352
    c-0.129,0.145-0.261,0.279-0.391,0.421c-0.386-1.305-0.943-2.586-1.337-3.73c-0.328-0.952-0.661-1.902-0.997-2.851
    C189.368,126.053,191.697,126.243,194.043,126.686z M186.937,56.128c5.166,0.634,10.181,1.649,15.21,3.428
    c11.708,4.14,22.139,11.747,29.919,21.388c-4.6-1.386-9.687-1.46-14.249-0.539c-4.622,0.933-11.113,3.375-12.934,7.878
    c-5.523-6.939-15.373-10.2-24.874-9.907C180.234,70.917,180.559,60.613,186.937,56.128z M180.88,55.543
    c-4.633,6.016-5.126,16.061-4.645,23.135c-1.56,0.207-3.093,0.512-4.577,0.917c-0.277-0.841-0.568-1.677-0.833-2.522
    c-2.144-6.837-3.793-13.816-5.969-20.645C170.034,54.822,175.491,55.132,180.88,55.543z M129.818,16.566
    c3.239,1.67-8.573,7.995-9.985,8.667c-6.652,3.166-13.791,4.089-19.527-0.475C105.32,15.493,120.702,11.866,129.818,16.566z
     M98.659,28.01c5.291,5.27,14.123,4.71,20.91,1.813c4.811-2.054,13.924-5.668,15.005-11.666c9.78,2.464,14.464,14.69,18.467,24.047
    c-8.308,7.162-18.04,12.049-28.867,14.122c-12.233,2.343-23.303-0.85-34.058-6.379C91.183,42.103,95.082,35.267,98.659,28.01z
     M154.866,46.289c0.055,0.116,0.111,0.235,0.166,0.349c5.725,11.786,7.694,24.923,11.956,37.231
    c0.804,2.322,1.588,4.645,2.369,6.969c-3.596,4.138-6.732,8.322-11.269,11.636c-5.212,3.807-11.376,6.851-17.562,8.639
    c-6.402,1.85-13.256,1.796-19.845,1.365c-5.142-0.336-10.719-1.979-15.922-1.967c-2.696-7.329-4.936-14.829-6.885-22.384
    c-2.701-10.467-7.061-20.763-7.948-31.606c-0.069-0.837-0.089-1.657-0.089-2.469C109.26,68.217,137.593,60.956,154.866,46.289z
     M59.405,89.59c6.498-9.514,17.226-15.977,27.12-21.795c1.669,6.717,4.119,13.315,5.763,19.946
    c1.441,5.814,3.071,11.55,4.917,17.215c-3.913,3.533-7.643,6.665-10.457,10.359c-2.234-5.874-8.089-11.084-12.508-14.355
    c-4.383-3.244-11.636-7.019-17.821-6.519C57.345,92.789,58.329,91.166,59.405,89.59z M72.341,180.181
    c-8.988-4.461-15.807-11.746-21.805-19.707c0.014-0.007,0.027-0.01,0.041-0.018c3.962-2.189,7.568-5.857,7.74-10.639
    c0.134-3.723-1.498-7.086-4.275-9.521c-3.667-3.215-8.959-3.881-12.278-1.332c-0.483-5.913,0.353-11.99,2.403-17.979
    c1.822-5.324,4.745-10.434,6.973-15.614c0.547-1.272,1.105-2.536,1.679-3.791c0.296-0.073,0.601-0.191,0.912-0.395
    c4.832-3.154,12.511,0.932,16.764,3.658c5.877,3.767,11.07,8.916,13.232,15.558c-1.025,2.346-1.703,4.966-1.891,8.033
    c-0.461,7.514,4.137,13.935,9.82,18.581c-6.775,1.356-12.729,7.169-16.035,12.869C72.119,165.926,70.888,173.359,72.341,180.181z
     M78.996,183.049c-2.886-6.611-1.96-13.976,1.298-20.432c3.644-7.22,9.415-10.145,16.7-11.899c0.099,0.058,0.199,0.123,0.299,0.18
    c9.913,5.711,22.603,6.27,33.749,6.679c13.328,0.489,26.258-3.167,38.941-6.856c3.325-0.967,6.582-2.302,9.71-3.947
    c12.627,8.749,12.253,28.402,9.814,42.216c-9.405,3.251-19.331,5.153-29.294,5.786C133.278,196.486,104.317,193.084,78.996,183.049z
     M176.334,296.558c-0.227-0.148-0.423-0.326-0.605-0.519c0.084-0.071,0.225-0.18,0.483-0.335c0.94-0.564,2.028-0.883,3.067-1.206
    c1.802-0.561,3.749-1.041,5.623-1.29c0.059-0.008,0.112-0.025,0.168-0.037c1.403-0.087,2.814-0.267,4.206-0.506
    c0.132,0.368,0.284,0.731,0.455,1.085C185.526,295.49,179.902,298.415,176.334,296.558z M187.935,305.397
    c-0.104,0.031-0.355,0.047-0.466,0.008c-0.011-0.045-0.021-0.087-0.038-0.151c-0.184-0.695,0.276-1.714,0.482-2.354
    c0.563-1.751,1.524-3.298,2.463-4.863c0.823-0.346,1.587-0.663,2.261-0.917c0.119,0.07,0.249,0.119,0.373,0.18
    C192.121,300.217,190.885,304.523,187.935,305.397z M195.872,292.383c-0.047,0.202-0.309,0.71-0.287,0.684
    c-0.071,0.085-0.469,0.365-0.345,0.317c-0.318,0.123-0.759,0.087-1.426-0.297c-0.457-0.263-0.821-0.66-1.121-1.107
    c1.131-0.255,2.234-0.523,3.293-0.786C195.982,291.591,195.964,291.988,195.872,292.383z M195.107,287.145
    c-6.707,1.562-14.652,3.826-20.446-1.229c-3.123-2.724-4.652-7.646-6.327-11.323c-1.525-3.349-2.985-6.715-4.339-10.13
    c1.231,0.348,2.495,0.636,3.806,0.831c12.067,1.789,26.183-0.035,36.157-7.411c0.945-0.699,1.913-1.454,2.872-2.257
    c1.917,6.119,2.553,12.677,3.166,19.009C210.881,283.769,202.093,285.518,195.107,287.145z M205.887,302.416
    c-1.264,0.415-3.423-1.541-4.267-2.24c-1.204-0.996-2.375-2.149-3.322-3.417c0.515-0.415,0.949-0.932,1.3-1.515
    c2.066,0.352,4.024,1.265,5.593,2.657c0.814,0.722,1.401,1.608,1.44,2.712C206.647,301.063,206.415,302.243,205.887,302.416z
     M214.708,288.736c0.173,2.014-2.424,3.115-3.91,3.527c-1.701,0.471-3.545,0.503-5.379,0.364c-1.495-0.881-3.154-1.513-4.793-1.82
    c-0.02-0.258-0.039-0.516-0.086-0.765c2.889-0.787,5.717-1.769,8.054-3.368c0.335,0.103,0.716,0.141,1.153,0.076
    C211.275,286.523,214.523,286.586,214.708,288.736z M211.349,239.927c-1.007,6.144-6.253,11.171-10.966,14.777
    c-9.042,6.919-23.32,7.764-34.107,5.435c-11.914-2.572-17.934-13.796-21.359-24.381c-3.828-11.831-9.316-23.418-12.727-35.387
    c5.77,0.365,11.539,0.538,17.22,0.576c7.126,0.047,14.173-0.449,21.074-1.514c0.805,3.415,2.316,6.454,4.299,9.153
    c-3.25,0.673-6.187,3.463-7.782,6.154c-2.341,3.952-2.189,9.61,0.874,13.135c3.672,4.226,10.378,5.656,15.456,3.195
    c4.465-2.163,6.67-6.279,6.641-10.811c1.761,0.801,3.552,1.508,5.345,2.104c5.333,1.771,10.791,2.239,16.126,1.644
    C210.583,229.34,212.22,234.611,211.349,239.927z M204.146,219.542c1.194-2.96,2.047-6.24,2.846-9.404
    c1.633,0.218,3.283,0.288,4.937,0.211c-0.178,2.801,0.293,5.703,1.308,8.288c0.074,0.188,0.166,0.349,0.266,0.497
    C210.433,219.661,207.296,219.809,204.146,219.542z M212.246,205.477c-1.012-5.968-2.686-12.768-5.247-18.38
    c4.93-2.763,9.678-5.956,14.191-9.637c6.574-5.362,12.266-11.633,16.863-18.509c4.763,14.069-0.232,29.977-11.149,39.868
    C222.489,202.82,217.578,205.01,212.246,205.477z M217.105,218.328c0.033-0.234,0.039-0.484-0.005-0.757
    c-0.43-2.633-1.403-5.014-1.351-7.679c1.908-0.368,3.808-0.962,5.686-1.777c0.561,0.983,1.175,1.941,1.712,2.935
    c0.696,1.288,1.13,2.875,2.141,3.942C222.671,216.428,219.929,217.547,217.105,218.328z M230.338,211.704
    c-0.464,0.356-0.936,0.697-1.412,1.03c-0.354-1.411-1.264-2.628-2.088-3.842c-0.59-0.869-1.209-1.755-1.868-2.6
    c0.999-0.607,1.987-1.286,2.962-2.04c0.769-0.595,1.508-1.22,2.229-1.862c1.9,0.854,3.492,2.383,5.183,3.563
    c0.373,0.26,0.764,0.359,1.141,0.337C234.578,208.217,232.524,210.027,230.338,211.704z M238.615,204.005
    c0.015-0.516-0.176-1.029-0.666-1.429c-1.499-1.221-3.018-2.358-4.709-3.216c0.819-0.895,1.593-1.826,2.331-2.783
    c2.308,0.743,4.292,2.142,6.562,2.983C241.047,201.098,239.873,202.582,238.615,204.005z M244.526,195.806
    c-0.073-0.044-0.14-0.091-0.223-0.128c-2.014-0.89-4.115-2.023-6.304-2.587c1.078-1.724,2.017-3.527,2.843-5.376
    c0.109,0.028,0.22,0.054,0.341,0.067c2.254,0.242,4.224,1.092,6.338,1.749C246.684,191.701,245.682,193.796,244.526,195.806z
     M248.901,185.275c-2.022-0.868-4.335-1.375-6.54-1.409c0.437-1.295,0.806-2.611,1.118-3.94c2.183-0.038,4.347-0.404,6.549-0.364
    C249.781,181.516,249.4,183.42,248.901,185.275z M250.399,175.117c-0.072-0.003-0.137-0.016-0.213-0.013
    c-1.941,0.083-4.021,0.212-5.954,0.704c0.313-2.339,0.409-4.705,0.322-7.07c1.807-0.817,3.591-1.132,5.632-1.396
    c0.135-0.017,0.267-0.045,0.396-0.077C250.641,169.984,250.551,172.651,250.399,175.117z M123.052,21.022
    c-4.55,2.116-11.81,6.361-16.75,3.611c-1.467-0.817-0.713-2.89,0.809-2.986c5.212-0.328,9.18-3.985,14.134-4.911
    C123.69,16.279,125.615,19.831,123.052,21.022z M122.139,78.707c-3,0-3-4.358,0-4.358S125.139,78.707,122.139,78.707z
     M130.139,76.049c-3,0-3-4.045,0-4.045S133.139,76.049,130.139,76.049z M140.139,74.789c-3,0-3-4.026,0-4.026
    S143.139,74.789,140.139,74.789z M148.139,81.023c-2,0-2-3.987,0-3.987C151.139,77.036,151.139,81.023,148.139,81.023z
     M150.139,89.959c-2,0-2-3.85,0-3.85C153.139,86.11,153.139,89.959,150.139,89.959z M146.815,95.568
    C146.708,95.543,146.718,95.531,146.815,95.568L146.815,95.568z M146.815,99.511C146.718,99.548,146.708,99.536,146.815,99.511
    L146.815,99.511z M146.919,99.49c-0.045,0.008-0.076,0.014-0.104,0.021c0.121-0.047,0.369-0.171,0.669-0.446
    c-1.363,1.248-3.683,0.418-3.683-1.525c0-1.943,2.32-2.774,3.683-1.525c-0.3-0.275-0.548-0.399-0.669-0.446
    c0.028,0.006,0.059,0.013,0.104,0.021C148.858,95.913,148.858,99.166,146.919,99.49z M138.139,104.07c-2,0-2-3.557,0-3.557
    C141.139,100.514,141.139,104.07,138.139,104.07z M126.139,104.365c-2,0-2-3.146,0-3.146S128.139,104.365,126.139,104.365z
     M119.139,98.204c-2,0-2-3.83,0-3.83S121.139,98.204,119.139,98.204z M115.139,89.043c-2,0-2-3.518,0-3.518
    C118.139,85.525,118.139,89.043,115.139,89.043z M49.009,131.303c-0.146-1.078-1.173-1.682-2.158-1.77
    c-0.959-0.086-1.791,0.719-2.059,1.567c-0.126,0.4-0.092,0.866,0.019,1.263c0.072,0.258,0.197,0.491,0.354,0.698
    c0.048,0.094,0.097,0.186,0.14,0.283c0.374,0.826,1.501,1.167,2.317,0.943c0.834-0.229,1.57-1.077,1.506-1.979
    C49.106,131.971,49.055,131.638,49.009,131.303z M55.652,132.154c-0.643-0.082-1.262,0.362-1.701,0.774
    c-0.638,0.597-0.738,1.629-0.306,2.368c0.166,0.283,0.387,0.472,0.628,0.623c0.923,0.725,2.587,0.627,3.115-0.554
    c0.189-0.422,0.302-0.684,0.318-1.156C57.748,132.984,56.732,132.291,55.652,132.154z M64.427,141.313
    c0,0.737-0.4,1.433-1.036,1.805c-0.533,0.312-1.026,0.293-1.611,0.211c-0.164-0.023-0.315-0.046-0.474-0.094
    c-1.901-0.579-1.901-3.265,0-3.844c0.159-0.048,0.311-0.071,0.474-0.094c0.766-0.107,1.455-0.042,2.034,0.538
    C64.205,140.225,64.427,140.76,64.427,141.313z M65.139,152.639c-2,0-2-4.143,0-4.143C68.139,148.496,68.139,152.639,65.139,152.639
    z M60.139,163.024c-2,0-2-3.4,0-3.4S62.139,163.024,60.139,163.024z M148.608,171.542c-2.338-3.678-7.384-6.016-11.603-4.466
    c-1.272,0.467-1.721,1.642-1.564,2.692c-2.351,3.238-2.182,7.348,0.441,10.496c2.52,3.025,6.685,4.549,10.323,2.607
    C150.392,180.636,150.963,175.246,148.608,171.542z M135.084,163.865c-0.046,0.289-0.187,0.551-0.359,0.789
    c-0.682,1.615-3.398,1.564-3.801-0.292c-0.269-1.237,0.233-2.756,1.66-2.998c0.736-0.125,1.426-0.029,1.977,0.523
    C135.117,162.443,135.201,163.126,135.084,163.865z M142.139,164.083c-3,0-3-3.518,0-3.518
    C144.139,160.565,144.139,164.083,142.139,164.083z M150.634,168.574c-0.733,0-1.339-0.346-1.74-0.868
    c-0.574-0.556-0.838-1.458-0.63-2.214c0.271-0.987,1.135-1.554,2.12-1.614c1.155-0.071,2.098,0.811,2.417,1.851
    C153.232,167.133,152.062,168.574,150.634,168.574z M155.139,175.044c-3,0-3-3.928,0-3.928S158.139,175.044,155.139,175.044z
     M155.996,183.667c-0.019,0.078-0.038,0.156-0.057,0.235c-0.491,2.038-3.617,2.038-4.108,0c-0.019-0.078-0.038-0.156-0.057-0.235
    c-0.332-1.377,0.653-2.77,2.111-2.77S156.328,182.29,155.996,183.667z M147.139,189.665c-2,0-2-3.654,0-3.654
    C150.139,186.011,150.139,189.665,147.139,189.665z M134.918,187.806c-0.076,0.025-0.153,0.05-0.229,0.075
    c-1.321,0.434-2.684-0.717-2.684-2.045c0-1.327,1.363-2.479,2.684-2.045c0.076,0.025,0.153,0.05,0.229,0.075
    C136.863,184.507,136.863,187.167,134.918,187.806z M129.906,178.894c-0.019,0.078-0.038,0.156-0.056,0.235
    c-0.473,1.963-3.484,1.963-3.957,0c-0.019-0.078-0.038-0.156-0.056-0.235c-0.32-1.328,0.63-2.672,2.035-2.672
    S130.227,177.566,129.906,178.894z M128.139,172.156c-3,0-3-3.654,0-3.654C130.139,168.501,130.139,172.156,128.139,172.156z
     M226.139,158.384c-2,0-2-3.127,0-3.127S228.139,158.384,226.139,158.384z M222.139,150.605c-2,0-2-3.576,0-3.576
    C225.139,147.029,225.139,150.605,222.139,150.605z M223.139,141.5c-3,0-3-4.377,0-4.377S226.139,141.5,223.139,141.5z
     M229.139,130.307v0.5c0,1.129-0.871,2.071-2,2.071c-1.129,0-2-0.942-2-2.071v-0.5c0-1.129,0.871-2.071,2-2.071
    C228.268,128.236,229.139,129.178,229.139,130.307z M234.139,126.66c-3,0-3-3.713,0-3.713
    C236.139,122.948,236.139,126.66,234.139,126.66z M240.139,126.268c-2,0-2-3.928,0-3.928
    C243.139,122.34,243.139,126.268,240.139,126.268z M168.139,206.336c-2,0-2-3.478,0-3.478S170.139,206.336,168.139,206.336z
     M164.288,210.942c-0.263,0.956-1.157,1.636-2.148,1.636c-0.991,0-1.885-0.68-2.148-1.636c-0.123-0.447-0.094-0.871,0.038-1.258
    c0.009-0.053,0.018-0.106,0.028-0.159c0.359-2.07,3.805-2.07,4.164,0c0.009,0.053,0.018,0.106,0.028,0.159
    C164.382,210.071,164.411,210.495,164.288,210.942z M162.425,220.105c0,1.029-0.729,1.991-1.743,2.219
    c-1.186,0.266-2.417-0.409-2.748-1.611c-0.33-1.201,0.396-2.482,1.597-2.813C160.965,217.506,162.425,218.618,162.425,220.105z
     M163.681,231.415c-0.504,0.4-1.2,0.569-1.829,0.396c-0.809-0.223-1.564-1.066-1.485-1.95c0.112-1.252,0.695-2.214,1.936-2.63
    c1.375-0.46,2.795,0.753,2.795,2.129C165.098,230.28,164.502,231.091,163.681,231.415z M172.139,239.611c-3,0-3-4.495,0-4.495
    S175.139,239.611,172.139,239.611z M183.139,240.147c-3,0-3-4.065,0-4.065C185.139,236.082,185.139,240.147,183.139,240.147z
     M192.298,233.112c0,1.451-1.549,2.862-3.03,2.308c-0.076-0.028-0.151-0.056-0.227-0.085c-0.974-0.364-1.693-1.128-1.693-2.224
    c0-1.096,0.719-1.859,1.693-2.224c0.076-0.028,0.151-0.057,0.227-0.085C190.749,230.25,192.298,231.661,192.298,233.112z
     M196.139,228.566c-3,0-3-4.416,0-4.416S199.139,228.566,196.139,228.566z M181.309,283.111c-1.311-1.782-2.069-4.278-2.845-6.347
    c-0.713-1.902-1.312-3.844-1.425-5.882c-0.142-2.564,3.326-2.615,4.146-0.561c0.804,2.013,1.512,4.035,2.453,5.996
    c0.76,1.586,1.773,3.189,2.101,4.927C186.263,284.025,182.941,285.331,181.309,283.111z M196.418,277.141
    c-0.722-3.143-1.612-6.284-1.841-9.511c-0.171-2.417,3.427-2.729,4.088-0.553c0.889,2.923,2.37,5.628,3.236,8.552
    C202.947,279.16,197.236,280.705,196.418,277.141z M267.312,32.938c-2.379-8.779-12.699-16.887-21.093-10.041
    c-6.718,1.311-11.268,7.465-10.443,14.883c0.982,8.83,8.587,15.85,17.538,15.452C264.268,52.744,270.032,42.974,267.312,32.938z
     M250.582,48.233c-5.437-0.785-9.368-5.964-10.062-11.188c-0.73-5.485,2.392-8.376,6.577-10.058
    c0.658,0.258,1.408,0.296,2.113-0.033C264.142,19.969,269.681,50.991,250.582,48.233z M280.939,78.031
    c-3.952-3.223-9.711-3.197-13.225,0.64c-1.001,1.093-0.758,2.408,0.007,3.232c-1.564,3.78-0.453,7.963,2.958,10.562
    c3.61,2.751,8.88,2.548,11.727-1.173C285.571,87.158,284.978,81.326,280.939,78.031z M278.957,88.687
    c-1.336,2.108-4.062,1.581-5.853,0.525c-2.607-1.537-3.162-4.459-1.766-7.02c0.109-0.2,0.167-0.396,0.198-0.587
    C276.191,77.954,282.297,83.416,278.957,88.687z M45.306,47.012c-0.024,1.176,0.721,1.879,1.61,2.084
    c0.231,4.172,2.469,7.855,7.069,9.486c6.193,2.197,12.652-0.388,15.151-6.493C75.857,35.67,45.646,30.229,45.306,47.012z
     M64.716,50.871c-1.189,3.741-5.685,4.634-9.016,3.802c-3.951-0.986-5.907-4.262-5.732-7.909c1.504-3.762,4.338-5.701,8.652-5.44
    C63.707,41.632,66.166,46.307,64.716,50.871z M246.945,236.146c-0.714-4.37-5.46-6.716-9.456-5.369
    c-1.037,0.349-1.515,1.142-1.558,1.955c-3.116,1.147-4.195,4.496-3.446,7.682c0.917,3.9,4.692,6.074,8.507,5.242
    C245.334,244.709,247.619,240.271,246.945,236.146z M239.867,241.572c-3.568,1.113-5.074-4.765-2.049-6.391
    c0.048-0.026,0.086-0.057,0.129-0.085c0.227,0.017,0.464,0.012,0.721-0.042C243.43,234.055,244.086,240.256,239.867,241.572z
     M277.11,132.307c-2.136-3.53-6.664-3.784-9.898-1.716c-3.46,2.212-4.685,6.612-2.994,10.201c-0.002,0.323,0.128,0.642,0.445,0.889
    c0.022,0.017,0.046,0.028,0.068,0.045c0.015,0.023,0.026,0.047,0.041,0.069c0.512,0.774,1.225,1.066,1.908,1.028
    c2.629,1.069,5.659,0.777,8.229-0.615C278.783,140.108,279.232,135.813,277.11,132.307z M268.717,140.222
    c-0.041-0.201-0.099-0.406-0.201-0.617c-0.958-1.984-0.53-3.838,1.083-5.28c1.388-1.242,3.297-1.213,4.349,0.365
    C276.274,138.181,272.106,140.453,268.717,140.222z M100.186,215.845c-0.085,0.052-0.152,0.112-0.227,0.169
    c-11.033,3.738-2.74,20.488,7.512,17.532C119.671,230.027,111.832,208.749,100.186,215.845z M105.853,229.548
    c-2.795,0.852-5.414-1.801-6.643-3.977c-1.317-2.331-0.847-4.521,0.871-6.023c0.623,0.453,1.471,0.616,2.374,0.179
    C109.109,216.507,112.15,227.628,105.853,229.548z"/>
</svg>