<svg xmlns="http://www.w3.org/2000/svg" viewBox="0 0 320 320">
    <path d="M188.903,179.024c-3.395-2.323-8.892-5.531-13.589-8.126c-2.732-1.511-5.415-3.146-8.009-4.728
        c-1.325-0.808-2.678-1.625-4.039-2.434c0.638,8.674,0.863,17.22,0.859,25.43c1.223,0.475,2.547,1.281,4.001,2.213
        c0.459,0.295,0.858,0.556,1.155,0.717c0.729,0.395,1.456,0.782,2.18,1.17c2.173,1.16,4.42,2.361,6.579,3.671
        c3.008,1.825,5.074,3.351,7.072,4.826c1.683,1.242,3.422,2.526,5.791,4.045c1.963,1.26,8.387,4.089,13.801,6.355
        c-1.504-3.607-3.914-8.644-5.057-11.03c-0.529-1.106-0.967-2.02-1.244-2.623c-0.393-0.851-1.817-3.74-3.467-7.086
        C192.536,186.557,189.854,181.118,188.903,179.024z"/>
    <path d="M87.374,45.9c10.222-0.172,19.935-1.022,30.303-2.033c33.571-3.263,69.343-0.74,103.091-0.818
        c13.322-0.031,26.409,1.448,39.673-0.659c8.412-1.335,15.952-16.431,10.052-26.048c-7.269-9.95-17.505-5.209-27.963-5.239
        c-19.229-0.056-38.626-0.432-57.671,2.68c-35.435,5.788-83.563-5.076-114.144,6.779C89.014,20.563,95.506,37.941,87.374,45.9z"/>
    <path d="M159.783,193.866c-2.289,1.158-4.669,1.988-6.997,2.792c-3.896,1.346-7.575,2.617-10.506,5.312
        c-0.695,0.64-1.393,1.298-2.095,1.962c-3.291,3.109-6.694,6.326-10.787,8.44c-1.07,0.552-2.674,1.347-4.628,2.218
        c-3.29,6.145-6.069,10.756-8.253,13.682c-2.235,2.996-3.738,6.76-4.826,10.266c2.577-0.854,5.881-2.081,7.132-2.845
        c0.829-0.506,1.592-1.059,2.33-1.593c1.693-1.228,3.445-2.496,5.994-3.241c2.567-0.753,11.688-4.578,12.882-5.266
        c1.715-1.289,3.584-2.12,5.394-2.924c1.868-0.83,3.633-1.615,5.055-2.83c2.656-2.278,6.809-4.376,8.785-5.312
        C159.489,208.047,159.709,201.107,159.783,193.866z"/>
    <path d="M191.574,211.062c-1.257-0.617-2.309-1.176-3-1.618c-2.488-1.596-4.286-2.923-6.024-4.207
        c-2.01-1.483-3.908-2.885-6.748-4.607c-2.059-1.249-4.155-2.369-6.374-3.556c-0.731-0.391-1.466-0.783-2.203-1.183
        c-0.367-0.199-0.863-0.514-1.43-0.877c-0.373-0.24-1.025-0.656-1.696-1.045c-0.077,7.497-0.309,14.66-0.544,21.333
        c2.318,1.981,10.826,9.184,15.783,12.497c1.987,1.304,17.736,9.238,25.151,12.286c-0.511-1.117-1.099-2.374-1.699-3.657
        c-1.313-2.809-2.803-5.991-4.191-9.201c-0.7-1.619-1.475-3.544-2.294-5.581C194.903,218.162,192.611,212.462,191.574,211.062z"/>
    <path d="M160.762,218.595c-2.483,1.195-5.314,2.799-7.1,4.225c-0.438,2.177-0.255,11.153,0.126,14.046
        c0.394,2.99,1.979,7.269,3.01,9.258c1.631-2.067,4.132-7.55,5.041-9.542c0.532-1.168,0.917-2.011,1.186-2.499
        c0.988-1.79,1.869-9.638,1.687-12.16C162.964,220.471,161.54,219.26,160.762,218.595z"/>
    <path d="M155.638,109.02c0.004,0.032,0.008,0.064,0.012,0.097c0.109,0.07,0.215,0.148,0.323,0.223
        C155.859,109.235,155.749,109.127,155.638,109.02z"/>
    <path d="M76.099,44.445c5.06,1.291,8.148-0.716,9.111-3.805c0.873-2.799,0.003-6.487-2.723-9.416c-2.275,0-5.354,1.079-8.103,3.08
        C70.259,37.308,68.174,42.421,76.099,44.445z"/>
    <path d="M126.195,180.216c1.936-1.258,3.937-2.261,5.872-3.23c2.14-1.072,4.161-2.085,6.045-3.395
        c1.206-0.84,2.518-1.684,3.787-2.5c3.04-1.956,6.184-3.979,8.439-6.261c0.526-0.532,1.014-1.137,1.529-1.776
        c0.792-0.984,1.612-2.002,2.686-2.898c0.729-0.607,1.617-0.896,2.476-1.176c0.408-0.133,1.092-0.354,1.274-0.505
        c0,0.001-0.049,0.042-0.103,0.131l0.324,0.194c-0.361-3.85-0.803-7.71-1.364-11.562c-0.432-2.235-0.838-4.441-1.228-6.639
        c-0.941,0.746-1.966,1.451-2.959,2.098c-0.694,0.453-1.384,0.953-2.081,1.457c-0.9,0.652-1.831,1.326-2.82,1.944
        c-1.586,0.99-3.076,2.135-4.654,3.345c-1.797,1.379-3.655,2.805-5.726,4.041c-1.562,0.934-3.869,1.882-6.311,2.887
        c-0.243,0.1-0.487,0.201-0.731,0.301c-4.16,4.966-13.841,21.578-17.553,30.207c2.473-0.948,5.201-2.339,7.363-3.638
        c0.946-0.569,1.917-1.038,2.856-1.491C124.35,181.252,125.326,180.78,126.195,180.216z"/>
    <path d="M137.22,200.795c0.717-0.678,1.428-1.35,2.138-2.002c3.592-3.304,7.875-4.784,12.018-6.215
        c3.025-1.046,5.898-2.044,8.435-3.693c-0.001-8.4-0.245-17.137-0.932-25.971c-0.175,0.06-0.348,0.117-0.515,0.171
        c-0.362,0.118-0.909,0.296-1.068,0.403c-0.721,0.604-1.374,1.414-2.066,2.273c-0.561,0.695-1.14,1.415-1.82,2.104
        c-2.591,2.62-5.938,4.773-9.175,6.855c-1.293,0.832-2.515,1.618-3.656,2.413c-2.139,1.487-4.395,2.618-6.577,3.712
        c-1.17,0.586-2.297,1.158-3.395,1.767c-0.638,0.667-2.234,3.435-3.534,5.692c-1.81,3.144-4.062,7.056-6.345,10.2
        c-2.403,3.309-7.124,11.454-9.099,16.163c6.59-1.604,13.045-4.715,15.79-6.131C130.968,206.703,134.147,203.699,137.22,200.795z"/>
    <path d="M60.318,286.151c-1.692,4.162-1.155,9.297,4.32,10.359c5.964,1.154,11.213-3.591,7.08-11.74
        C67.939,277.322,62.416,280.988,60.318,286.151z"/>
    <path d="M72.738,300.097c-3.727,0.852-9.537,1.525-13.596-1.138c-2.382-1.562-3.939-4.011-4.503-7.08
        c-0.703-3.813,0.243-8.094,2.468-11.168c2.216-3.066,5.971-6.604,10.437-7.41c62.398-11.276,111.492-11.967,160.395-1.687
        c2.687,0.565,12.046,0.396,19.381,0.202c13.636-107.373-14.022-145.961,4.97-224.259c-7.125,0.648-13.607,0.341-19.903,0.034
        c-5.601-0.27-41.883,0.486-54.209,0.405c-3.835-0.025-21.764-0.192-27.177-0.341c-11.111-0.306-59.943,3.118-67.282,2.469
        c-7.341-0.65-12.806-2.164-14.323-3.431c-3.009-2.517-3.466-8.278-1.952-12.069c1.325-3.318,5.251-5.036,8.714-6.551
        c0.848-0.37,1.709-0.747,2.481-1.127c-2.001-1.137-4.19-1.834-6.231-2.153c-4.958-0.772-13.217,4.334-15.751,10.177
        c-30.793,71.035,9.673,109.25-11.281,227.022c-5.045,28.359,2.234,40.176,9.978,43.827c3.972,1.873,8.857,1.665,12.494,0.031
        c2.256-1.014,3.898-2.939,4.88-5.717C72.73,300.12,72.735,300.108,72.738,300.097z M102.676,116.714
        c0.119-1.229,1.223-11.527,1.223-11.527l0.26-2.42l2.371,0.546c1.384,0.319,3.027,0.774,4.769,1.257
        c1.265,0.35,2.606,0.722,3.991,1.082c-5.027-5.038-6.226-12.339-4.882-18.411c1.769-7.987,8.36-16.046,19.098-16.046
        c0.613,0,1.24,0.027,1.865,0.081c7.461,0.642,14.89,7,19.084,16.252c0.049-0.24,0.092-0.476,0.146-0.718
        c2.76-12.347,13.007-17.874,21.938-17.874c4.333,0,8.38,1.315,11.396,3.703c5.154,4.081,8.202,13.307,6.796,20.567
        c-0.084,0.429-0.182,0.849-0.294,1.256c1.087-0.759,2.162-1.584,3.214-2.473l2.356-1.987l5.318,14.496l-0.646,0.946
        C196.278,111.731,186.101,116,175.353,116c-0.001,0-0.001,0-0.002,0c-1.364,0-2.692-0.125-3.988-0.262
        c4.913,2.1,10.686,4.817,15.024,6.894c1.228,0.588,2.329,1.115,3.243,1.548c4.113,1.943,7.023,5.009,11.124,11.715
        c2.188,3.576,6.536,15.819,7.158,20.153l0.518,3.607l-3.412-1.28c-1.311-0.491-4.292-1.526-7.452-2.624
        c2.356,4.083,4.56,8.883,5.415,11.571c1.037,3.262,2.118,5.721,3.164,8.098c1.647,3.747,3.204,7.285,4.152,13.027l0.304,1.84
        l-1.776,0.567c-0.2,0.064-0.427,0.095-0.676,0.095c-2.604,0-7.728-3.303-11.666-6.156c0.789,1.605,1.598,3.246,2.325,4.722
        c1.664,3.373,3.101,6.286,3.516,7.188c0.272,0.59,0.7,1.483,1.218,2.566c4.364,9.118,6.738,14.465,6.784,16.606l0.07,3.271
        l-3.036-1.224c-0.339-0.137-4.918-1.987-9.573-4.019c0.717,1.668,1.54,3.687,2.522,6.128c0.81,2.012,1.573,3.911,2.251,5.479
        c1.363,3.152,2.839,6.305,4.14,9.086c2.058,4.396,3.237,6.95,3.565,8.3l0.499,2.054l-2.044,0.542
        c-0.193,0.051-0.401,0.105-0.725,0.105c-1.299,0.001-4.462-0.892-16.061-6.512c-6.691-3.243-13.96-7.007-14.997-7.7
        c-2.289-1.53-5.229-3.791-8.01-6.02c-0.277,3.857-1.046,8.844-2.124,10.799c-0.188,0.344-0.583,1.207-1.039,2.207
        c-3.489,7.649-5.723,11.687-8.244,12.525c-0.335,0.111-0.676,0.166-1.011,0.166c-0.503,0-0.994-0.124-1.44-0.368
        c-2.517-1.379-5.132-9.996-5.562-13.266c-0.013-0.097-0.635-6.58-0.407-11.694c-0.643,0.309-1.288,0.601-1.926,0.885
        c-1.679,0.746-3.265,1.457-4.598,2.469c-1.234,0.937-11.821,5.234-14.219,5.936c-1.833,0.536-3.149,1.515-4.674,2.618
        c-0.806,0.584-1.639,1.238-2.614,1.833c-2.313,1.412-10.828,4.522-12.503,4.522c-0.003,0-0.005,0-0.007,0l-2.777-0.112l0.699-2.786
        c1.228-4.718,3.083-10.732,6.575-15.412c1.491-1.996,3.304-4.883,5.399-8.578c-3.035,1.068-6.336,2.009-9.561,2.5l-2.607,0.396
        l0.127-2.634c0.229-4.732,8.744-18.55,10.818-21.405c2.008-2.767,3.97-6.127,5.729-9.18c-0.09,0.052-0.188,0.099-0.277,0.152
        c-1.255,0.754-7.761,4.551-12.713,5.292l-3.161,0.473l0.742-3.108c1.319-5.524,9.166-19.774,15.056-28.95
        c-2.168,0.992-4.887,1.685-7.541,2.36c-1.757,0.445-3.417,0.867-4.674,1.322l-2.627,0.951l-0.258-2.781
        c-0.389-4.205,9.179-24.209,10.4-26.049c1.167-1.753,5.802-5.287,13.315-10.703c-0.648,0.045-1.303,0.076-1.973,0.076
        c-8.923,0-18.37-3.994-25.27-6.911l-1.461-0.618L102.676,116.714z"/>
    <path d="M276.169,287.284c-0.039-10.056-8.506-9.102-18.778-9.102c-18.41,0-55.286-6.329-83.034-8.137
        c-38.688-2.519-64.581,2.802-102.972,7.796c8.468,6.488,9.236,23.916,0.509,30.449c1.785,0.258,3.593,0.487,5.367,0.578
        c25.533,1.296,38.415-2.061,63.82-4.156c25.352-2.09,112.595,7.522,122.832,4.797C276.285,306.223,276.66,299.266,276.169,287.284z
        "/>
    <path d="M144.818,114.073c5.03-6.354,5.76-15.412,1.952-24.229c-3.463-8.02-9.8-13.752-15.77-14.267
        c-0.502-0.043-1.005-0.065-1.495-0.065c-8.915,0-13.589,6.821-14.883,12.663c-1.262,5.7,0.042,13.649,7.869,17.294
        c2.113,0.984,4.089,1.483,5.87,1.483c5.371,0,8.269-4.802,8.269-9.321c0-3.457-1.664-7.151-6.335-7.151
        c-1.59,0-3.411,0.424-5.414,1.26l-2.673-3.119c1.819-2.97,4.47-4.605,7.465-4.605c2.729,0,5.589,1.407,7.843,3.861
        c2.996,3.26,4.556,7.893,4.174,12.392c-0.453,5.349-3.244,11.726-13.96,11.726c-5.794,0-12.331-1.811-17.584-3.266
        c-0.766-0.212-1.512-0.419-2.219-0.609c-0.24,2.239-0.585,5.477-0.791,7.435c6.65,2.796,14.63,5.949,22.117,5.949
        C135.769,121.504,140.86,119.074,144.818,114.073z"/>
    <path d="M185.096,151.297c-8.794-3.579-14.297-6.085-21.264-9.256c-1.131-0.515-2.308-1.051-3.546-1.613
        c0.36,2.015,0.734,4.039,1.129,6.088c0.582,3.995,1.039,7.99,1.411,11.969c2.28,1.296,4.539,2.665,6.726,3.998
        c2.556,1.558,5.198,3.169,7.85,4.635c3.849,2.126,13.169,7.39,16.597,10.327c1.982,1.699,7.648,5.798,11.243,7.92
        c-0.819-3.14-1.875-5.54-3.048-8.208c-1.041-2.365-2.22-5.047-3.326-8.527c-1.147-3.606-5.174-11.756-8.021-15.225
        C188.353,152.526,186.216,151.753,185.096,151.297z"/>
    <path d="M175.351,111.591c8.727,0,17.188-3.166,21.121-7.803l-2.428-6.612c-3.895,2.89-8.028,5.024-11.96,6.212
        c-0.122,0.04-0.245,0.078-0.369,0.114c-0.22,0.065-0.441,0.124-0.664,0.177c-3.712,0.971-7.174,1.032-10.175,0.169
        c-6.591-2.004-8.524-6.93-8.146-10.875c0.503-5.25,4.65-9.455,9.862-9.999l1.404,3.954c-3.658,2.392-5.258,5.102-4.505,7.631
        c0.864,2.901,4.546,5.173,8.381,5.173c0.901,0,1.783-0.125,2.621-0.373c3.268-0.964,5.285-3.312,5.996-6.978
        c1.209-6.24-1.789-13.63-5.237-16.36c-2.256-1.786-5.352-2.77-8.716-2.77c-7.209,0-15.486,4.483-17.725,14.499
        c-1.576,7.05-0.704,12.71,2.592,16.824C160.975,109.034,167.517,111.59,175.351,111.591z"/>
    <path d="M160.745,116.352c-1.078-0.393-2.097-0.763-3.136-1.009c-0.429-0.101-0.829-0.279-1.219-0.481
        c0.941,7.148,1.904,13.795,3.009,20.427c2.259,1.021,4.308,1.953,6.221,2.823c6.923,3.151,12.391,5.641,21.104,9.188
        c1.963,0.8,7.421,2.695,12.237,4.368c1.368,0.475,2.66,0.924,3.803,1.323c-1.449-5.023-4.223-12.44-5.692-14.843
        c-3.649-5.968-5.992-8.508-9.285-10.064c-0.92-0.435-2.028-0.965-3.265-1.557c-6.161-2.951-16.473-7.889-21.241-9.309
        C162.396,116.954,161.556,116.648,160.745,116.352z"/>
    <path d="M121.506,138.84c-1.554,2.339-6.961,14.446-8.951,20.354c0.475-0.124,0.96-0.247,1.452-0.372
        c2.977-0.756,6.35-1.612,8.021-2.764c1.826-1.26,4.818-2.49,7.712-3.681c2.188-0.899,4.45-1.83,5.738-2.6
        c1.856-1.107,3.612-2.456,5.312-3.759c1.589-1.22,3.232-2.481,4.995-3.582c0.864-0.54,1.734-1.17,2.576-1.779
        c0.754-0.546,1.501-1.086,2.254-1.577c0.903-0.589,3.536-2.314,4.436-3.625c-1.053-6.359-1.979-12.756-2.884-19.603
        c-2.755,2.181-7.103,5.303-12.872,9.421C132.249,130.305,122.601,137.194,121.506,138.84z"/>
</svg>