<svg xmlns="http://www.w3.org/2000/svg"viewBox="0 0 320 320">
    <path d="M149.366,197.375c1.136,4.229,2.098,8.846,1.816,13.081c-7.029,3.135-14.174,10.532-13.75,18.454
	c0.405,7.575,8.7,8.985,14.159,5.894c5.136,5.087,16.585,4.831,21.767-1.482c6.621,0.585,11.547-4.027,11.162-10.92
	c-0.484-8.669-9.03-12.385-16.27-14.263c-3.344-0.867-4.765,4.311-1.423,5.161c4.249,1.081,8.904,2.361,11.432,6.246
	c2.409,3.701,0.792,7.47-2.576,8.944c0.239-1.082,0.349-2.252,0.302-3.518c-0.129-3.465-5.517-3.479-5.391,0
	c0.174,4.833-3.304,7.871-7.962,8.327c-5.587,0.548-8.203-2.777-9.91-7.542c-0.551-1.538-2.936-1.792-3.372,0
	c-0.521,2.142-0.433,4.016,0.095,5.626c-4.603,2.337-8.418-1.093-6.13-6.488c2.179-5.14,7.346-8.435,11.2-12.195
	c0.672-0.656,0.587-1.672,0.088-2.336c2.463-11.744-2.986-27.325-10.248-36.12c-0.011-0.013-0.023-0.026-0.035-0.039
	c0.066-0.147,0.118-0.307,0.139-0.49c0.311-2.632,1.249-5.829,0.045-8.361c-1.48-3.112-4.381-4.592-7.262-6.246
	c-7.122-4.09-14.558-9.019-22.963-9.939c-6.631-0.726-10.77,5.351-14.572,9.833c-4.703,5.544-8.089,9.861-8.352,17.319
	c-0.86,2.072-0.592,4.434-0.071,6.625c0.104,0.438,0.321,0.753,0.597,0.963c0.513,3.271,2.511,6.353,6.631,8.825
	c5.21,3.126,11.732,3.569,17.643,3.606c10.721,0.066,21.406,1.181,32.129,1.246C148.698,197.586,149.056,197.509,149.366,197.375z
	 M102.181,180.984c1.289-1.271,2.582-2.521,3.943-3.653c0.131,3.046,1.856,5.768,4.491,7.427
	C107.433,184.087,104.402,182.936,102.181,180.984z M109.564,174.894c1.985-1.15,4.174-1.959,6.72-2.192
	c1.503-0.138,2.965-0.089,4.393,0.098c0.05,0.153,0.122,0.307,0.241,0.462c1.436,1.862,2.313,3.804,1.585,6.151
	c-0.724,2.336-3.525,3.336-5.702,3.407C112.453,182.961,108.783,179.043,109.564,174.894z M121.043,185.622
	c-0.218,0.003-0.446,0.003-0.671,0.003c1.808-0.815,3.353-2.192,4.386-3.912c1.517-2.526,1.296-5.413,0.139-7.933
	c3.872,1.285,7.472,3.496,10.857,5.915C131.03,182.179,126.882,185.547,121.043,185.622z M193.398,164.502
	c-10.417-1.488-18.31,6.276-23.215,14.479c-0.169,0.283-0.262,0.561-0.314,0.832c-0.488,0.752-0.269,2.018,0.783,2.314
	c0.172,0.048,0.339,0.103,0.509,0.153c0.317,0.169,0.664,0.273,1.02,0.306c8.602,2.709,15.868,7.234,25.285,4.517
	c4.498-1.298,15.851-5.601,14.224-12.162C210.164,168.789,198.801,165.275,193.398,164.502z M188.824,169.581
	c-0.193,0.096-0.378,0.211-0.543,0.369c-0.734,0.704-0.744,1.515-0.698,2.438c0.004,0.075-0.017,0.274-0.029,0.4
	c-0.027,0.087-0.056,0.178-0.073,0.236c-0.026,0.046-0.049,0.093-0.076,0.138c-0.771-1.685-3.206-1.433-3.341,0.55
	c-0.171,2.499,1.9,4.294,4.327,3.865c2.364-0.418,3.752-2.783,3.9-5.012c0.045-0.682-0.105-1.485-0.453-2.079
	c-0.382-0.652-1.045-1.038-1.741-1.122c0.857-0.113,1.739-0.181,2.666-0.17c0.322,0.004,0.789,0.058,1.35,0.153
	c-0.084,0.403-0.028,0.861,0.245,1.351c3.87,6.922-12.747,11.338-12.785,2.286C183.682,171.341,186.077,170.153,188.824,169.581z
	 M206.828,177.771c-3.08,3.639-9.898,5.452-14.471,5.98c-5.809,0.671-11.35-2.278-17.029-3.751c1.016-1.527,2.105-2.963,3.29-4.26
	c2.108,10.253,22.963,6.997,19.678-5.37C203.356,171.909,209.371,174.768,206.828,177.771z M120.341,175.077
	c0.715,4.931-5.865,7.655-8.905,3.733c-0.635-0.82-0.803-1.891,0-2.693c0.577-0.577,1.603-0.771,2.308-0.298
	c0.238,0.16,0.473,0.304,0.735,0.422c-0.083-0.037,0.44,0.069,0.132,0.059c0.143,0.005,0.201,0.017,0.217,0.031
	c0.029-0.01,0.054-0.02,0.101-0.035c0.263-0.083,0.288-0.091,0.075-0.024c0.171-0.106,0.271-0.229,0.374-0.418
	c0.013-0.072,0.194-0.541,0.186-0.516c0.087-0.302,0.222-0.579,0.403-0.832C116.964,172.954,120.021,172.87,120.341,175.077z
	 M186.487,257.61c-4.393-2.95-9.817-3.828-14.712-5.643c-3.897-1.445-6.231-0.431-9.586,1.607c-4.378,2.66-6.928-2.516-10.979-1.449
	c-4.138,1.091-7.262,4.163-10.768,6.601c-1.864,0.551-3.67,1.227-5.3,2.293c-0.351,0.229-0.598,0.503-0.773,0.795
	c-0.787,0.679-0.664,2.165,0.233,2.564c0.45,0.557,1.146,0.911,1.943,0.825c0.144,0.207,0.358,0.384,0.653,0.498
	c4.56,1.755,6.895,6.653,11.413,8.611c4.045,1.752,9.642,0.067,13.753-0.624c5.109-0.859,11.279,0.894,16.069-1.301
	c4.79-2.195,6.195-6.301,8.57-10.66c0.319-0.585,0.314-1.153,0.119-1.635C187.577,259.312,187.464,258.266,186.487,257.61z
	 M173.26,270.387c-4.271,0.301-8.488-0.02-12.784,0.42c-4.842,0.495-9.72,1.392-13.735-1.922c-2.278-1.881-4.229-3.834-6.826-4.956
	c3.349-1.103,6.973-1.432,10.275-2.781c2.539-1.037,4.291-2.172,6.949-0.745c1.185,0.636,2.939,0.987,4.255,0.556
	c1.04-0.341,1.92-0.69,2.768-1.408c2.607-2.21,5.014-1.501,8.07-0.623c3.467,0.997,7.041,2.105,10.666,2.243
	C180.785,265.829,179.625,269.938,173.26,270.387z M220.417,165.909c-0.494,1.156-2.155,1.126-2.945,0.38
	c-7.069-6.674-15.473-8.981-24.673-5.649c-7.235,2.62-14.121,5.948-21.98,4.537c-1.462-0.262-1.569-1.715-0.88-2.649
	c0.03-0.633,0.323-1.261,0.999-1.704c7.001-4.596,14.135-9.235,21.94-12.368c5.124-2.057,8.622-2.504,13.742-0.263
	C212.568,150.796,223.831,157.921,220.417,165.909z M257.405,145.981c-5.146-6.951-13.246-3.465-20.326-2.927
	c0.02-0.335,0.035-0.671,0.056-1.006c1.171-18.477,6.227-36.853,5.784-55.399c-0.194-8.141-2.287-16.211-4.104-24.109
	c-1.845-8.018-4.41-15.993-8.598-23.113c-0.444-0.754-1.086-1.109-1.754-1.185c-6.428-8.79-15.528-15.786-25.446-20.388
	c-23.794-11.04-51.171-8.812-76.003-3.238c-12.166,2.731-23.253,6.707-32.915,14.791c-9.506,7.953-16.97,19.085-22.686,29.968
	c-5.788,11.019-9.217,23.383-8.55,35.878c0.396,7.406,1.792,14.808,2.362,22.218c0.571,7.409,0.85,14.844,1.148,22.269
	c-14.507,9.226-2.246,33.392-2.459,46.565c-0.117,7.234,0.231,14.85,3.239,21.535c3.019,6.712,9.569,7.846,15.487,4.918
	c0.598,5.121,1.391,10.227,2.671,15.303c1.593,6.316,3.326,12.731,5.93,18.717c3.01,6.919,7.549,12.547,12.382,18.275
	c8.823,10.458,18.036,21.071,28.063,30.402c8.618,8.02,18.389,13.597,30.281,14.457c9.652,0.698,18.613-2.92,26.041-8.861
	c7.732-6.183,13.36-14.965,18.752-23.129c6.541-9.906,13.09-19.264,17.438-30.398c3.038-7.779,6.314-15.672,8.673-23.681
	c0.88-2.988,1.523-6.038,2.009-9.116c7.485-6.784,10.405-14.359,13.127-23.969c1.516-5.351,6.111-8.56,8.546-13.378
	c1.592-3.149,2.447-6.66,3.139-10.096C261.048,160.551,261.734,151.829,257.405,145.981z M69.957,201.932
	c-1.562-5.701-1.498-11.853-1.362-17.717c0.153-6.634-2.285-13.511-3.429-19.992c-1.185-6.716-2.734-16.951,4.249-21.066
	c0.176-0.104,0.322-0.221,0.453-0.345c4.628,4.147,4.466,9.928,5.353,15.832c1.181,7.864,2.588,15.682,3.995,23.508
	c1.606,8.939,2.115,17.918,3.018,26.861C75.545,211.099,71.85,208.84,69.957,201.932z M232.448,176.214
	c-0.167,14.912,0.439,30.34-3.133,44.921c-1.601,6.535-4.456,12.728-6.755,19.034c-2.589,7.102-5.243,14.144-9.208,20.613
	c-5.613,9.158-11.837,18.458-18.457,26.918c-6.353,8.119-14.289,14.933-24.624,17.002c-13.324,2.667-25.474-4.244-35.001-12.827
	c-10.159-9.152-19.191-20.023-28.117-30.348c-5.727-6.624-10.3-13.095-13.25-21.389c-2.593-7.289-4.525-14.889-6.085-22.46
	c-1.576-7.646-1.616-15.476-2.214-23.232c-0.521-6.753-1.994-13.436-3.29-20.091c-0.425-8.464-2.494-17.492-0.768-25.804
	c0.768-3.7,4.544-4.156,6.514-6.83c1.731-2.35,1.799-5.069,1.286-7.87c-0.629-3.436-1.67-6.775-2.352-10.201
	c-1.049-5.269,1.005-8.321,5.556-10.628c3.381-1.714,7.135-2.764,10.716-3.976c4.494-1.521,8.157-2.988,13.013-1.881
	c3.771,0.86,7.324,2.775,10.912,4.171c4.54,1.766,9.557,2.595,14.296,3.683c9.122,2.093,17.628,0.808,26.615-1.306
	c8.607-2.024,16.2-6.025,23.834-10.347c0.889-0.503,1.79-1.023,2.692-1.561c3.329-1.741,6.525-3.733,9.707-5.757
	c1.604,0.717,3.189,1.486,4.797,2.217c2.732,1.242,5.618,2.005,8.424,3.042c-0.353,2.287-0.875,4.588-1.661,6.94
	c-1.964,5.879-4.421,11.632-4.662,17.91c-0.208,5.417,3.789,9.42,7.341,12.981c4.757,4.769,10.632,8.955,14.112,14.831
	C232.526,161.361,232.532,168.762,232.448,176.214z M254.075,170.809c-1.83,6.694-7.31,10.857-9.936,17.131
	c-1.861,4.445-2.182,9.256-4.277,13.666c-1.139,2.399-2.599,4.615-4.185,6.741c0.251-2.63,0.428-5.266,0.557-7.891
	c0.855-17.395-0.078-34.846,0.594-52.232c6.371-0.616,15.035-4.65,18.029,3.136C257.142,157.304,255.692,164.895,254.075,170.809z
	 M69.781,171.151c-0.887-6.097-2.266-12.824-1.091-18.947c0.431-2.246,3.57-1.5,3.741,0.506c0.497,5.846,3.016,11.87,2.434,17.752
	C74.601,173.133,70.232,174.253,69.781,171.151z M78.872,197.853c1.445,1.327,1.202,3.575,0.338,5.14
	c-0.871,1.577-3.095,1.567-4.14,0.326c-0.464-0.277-0.777-0.64-0.979-1.062c-0.354-0.221-0.658-0.53-0.847-0.852
	c-0.348-0.594-0.338-1.159-0.237-1.814c0.181-1.179,1.581-2.234,2.718-2.479C76.879,196.863,77.98,197.034,78.872,197.853z
	 M249.331,154.082c1.367,6.824-0.904,13.823-4.16,19.766c-1.468,2.68-6.176,0.816-5.016-2.115c1.132-2.861,2.262-5.765,3.021-8.752
	c0.746-2.939,0.933-5.953,1.597-8.899C245.276,151.851,248.871,151.787,249.331,154.082z M137.943,256.276
	c-1.556,0.83-3.075,1.694-4.575,2.624c-1.84,1.141-3.366-1.636-1.666-2.85c1.423-1.017,2.849-2.108,4.427-2.877
	C138.193,252.168,140.004,255.177,137.943,256.276z M129.903,250.592c1.664-2.011,4.004-3.017,6.385-3.926
	c2.233-0.852,3.345,2.934,0.997,3.617c-1.889,0.549-3.711,1.133-5.117,2.575C130.7,254.362,128.609,252.154,129.903,250.592z
	 M141.12,251.146c1.166-2.106,3.289-3.457,5.236-4.766c0.836-0.563,2.041-0.164,2.526,0.662c0.549,0.937,0.147,1.931-0.662,2.526
	c-1.409,1.035-3.263,1.737-4.266,3.235C142.785,254.548,140.086,253.014,141.12,251.146z M141.365,245.64
	c-1.561,0.956-3.467-1.401-1.988-2.577c1.77-1.408,3.654-2.524,5.7-3.485c2.503-1.175,4.028,2.461,1.468,3.481
	C144.755,243.772,143.007,244.635,141.365,245.64z M151.857,246.13c1.424-0.66,2.845-1.166,4.432-1.188
	c1.108-0.015,2.032,0.935,2.032,2.032c0,1.119-0.924,2.017-2.032,2.032c-1.168,0.016-1.865,0.129-3.01,0.499
	C151.307,250.14,149.948,247.015,151.857,246.13z M148.758,242.964c-0.198-0.72,0.1-1.767,0.848-2.085
	c1.721-0.73,3.332-1.101,5.199-0.78c1.045,0.18,1.617,1.447,1.358,2.391c-0.301,1.096-1.348,1.537-2.391,1.357
	c-0.937-0.161-1.865,0.101-2.743,0.406C150.078,244.583,149.012,243.885,148.758,242.964z M170.55,246.378
	c1.033,0.156,1.589,1.44,1.337,2.355c-0.294,1.069-1.33,1.528-2.355,1.337c-1.411-0.263-2.811-0.584-4.219-0.863
	c-0.961-0.19-1.5-1.319-1.255-2.211c0.285-1.035,1.241-1.39,2.211-1.255C167.697,245.94,169.123,246.163,170.55,246.378z
	 M170.791,243.784c-1.637-0.143-3.34-0.501-4.968-0.13c-2.511,0.571-3.556-3.154-1.065-3.861c2.16-0.613,4.402-0.482,6.581-0.056
	C173.61,240.179,173.106,243.986,170.791,243.784z M180.827,247.284c1.075,0.219,1.681,1.473,1.405,2.475
	c-0.316,1.148-1.392,1.571-2.475,1.405c-1.647-0.253-3.166-0.866-4.687-1.529c-1.999-0.872-0.562-4.239,1.483-3.517
	C177.948,246.611,179.378,246.989,180.827,247.284z M179.943,245.604c-1.268-0.604-2.764-0.766-4.151-0.82
	c-2.65-0.103-2.664-4.066,0-4.122c2.21-0.046,4.335,0.247,6.35,1.18c1.077,0.499,1.338,2.03,0.781,2.98
	C182.286,245.91,181.015,246.115,179.943,245.604z M189.72,254.806c-1.621-0.48-3.252-0.516-4.927-0.349
	c-2.219,0.221-2.726-3.533-0.527-3.895c2.217-0.365,4.4-0.433,6.602,0.081C193.572,251.274,192.399,255.599,189.72,254.806z
	 M192.044,249.314c-1.939-0.222-3.789-0.74-5.751-0.848c-2.559-0.14-2.577-3.89,0-3.985c2.273-0.084,4.706,0.004,6.806,0.938
	C194.959,246.246,194.074,249.546,192.044,249.314z"/>
</svg>
