<svg xmlns="http://www.w3.org/2000/svg" viewBox="0 0 320 320">
    <path d="M186.817,57.826l11.416-10.664l-3.625,9.155L186.817,57.826z M116.621,203.64c4.427,0,5.211-2.471-4.714-16.134
    c-7.032-9.677-12.66-13.887-17.124-13.92c-4.464-0.033-3.516,4.112,2.988,13.066C106.795,199.07,111.058,203.64,116.621,203.64z
     M145.627,225.548c-5.927-0.042-12.735,5.519-21.457,17.524c-12.1,16.655-15.285,22.785-7.827,22.785
    c5.938,0,11.81-3.315,25.125-21.64C150.897,231.238,151.553,225.591,145.627,225.548z M133.147,58.479
    c8.317-11.452,5.569-12.096,0.37-12.096c-4.726,6.505-13.326,17.89-17.824,24.082C120.406,70.466,125.559,68.918,133.147,58.479z
     M70.508,179.984c-2.849-6.359-11.401-7.052-15.289-5.474c2.735,3.762,11.032,15.182,11.032,15.182
    C69.046,189.28,73.762,187.259,70.508,179.984z M66.196,98.023l-9.043-8.557l3.815,9.97L66.196,98.023z M105.653,88.738
    c4.416,6.083,11.845,16.723,16.047,22.511c4.404,0,7.125-1.446,0.033-11.205C113.956,89.341,110.511,88.738,105.653,88.738z
     M190.894,88.689l6.391,8.67c0,0,0.257-2.38,3.84-2.685C198.6,90.547,194.814,88.208,190.894,88.689z M140.375,130.505
    l-11.909,11.125l8.128-1.576L140.375,130.505z M135.826,88.108c-3.365-0.024-2.649,3.102,2.251,9.846
    c6.799,9.357,10.013,12.802,14.204,12.802c3.335,0,3.928-1.862-3.552-12.158C143.431,91.305,139.19,88.131,135.826,88.108z
     M205.905,98.516c-4.355-0.839-5.162,3.39-5.162,3.39l6.622,9.166c0,0,6.919,0.638,8.151-1.221
    C216.747,107.987,210.26,99.357,205.905,98.516z M236.948,173.973l11.859,16.32c2.276-1.192,7.778-4.554,4.854-9.973
    C249.93,173.407,236.948,173.973,236.948,173.973z M279.401,72.877c-2.798,3.546-2.857,9.428-0.131,13.03l22.065,29.146
    c2.727,3.601,2.755,9.517,0.064,13.145l-23.222,31.3c-2.692,3.628-2.952,9.745-0.578,13.588l21.232,34.391
    c2.373,3.843,2.122,9.979-0.56,13.615l-42.922,58.23c-2.681,3.635-8.571,6.678-13.088,6.678H18.213
    c-4.517,0-6.067-3.077-3.444-6.755l37.892-53.195c2.623-3.678,2.661-9.722,0.084-13.433l-29.236-42.099
    c-2.577-3.71-2.5-9.728,0.171-13.371l21.502-29.335c2.671-3.643,2.845-9.729,0.387-13.519L26.831,85.394
    c-2.458-3.79-2.286-9.89,0.382-13.535l22.783-31.163C52.663,37.051,58.542,34,63.059,34h238.728c4.517,0,5.923,2.969,3.125,6.515
    L279.401,72.877z M218.663,46.221c-5.823,7.434-15.338,21.11-18.064,24.862c-3.492,4.806,3.157,4.758,6.819-0.287
    c1.249-1.719,10.187-14.249,15.164-20.62c0.124,2.065-3.09,10.899-6.766,16.284c-2.839,4.157,3.272,3.768,6.16,0.101
    c4.407-5.595,14.331-15.242,17.622-16.959c-3.756,5.634-13.162,18.032-15.889,21.784c-2.728,3.753,2.493,4.997,6.367-0.335
    c4.542-6.251,13.006-17.842,18.893-26.024c4.145-5.759-7.689-4.641-23.576,12.458C233.05,41.979,225.094,38.01,218.663,46.221z
     M231.312,133.728c2.518-3.467,11.11-6.764,14.673-2.217c1.411,1.801,7.609-2.558,5.421-4.633
    c-2.103-1.999-11.179-2.19-16.669-0.608c-8.122,2.341-15.428,11.892-11.049,15.365c-7.971,3.196-16.004,12.636-11.095,16.254
    c3.288,2.426,14.32,0.321,19.151-2.218c4.821-2.533,4.667-6.622,0.419-4.353c-9.888,5.286-16.241,4.178-12.279-1.277
    c3.76-5.173,9.297-6.654,13.864-6.654c2.295,0,5.338-4.543,3.293-4.543C231.914,138.845,228.752,137.251,231.312,133.728z
     M222.655,190.709c2.735,0-1.504-5.404-3.937-5.404c-6.096,0-12.609-1.894-15.649-6.083c-2.996-4.122,1.523-8.044,13.614-2.634
    c4.79,2.138,4.631-3.042-1.554-5.512c-5.957-2.376-17.073-2.604-20.867-0.721c-5.616,2.785,2.198,14.141,13.406,18.272
    c-3.953,3.797,2.803,15.02,14.888,19.323c8.1,2.885,17.582,0.383,18.939-2.638c1.356-3.012-5.896-7.875-7.02-5.173
    c-2.625,6.286-12.096,4.968-16.806-1.52C213.201,192.466,217.225,190.709,222.655,190.709z M140.644,198.715
    c-6.945-3.702-6.534,2.951-1.763,5.711c2.974,1.724,7.054,4.698,17.412,4.698c19.928,0,3.922-20.818-13.785-22.943
    c-14.053-1.69-19.16-16.08-1.937-8.584c6.13,2.664,6.507-2.875,1.198-5.37c-4.887-2.301-9.303-3.134-14.159-3.016
    c-18.001,0.44-2.959,18.389,15.531,22.216C159.52,194.816,163.586,210.948,140.644,198.715z M166.875,98.442
    c-1.304-1.795-5.763-8.37-8.026-11.484c-2.263-3.114-7.988-2.452-6.136,0.094c3.422,4.71,6.688,9.206,8.458,11.643
    c9.776,13.453,16.898,16.1,22.299,16.121c7.78,0.033,8.441-4.205-0.772-16.884c-1.769-2.437-6.209-8.546-7.43-10.227
    c-2.883-3.973-8.955-3.52-6.53-0.181c2.425,3.339,6.849,9.045,8.638,11.506C189.41,115.597,179.164,115.36,166.875,98.442z
     M162.007,143.608c-4.84,7.571-4.068,13.422-1.044,14.974c3.032,1.558,6.497-1.003,7.858-2.877
    c1.364-1.875,19.082-26.264,20.94-28.822c1.857-2.558-4.801-2.23-6.598,0.241c-1.797,2.474-17.668,24.88-17.668,24.88
    s-1.81-2.883,4.082-12.321c4.978-7.974,4.377-10.544,1.108-12.763c-3.159-2.145-5.97-2.409-8.034,0.434
    c-1.052,1.448-18.416,25.349-20.4,28.077c-2.891,3.977,3.811,4.138,6.138,0.938c1.793-2.472,17.115-23.911,17.115-23.911
    C167.266,132.969,167.641,134.799,162.007,143.608z M134.477,144.924c0,0-2.138,5.107-5.157,10.904
    c-2.999,5.762,6.067,2.855,7.157-0.64c1.088-3.495,6.849-20.652,9.751-29.03c0.537-1.547-6.89-0.98-10.682-0.98
    c-3.378,0-5.656,3.784-3.574,3.963c2.645,0.23,5.37,0.215,5.37,0.215s-20.398,18.117-28.067,24.683
    c-7.667,6.565,0.964,5.797,4.029,2.998c4.432-4.051,10.669-10.63,10.669-10.63L134.477,144.924z M190.707,156.726
    c2.147-2.955,17.399-23.588,19.464-26.43c2.436,0,3.971-0.418,9.417-0.418c2.386,0,6.678-5.878,4.404-5.878h-26.403
    c-2.954,0-5.416,5.721-3.713,5.721c3.381,0,6.287,0.486,9.048,0.486c-2.064,2.842-17.181,23.382-19.327,26.34
    C181.449,159.503,188.557,159.681,190.707,156.726z M206.472,95.409c-2.462-5.225-11.789-11.549-19.661-10.869
    c-3.089,0.269-5.991,0.49-7.164,0.759c-1.808,0.413,1.246,3.827,3.25,3.698c1.46-0.091,2.937-0.129,2.937-0.129l16.245,22.153
    c0,0-1.623-0.098-2.615-0.098c-2.597,0,0.289,4.027,2.963,4.027c2.673,0,17.631,1.367,18.637-2.301
    C222.063,108.984,217.811,99.532,206.472,95.409z M133.314,84.647c-5.873,0.031-8.704,4.139-1.843,13.581
    c9.687,13.333,18.043,16.813,23.923,16.813c6.788,0.001,8.938-3.815-1.114-17.645C147.936,88.663,139.185,84.616,133.314,84.647z
     M125.733,98.134c-6.982-9.608-15.022-13.524-22.936-13.488c-3.2,0.014-6.359-0.182-8.472,0.054
    c-2.396,0.268,0.947,4.091,3.012,4.091c1.221,0,3.14-0.053,3.14-0.053l16.143,22.497c0,0-1.737-0.003-2.655-0.003
    c-2.299,0,0.873,3.876,2.706,3.876c1.664,0,6.442-0.022,10.964,0C133.708,115.132,134.155,109.728,125.733,98.134z M75.179,155.604
    C73.447,157.99,73.642,159,74.836,159c1.193,0,18.999,0,21.643,0c3.413,0,8.393-6.674,4.19-6.674c-2.5,0-10.788,0.78-16.363,0.78
    c1.177-1.619,15.497-21.229,18.182-24.981c2.932-4.1-4.546-3.839-7.334,0C93.852,129.917,76.916,153.218,75.179,155.604z
     M89.008,187.018c12.852,17.69,23.943,22.31,31.74,22.31c9.01,0,11.863-5.059-1.474-23.416c-8.423-11.59-20.033-16.96-27.824-16.917
    C83.659,169.036,79.905,174.486,89.008,187.018z M187.651,206.439c2.554,3.515,11.342,3.774,8.79,0.258
    c-2.552-3.516-20.007-27.976-22.462-31.352c2.898,0,4.835-0.019,11.304-0.019c2.839,0-1.181-6.325-3.885-6.325H150.01
    c-3.516,0,2.387,6.127,4.411,6.127c4.021,0,7.582,0.056,10.864,0.056C167.74,178.563,185.097,202.921,187.651,206.439z M253.674,115
    c3.056,0-1.191-5.969-4.954-5.969c-2.241,0-8.667,0.709-13.663,0.709c-1.053-1.451-13.753-18.998-16.234-22.358
    c-2.709-3.675-9.068-3.392-6.57,0.047c1.165,1.604,16.343,22.388,17.897,24.526c1.554,2.139,3.061,3.045,4.132,3.045
    C235.349,115,251.305,115,253.674,115z M190.176,45.855c2.537,0.221,5.148,0.205,5.148,0.205s-19.551,17.367-26.902,23.66
    c-7.351,6.292,0.923,5.557,3.861,2.874c4.251-3.882,10.226-10.19,10.226-10.19l10.067-1.422c0,0-2.047,4.895-4.942,10.452
    c-2.875,5.524,5.816,2.738,6.861-0.613c1.047-3.352,6.565-19.796,9.349-27.826c0.512-1.485-6.603-0.939-10.242-0.939
    C190.363,42.056,188.184,45.682,190.176,45.855z M146.238,57.157c-15.701,21.609,7.745,22.196,20.146,6.13
    c5.454-7.067,1.226-6.686-9.154-4.978c-2.482,0.411-5.573,5.4-2.64,4.775c3.293-0.699,7.221-1.879,7.213-1.866
    c-2.111,4.087-6.723,9.233-11.413,9.233c-6.047,0-3.434-5.285,1.792-12.477c5.225-7.193,10.754-11.877,14.392-11.877
    c2.932,0,4.001,1.472,2.243,4.546c-2.566,4.495,4.724,2.923,6.229,0.719C183.243,39.356,161.081,36.725,146.238,57.157z
     M124.543,46.438c1.307,0,3.44-0.055,3.44-0.055l-17.705,24.067c0,0-1.85-0.005-2.83-0.005c-2.462,0-5.091,4.146-3.133,4.146
    c1.785,0,6.922-0.021,11.73,0c6.461,0.028,15.336-5.755,24.348-18.155c7.467-10.28,4.955-14.471-3.569-14.43
    c-3.445,0.015-6.517-0.196-9.146,0.056C124.699,42.348,122.333,46.438,124.543,46.438z M91.949,44.141
    c-1.01,1.388-17.655,24.298-19.554,26.913c-2.773,3.815,3.652,3.968,5.881,0.9c1.722-2.37,16.407-22.922,16.407-22.922
    c1.688,0.492,2.048,2.246-3.354,10.689c-4.638,7.257-3.897,12.866-1.003,14.354c2.907,1.492,6.228-0.961,7.534-2.76
    c1.307-1.797,18.29-25.174,20.073-27.625c1.781-2.451-4.602-2.138-6.325,0.233c-1.723,2.369-16.936,23.847-16.936,23.847
    s-1.734-2.763,3.913-11.809c4.774-7.644,4.195-10.107,1.064-12.237C96.622,41.668,93.928,41.415,91.949,44.141z M46.016,73.411
    c3.154,2.326,13.729,0.306,18.359-2.127c4.622-2.429,4.473-6.347,0.403-4.17c-9.479,5.066-15.569,4.004-11.768-1.227
    c3.601-4.958,8.909-6.376,13.286-6.376c2.202,0,5.119-4.356,3.159-4.356c-4.915,0-7.949-1.525-5.497-4.904
    c2.417-3.323,10.654-6.484,14.068-2.125c1.354,1.726,7.292-2.451,5.198-4.441c-2.018-1.915-10.716-2.097-15.976-0.581
    c-7.789,2.244-14.794,11.399-10.593,14.727C49.012,60.895,41.314,69.942,46.016,73.411z M47.845,88.244
    c2.672,0.206,5.091,0.191,5.091,0.191s5.316,16.234,6.992,22.118c1.675,5.881,8.408,5.194,7.51,2.686
    c-1.301-3.631-4.281-9.525-4.281-9.525l7.481-1.328c0,0,4.732,4.576,9.577,9.768c4.812,5.164,9.153,2.561,5.581-0.572
    c-3.578-3.132-20.755-18.505-29.061-26.012c-1.535-1.387-7.45-0.879-10.848-0.879C42.863,84.691,45.748,88.083,47.845,88.244z
     M44.615,154.925c0.396,1.452,0.193,3.952,8.904,3.952c16.764,0,28.741-17.506,16.449-19.298c-9.757-1.42,3.533-13.521,8.86-7.218
    c1.896,2.242,8.988-2.418,7.574-4.517c-1.304-1.934-3.997-2.638-8.227-2.537c-15.677,0.373-24.963,15.468-14.086,18.687
    c9.63,2.851-6.661,16.417-11.011,6.131C51.764,147.011,43.98,152.603,44.615,154.925z M70.149,206.214
    c3.239,4.463,10.156,3.244,8.317,0.712c-1.84-2.535-7.358-10.254-7.358-10.254s7.358-1.167,9.081-7.464
    c1.686-6.159-4.051-14.092-11.148-17.437c-7.091-3.345-18.028-2.775-21.586-2.229c-3.255,0.5-3.146,1.115-1.747,3.042
    C47.109,174.51,67.64,202.769,70.149,206.214z M96.169,249c4.405,0,9.25-7.277,5.309-7.277c-2.427,0-13.246-0.276-13.246-0.276
    c10.291-15.892,17.205-20.124,20.652-12.82c1.601,3.393,8.975-1.581,6.97-4.993c-4.179-7.116-21.734-8.507-37.418,17.809
    c0,0-6.284,0.336-11.741,0.336c-5.458,0-8.789,7.314-5.606,7.314c3.184,0,12.371-0.195,12.371-0.195
    c-7.314,11.466-14.136,23.04-20.173,12.349c-1.906-3.376-10.7,3.089-7.992,6.965C55.771,283.211,72.811,266,83.502,249
    C83.502,249,94.199,249,96.169,249z M154.455,242.079c11.295-15.546,6.183-22.746-4.348-22.691
    c-10.532,0.055-26.194,7.368-38.404,24.174c-17.24,23.729-11.368,29.925-0.909,29.926
    C122.874,273.488,136.568,266.698,154.455,242.079z M192.009,268.153c2.173-2.991,30.432-41.885,33.395-45.964
    c2.964-4.079-7.657-3.556-10.522,0.387c-2.865,3.943-28.175,39.674-28.175,39.674s-2.887-4.595,6.51-19.646
    c7.94-12.719,6.978-16.816,1.768-20.356c-5.036-3.421-9.519-3.842-12.812,0.69c-1.679,2.311-29.372,40.428-32.533,44.778
    c-4.61,6.345,6.078,6.6,9.786,1.496c2.865-3.943,27.298-38.133,27.298-38.133c2.805,0.816,3.406,3.734-5.579,17.784
    c-7.72,12.072-6.487,21.404-1.669,23.88C184.311,275.227,189.835,271.144,192.009,268.153z M278.644,220H236.54
    c-4.714,0-8.639,7.921-5.92,7.921c5.391,0,10.025-0.075,14.429-0.075c-3.292,4.532-27.4,37.125-30.825,41.839
    c-3.424,4.713,7.913,5.025,11.338,0.311c3.424-4.713,27.747-37.536,31.04-42.069c3.888,0,6.337,0.265,15.017,0.265
    C275.426,228.193,282.27,220,278.644,220z M270.121,196.699c4.217,8.342,3.665,11.337-9.993-4.004
    c10.074-6.828-1.863-17.57-9.123-21.144c-7.26-3.576-18.051-2.383-21.703-2.383c-3.645,0-3.084,1.189-1.592,3.25
    c1.494,2.055,21.56,29.673,24.234,33.355c3.463,4.766,10.909,4.227,8.945,1.519c-1.964-2.71-7.545-10.542-7.545-10.542l2.27-1.219
    c14.22,14.935,28.785,19.498,22.594,4.092C276.785,196.077,268.33,193.145,270.121,196.699z M271.535,125.125
    c-3.597,0.015-6.799-0.203-9.545,0.06c-3.105,0.298-5.575,4.565-3.268,4.565c1.364,0,3.586-0.057,3.586-0.057l-18.47,25.108
    c0,0-1.931-0.006-2.954-0.006c-2.566,0-5.311,4.326-3.263,4.326c1.857,0,7.218-0.023,12.234,0c6.738,0.029,15.999-6.004,25.4-18.943
    C283.047,129.457,280.426,125.085,271.535,125.125z M274.454,108.117c-1.975,4.737-9.112,3.743-12.664-1.145
    c-3.365-4.635-0.334-5.962,3.76-5.962c2.058,0-1.133-4.071-2.966-4.071c-4.594,0-9.501-1.427-11.796-4.585
    c-2.255-3.106,1.149-6.06,10.265-1.985c3.608,1.611,3.486-2.292-1.175-4.153c-4.49-1.789-12.866-1.96-15.726-0.543
    c-4.23,2.099,1.656,10.654,10.106,13.768c-2.981,2.863,2.109,11.319,11.217,14.562c6.105,2.175,13.248,0.289,14.272-1.987
    C280.768,109.745,275.302,106.083,274.454,108.117z M279.429,43.685c-2.015-1.915-10.712-2.097-15.977-0.581
    c-7.786,2.244-14.792,11.399-10.592,14.727c-7.64,3.065-15.34,12.112-10.635,15.581c3.153,2.326,13.725,0.306,18.358-2.127
    c4.619-2.429,4.47-6.347,0.399-4.17c-9.479,5.066-15.566,4.004-11.769-1.227c3.603-4.958,8.911-6.376,13.287-6.376
    c2.206,0,5.119-4.356,3.159-4.356c-4.914,0-7.949-1.525-5.493-4.904c2.414-3.323,10.65-6.484,14.064-2.125
    C275.585,49.852,281.527,45.675,279.429,43.685z M268.081,129.693c-4.93,6.789-13.899,18.664-18.593,25.123
    c4.915,0,10.294-1.614,18.21-12.505C276.377,130.365,273.508,129.693,268.081,129.693z"/>
</svg>