<svg xmlns="http://www.w3.org/2000/svg" viewBox="0 0 320 320">
    <path fill-rule="evenodd" d="M165.476,45.102c-1.94-3.415-9.876-7.616-3.552-11.722c6.312-4.098,17.261,11.124,20.853,14.635
    c0.414-4.466,1.897-25.718,11.333-18.041c9.127,7.432,12.433,21.246,22.957,26.899c0.321-4.16-3.054-12.925,1.89-15.574
    c5.199-2.785,15.816,7.473,19.062,10.578c1.872-12.579,15.477-0.802,20.166,3.684c2.734-7.285-3.81-13.832-9.882-16.631
    c4.797-11.187-12.638-15.58-19.943-16.717c-1.948-13.085-15.76-12.777-25.553-9.198c-3.439-8.5-13.84-8.905-20.362-3.817
    c-5.91-6.395-17.931-8.312-23.349-0.331c-0.682,0.262-1.351,0.563-1.993,0.906c-6.012-9.317-20.998-9.679-27.664-0.935
    c-8.509-5.301-22.067-4.95-25.091,6.427c-9.235-3.019-26.949,1.282-24.176,14.328c-0.833,0.175-1.639,0.43-2.43,0.723
    c-3.573-4.378-12.037-10.268-16.995-13.16c-2.35-1.371-5.775-0.211-6.783,2.323c-1.598,4.014,3.822,9.458,5.781,12.401
    c-5.444-2.371-10.403-6.201-16.572-6.488c-7.946-0.371-3.325,9.824-0.447,12.421c-4.298-0.206-15.454-2.342-17.066,3.514
    c-1.516,5.509,6.713,8.328,10.672,9.153c-9.903,12.355,0.776,19.078,11.568,9.915c-3.006,9.309,6.658,9.197,13.213,7.466
    c-5.654,8.467,2.108,17.016,10.366,18.985c-1.648,15.443-2.32,25.926,3.606,40.407c5.153,12.594-3.211,20.444-7.736,31.731
    c-4.268,10.647-4.564,22.868-5.822,34.208c-1.706,15.373,11.021,12.504,22.64,12.772c14.484,0.857,2.648,6.714,9.743,13.648
    c1.905,8.904,3.606,2.961,5.843,11.887c1.071,8.415,4.529,16.451,13.427,18.556c4.418,1.045,12.235-0.274,15.273,3.785
    c5.665,7.57,3.382,38.238,14.312,39.899c11.567,7.488,26.059,11.317,39.043,15.56c12.882,4.21,28.021,9.933,41.8,7.832
    c14.311-2.189,35.237-21.345,42.551-33.831c0.957-1.176,1.892-2.379,2.794-3.602c9.621-9.612,29.627-8.469,24.591-26.929
    c-5.22-19.083,1.041,3.815,0,0c-5.22-19.083-11.597-37.793-19.42-55.942c-0.331-3.888-0.679-7.768-1.036-11.499
    c10.279-8.311,11.265-28.691,3.761-38.96c1.486-6.223,0.051-13.102-6.348-15.845c1.724-4.185,2.257-9.261-0.024-13.372
    c3.781-4.611,4.029-11.608,1.746-16.928c-12.383,9.021-18.219,3.21-19.662-9.73c-9.463,3.106-17.891,8.496-28.073,9.236
    c-11.385,0.822,2.443-14.722,1.364-16.507c-1.023-1.693-18.888,7.862-20.474,8.435c-6.663,2.408-26.437,2.365-14.523-7.979
    c6.489-5.633,4.036-8.437-2.967-5.721c-7.18,2.785-14.056,6.313-21.119,9.373c-3.793,1.643-7.73,3.452-11.883,3.864
    c-11.897,1.169,1.165-9.966,1.204-11.175c0.332-10.315-43.436,15.057-26.366-10.531c-7.364-0.575-15.18-2.246-20.565-7.703
    c-10.468-10.607,8.947-10.825,15.265-10.705c-9.144-18.183,14.917-4.965,20.213-0.765c-1.497-2.912-12.546-19.836-1.937-18.737
    c6.623,0.686,11.211,12.013,16.618,17.324S167.417,48.517,165.476,45.102z"/>
</svg>