<svg xmlns="http://www.w3.org/2000/svg" viewBox="0 0 320 320">
    <path fill-rule="evenodd" d="M181.006,191.555c1.232,0.062,2.395-0.084,3.367-0.639c1.093-0.628,2.192-0.952,3.413-0.899
        c0.282-0.366,0.421-0.712,0.352-1.155c-0.172-0.319-0.357-0.659-0.505-0.934c-0.049-0.384,0.262-0.553,0.277-0.837
        c-0.112-0.529-0.222-1.058-0.326-1.565c-3.217-0.978-10.085,1.58-11.188,3.629C178.12,189.564,179.902,189.885,181.006,191.555z"/>
    <path fill-rule="evenodd" d="M196.262,166.467c-0.985,1.148-2.063,2.091-3.299,2.897c-1.762,1.146-3.375,2.488-5.158,3.809
        c0.928,1.12,1.086,2.558,1.979,3.697c0.586,0.743,1.232,1.516,1.424,2.615c0.139,0.798,0.515,1.708,1.025,2.322
        c0.297,0.174,0.496,0.158,0.681,0.101c1.049-0.324,2.058-0.773,2.979-1.351c1.086-0.687,1.981-1.547,2.58-2.787
        c0.535-1.104,1.395-2.077,2.516-2.692c-0.037-0.969,0.018-1.886,0.515-2.426c0.654-2.423,0.667-4.684,0.765-7.068
        c-0.659-1.009-0.743-2.377-1.078-3.735C199.163,163.171,197.679,164.821,196.262,166.467z"/>
    <path fill-rule="evenodd" d="M181.44,180.991c1.34-0.058,2.573-0.595,3.849-0.813c0.309-0.535,0.291-0.883,0.079-1.267
        c-0.595-1.075-1.412-2.049-1.443-3.311c-0.813-0.223-1.494-0.103-2.045,0.249c-1.047,0.663-2.203,0.987-3.36,1.342
        c-1.478,0.451-2.904,1.077-4.493,1.11c-0.707,0.017-1.472-0.066-2.217,0.513c0.56,0.527,0.674,1.208,0.687,1.857
        c0.809,1.075,1.576,2.095,2.3,3.052c0.456-0.005,0.773-0.102,1.009-0.291c1.241-0.998,2.827-1.291,4.169-2.075
        C180.424,181.094,180.927,181.013,181.44,180.991z"/>
    <path fill-rule="evenodd" d="M163.948,86.488c1.716,0.776,3.085,1.987,4.23,3.394c1.985,2.435,2.895,5.282,2.913,8.456
        c0.007,1.465-0.026,2.966,0.233,3.806c-0.159,4.186-0.406,7.777-0.857,11.288c0.875,0.416,1.421-0.24,2.077-0.245
        c1.256,0.316,2.459,0.942,3.838,0.731c0.264-1.448,0.864-2.7,0.804-4.135c-0.06-1.392-0.203-2.814,0.253-4.147
        c-0.082-0.494-0.249-0.905-0.154-1.414c0.221-1.173,0.038-2.375-0.028-3.558c-0.053-0.941-0.115-1.847,0.112-2.786
        c0.205-0.848,0.322-1.75,0.273-2.616c-0.038-0.643,0.016-1.239,0.17-1.838c0.299-1.166,1.009-2.206,1.309-3.319
        c0.416-1.542,1.346-2.629,2.38-3.646c1.426-1.398,2.765-2.831,3.572-4.716c-0.251-1.353-1.368-1.777-2.278-2.425
        c-1.018-0.724-2.162-0.832-3.344-0.861c-0.461-0.012-0.844,0.151-1.128,0.522c-0.906,1.189-1.776,2.444-2.001,3.926
        c-0.159,1.065-0.562,2.012-0.892,3c-0.163,0.481-0.421,1.003-0.928,1.158c-0.641,0.195-1.049,0.641-1.461,1.067
        c-1.505,0.124-2.346-0.742-3.045-1.858c-0.888-1.415-1.52-2.963-2.293-4.436c-0.441-0.844-1.316-1.347-1.562-2.107
        c-1.67-1.058-3.063-1.081-4.189,0.879c-0.031,0.245-0.083,0.752-0.404,1.178c-0.145,0.192-0.179,0.431-0.166,0.673
        C161.483,84.286,162.263,85.723,163.948,86.488z"/>
    <path fill-rule="evenodd" d="M147.028,124.869c1.406,1.553,3.064,2.798,4.626,4.138c1.491,1.277,3.346,2.102,5.094,3.046
        c1,0.538,2.114,0.741,3.093,1.306c0.919-0.019,1.782,0.405,2.666,0.487c2.082,0.193,4.177,0.35,6.277,0.29
        c0.778-0.022,1.622,0.293,2.325,0.08c1.082-0.33,2.166-0.207,3.241-0.34c0.888-0.11,1.824-0.017,2.659-0.272
        c0.763-0.234,1.481-0.4,2.283-0.38c0.611,0.016,1.232-0.087,1.849-0.235c1.478-0.353,2.981-0.557,4.409-0.28
        c1.446-1,3.096-1.381,4.689-2.178c0.189-0.862,1.179-1.107,1.804-1.703c1.232-1.177,1.89-2.721,2.913-4.022
        c0.562-0.715,0.853-1.655,1.562-2.086c0.359-0.459,0.17-0.895,0.359-1.27c0.185-0.174,0.381-0.361,0.676-0.636
        c-0.335-0.568,0.13-0.961,0.438-1.401c0.271-0.388,0.621-0.755,0.659-1.231c0.121-1.49,0.297-2.989,0.251-4.48
        c-0.077-2.693-0.582-5.331-1.366-7.912c-0.115-0.377-0.269-0.726-0.452-1.077c-0.624-1.208-1.214-2.408-2.159-3.444
        c-0.83-0.908-1.661-1.831-2.43-2.795c-0.707-0.89-1.769-1.268-2.582-1.979c-2.058-1.794-4.618-2.111-7.203-2.678
        c-0.299,2.289-0.71,4.415-0.822,6.563c0.573,0.179,1.033,0.216,1.505,0.239c1.677,0.084,3.111,0.82,4.25,1.979
        c0.725,0.742,1.531,1.425,2.157,2.272c0.824,1.112,2.056,1.889,2.527,3.306c0.229,0.682,0.157,1.381,0.388,2.06
        c0.48,1.425,0.586,2.928,0.427,4.413c-0.245,2.293-0.731,4.467-2.018,6.523c-0.914,1.467-2.047,2.574-3.415,3.394
        c-1.329,0.797-2.699,1.582-4.153,2.167c-1.87,0.755-3.788,1.365-5.936,1.612c-0.234,0.177-0.573,0.435-0.983,0.747
        c-1.989-0.214-4.036,0.748-5.964-0.052c-1.556,0.602-3.135,0.433-4.603,0.265c-5.729-0.65-10.735-2.944-14.868-7.118
        c-0.403-0.905-0.497-1.985-1.082-2.891c-0.169-0.262-0.157-0.591-0.123-0.916c0.147-1.416,0.312-2.832,0.401-4.252
        c0.071-1.151,0.199-2.256,0.917-2.959c0.626-2.421,0.131-5.012,2.421-6.583c-0.017-0.353-0.031-0.662-0.045-0.97
        c0.289-0.292,0.457-0.638,0.65-0.979c0.571-1.009,1.045-2.108,2.172-2.681c0.488-0.249,0.947-0.556,1.414-0.841
        c1.713-1.046,3.635-1.127,5.536-1.027c0.762,0.038,1.522,0.127,2.373,0.122c0.209-1.123,0.009-2.12-0.47-3.083
        c-0.654-1.315-1.95-1.432-3.149-1.7c-0.656-0.016-1.221,0.298-1.829,0.44c-2.18,0.51-4.547,0.446-6.417,2.13
        c-0.709,1.031-1.64,2.021-2.636,2.954c-0.542,0.506-1.165,0.95-1.61,1.532c-1.3,1.7-2.535,3.451-3.785,5.193
        c-0.615,0.858-1.241,1.712-1.795,2.608c-0.666,1.081-0.712,2.388-1.186,3.539c-0.894,2.174-0.506,4.33,0.21,6.414
        C144.003,120.688,145.251,122.908,147.028,124.869z"/>
    <path fill-rule="evenodd" d="M138.426,125.468c0.557,2.731,0.39,5.491,0.204,8.245c-0.046,0.684-0.16,1.403-0.159,2.048
        c0.006,1.242-0.091,2.499,0.043,3.734c0.104,0.962,0.283,1.933,0.791,2.805c1.267,2.177,3.048,3.891,4.947,5.491
        c0.409,0.345,0.823,0.685,1.292,0.981c1.059,0.667,2.243,1.087,3.286,1.758c2.944,1.891,6.269,2.725,9.588,3.624
        c1.317,0.357,2.742,0.206,3.924,0.909c0.919-0.189,6.55,0.284,7.28,0.592c1.469-0.713,2.919-0.12,4.4,0.011
        c0.375-0.138,0.769-0.331,1.187-0.423c2.51-0.554,5.085-0.689,7.625-1.076c1.652-0.253,3.355-0.302,4.774-1.359
        c0.406-0.3,0.87-0.276,1.249-0.225c1.088-0.977,2.119-1.864,3.311-2.194c1.555-3.782,4.056-6.951,5.142-10.723
        c0.218-0.245,0.589-0.191,0.643-0.524c0.405-3.75,1.062-7.478,1.075-11.291c-0.487,0.442-0.868,0.915-1.225,1.405
        c-0.982,1.362-1.972,2.776-3.34,3.726c-1.489,1.035-2.772,2.323-4.545,3.049c-1.52,0.625-3.08,1.091-4.634,1.509
        c-1.329,0.359-2.763,0.41-4.151,0.625c-2.111,0.327-4.283,0.26-6.337,0.979c-0.178,0.063-0.388,0.052-0.582,0.054
        c-2.369,0.037-4.737,0.058-7.105,0.106c-1.5,0.029-2.981-0.125-4.409-0.541c-2.201-0.639-4.544-0.467-6.715-1.466
        c-1.282-0.59-2.5-1.024-3.153-2.358c-0.026-0.055-0.133-0.071-0.235-0.122c-0.754,0.341-1.305,0.016-1.969-0.461
        c-1.498-1.074-2.771-2.415-4.283-3.452c-1.174-0.804-2.171-1.725-2.552-2.813c-2.429-1.853-3.806-4.002-4.055-6.699
        c-0.32-0.354-0.536-0.635-0.886-0.819c-0.226,0.227-0.232,0.428-0.285,0.613c-0.269,0.931,0.049,1.858,0.024,2.79
        C138.573,124.482,138.315,124.922,138.426,125.468z"/>
    <path fill-rule="evenodd" d="M160,10C77.159,10,10,77.157,10,160c0,82.842,67.159,150,150,150c82.842,0,150-67.158,150-150
        C310,77.157,242.842,10,160,10z M190.328,58.255c0.348-1.858,0.108-3.812,1.071-5.57c0.302-0.555,0.394-1.249,0.483-1.895
        c0.234-1.697,1.289-2.998,2.113-4.404c0.315-0.534,0.807-0.956,1.175-1.461c0.622-0.855,1.382-1.471,2.459-1.643
        c0.353-0.055,0.656-0.258,0.928-0.488c0.41-0.352,0.974-0.562,1.406-0.482c0.945,0.171,1.776-0.178,2.649-0.319
        c0.555-0.087,1.095-0.136,1.622,0.066c0.503,0.192,1.005,0.094,1.527,0.038c2.789,0.947,5.1,2.359,5.446,5.803
        c-0.85,0.959-0.699,2.65-2.241,3.457c-2.109,0.042-4.222,0.777-6.392,1.202c-1.685,0.328-2.856,1.288-3.525,2.942
        c-0.917,2.275-1.556,4.63-2.223,6.982c-0.022,0.073-0.059,0.158-0.044,0.228c0.366,1.64-0.535,3.039-0.884,4.537
        c-0.198,0.853-0.921,1.402-1.339,2.03c-1.536,0-3.166-1.372-3.618-2.824c-0.467-1.509-0.553-3.063-0.555-4.611
        C190.385,60.645,190.101,59.463,190.328,58.255z M157.323,26.18c1.055-0.485,2.025-0.996,3.042-1.387
        c1.171-0.449,3.398-0.43,4.31,1.13c0.69,0.311,1.641,0.266,2.078,0.955c0.831,1.306,1.998,2.42,2.49,3.919
        c0.346,1.066,0.707,2.173,0.271,3.321c-0.088,0.233-0.073,0.464-0.002,0.69c0.185,0.578,0.185,1.197,0.071,1.746
        c-0.368,1.745,0.106,3.407,0.423,5.069c0.22,1.165,0.322,2.334,0.313,3.493c-0.013,2.012,0.447,3.961,0.597,5.947
        c0.073,0.957,0.599,1.85,0.395,2.874c-0.315,1.613-0.712,3.2-1.481,4.657c-0.569,1.075-1.719,1.426-2.882,0.968
        c-0.324-0.128-0.632-0.307-1.007-0.494c-0.341-0.896-0.599-1.716,0.073-2.468c-0.46-1.16-1.593-2.146-0.656-3.472
        c-0.352-1.131-0.646-2.217-0.696-3.362c-0.029-0.641-0.416-1.171-0.771-1.689c-0.862-1.259-1.769-2.498-1.855-4.211
        c-1.1-0.28-1.493-1.183-1.933-2.132c-0.602-1.303-1.48-2.479-2.065-3.787c-0.843-1.899-1.963-3.735-1.63-5.992
        c0.133-0.914,0.026-1.873-0.291-2.748C156.342,28.079,157.012,27.172,157.323,26.18z M128,57.189c0-0.483,0-0.95,0-1.312
        c0-1.114,1.163-1.572,2.134-2.069c0.789-0.406,1.362-0.766,2.269-0.734c0.787,0.029,1.409,0.214,1.947,0.821
        c1.931-0.522,3.377,0.502,4.674,1.569c2.221,1.829,4.39,3.766,6.012,6.165c1.488,2.2,2.519,4.644,2.963,7.312
        c0.169,1.025,0.553,2.008,0.638,3.062c0.12,1.472,0.299,2.94,0.456,4.409c0.233,2.205-0.57,4.226-1.112,6.292
        c-0.039,0.153-0.085,0.302-0.158,0.548c-0.314,0.211-0.604,0.407-0.895,0.602C145.061,84,145.06,84,144.211,83.4
        c0.266-1.061-0.417-2.048-0.351-3.13c0.067-1.12-0.207-2.216-0.326-3.313c-0.087-0.789-0.188-1.66-0.722-2.414
        c-0.692-0.975-1.4-1.975-1.758-3.244c-1.79-1.209-3.167-2.96-4.748-4.502c-0.896-0.872-2.011-1.483-3.094-2.082
        c-1.025-0.57-2.082-1.062-2.987-1.829c-0.198-0.168-0.493-0.222-0.706-0.314c-0.736-1.285-2.081-1.84-2.423-3.389
        C126.969,58.424,127,57.735,128,57.189z M263.855,167.538c0.029,2.073-0.145,4.14-0.075,6.207c0.071,2.087-0.381,4.116-0.542,6.176
        c-0.143,1.875-0.582,3.699-0.805,5.561c-0.482,4.027-0.588,8.095-1.412,12.087c-0.619,2.985-0.961,6.024-1.556,9.016
        c-0.639,3.182-1.111,6.403-1.829,9.564c-0.483,2.122-1.104,4.228-1.987,6.246c-0.529,1.212-0.83,2.522-1.294,3.765
        c-0.877,2.342-1.65,4.724-2.65,7.022c-0.703,1.613-1.639,3.102-2.355,4.713c-0.948,2.144-1.877,4.292-2.759,6.462
        c-0.571,1.406-1.318,2.743-1.93,4.136c-1.172,2.675-2.798,5.039-4.618,7.313c-1.144,1.426-2.073,3.032-3.086,4.563
        c-0.822,1.247-1.822,2.333-2.845,3.418c-1.198,1.267-2.397,2.52-3.378,4.005c-1.542,2.329-2.937,4.779-4.817,6.876
        c-1.06,1.187-2.26,2.259-3.272,3.486c-1.126,1.368-2.41,2.565-3.682,3.778c-1.159,1.106-2.298,2.27-3.62,3.148
        c-0.989,0.656-1.904,1.452-3.036,1.91c-0.718,0.291-1.45,0.617-1.921,1.205c-1.348,0.161-2.386,0.961-3.53,1.32
        c-0.192-0.172-0.013-0.381-0.295-0.493c-0.732,1.117-2.007,1.52-3.168,1.921c-1.179,0.408-2.472,0.714-3.845,0.432
        c-0.249,0.077,0.117,0.469-0.143,0.533c-0.377,0.348-0.84,0.267-1.166,0.207c-1.364-0.242-2.516,0.482-3.774,0.674
        c-1.022,0.158-2.005,0.454-2.996,0.694c-1.326,0.324-2.706,0.341-3.999,0.875c-0.7,0.287-1.529,0.266-2.285,0.379
        c-0.339-0.143-0.225-0.588-0.533-0.762c-0.714,0.022-0.767,0.646-0.989,1.161c-0.862-0.288-1.6,0.251-2.393,0.326
        c-0.174-0.3,0.234-0.284,0.174-0.582c-0.707-0.269-1.417,0.654-2.237,0.04c-0.15-0.357,0.134-0.897-0.278-1.424
        c0.727-0.114,1.199-0.405,1.463-0.98c-0.617-0.222-1.633,0.016-2.767,0.637c-0.137,0.617,0.564,0.892,0.619,1.458
        c-0.502,0.456-0.914,0.075-1.373-0.192c-0.782,0.947-1.441,0.102-2.217-0.189c-0.515,0.055-1.099,0.113-1.522,0.159
        c-1.126-0.302-2.104-0.595-3.142-0.553c-0.262-0.13-0.112-0.319-0.095-0.5c0.015-0.17-0.136-0.267-0.28-0.366
        c-1.393,0.828-2.736,0.342-4.248-0.218c-0.448,0.049-1.071,0.064-1.589-0.097c-0.408-0.269-0.022-0.564-0.187-0.853
        c-0.211-0.088-0.454-0.192-0.612-0.258c-0.573,0.007-0.791,0.461-1.148,0.643c-0.842-0.044-1.565-0.302-1.987-0.732
        c-3.648-0.78-6.8-2.184-9.736-4.166c-0.253,0.077-0.506,0.152-0.774,0.234c-0.89-0.644-1.629-1.501-2.726-1.651
        c-0.263-0.482-0.483-0.888-0.731-1.342c-1.308-0.009-2.085-1.329-3.426-1.324c-1.255-1.465-3.28-2.212-3.805-4.325
        c-0.263-0.287-0.683-0.025-0.944-0.207c-0.769-0.665-0.549-1.443-0.384-2.122c-0.068-1.035-1.03-1.181-1.486-1.672
        c-0.094-0.557,0.376-0.628,0.557-0.91c-0.066-0.385-0.163-0.769-0.059-1.157c-0.776-0.886-1.484-1.771-1.318-3.032
        c0.038-0.289-0.15-0.52-0.274-0.763c-0.126-0.245-0.263-0.507-0.216-0.784c0.31-1.76-0.308-3.428-0.498-5.138
        c-0.029-0.269-0.205-0.606-0.101-0.797c0.494-0.91,0.174-1.767-0.144-2.589c-0.6-1.551-0.152-3.109-0.118-4.656
        c0.03-1.254-0.194-2.476-0.256-3.713c-0.014-0.266-0.21-0.537-0.116-0.802c0.434-1.245,0.153-2.582,0.551-3.807
        c-0.43-1.632-0.536-3.256-0.239-4.836c0.058-0.456-0.406-0.632-0.385-1.018c-0.063-0.375,0.235-0.65,0.306-1.035
        c-0.62-0.981-0.406-2.151-0.277-3.169c0.133-1.067-0.466-2.217,0.347-3.146c-0.308-1.296-0.195-2.532-0.206-3.778
        c-0.01-1.304,0.506-2.886-1.016-3.97c-3.355-0.333-6.811-0.676-10.172-1.009c-0.699,0.458-0.82,1.194-1.465,1.815
        c-3.432,0.985-6.799,0.568-9.895-1.626c-0.178-0.156-0.375-0.103-0.567-0.088c-0.153,0.015-0.304,0.047-0.407,0.064
        c-0.101,0.097-0.194,0.141-0.208,0.203c-0.26,1.247-1.293,1.862-2.191,2.501c-2.862,2.036-5.711,4.085-8.81,5.779
        c-2.325,1.267-4.714,2.455-6.846,4.061c-0.753,0.566-1.58,1.016-2.433,1.414c-0.354,0.167-0.686,0.359-0.981,0.634
        c-0.742,0.701-1.554,1.15-2.62,1.399c-1.103,0.258-2.207,0.784-3.261,1.271c-0.765,0.353-1.563,0.377-2.323,0.575
        c-0.622,0.161-1.287,0.224-1.849,0.476c-1.12-0.194-2.102-0.846-3.146-0.515c-1.036-0.665-1.692-1.445-1.693-2.514
        c-0.27-0.425-0.768-0.19-0.966-0.568c-0.14-0.386,0.308-0.619,0.277-0.985c-0.461-1.556-0.05-3.116,0.012-4.673
        c0.059-1.505,0.878-2.895,1.042-4.537c-1.499,0.198-2.706-0.249-4.003-0.154c-0.603-0.941-2.209-0.436-2.498-1.809
        c-0.333-0.117-0.624-0.22-0.966-0.339c-0.126-0.622-0.748-0.963-0.966-1.672c0.257-0.775-0.135-1.558-0.261-2.384
        c-0.203-1.348,0.127-2.701,0.771-3.953c0.44-0.859,0.878-1.725,1.069-2.69c0.126-0.645,0.635-1.143,0.72-1.817
        c0.043-0.346,0.215-0.679-0.019-1.002c-0.937-0.624-2.099-0.106-3.062-0.624c-0.2-0.287-0.399-0.577-0.642-0.928
        c-1.408-0.467-2.408-1.564-3.496-2.902c-0.869-1.807-0.023-3.684,0.696-5.517c0.622-1.588,1.241-3.21,2.458-4.493
        c0.241-0.256,0.263-0.648,0.133-1.154c-0.965-0.614-2.161-0.76-3.453-0.987c-0.701-0.895-2.166-0.901-2.794-2.027
        c-0.183-0.373-0.046-0.723-0.016-1.034c-0.05-0.108-0.061-0.207-0.118-0.244c-0.764-0.526-0.872-1.243-0.625-2.075
        c0.09-0.3,0.233-0.606,0.23-0.908c-0.022-2.102,1.283-3.637,2.212-5.343c0.618-1.132,1.403-2.131,2.143-3.003
        c0.056-0.54-0.148-0.829-0.352-1.113c-1.34-0.701-2.445-1.58-2.724-3.378c-1.275-0.703-1.379-2.346-2.049-3.64
        c-0.237-0.46-0.095-1.08,0.307-1.575c-0.567-1.044-0.299-2.016,0.116-3.045c0.438-1.077,0.945-2.133,1.239-3.276
        c0.152-0.593,0.551-1.137,1.047-1.533c0.66-0.533,0.924-1.34,1.442-1.972c0.236-0.291,0.268-0.73,0.233-1.231
        c-0.919-0.688-0.641-1.849-0.938-2.879c0.701-0.755,0.763-1.664,0.531-2.618c-0.097-0.399-0.04-0.773,0.048-1.158
        c0.429-1.913,1.392-3.541,2.673-4.995c0.37-0.419,0.537-0.946,0.81-1.406c1.219-2.058,2.648-3.78,5.186-4.48
        c1.627-0.447,3.18-0.06,4.749-0.286c0.665-0.096,1.151,0.474,1.754,0.581c2.057,0.364,4.022,0.972,5.879,1.935
        c0.277,0.143,0.575,0.235,0.899,0.25c0.849,0.039,1.61,0.299,2.024,0.808c4.625,1.676,8.598,4.105,12.339,6.708
        c1.154-0.014,1.58-1.314,2.674-1.036c0.307-0.543,0.613-1.04,1.19-1.146c1.128-0.204,2.036-0.917,3.102-1.299
        c1.87-0.672,3.766-1.195,5.691-1.624c1.977-0.439,3.982-0.572,6.005-0.332c0.928,0.108,1.753,0.397,2.345,1.078
        c0.346,0.262,0.024,0.66,0.353,0.962c0.364,0.238,0.795,0.558,1.238-0.148c-0.1-0.491-0.668-0.862-0.459-1.667
        c0.304-0.617,0.773-1.417,0.355-2.342c0.146-0.322,0.275-0.606,0.44-0.972c-0.658-0.778,0.009-1.405,0.372-2.128
        c-0.013-1.63,0.21-3.244,1.141-4.425c0.305-0.558-0.118-0.76-0.105-1.158c1.077-2.456,0.909-5.353,2.161-7.874
        c0.087-1.244,0.471-2.455,1.049-3.581c0.578-1.123,1.297-2.173,1.972-3.244c0.206-0.348-0.27-0.528-0.235-0.866
        c0.494-1.316,1.257-2.498,1.981-3.698c0.286-0.472,0.721-0.821,1.299-0.714c0.313-0.298,0.465-0.61,0.624-0.927
        c0.359-0.716,0.899-1.268,1.634-1.61c1.137-0.527,2.165-1.226,3.143-2.001c0.367-0.288,0.732-0.599,0.938-1.036
        c0.84-1.796,0.837-1.797,2.609-2.092c0.931-0.787,1.08-2.025,1.622-3.045c0.166-0.311,0.268-0.656,0.538-0.895
        c0.521-0.46,0.833-1.015,0.938-1.712c0.059-0.39,0.329-0.704,0.571-1.014c0.531-0.678,0.95-1.426,1.404-2.155
        c0.55-0.881,1.333-1.604,1.894-2.508c1.784-2.881,4.619-4.83,6.715-7.444c0.242-0.302,0.575-0.522,0.929-0.705
        c1.452-0.749,2.885-1.534,4.548-1.723c0.181-0.021,0.348-0.162,0.526-0.25c-0.051-0.769-0.404-1.369-0.82-1.934
        c-0.615-0.835-0.689-1.742-0.66-2.772c0.067-2.347,1.381-4.271,1.947-6.461c0.8-0.497,1.291-1.239,1.604-1.994
        c0.291-0.317,0.638-0.309,0.875-0.438c0.231-0.278,0.176-0.657,0.311-0.744c0.633-0.486,1.229-0.672,1.791-0.696
        c1.185-0.05,2.357,0.007,3.525,0.434c2.346,0.855,3.928,2.585,5.464,4.403c0.101,0.119,0.179,0.256,0.28,0.373
        c0.049,0.056,0.134,0.08,0.271,0.157c0.874-0.552,1.3-1.486,1.738-2.377c0.573-1.168,1.285-2.216,2.248-3.132
        c2.483-0.483,4.933-0.478,7.361,0.399c2.335,0.844,4.155,2.282,5.453,4.386c0.35,0.563,0.681,1.146,1.04,1.695
        c0.698,1.078,0.538,2.075,0.016,3.105c-0.853,1.689-2.093,3.102-3.289,4.544c-0.32,0.391-0.661,0.764-0.8,1.293
        c0.659,0.627,1.533,0.645,2.28,0.939c2.56,1.003,4.642,2.659,6.544,4.602c1.827,1.866,3.768,3.659,5.262,5.788
        c1.148,1.641,2.141,3.467,2.459,5.533c0.114,0.732,0.194,1.476,0.518,2.141c0.26,0.221,0.536,0.141,0.8,0.092
        c1.613-0.297,3.224-0.592,4.836-0.902c0.884-0.169,1.816-0.214,2.672-0.157c3.585,0.24,7.154,0.574,10.622,1.706
        c2.153,0.702,4.25,1.595,6.445,2.14c2.547,0.632,4.94,1.718,7.454,2.412c2.796,0.774,5.226,2.138,7.579,3.781
        c1.199,0.841,2.6,1.424,3.792,2.307c1.036,0.767,2.027,1.575,2.785,2.657c0.665,0.952,1.621,1.638,2.25,2.676
        c1.133,1.867,1.641,3.955,2.457,5.931c0.429,1.041,0.965,2.053,1.099,3.203c0.046,0.395,0.28,0.733,0.516,1.047
        c0.738,0.982,1.084,2.065,0.846,3.351c0.683,0.758,0.917,1.721,1.157,2.719c0.234,0.976,0.487,1.959,0.884,2.899
        c0.67,1.585,1.273,3.209,1.615,4.892c0.41,2.019,0.815,4.046,1.231,6.059c0.375,1.795,0.763,3.583,1.047,5.395
        c0.152,0.966,0.304,1.925,0.194,2.912c-0.07,0.663,0,1.324,0.194,1.978C263.923,165.896,263.843,166.716,263.855,167.538z"/>
    <path fill-rule="evenodd" d="M195.673,207.899c-0.683-1.199-1.798-2.038-1.886-3.417c-2.3,0.531-5.621,2.065-7.676,3.563
        c2.853,1.168,5.391,2.593,8.126,4.122C194.389,210.451,194.331,208.92,195.673,207.899z"/>
    <path fill-rule="evenodd" d="M142.162,221.668c0.89-0.346,1.799-0.394,2.671-0.423c1.485-0.051,2.957,0.203,4.343,0.776
        c0.592,0.245,1.148,0.256,1.706,0.009c0.999-0.44,2.035-0.478,3.104-0.423c2.429,0.128,4.842,0.018,7.22-0.542
        c1.078-0.255,2.152-0.427,3.172-0.07c0.807-0.348,1.558-0.584,2.355-0.441c0.668,0.119,1.326,0.022,1.987,0.009
        c1.24-0.015,2.503-0.225,3.737,0.28c0.633-0.145,1.262-0.062,1.932,0.077c0.998,0.203,1.937,0.588,2.93,0.791
        c0.419,0.086,0.85,0.302,1.267,0.174c0.947-0.286,1.858-0.035,2.77,0.113c1.293,0.207,2.565,0.244,3.814-0.163
        c0.678-0.222,1.366-0.154,1.963,0.07c0.569,0.214,1.025,0.181,1.542-0.055c0.221-0.397,0.45-0.806,0.69-1.241
        c0.013-0.725,0.159-1.441,0.434-2.142c0.282-0.709,1.188-0.899,1.366-1.639c-0.478-0.701-1.26-0.718-1.868-1.051
        c-0.947-0.522-1.86-1.102-2.798-1.639c-1.648-0.943-3.543-0.883-5.339-1.234c-1.881-0.368-3.944-0.267-5.31-2.005
        c-0.046-0.057-0.139-0.071-0.234-0.119c-0.56-0.082-1.146-0.092-1.725,0.059c-1.512,0.394-3.091,0.641-4.525,1.229
        c-2.016,0.831-4.054,0.586-6.112,0.581c-1.304-0.004-2.596-0.3-3.929,0.161c-0.97,0.333-2.01,0.049-2.812-0.782
        c0.01-0.507-0.243-0.996-0.058-1.512c0.108-0.355,0.571-0.428,0.647-0.806c0.106-0.304-0.155-0.619,0.09-1.007
        c1.662-1.421,3.7-1.729,5.846-1.37c1.139,0.189,2.245,0.049,3.365,0.057c1.553,0.007,2.976-0.622,4.479-0.815
        c1.331-1.099,2.324-1.256,4.166-0.652c0.355-0.125,0.606-0.445,0.991-0.577c1.41-0.487,2.847-0.808,4.349-0.833
        c1.3-0.02,2.532-0.194,3.67-0.996c0.784-0.555,1.6-1.141,2.545-1.434c2.47-0.767,4.849-1.754,7.244-3.027
        c0.469-0.91,1.597-1.274,2.419-2.179c-0.185-0.571,0.452-0.817,0.63-1.293c0.773-2.516,1.353-5.076,2.122-7.557
        c-0.635-0.871-0.705-1.875-1.06-2.811c-1.163,0.414-2.188,0.982-3.203,1.547c-0.963,0.536-1.654,1.404-1.769,2.477
        c-0.159,1.457-0.83,2.638-1.604,3.799c-0.454,0.676-1.073,1.097-1.897,1.258c-0.917,0.179-1.793,0.489-2.64,0.943
        c-1.238,0.67-2.556,1.181-3.968,1.39c-0.353,0.055-0.696,0.146-0.978,0.372c-1.723,1.382-4.433,1.368-6.427-0.465
        c-0.467-0.428-0.978-0.615-1.595-0.613c-0.388,0.002-0.782-0.016-1.168-0.059c-1.589-0.176-3.195-0.09-4.775-0.053
        c-2.016,0.044-4.014,0.158-6.033-0.049c-0.614-0.064-0.986-0.542-1.614-0.505c-1.351,0.075-2.579-0.923-3.931-0.469
        c-0.384-0.181-0.649-0.403-0.878-0.652c-0.124-0.348-0.27-0.674-0.358-1.011c-0.418-1.622,0.784-3.314,2.307-2.99
        c0.999,0.212,1.994,0.179,2.98,0.313c1.613,0.22,3.197,0.786,4.863,0.59c0.71-0.083,1.401,0.022,2.159,0.269
        c1.119-0.818,2.596,0.09,3.809-0.709c0.223-1.511-0.743-2.728-1.009-4.21c-0.168-0.232-0.399-0.546-0.652-0.89
        c0.042-1.1-0.46-2.021-1.088-2.858c-0.016-0.709-0.051-1.375-0.48-1.817c-0.097-0.901,0.419-1.721-0.081-2.477
        c-0.341-0.231-0.677-0.313-1.024-0.399c-1.194-0.289-2.468-0.242-3.585-0.868c-0.225-0.128-0.535-0.101-0.802-0.156
        c-0.729-0.148-1.496-0.201-2.156-0.546c-0.981-0.513-2.02-0.544-3.07-0.496c-1.395,0.068-2.53-0.731-2.919-2.133
        c0.248-0.45,0.615-0.899,0.356-1.425c0.759-1.261,0.911-1.52,1.455-1.529c1.705-0.038,3.401-0.218,5.114,0.198
        c2.228,0.54,4.341,1.549,6.669,1.692c0.452,0.026,0.793,0.326,1.236,0.405c1.112-0.154,2.236-0.315,3.356,0.057
        c0.143,0.048,0.313,0.027,0.465,0.007c1.271-0.178,2.536-0.317,3.765-0.789c0.793-0.306,1.527-0.742,2.386-0.932
        c1.901-0.421,3.803-1.029,5.325-2.228c1.849-1.458,4.014-2.414,5.827-3.9c0.317-0.26,0.712-0.293,1.036-0.465
        c0.205-0.309,0.362-0.604,0.615-0.868c1.349-1.399,2.932-2.541,4.169-4.076c1.666-2.065,3.129-4.26,3.728-6.817
        c0.476-2.033,1.002-4.081,1.221-6.18c0.088-0.853,0.156-1.668-0.26-2.593c-1.13,1.794-1.749,3.706-2.827,5.379
        c-1.082,1.676-2.113,3.371-3.75,4.614c-0.822,0.626-1.809,0.95-2.604,1.578c-1.419,1.123-2.876,2.122-4.708,2.253
        c-0.672,0.896-1.69,0.806-2.563,1.066c-0.85,0.253-1.741,0.11-2.631,0.364c-1.181,0.333-2.487,0.561-3.679,0.515
        c-1.372-0.053-2.679,0.282-4.028,0.275c-0.732-0.005-1.556-0.173-2.186,0.037c-1.527,0.506-3.025-0.08-4.532,0.14
        c-0.496,0.072-1.075,0.084-1.62,0.008c-1.967-0.274-3.935-0.526-5.905-0.786c-0.813-0.106-1.663-0.102-2.216-0.825
        c-0.468,0.279-0.864,0.3-1.309,0.177c-0.566-0.157-1.115-0.35-1.674-0.524c-1.183-0.366-2.172-1.154-3.476-1.301
        c-2.235-0.251-3.991-1.537-5.658-3.083c-0.599,0.386-0.831-0.398-1.346-0.478c-0.926-0.142-1.593-0.701-2.291-1.312
        c-1.496-1.309-2.686-2.936-4.33-4.084c-0.495-0.347-0.787-0.919-0.92-1.472c-0.166-0.696-0.565-1.174-1.066-1.594
        c-0.837-0.704-1.428-1.463-0.902-2.497c-0.102-0.49-0.467-0.349-0.672-0.488c0.698-1.892,0.415-11.908,0.222-14
        c0.168-0.488,0.218-1.002,0.387-1.486c-0.08-0.734-0.551-1.386-0.551-2.057c0-1.653,0-3.308,0-4.965
        c0-0.225-0.434-0.27-0.716-0.192c-2.154,1.008-2.747,3.136-3.708,5.021c-0.972,1.908-1.889,3.843-1.48,6.066
        c-0.259,0.452-0.474,0.859-0.699,1.256c-0.077,0.353,0.19,0.7-0.029,1.092c-0.108,0.273-0.511,0.266-0.738,0.528
        c-1.214,4.775-3.006,9.426-3.047,14.622c0.184,0.49,0.432,1.147,0.667,1.77c-0.233,2.208-0.281,2.32-1.694,3.867
        c-0.162,0.179-0.304,0.353-0.353,0.595c-0.113,0.562-0.513,0.833-1.001,1.062c-0.896,0.421-1.815,0.682-2.812,0.747
        c-2.086,0.135-4.086,0.723-6.047,1.386c-2.299,0.775-3.441,2.839-4.821,4.612c-0.609,0.78-0.708,1.846-1.283,2.626
        c-0.677,0.917-0.984,1.994-1.204,3.018c-0.476,2.21-0.813,4.47-0.941,6.724c-0.084,1.498-0.14,3.045,0.219,4.55
        c0.561,2.355,1.099,4.713,1.675,7.189c0.715,0.203,0.851,0.839,0.905,1.542c0.02,0.267,0.145,0.524,0.221,0.787
        c0.657,2.271,1.945,4.25,2.961,6.358c0.251,0.52,0.482,1.04,0.663,1.6c0.384,1.188,0.809,2.397,1.457,3.45
        c1.234,2.007,2.106,4.186,3.082,6.302c0.898,1.936,1.788,3.898,2.54,5.909c0.438,1.168,1.04,2.26,1.452,3.452
        c0.306,0.888,0.53,1.919,1.304,2.582c0.881,0.756,1.78,1.694,3.064,1.399c1.064-0.245,2.022-0.09,2.988,0.249
        c0.904,0.315,1.847,0.333,2.774,0.368c1.634,0.062,3.281,0.049,4.862,0.478c1.934,0.522,3.901,0.672,5.879,0.738
        C140.834,221.538,141.534,221.337,142.162,221.668z"/>
    <path fill-rule="evenodd" d="M257.538,157.438c-0.352-1.697-0.91-3.376-1.223-5.077c-0.379-2.055-1.09-3.988-1.697-5.962
        c-0.571-1.872-1.172-3.739-1.63-5.64c-0.3-1.256-0.696-2.463-1.188-3.653c-0.982-2.376-2.058-4.723-2.401-7.277
        c-1.102-1.36-1.707-2.99-2.721-4.377c-0.743-1.015-1.492-1.978-2.421-2.839c-0.969-0.894-2.128-1.444-3.221-2.118
        c-2.523-1.552-4.885-3.382-7.852-4.124c-2.532-0.635-5.023-1.439-7.529-2.164c-2.146-0.619-4.321-1.147-6.429-1.873
        c-2.238-0.771-4.495-0.924-6.819-0.742c-1.756,0.135-3.484,0.321-5.206,0.762c-1.066,0.272-2.129,0.452-2.93,0.93
        c-0.754,0.857-0.626,1.811-0.903,2.768c0.298,0.353,0.051,1.027,0.269,1.327c0.855,1.178,0.416,2.586,0.851,3.818
        c0.154,0.438,0.037,0.923,0.046,1.38c0.015,0.795-0.284,1.534-0.287,2.292c-0.009,1.943-0.39,3.878,0,5.962
        c0.688,0.468,0.685,1.39,0.707,2.223c0.027,0.885,0.297,1.701,0.536,2.509c0.185,0.605,0.308,1.195,0.379,1.819
        c0.192,1.656,0.223,3.322,0.319,4.985c0.048,0.859,0.053,1.706,0.018,2.563c-0.049,1.223-0.591,2.356-0.591,3.584
        c0,1.118-0.386,2.143-0.888,3.189c0.335,0.954-0.291,1.845-0.333,2.813c0.615,1.047,0.992,2.171,0.989,3.446
        c0.575,0.689,0.89,1.502,0.897,2.444c0.004,0.506,0.19,0.992,0.32,1.487c0.211,0.822,0.586,1.598,0.626,2.474
        c0.115,2.538-0.44,5.008-0.839,7.482c-0.322,2-1.082,3.896-2.078,5.687c-0.306,0.546-0.623,1.08-0.954,1.609
        c-0.388,0.615-0.829,1.245-0.758,2.126c0.593,0.632,0.747,1.439,0.641,2.342c-0.159,1.344-0.137,2.704-0.225,4.052
        c-0.079,1.174-0.103,2.322-0.474,3.444c-0.049,0.145-0.038,0.311-0.049,0.467c-0.121,1.86-0.67,3.563-1.63,5.178
        c-0.471,0.797-1.013,1.604-1.276,2.486c-0.494,1.685-0.681,3.455-0.515,5.189c0.187,2.003,0.346,4.021,0.853,5.988
        c0.266,1.036,0.119,2.023-0.778,2.778c-0.234,0.196-0.414,0.456-0.619,0.69c0.152,0.385,0.302,0.74,0.743,1.029
        c0.454,0.015,0.976,0.174,1.437,0.483c0.317,0.211,0.661,0.207,1.015,0.231c1.952,0.125,3.854,0.467,5.638,1.32
        c0.54,0.262,0.84,0.643,0.985,1.225c0.672,2.705-0.677,5.713-3.356,6.912c-1.595,0.716-3.029,1.791-4.68,2.119
        c-0.701,0.846-0.513,1.712-0.436,2.567c0.242,2.686-0.218,5.385,0.147,8.066c0.015,0.115-0.006,0.236-0.018,0.352
        c-0.146,1.342-0.037,2.701,0.33,3.961c0.341,1.176,0.192,2.247-0.077,3.344c-0.15,0.612-0.253,1.218-0.317,1.846
        c-0.077,0.76-0.046,1.582-0.656,2.146c-0.41,0.143-0.723-0.211-1.203-0.029c-0.458,0.352-1.216,0.339-1.729,0.815
        c-0.696-0.385-1.249-0.797-1.447-1.518c0.143-0.787,0.612-1.47,0.524-2.289c-0.156-1.353-0.362-2.71,0.132-3.988
        c-0.798-1.763-0.617-3.631-0.586-5.363c0.039-2.093-0.207-4.204,0.128-6.303c0.136-0.86,0.022-1.763,0.022-2.758
        c-2.212-0.28-4.47-0.364-6.692-0.742c-1.527-0.258-3.096-0.167-4.664-0.088c-1.987,0.103-3.99-0.128-5.988-0.192
        c-0.784-0.024-1.553-0.073-2.316-0.306c-2.717-0.828-5.528-0.926-8.342-0.991c-1.108-0.026-2.173,0.317-3.241,0.31
        c-1.822-0.016-3.56,0.483-5.349,0.58c-2.414,0.134-4.794,0.615-7.25,0.412c-1.392-0.114-2.79-0.313-4.195-0.31
        c-1.598,0.005-3.195,0.002-4.829,0.002c-0.775,0.45-1.355,1.205-2.092,1.78c-0.809,0.634-1.928,0.421-2.79,1.271
        c0.083,1.139-0.312,2.364-0.267,3.591c0.067,1.829,0.29,3.651,0.119,5.486c-0.136,1.45-0.156,2.899,0.129,4.329
        c0.209,1.055,0.139,2.107,0.125,3.162c-0.005,0.352-0.01,0.692,0.007,1.042c0.068,1.448,0.306,2.882,0.38,4.32
        c0.2,3.865,0.268,7.734,0.729,11.581c0.181,1.514,0.201,3.056,0.504,4.545c0.368,1.804,0.527,3.649,1.386,5.369
        c0.914,1.826,1.931,3.481,3.729,4.532c1.008,0.59,2.095,1.069,3.031,1.752c1.09,0.797,2.411,1.316,3.164,2.45
        c1.725,0.747,3.372,1.556,5.089,2.172c1.177,0.418,2.277,1.112,3.518,1.269c1.146,0.148,2.011,0.716,2.744,1.304
        c2.33,0.469,4.538,0.914,6.644,1.335c0.32,0.225,0.203,0.619,0.692,0.762c0.797-0.346,1.696-0.383,2.36,0.588
        c1.099-0.253,2.142,0.172,3.032,0.093c0.54,0.191,0.509,0.678,0.85,0.815c0.311-0.068,0.035-0.489,0.412-0.542
        c0.485,0.015,1.034-0.099,1.448,0.037c0.386,0.172,0.348,0.564,0.65,0.648c0.581,0.152,0.904-0.348,1.21-0.509
        c1.231,0.397,2.362,0.33,3.464,0.196c0.998-0.117,1.857-0.007,2.569,0.776c0.46-0.394,1.159-0.441,1.24-1.212
        c0.758,0.104,1.465-0.084,2.146,0.199c0.341-0.276,0.646-0.535,1.073-0.698c1.051-0.401,2.099-0.767,3.237-0.859
        c0.573-0.047,1.168-0.115,1.436-0.632c1.172-0.251,2.303-0.181,3.322-0.621c1.794-0.776,3.702-0.721,5.64-0.95
        c0.397-0.897,1.351-1.06,2.248-1.349c0.293,0.306,0.11,1.091,0.87,0.815c0.311-0.32-0.005-0.787,0.313-1.025
        c1.842-1.243,3.995-1.864,5.927-3.131c0.247-0.088,0.591,0.262,0.914,0.024c0.344-0.242-0.207-0.502-0.058-0.654
        c0.893-0.608,1.701-1.1,2.373-1.814c0.632-0.67,1.311-1.344,2.327-1.436c0.048-0.004,0.09-0.106,0.148-0.179
        c-0.097-0.146-0.198-0.3-0.309-0.476c0.203-0.32,0.408-0.646,0.558-0.881c0.286-0.216,0.549,0.053,0.747-0.167
        c0.04-0.839,0.533-1.443,1.091-1.987c2.02-1.967,3.712-4.166,4.958-6.7c0.335-0.176,0.767-0.103,1.064-0.395
        c-0.113-0.183-0.406-0.123-0.461-0.557c1.56-2.47,3.442-4.843,5.936-7.266c0.308-0.734,0.91-1.701,1.714-2.401
        c0.888-0.771,1.322-1.789,1.972-2.684c1.058-1.469,1.703-3.246,3.252-4.349c0.026-0.018,0.029-0.071,0.042-0.106
        c0.621-1.84,2.119-3.234,2.545-5.195c0.373-1.716,1.379-3.213,1.97-4.86c0.291-0.811,0.672-1.49,1.062-1.716
        c2.995-6.422,5.521-12.658,7.815-19.039c-0.048-0.743,0.203-1.489,0.326-2.258c0.218-1.386,0.753-2.683,0.938-4.087
        c0.362-2.745,0.866-5.482,1.463-8.187c0.214-0.961,0.311-1.917,0.463-2.877c0.19-1.205,0.178-2.488,1.011-3.635
        c-0.379-0.463-0.333-1.034-0.192-1.624c0.324-1.331,0.482-2.673,0.547-4.045c0.132-2.607,0.57-5.189,0.906-7.78
        c0.278-2.115,0.861-4.175,0.798-6.363c-0.037-1.335,0.128-2.708,0.161-4.07c0.022-0.967,0.068-1.95,0.491-2.827
        c-0.641-1.705-0.476-3.453-0.524-5.158C258.518,162.882,258.097,160.142,257.538,157.438z"/>
    <path fill-rule="evenodd" d="M197.213,223.089c3.618-0.936,3.618-0.936,4.145-2.016c-2.04-0.158-3.719-1.064-5.387-1.772
        c-1.025,0.855-2.155,1.494-1.791,3.102C195.112,222.9,196.282,222.626,197.213,223.089z"/>
    <path fill-rule="evenodd" d="M101.736,214.75c-0.8-0.881-1.065-1.985-1.204-3.109c-0.131-1.062-0.317-2.093-0.807-3.047
        c-0.567-1.108-1.055-2.245-1.502-3.406c-0.223-0.582-0.388-1.143-0.274-1.818c0.141-0.833-0.496-1.632-0.246-2.424
        c-0.191-0.335-0.591-0.245-0.724-0.714c-0.064-0.897-0.14-1.948-0.22-3.069c-0.215-0.249-0.634-0.403-0.731-0.817
        c-0.401-1.707-0.919-3.398-1.152-5.127c-0.125-0.945-0.322-1.822-0.645-2.706c-0.442-1.216-0.866-2.463-0.186-3.721
        c-0.592-2.778-1.399-5.479-1.446-8.471c0.035-0.123,0.577-0.119,0.41-0.559c-1.071-0.401-1.178-0.549-1.23-1.679
        c-0.023-0.471-0.113-0.914-0.265-1.37c-0.383-1.159-0.344-2.379-0.446-3.732c-0.879-0.782-0.122-2.124-0.716-3.105
        c0.13-1.3,0.167-2.573,0.032-3.889c0.733-1.355,0.879-2.931,1.405-4.4c-0.198-0.28-0.321-0.623-0.563-0.776
        c-4.424-2.82-8.906-5.526-14.323-7.043c-0.874,0.197-1.99-0.335-3.052-0.75c-1.795-0.696-3.436-0.413-5.091,0.231
        c-0.232,0.263-0.409,0.531-0.65,0.723c-2.109,1.689-3.266,3.953-3.717,6.544c-0.264,1.516-0.441,3.116,0.662,4.58
        c1.797,0.461,3.855,0.026,5.683,1.139c0.066,0.833,1.068,1.208,1.264,2.21c-0.562,1.144-2.102,1.507-2.587,2.981
        c-2.02-0.329-3.961-1.414-6.074-0.3c-0.211,0.32-0.533,0.701-0.963,1c-1.543,1.075-2.01,2.523-1.434,4.294
        c0.157,0.485,0.306,0.969,0.458,1.454c0.497,1.591,1.654,2.62,2.994,3.483c0.293,0.189,0.623,0.3,1,0.284
        c1.163-0.057,2.322,0.192,3.496-0.033c0.808-0.156,1.636,0.018,2.43,0.139c0.546,0.626,0.937,1.293,1.267,2.117
        c-0.23,0.78-0.188,1.836-1.204,2.179c-1.073,0.362-2.069,0.921-3.185,1.163c-0.34,0.071-0.725,0.165-0.976,0.381
        c-1.683,1.447-3.448,2.798-4.704,4.693c-0.698,1.055-0.882,2.128-0.731,3.212c0.503,0.67,1.072,1.011,1.746,1.137
        c1.113,0.207,2.231,0.482,3.355,0.518c1.329,0.049,2.608,0.333,3.813,0.48c0.473,0.366,0.164,0.936,0.589,1.256
        c0.461,0.251,1.138,0.24,1.431,0.943c-0.028,0.178-0.041,0.416-0.104,0.635c-0.088,0.3-0.211,0.588-0.342,0.949
        c-3.69,1.324-4.915,4.878-6.878,7.716c-0.091,2.591,0.963,3.664,3.482,3.69c1.503,0.015,3.004,0.095,4.473,0.146
        c0.445,0.529,0.844,1.007,1.166,1.393c0.23,0.535,0.036,0.961,0.061,1.392c0.048,0.879-0.089,1.738-1.04,2.168
        c-0.281,0.124-0.31,0.439-0.477,0.639c-0.721,0.853-0.71,2.223-1.974,2.679c-0.008,0.996-0.363,1.86-0.778,2.712
        c-0.59,1.207-0.602,2.481-0.405,3.756c0.521,0.43,1.089,0.522,1.688,0.536c0.429,0.009,0.881-0.051,1.272,0.156
        c0.681,0.363,1.353,0.298,2.051,0.07c0.93-0.306,1.87-0.582,2.788-0.461c1.975-1.439,3.57-1.84,4.014-1.042
        c0.044,0.348-0.417,0.59-0.251,0.939c0.226,0.588,0.934,0.463,1.208,0.923c0.219,1.181,0.195,1.276-0.546,1.979
        c-0.254,0.244-0.521,0.474-0.778,0.716c-1.469,1.393-3.073,2.69-3.457,4.858c-0.014,0.075-0.055,0.148-0.092,0.218
        c-0.887,1.589-0.933,3.267-0.553,4.968c0.27,0.342,0.581,0.569,0.849,0.663c1.677,0.115,3.103-0.414,4.547-0.905
        c0.56-0.189,1.091-0.412,1.595-0.7c0.348-0.196,0.185-0.727,0.623-0.923c0.982-0.438,1.775-1.175,2.65-1.785
        c0.512-0.355,1.136-0.557,1.622-0.943c0.834-0.661,1.719-1.066,2.83-0.893c0.481-0.87,1.219-1.435,2.031-1.904
        c1.851-1.069,3.851-1.895,5.46-3.36c0.236-0.216,0.58-0.209,0.881-0.297c0.556-0.169,1.105-0.366,1.621-0.709
        c0.139-0.306,0.285-0.622,0.406-0.886c1.229-0.826,2.13-1.906,3.173-2.796c-0.254-0.987-1.097-1.573-1.099-2.435
        C102.692,218.42,102.004,216.699,101.736,214.75z M70.954,175.185c-0.479,0.038-0.977,0.079-1.551,0.123
        c-0.335-0.639-1.322-0.357-1.679-1.183c0.093-0.736,0.353-1.503,0.283-2.342c-0.061-0.747,0.547-1.273,1.336-1.393
        c0.619-0.095,1.246-0.103,1.99,0.19c0.068,0.591,0.384,1.009,0.942,1.262C72.141,173.096,71.94,174.262,70.954,175.185z
         M70.496,158.872c-0.382-0.501-1.01-0.822-1.225-1.484c-0.044-1.706,0.673-2.954,2.26-3.595c1.769-0.714,2.658,0.623,3.701,1.718
        c-0.303,0.595-0.606,1.225-0.552,1.962c-0.605,0.421-0.917,1.045-1.226,1.664C72.448,159.048,71.49,158.963,70.496,158.872z
         M69.648,189.555c-0.457-1.046-0.221-2.097-0.178-3.162c1.361-1.655,1.68-1.729,3.863-0.859c0.857,1.159,0.902,2.086,0.159,3.34
        C72.516,190.527,71.156,190.754,69.648,189.555z M71.91,206.291c-0.226-0.311-0.484-0.604-0.784-0.978
        c0.123-1.245-0.099-2.657,1.463-3.344c0.916-0.405,2.502,0.163,3.415,1.234c0.388,1.223-0.119,2.184-0.666,3.065
        C74.54,207.556,72.812,207.525,71.91,206.291z M79.382,217.909c-1.031,1.073-3.17,0.897-4.02-0.841
        c-0.125-0.254-0.123-0.533-0.072-0.804c0.107-0.571,0.228-1.141,0.346-1.723c0.427-0.518,1.032-0.619,1.325-1.069
        c0.156-0.039,0.267-0.073,0.382-0.086c1.501-0.15,2.048,0.099,2.516,1.141C80.397,215.724,80.177,217.083,79.382,217.909z
         M87.681,228.98c-0.121,0.769-0.327,1.522-0.49,2.258c-0.501,0.525-0.9,0.945-1.269,1.333c-1.781,0.489-3.009-0.203-3.523-1.899
        c0.268-0.56,0.324-1.223,0.401-1.853c0.925-1.249,2.169-1.619,3.621-1.457C87.316,227.463,87.824,228.084,87.681,228.98z"/>
    <path fill-rule="evenodd" d="M112.789,213.373c-1.042-2.333-1.366-4.968-2.954-7.073c-0.265-0.355-0.07-0.745-0.04-1.165
        c-0.796-0.394-0.494-1.571-1.366-1.831c-1.22-3.001-2.41-5.918-3.708-9.109c-1.307-1.655-2.258-3.788-2.471-6.226
        c-0.117-0.26,0.324-0.397,0.074-0.667c-0.629-0.943-1.478-1.745-1.592-2.994c-0.078-0.892,0.098-1.831-0.127-2.657
        c-0.33-1.201-0.361-2.415-0.332-3.6c0.038-1.613,0.26-3.219,0.31-4.847c0.066-2.157,0.753-4.223,1.498-6.246
        c0.108-0.291,0.217-0.568,0.248-0.892c0.138-1.437,0.721-2.717,1.621-3.816c0.577-0.703,0.974-1.478,1.369-2.278
        c0.452-0.916,0.315-2.18,1.567-2.607c0.036-0.872,0.673-1.334,1.119-1.945c1.316,0.016,1.729-1.263,2.657-1.838
        c-5.946,0.554-11.083,2.837-15.334,6.907c-0.248,2.517-0.225,4.762,0.414,6.97c0.083,0.293,0.038,0.621,0.074,0.93
        c0.123,1.046,0.098,2.142,0.414,3.126c0.627,1.95,0.948,3.948,1.238,5.955c0.39,2.701,0.915,5.372,1.475,8.04
        c0.104,0.498,0.38,0.938,0.395,1.469c0.065,2.036,0.648,3.992,1.06,5.966c0.508,2.444,1.251,4.839,1.881,7.26
        c0.718,2.758,1.579,5.469,2.521,8.156c0.155,0.443,0.406,0.862,0.496,1.313c0.503,2.509,1.524,4.805,2.969,6.886
        c0.634,0.912,1.415,1.817,2.445,2.307c0.634,0.304,1.244,0.641,1.87,0.947c0.938,0.46,1.937,0.793,2.86,1.3
        c0.077,0.04,0.216-0.033,0.498-0.082c-0.764-1.924-1.709-3.741-2.027-5.843C113.348,214.75,113.095,214.06,112.789,213.373z"/>
</svg>
