<svg xmlns="http://www.w3.org/2000/svg" viewBox="0 0 320 320">
    <path d="M287.468,165.384c-3.663-57.692-45.787-103.022-105.311-103.022c0,0,1.588-14.142,17.399-23.352 c11.859-6.908,6.454-23.691-8.812-15.11c-14.106,7.929-25.254,30.22-25.254,30.22s3.671-24.86,6.135-31.931 c4.136-11.866-15.988-20.124-21.52,0c-4.121,14.989-4.121,33.304-4.121,33.304s-5.494-21.52-11.447-30.22 c-8.611-12.585-28.712-5.752-18.773,9.157c7.326,10.989,8.242,27.93,8.242,27.93c-39.377,1.374-98.901,58.15-91.117,136.904 c7.784,78.754,66.392,114.926,141.941,110.348C257.215,304.621,291.623,230.817,287.468,165.384z M49.191,232.164 c-2.238,0-4.052-1.814-4.052-4.052c0-2.238,1.814-4.052,4.052-4.052c2.238,0,4.052,1.814,4.052,4.052 C53.243,230.35,51.429,232.164,49.191,232.164z M49.191,210.552c-2.238,0-4.052-1.814-4.052-4.052c0-2.238,1.814-4.052,4.052-4.052 c2.238,0,4.052,1.814,4.052,4.052C53.243,208.738,51.429,210.552,49.191,210.552z M49.191,188.939c-2.238,0-4.052-1.814-4.052-4.052 c0-2.238,1.814-4.052,4.052-4.052c2.238,0,4.052,1.814,4.052,4.052C53.243,187.125,51.429,188.939,49.191,188.939z M49.191,167.327 c-2.238,0-4.052-1.814-4.052-4.052c0-2.238,1.814-4.052,4.052-4.052c2.238,0,4.052,1.814,4.052,4.052 C53.243,165.513,51.429,167.327,49.191,167.327z M200.478,72.773c2.238,0,4.052,1.814,4.052,4.052c0,2.238-1.814,4.052-4.052,4.052 s-4.052-1.814-4.052-4.052C196.425,74.587,198.24,72.773,200.478,72.773z M200.478,94.385c2.238,0,4.052,1.814,4.052,4.052 c0,2.238-1.814,4.052-4.052,4.052s-4.052-1.814-4.052-4.052C196.425,96.2,198.24,94.385,200.478,94.385z M178.865,72.773 c2.238,0,4.052,1.814,4.052,4.052c0,2.238-1.814,4.052-4.052,4.052c-2.238,0-4.052-1.814-4.052-4.052 C174.813,74.587,176.627,72.773,178.865,72.773z M157.253,72.773c2.238,0,4.052,1.814,4.052,4.052c0,2.238-1.814,4.052-4.052,4.052 c-2.238,0-4.052-1.814-4.052-4.052C153.2,74.587,155.015,72.773,157.253,72.773z M135.64,72.773c2.238,0,4.052,1.814,4.052,4.052 c0,2.238-1.814,4.052-4.052,4.052c-2.238,0-4.052-1.814-4.052-4.052C131.588,74.587,133.402,72.773,135.64,72.773z M114.028,72.773 c2.238,0,4.052,1.814,4.052,4.052c0,2.238-1.814,4.052-4.052,4.052c-2.238,0-4.052-1.814-4.052-4.052 C109.976,74.587,111.79,72.773,114.028,72.773z M114.028,94.385c2.238,0,4.052,1.814,4.052,4.052c0,2.238-1.814,4.052-4.052,4.052 c-2.238,0-4.052-1.814-4.052-4.052C109.976,96.2,111.79,94.385,114.028,94.385z M92.416,94.385c2.238,0,4.052,1.814,4.052,4.052 c0,2.238-1.814,4.052-4.052,4.052c-2.238,0-4.052-1.814-4.052-4.052C88.363,96.2,90.178,94.385,92.416,94.385z M92.416,115.998 c2.238,0,4.052,1.814,4.052,4.052c0,2.238-1.814,4.052-4.052,4.052c-2.238,0-4.052-1.814-4.052-4.052 C88.363,117.812,90.178,115.998,92.416,115.998z M70.803,253.777c-2.238,0-4.052-1.814-4.052-4.052c0-2.238,1.814-4.052,4.052-4.052 c2.238,0,4.052,1.814,4.052,4.052C74.856,251.962,73.041,253.777,70.803,253.777z M70.803,232.164c-2.238,0-4.052-1.814-4.052-4.052 c0-2.238,1.814-4.052,4.052-4.052c2.238,0,4.052,1.814,4.052,4.052C74.856,230.35,73.041,232.164,70.803,232.164z M70.803,210.552 c-2.238,0-4.052-1.814-4.052-4.052c0-2.238,1.814-4.052,4.052-4.052c2.238,0,4.052,1.814,4.052,4.052 C74.856,208.738,73.041,210.552,70.803,210.552z M70.803,188.939c-2.238,0-4.052-1.814-4.052-4.052c0-2.238,1.814-4.052,4.052-4.052 c2.238,0,4.052,1.814,4.052,4.052C74.856,187.125,73.041,188.939,70.803,188.939z M70.803,167.327c-2.238,0-4.052-1.814-4.052-4.052 c0-2.238,1.814-4.052,4.052-4.052c2.238,0,4.052,1.814,4.052,4.052C74.856,165.513,73.041,167.327,70.803,167.327z M70.803,145.715 c-2.238,0-4.052-1.814-4.052-4.052c0-2.238,1.814-4.052,4.052-4.052c2.238,0,4.052,1.814,4.052,4.052 C74.856,143.9,73.041,145.715,70.803,145.715z M70.803,124.102c-2.238,0-4.052-1.814-4.052-4.052c0-2.238,1.814-4.052,4.052-4.052 c2.238,0,4.052,1.814,4.052,4.052C74.856,122.288,73.041,124.102,70.803,124.102z M92.416,275.389c-2.238,0-4.052-1.814-4.052-4.052 c0-2.238,1.814-4.052,4.052-4.052c2.238,0,4.052,1.814,4.052,4.052C96.468,273.575,94.654,275.389,92.416,275.389z M92.416,253.777 c-2.238,0-4.052-1.814-4.052-4.052c0-2.238,1.814-4.052,4.052-4.052c2.238,0,4.052,1.814,4.052,4.052 C96.468,251.962,94.654,253.777,92.416,253.777z M114.028,275.389c-2.238,0-4.052-1.814-4.052-4.052 c0-2.238,1.814-4.052,4.052-4.052c2.238,0,4.052,1.814,4.052,4.052C118.08,273.575,116.266,275.389,114.028,275.389z M114.028,253.777c-2.238,0-4.052-1.814-4.052-4.052c0-2.238,1.814-4.052,4.052-4.052c2.238,0,4.052,1.814,4.052,4.052 C118.08,251.962,116.266,253.777,114.028,253.777z M135.64,297.001c-2.238,0-4.052-1.814-4.052-4.052 c0-2.238,1.814-4.052,4.052-4.052c2.238,0,4.052,1.814,4.052,4.052C139.693,295.187,137.878,297.001,135.64,297.001z M135.64,275.389c-2.238,0-4.052-1.814-4.052-4.052c0-2.238,1.814-4.052,4.052-4.052c2.238,0,4.052,1.814,4.052,4.052 C139.693,273.575,137.878,275.389,135.64,275.389z M135.64,253.777c-2.238,0-4.052-1.814-4.052-4.052 c0-2.238,1.814-4.052,4.052-4.052c2.238,0,4.052,1.814,4.052,4.052C139.693,251.962,137.878,253.777,135.64,253.777z M157.253,297.001c-2.238,0-4.052-1.814-4.052-4.052c0-2.238,1.814-4.052,4.052-4.052c2.238,0,4.052,1.814,4.052,4.052 C161.305,295.187,159.491,297.001,157.253,297.001z M157.253,275.389c-2.238,0-4.052-1.814-4.052-4.052 c0-2.238,1.814-4.052,4.052-4.052c2.238,0,4.052,1.814,4.052,4.052C161.305,273.575,159.491,275.389,157.253,275.389z M157.253,253.777c-2.238,0-4.052-1.814-4.052-4.052c0-2.238,1.814-4.052,4.052-4.052c2.238,0,4.052,1.814,4.052,4.052 C161.305,251.962,159.491,253.777,157.253,253.777z M178.865,297.001c-2.238,0-4.052-1.814-4.052-4.052 c0-2.238,1.814-4.052,4.052-4.052c2.238,0,4.052,1.814,4.052,4.052C182.917,295.187,181.103,297.001,178.865,297.001z M178.865,275.389c-2.238,0-4.052-1.814-4.052-4.052c0-2.238,1.814-4.052,4.052-4.052c2.238,0,4.052,1.814,4.052,4.052 C182.917,273.575,181.103,275.389,178.865,275.389z M178.865,253.777c-2.238,0-4.052-1.814-4.052-4.052 c0-2.238,1.814-4.052,4.052-4.052c2.238,0,4.052,1.814,4.052,4.052C182.917,251.962,181.103,253.777,178.865,253.777z M200.478,275.389c-2.238,0-4.052-1.814-4.052-4.052c0-2.238,1.814-4.052,4.052-4.052s4.052,1.814,4.052,4.052 C204.53,273.575,202.715,275.389,200.478,275.389z M200.478,253.777c-2.238,0-4.052-1.814-4.052-4.052 c0-2.238,1.814-4.052,4.052-4.052s4.052,1.814,4.052,4.052C204.53,251.962,202.715,253.777,200.478,253.777z M186.449,232.614 c-23.794,6.549-42.305,6.678-71.24-4.01c-12.414-4.585-20.859-16.143-21.55-29.358c-1.958-37.459,8.928-70.528,37.242-91.755 c13.791-10.339,33.037-8.278,44.6,4.503c20.451,22.606,31.835,55.116,35.072,85.423 C212.288,213.463,202.006,228.332,186.449,232.614z M222.09,275.389c-2.238,0-4.052-1.814-4.052-4.052 c0-2.238,1.814-4.052,4.052-4.052c2.238,0,4.052,1.814,4.052,4.052C226.142,273.575,224.328,275.389,222.09,275.389z M222.09,253.777c-2.238,0-4.052-1.814-4.052-4.052c0-2.238,1.814-4.052,4.052-4.052c2.238,0,4.052,1.814,4.052,4.052 C226.142,251.962,224.328,253.777,222.09,253.777z M222.09,167.327c-2.238,0-4.052-1.814-4.052-4.052 c0-2.238,1.814-4.052,4.052-4.052c2.238,0,4.052,1.814,4.052,4.052C226.142,165.513,224.328,167.327,222.09,167.327z M222.09,145.715c-2.238,0-4.052-1.814-4.052-4.052c0-2.238,1.814-4.052,4.052-4.052c2.238,0,4.052,1.814,4.052,4.052 C226.142,143.9,224.328,145.715,222.09,145.715z M222.09,124.102c-2.238,0-4.052-1.814-4.052-4.052c0-2.238,1.814-4.052,4.052-4.052 c2.238,0,4.052,1.814,4.052,4.052C226.142,122.288,224.328,124.102,222.09,124.102z M222.09,102.49 c-2.238,0-4.052-1.814-4.052-4.052c0-2.238,1.814-4.052,4.052-4.052c2.238,0,4.052,1.814,4.052,4.052 C226.142,100.676,224.328,102.49,222.09,102.49z M243.702,253.777c-2.238,0-4.052-1.814-4.052-4.052 c0-2.238,1.814-4.052,4.052-4.052c2.238,0,4.052,1.814,4.052,4.052C247.755,251.962,245.94,253.777,243.702,253.777z M243.702,232.164c-2.238,0-4.052-1.814-4.052-4.052c0-2.238,1.814-4.052,4.052-4.052c2.238,0,4.052,1.814,4.052,4.052 C247.755,230.35,245.94,232.164,243.702,232.164z M243.702,210.552c-2.238,0-4.052-1.814-4.052-4.052 c0-2.238,1.814-4.052,4.052-4.052c2.238,0,4.052,1.814,4.052,4.052C247.755,208.738,245.94,210.552,243.702,210.552z M243.702,188.939c-2.238,0-4.052-1.814-4.052-4.052c0-2.238,1.814-4.052,4.052-4.052c2.238,0,4.052,1.814,4.052,4.052 C247.755,187.125,245.94,188.939,243.702,188.939z M243.702,167.327c-2.238,0-4.052-1.814-4.052-4.052 c0-2.238,1.814-4.052,4.052-4.052c2.238,0,4.052,1.814,4.052,4.052C247.755,165.513,245.94,167.327,243.702,167.327z M243.702,145.715c-2.238,0-4.052-1.814-4.052-4.052c0-2.238,1.814-4.052,4.052-4.052c2.238,0,4.052,1.814,4.052,4.052 C247.755,143.9,245.94,145.715,243.702,145.715z M243.702,124.102c-2.238,0-4.052-1.814-4.052-4.052 c0-2.238,1.814-4.052,4.052-4.052c2.238,0,4.052,1.814,4.052,4.052C247.755,122.288,245.94,124.102,243.702,124.102z M265.315,232.164c-2.238,0-4.052-1.814-4.052-4.052c0-2.238,1.814-4.052,4.052-4.052c2.238,0,4.052,1.814,4.052,4.052 C269.367,230.35,267.553,232.164,265.315,232.164z M265.315,210.552c-2.238,0-4.052-1.814-4.052-4.052 c0-2.238,1.814-4.052,4.052-4.052c2.238,0,4.052,1.814,4.052,4.052C269.367,208.738,267.553,210.552,265.315,210.552z M265.315,188.939c-2.238,0-4.052-1.814-4.052-4.052c0-2.238,1.814-4.052,4.052-4.052c2.238,0,4.052,1.814,4.052,4.052 C269.367,187.125,267.553,188.939,265.315,188.939z M265.315,167.327c-2.238,0-4.052-1.814-4.052-4.052 c0-2.238,1.814-4.052,4.052-4.052c2.238,0,4.052,1.814,4.052,4.052C269.367,165.513,267.553,167.327,265.315,167.327z M163.089,126.618c-5.336-4.947-13.397-5.787-19.579-1.95c-24.266,15.061-32.709,41.543-30.01,71.616 c0.553,6.161,4.428,11.548,10.149,13.899c23.837,9.796,37.118,9.066,56.827,2.702c7.134-2.304,11.725-9.189,11.312-16.675 C190.425,171.5,181.219,143.427,163.089,126.618z M179.964,161.664c0,3.793-6.15,6.868-13.736,6.868 c-7.586,0-13.736-3.075-13.736-6.868c0-3.793,6.15-6.868,13.736-6.868C173.814,154.796,179.964,157.871,179.964,161.664z M164.854,175.4c0,3.793-6.15,6.868-13.736,6.868c-7.586,0-13.736-3.075-13.736-6.868c0-3.793,6.15-6.868,13.736-6.868 C158.704,168.532,164.854,171.607,164.854,175.4z M151.118,141.06c7.586,0,13.736,3.075,13.736,6.868s-6.15,6.868-13.736,6.868 c-7.586,0-13.736-3.075-13.736-6.868S143.532,141.06,151.118,141.06z M136.008,154.796c7.586,0,13.736,3.075,13.736,6.868 c0,3.793-6.15,6.868-13.736,6.868c-7.586,0-13.736-3.075-13.736-6.868C122.272,157.871,128.422,154.796,136.008,154.796z M122.272,189.136c0-3.793,6.15-6.868,13.736-6.868c7.586,0,13.736,3.075,13.736,6.868s-6.15,6.868-13.736,6.868 C128.422,196.005,122.272,192.93,122.272,189.136z M151.118,209.741c-7.586,0-13.736-3.075-13.736-6.868 c0-3.793,6.15-6.868,13.736-6.868c7.586,0,13.736,3.075,13.736,6.868C164.854,206.666,158.704,209.741,151.118,209.741z M166.228,196.005c-7.586,0-13.736-3.075-13.736-6.868c0-3.793,6.15-6.868,13.736-6.868c7.586,0,13.736,3.075,13.736,6.868 C179.964,192.93,173.814,196.005,166.228,196.005z"/>
</svg>