<svg xmlns="http://www.w3.org/2000/svg" viewBox="0 0 320 320">
    <path d="M258.274,120.398c-1.961,1.366-4.932,0.265-6.572-1.06c-0.188-0.151-0.327-0.357-0.441-0.583
    c-0.307-0.325-0.531-0.723-0.608-1.191c-0.204-1.235,0.021-2.153,0.566-3.24c0.237-0.473,0.564-0.919,0.919-1.306
    c0.752-0.818,1.941-1.409,3.072-1.357c1.793,0.083,3.506,1.249,4.222,2.916C260.332,116.673,260.328,118.967,258.274,120.398z
     M256.021,136.279c-1.332,2.475-4.842,3.09-7.141,1.615c-1.038-0.666-1.997-1.735-1.934-3.057c0.019-0.399,0.105-0.76,0.235-1.095
    c0.023-0.205,0.059-0.412,0.122-0.627c0.245-0.835,0.645-1.671,1.292-2.274c0.988-0.92,2.356-1.562,3.737-1.405
    c1.489,0.168,3.082,0.851,3.781,2.287C256.841,133.219,256.814,134.806,256.021,136.279z M270.764,157.567
    c-0.522,1.655-1.053,3.309-1.566,4.968c0.417,0.809,0.378,1.807-0.517,2.611c-0.116,0.104-0.235,0.198-0.352,0.299
    c-1.193,4.161-2.14,8.371-2.35,12.717c0.103,0.056,0.203,0.119,0.297,0.193c7.155,5.583,10.148,16.788,14.556,24.426
    c4.263,7.386,7.441,14.736,7.801,23.366c0.047,1.134-0.062,2.251-0.316,3.3c0.267,0.257,0.474,0.609,0.57,1.085
    c2.766,13.785-1.936,27.378-1.453,41.205c3.619,1.581,6.955,3.578,10.29,5.739c0.492,0.319,0.956,0.918,0.888,1.547
    c-0.27,2.479-0.101,6.117-1.367,8.663c1.28,4.57,2.922,9.569-2.574,11.96c-8.872,3.86-18.486,5.697-28.051,6.836
    c-0.737,0.088-1.562-0.602-1.709-1.301c-0.173-0.823-0.268-1.6-0.311-2.364c-0.57,0.512-1.487,0.622-2.312-0.023
    c-3.341-2.61-6.889-4.823-10.532-6.886c-0.118,0.993-0.615,1.961-1.637,2.675c-7.291,5.097-14.954,9.757-23.881,11.15
    c-4.337,0.676-8.218-0.072-12.482-0.676c-4.523-0.64-9.072-0.439-13.618-0.232c-10.858,0.494-26.764,1.415-31.411-11.002
    c-1.907-5.095-1.202-16.144-7.602-17.913c-8.276-2.287-16.864-1.833-24.629-6.048c-6.251-3.393-13.017-8.461-18.085-13.428
    c-4.527-4.436-6.255-9.981-8.2-15.77c-8.845-1.873-17.603-4.116-25.909-7.336c-11.616-4.503-23.05-9.414-32.524-17.748
    c-9.281-8.164-15.129-18.656-17.893-30.689c-2.443-10.636-3.141-21.891-0.356-32.473c-5.728-1.144-6.271,35.846,5.206,51.619
    c5.586,7.676,9.827,12.882,11.859,22.308c2.245,10.415,0.509,17.997,0.062,28.545c-0.065,1.543-0.998,2.858-2.508,3.295
    c-8.885,2.567-10.691-6.991-10.449-13.64c0.168-4.605,0.713-9.176,0.978-13.773c0.331-5.737-1.66-9.043-5.13-13.691
    c-9.787-13.111-14.779-33.846-13.939-49.891c0.386-7.376,1.659-14.406,5.013-21.066c2.635-5.232,8.379-9.741,7.915-15.85
    c-0.009-0.123,0.007-0.229,0.008-0.346c-0.535-1.126-1.044-2.224-1.47-3.277c-2.006-4.965-4.413-10.655-3.695-16.127
    c0.709-5.406,5.098-8.04,10.277-8.181c7.111-0.193,0.697-15.685-0.562-19.45c-1.163-3.481-1.31-7.188-2.432-10.665
    c-1.323-4.105-4.419-4.317-7.672-6.23c-4.726-2.778-7.609-11.711-7.368-16.873c0.144-3.089,0.852-5.934,3.016-8.248
    c2.454-2.623,0.037-6.008,1.7-9.068c3.026-5.566,8.55-6.493,13.913-8.751c0.613-0.258,1.139-0.251,1.576-0.082
    c0.618-0.447,1.363-0.855,2.261-1.216c0.668-0.268,1.309-0.44,1.931-0.55c0.106-0.306,0.294-0.593,0.58-0.837
    c2.118-1.805,4.288-2.106,6.298-1.503c5.613-0.378,9.043,4.18,11.615,8.681c1.9-0.079,3.754,0.067,5.354,0.657
    c0.592-0.602,1.374-0.999,2.283-0.975c5.321,0.136,9.975,2.047,12.876,6.654c2.998,4.76,0.094,8.673-1.141,13.247
    c-1.443,5.343,4.851,11.095,7.504,15.298c3.175,5.031,6.258,11.442,11.452,14.689c0.171,0.107,0.305,0.236,0.417,0.377
    c3.288-0.246,6.577-0.648,9.854-0.82c2.429-0.128,4.92-0.234,7.388-0.487c-0.292-0.564-0.47-1.199-0.546-1.802
    c-0.431-3.447,4.599-22.276,0.799-23.033c-3.096-0.617-5.139-1.058-7.08-3.676c-1.94-2.617-1.283-7.212-1.125-10.191
    c0.164-3.087-0.78-6.642,0.542-9.539c0.632-1.385,1.788-2.654,3.396-2.927c1.375-0.234,4.74,0.084,4.61-2.298
    c-0.456-8.36,5.896-8.324,12.095-7.896c0.885-2.481,2.645-4.346,6.033-4.774c6.772-0.856,9.309,2.761,10.495,7.502
    c0.771-0.796,1.877-1.194,3.212-0.734c0.706,0.243,1.348,0.511,1.984,0.904c0.772,0.477,1.362,1.282,1.62,2.168
    c0.158,0.035,0.335,0.068,0.54,0.093c1.004,0.123,1.852,0.31,2.786,0.696c1.732,0.716,3.49,2.097,4.576,3.714
    c0.658,0.264,1.244,0.721,1.638,1.389c2.653,4.502,3.193,11.604,1.479,16.861c0.14,0.38,0.217,0.783,0.213,1.195
    c-0.029,2.616-0.969,4.217-2.676,5.64c-0.028,1.216-0.009,2.43,0.101,3.644c0.336,3.701,0.907,7.384,1.412,11.065
    c0.477,3.473,1.471,8.046,0.762,11.889c3.899-1.208,8.002-1.985,12.012-2.165c0.142-7.791-1.599-19.768,5.582-24.127
    c4.477-2.717,11.201-1.839,16.063-1.184c2.745,0.37,5.421,0.985,8.088,1.644c-1.597-10.107-0.453-20.691,2.479-30.473
    c-5.751-2.798-7.101-13.804,1.064-13.772c4.321,0.017,7.926,2.092,9.15,6.361c1.027,3.582-2.128,6.02-5.227,6.684
    c-2.773,10.353-5.025,21.267-4.139,32.028c1.851,0.46,3.708,0.905,5.59,1.264c0.146,0.028,0.272,0.077,0.39,0.134
    c-1.334-21.343,25.023-40.561,45.053-32.304c4.936,2.035,9.164,6.074,11.521,10.867c2.151,4.372,6.29,11.681,3.067,16.353
    c0.082,0.284,0.124,0.6,0.093,0.966c-0.014,0.167-0.043,0.325-0.061,0.489c-0.089,4.947-0.829,10.073-2.547,14.696
    c-1.117,3.004-2.568,6.861-5.015,9.348c0.161,0.415,0.2,0.899,0.053,1.443c-0.551,2.042-1.585,3.567-2.89,4.972
    c2.052,1.37,3.907,3.39,4.479,5.384c0.313,0.13,0.602,0.319,0.836,0.592c3.635,4.234,5.762,8.449,6.712,12.953
    c2.19-2.735,4.879-4.551,7.928-3.901c7.139,1.522,15.404,13.397,14.81,20.687c-0.6,7.353-7.406,19.208-16.435,17.274
    c-4.133-0.885-7.162-4.536-9.032-8.822c-0.084,3.131-0.221,6.262-0.469,9.404C273.958,143.964,272.909,150.766,270.764,157.567z
     M277.771,115.876c-0.338,4.068,1.715,14.425,6.679,15.499c5.881,1.273,11.988-8.344,11.72-13.437
    c-0.164-3.116-1.687-6.393-3.382-8.948c-1.097-1.653-6.182-8.51-8.756-5.443c-2.768,3.298-5.14,7.489-6.282,11.722
    C277.778,115.457,277.789,115.657,277.771,115.876z M269.083,108.025c-7.718-1.308-15.828-2.801-23.031-5.875
    c-1.066-0.455-2.14-0.942-3.222-1.418c-3.302,8.389-5.787,17.042-8.848,25.514c-1.52,4.209-3.227,8.369-4.513,12.659
    c-1.025,3.42-1.521,7.104-2.616,10.483c0.831,0.199,1.641,0.388,2.366,0.602c3.084,0.912,6.187,1.789,9.334,2.46
    c4.259,0.909,15.157,3.977,17.819-1.224c2.924-5.712,3.18-12.455,4.776-18.579c2.1-8.055,6.975-15.081,8.039-23.46
    C269.151,108.8,269.125,108.411,269.083,108.025z M229.032,126.621c3.158-9.207,5.68-18.6,9.247-27.668
    c-0.481-0.154-0.964-0.299-1.45-0.422c-3.766-0.952-4.3,0.742-5.274,4.169c-2.172,7.645-4.851,15.232-6.71,22.947
    c-1.175,4.877-2.073,9.798-3.099,14.706c-0.301,1.442-1.94,5.746-0.438,6.911c0.823,0.639,1.875,1.083,2.994,1.44
    C222.79,141.866,226.954,132.68,229.032,126.621z M270.785,53.552c-4.319-0.391-9.636-3.595-12.907-3.766
    c-6.751-0.354-12.48,1.771-17.93,4.905c-0.054,2.624-0.798,4.86-2.018,6.565c8.222,3.699,16.44,7.844,24.449,11.96
    C264.83,66.458,269.504,60.678,270.785,53.552z M261.954,77.261c-9.202-2.778-17.674-9.064-25.883-14.088
    c-1.689,1.261-3.818,1.847-6.165,1.574c1.679,0.846,3.292,1.831,4.821,2.917c3.377,2.399,6.538,5.088,10.176,7.095
    c3.966,2.187,14.01,7.87,17.551,3.291C262.247,77.813,262.071,77.551,261.954,77.261z M227.096,39.728
    c5.339,0.587,9.926,4.47,11.867,9.478c8.258-4.164,17.105-6.027,26.626-2.548c3.083,1.127,7.664,3.225,5.916-2.092
    c-0.778-2.366-1.657-4.804-2.836-7.007c-2.249-4.2-5.574-7.885-10.275-9.305C246.962,24.799,234.739,30.524,227.096,39.728z
     M221.317,49.501c1.96-1.83,4.553-2.844,7.2-1.826c0.024,0.009,0.041,0.026,0.064,0.036c2.083-0.227,4.135,0.473,5.546,2.57
    c0.27,0.401,0.496,0.806,0.694,1.213c0.197-0.119,0.396-0.229,0.593-0.346c-1.079-5.319-5.011-7.869-9.934-9.336
    C223.759,44.216,222.343,46.808,221.317,49.501z M217.196,71.687c1.437,3.607,5.877,5.584,9.291,6.866
    c5.818,2.186,11.873,3.427,17.884,4.943c4.439,1.12,8.511,2.994,12.836,4.452c2.111,0.712,4.595,1.748,6.863,1.637
    c3.876-0.19-1.369-3.246-2.912-3.459c-0.762-0.105-1.237-0.632-1.462-1.275c-4.656,0.357-10.62-1.56-14.231-3.304
    c-6.063-2.928-10.833-7.509-16.678-10.748c-3.469-1.922-8.07-2.498-11.362-4.625C216.8,68.019,216.508,69.962,217.196,71.687z
     M211.961,19.853c0.238-0.121,0.518-0.19,0.854-0.168c3.581,0.23,4.052-5.613,0.599-6.36c-1.104-0.327-2.215-0.358-3.333-0.094
    C206.393,14.604,209.519,19.378,211.961,19.853z M199.271,71.419c0.326-0.049,0.67-0.061,1.034-0.011
    c0.831,0.113,1.547,0.352,2.224,0.661c0.043-0.028,0.089-0.053,0.131-0.082c1.801-1.217,3.425-2.631,5.115-3.993
    c1.38-1.112,2.778-2.439,4.287-3.552c0.468-1.689,1.112-3.359,1.872-4.944c-4.249-0.087-8.537-0.33-12.747-0.811
    c-0.465-0.053-0.943-0.112-1.423-0.171C199.066,62.795,199.622,67.166,199.271,71.419z M198.491,81.086
    c-1.271,0.942-2.6,1.926-4.136,2.369c-1.131,0.326-2.095-0.248-2.609-1.095c-0.133,0.077-0.268,0.145-0.399,0.229
    c-2.304,1.469-1.719,3.809-1.176,6.02c1.043,4.242,2.542,9.766,5.72,12.972c3.081,3.108,9.848-4.277,11.405-6.788
    c0.545-0.879,0.883-1.726,1.058-2.542c-0.399,0.14-0.798,0.281-1.189,0.456c-1.148,0.513-2.268,1.103-3.382,1.684
    c-2.408,1.256-4.121-1.971-2.07-3.541c1.596-1.221,4.129-2.096,6.337-2.208c-0.448-1.143-1.205-2.199-2.143-3.163
    c-1.8,1.047-3.675,2.171-5.686,2.711c-2.446,0.657-3.976-2.847-1.73-4.104c1.19-0.666,2.553-1.192,3.935-1.377
    c-1.071-0.689-2.176-1.299-3.222-1.821c-0.084-0.042-0.145-0.11-0.222-0.16C198.819,80.846,198.652,80.966,198.491,81.086z
     M195.127,114.983c-0.182,3.028-0.408,6.125-0.92,9.15c1.688-1.109,3.382-2.253,4.952-3.674c4.433-4.013,7.613-9.055,8.886-14.719
    c-0.343-0.629-0.502-1.369-0.352-2.157c0.062-0.326,0.123-0.646,0.185-0.964c-3.52,3.508-8.079,6.349-12.41,5.182
    C195.69,110.182,195.249,112.949,195.127,114.983z M246.784,228.642c-4.335-3.632-8.424-9.012-10.442-13.368
    c-2.401-5.181-4.802-11.01-6.361-16.528c-0.103,0.109-0.207,0.214-0.31,0.324c-2.037,2.166-3.887,4.212-6.664,5.362
    c-2.464,1.02-4.441-0.42-5.941-3.141c-0.314,3.411-0.766,6.806-1.317,10.162c-0.917,5.585-1.969,11.349-3.533,16.91
    c7.288,3.924,14.81,7.309,22.085,11.271c4.843,2.638,10.248,4.5,15.095,7.202c-1.181-5.437-1.686-11.024,0.374-15.557
    c-0.284-0.018-0.568-0.038-0.853-0.051C247.462,231.16,246.652,229.823,246.784,228.642z M234.383,184.24
    c0.763-3.27,0.92-7.425-0.326-10.636c-0.148-0.381-0.331-0.722-0.537-1.035c-1.576,0.298-3.161,0.644-4.776,1.088
    c-2.527,0.696-7.126,0.965-9.298,2.612c-1.814,1.375-1.325,5.418-1.202,7.441c0.069,1.139,2.358,17.199,3.86,16.092
    c2.63-1.937,4.755-4.924,7.014-7.281C231.366,190.176,233.624,187.493,234.383,184.24z M225.662,169.651
    c-13.886,0.014-27.834-4.92-39.889-11.73c-5.169,16.644-3.182,33.821-3.787,50.983c-0.017,0.49-0.123,0.918-0.289,1.291
    c3.802,0.866,7.607,1.705,11.107,3.413c1.857,0.906,1.83,2.879,0.854,4.212c2.126,1.487,4.03,3.26,5.803,5.174
    c1.906,2.059,3.987,4.109,5.797,6.298c1.898-6.384,3.929-12.698,5.262-19.281c1.521-7.509,2.549-15.03,3.187-22.638
    c-0.436-6.037,0.148-11.766,1.76-13.613c1.829-2.096,4.35-2.554,6.935-3.222C223.495,170.255,224.58,169.955,225.662,169.651z
     M198.297,235.003c1.521-0.422,3.056-0.788,4.645-1.023c-0.053-0.039-0.109-0.07-0.16-0.115c-2.381-2.094-3.995-5.22-5.808-7.8
    c-1.781-2.534-3.676-4.965-6.076-6.928C193.384,224.413,196.377,229.495,198.297,235.003z M187.359,218.362
    c-0.372-0.085-0.746-0.172-1.119-0.258c2.359,6.102,0.804,13.491,2.059,19.934c1.269-0.239,2.56-0.591,3.901-1.066
    c0.459-0.162,0.912-0.316,1.367-0.474C191.097,230.616,188.886,224.556,187.359,218.362z M183.036,217.337
    c-3.587-0.893-7.153-1.93-10.448-3.368c-5.559-2.426-10.887-6.269-16.962-7.178c-2.543,5.008-4.241,10.389-7.011,15.291
    c-0.038,0.068-0.078,0.136-0.116,0.204c9.051,5.528,18.261,11.815,28.471,14.926c1.872,0.571,3.642,0.929,5.382,1.092
    C181.321,231.494,182.891,224.234,183.036,217.337z M150.215,206.129c-1.62-0.35-3.235-0.913-4.827-1.264
    c-3.479-0.766-6.947-1.272-10.494-1.403c-0.178,0.199-0.389,0.364-0.629,0.49c0.032,5.578,0.485,10.995,1.197,16.621
    c0.439,3.465,1.045,7.149,1.22,10.796c2.46-4.715,5.224-9.277,7.816-13.917C146.59,213.712,148.127,209.789,150.215,206.129z
     M164.478,189.813c0.044,1.962-1.011,3.463-2.487,4.567c3.371,2.32,5.002,5.884,1.448,9.771c3.362,1.009,6.628,2.439,9.968,3.722
    c0.722,0.277,1.453,0.525,2.19,0.754c-0.704-16.823-2.584-38.201,7.161-52.934c-0.115-0.373-0.105-0.782,0.009-1.156
    c-0.157-2.164,0.758-4.359,1.223-6.469c0.479-2.173,0.94-4.339,1.511-6.487c-5.206,0.177-11.135-1.379-9.62-7.084
    c-4.382-3.671-9.19-6.475-13.958-9.951c-0.929-0.677-1.828-1.382-2.685-2.119c-3.401,3.547-6.607,7.238-9.826,10.964
    c-3.609,4.176-7.11,9.278-11.43,12.74c-7.284,5.837-16.445,4.623-25.165,6.223c-7.88,1.446-16.568,3.02-23.569-2.071
    c-8.094-5.886-13.61-14.344-19.019-22.599c-3.004-4.584-6.304-9.135-9.175-13.902c1.512,7.069,3.702,14.035,4.479,21.186
    c0.038,0.348-0.027,0.662-0.152,0.944c6.24,5.04,6.903,15.676,12.463,22.161c7.682,8.961,17.413,14.971,28.322,18.477
    c-3.032-3.282-5.121-7.545-0.869-11.089c4.14-3.451,10.302-1.904,12.439,2.82c2.996,0.161,6.124,1.337,7.895,3.552
    c2.252,2.816,2.002,6.227,0.123,8.682c4.036,0.491,8.107,0.78,12.049,0.657c5.713-0.179,11.877-1.43,17.51,0.057
    C159.691,182.383,164.365,184.738,164.478,189.813z M121.248,174.486c-1.901-1.303-4.206-1.848-6.492-1.56
    c-1.228,0.155-1.789,0.891-1.987,1.818c0.366,0.304,0.673,0.698,0.867,1.181c0.55,1.379,0.924,1.963,2.527,2.282
    c1.339,0.267,3.34,0.468,4.594-0.196C122.625,177.021,122.743,175.511,121.248,174.486z M112.515,169.284
    c-1.254-1.203-3.571-0.936-4.713,0.506c-0.908,1.147,0.269,2.922,0.84,3.996c0.18,0.338,0.369,0.675,0.558,1.013
    c0.225-0.242,0.483-0.429,0.767-0.55C109.844,172.24,110.608,170.377,112.515,169.284z M187.757,128.828
    c0.983-2.962,1.516-6.048,1.798-9.152c0.267-2.943,0.424-5.894,0.463-8.85c0.012-0.884-0.055-1.824-0.039-2.751
    c-4.919,1.386-13.015,0.387-15.697,0.406c-4.084,0.028-10.486,1.84-15.297,0.894c-0.229,0.274-0.518,0.528-0.899,0.741
    c-0.811,0.452-1.603,0.783-2.376,1.015c5.58,10.089,18.461,12.521,25.745,20.834c0.316-0.226,0.726-0.334,1.217-0.192
    c1.142,0.33,1.96,0.482,2.591,0.416c0.707-1.184,1.522-2.194,2.405-3.098C187.697,129.003,187.726,128.921,187.757,128.828z
     M182.124,77.992c1.757,0.144,3.475,0.405,5.112,0.829c0.033,0.009,0.055,0.03,0.087,0.041c1.62-1.021,3.251-1.328,4.949-1.473
    c-0.079-0.561,0.019-1.186,0.369-1.836c0.363-0.685,0.733-1.365,1.111-2.042c0.137-0.249,0.295-0.449,0.46-0.628
    c-0.04-4.725,0.707-10.232,2.429-14.737c-3.222-0.351-6.567-0.546-9.539,0.135C179.856,59.94,182.881,71.254,182.124,77.992z
     M158.682,89.821c-1.67,0.898-1.421,0.206-1.451,1.475c-0.027,1.185-0.028,2.335,0.081,3.516c0.111,1.2,0.35,8.386,1.893,8.747
    c5.313,1.241,11.536-0.612,17.026-0.573c3.026,0.021,6.07,0.09,9.093-0.102c1.273-0.081,2.635-0.093,3.865-0.468
    c0.016-0.005,0.04-0.013,0.067-0.022c-2.706-4.452-4.191-10.52-4.839-14.321c-0.278-1.63-0.379-3.625,0.077-5.394
    C175.805,84.387,166.399,85.673,158.682,89.821z M125.341,49.126c1.635,0.113,2.958,1.015,3.446,2.623
    c1.552,5.113,3.462,18.941-0.14,25.98c0.502-0.227,2.143-0.992,2.399-1.511c4.432-8.997,2.425-20.176,3.096-29.989
    c-4.313,0.797-9.143,1.493-12.096-1.185c-0.011,0.164-0.027,0.333-0.037,0.496C121.827,48.521,122.174,48.906,125.341,49.126z
     M64.357,48.082c1.722,2.031,3.431,4.151,5.112,6.322c0.535-3.315,1.389-7.613,1.35-11.073
    C69.153,45.223,66.655,46.781,64.357,48.082z M41.67,33.772c0.887,2.558,2.263,4.905,3.324,7.392
    c0.482,1.129,0.336,2.357-0.798,3.044c-1.888,1.144-9.372,4.918-7.143,8.091c2.227,3.171,6.23,0.021,9.356,1.73
    c5.736,3.136,6.074,11.646,7.296,17.326c2.081,9.675,3.188,19.927,6.566,29.266c3.061,8.461,8.472,15.624,13.368,23.079
    c5.002,7.616,10.176,17.319,18.106,22.31c7.794,4.906,16.169,2.153,24.622,0.856c3.853-0.591,7.897-0.231,11.701-1.096
    c5.255-1.195,8.23-4.565,11.634-8.489c5.339-6.156,10.317-12.61,15.963-18.48c-1.734-2.14-3.056-4.553-3.735-7.349
    c-5.947-0.81-10.104-7.853-10.926-14.037c-0.484-3.642-0.013-8.02,2.999-10.528c2.593-2.159,5.93-1.965,8.638-0.441
    c0.338-0.418,0.709-0.8,1.159-1.09c1.447-0.933,3.019-1.799,4.674-2.593c-2.345-5.172-3.952-11.067-6-16.162
    c-2.116-5.264-4.585-10.954-4.865-16.699c-0.202-4.146,0.503-7.836,4.548-9.713c0.937-0.435,2.093-0.636,2.938-1.243
    c1.746-1.254,1.11-5.706-1.467-5.763c-2.272-0.05-4.503,0.121-6.766-0.173c-0.892-0.116-1.934-0.571-2.1-1.599
    c-0.446-2.766-0.383-5.667-1.001-8.393c-0.616-2.716-4.358-6.958-7.249-3.66c-0.407,0.464-0.697,1.021-0.914,1.631
    c0.07,0.175,0.124,0.36,0.153,0.556c0.446,2.986,0.892,5.907-0.143,8.71c0.119,0.977,0.216,1.887,0.231,2.659
    c0.028,1.443-1.169,2.419-2.514,2.514c-1.323,0.094-2.703,0.151-4.04,0.365c-0.374,0.195-0.74,0.39-1.079,0.586
    c-0.632,0.367-1.251,0.503-1.836,0.496c-1.58,1.351-3.374,4.296-0.438,5.001c3.348,0.804,6.904-0.373,10.228-0.859
    c1.354-0.198,3.243,0.6,3.032,2.309c-1.392,11.277,0.846,23.734-4.785,34.097c0.111,0.678-0.102,1.412-0.823,1.898
    c-6.585,4.443-14.802,4.671-22.474,5.106c-7.087,0.402-14.737,2.114-21.76,0.369c-2.211-0.55-4.104-1.452-5.792-2.594
    c-0.831,0.226-1.806-0.005-2.505-0.947c-1.193-1.608-2.375-3.272-3.549-4.959c-1.41-1.802-2.727-3.74-4.078-5.687
    c-4.351-6.268-11.042-13.494-13.008-21.191c-0.795-0.47-1.221-1.576-0.342-2.279c0.086-0.069,0.184-0.147,0.287-0.23
    c0.031-0.027,0.062-0.055,0.096-0.077c3.024-2.432,12.204-10.09,3.512-10.293c-3.545-0.083-6.982,0.658-10.485,1.072
    c-1.028,0.122-1.887-0.79-2.186-1.665c-0.533-1.558-1.289-3.565-2.501-4.755c-1.041-1.367-2.46-1.936-4.257-1.706L41.67,33.772z
     M150.976,90.695c-1.338-0.121-2.603-0.004-3.287,0.856c-0.916,1.15-0.918,3.946-0.629,5.53c0.602,3.299,2.612,8.763,6.447,8.35
    C151.866,102.215,150.258,95.628,150.976,90.695z M33.393,39.568c0.571,1.663,1.423,3.131,2.332,4.624
    c1.355-1.143,2.933-2.118,4.522-2.962c-1.007-2.323-2.224-4.85-2.73-7.236c-0.095,0.145-0.217,0.279-0.382,0.39
    C35.454,35.519,32.537,37.077,33.393,39.568z M39.07,121.512c0.883,3.143,4.853,10.681,5.614,16.415
    c3.628-3.016,7.929-4.996,12.56-4.823c1.066,0.04,2.038,0.172,2.943,0.369c-2.763-8.207-2.792-17.809-2.67-26.261
    c-1.051-2.255-1.952-4.574-2.628-6.985c-3.12-11.139-5.391-22.791-7.483-34.163c-0.379-2.06-0.635-4.776-1.945-6.499
    c-1.659-2.183-5.397-0.381-7.591-0.66c-1.563-0.199-3.229-1.404-4.389-2.882c-0.097,2.169,0.379,4.386,1.433,6.224
    c0.892,1.554,0.548,0.418,2.868,1.181c3.881,1.276,6.246,3.975,7.666,7.763c3.402,9.072,2.447,18.937,3.676,28.377
    c0.647,4.967,2.84,9.416,0.196,14.146C47.192,117.519,37.776,116.907,39.07,121.512z M122.654,240.508
    c0.179,0.037,0.369,0.079,0.554,0.118c0.207,0.084,0.431,0.127,0.666,0.144c10.992,2.442,30.634,8.636,31.249-8.262
    c0.009-0.246,0.047-0.473,0.103-0.687c-2.892-2.078-5.691-4.295-8.386-6.632c-2.277,3.959-4.567,7.901-6.64,11.969
    c-0.039,0.013-0.078,0.017-0.117,0.029c-0.045,0.173-0.106,0.348-0.191,0.539c-0.252,0.562-1.075,1.031-1.686,0.967
    c-4.711-0.494-9.707-0.598-14.336-1.584c-0.108-0.023-0.207-0.064-0.297-0.118c-0.333,0.033-0.681-0.024-1.011-0.217
    c-0.766-0.448-1.153-1.584-0.619-2.36c0.054-0.078,0.107-0.156,0.161-0.233c-0.7-5.723-1.13-11.539-1.159-17.343
    c-0.292-4.757-0.562-9.515-0.836-14.282c-0.081-1.417,0.627-3.128,2.176-3.294c0.377-0.041,0.758-0.048,1.14-0.047
    c0.047-0.013,0.091-0.031,0.143-0.038c2.8-0.421,5.638-0.248,8.422,0.229c0.644-0.714,1.953-0.559,2.239,0.389
    c3.931-0.287,7.893-0.139,11.815,0.231c2.567,0.242,5.306,0.264,7.652,1.243c1.293-0.852,3.019,0.205,3.386,1.629
    c1.091,0.084,2.158,0.26,3.216,0.473c0.041-0.142,0.101-0.286,0.2-0.429c2.988-4.326-2.234-5.73-5.604-6.264
    c-2.388-0.378-2.288-4.244,0-4.706c0.492-0.099,0.985-0.199,1.477-0.298c4.553-1.594,0.286-4.793-2.506-5.185
    c-1.778-0.249-3.595-0.31-5.387-0.198c-3.097,0.193-6.164,0.628-9.255,0.879c-6.14,0.5-12.372-0.003-18.463-0.826
    c-13.37-1.806-26.323-5.625-37.001-14.154c-5.362-4.283-11.469-9.402-14.304-15.849c-2.117-4.815-3.583-15.263-9.468-16.853
    c-13.87-3.746-21.305,15.965-22.032,26.257c-0.916,12.976,1.678,27.734,8.936,38.778c7.276,11.071,19.248,18.49,31.243,23.582
    C92.495,234.204,107.44,237.378,122.654,240.508z M130.77,203.678c-0.292-0.072-0.582-0.147-0.874-0.221
    c-1.702-0.122-3.363-0.553-5.162-0.814c0.255,1.786,0.477,3.584,0.675,5.389c1.6-0.22,3.236-0.365,4.839-0.244
    C130.358,206.404,130.521,205.029,130.77,203.678z M130.292,221.27c-1.337-0.165-2.584-0.351-3.954-0.032
    c0.056,1.908,0.082,3.816,0.069,5.72c1.343-0.235,2.751-0.372,4.087-0.207C130.423,224.919,130.358,223.095,130.292,221.27z
     M125.79,211.911c0.154,1.786,0.289,3.575,0.385,5.368c1.269-0.496,2.63-0.724,3.955-0.574c-0.047-1.513-0.076-3.048-0.064-4.587
    C128.649,212.206,127.208,212.097,125.79,211.911z M126.175,234.147c1.28-0.093,2.635,0.039,3.637,0.091
    c0.348,0.018,0.695,0.044,1.042,0.064c-0.061-1.083-0.126-2.165-0.176-3.253c-0.816-0.042-1.63-0.225-2.453-0.254
    c-0.635-0.023-1.264-0.009-1.894,0.022C126.295,231.93,126.235,233.038,126.175,234.147z M261.392,295.638
    c-1.937-4.414-2.492-10.055-3.646-14.483c-1.909-7.325-3.396-14.711-5.149-22.064c-0.244-1.024-0.534-2.11-0.846-3.24
    c-0.327-0.081-0.655-0.22-0.973-0.456c-6.439-4.781-14.344-7.25-21.284-11.241c-6.319-3.634-12.662-7.604-18.373-12.227
    c-0.588,1.774-1.225,3.525-1.955,5.224c-0.628,1.462-2.008,1.765-3.242,1.367c-0.22,0.128-0.467,0.228-0.76,0.272
    c-5.536,0.821-10.302,3.853-15.728,4.933c-0.659,0.131-1.312,0.234-1.96,0.312c5.194,3.692,10.018,7.946,14.88,12.025
    c7.732,6.486,15.93,12.419,24.37,17.953c7.454,4.887,15.207,9.114,22.894,13.595C253.443,289.835,258.038,292.292,261.392,295.638z
     M273.128,302.028c-0.262-0.53-0.423-1.083-0.489-1.777c-0.049-0.512-0.024-1.007,0.028-1.504c-1.859,0.72-3.71,1.254-5.37,1.305
    c0.059,2.288,1.075,2.708,4.128,2.241C271.992,302.207,272.56,302.117,273.128,302.028z M281.048,300.529
    c-0.16-0.173-0.278-0.379-0.314-0.611c-0.002-0.01-0.006-0.021-0.007-0.031c-0.514-0.235-0.933-0.673-1.079-1.25
    c-0.258-1.018-0.306-2.001-0.271-3.005c-1.152,0.571-2.43,1.217-3.751,1.839c0.03,0.08,0.076,0.149,0.09,0.241
    c0.185,1.285,0.517,2.483,0.793,3.74c0.087-0.017,0.175-0.029,0.263-0.046C278.197,301.128,279.625,300.838,281.048,300.529z
     M287.973,298.747c-0.169-0.209-0.296-0.472-0.357-0.799c-0.122-0.653-0.253-1.306-0.44-1.943c-0.194-0.657-0.496-1.293-0.65-1.957
    c-0.078-0.338-0.033-0.674,0.091-0.979c-1.244,0.323-2.489,0.646-3.712,1.023c0.012,0.068,0.03,0.132,0.036,0.205
    c0.1,1.128,0.255,2.171,0.505,3.295c0.053,0.238,0.061,0.476,0.037,0.708c0.205,0.36,0.322,0.746,0.321,1.204
    c-0.001,0.139-0.026,0.272-0.061,0.401c1.187-0.293,2.369-0.604,3.537-0.963C287.47,298.881,287.712,298.816,287.973,298.747z
     M294.961,290.053c-1.794,1.042-3.726,1.725-5.7,2.297c0.021,0.023,0.045,0.041,0.065,0.067c1.04,1.27,1.616,2.929,2.118,4.476
    c0.1,0.307,0.122,0.593,0.084,0.854c2.254-0.761,4.412-1.889,4.265-3.67C295.68,292.715,295.332,291.378,294.961,290.053z
     M285.039,234.384c-1.137,0.725-2.545,1.129-4.231,1.076c-5.08-0.16-10.045-1.786-15.052-2.553
    c-4.029-0.617-8.058-1.074-12.109-1.384c-0.11,0.066-0.233,0.108-0.352,0.157c0.527,20.244,9.757,39.359,11.723,59.436
    c0.314,3.208,1.362,5.442,4.908,4.35c2.219-0.683,4.358-1.531,6.46-2.519c2.501-1.175,4.793-2.28,7.477-2.963
    c3.69-0.939,9.981-1.549,10.619-6.148c0.537-3.867,0.488-3.69-2.761-5.545c-2.234-1.276-4.448-2.375-6.921-3.127
    c-0.972-0.296-1.464-1.072-1.556-2.044C282.014,260.128,286.638,247.326,285.039,234.384z M283.93,227.093
    c-5.292-0.056-12.157,0.908-17.036-1.728c-1.989,0.81-3.991,1.585-6.017,2.302c4.662,0.476,9.308,1.145,13.861,2.073
    c3.374,0.688,9.087,2.718,9.189-2.537C283.928,227.168,283.929,227.127,283.93,227.093z M272.976,222.708
    c3.565-0.074,7.161-0.536,10.682-0.717c-0.21-1.057-0.566-2.025-1.16-2.726c-0.255-0.301-0.495-0.629-0.729-0.969
    C278.885,219.875,275.948,221.333,272.976,222.708z M263.351,181.325c-0.419-0.178-0.75-0.537-0.84-1.116
    c-0.601-3.861-0.502-7.575,0.028-11.259c-3.287,1.333-6.873,1.905-10.567,2.036c-4.565,0.162-8.871,0.313-13.175,0.795
    c2.118,5.742,1.779,13.092-1.322,18.232c-1.52,2.519-3.424,4.543-5.405,6.575c5.108,2.019,7.187,9.623,9.469,14.023
    c1.792,3.457,4.071,6.57,6.561,9.559c1.527,1.833,3.404,3.573,4.904,5.505c9.317-2.673,18.201-6.399,26.74-11.057
    c-0.878-1.868-1.682-3.807-2.598-5.412c-1.978-3.466-3.826-6.978-5.571-10.567C268.867,193.07,265.379,187.224,263.351,181.325z
     M269.377,124.237c-1.443,4.585-3.166,9.132-4.049,13.877c-1.027,5.521-1.869,16.04-7.963,18.699
    c-6.521,2.845-14.585,1.038-21.206-0.62c-3.591-0.899-7.142-1.926-10.669-3.052c-2.634-0.84-5.534-1.331-7.473-3.474
    c-1.688-1.865-1.308-4.676-0.853-6.925c1.098-5.425,2.098-10.89,3.389-16.272c1.349-5.624,3.619-10.957,5.018-16.528
    c0.977-3.89,1.742-7.85,3.15-11.615c2.308-6.175,8.681-4.547,13.695-2.696c8.582,3.167,16.95,5.643,25.916,7.339
    c-0.528-2.989-1.157-5.964-1.647-8.978c-5.932,2.212-13.706-2.577-19.145-4.43c-10.294-3.508-21.109-3.653-30.578-9.576
    c-3.762-2.353-5.364-5.637-5.632-9.198c-1.124,1.193-2.283,2.357-3.518,3.463c6.491,0.636,10.506,12.765,11.8,17.493
    c3.131,11.445,1.304,24.631-5.806,34.153c-6.247,8.366-15.017,13.679-25.194,15.359c0.305,2.799,0.249,5.574,0.1,8.382
    c-0.088,1.651,0.016,3.488-0.483,5.09c9.111,3.425,18.651,6.436,28.121,8.379c5.296,1.087,14.413,0.072,19.316,3.959
    c0.948-0.192,1.9-0.37,2.863-0.508c8.304-1.196,18,1.406,25.242-3.667c0.277-1.075,0.572-2.152,0.897-3.235
    c2.274-7.561,3.938-14.864,4.364-22.786C269.26,132.649,269.347,128.443,269.377,124.237z M81.848,95.421
    c-3.235,2.398-3.415,6.615-4.945,10.044c-0.889,1.993-0.261,4.407,2.052,5.043c2.07,0.569,4.46-1.062,4.346-3.311
    c-0.179-3.529-0.077-6.583,0.866-9.994C84.507,95.973,83.01,94.56,81.848,95.421z M130.597,101.307
    c-1.634-9.119-11.03-10.32-16.482-5.083c-5.357-4.352-14.097-1.748-14.694,6.808c-0.135,1.932,2.809,2.724,3.669,0.994
    c2.042-4.112,5.889-5.775,8.493-1.18c1.384,2.441,4.767,1.681,5.61-0.733c1.951-5.589,6.701-4.257,8.446,0.562
    C126.774,105.807,131.182,104.57,130.597,101.307z M120.382,138.3c-10.678,1.471-28.601,1.902-30.796-12.05
    c-0.778-4.947,1.602-11.516,6.461-13.684c5.323-2.375,10.917-1.632,16.48-2.448c0.087-0.062,0.162-0.13,0.261-0.186
    c7.345-4.183,24.015-2.596,26.575,7.1C142.715,129.723,131.321,136.793,120.382,138.3z M123.454,113.41
    c0.058,0.222,0.097,0.459,0.091,0.73c-0.531,5.932,6.427,5.62,7.427,0.393c0.028-0.145,0.073-0.27,0.118-0.396
    c-1.445-0.542-3.138-0.721-4.985-0.707C125.271,113.436,124.374,113.416,123.454,113.41z M111.655,114.722
    c0.184,0.312,0.296,0.691,0.28,1.153c-0.233,6.682,6.789,3.571,6.873-1.736c0.014-0.148,0.047-0.284,0.081-0.418
    c-1.159,0.213-2.26,0.557-3.209,1.155c-1.249,0.788-2.466,0.442-3.282-0.365C112.155,114.59,111.903,114.654,111.655,114.722z
     M98.195,132.19c-0.003,0.025-0.015,0.044-0.019,0.069c2.035,1.091,4.578,1.74,7.21,2.091c-0.074-0.233-0.126-0.484-0.123-0.771
    c-0.023-2.433-0.827-5.948-3.783-6.358C98.631,126.825,98.42,130.162,98.195,132.19z M100.442,116.797
    c0.009,0.042,0.032,0.077,0.036,0.12c0.604,6.021,6.881,3.883,7.029-1.041c0.004-0.123,0.026-0.233,0.045-0.345
    C105.111,115.884,102.623,116.146,100.442,116.797z M115.725,134.5c-0.156-0.275-0.271-0.581-0.316-0.921
    c-0.241-1.802-1.037-5.61-3.418-5.958c-1.952-0.285-2.173,2.446-2.1,4.384c0.063,0.517,0.109,1.041,0.121,1.573
    c0.01,0.432-0.086,0.797-0.245,1.107C111.955,134.744,114.028,134.653,115.725,134.5z M127.455,131.821
    c-1.565-6.464-6.195-2.278-7.461,2.097C122.399,133.483,125.034,132.817,127.455,131.821z M171.452,163.082
    c-0.193,0.149-0.397,0.276-0.598,0.408c0.003,0.017,0.009,0.03,0.012,0.047c2.075,13.954-20.019,11.188-21.236-0.732
    c-0.571-5.591,3.345-10.734,8.583-12.452c4.04-1.325,8.433-0.271,9.253,4.02c1.82-0.017,3.525,0.427,4.631,1.479
    C174.301,157.948,173.746,161.308,171.452,163.082z M168.599,158.969c-1.218-0.578-3.482-0.656-5.299-0.325
    c0.053,0.394-0.076,0.813-0.293,1.122c-0.035,0.236-0.378,0.471-0.442,0.684c-0.124,0.417-0.482,0.257-0.482,0.549v0.016
    c2.083-0.286,3.548-0.526,5.044-1.122c0.294-0.117,1.64-0.831,1.639-0.632C168.768,158.814,168.958,159.139,168.599,158.969z
     M166.323,165.406c-1.051,0.308-2.112,0.589-3.135,0.93c-1.162,0.388-2.093-0.068-2.667-0.839c-0.776-0.087-1.522-0.569-1.845-1.495
    c-0.49-1.408-0.377-3.184,0.368-4.498c0.16-0.282,0.345-0.561,0.562-0.809c-0.174-0.325-0.191-0.716,0.087-1.086
    c0.918-1.222,2.608-2.184,4.492-2.733c-0.773-2.399-4.274-1.195-5.909-0.135c-2.636,1.708-5.053,4.784-4.106,8.127
    c0.888,3.133,3.756,5.093,6.905,5.599C164.12,168.956,165.757,167.891,166.323,165.406z"/>
</svg>