<svg xmlns="http://www.w3.org/2000/svg" viewBox="0 0 320 320">
    <path d="M155.906,134.462c0.268-0.461,0.613-0.835,1.002-1.133c0.079-0.096,0.146-0.2,0.233-0.287
    c1.395-1.395,3.457-1.485,5.033-0.505c-0.003-0.001-0.005-0.004-0.008-0.007c0.006,0.004,0.014,0.008,0.019,0.011
    c0.009,0.007,0.015,0.011,0.022,0.015c0.099,0.064,0.207,0.118,0.303,0.189c0.796,0.596,0.932,0.642,1.482,1.482
    c0.202,0.305,0.345,0.639,0.432,1.004c0.447,1.273-0.006,2.559-0.549,3.702c-0.571,1.197-2.176,2.07-3.481,1.996
    c-1.013-0.058-1.594-0.207-2.488-0.653c-0.187-0.094-0.368-0.204-0.554-0.302C155.409,138.956,154.835,136.291,155.906,134.462z
     M150.921,161.083c0.155,1.204,0.299,2.161,0.932,3.234c0.692,1.172,1.737,1.947,3.014,2.375c0.823,0.275,1.628,0.16,2.451,0.008
    c0.853-0.155,1.43-0.691,2.083-1.197c0.845-0.653,1.369-1.967,1.652-2.946c0.612-2.109-0.719-4.381-2.814-4.957
    c-0.505-0.14-1.012-0.166-1.501-0.109c-0.554-0.276-1.159-0.439-1.789-0.439c-1.064,0-2.095,0.43-2.848,1.181
    C151.427,158.907,150.796,160.088,150.921,161.083z M146.373,150.949c1.631,1.081,3.912,0.762,5.279-0.578
    c0.658-0.647,0.86-1.167,1.189-2.01c0.08-0.207,0.116-0.43,0.138-0.658c0.007-0.019,0.009-0.038,0.017-0.06
    c0.392-0.938,0.083-2.268-0.407-3.103c-0.528-0.903-1.402-1.578-2.41-1.854c-0.16-0.044-0.325-0.058-0.488-0.083
    c-0.442-0.166-0.91-0.262-1.389-0.262c-2.105,0-3.715,1.61-3.978,3.613c-0.075,0.397-0.154,0.796-0.152,1.205
    C144.172,148.79,145.056,150.076,146.373,150.949z M136.394,162.75c0.945,0.552,2.296,0.792,3.35,0.443
    c1.118-0.371,1.842-0.942,2.514-1.928c0.009-0.014,0.016-0.023,0.023-0.035c0.497-0.685,0.783-1.511,0.783-2.364
    c0-0.808-0.251-1.595-0.698-2.26c-0.196-0.517-0.49-1-0.888-1.395c-1.388-1.389-3.451-1.488-5.025-0.511
    c0.012-0.011,0.028-0.02,0.039-0.03c-0.02,0.016-0.044,0.03-0.063,0.044c-0.007,0.003-0.011,0.008-0.017,0.011
    c-0.437,0.302-0.927,0.537-1.274,0.959c-0.683,0.817-1.312,1.845-1.227,2.973c0.062,0.797,0.177,1.659,0.684,2.319
    C135.155,161.704,135.577,162.271,136.394,162.75z M165.209,59.568c2.451,0.525,3.658,1.145,4.336-1.31
    c0.332-1.201,1.602-3.577-0.653-4.511c-0.85-0.351-3.491-1.164-3.491-1.164c-2.959-0.831-3.846,1.012-3.977,3.722
    C161.293,59.019,162.284,58.94,165.209,59.568z M171.22,161.729c-0.59,0.726-0.952,1.644-0.952,2.577c0,1.066,0.427,2.1,1.18,2.851
    c0.56,0.564,1.221,0.885,1.947,1.053c-0.019-0.003-0.034-0.004-0.049-0.008c0.027,0.005,0.056,0.014,0.086,0.018
    c0.048,0.012,0.097,0.022,0.147,0.03c0.431,0.092,0.864,0.218,1.306,0.171c1.176-0.12,1.065-0.109,2.132-0.579
    c0.628-0.276,1.318-1.01,1.657-1.603c0.605-1.061,0.798-2.277,0.461-3.464c-0.2-0.702-0.449-0.966-0.752-1.508
    c-1.077-1.912-3.643-2.542-5.515-1.444C172.091,160.275,171.541,160.956,171.22,161.729z M165.835,148.184
    c0,0.7,0.065,1.382,0.203,2.073c0.238,1.19,1.161,2.414,2.196,3.021c1.395,0.817,2.914,0.766,4.313,0.014
    c0.843-0.45,1.453-1.175,1.453-1.987c0-0.003,0,0.696,0,0.696s0.479,0,0.478,0c0.023,0,0.054-0.456,0.079-0.509
    c0.335-0.585,0.545-1.397,0.545-2.124c0-1.065-0.428-2.183-1.181-2.937c-0.276-0.276-0.603-0.533-0.947-0.713
    c-0.743-0.915-1.86-1.541-3.109-1.541C167.669,144.177,165.834,145.987,165.835,148.184z M162.626,73.371
    c1.154,0.518,2.197,0.702,3.515,0.632c2.183-0.114,2.939-1.386,3.124-3.452c0.18-1.969-0.547-3.165-2.316-3.767l-1.805,0.242
    c-2.216-0.056-4.302,1.425-4.332,3.722C160.792,72.355,161.158,72.714,162.626,73.371z M161.325,90.147
    c0.965,1.06,2.419,1.174,3.756,1.514c2.224,0.566,3.979-0.189,4.077-2.641c0.044-1.1,0.112-2.549-0.407-3.539
    c-0.347-0.669-1.145-1.134-1.81-1.482l-1.209-0.403c-1.074,0-2.709-0.34-3.628,0.215c-0.356,0.214-1.395,1.416-1.597,1.787
    c-0.222,0.408-0.295,0.86-0.201,1.423C160.48,88.024,160.645,89.398,161.325,90.147z M84.015,198.365
    c-1.343-7.254-2.657-28.481,5.388-40.306c8.047-11.822,16.645-23.646,25.243-34.125c8.6-10.479,18.005-29.29,18.811-40.037
    c0.806-10.748,8.06-38.694,12.897-43.8c4.836-5.105,12.347-11.821,20.154-10.211c8.42,1.738,19.614,5.105,24.18,29.827
    c4.569,24.719,3.226,38.962,6.182,46.484c2.955,7.525,13.533,25.796,25.844,49.979c12.311,24.184,3.981,47.964-4.888,60.123
    c-8.866,12.16-25.527,19.952-51.319,20.219c-25.796,0.269-45.948,0-62.07-10.343C88.314,215.833,85.359,205.622,84.015,198.365z
     M218.757,197.419c-8.273-5.163-29.54-12.002-66.551-14.197c-31.048-1.84-52.538,8.225-61.04,13.139
    c0.058,0.177,0.101,0.354,0.158,0.532c7.071,21.796,19.352,29.446,58.798,30.591c39.444,1.149,48.371-4.205,55.07-9.558
    C209.992,214.089,215.742,205.128,218.757,197.419z M90.061,188.074c6.997-4.035,23.755-10.423,60.609-11.474
    c42.361-1.213,62.4,9.559,69.242,14.436c0.279-1.14,0.447,0.004,0.492-0.948c0.608-12.693-2.957-30.321-8.503-41.414
    c-5.547-11.092-20.706-31.796-22.185-46.218c-1.48-14.418-1.108-64.335-23.66-65.812c-22.557-1.48-24.775,49.914-34.388,70.988
    c-9.614,21.077-28.841,37.345-31.428,44C97.951,157.517,87.586,170.151,90.061,188.074z M163.014,277.634
    c-9.398-0.335-11.824,4.299-11.554,7.254c0.269,2.955,2.417,7.254,11.554,7.254c9.136,0,10.209-4.297,10.209-7.254
    C173.224,281.933,170.535,277.905,163.014,277.634z M288.126,231.844c-2.875,13.196-28.464,31.134-36.37,33.027
    c-4.303,1.03-7.922,11.166-18.58,18.409c-8.93,6.068-25.166,9.335-28.071,10.961c-14.904,8.352-29.109,18.371-50.026,15.137
    c-20.583-3.178-41.76-22.982-64.616-24.756c-12.102-0.938-30.052-7.575-43.529-14.827c-13.476-7.25-21.683-34.644-8.449-53.495
    c13.233-18.851,21.316-37.727,27.451-67.306c8.428-40.634,38.096-56.907,47.85-86.753c10.449-31.97,14.297-51.741,58.67-52.24
    c21.118-0.237,37.484,19.654,42.234,45.772c5.206,28.629,18.893,53.4,34.576,83.163c6.222,11.805,4.057,32.482,11.285,46.653
    C271.549,207.144,289.744,224.421,288.126,231.844z M77.027,214.488c6.45,12.092,17.736,24.856,32.244,27.612
    c14.512,2.754,37.759,5.936,49.512,5.708c13.367-0.26,46.416-0.401,55.282-5.708c8.867-5.309,18.811-24.118,22.841-34.463
    c4.031-10.345,3.762-35.334,2.418-42.588c-1.344-7.257-18.81-37.352-23.647-47.295c-4.837-9.942-8.33-28.482-8.867-40.304
    c-0.536-11.824-9.403-41.869-18.003-47.805c-8.599-5.936-37.348-18.565-51.588,3.199c-14.24,21.767-14.239,61.266-28.482,75.238
    c-14.241,13.972-32.515,35.738-33.991,55.354C73.267,183.05,70.58,202.398,77.027,214.488z M46.934,233.685l24.183,11.034
    c0,0-1.209-9.674-2.417-16.929c-1.21-7.256-2.016-20.154-2.016-20.154L46.934,233.685z M74.131,264.871l-3.568-14.914L46,242.099
    v13.098L74.131,264.871z M168.657,268.095c-10.346-2.419-21.227,0.672-23.378,9.002c-2.149,8.329-4.835,16.929,9.405,20.959
    c14.24,4.03,26.6-2.689,27.674-10.212C183.433,280.322,179.001,270.514,168.657,268.095z M241.205,208.444
    c0,0-6.445,33.857-24.584,39.094c-18.139,5.241-93.509,8.061-111.646-0.805c-18.138-8.867-30.23-20.154-30.23-20.154
    s1.029,31.915,10.883,41.917c13.954,14.17,51.59,12.093,51.59,12.093s1.613-17.735,24.184-17.735
    c22.568,0,29.017,14.915,29.017,14.915s28.615,7.256,43.126-20.152C248.057,230.208,241.205,208.444,241.205,208.444z
     M269.418,234.239l-20.152,7.658l-3.225,8.061l19.75-6.045L269.418,234.239z M271.837,226.985l-22.572-28.619
    c0,0,2.417,9.271,2.417,17.333c0,8.061-2.417,18.541-2.417,18.541L271.837,226.985z"/>
</svg>