<svg xmlns="http://www.w3.org/2000/svg" viewBox="0 0 320 320">
    <path d="M300.125,76.668c-2.486-21-19.497-50.387-38.452-59.762c-14.887-7.362-34.787-12.06-49.725,3.1l-88.19,90.974l-6.9-45.9
    l-22.825,4.887l9.458,60.737v0c-1.859,33.734-9.237,69.904-15.147,90.367c-7.541,26.112-21.351-7.481-26.09-26.032
    C54.964,166.504,41.274,79.726,41.274,79.726l-21.715,6.008c0,0,9.473,69.266,18.039,108.266h-0.002
    c3.457,16,9.177,34.092,14.255,44.15c11.999,23.756,42.918,32.191,53.84,5.831c4.854-11.715,10.31-27.093,11.31-41.907v-0.01
    l7.031,30.36l6.74,23.577h23.379l-14.009-55.211c0,0,26.947,38.603,41.534,48.523c16.47,11.2,39.08,2.664,47.904-19.131
    c3.617-8.934,6.227-17.28,8.133-25.46l-23.816-7.451c-2.163,7.918-4.952,16.335-8.246,22.425
    c-6.146,11.364-15.128,7.355-22.406-0.708c-15.149-16.778-39.641-49.036-39.641-49.036s62.856-22.81,139.802-54.224
    C297.208,110.094,301.756,90.456,300.125,76.668z M252.06,98.004l-122.082,51.37l-1.976-11.423l87.427-86.461
    c3.982-3.94,10.9-6.577,15.439-5.259c16.211,4.71,26.849,24.612,27.381,41.053C258.384,91.407,257.282,94.824,252.06,98.004z
     M239.231,285.944c-0.644,12.071-11.027,21.367-23.203,20.718c-9.625-0.513-17.497-7.091-20.048-15.778
    c-32.394,4.116-64.753,8.194-100.153,6.026c-2.257,7.926-9.351,13.499-17.466,13.066c-9.518-0.508-16.781-9.086-16.242-19.198
    c0.539-10.114,8.677-17.94,18.196-17.432c3.425,0.183,6.539,1.499,9.123,3.471c37.349,2.394,74.605-0.836,111.796-7.182
    c4.292-4.445,10.441-7.046,17.126-6.689C230.535,263.595,239.875,273.87,239.231,285.944z"/>
</svg>