<svg xmlns="http://www.w3.org/2000/svg" viewBox="0 0 320 320">
    <path d="M123.531,256H192v32h-32.236c-6.004,0-10.87,4.996-10.87,11s4.867,11,10.87,11h32.61h21.74h32.61 c6.004,0,10.87-4.996,10.87-11s-4.867-11-10.87-11H214v-32h68.958c15.943,0,23.153-11.842,16.024-26.101l-22.513-45.114 c4.234-4.762,4.843-12.097,0.773-20.237l-22.513-45.049c4.234-4.762,4.843-12.064,0.773-20.205L216.208,20.7 c-7.13-14.259-18.797-14.262-25.926-0.003l-39.294,78.587c-4.07,8.14-3.46,15.431,0.773,20.193l-22.513,45.026 c-4.07,8.14-3.46,15.431,0.773,20.194l-22.513,45.202C100.377,244.158,107.588,256,123.531,256z"/>
    <path d="M115.38,119.949L92.66,74.466c5.504-1.451,7.607-6.546,4.603-12.556l-23.27-46.552c-3.565-7.13-9.399-7.135-12.963-0.005 l-23.27,46.538c-3.005,6.01-0.902,11.082,4.603,12.533l-22.72,45.527c-3.565,7.13,0.04,13.05,8.011,13.05H64v18H45.771 c-2.002,0-3.623,1.499-3.623,3.5s1.622,3.5,3.623,3.5h18.117h7.247h18.117c2.002,0,3.623-1.499,3.623-3.5s-1.622-3.5-3.623-3.5H71 v-18h36.367C115.339,133,118.944,127.079,115.38,119.949z"/>
    <path d="M150.708,43.085l-12.543-30.214c-1.533-3.679-4.041-3.735-5.574-0.056l-12.543,30.298 c-1.533,3.679,0.473,6.886,4.459,6.886H134v6.797c0,1.001,0.5,1.812,1.5,1.812s1.5-0.811,1.5-1.812V50h9.247 C150.233,50,152.24,46.764,150.708,43.085z"/>
</svg>