<svg xmlns="http://www.w3.org/2000/svg" viewBox="0 0 320 320">
    <path d="M74.323,141.577c-0.581-4.138-0.728-7.959-0.576-12.137c0.03-0.829-0.464-1.333-1.077-1.498
    c-0.483-0.758-1.413-1.278-2.368-1.036c-2.978,0.754-5.641,3.459-7.756,5.746c-1.546,0.054-2.384,2.648-0.764,3.466
    c3.212,1.62,5.622,4.343,8.203,6.786C70.743,145.659,74.711,144.343,74.323,141.577z M67.908,133.186
    c0.609-0.415,1.256-0.772,1.9-1.131c-0.282,1.528-0.425,3.131-0.443,4.729c-1.02-0.848-2.049-1.67-3.158-2.397
    C66.762,133.976,67.329,133.58,67.908,133.186z M303.554,230.303c-2.518-11.557-10.177-22.018-17.822-30.737
    c-6.629-7.56-16.281-17.02-26.249-20.417c-0.104-0.183-0.227-0.361-0.35-0.539c4.536-2.22,2.79-6.56-0.123-9.469
    c1.62-0.538,3.055-1.659,3.443-3.403c0.055-0.246,0.078-0.488,0.087-0.727c0.158-0.087,0.315-0.192,0.465-0.338
    c4.199-4.087,8.839-5.45,14.323-6.837c3.098-0.784,6.097-2.648,6.727-5.967c1.206-6.346-8.009-6.938-12.104-7.08
    c-5.799-0.201-11.759,0.746-17.399-1.015c-1.6-0.499-2.612-1.581-1.864-3.282c0.715-1.626,3.38-1.661,4.828-1.723
    c4.149-0.176,8.359,0.948,12.36,1.908c8.229,1.976,30.992,6.228,28.736-8.428c-0.601-3.902-5.406-5.302-5.701-9.25
    c-0.303-4.063,0.198-7.384-1.66-11.188c-1.876-3.841-6.351-6.339-9.765-8.583c-5.8-3.812-9.898-7.195-10.392-14.562
    c-0.03-0.45-0.146-0.842-0.322-1.179c0.229-0.138,0.459-0.285,0.687-0.42c7.163-4.252,14.881-7.638,21.891-12.118
    c5.118-3.27,9.249-7.829,9.537-14.127c0.307-6.728-5.22-12.449-10.821-15.155c-7.067-3.415-15.343-3.391-22.819-5.445
    c-5.233-1.438-10.27-3.278-15.648-4.154c-5.816-0.948-11.617-1.885-17.409-2.982c-21.976-4.163-44.577-6.049-66.225-11.654
    c-0.356-0.092-1.425-0.533-1.68-0.8c-3.464-3.623-7.831-6.511-12.264-8.326c-12.809-5.243-30.042-4.386-40.432,5.413
    c-0.662,0.625-0.772,2.407-1.347,4.463c-1.449,5.18-0.622,14.531,3.537,18.864c-2.743,0.94-5.35,2.267-8.12,3.571
    c-7.015,3.303-15.651,2.942-23.156,4.451c-0.808,0.163-1.554,0.948-1.738,1.738c-1.975,8.464-2.142,17.084-0.29,25.583
    c0.01,0.047,0.03,0.086,0.043,0.13c-0.534,0.128-0.91,0.445-1.134,0.854c-20.172,12.127-37.562,31.196-49.511,51.214
    c-0.149,0.25-0.237,0.501-0.298,0.75c-0.305,0.255-0.497,0.63-0.444,1.121c1.619,15.143,3.13,30.182,3.523,45.42
    c0.394,15.26,0.173,30.539,0.118,45.802c-0.001,0.315,0.047,0.598,0.133,0.85c-0.011,0.023-0.025,0.043-0.035,0.067
    c-0.64,1.575-0.995,3.232-1.355,4.887c-3.661,4.826-6.379,10.454-9.322,15.688c-4.946,8.795-9.563,17.773-13.152,27.217
    c-2.021,5.319-2.655,10.366,1.089,15.022c7.052,8.77,23.249,8.108,33.278,9.521c8.939,1.259,17.508,4.429,26.604,4.618
    c6.535,0.136,13.15-2.755,18.269-7.006c1.476,1.629,3.555,1.869,6.464-0.326c0.181-0.136,0.327-0.288,0.457-0.446
    c1.171-0.31,2.366-1.089,3.519-2.474c3.135-3.765,3.777-10.314,2.421-15.844c0.863-0.205,1.711-0.458,2.546-0.758
    c2.511,9.244,7.457,19.805,13.473,13.215c0.364-0.399,0.545-0.833,0.59-1.261c0.057-0.044,0.113-0.08,0.169-0.127
    c0.866-0.709,1.438-1.775,1.843-2.956c3.085,7.2,6.771,14.156,12.468,19.641c8.603,8.282,20.931,7.776,32.072,7.904
    c14.206,0.163,28.54-1.313,41.957-6.154c4.127-1.489,8.155-3.254,12.169-5.039c8.607-0.756,16.469-0.212,24.824-3.09
    c7.592-2.615,16.18-6.517,22.516-11.478c6.006-4.702,10.335-11.564,15.38-17.239c5.118-5.757,9.45-12.261,13.803-18.618
    C302.811,242.743,305.047,237.159,303.554,230.303z M286.626,207.727c3.447,4.27,6.481,8.894,8.81,13.836
    c-8.05,5.246-15.106,11.842-22.812,17.56c-4.804,3.565-9.784,6.904-14.437,10.629c-0.411-0.156-0.892-0.155-1.389,0.097
    c-2.886,1.464-5.608,3.313-8.748,4.135c-2.941-4.018-6.196-7.887-9.493-11.601c6.297-7.901,15.257-13.746,23.448-19.42
    C269.953,217.458,278.775,213.293,286.626,207.727z M280.279,200.677c1.098,1.1,2.166,2.243,3.216,3.405
    c-3.981,2.627-8.275,4.738-12.432,7.071c-4.902,2.752-9.428,6.223-14.016,9.459c-7.777,5.486-15.446,11.328-20.698,19.308
    c-1.852-2.047-3.695-4.05-5.478-6c-2.844-3.11-5.757-6.229-8.761-9.277c9.266-4.111,17.288-10.622,25.323-16.701
    c7.344-5.556,16.704-9.412,23.275-15.931C274.089,194.677,277.242,197.633,280.279,200.677z M259.349,184.779
    c2.367,1.341,4.762,2.626,7.055,4.126c-6.102,5.528-14.075,9.173-20.577,14.201c-8.577,6.633-16.483,14.074-26.174,19.083
    c-4.961-4.875-10.192-9.492-15.79-13.515c11.738-8.064,23.353-16.299,35.162-24.263C245.237,185.176,254.81,192.368,259.349,184.779
    z M158.159,221.955c-1.892,0.223-3.789-0.125-5.141-1.19c-2.786-2.195-4.328-8.011-3.346-12.107
    c0.728-1.095,1.411-2.227,2.016-3.424c0.31-0.239,0.642-0.45,1.021-0.602c0.417,0.803,1.182,1.399,2.239,1.35
    c0.789-0.037,1.577,0.037,2.348,0.192C157.286,211.281,157.039,216.849,158.159,221.955z M151.666,226.063
    c2.745,1.478,6.014,1.602,9.053,0.75c0.658,0.114,1.348-0.122,1.786-0.633c4.022-1.703,7.318-5.137,7.87-9.412
    c0.384-2.968-0.33-5.896-1.759-8.436c2.949,1.76,5.76,3.759,8.417,5.562c8.227,5.582,14.986,12.783,21.929,19.83
    c6.941,7.045,15.05,12.847,22.65,19.139c0.973,0.805,2.008,1.579,3.064,2.348c-2.623,0.306-5.039,1.51-6.68,3.925
    c-0.389,0.572-0.434,1.221-0.264,1.824c-3.808,3.872-5.319,9.214-1.158,14.078c1.514,1.77,3.441,3.128,5.554,4.027
    c-9.059,3.548-18.346,5.787-28.101,7.275c-9.201,1.403-18.568,2.083-27.751,3.695c1.146-2.989,0.537-6.517-1.803-9.377
    c-3.512-4.294-11.073-6.244-15.411-2.18c-0.326,0.306-0.526,0.65-0.64,1.006c-1.192,1.079-2.123,2.338-2.711,3.693
    c-0.946-1.672-1.767-3.411-2.479-5.221c0.228-0.452,0.283-0.926,0.204-1.376c1.002-0.853,1.827-2.039,2.312-3.578
    c1.134-3.6,1.512-9.358,0.33-13.916c0.323-0.046,0.636-0.207,0.893-0.535c3.81-4.857,4.351-11.24,3.28-17.157
    c-0.239-1.321-1.252-1.856-2.298-1.808c-2.656-4.88-4.876-9.658-9.515-13.022c-0.148-0.107-0.3-0.203-0.45-0.305
    c1.544-4.337,4.18-7.822,6.906-11.256C145.559,219.585,147.849,224.007,151.666,226.063z M160.454,207.377
    c3.235,1.871,5.437,5.419,4.554,9.443c-0.333,1.515-1.377,2.761-2.745,3.658C161.599,216.117,161.071,211.75,160.454,207.377z
     M226.895,260.244c0.085,0.002,0.169,0.018,0.254,0.024c0.815,5.056,0.579,10.332,1.576,15.348
    c-2.965,0.259-6.211-1.051-8.306-2.882c-3.639-3.18-2.47-6.944,0.324-9.787c0.242-0.067,0.483-0.177,0.713-0.352
    C223.254,261.221,224.526,260.187,226.895,260.244z M159.267,290.435c-0.056-1.457-0.348-2.933-0.543-4.364
    c-0.172-1.263-0.344-2.539-0.591-3.796c0.707,0.35,1.386,0.811,2.014,1.383C162.703,285.982,162.015,288.705,159.267,290.435z
     M155.151,291.145c-1.64-0.287-3.232-1.119-4.364-2.175c-2.184-2.039-1.898-4.285-0.566-6.214c0.602,0.191,1.28,0.152,1.94-0.26
    c0.819-0.512,1.659-0.776,2.497-0.872c0.067,1.654,0.209,3.306,0.275,4.961C154.994,288.107,154.956,289.637,155.151,291.145z
     M142.62,239.808c-11.236,2.355-21.758,7.103-32.794,10.227c-9.068,2.567-18.468,4.59-25.655,10.782
    c-0.289-0.101-0.604-0.142-0.923-0.132c-2.324-4.182-4.559-8.413-7.265-12.355c9.198-3.082,18.25-6.541,27.717-8.766
    c10.219-2.401,19.217-7.007,29.048-10.471c0.308,0.124,0.617,0.245,0.924,0.378C138.192,231.437,140.449,235.648,142.62,239.808z
     M59.999,274.011c-0.817,0.64-0.925,1.533-0.622,2.321c-1.249,2.139-1.602,4.733-0.792,7.275c0.049,0.154,0.11,0.294,0.166,0.44
    c-7.358-1.653-14.579-4.256-22.023-5.12c0.803-0.585,1.515-1.263,2.084-2.01c2.484-3.266,2.296-7.979-0.308-11.112
    c-2.471-2.972-6.319-3.209-9.384-1.486c1.693-4.269,3.86-8.26,7.051-11.83c4.268-4.774,9.464-9.35,14.882-13.068
    c-0.163,2.293,0.544,4.6,2.192,6.269c1.811,1.835,4.387,2.232,6.871,2.006c1.284,5.436,4.075,10.917,7.393,15.929
    c0.21,2.997,0.502,6.018,0.929,9.009C65.747,271.522,62.474,272.072,59.999,274.011z M65.489,283.399
    c-1.447,0.774-2.536-0.245-2.97-1.591c-0.455-1.411-0.152-2.877,0.543-4.138c1.661-0.971,3.537-1.178,4.75,0.618
    C69.282,280.463,67.368,282.394,65.489,283.399z M34.659,273.577c-1.121,1.94-4.14,2.968-6.071,1.772
    c-1.811-1.122-1.277-3.63-0.474-5.378c0.675,0.326,1.484,0.34,2.265-0.19c0.818-0.555,1.742-1.187,2.676-1.215
    c0.545-0.016,0.928,0.258,1.437,0.796C35.469,270.396,35.425,272.25,34.659,273.577z M55.367,239.688
    c0.151-1,0.254-1.203,0.642-1.872c0.246-0.425,0.481-0.671,0.956-0.926c-0.3,0.162,0.35-0.046,0.169-0.035
    c0.048-0.003,0.166,0.007,0.253,0.014c0.14,0.033,0.279,0.069,0.414,0.114c-0.424-0.141,0.666,0.43,0.56,0.346
    c0.432,0.346,0.822,0.759,1.215,1.15c-0.271,1.841-0.282,3.724-0.08,5.629c-1.24-0.077-2.416-0.411-3.21-1.162
    c-0.467-0.441-0.682-0.936-0.849-1.569c-0.13-0.494-0.083-0.193-0.104-0.846C55.327,240.329,55.425,239.306,55.367,239.688z
     M67.284,251.868c-0.068,0.29-0.118,0.633-0.154,0.992c-3.229-7.104-4.42-14.593-0.979-21.298c0.085-0.029,0.174-0.045,0.255-0.082
    c0.317,0.291,0.758,0.428,1.268,0.246c2.601-0.931,5.087-2.108,7.54-3.354c1.976,4.131,1.832,9.768,2.128,14.203
    c0.013,0.188,0.054,0.354,0.108,0.509c-1.881,0.656-3.764,1.304-5.656,1.917c-0.79,0.256-1.49,1.038-1.654,1.884
    C68.667,248.151,67.727,249.986,67.284,251.868z M85,181.745c0.179-5.288,0.584-10.583,0.585-15.874c0-1.675,0.058-3.35,0.037-5.025
    c-0.01-0.768-0.052-1.533-0.078-2.3c-0.007-0.216-0.005-0.372,0.001-0.498c0.004-0.024,0.016-0.045,0.019-0.069
    c0.02-0.076,0.027-0.153,0.035-0.229c0.758-0.11,1.526-0.223,2.295-0.348c0.006,0.112,0.001,0.22,0.019,0.336
    c1.708,10.965,3.723,22.215,4.012,33.326c0.189,7.261-2.428,18.452,1.666,25.136c-1.607,0.169-3.254,0.462-4.975,0.948
    c-1.184,0.334-2.341,0.749-3.48,1.215c0.072-0.233,0.127-0.48,0.143-0.757C85.965,205.707,84.595,193.676,85,181.745z
     M82.779,153.364c-0.045,0.005-0.092,0.009-0.137,0.015c3.873-5.712,5.659-11.709,4.494-18.904
    c-1.265-7.814-6.429-14.857-10.936-21.357c9.309-3.104,17.606,10.222,19.861,17.981c0.2,0.686,0.375,1.385,0.536,2.089
    c0.016,0.171,0.047,0.34,0.106,0.501c0.871,4.056,1.091,8.338,0.349,12.389C95.887,152.422,87.95,152.745,82.779,153.364z
     M77.143,152.029c-0.395,0.5-0.582,1.04-0.612,1.569c-9.045-0.414-18.078-4.261-19.089-14.476
    c-0.781-7.889,5.272-21.43,13.378-24.726C78.738,126.187,87.655,138.72,77.143,152.029z M72.66,190.849
    c0.414-10.924,1.325-21.844,1.278-32.782c0.871,0.097,1.746,0.162,2.618,0.204c0.293,10.045,0.691,19.949,0.499,30.029
    c-0.207,10.846-0.322,21.663,1.551,32.386c0.054,0.311,0.181,0.563,0.35,0.77c-2.018,1.169-3.997,2.43-5.961,3.689
    c0.027-0.127,0.044-0.261,0.039-0.407C72.662,213.416,72.23,202.181,72.66,190.849z M102.497,235.203
    c-7.438,1.623-14.611,4.198-21.786,6.737c0.136-2.876,0.084-5.75-0.1-8.625c-0.138-2.155-0.185-5.054-1.299-7.069
    c2.467-1.287,4.945-2.551,7.518-3.614c8.299-3.427,15.527-1.75,23.713,0.887c5.041,1.624,10.129,2.265,15.161,3.427
    C118.067,230.004,110.66,233.422,102.497,235.203z M125.528,221.157c-0.045,0.18-0.063,0.349-0.067,0.512
    c-3.984-0.752-8.048-1.253-11.877-2.333c-1.367-0.386-2.692-0.764-3.993-1.122c-0.177-10.612-1.767-21.092-3.814-31.496
    c-2.168-11.016-4.618-22.25-7.849-33.042c1.161-0.967,2.146-2.185,2.871-3.745c1.998-4.295,1.963-9.988,1.087-15.065
    c10.631-0.319,20.114-3.817,28.076-11.342c6.96-6.579,11.967-15.045,17.238-23.09c0.795,8.778,0.798,17.677,0.364,26.747
    c-0.551,11.495-1.214,22.983-1.83,34.475c-0.426,7.951-0.92,16.069-2.711,23.865C133.353,194.809,128.721,208.504,125.528,221.157z
     M145.597,71.302c0.746,0.057,1.492,0.124,2.23,0.207c1.336,0.149,2.591-0.079,3.89-0.045c3.597,1.011,7.287,1.733,10.942,2.365
    c7.49,1.295,14.976,2.71,22.467,3.968c4.937,0.829,11.173,0.131,15.666,2.697c3.541,4.202,5.719,9.191,5.981,14.84
    c0.015,0.322,0.098,0.598,0.225,0.834c-0.911-0.026-1.825-0.042-2.742-0.042c-4.036,0.002-8.345-0.053-12.414,0.516
    c-12.619-1.193-25.393-3.538-38.074-3.43c-0.761,0.283-1.538,0.516-2.324,0.721C146.05,86.559,145.437,79.665,145.597,71.302z
     M223.315,119.562c-1.872-0.171-3.745-0.356-5.617-0.554l-0.577-0.037c-2.566-5.456-1.267-12.755,2.941-17.009
    c1.801,0.253,3.035,0.456,3.035,0.456C220.161,107.343,220.371,114.587,223.315,119.562z M256.03,182.775
    c-0.232,0.486-0.778,0.92-1.766,1.257c-4.059,1.381-8.452-1.662-12.746-2.418c1.301-2.281,2.526-4.572,3.655-6.92
    c1.971,0.909,4.06,1.621,6.008,2.562c0.967,0.467,2.891,1.683,4.047,3.003C254.977,181.125,255.186,182.126,256.03,182.775z
     M242.885,168.226c-1.028,3.951-3.114,7.735-4.856,11.416c-0.307,0.032-0.626,0.14-0.95,0.341c-0.774-0.346-1.94-1.007-3.165-1.741
    c1.907-7.639,2.103-13.979,8.884-19.203c0.014-0.01,0.023-0.023,0.036-0.033c0.596,0.409,1.201,0.806,1.782,1.238
    C243.947,162.882,243.572,165.584,242.885,168.226z M240.533,120.792c-1.277-0.071-2.554-0.147-3.83-0.225
    c-1.593-5.858-1.025-12.335,3.072-17.08c1.052,0.035,2.11,0.075,3.172,0.123C238.852,107.413,238.713,115.347,240.533,120.792z
     M238.337,156.178c-6.017,4.445-8.032,12.496-7.985,19.848c-0.903-0.577-1.588-1.024-1.814-1.167
    c-1.127-0.715-2.298-1.363-3.488-1.984c-3.707-6.535-1.373-17.417,6.665-19.792c0.104-0.031,0.19-0.077,0.284-0.116
    C234.164,153.948,236.282,155.013,238.337,156.178z M232.794,120.31c-0.698-0.048-1.395-0.091-2.093-0.143
    c-0.131-0.395-0.376-0.783-0.794-1.135c-4.045-3.405-5.007-11.695-1.805-16.144c2.11,0.18,4.227,0.312,6.347,0.408
    C231.553,108.532,230.831,114.613,232.794,120.31z M226.274,150.579c-5.447,4.383-9.513,13.138-7.356,19.485
    c-1.344-0.543-2.702-1.051-4.062-1.547c-0.322-7.24,0.862-16.413,7.98-19.204C223.988,149.722,225.135,150.141,226.274,150.579z
     M216.982,147.345c-5.215,4.562-7.255,12.645-6.255,19.702c-0.582-0.203-1.164-0.406-1.742-0.608
    c-0.472-0.165-0.94-0.34-1.409-0.512c0.012-0.324-0.032-0.67-0.168-1.046c-2.067-5.7-1.328-15.424,4.111-19.255
    C213.336,146.185,215.159,146.759,216.982,147.345z M201.253,163.461c-1.656-0.677-3.308-1.362-4.965-2.036
    c0.714-6.896,1.136-15.438,8.537-17.86c0.52,0.162,1.038,0.325,1.562,0.487C201.536,148.545,200.012,156.94,201.253,163.461z
     M192.492,159.913c-0.997-0.384-1.997-0.757-3.005-1.114c-0.034-0.104-0.058-0.208-0.104-0.313
    c-3.05-6.928-0.564-13.362,4.67-18.032c1.447,0.333,2.852,0.715,4.215,1.105C193.863,145.52,192.311,153.892,192.492,159.913z
     M212.484,118.677l-5.726-0.363c-0.099-0.004-0.197-0.01-0.296-0.014c-1.759-6.011-1.116-12.348,2.956-17.352
    c0.911,0.038,1.833,0.086,2.724,0.145c0.779,0.052,1.587,0.122,2.394,0.201C211.121,106.106,210.431,113.196,212.484,118.677z
     M202.479,118.089c-2.388-0.145-4.773-0.335-7.151-0.659c0.002-0.335-0.061-0.677-0.226-1.011
    c-2.933-5.963,0.058-13.337,6.305-15.622c0,0,1.121-0.006,2.794,0.014C200.976,105.736,200.53,112.523,202.479,118.089z
     M189.933,116.412c-1.153-0.28-2.299-0.584-3.43-0.903c-1.701-0.479-9.585-3.885-7.391-6.824c0.641-1.924,1.784-3.217,3.555-4.236
    c1.424-0.819,3.597-2.195,5.279-1.967c1.626-0.63,3.389-1.046,5.216-1.307C189.55,105.145,188.002,111.624,189.933,116.412z
     M149.962,164.867c0.913-11.887,1.414-23.812,2.05-35.715c0.58-10.862,0.912-21.556-0.361-32.342
    c0.023-0.038,0.046-0.075,0.067-0.114c10.143,0.705,20.315,2.564,30.48,3.292c-1.879,1.262-5.471,2.696-7.064,6.964
    c-1.593,4.268,0.137,6.843,3.322,9.198c2.396,1.771,5.217,2.981,8.188,3.849c2.949,1.741,5.936,3.4,9.143,4.701
    c5.269,2.138,11.065,2.333,16.679,3.097c-0.091,3.357,0.165,6.755,0.857,10.036c-0.007,0.013-0.017,0.022-0.023,0.035
    c-0.464,0.946-0.574,1.956-0.611,2.994c-3.673-1.072-7.332-2.102-10.899-3.134c-2.186-0.632-4.733-1.305-7.432-1.842
    c-0.076-0.022-0.155-0.034-0.234-0.045c-9.435-1.845-20.654-1.978-24.931,7.095c-1.455,2.479-1.648,4.914-0.93,7.212
    c-0.697,0.638-1.038,1.693-0.5,2.96c2.102,4.951,5.667,7.435,10.571,9.303c1.949,0.742,3.84,1.42,5.686,2.211
    c-5.893,2.471-12.014,4.671-17.972,7.157c-1.496,0.385-3.001,0.762-4.518,1.146c-4.581,1.16-9.435,2.712-13.065,5.816
    C149.191,174.136,149.609,169.47,149.962,164.867z M182.957,156.499c-6.382-2.483-13.663-6.635-9.006-13.509
    c0.11-0.162,0.178-0.327,0.228-0.492c3.646-3.02,8.62-3.597,13.735-3.089C183.402,143.726,181.552,150.335,182.957,156.499z
     M171.346,175.686c6.218-2.556,12.482-5.005,18.572-7.849c2.427,1.606,4.807,3.286,7.53,4.377c1.87,0.749,3.752,1.646,5.65,2.614
    c-2.098,1.877-4.119,3.835-6.107,5.541c-5.903,5.064-12.216,10.028-19.513,12.908c-0.185,0.073-0.345,0.165-0.493,0.267
    c-4.872-2.527-9.775-4.976-14.957-6.836c-1.483-0.532-3-0.895-4.535-1.133c-0.806-0.807-1.617-1.606-2.423-2.411
    C160.195,180.107,166.044,177.866,171.346,175.686z M196.991,187.107c3.81-2.964,7.926-6.042,11.751-9.296
    c6.661,3.561,13.532,7.054,20.722,7.317c-9.933,6.74-19.835,13.583-29.18,21.095c-0.289-0.188-0.573-0.386-0.864-0.571
    c-5.55-3.525-11.483-6.438-17.322-9.452C187.533,194.028,192.325,190.737,196.991,187.107z M257.036,175.883
    c-0.13,0.069-0.242,0.145-0.341,0.227c-2.916-2.302-7.01-4.039-9.847-5.123c0.48-1.156,0.829-2.348,1.129-3.553
    c0.097,0.036,0.197,0.072,0.286,0.11c1.793,0.778,3.523,1.703,5.195,2.714c1.581,0.957,3.102,1.986,4.344,3.367
    C258.838,174.775,258.215,175.261,257.036,175.883z M254.828,162.266c1.119,0.646,2.432,1.428,3.163,2.527
    c0.06,0.09,0.1,0.128,0.126,0.143c-0.017,0.011-0.038,0.031-0.065,0.08c-0.361,0.656-1.461,1.168-2.025,1.633
    c-0.016,0.013-0.022,0.031-0.037,0.045c-1.337-0.937-2.741-1.783-4.167-2.561c-0.696-0.379-1.702-1.004-2.76-1.495
    c0.166-0.701,0.343-1.399,0.553-2.088c0.129-0.194,0.224-0.407,0.298-0.628c0.043,0.016,0.086,0.029,0.129,0.046
    C251.704,160.587,253.295,161.381,254.828,162.266z M252.76,121.346c-2.189-0.08-4.378-0.162-6.565-0.262
    c-1.724-5.479-3.814-13.171,2.052-16.915c0.1-0.064,0.163-0.143,0.24-0.217c1.503,0.121,3,0.283,4.489,0.468
    C250.326,109.516,250.593,116.099,252.76,121.346z M262.749,121.656c-1.984-0.049-3.965-0.112-5.947-0.174
    c0.018-0.225-0.009-0.464-0.098-0.712c-1.699-4.744-2.074-11.45,1.343-15.569c1.057,0.204,2.104,0.433,3.136,0.691
    C264.889,106.817,263.512,116.403,262.749,121.656z M274.486,123.562c-2.318,0.192-4.571-0.33-6.836-0.453
    c0.025-1.518,0.168-3.103,0.33-4.715c0.082,0.006,0.165,0.01,0.247,0.016c0.196,0.125,0.431,0.198,0.706,0.184
    c2.944-0.151,8.01,0.396,10.174,2.593C280.236,122.334,275.128,123.508,274.486,123.562z M278.727,113.213
    c0.024,0.01,0.045,0.008,0.069,0.017c0.047,0.166,0.094,0.329,0.14,0.453c-0.094,0.078-0.212,0.167-0.358,0.228
    c-1.293,0.538-2.771,0.766-4.15,0.942c-2.039,0.261-4.103,0.353-6.156,0.479c0.075-0.896,0.136-1.793,0.16-2.681
    c2.541,0.304,6.251,0.713,9.122,0.151C277.95,112.926,278.344,113.057,278.727,113.213z M277.196,107.785
    c0.522,0.704-0.154,0.624-0.951,0.816c-0.393,0.095-0.802,0.137-1.216,0.162c-2.243-0.461-4.571-0.56-6.865-0.468
    c-0.162-0.94-0.413-1.853-0.763-2.733c0.886,0.053,1.771,0.106,2.657,0.171C271.989,105.874,275.899,106.036,277.196,107.785z
     M195.1,30.823c10.061,1.405,20.019,3.504,30.046,5.124c9.682,1.564,19.307,3.476,28.988,5.056
    c8.517,1.391,16.593,4.724,25.163,6.133c6.632,1.09,13.907,2.677,17.434,9.006c4.13,7.412-3.401,12.952-8.976,16.26
    c-6.151,3.65-12.562,6.846-18.714,10.522c-8.714,5.208-17.222,11.195-26.729,14.843c-0.317,0.122-0.578,0.289-0.799,0.482
    c-6.234-0.377-12.478-0.381-18.709-0.932c-2.539-0.225-5.06-0.464-7.581-0.669c-0.012-0.02-0.018-0.04-0.031-0.06
    c-3.393-5.315-4.002-12.143-7.984-17.113c-3.735-4.662-9.169-5.392-14.806-5.96c-4.059-0.409-8.072-1.074-12.081-1.779
    c14.763-0.561,29.477-1.92,44.039-4.41c7.95-1.359,16.037-1.624,24.022-2.698c6.875-0.925,13.979-0.683,20.614-2.921
    c1.891-0.638,2.228-3.702,0-4.168c-6.762-1.415-13.125-3.572-20.034-4.32c-8.165-0.883-16.304-2.013-24.512-2.425
    c-8.434-0.423-16.729-1.938-25.158-2.237c-3.987-0.142-7.963-0.162-11.942-0.472c-4.074-0.317-8.011-1.513-12.055-2.061
    c-0.136-0.5-0.289-0.99-0.46-1.468c-0.169-0.474-0.379-0.914-0.62-1.329c2.304-6.383,1.063-12.489-2.112-17.678
    C179.518,28.192,187.326,29.737,195.1,30.823z M171,50.18c0.506,6.565-1.7,13.285-1.057,19.77c-0.268-0.042-0.536-0.088-0.804-0.128
    c-8.351-1.267-16.487-2.834-24.546-5.28c1.212-7.97,2.482-16.076,3.075-24.12c7.017,2.321,14.029,4.453,21.476,4.467
    C170.285,46.089,170.812,47.751,171,50.18z M146.923,26.05c3.87,0.516,7.738,1.11,11.608,1.803
    c-0.641,3.656-2.328,7.514-6.103,8.603c-4.965,1.432-5.48-7.202-5.463-9.958C146.966,26.338,146.948,26.191,146.923,26.05z
     M151.933,15.887c5.738,1.734,11.262,5.052,14.826,9.945c3.194,4.386,3.383,8.817,3.049,13.637
    c-3.305-1.508-6.598-2.799-10.265-2.602c2.91-3.08,3.407-6.985,3.805-10.88c0.1-0.977-0.768-1.98-1.677-2.203
    c-13.854-3.395-28.874-4.866-43.185-4.185C128.175,13.119,141.02,12.589,151.933,15.887z M142.673,33.222
    c-2.029,3.546-7.925,5.323-10.599,1.732c-0.06-0.081,0.94-7.701,1.176-10.458c2.964,0.283,5.922,0.598,8.877,0.947
    c0.212,0.025,0.42,0.677,0.419,1.054C142.543,28.411,142.825,32.957,142.673,33.222z M118.462,23.27
    c3.39,0.25,6.77,0.515,10.14,0.807c-0.263,4.431-0.197,16.295-6.28,14.851c-5.293-1.256-3.787-11.735-3.844-15.489
    C118.477,23.38,118.467,23.327,118.462,23.27z M89.206,53.625c5.891-1.024,11.864-1.427,17.704-2.773
    c6.135-1.415,9.647-5.197,17.461-6.038c7.814-0.841,9.438-2.398,11.714-2.958c2.376-0.585,4.622-0.809,6.908-1.569
    c-1.556,8.763-3.283,17.632-3.843,26.471c-0.009,0.138,0.011,0.263,0.025,0.391c-16.834,3.862-34.028,5.453-50.981,8.647
    c-0.107-0.057-0.224-0.094-0.339-0.134C86.981,68.188,87.443,60.905,89.206,53.625z M88.166,80.219
    c16.501-1.694,33.091-3.698,49.308-7.246c0.014-0.006,0.027-0.012,0.04-0.018c0.533,0.018,1.059-0.017,1.628-0.106
    c0.393-0.062,0.791-0.124,1.185-0.2c0.039,0.007,0.077,0.018,0.118,0.02c0.078,0.009,0.156,0.009,0.234-0.001
    c0.009-0.001,0.018-0.006,0.027-0.006c-1.563,7.538,0.298,15.91,4.462,22.311c-0.024,0.002-0.048,0.006-0.072,0.008
    c-5.431,7.955-10.313,16.362-16.783,23.527c-7.299,8.085-16.736,11.754-27.273,12.503c-0.109-0.406-0.222-0.805-0.338-1.192
    c-3.455-11.484-16.073-28.77-29.613-19.934c-0.301,0.196-0.56,0.456-0.77,0.752c-8.85,1.805-15.032,12.287-16.959,21.779
    c-3.433-1.258-8.592-2.404-13.094-3.86C52.355,109.531,68.804,91.79,88.166,80.219z M36.796,133.073
    c3.844,1.522,11.979,4.529,16.004,3.245c-0.114,1.462-0.11,2.863,0.018,4.16c0.672,6.787,4.418,11.333,9.492,14.139
    c2.834,11.531,0.653,23.588-0.245,35.24c-0.516,6.689-0.334,13.41-0.026,20.132c-7.153,2.8-14.265,6.504-20.286,11.079
    C41.683,191.989,42.723,161.728,36.796,133.073z M62.578,221.496c-3.217,1.042-6.501,2.259-9.764,3.636
    c0.052-0.358,0.11-0.716,0.181-1.074c0.33-1.653,1.046-3.047,1.637-4.579c2.569-1.344,5.171-2.634,7.669-4.08
    C62.402,217.432,62.497,219.464,62.578,221.496z M48.093,227.257c-3.595,1.71-7.114,3.604-10.42,5.696
    c2.711-3.328,5.731-6.379,9.2-8.865c0.434-0.311,0.88-0.603,1.325-0.897C48.043,224.577,48.015,225.972,48.093,227.257z
     M71.142,294.904c-7.887-0.476-15.523-3.293-23.34-4.347c-9.669-1.305-21.175-0.896-29.568-6.557
    c-5.653-3.813-2.591-10.548-0.644-15.538c3.371-8.642,7.801-16.96,12.666-24.846c0.416-0.674,0.845-1.348,1.274-2.021
    c10.151-5.92,20.53-10.585,31.196-15.28c0.021,1.003,0.037,2.006,0.041,3.009c0.001,0.33,0.069,0.613,0.165,0.875
    c-0.818,1.132-1.466,2.306-1.99,3.506c-1.556-1.134-3.46-1.726-5.382-1.014c-0.429,0.159-0.819,0.378-1.19,0.621
    c-0.4-0.082-0.845-0.041-1.305,0.197c-7.426,3.826-13.896,10.26-19.698,16.175c-5.07,5.169-7.957,12.182-9.255,19.235
    c-1.853,3.269-1.904,7.35,1.071,10.199c0.922,0.883,2.003,1.433,3.154,1.723c0.208,0.274,0.529,0.474,0.992,0.495
    c12.07,0.529,23.18,5.859,35.164,6.884c0.329,0.028,0.596-0.034,0.815-0.148c0.976-0.093,1.973-0.379,2.935-0.856
    c4.257-2.107,6.101-6.957,3.88-11.158c-0.249-2.245-0.373-4.501-0.498-6.756c2.01,2.556,4.064,4.905,5.994,6.942
    c0.163,6.029,0.365,12.003,1.382,17.966C76.477,294.821,73.842,295.067,71.142,294.904z M82.821,292.96
    c-0.283-4.608-0.414-9.23-0.389-13.849c0.051-0.002,0.097,0.005,0.15,0c0.02-0.002,0.041-0.006,0.061-0.008
    c0.361,0.27,0.843,0.406,1.416,0.297c1.642-0.312,3.304-0.654,4.901-1.175c0.097,3.465,0.447,7.143,1.261,10.062
    C87.989,290.272,85.498,291.845,82.821,292.96z M99.014,286.526c-2.407,2.93-4.037-3.543-4.575-5.286
    c-1.031-3.338-2.016-7.552-1.748-11.199c4.044-2.837,6.53-0.444,7.893,3.858C101.895,278.034,101.864,283.056,99.014,286.526z
     M119.974,275.419c-0.111,1.056-0.44,3.777-0.998,5c-0.409-0.422-0.751-0.905-1.077-1.391c-1.097-1.636-1.958-3.462-2.716-5.275
    c-1.297-3.104-2.709-6.427-3.23-9.813c3.506-0.685,6.805-0.786,7.929,3.572C120.534,270.043,120.242,272.857,119.974,275.419z
     M123.646,263.443c-2.804-5.366-9.756-5.981-15.244-3.969c-0.838,0.307-1.357,0.865-1.607,1.5c-0.476,0.189-0.851,0.621-0.885,1.307
    c-0.06,1.204,0.227,3.552,0.805,6.354c-0.943,0.408-1.901,0.766-2.871,1.096c-2.523-5.33-7.35-8.308-13.84-3.797
    c-1.179,0.819-1.295,2.147-0.84,3.184c-0.32,1.443-0.434,2.963-0.434,4.432c-1.524,0.454-3.058,0.871-4.591,1.292
    c0.801-2.871,0.948-5.822,1.118-8.818c7.372-7.526,17.858-8.934,27.575-11.743c11.057-3.196,21.453-8.128,32.826-10.175
    c0.739,3.876,0.86,8.035-0.914,11.602c-0.282-0.491-0.586-0.956-0.934-1.361c-3.437-4-9.812-2.004-14.441-1.269
    c-0.404-0.071-0.831-0.001-1.203,0.191c-1.807,0.364-2.447,1.922-2.124,3.229c-0.257,1.783-0.172,3.726,0.2,5.702
    C125.347,262.565,124.473,262.975,123.646,263.443z M133.039,261.256c-0.257-1.227-0.537-2.446-0.891-3.638
    c2.569-0.695,5.395-1.447,7.63-0.799c3.151,0.914,2.243,10.137,2.056,12.519c-0.102,1.306-0.276,3.029-1.077,3.806
    c-0.448-0.063-0.923,0.082-1.286,0.387c-0.243-0.034-0.508-0.106-0.806-0.239c-2.028-0.903-2.881-3.266-3.679-5.179
    c-0.443-1.061-0.826-2.143-1.192-3.232c-0.055-0.248-0.108-0.497-0.161-0.746C134.035,263.225,133.775,262.002,133.039,261.256z
     M246.748,283.48c-1.405,0.887-2.953,1.594-4.499,2.105c-3.789,1.253-7.777,1.819-11.603,2.951
    c-5.869,1.736-11.481,5.019-17.127,7.382c-12.222,5.116-24.853,7.218-38.045,7.729c-10.95,0.424-25.524,1.951-34.595-5.347
    c-7.666-6.168-11.514-16.473-15.013-25.331c-0.174-0.44-0.431-0.781-0.731-1.049c0.043-1.585-0.03-3.17-0.302-4.726
    c0.866-0.299,1.732-0.577,2.602-0.836c0.872,2.275,2.08,4.473,3.55,6.398c2.036,5.551,4.971,9.916,9.217,7.787
    c1.413,4.4,3.688,8.441,6.891,11.931c0.424,0.462,0.896,0.656,1.353,0.67c3.6,3.16,8.864,3.936,13.244,1.758
    c0.579-0.288,1.094-0.622,1.575-0.977c10.638-0.957,21.289-2.117,31.85-3.638c11.789-1.698,23.928-4.337,34.486-10.065
    c1.702-0.178,3.376-0.655,4.931-1.478c4.109-2.176,6.014-5.993,6.002-9.936c0.346-0.352,0.54-0.857,0.456-1.516
    c-0.879-6.944-7.578-11.309-12.794-15.134c-9.021-6.616-18.008-13.835-26.04-21.626c-7.761-7.527-15.079-15.007-24.209-20.902
    c-6.961-4.494-15.125-9.714-23.762-9.053c-0.19,0.015-0.357,0.063-0.51,0.126c-4.005-0.054-6.628,2.342-7.956,5.709
    c-4.495,5.376-9.496,11.385-10.897,18.036c-1.805-0.847-3.691-1.472-5.622-1.965c0.046-0.09,0.094-0.178,0.13-0.28
    c2.844-7.997,5.985-16.227,10.507-23.493c7.478-5.101,15.585-6.25,24.405-6.146c7.086,3.193,13.906,7.722,20.262,11.038
    c11.803,6.157,21.654,13.488,31.223,22.723c9.631,9.295,18.63,19.323,26.669,30.027c2.976,3.963,6.188,8.065,8.197,12.651
    C250.255,274.089,248.681,278.777,246.748,283.48z M230.486,261.296c0.976,0.527,1.879,1.198,2.646,1.907
    c3.607,3.334,3.134,8.224-0.573,10.937C231.986,269.851,231.549,265.479,230.486,261.296z M296.773,242.104
    c-0.357,0.124-0.697,0.335-0.992,0.677c-1.731,2.01-3.401,4.08-5.039,6.184c-2.557,2.242-5.4,4.3-8.078,6.309
    c-1.709,1.283-3.392,2.587-5.065,3.9c-1.642,0.831-3.282,1.677-4.885,2.628c-2.439,1.447-4.759,3.043-7.087,4.621
    c-2.49,1.423-4.954,2.867-7.242,4.565c-0.363,0.201-0.734,0.392-1.104,0.584c-0.251-1.463-0.684-2.948-1.354-4.44
    c-1.098-2.444-2.4-4.837-3.842-7.185c7.325-6.002,15.275-11.161,22.974-16.658c7.641-5.456,14.556-11.836,22.277-17.178
    c0.358,0.976,0.697,1.959,0.995,2.957C299.872,234.212,298.973,238.443,296.773,242.104z M93.067,65.34
    c-0.598-2.106-1.112-4.54-0.904-6.737c0.265-2.797,3.922-2.707,4.28,0c0.248,1.874,0.737,3.649,1.135,5.494
    C98.211,67.031,93.895,68.257,93.067,65.34z M106.72,65.762c-1.079,0.632-2.67,0.298-3.268-0.857
    c-1.17-2.26-1.924-4.772-2.076-7.321c-0.121-2.022,3.04-2.963,3.914-1.06c0.891,1.94,1.413,4.021,2.288,5.97
    C108.111,63.682,107.932,65.052,106.72,65.762z M116.791,64.253c-1.131,0.311-2.35-0.373-2.657-1.509
    c-0.642-2.374-1.263-4.802-1.76-7.211c-0.423-2.047,2.288-3.314,3.42-1.442c1.361,2.251,2.149,4.915,2.505,7.505
    C118.46,62.762,118.037,63.91,116.791,64.253z M127.092,64.647c-1.242,0.342-2.93-0.411-3.159-1.794
    c-0.435-2.628-0.909-5.232-2.22-7.581c-1.566-2.805,2.661-5.273,4.297-2.512c1.607,2.712,2.346,5.649,2.876,8.727
    C129.122,62.866,128.539,64.248,127.092,64.647z M163.195,87.801c-3.785,1.506-7.993-2.153-7.583-6.004
    c0.19-1.786,1.06-3.493,2.775-4.249c1.923-0.848,3.801-0.371,5.617,0.525c1.527,0.754,0.431,3.028-1.12,2.656
    c-0.531-0.127-1.11-0.238-1.581-0.111c-0.067,0.018-0.552,0.188-0.523,0.149c-0.172,0.116-0.502,0.375-0.235,0.118
    c-0.083,0.08-0.128,0.118-0.156,0.14c-0.006,0.014-0.014,0.03-0.03,0.059c-0.041,0.072-0.156,0.335-0.195,0.401
    c-0.026,0.082-0.048,0.165-0.068,0.248c-0.006,0.119-0.022,0.323-0.017,0.393c0.002,0.035,0.002,0.05,0.002,0.067
    c0.011,0.038,0.022,0.081,0.039,0.148c0.022,0.09,0.13,0.355,0.152,0.432c0.041,0.076,0.086,0.151,0.132,0.224
    c0.038,0.036,0.099,0.099,0.161,0.163c0.007-0.042,0.335,0.141,0.255,0.147c0.236,0.056,0.542,0.125,0.151,0.094
    c0.812,0.065,0.836-0.061,1.619-0.057C165.313,83.359,165.471,86.896,163.195,87.801z M196.566,88.499
    c-7.516,0.604-15.478-0.79-22.933-1.727c-3.207-0.403-3.271-4.7,0-5.036c7.483-0.77,15.463-0.119,22.933,0.652
    C200.467,82.789,200.532,88.18,196.566,88.499z M158.077,48.524c0.079,0.72-0.189,1.898-0.633,2.494
    c-0.748,1.003-1.58,1.566-2.845,1.661c-1.378,0.104-2.793-0.863-3.503-1.991c-0.789-1.254-0.871-3.069,0.235-4.172
    c0.868-0.866,1.999-0.965,3.012-0.597c0.549-0.191,1.148-0.234,1.686-0.086C157.325,46.19,157.939,47.27,158.077,48.524z
     M168.295,51.109c-0.421,1.186-1.412,2.123-2.69,2.307c-1.279,0.184-2.898,0.009-3.517-1.346c-0.513-1.122-0.283-2.169,0.352-3.068
    c0.008-0.032,0.007-0.063,0.016-0.096c0.373-1.357,1.843-2.216,3.208-1.821C167.262,47.547,168.939,49.297,168.295,51.109z
     M165.48,62.45c-2.307,0.067-4.777-0.808-7.032-1.276c-2.301-0.478-4.607-0.913-6.92-1.321c-2.057-0.363-1.761-3.32,0-3.858
    c2.495-0.763,5.107-0.637,7.661-0.299c2.511,0.332,5.35,0.671,7.632,1.802C169.303,58.727,167.973,62.377,165.48,62.45z
     M283.623,51.154c-10.247-1.244-10.646,17.208,0.148,17.916c5.435,0.357,10.223-3.381,9.967-9.042
    C293.5,54.732,288.778,50.66,283.623,51.154z M283.771,63.798c-2.209-0.12-3.091-2.683-3.126-4.508
    c-0.025-1.349,0.393-2.521,1.159-3.403c0.416,0.35,0.939,0.586,1.567,0.608c2.326,0.08,4.64,0.837,4.97,3.534
    C288.688,62.869,286.25,63.932,283.771,63.798z M244.131,69.58c-4.651-0.031-9.16,0.931-13.706,1.821
    c-5.049,0.989-10.146,1.393-15.234,2.116c-0.307,0.044-0.563,0.151-0.775,0.301c-0.569,0.237-0.965,0.798-0.758,1.581
    c-0.014,0.462,0.097,0.932,0.314,1.334c0.967,5.031,1.351,16.311,6.774,16.777c3.003,0.258,6.025-3.451,8.06-5.217
    c5.663-4.913,11.868-9.638,16.693-15.413C246.544,71.628,245.926,69.592,244.131,69.58z M222.429,89.451
    c-1.935,1.479-3.951-6.987-5.145-11.833c3.556-0.282,7.097-0.396,10.639-0.965c3.835-0.616,7.561-1.627,11.35-2.399
    C234.232,79.832,228.235,85.014,222.429,89.451z M261.923,72.659c-8.373,7.428-16.572,15.36-25.972,21.498
    c-1.781,1.163-3.349-1.628-1.648-2.819c9.135-6.398,15.777-15.811,25.075-21.978C261.365,68.043,263.706,71.077,261.923,72.659z
     M282.941,96.809c-1.691-0.15-3.3-1.288-3.841-2.937c-1.182-3.603,0.864-7.238,4.871-7.149c0.279,0.006,0.515,0.085,0.716,0.206
    c3.102,0.695,6.013,4.106,3.677,7.195C287.15,95.729,285.008,96.992,282.941,96.809z M261.694,27.746
    c0.172-0.564,0.017-1.22-0.241-1.72c-0.71-1.38-2.535-1.528-3.636-0.571c-0.011,0.01-0.023,0.02-0.034,0.03
    c-0.348,0.303-0.571,0.747-0.672,1.215c-0.178,0.327-0.32,0.677-0.381,1.049c-0.236,1.435,0.514,2.461,1.96,2.656
    c1.318,0.178,2.36-0.678,2.842-1.825C261.643,28.319,261.673,28.031,261.694,27.746z M272.386,33.534c-0.001,0-0.002,0-0.003,0
    c0,0,0,0,0,0C272.384,33.534,272.384,33.534,272.386,33.534z M274.498,31.023c-0.127-0.919-0.989-1.544-1.794-1.821
    c-0.561-0.193-1.099-0.096-1.545,0.165c-0.853-0.023-1.652,0.46-1.909,1.341c-0.301,1.031,0.314,2.008,1.288,2.349
    c0.279,0.098,0.558,0.194,0.841,0.281c0.139,0.043,0.28,0.08,0.423,0.108c0.193,0.03,0.387,0.059,0.581,0.088
    c0.045,0.005,0.088,0.01,0.122,0.013c0.502,0.042,1.059-0.215,1.42-0.556C274.5,32.447,274.601,31.767,274.498,31.023z
     M272.382,33.534C272.055,33.495,271.56,33.412,272.382,33.534L272.382,33.534z M303.843,84.074
    c0.151-0.481,0.232-0.962,0.117-1.463c-0.024-0.103-0.057-0.203-0.082-0.306c-0.037-0.166-0.096-0.324-0.155-0.483
    c-0.005-0.026-0.008-0.047-0.016-0.088c-0.089-0.509-0.382-0.935-0.777-1.234c-0.273-0.3-0.645-0.511-1.108-0.558
    c-0.861-0.088-1.545,0.426-1.844,1.162c-0.015,0.021-0.025,0.036-0.034,0.048c-0.353,0.398-0.651,0.812-0.701,1.379
    c-0.124,1.409,0.955,2.184,2.108,2.678C302.284,85.611,303.537,85.047,303.843,84.074z M301.589,93.187
    c-0.429-0.568-1.05-0.872-1.748-0.94c-0.39-0.159-0.799-0.249-1.213-0.14c-1.216,0.32-1.96,1.242-1.829,2.527
    c0.144,1.407,2.143,2.543,3.399,2.278C301.943,96.543,302.664,94.609,301.589,93.187z M276.756,169.762
    c-1.184-0.252-2.599-0.74-3.422-1.659c-0.597-0.667-0.996-1.613-0.817-2.497c-0.086-0.6,0.084-1.253,0.596-1.827
    c1.33-1.493,4.734-1.788,5.767,0.245c0.336,0.66,0.449,1.332,0.45,2.068c0,0.232,0,0.466,0.016,0.698
    c0.024,0.1,0.05,0.199,0.082,0.298C279.969,168.756,278.288,170.088,276.756,169.762z M299.204,150.125
    c-0.365,1.38-1.488,2.737-2.774,3.356c-1.445,0.696-3.457,0.571-4.278-1.029c-0.058-0.113-0.1-0.232-0.145-0.35
    c-0.817-0.876-0.9-1.996-0.555-3.151c0.161-0.537,0.375-1.088,0.701-1.549c0.799-1.13,1.906-1.838,3.304-1.933
    c0.995-0.067,2.208,0.362,2.867,1.137C299.168,147.599,299.545,148.833,299.204,150.125z"/>
</svg>