<svg xmlns="http://www.w3.org/2000/svg"viewBox="0 0 320 320">
    <path d="M264.423,293.19L172,132.591V96.686c19-5.081,32.356-22.268,32.356-42.64c0-24.358-19.965-44.174-44.323-44.174 s-43.931,19.816-43.931,44.174c0,20.372,12.898,37.559,32.898,42.64v35.91L55.962,293.19c-2.058,3.564-2.217,7.721-0.159,11.285 c2.058,3.564,5.702,5.525,9.818,5.525h188.528c4.115,0,8.068-1.961,10.126-5.525S266.481,296.754,264.423,293.19z M138.748,54.046 c0-11.654,9.481-21.135,21.135-21.135s21.135,9.482,21.135,21.135s-9.482,21.134-21.135,21.134S138.748,65.7,138.748,54.046z M149,178.674V287H85.574L149,178.674z M172,287V178.67L234.196,287H172z"/>
</svg>
