<svg xmlns="http://www.w3.org/2000/svg" viewBox="0 0 320 320">
    <path fill-rule="evenodd" d="M203.705,151.674c-2.859-4.988-1.16-11.801,2.459-15.882c3.615-4.079,12.905-7.419,23.235-9.258
    c10.907-1.939,19.382-1.847,25.825,0.159c6.444,2.008,4.779,4.778-1.213,5.25c-4.434,0.347-13.355,1.158-22.574,3.849
    c-8.743,2.552-12.932,5.332-14.444,8.791c-2.378,5.439,4.155,10.627,6.451,11.637c7.07,3.106,4.383,6.308-0.52,5.701
    C216.979,161.183,206.56,156.662,203.705,151.674z M170.266,163.619c-0.149,24.735-0.427,55.273,0.021,64.189
    c2.65,52.737,50.673,58.331,61.349,15.56c-4.74,0-10.621,3.147-16.447,5.19c-5.513,1.931-9.696-12.919-2.178-17.079
    c8.759-4.849,21.153-16.615,32.668-21.332c11.514-4.72,13.772-0.91,16.242,4.098c3.238,6.57,16.505,29.435,19.42,37.515
    c4.281,11.845-6.554,19.092-12.2,16.481c-5.649-2.612-10.644-12.399-12.043-18.928c0,28.205-35.068,57.788-58.17,57.823
    c-23.108,0.036-40.375-20.25-42.54-22.824c-4.748-5.638-6.702-4.813-11.77,1.076c-4.3,4.999-18.886,22.652-40.937,21.89
    c-29.14-1.005-54.529-23.698-57.561-57.867c-1.798,4.674-4.865,11.066-7.556,14.339c-2.688,3.275-18.185,3.622-16.473-6.493
    c1.71-10.116,14.965-35.977,19.375-44.774c4.275-8.526,6.309-10.165,13.513-5.597c8.223,5.215,34.158,21.726,38.086,27.752
    c3.927,6.029,1.061,15.322-4.835,13.858c-5.898-1.459-9.242-3.945-15.299-5.245c7.06,46.883,60.509,35.245,60.236-17.224
    c-0.074-14.169-0.041-42.73-0.099-64.121c-15.41-0.028-31.013,0.531-40.656,1.421c-12.39,1.136-36.654,13.317-54.396,13.317
    c-13.97,0-28.014-15.109-28.014-30.443c0-12.951,16.404-25.241,28.274-25.241c17,0,39.787,6.289,54.135,7.837
    c8.773,0.948,24.531,1.211,40.381,0.931c-0.249-18.862-0.59-44.969-0.597-48.794c-0.008-4.704-15.648-13.716-17.207-33.967
    c-1.557-20.253,16.664-34.579,35.939-34.265s30.101,17.308,31.074,32.32c0.975,15.008-11.812,30.303-12.208,34.958
    c-0.313,3.681,0.214,26.296,0.448,47.74c7.019-1.252,14.331-5.099,23.96-11.905c9.765-6.903,20.951-15.336,54.628-15.921
    c24.457-0.421,61.019,18.207,61.172,42.249c0.153,24.121-30.075,41.359-59.54,43.82c-23.475,1.964-43.009-3.633-62.297-15.781
    C181.635,166.074,175.909,164.432,170.266,163.619z M139.2,45.605c0.109,6.179,4.485,10.812,10.834,10.804
    c6.349-0.011,10.812-4.486,10.566-11.542c-0.246-7.053-7.971-11.197-12.342-10.995C143.885,34.077,139.091,39.428,139.2,45.605z
     M156.902,79.488c-0.101-8.06-3.487,6.929-6.809,6.929s-6.702-12.802-6.702-7.224c0,2.191-0.05,23.743-0.09,50.269
    c5.138-0.17,10.113-0.395,14.688-0.672C157.518,103.349,156.941,82.597,156.902,79.488z M160.58,234.263
    c0-11.375-1.983-25.638-1.983-49.292c0-7.203-0.119-22.368-0.119-22.368l-15.216-0.587c0,0-0.01,15.715-0.01,23.184
    c0,25.173-0.384,38.159-0.384,50.286c0,9.763,6.328-11.774,8.705-11.774C153.949,223.713,160.58,244.689,160.58,234.263z
     M173.59,151.595c12.578,0.724,24.195,11.279,31.683,14.705c7.491,3.426,18.017,8.097,39.783,7.745
    c26.418-0.429,51.901-17.765,51.365-31.025c-0.544-13.495-28.462-29.473-54.111-29.058c-14.902,0.24-28.286,3.937-37.282,9.87
    c-7.751,5.114-21.783,14.973-31.907,15.123c-9.956,0.153-66.496,0.814-80.663-0.232c-10.523-0.776-42.632-5.259-50.762-6.04
    c-8.13-0.787-18.333,7.143-19.546,14.301c-1.232,7.154,9.534,16.295,18.023,17.12c8.503,0.82,40.864-11.405,51.465-11.727
    C105.952,151.95,161.019,150.868,173.59,151.595z"/>
</svg>