<svg xmlns="http://www.w3.org/2000/svg" viewBox="0 0 320 320">
    <path d="M160,51v12c0,3.314-2.686,6-6,6h-12c-3.314,0-6-2.686-6-6V51c0-3.314-2.686-6-6-6h-12c-3.314,0-6,2.686-6,6v12 c0,3.314-2.686,6-6,6H94c-3.314,0-6-2.686-6-6V51c0-3.314-2.686-6-6-6H70c-3.314,0-6,2.686-6,6v12c0,3.314-2.686,6-6,6H46 c-3.314,0-6,2.686-6,6v12c0,3.314,2.686,6,6,6h12c3.314,0,6,2.686,6,6v12c0,3.314-2.686,6-6,6H46c-3.314,0-6,2.686-6,6v12 c0,3.314,2.686,6,6,6h12c3.314,0,6,2.686,6,6v12c0,3.314-2.686,6-6,6H46c-3.314,0-6,2.686-6,6v108c0,3.314,2.686,6,6,6h114h48h24h42 c3.314,0,6-2.686,6-6V93V69V51c0-3.314-2.686-6-6-6H166C162.686,45,160,47.686,160,51z M94,93h12c3.314,0,6,2.686,6,6v12 c0,3.314-2.686,6-6,6H94c-3.314,0-6-2.686-6-6V99C88,95.686,90.686,93,94,93z M88,159v-12c0-3.314,2.686-6,6-6h12 c3.314,0,6,2.686,6,6v12c0,3.314-2.686,6-6,6H94C90.686,165,88,162.314,88,159z M154,165h-12c-3.314,0-6-2.686-6-6v-12 c0-3.314,2.686-6,6-6h12c3.314,0,6,2.686,6,6v12C160,162.314,157.314,165,154,165z M154,117h-12c-3.314,0-6-2.686-6-6V99 c0-3.314,2.686-6,6-6h12c3.314,0,6,2.686,6,6v12C160,114.314,157.314,117,154,117z M250,93h-12c-3.314,0-6,2.686-6,6v156 c0,3.314-2.686,6-6,6h-12c-3.314,0-6-2.686-6-6V99c0-3.314-2.686-6-6-6h-12c-3.314,0-6-2.686-6-6V75c0-3.314,2.686-6,6-6h60 c3.314,0,6,2.686,6,6v12C256,90.314,253.314,93,250,93z"/>
</svg>