<svg xmlns="http://www.w3.org/2000/svg" viewBox="0 0 320 320">
    <path d="M273.686,144.204c-1.113-5.784-1.111-11.622-1.219-17.5c-0.519-28.358,2.689-56.678,2.105-85.026
    c0.652-5.817,0.903-11.665,0.125-17.321c-1.319-9.589-10.37-10.68-18.359-10.629c-13.155,0.084-26.279,0.428-39.445,0.179
    c-27.065-0.512-54.791-6.411-81.785-2.673c-12.876,1.783-25.156,4.12-38.225,3.511c-12.117-0.565-24.844-2.436-36.766,0.613
    c-0.258,0.066-0.475,0.181-0.656,0.329c-1.356-0.387-3.027,0.089-3.627,1.796C48.863,37.31,45.398,58.225,44.783,79.216
    c-0.684,23.374,2.569,46.667,4.07,69.949c1.486,23.047-1.617,45.784-1.154,68.788c0.141,6.979,1.845,13.029,8.991,15.435
    c7.678,2.585,16.081-0.939,23.806-2.575c4.869,17.167,13.673,33.369,24.449,47.29c8.101,10.466,18.034,19.427,28.909,26.924
    c6.178,4.259,15.806,8.48,20.725,0.36c2.692-4.444,2.242-11.21,1.423-16.066c-1.236-7.327-4.039-14.091-7.382-20.688
    c-3.173-6.261-7.013-12.153-10.344-18.326c-3.934-7.292-6.975-15.021-9.526-22.892c-4.204-12.97-4.705-27.056-10.208-39.575
    c-0.255-0.579-0.568-1.183-0.931-1.799c-1.073-2.014-2.423-3.727-3.996-5.131c-2.447-2.507-5.431-4.709-8.455-5.802
    c1.811-1.133,3.586-2.323,5.492-3.297c3.972-2.029,9.458-1.615,13.61-0.435c1.163,0.331,2.194,0.86,3.138,1.514
    c1.092,1.477,1.964,3.197,2.688,4.579c5.343,10.203,8.182,20.608,18.275,27.387c7.399,4.97,17.584,3.878,20.77-5.277
    c3.386-9.73,3.147-22.268,1.192-32.991c3.795,7.081,8.152,14.72,11.369,22.518c1.096,5.469,2.231,10.873,2.926,16.395
    c-0.104,0.218-0.191,0.456-0.232,0.745c-0.423,3.003-1.084,5.764-1.903,8.453c-0.06-0.04-0.12-0.081-0.185-0.115
    c-0.823-0.43-1.822-0.579-2.718-0.276c-1.865,0.631-2.741,2.423-2.85,4.278c-0.098,1.681,0.724,3.345,2.139,4.249
    c-0.422,0.778-0.837,1.552-1.228,2.32c-3.591,7.055-4.136,14.063-2.907,21.792c1.234,7.757,2.706,15.61,4.537,23.247
    c1.376,5.738,3.462,12.106,7.256,16.846c0.133,0.523,0.259,1.048,0.398,1.569c0.31,1.16,1.021,1.869,1.87,2.219
    c0.018,0.016,0.028,0.035,0.047,0.05c2.588,2.066,6.017,0.676,7.055-2.393c1.442-4.264,0.105-9.19-0.993-13.381
    c-3.536-13.505-10.091-25.569-11.502-39.641c0.406-0.956,0.906-1.925,1.527-2.922c2.961-4.751,5.763-8.926,7.019-14.476
    c0.213-0.94,0.382-1.883,0.522-2.828c2.033,1.313,4.704,1.121,6.854-0.108c2.66-0.949,3.559-3.063,3.825-5.471
    c1.925,1.643,4.22,2.691,6.362,1.28c2.715-1.789,3.406-4.281,3.291-6.995c2.498,1.605,5.369,2.424,6.768-0.571
    c1.108-2.371,1.19-5.055,0.562-7.631c7.482-1.431,13.205-6.417,19.296-10.647c5.516-3.831,10.561-7.951,14.468-13.376
    c0.428-0.124,0.852-0.343,1.252-0.684c2.606-2.217,4.978-4.186,8.553-4.191c2.67-0.003,4.837-0.047,7.264-1.26
    c3.077-1.538,3.924-5.389,4.246-8.452C275.657,152.902,274.479,148.328,273.686,144.204z M109.208,185.581
    c0.949,1.202,1.757,2.347,2.328,3.199c3.846,5.74,4.712,14.265,5.929,20.917c2.669,14.579,7.873,28.962,14.626,42.126
    c6.966,13.58,17.159,25.982,18.523,41.744c0.513,5.936-0.263,12.579-7.448,10.299c-5.756-1.826-11.172-6.891-15.651-10.679
    c-21.203-17.933-35.621-43.01-42.35-69.775c-3.209-12.763-4.52-29.949,3.669-39.93c1.395-0.397,2.727-0.73,3.873-1.026
    C99.305,180.752,104.734,181.782,109.208,185.581z M156.628,200.697c-2.187-0.469-4.472-1.805-6.017-2.817
    c-4.397-2.88-7.24-7.879-9.544-12.523c-1.491-3.45-2.881-7.006-4.612-10.148c-0.474-0.973-0.977-1.928-1.516-2.854
    c-0.743-10.594-6.109-20.265-7.726-30.609c5.447,13.111,20.926,23.448,34.55,19.55c0.246-0.07,0.468-0.172,0.706-0.252
    c0.02,0.157,0.039,0.314,0.085,0.482C164.266,167.829,167.836,200.226,156.628,200.697z M175.792,77.981
    c-0.894,3.12-1.921,7.047-4.748,8.959c-4.551,3.076-5.123-6.938-5.347-8.911c-0.036-0.318-0.128-0.588-0.253-0.819
    c-0.096-0.268-0.209-0.539-0.368-0.835c-0.856-1.593-3.672-1.785-4.47,0c-1.185,2.652-3.122,9.255-6.999,8.711
    c-3.1-0.435-2.096-6.72-2.066-8.795c0.042-2.912-4.482-3.597-5.122-0.693c-0.723,3.28-1.554,6.46-3.348,9.337
    c-1.829,2.931-5.108,2.1-6.183-0.828c-0.693-1.887-0.641-4.092-0.71-6.077c-0.096-2.78-4.372-3.575-4.995-0.676
    c-0.439,2.043-1.005,4.019-1.713,5.985c-0.833,2.313-2.362,5.111-5.625,4.571c-2.676-0.443-3.542-3.94-3.715-6.056
    c-0.187-2.291-3.46-2.327-3.585,0c-0.306,5.656,3.156,10.765,9.173,10.613c3.234-0.082,5.473-2.18,7.073-4.893
    c1.299,2.817,3.496,4.886,7.103,4.545c3.82-0.361,6.328-2.45,8.065-5.259c0.883,1.399,2.22,2.534,4.267,3.238
    c4.553,1.565,7.717-1.591,9.965-5.313c0.848,4.65,3.557,8.323,9.481,7.521c2.928,10.236,2.923,20.323,3.582,30.921
    c0.007,0.119,0.031,0.225,0.051,0.333c-0.296,1.906-0.643,3.803-1.034,5.687c-1.81,8.737-4.097,21.967-12.832,26.441
    c-6.964,3.567-15.873-1.12-21.293-5.411c-6.161-4.878-11.158-12.407-11.385-20.445c-0.036-1.267-1.032-1.79-1.949-1.634
    c-0.15-0.061-0.308-0.11-0.478-0.128c-3.667-0.386-5.229-3.279-5.233-6.713c-0.004-4.368,2.864-5.909,6.629-6.713
    c3.09-0.66,2.098-4.946-0.701-5.182c-12.568-1.06-14.337,18.16-5.148,21.67c-0.797,6.211,0.053,12.122,1.575,17.926
    c0.273,1.558,0.555,3.112,0.835,4.66c0.592,3.275,0.895,6.862,1.543,10.333c-2.927-1.027-5.836-1.163-8.774-0.832
    c-0.153-0.001-0.309-0.017-0.462-0.016c-2.115,0.016-4.228,0.537-6.347,0.918c-1.016-8.17-2.858-16.208-4.297-24.319
    c-1.828-10.299-2.175-20.678-1.547-31.102c0.599-9.948,4.343-18.614,7.88-27.779c2.872-7.441,5.993-14.871,11.312-20.927
    c5.993-6.823,14.964-10.66,23.587-12.864c9.848-2.518,19.264,0.733,25.925,8.275C178.65,61.681,177.926,70.532,175.792,77.981z
     M211.452,197.868c-1.311-1.527-3.501,0.128-3.138,1.827c0.355,1.66,0.639,3.295,0.719,4.995c-1.319,2.936-2.738,3.376-4.256,1.321
    c-0.7-0.704-1.319-1.474-1.857-2.311c-1.04-1.504-3.612-1.056-3.586,0.971c0.016,1.298,0.041,2.59,0.004,3.887
    c-0.031,1.086-0.274,1.716-0.638,2.031c-0.284,0.089-0.557,0.17-0.82,0.243c-0.877-0.081-1.984-0.943-2.845-1.892
    c-0.708-1.235-1.559-2.402-2.247-3.647c-0.42-5.366-1.728-10.732-3.642-15.983c-0.352-1.34-0.743-2.67-1.165-3.992
    c2.945-2.075,14.764,2.095,17.259,2.872c3.039,0.947,6.099,2.155,8.564,4.217c2.068,1.73,2.633,4.483,2.785,7.009
    C216.842,203.624,211.929,198.423,211.452,197.868z M250.127,165.378c-3.107,5.978-8.666,10.197-14.028,14.018
    c-5.539,3.947-10.892,8.717-17.696,10.206c-0.393,0.086-0.715,0.232-1.002,0.404c-1.098-1.465-2.42-2.727-3.889-3.634
    c-4.91-3.03-10.732-4.782-16.345-5.946c-3.209-0.665-7.605-1.462-10.97-0.264c-1.558-4.218-3.29-8.426-4.899-12.756
    c12.183-5.008,34.379-13.007,31.773-28.77c-1.629-9.855-16.307-15.304-26.663-15.119c-1.778-0.486-3.599-0.775-5.379-0.749
    c1.262-8.803,1.309-17.832-0.646-26.421c12.974,2.473,26.301,1.833,38.91,6.376c12.748,4.592,22.368,14.468,29.091,25.953
    C254.725,139.508,255.997,154.083,250.127,165.378z M142.46,226.522c-1.495,0.685-3.006,0.716-4.516,0.073
    c-1.197-0.509-1.985-1.948-1.959-3.223c0.031-1.46,0.761-2.672,1.842-3.497c0.022-0.027,0.04-0.057,0.063-0.083
    c0.839-0.979,2.231-1.795,3.574-1.629c1.657,0.204,2.996,1.072,3.499,2.739C145.602,223.016,144.481,225.597,142.46,226.522z
     M164.837,146.606c-1.919,2.159-5.25,4.058-8.234,4.013c-3.362-0.051-5.704-1.507-8.056-3.8c-1.265-1.233,0.347-3.233,1.852-2.4
    c1.774,0.983,4.232,2.028,6.314,1.487c2.071-0.539,3.524-1.854,5.297-2.964C164.35,141.478,166.539,144.692,164.837,146.606z
     M169.414,132.534c-0.65,3.21-2.664,6.72-6.489,5.499c-1.164-0.372-1.715-1.475-2.804-0.216c-0.465,0.537-0.911,1.042-1.48,1.47
    c-1.442,1.086-3.353,2.007-5.212,1.669c-3.587-0.652-5.004-3.834-3.838-7.131c0.724-2.046,3.538-1.213,3.202,0.883
    c-0.732,4.568,3.712,0.376,4.138-0.081c0.395-0.423,0.968-1.066,1.513-1.302c1.492-0.647,2.685-0.94,4.284-0.568
    c1.203,0.28,1.644,1.117,1.986-0.681c0.182-0.958,0.37-1.859,0.292-2.849c-0.259-3.28-1.319-6.232-2.913-9.095
    c-1.569-2.819,2.919-5.35,4.275-2.499C168.593,122.312,170.478,127.285,169.414,132.534z M148.3,116.297
    c-0.534-0.675-1.451-1.184-2.333-1.101c-0.513,0.048-0.768,0.129-1.158,0.29c-0.014,0.003-0.028,0.005-0.064,0.015
    c-0.401,0.113-0.84,0.349-1.105,0.677c-0.538,0.668-0.84,1.4-0.6,2.271c0.235,0.853,0.85,1.317,1.63,1.63
    c0.204,0.082,0.422,0.111,0.643,0.116c1.059,0.433,2.228,0.032,2.987-0.818C149.162,118.414,149.07,117.27,148.3,116.297z
     M160.661,104.458c-0.62-0.63-1.487-0.944-2.297-1.245c-0.804-0.299-1.808,0.055-2.39,0.632c-0.441,0.437-0.639,0.838-0.864,1.401
    c-0.051,0.128-0.087,0.257-0.126,0.389c0.079-0.266-0.263,1.668-0.033,0.372c-0.148,0.838-0.03,1.632,0.597,2.26
    c0.509,0.509,1.416,0.852,2.144,0.63c0.253,0.095,0.52,0.16,0.802,0.171c0.751,0.028,1.452-0.41,1.846-1.033
    c0.022-0.02,0.044-0.039,0.066-0.06c0.083-0.078,0.169-0.153,0.255-0.226C161.638,106.928,161.493,105.303,160.661,104.458z
     M138.835,277.27c-4.503,2.703-8.707,4.905-12.132,9.041c-1.264,1.526-3.936-0.527-2.752-2.123
    c3.405-4.592,8.022-8.41,13.314-10.641C139.449,272.625,140.748,276.121,138.835,277.27z M123.999,275.411
    c-8.027-7.51-15.118-16.482-17.44-27.499c-0.564-2.674,3.227-3.726,4.086-1.126c3.375,10.206,7.798,18.832,15.241,26.739
    C127.067,274.779,125.257,276.588,123.999,275.411z M125.503,258.179c-0.209-0.331-0.416-0.667-0.624-1.001
    c-0.278,0.141-0.547,0.298-0.831,0.431c-0.995,0.467-2.167,0.288-2.759-0.724c-0.544-0.929-0.239-2.231,0.724-2.759
    c0.281-0.154,0.551-0.327,0.827-0.489c-0.522-1.008-1.006-2.034-1.38-3.104c-0.39-1.117,0.433-2.371,1.515-2.669
    c1.246-0.343,2.219,0.423,2.669,1.515c0.289,0.701,0.638,1.37,1.009,2.028c1.926-0.603,3.415,1.993,2.028,3.468
    c0.287,0.531,0.557,1.07,0.787,1.631C130.436,258.868,126.758,260.169,125.503,258.179z M133.915,263.187
    c-1.8,0.646-3.586,1.282-5.254,2.229c-2.492,1.414-4.556-2.23-2.221-3.8c1.936-1.301,4.04-2.182,6.219-2.987
    c1.21-0.446,2.587,0.488,2.907,1.651C135.927,261.594,135.126,262.752,133.915,263.187z M136.709,268.285
    c-1.947,1.198-4.097,1.885-6.303,2.433c-2.811,0.699-3.951-3.477-1.191-4.322c1.782-0.545,3.532-1.191,5.171-2.087
    C136.994,262.883,139.237,266.729,136.709,268.285z M110.208,264.6c-0.716,0.716-1.878,0.879-2.753,0.355
    c-1.873-1.122-3.209-2.839-3.262-5.09c-0.03-1.266,1.079-2.322,2.322-2.322c1.311,0,2.262,1.058,2.322,2.322
    c0.001,0.026,0,0.034,0.001,0.054c0.01,0.024,0.017,0.041,0.03,0.08c0.088,0.133,0.321,0.428,0.262,0.379
    c0.338,0.362,0.683,0.705,1.077,1.01C111.189,262.147,111,263.809,110.208,264.6z M102.171,250.65
    c-0.891,0.522-2.215,0.429-2.925-0.377c-1.249-1.419-1.537-3.142-1.162-4.962c0.268-1.3,1.779-2.035,2.995-1.7
    c1.399,0.385,1.888,1.682,1.7,2.995c0.001-0.004,0.001-0.005,0.001-0.009c0,0,0,0,0,0c0.099-0.687,0.042-0.113,0.046,0.112
    c0.005,0.016,0.007,0.019,0.012,0.039c0.053,0.196,0.122,0.385,0.187,0.578c0.005,0.01,0.007,0.01,0.013,0.021
    C103.669,248.502,103.33,249.971,102.171,250.65z M119.514,244.484c-0.765,2.911-4.961,1.653-4.44-1.224
    c0.539-2.97,2.526-8.892-1.307-10.708c-1.985-0.941-4.065-1.046-6.209-1.218c-2.793-0.223-5.871-0.29-8.551-1.198
    c-5.335-1.808-7.757-5.583-8.137-11.123c-0.247-3.607,5.226-3.517,5.562,0c0.847,8.882,11.885,6.303,18.144,8.42
    C122.05,229.96,121.106,238.425,119.514,244.484z M102.017,222.552c-3.058-4.816-4.851-10.389-8.648-14.73
    c-1.579-1.805,0.898-4.349,2.651-2.651c4.372,4.237,6.641,10.057,9.779,15.17C107.283,222.76,103.525,224.926,102.017,222.552z
     M107.033,214.705c-2.035,1.433-3.903-1.56-2.493-3.232c5.369-6.364-2.73-10.576-7.536-12.671c-4.031-1.757-8.219-4.22-8.597-8.995
    c-0.185-2.343,3.28-3.871,4.799-1.988c2.405,2.981,4.326,4.681,7.884,6.295c2.85,1.293,5.716,2.581,7.587,5.21
    C112.297,204.412,112.399,210.928,107.033,214.705z M109.11,191.77c-0.32,1.164-1.503,1.764-2.644,1.501
    c-1.908-0.439-3.697-1.318-5.396-2.276c-2.455-1.384-0.276-5.083,2.2-3.764c1.405,0.748,2.859,1.318,4.339,1.896
    C108.699,189.552,109.445,190.551,109.11,191.77z M89.054,210.822c-1.325,0.364-2.386-0.448-2.857-1.622
    c-0.934-2.328-1.924-5.092-0.459-7.423c1.239-1.973,4.668-0.718,3.872,1.633c-0.483,1.429,0.539,3.242,1.066,4.556
    C91.148,209.142,90.17,210.515,89.054,210.822z M118.2,221.702c-0.013,0.054-0.026,0.109-0.039,0.163
    c-0.299,1.241-1.529,2.116-2.78,2.116c-1.251,0-2.481-0.875-2.78-2.116c-0.013-0.054-0.026-0.109-0.039-0.163
    c-0.443-1.839,0.872-3.7,2.819-3.7C117.328,218.002,118.644,219.863,118.2,221.702z M118.993,275.163
    c0.134,1.104-1.116,2.354-2.221,2.221c-0.058-0.007-0.116-0.014-0.174-0.021c-1.067-0.129-1.983-0.631-2.289-1.742
    c-0.225-0.817,0.012-1.711,0.61-2.309c0.754-0.753,1.956-0.91,2.876-0.371c0.789,0.462,1.071,1.189,1.175,2.049
    C118.979,275.047,118.986,275.105,118.993,275.163z M120,282.659c-3,0-3-4.91,0-4.91C125,277.75,125,282.659,120,282.659z
     M156.539,189.567c-1.849,0.599-3.707,1.158-5.598,1.611c-2.921,0.7-4.083-3.57-1.235-4.479c1.854-0.591,3.656-1.331,5.528-1.866
    C158.296,183.958,159.532,188.598,156.539,189.567z M157.908,195.573c-1.255,0.461-2.618,0.418-3.934,0.361
    c-1.253-0.054-2.302-1.006-2.302-2.302c0-1.297,1.049-2.247,2.302-2.302c0.463-0.02,0.928-0.041,1.389-0.09
    c0.038-0.014,0.563-0.098,0.629-0.109c0.221-0.037,0.436-0.081,0.653-0.136c1.254-0.315,2.571,0.39,2.919,1.658
    C159.93,193.98,159.121,195.127,157.908,195.573z M207.412,179.899c-5.164-2.268-11.912-9.979-5.27-14.45
    c1.925-1.296,4.176,1.653,2.469,3.2c-2.515,2.278,3.795,5.738,5.444,6.729C213.017,177.16,210.432,181.226,207.412,179.899z
     M218,174.766c-3,0-3-5.032,0-5.032C222,169.734,222,174.766,218,174.766z M220.034,165.644c0,1.451-1.118,2.27-2.434,2.434
    c-0.059,0.007-0.114,0.018-0.174,0.01c-0.678-0.088-1.225-0.212-1.729-0.716c-0.456-0.456-0.716-1.083-0.716-1.729
    c0-0.646,0.26-1.272,0.716-1.729c0.504-0.504,1.051-0.628,1.729-0.716c0.059-0.008,0.115,0.003,0.174,0.01
    C218.916,163.374,220.034,164.193,220.034,165.644z M233.593,176.526c-2.954,5.664-9.926,5.84-15.472,5.286
    c-2.901-0.29-2.92-4.256,0-4.523c2.165-0.198,4.444-0.041,6.561-0.612c2.153-0.581,3.265-1.792,4.799-3.323
    C231.642,171.197,234.949,173.927,233.593,176.526z M233.38,168.999c-1.362,2.112-4.458,0.737-3.966-1.672
    c0.461-2.257-4.555-5.248-5.974-6.426c-1.895-1.572-3.782-3.179-4.949-5.386c-2.832-5.356,0.385-10.702,4.783-13.791
    c-1.085-1.406-2.124-2.903-3.437-4.22c-1.157-1.161,0.005-3.607,1.705-2.928c3.808,1.52,5.53,5.957,9.65,6.696
    c3.434,0.616,2.012,6.136-1.457,5.284c-0.817-0.2-1.535-0.495-2.191-0.849c-2.085,2.062-5.347,4.548-3.433,7.411
    c1.542,2.307,3.912,3.912,5.879,5.825C232.708,161.585,235.852,165.167,233.38,168.999z M235.044,139.623
    c-4.911-11.686-15.475-18.293-28.223-18.08c-2.374,0.04-2.225-3.31,0-3.585c13.585-1.683,30.158,5.877,33.664,20.165
    C241.379,141.765,236.412,142.878,235.044,139.623z M217.533,130.05c-0.65,0.65-1.733,1.002-2.63,0.695
    c-0.022-0.007-0.043-0.015-0.065-0.022c-1.127-0.385-1.947-1.323-1.947-2.557c0-0.542,0.163-0.994,0.427-1.388l-0.065,0.05
    c0.012-0.018,0.023-0.035,0.035-0.053c0.615-0.945,1.898-1.686,3.053-1.242c0.026,0.01,0.052,0.02,0.078,0.03
    c0.843,0.324,1.634,0.902,1.81,1.858C218.408,128.392,218.26,129.323,217.533,130.05z M207.78,114.446
    c-2.447-3.123-2.929-7.279-2.201-11.097c0.46-2.411,4.571-1.874,4.302,0.582c-0.337,3.076,0.711,5.451,1.798,8.246
    C212.504,114.301,209.203,116.262,207.78,114.446z M212.733,112.376c-0.718-1.763-0.996-3.665-1.325-5.533
    c-0.232-1.317,0.335-2.64,1.715-3.02c1.21-0.333,2.77,0.399,3.02,1.715c0.355,1.867,0.849,3.712,1.109,5.593
    C217.665,114.125,213.883,115.202,212.733,112.376z M223,114.126c-4,0-4-5.093,0-5.093C226,109.033,226,114.126,223,114.126z
     M233.801,123.19c-4.353-1.741-7.892-7.149-6.204-11.861c0.968-2.7,5.08-1.648,4.341,1.197c-0.687,2.645,1.789,4.852,3.777,6.121
    C237.984,120.095,236.522,124.279,233.801,123.19z M241,129.374c-3,0-3-4.645,0-4.645S244,129.374,241,129.374z M251.03,143.006
    c-0.594,1.014-1.881,1.582-3.025,1.231c-3.83-1.173-5.549-5.869-4.351-9.518c0.856-2.609,5.244-2.313,5.002,0.677
    c-0.141,1.748,0.189,3.02,1.413,3.945C251.232,140.219,251.834,141.634,251.03,143.006z M247.5,153.606
    c-4.557,0.121-9.177,0.221-13.733,0.147c-2.529-0.041-2.907-3.531-0.582-4.302c4.507-1.493,9.587-2.102,14.315-2.365
    C251.686,146.854,251.708,153.494,247.5,153.606z M245.8,160.897c-1.667,0.568-0.728,3.744-0.783,4.974
    c-0.101,2.278-1.335,3.796-3.077,5.165c-2.684,2.109-6.529-1.529-3.832-3.832c0.415-0.354,1.064-0.782,1.335-1.272
    c0.064-0.116,0.104-0.169,0.134-0.2c-0.005-0.037-0.008-0.09-0.008-0.166c0.001-1.191-0.044-2.391,0.233-3.562
    c0.663-2.796,2.489-4.972,5.437-5.249C247.729,156.522,247.933,160.171,245.8,160.897z M214.267,160.411
    c-1.464,0.41-2.935,0.787-4.384,1.253c-1.226,0.395-2.576-0.449-2.907-1.65c-0.253-0.921,0.127-2.263,1.086-2.669
    c1.589-0.673,3.187-1.375,4.873-1.766c1.329-0.309,2.709,0.395,3.082,1.75C216.381,158.65,215.582,160.043,214.267,160.411z"/>
</svg>