<svg style="width: 0; height: 0; overflow: hidden; position: fixed; visibility: hidden;">
    <symbol viewBox="5.0 -10.0 100.0 135.0" id="icon-pyramid">
        <title>pyramid</title>
        <path fill="#000000" d="M84.12,56.866c-0.011-0.156-0.022-0.306-0.063-0.459c-0.043-0.163-0.117-0.311-0.194-0.465   c-0.049-0.099-0.062-0.208-0.126-0.302c-0.033-0.049-0.085-0.073-0.12-0.118c-0.035-0.046-0.046-0.102-0.085-0.145l-31.667-35.5   c-0.016-0.018-0.039-0.024-0.056-0.042c-0.034-0.036-0.068-0.07-0.104-0.104c-0.017-0.016-0.024-0.04-0.042-0.056   c-0.092-0.082-0.206-0.113-0.305-0.179c-0.115-0.076-0.217-0.174-0.341-0.229c-0.044-0.02-0.088-0.031-0.133-0.048   c-0.136-0.052-0.275-0.065-0.416-0.092c-0.135-0.026-0.264-0.069-0.401-0.073c-0.024-0.001-0.044-0.014-0.068-0.014   c-0.024,0-0.044,0.013-0.068,0.014c-0.138,0.004-0.266,0.047-0.401,0.073c-0.142,0.027-0.28,0.04-0.417,0.092   c-0.044,0.017-0.088,0.028-0.131,0.047c-0.125,0.056-0.226,0.153-0.342,0.23c-0.099,0.066-0.213,0.097-0.304,0.179   c-0.018,0.016-0.024,0.039-0.042,0.056c-0.036,0.034-0.07,0.068-0.104,0.104c-0.016,0.018-0.04,0.024-0.056,0.042l-31.666,35.5   c-0.038,0.043-0.049,0.098-0.084,0.143c-0.036,0.046-0.088,0.07-0.121,0.119c-0.065,0.096-0.079,0.207-0.129,0.308   c-0.075,0.151-0.148,0.296-0.191,0.457c-0.042,0.157-0.053,0.31-0.064,0.47c-0.011,0.16-0.02,0.313-0.001,0.472   c0.02,0.161,0.067,0.308,0.117,0.462c0.049,0.15,0.097,0.294,0.175,0.434c0.082,0.148,0.19,0.273,0.302,0.403   c0.072,0.084,0.111,0.186,0.196,0.261c0.045,0.041,0.103,0.054,0.15,0.091c0.043,0.034,0.066,0.083,0.112,0.114l31.667,21.421   c0.032,0.022,0.068,0.028,0.101,0.048c0.088,0.054,0.175,0.103,0.268,0.146c0.052,0.024,0.105,0.04,0.16,0.06   c0.005,0.002,0.01,0.004,0.015,0.005c0.066,0.024,0.129,0.055,0.197,0.074c0.208,0.057,0.42,0.091,0.636,0.094   c0.007,0,0.014,0.003,0.021,0.003c0,0,0.001,0,0.002,0c0,0,0.001,0,0.001,0s0.001,0,0.001,0c0,0,0.001,0,0.002,0   c0.007,0,0.014-0.003,0.021-0.003c0.216-0.002,0.429-0.037,0.637-0.094c0.068-0.019,0.131-0.049,0.197-0.074   c0.005-0.002,0.009-0.003,0.014-0.005c0.054-0.02,0.107-0.036,0.159-0.06c0.092-0.042,0.179-0.091,0.266-0.144   c0.034-0.02,0.071-0.027,0.104-0.05L83.068,59.11c0.045-0.031,0.068-0.079,0.111-0.113c0.048-0.037,0.107-0.051,0.153-0.092   c0.086-0.077,0.127-0.181,0.2-0.266c0.11-0.128,0.216-0.25,0.296-0.395c0.08-0.144,0.129-0.291,0.179-0.445   c0.049-0.15,0.095-0.293,0.114-0.45C84.142,57.186,84.132,57.03,84.12,56.866z M67.134,63.852l-5.119-14.871l5.684-3.845   l10.2,11.434L67.134,63.852z M22.101,56.57L32.3,45.136l5.709,3.862l-5.141,14.856L22.101,56.57z M52.499,49.382V28.097   l11.841,13.275L52.499,49.382z M47.499,49.382l-11.841-8.01l11.841-13.275V49.382z M42.297,51.898l5.203,3.519v18.335   l-10.344-6.998L42.297,51.898z M52.499,55.417l5.227-3.535l5.119,14.872l-10.346,6.998V55.417z"
        /> </symbol>
</svg>