<svg version="1.2" xmlns="http://www.w3.org/2000/svg" viewBox="0 0 100 100"><title>magicznyleszek logo</title><path d="M91.78 61.354A10.757 10.757 0 0 0 93.875 55c0-4.558-2.874-8.529-6.989-10.065.491-1.6.739-3.251.739-4.935 0-9.374-7.626-17-17-17-4.425 0-8.552 1.673-11.686 4.667a62.135 62.135 0 0 0-9.222-11.759C44.617 10.809 37.837 8 30.625 8s-13.992 2.809-19.092 7.908S3.625 27.788 3.625 35c0 6.685 2.413 12.998 6.826 17.946A13.234 13.234 0 0 0 4.875 63.75c0 7.306 5.944 13.25 13.25 13.25h5.5v11h-8a2 2 0 0 0 0 4h10a2 2 0 0 0 2-2V77h46v11h-8a2 2 0 0 0 0 4h10a2 2 0 0 0 2-2V77h10.5c4.549 0 8.25-3.701 8.25-8.25a8.262 8.262 0 0 0-4.595-7.396zM88.125 73h-70c-5.101 0-9.25-4.149-9.25-9.25 0-3.71 2.206-7.05 5.619-8.509a2.001 2.001 0 0 0 .568-3.311A22.851 22.851 0 0 1 7.625 35a22.856 22.856 0 0 1 6.736-16.264C18.706 14.393 24.481 12 30.625 12s11.919 2.393 16.264 6.736a58.145 58.145 0 0 1 9.946 13.294 2 2 0 0 0 1.616 1.038 2.03 2.03 0 0 0 1.745-.803C62.683 28.919 66.484 27 70.625 27c7.168 0 13 5.832 13 13 0 1.893-.412 3.735-1.226 5.479a1.999 1.999 0 0 0 1.565 2.83A6.752 6.752 0 0 1 89.874 55c0 2.404-1.243 4.575-3.325 5.808a1.999 1.999 0 0 0-.885 2.335 2.016 2.016 0 0 0 2.083 1.378c.124-.012.249-.021.376-.021 2.343 0 4.25 1.906 4.25 4.25S90.468 73 88.125 73zM24.24 60c0 .39-.16.78-.44 1.06s-.67.44-1.06.44a1.499 1.499 0 0 1-1.5-1.5c0-.391.16-.78.44-1.061.55-.56 1.56-.56 2.12 0 .28.281.44.661.44 1.061zm2.45 3.939c.28.28.44.67.44 1.061 0 .39-.16.78-.44 1.06s-.67.44-1.06.44a1.499 1.499 0 0 1-1.5-1.5c0-.4.16-.78.44-1.061.55-.559 1.56-.559 2.12 0zm-5.78 0c.28.28.44.67.44 1.061a1.499 1.499 0 1 1-2.56-1.061c.56-.559 1.57-.559 2.12 0zM74.24 57.5c0 .39-.16.78-.44 1.06s-.67.44-1.06.44a1.499 1.499 0 0 1-1.5-1.5c0-.391.16-.78.44-1.061.56-.56 1.56-.55 2.12 0 .28.281.44.67.44 1.061zm2.45 3.939c.27.28.43.66.43 1.061 0 .39-.16.78-.43 1.06-.29.28-.67.44-1.07.44-.39 0-.78-.16-1.06-.44-.28-.279-.44-.67-.44-1.06 0-.391.16-.78.44-1.061.56-.559 1.57-.559 2.13 0zm-5.78 0c.28.28.44.67.44 1.061a1.499 1.499 0 1 1-2.56-1.061c.56-.559 1.56-.559 2.12 0zM37.04 46.09c.37.37.58.88.58 1.41a1.998 1.998 0 0 1-2 2c-.52 0-1.03-.21-1.41-.58-.37-.38-.58-.89-.58-1.42s.21-1.04.58-1.41c.75-.75 2.08-.75 2.83 0zm22.5-.01c.37.38.58.899.58 1.42a1.998 1.998 0 0 1-2 2c-.52 0-1.03-.21-1.41-.58-.37-.38-.59-.89-.59-1.42s.22-1.04.59-1.41c.75-.75 2.08-.75 2.83-.01zm-2.466 14.587A9.512 9.512 0 0 1 48.125 67a9.513 9.513 0 0 1-8.949-6.332 2 2 0 1 1 3.771-1.336A5.505 5.505 0 0 0 48.125 63a5.508 5.508 0 0 0 5.179-3.667 2 2 0 1 1 3.77 1.334z"/></svg>