<svg xmlns="http://www.w3.org/2000/svg" viewBox="0 0 160 160"><path d="M121.271 80.514c-.916-2.42-2.527-4.079-4.442-5.794-3.077-2.756-6.135-5.582-9.313-8.221-6.261-5.2-13.519-7.867-20.871-11.131a.968.968 0 0 0-.652-.048c-.459-.069-.962.125-1.119.699-1.021 3.742 3.404 5.377 2.761 9.004-1.64 9.26-20.234 2.181-13.269-5.264 1.269-1.357 3.467-2.3 3.029-4.57-.397-2.053-2.395-2.329-4.16-2.432-7.79-.453-14.624 3.122-20.353 8.149-3.956 3.472-7.51 7.648-10.985 11.593-3.612 4.101-5.571 8.94-7.626 13.945a1.015 1.015 0 0 0-.064.561c-.716.003-1.408.739-.871 1.472 6.149 8.383 14.987 5.99 23.923 8.156 9.329 2.261 15.451 12.725 26.061 8.027 4.926-2.181 8.626-6.613 13.004-9.621 4.074-2.799 7.941-3.447 12.642-4.241 5.015-.848 11.088-2.372 11.365-8.17l.726-.808a.916.916 0 0 0 .246-.779.866.866 0 0 0-.032-.527zm-2.906 1.359v.015c-.979 1.123-1.992 2.244-3.179 3.09-2.457 1.751-5.279 1.763-8.155 2.214-3.017.473-5.908 1.027-8.74 2.253-3.361 1.454-6.295 3.558-9.117 5.86-3.432 2.798-6.719 6.808-11.281 7.485-5.361.795-8.758-2.915-12.914-5.49-2.665-1.651-5.528-2.991-8.534-3.892-6.207-1.86-15.055-.577-19.431-6.086.033-.067.076-.122.096-.204 1.345-5.558 5.756-10.016 9.786-14.122 2.622 1.68 5.499 5.772 7.175 7.253 2.332 2.062 4.781 4.073 7.543 5.539 5.443 2.888 12.325 3.789 18.379 2.835 11.125-1.753 18.682-11.795 20.624-22.46 6.588 4.277 13.049 8.851 18.065 14.958a.883.883 0 0 0-.317.752zM68.161 42.715c2.505.85 4.773 3.141 7.521 3.018 1.278-.057 1.35 1.926.074 1.983-3.12.14-5.265-2.123-8.051-3.069-1.199-.407-.754-2.343.456-1.932zm5.358-11.322c-.44-1.204 1.456-1.794 1.892-.599 1.473 4.033 4.458 7.612 4.16 12.116-.083 1.264-2.067 1.347-1.983.075.283-4.268-2.666-7.753-4.069-11.592zm11.09 11.064c1.347-3.912 3.666-7.429 6.192-10.678.785-1.01 2.234.348 1.455 1.349-2.3 2.958-4.487 6.218-5.715 9.784-.412 1.197-2.348.753-1.932-.455zm13.183 5.781c1.278-.048 1.35 1.935.074 1.983l-9.327.35c-1.278.048-1.35-1.935-.075-1.983l9.328-.35zM82.027 36.814l-.35-9.327c-.048-1.278 1.935-1.35 1.983-.075l.35 9.327c.048 1.278-1.935 1.351-1.983.075zm10.294 5.994c2.093-.456 4.244-.582 6.291-1.237 1.22-.39 1.814 1.504.599 1.892-2.051.656-4.197.781-6.291 1.237-1.242.271-1.845-1.621-.599-1.892zm23.401 52.797c-2.755 2.808-6.449 2.79-8.857 6.355-1.357 2.009-2.506 3.975-4.834 4.965-2.661 1.132-5.682.289-8.439 1.063-4.046 1.135-5.101 4.341-5.267 8.204-.134 3.114-.802 18.986-7.679 13.232-2.583-2.161-3.634-6.557-4.736-9.589-.833-2.29-1.614-6.661-5.13-6.286-2.408.257-3.873 2.668-6.64 2.39-1.435-.144-2.441-.764-3.418-1.782-.967-1.007-1.48-2.324-2.321-3.417-1.635-2.125-3.773-3.202-6.276-3.993-5.421-1.714-10.222-2.319-13.873-7.152-.772-1.022.916-2.068 1.68-1.057 4.218 5.584 10.761 4.666 16.329 7.76 1.948 1.082 3.184 2.464 4.395 4.279 1.29 1.933 1.894 3.963 5.563 3.068 1.142-.278 1.974-1.17 3.045-1.582 7.146-2.751 8.442 7.75 10.488 12.213.968 2.113 2.141 5.253 4.731 3.063 1.961-1.659 1.805-5.627 1.837-7.946.047-3.405-.278-7.33 1.878-10.229 2.803-3.768 7.113-3.041 11.171-3.643 4.097-.607 4.892-4.092 7.3-6.738 2.151-2.363 5.426-2.315 7.605-4.535.895-.911 2.344.444 1.448 1.357zm35.923-20.632c-5.286-5.207-11.071-9.84-16.116-15.314-5.094-5.526-9.726-11.488-14.855-16.981-4.996-5.352-10.907-9.686-15.73-15.204-.065-.075-.138-.112-.209-.159a1.015 1.015 0 0 0-.294-.343c-9.747-7.3-16.86-18.61-28.288-23.512-.307-.132-.566-.082-.766.059-6.025 1.493-10.496 7.779-14.514 12.139-7.084 7.686-14.178 15.385-21.175 23.156-6.975 7.747-13.697 15.734-20.321 23.803-2.711 3.303-5.567 6.49-8.221 9.84-1.474 1.861-4.515 5.893-6.504 8.906-1.262 1.911-2.376 3.244.233 5.584.041.054.065.111.124.162 6.06 5.248 11.261 11.329 16.654 17.279 5.669 6.255 11.955 11.722 18.015 17.554 12.121 11.664 25.402 22.232 37.309 34.066.69.686 1.627 1.32 2.758.561 5.992-4.026 11.561-8.471 16.468-13.805 5.71-6.206 11.42-12.439 17.043-18.728 12.069-13.499 39.14-40.408 39.293-40.617 2.845-3.87 2.922-4.677-.904-8.446zm-21.56 22.259c-6.253 6.548-12.652 12.949-18.79 19.615-5.42 5.886-11.462 11.283-16.665 17.357-4.534 5.294-10.332 9.324-14.62 14.808-13.253-9.798-25.326-20.423-37.21-31.932-11.044-10.697-23.168-20.275-32.766-32.46 2.943-5.324 7.576-9.143 11.537-13.617 4.025-4.545 7.823-9.299 11.884-13.815 8.788-9.772 17.917-19.204 26.323-29.338a1.01 1.01 0 0 0 .232-.652.799.799 0 0 0 .561-.173c2.51-1.831 4.384-4.172 6.289-6.634 2.579-3.333 5.524-5.787 8.86-8.263 3.42 1.514 5.773 4.548 8.418 7.165 2.71 2.682 5.765 4.951 8.506 7.597 6.298 6.079 12.155 12.867 18.175 19.25 5.407 5.733 10.405 11.623 16.431 16.691 6.228 5.237 12.699 10.077 18.106 16.266.115.132.242.21.372.26-5.511 5.648-10.18 12.153-15.643 17.875z"/></svg>