<svg version="1.2" baseProfile="tiny" xmlns="http://www.w3.org/2000/svg" viewBox="0 0 160 160"><path d="M144.381 71.168a2.918 2.918 0 0 0-.17-1.18c-.478-1.276-1.617-1.921-2.847-1.724.067-.828.093-1.658-.152-2.452-.381-1.236-1.281-1.637-2.287-1.589 1.422-5.087 1.782-10.474 1.817-15.723 0-.029-.013-.048-.015-.076a1 1 0 0 0-.021-.438c-1.086-4.145-.911-8.241-2.299-12.334a62.941 62.941 0 0 0-3.24-7.814c-2.676-5.37-6.409-10.128-11.617-13.21-1.678-.993-7.64-4.926-9.469-2.462-.296.398-.399.859-.38 1.349-2.639-2.027-5.744-3.515-7.787-1.568-2.027 1.931.489 4.791 2.655 6.655h-.045c-.537.033-.991.428-.992.992a7.262 7.262 0 0 0 .3 2.034c-1.8-1.025-3.693-1.796-5.808-1.83-.554-.009-.969.463-.992.992-.044.56-.052 1.12-.044 1.681-6.096-4.117-12.797-7.045-20.629-8.633-15.213-3.085-31.288-2.408-46.28 1.186-.029-.001-.049-.015-.079-.014-3.456.083-11.958 2.403-11.414 7.349.139 1.268.889 1.967 1.891 2.305-3.034 1.765-5.855 4.138-6.636 7.229-.586 2.32.554 3.878 2.418 4.07-.474 1.005-.414 2.167.643 3.077.4.344.8.56 1.199.691-4.789 4.807-8.68 9.442-8.912 16.793-.255 8.068-.023 16.667 2.375 24.435.529 1.713 1.185 3.405 1.916 5.075-2.256.048-4.49.096-6.748-.144-.409-.043-.87.338-.957.728-1.253 5.643-.109 11.723-.523 17.486a282.492 282.492 0 0 0-.744 21.147c0 .077.028.134.042.201-.022.512.291 1.04.951 1.041 9.401.016 18.8.221 28.2-.019.46-.012.812-.304.957-.728.926-2.725.689-5.357.566-8.201a1.024 1.024 0 0 0-.728-.957c-2.314-.709-4.455-.963-6.865-1.137-2.364-.17-7.507.143-9.49-1.451-1.893-1.521-.943-5.482-.92-7.663.037-3.599-.072-5.885 4.281-5.594.061.004.104-.017.159-.022.392.598.805 1.198 1.239 1.787h-2.65c-1.277 0-1.279 1.984 0 1.984H28a.995.995 0 0 0 .427-.091c1.809 2.021 3.962 3.635 6.596 4.036.489.074 1.12-.117 1.221-.693a7.457 7.457 0 0 0-.198-3.469c2.08 1.464 3.994 3.112 6.213 4.231.007 4.224.053 8.451-.058 12.674-.064 2.446-.168 4.892-.376 7.331-.15 1.754.265 4.906-.797 6.291-2.14 2.793-8.515.549-11.472.262-4.556-.442-9.203-.211-13.735-.861-2.55-.366-5.815-1.882-6.988 1.077-.769 1.939-.356 7.956 1.781 9.166 1.98 1.121 5.533.727 7.667.887 4.161.311 8.291.684 12.468.65 4.243-.035 8.459-.381 12.692-.62 2.206-.125 5.482.613 7.578-.216 4.4-1.739 2.813-9.876 2.572-13.347-.594-8.574.136-16.728.36-25.233.936.794 1.88 1.587 2.867 2.168-.025.086-.058.166-.059.268-.108 5.756-1.01 11.464-.406 17.218.058.557.408.961.992.992 11.359.61 22.618 1.346 33.913-.329 2.049-.304 4.924.298 6.294-1.47 2.338-3.017.192-10.426.194-14.005a62.245 62.245 0 0 0 3.484-.495c-.25 4.788-2.071 14.069 3.416 15.957 3.521 1.211 7.977.12 11.59-.075 3.614-.196 7.255.085 10.855-.39 1.883-.248 3.905-.483 4.741-2.357.759-1.703.515-6.132-.526-7.706-1.363-2.06-5.085-1.503-7.164-1.519-2.985-.023-6.733.509-9.589-.35-3.271-.984-2.183-3.287-2.061-6.22.003-.069-.021-.12-.029-.181a92.89 92.89 0 0 0 5.736-2.131 95.162 95.162 0 0 0 4.402-1.951.9.9 0 0 0 .65.256c2.793-.01 5.45 1.015 8.25 1 1.276-.007 1.279-1.991 0-1.984-1.966.011-3.864-.489-5.791-.786.593-.297 1.186-.595 1.776-.898a.896.896 0 0 0 .564.167c2.012-.149 4.01.111 6.017.209.103 6.52.345 13.036.523 19.555.095 3.481.695 7.486.195 10.928-.294 2.021-.748 2.605-3.007 3.058-1.599.32-3.533-.006-5.14-.137a117.12 117.12 0 0 0-10.941-.376c-3.068.035-6.599-.759-9.614-.233-3.489.608-3.701 3.359-3.24 6.447.585 3.917 2.257 5.103 6.127 5.279 7.545.344 15.094-.203 22.642.123 3.426.148 10.71 1.201 13.484-1.723 3.498-3.689 1.389-12.996 1.114-17.483-.544-8.857-.199-17.851.049-26.719.161-5.76 1.069-11.708-1.284-17.138 2.424-2.747 4.349-5.829 4.747-8.775.502-3.719-2.751-5.153-5.341-3.593zM102.992 23.25c-.068-2.795 3.484-.107 4.882.76 1.182.733 2.325 1.521 3.498 2.265.42.289.854.562 1.314.8 1.13.583 2.115-1.071 1.002-1.713-.066-.038-.131-.079-.196-.117-1.045-.672-4.338-3.397-2.56-4.508.584-.365 4.026 2.343 4.689 2.838 3.227 2.41 5.66 5.178 8.06 8.392 4.637 6.209 7.035 12.713 6.576 20.534-.075 1.276 1.91 1.271 1.984 0 .52-8.848-2.518-15.85-7.778-22.789-2.921-3.853-7.441-9.135-12.545-10.679a.99.99 0 0 0-.418-.639c-1.553-1.093-6.229-5.168-1.963-4.758 2.621.252 5.499 3.563 7.191 5.447.742.826 2.213-.273 1.558-1.202-.553-.785-1.783-2.038-1.954-2.99-1.05-1.392-.664-1.724 1.16-.995l2.369 1.012c4.402 2.094 7.923 5.038 10.716 9.042 2.45 3.512 4.167 7.445 5.632 11.451 1.561 4.268 1.442 8.683 2.563 13.027-.002.027-.015.046-.016.074-.04 5.924-.472 11.965-2.496 17.583-2.629 7.3-8.045 11.262-14.662 14.812-6.405 3.436-13.323 6.069-20.493 7.355-3.881.696-7.807.843-11.734 1.068-4.188.24-8.218-.442-12.373-.309-6.814.285-15.561-4.503-18.961-10.419-2.417-4.206-2.613-9.358-.69-13.769 2.008-4.605 7.383-9.517 12.535-6.929-4.873 3.961-7.398 11.163-4.757 17.097 4.01 9.01 16.38 7.673 24.372 8.004 1.277.053 1.274-1.932 0-1.984-6.964-.289-17.868 1.198-22.074-5.858-2.927-4.91-.96-11.447 3.057-15.173-.084 4.153-.143 7.32 3.897 10.372 4.568 3.451 10.455 3.41 15.92 3.643 6.552.279 10.048-.574 15.297-4.346 3.905-2.806 8.571-4.814 11.422-8.862 2.818-4 3.407-10.105 3.07-14.879-.399-5.653-3.664-9.645-7.488-13.578-3.134-3.223-6.358-6.076-9.757-8.557a.903.903 0 0 0 .151-.523zM23.514 35.707c.563-.116.75-.567.688-1.005 1.496-.972 2.951-2.298 4.212-3.204 3.284-2.361 6.452-5.06 10.081-6.898 3.871-1.96 8.17-2.725 12.412-3.404 5.084-.814 10.176-1.88 15.343-1.704 1.277.043 1.276-1.941 0-1.984-5.345-.182-10.613.945-15.87 1.775-4.719.745-9.427 1.695-13.643 4.03-4.393 2.433-8.354 5.749-12.406 8.7-1.341.977-1.547 1.76-3.106.531-1.778-1.402-.111-2.519 1.31-3.902 1.982-1.93 4.539-3.248 7.077-4.322.383-.133.73-.278 1.015-.425.98-.505.288-2.241-.765-1.813a59.29 59.29 0 0 0-1.445.61 5.98 5.98 0 0 1-1.846.273c-1.414-1.696-1.338-2.885.229-3.565 1.389-1.886 5.073-2.355 7.202-2.406.033-.001.055-.016.087-.02.13.024.273.021.427-.016 14.037-3.377 28.851-3.997 43.172-1.608 13.605 2.269 24 8.617 33.511 18.383 2.703 2.776 5.619 5.828 6.559 9.698.812 3.345.403 7.213-.227 10.544-1.325 7.003-6.401 9.524-11.798 13.17-2.565 1.733-4.723 3.982-7.854 4.683-3.095.693-6.603.23-9.736.083-3.746-.175-7.712-.295-11.07-2.167-4.8-2.675-4.64-6.113-4.585-10.508 4.768 7.292 16.088 8.846 24.042 6.823 9.933-2.526 11.986-12.194 12.215-21.308.032-1.277-1.952-1.277-1.984 0-.205 8.173-1.697 17.068-10.758 19.394-6.999 1.797-17.11.513-21.58-5.656 4.04.764 7.775 2.949 12.02 2.347 3.444-.488 7.894-1.967 10.516-4.384 5.222-4.813 4.563-14.534 1.33-20.214-4.714-8.283-18.725-10.909-27.368-10.387-6.101.368-12.316 1.727-18.207 3.311-6.596 1.773-12.632 5.104-19.253 6.818-.216-.057-.461-.02-.709.163-1.34.992-2.873 2.367-4.537 2.766-.279.067-1.418.286-1.604-.034-.087-.15.53-.866.61-.968.476-.601 1.085-1.115 1.657-1.623.828-.736-.297-2.244-1.202-1.558-.068.051-.129.109-.195.162l-.006-.007-.189.169c-.818.689-1.55 1.484-2.418 2.099-.6.425-2.04 1.161-2.713.366-.792-.931.718-1.676 1.359-1.808zm34.08 71.166c-2.731-1.487-4.421-4.312-7.581-5.08-.011-.003-.019.001-.029-.001-1.535-1.871-3.917-3.308-5.483-4.908-3.715-3.797-6.368-8.115-8.045-13.147-.402-1.206-2.319-.689-1.913.528 1.56 4.681 3.907 8.897 7.203 12.586 1.631 1.826 3.507 3.282 5.3 4.925a9.561 9.561 0 0 1 2.04 2.22l-.835 2.189c-.352.128-1.817-1.074-2.484-1.592a13.907 13.907 0 0 0-1.176-1.147c-3.593-3.156-7.089-5.453-9.974-9.465-3.368-4.685-6.306-9.994-7.922-15.547-2.023-6.955-.653-12.879 1.013-19.669.304-1.24-1.609-1.769-1.913-.528-1.381 5.632-2.865 10.755-1.946 16.608.978 6.227 3.845 12.063 7.184 17.346 2.642 4.18 5.702 7.978 9.728 10.872 1.763 1.267 7.076 6.368 1.513 3.295-2.5-1.381-4.542-3.515-7.021-4.963a.915.915 0 0 0-.766-.097c-1.176-1.565-2.751-2.942-4.284-4.248-.967-.824-2.377.573-1.403 1.403 1.338 1.14 2.699 2.264 3.775 3.665 1.147 1.164 1.852 2.589 2.115 4.275a7.449 7.449 0 0 1-2.936-1.607c-2.137-1.666-3.722-4.064-5.173-6.32-2.991-4.653-6.036-9.894-8.054-15.039-2.737-6.978-3.174-14.314-3.283-21.725-.065-4.428-.42-8.81 1.746-12.857 1.882-3.517 4.998-6.287 7.845-9.042.136.238.336.466.625.676 2.583 1.872 6.116-.995 8.149-2.513.054-.005.1.007.157-.008 9.261-2.341 17.699-6.597 27.117-8.598 10.85-2.305 23.752-2.503 33.036 4.787 5.43 4.264 7.041 15.977 1.637 20.903-2.882 2.627-8.774 4.462-12.604 3.774-1.905-.342-3.574-1.354-5.356-2.033 5.162-1.168 9.975-4.328 10.201-10.187.136-3.528-1.454-6.544-4.087-8.814-3.307-2.85-6.883-3.167-10.944-4.245-1.235-.328-1.763 1.586-.527 1.914 5.479 1.455 12.454 2.473 13.431 9.413.939 6.668-5.202 9.88-10.918 10.389-.042.004-.072.025-.111.033 3.044-3.914 1.257-9.865-2.675-13.029-7.612-6.124-18.615-2.254-25.562 2.84-7.394 5.421-10.019 13.992-9.339 22.897.653 8.556 2.17 19.463 9.236 25.203.019.015.04.017.059.031.043.043.088.086.142.124 4.785 3.419 9.296 7.361 14.415 10.294.43.683.711 1.471.695 2.218-.049 2.21-2.636 1.753-4.018 1.001zm27.718 7.788c-.43 2.254-2.061 2.304-3.831 2.619-2.873.511-6.152.117-9.059.249-.973.044-1.959.411-2.842-.123-1.099-.665-.723-1.71-.817-2.898-.198-2.498-.395-4.977-.479-7.475 3.987 1.481 8.176 2.593 12.204 3.501 1.666.375 3.332.649 4.995.846a.892.892 0 0 0-.226.62c.013.82.211 1.846.055 2.661zm59.994-35.519c-2.609 3.807-5.488 7.092-9.374 9.626-2.361.802-4.443 3.39-6.432 4.375-1.144.567-.14 2.279 1.002 1.713.78-.386 1.422-.91 2.123-1.419.693-.503 1.463-1.467 2.257-1.736.681-.231 3.451-.312 3.491.96.058 1.831-6.271 4.256-7.883 5.119-8.816 4.717-17.946 8.946-27.807 10.938-10.406 2.102-20.14.724-30.149-2.494-4.165-1.339-7.827-3.117-11.295-5.167a5.519 5.519 0 0 0-.488-.415.862.862 0 0 0-.506-.185c-4.264-2.611-8.275-5.617-12.613-8.72-4.917-4.042-6.381-10.22-7.504-16.219-1.404-7.501-2.224-15.48 1.638-22.426 3.18-5.718 10.22-10.179 16.535-11.55 4.228-.918 9.758-.309 13.015 2.788 2.812 2.674 4.455 7.896.852 10.673-2.327-5.566-9.541-7.774-15.03-5.474-9.773 4.096-10.698 16.205-10.63 25.22.01 1.276 1.994 1.279 1.984 0-.055-7.227.084-15.189 5.574-20.675 4.428-4.425 13.755-5.019 16.318 1.802-9.29-4.54-17.149 8.971-16.21 17.097C55.357 83.201 67.002 91.41 77 90.992c4.748-.153 9.389.48 14.179.202 4.083-.237 8.098-.512 12.108-1.356 7.828-1.647 15.371-4.807 22.237-8.882 5.35-3.175 9.425-6.664 11.922-12.469.302-.703.569-1.417.819-2.136.955-.415 1.09-.28 1.142.703.042.782-.065 1.56-.119 2.34-.986.928-1.73 2.221-2.343 3.309-1.291 2.288-2.319 4.661-4.147 6.596-.877.928.524 2.334 1.403 1.403 1.952-2.067 3.076-4.549 4.457-6.997.338-.6.69-1.195 1.091-1.756.258-.38.549-.732.869-1.06a.918.918 0 0 0 .521-.456c.213-.034.426.121.638.48.954.765.323 1.25-.118 2.253-.23.523-.459 1.019-.617 1.57a.986.986 0 0 0-.027.353c-1.398 2.134-2.657 4.41-4.324 6.355-3.516 4.102-7.426 7.055-12.362 9.222-10.648 4.674-21.255 9.246-33.081 9.342-1.276.01-1.279 1.995 0 1.984 7.045-.057 13.861-1.523 20.458-3.961 6.567-2.426 14.265-4.938 19.937-9.078 4.451-3.249 8.274-7.745 11.176-12.413.558-.897 3.027-6.437 4.367-.435.129.565-1.717 2.799-1.88 3.037zM130.75 56.008c1.279 0 1.277 1.984 0 1.984-1.279 0-1.277-1.984 0-1.984zm-1.75 4c1.279 0 1.277 1.984 0 1.984-1.279 0-1.277-1.984 0-1.984zm-58.25-41.75c1.279 0 1.277 1.984 0 1.984-1.279 0-1.277-1.984 0-1.984zm4 .75c1.279 0 1.277 1.984 0 1.984-1.279 0-1.277-1.984 0-1.984zm28.5 13.5c1.279 0 1.277 1.984 0 1.984-1.279 0-1.277-1.984 0-1.984zm2.5 3.5c1.279 0 1.277 1.984 0 1.984-1.279 0-1.277-1.984 0-1.984zm1.5 3.75c1.279 0 1.277 1.984 0 1.984-1.279 0-1.277-1.984 0-1.984zM88 101.492c-1.279 0-1.277-1.984 0-1.984 1.279 0 1.277 1.984 0 1.984zm-4-.5c-1.279 0-1.277-1.984 0-1.984 1.279 0 1.277 1.984 0 1.984zm-36-22c-1.279 0-1.277-1.984 0-1.984 1.279 0 1.277 1.984 0 1.984zm1.5 3.25c-1.279 0-1.277-1.984 0-1.984 1.279 0 1.277 1.984 0 1.984zm2.75 3.25c-1.279 0-1.277-1.984 0-1.984 1.279 0 1.277 1.984 0 1.984zm10 8.25c-1.279 0-1.277-1.984 0-1.984 1.279 0 1.277 1.984 0 1.984zm3 1.5c-1.279 0-1.277-1.984 0-1.984 1.279 0 1.277 1.984 0 1.984zm58-27.734c1.279 0 1.277 1.984 0 1.984-1.279 0-1.277-1.984 0-1.984zm-1.75 2.25c1.279 0 1.277 1.984 0 1.984-1.279 0-1.277-1.984 0-1.984zm-2.75 4.734c-1.279 0-1.277-1.984 0-1.984 1.279 0 1.277 1.984 0 1.984zm-25.25 8.5c-1.279 0-1.277-1.984 0-1.984 1.279 0 1.277 1.984 0 1.984zm3.25.25c-1.279 0-1.277-1.984 0-1.984 1.279 0 1.277 1.984 0 1.984zM68.5 33.508c1.279 0 1.277 1.984 0 1.984-1.279 0-1.277-1.984 0-1.984zm-4.25.25c1.279 0 1.277 1.984 0 1.984-1.279 0-1.277-1.984 0-1.984zM34.5 80.742c-1.279 0-1.277-1.984 0-1.984 1.279 0 1.277 1.984 0 1.984zm-.25-3.5c-1.279 0-1.277-1.984 0-1.984 1.279 0 1.277 1.984 0 1.984zm-.5-10.25c-1.279 0-1.277-1.984 0-1.984 1.279 0 1.277 1.984 0 1.984zM28 55.742c-1.279 0-1.277-1.984 0-1.984 1.279 0 1.277 1.984 0 1.984zm2.25-2.75c-1.279 0-1.277-1.984 0-1.984 1.279 0 1.277 1.984 0 1.984zm2.25-2.5c-1.279 0-1.277-1.984 0-1.984 1.279 0 1.277 1.984 0 1.984zM31 32.758c1.279 0 1.277 1.984 0 1.984-1.279 0-1.277-1.984 0-1.984zm2.75-1.75c1.279 0 1.277 1.984 0 1.984-1.279 0-1.277-1.984 0-1.984zm4.25-1.75c1.279 0 1.277 1.984 0 1.984-1.279 0-1.277-1.984 0-1.984zm77.75-1.75c1.279 0 1.277 1.984 0 1.984-1.279 0-1.277-1.984 0-1.984zm2.25 3.5c1.279 0 1.277 1.984 0 1.984-1.279 0-1.277-1.984 0-1.984zm-28.5 21.75c1.279 0 1.277 1.984 0 1.984-1.279 0-1.277-1.984 0-1.984zm3.25-3.25c1.279 0 1.277 1.984 0 1.984-1.279 0-1.277-1.984 0-1.984zm0-5.5c1.279 0 1.277 1.984 0 1.984-1.279 0-1.277-1.984 0-1.984zm-31 .75c1.279 0 1.277 1.984 0 1.984-1.279 0-1.277-1.984 0-1.984zm4 .5c1.279 0 1.277 1.984 0 1.984-1.279 0-1.277-1.984 0-1.984zm14.75 3.5c1.279 0 1.277 1.984 0 1.984-1.279 0-1.277-1.984 0-1.984zm-.75-5.25c1.279 0 1.277 1.984 0 1.984-1.279 0-1.277-1.984 0-1.984zM63 63.992c-1.279 0-1.277-1.984 0-1.984 1.279 0 1.277 1.984 0 1.984zm-1.75 4c-1.279 0-1.277-1.984 0-1.984 1.279 0 1.277 1.984 0 1.984zM63 52.008c1.279 0 1.277 1.984 0 1.984-1.279 0-1.277-1.984 0-1.984zm6.75 19.484c-1.279 0-1.277-1.984 0-1.984 1.279 0 1.277 1.984 0 1.984zm2.75 3.25c-1.279 0-1.277-1.984 0-1.984 1.279 0 1.277 1.984 0 1.984zm5.5-7.5c-1.279 0-1.277-1.984 0-1.984 1.279 0 1.277 1.984 0 1.984zM27.25 92.758c1.279 0 1.277 1.984 0 1.984-1.279 0-1.277-1.984 0-1.984zm-12.5 36.984c-1.279.042-1.274-1.943 0-1.984 4.158-.137 8.225.701 12.372.75 3.805.045 7.566-.465 11.378-.25 1.272.072 1.276 2.056 0 1.984-3.809-.215-7.574.275-11.378.25-4.149-.027-8.211-.886-12.372-.75zm36 18.75c-6.339.052-12.527 1.525-18.849 1.721-6.161.191-12.248-1.094-18.401-1.221-1.277-.026-1.277-2.011 0-1.984 6.153.127 12.24 1.411 18.401 1.221 6.323-.196 12.51-1.668 18.849-1.721 1.279-.011 1.276 1.974 0 1.984zM97 130.242c-6.112.16-12.084 1.691-18.199 1.75-6.36.062-12.691-.908-19.051-1-1.278-.019-1.277-2.003 0-1.984 6.359.092 12.691 1.062 19.051 1 6.113-.059 12.087-1.59 18.199-1.75 1.28-.034 1.275 1.951 0 1.984zm10-2.234c7.252.003 14.502.029 21.75-.25 1.279-.049 1.273 1.935 0 1.984-7.248.279-14.498.253-21.75.25-1.279 0-1.277-1.985 0-1.984zm35.5 21.984c-7.074-.104-13.868-.69-20.931.084-5.55.608-11.308 1.042-16.582-1.119-1.168-.478-.653-2.397.527-1.914 5.578 2.286 11.657 1.53 17.491.88 6.537-.728 12.948-.012 19.495.084 1.278.02 1.277 2.004 0 1.985z"/></svg>